M48
; DRILL file {KiCad 9.0.7} date 2026-03-26T14:30:34+0100
; FORMAT={-:-/ absolute / inch / decimal}
; #@! TF.CreationDate,2026-03-26T14:30:34+01:00
; #@! TF.GenerationSoftware,Kicad,Pcbnew,9.0.7
; #@! TF.FileFunction,Plated,1,4,PTH
FMAT,2
INCH
; #@! TA.AperFunction,Plated,PTH,ViaDrill
T1C0.0118
; #@! TA.AperFunction,Plated,PTH,ComponentDrill
T2C0.0197
; #@! TA.AperFunction,Plated,PTH,ComponentDrill
T3C0.0236
; #@! TA.AperFunction,Plated,PTH,ComponentDrill
T4C0.0295
; #@! TA.AperFunction,Plated,PTH,ComponentDrill
T5C0.0394
; #@! TA.AperFunction,Plated,PTH,ComponentDrill
T6C0.0433
; #@! TA.AperFunction,Plated,PTH,ComponentDrill
T7C0.1260
%
G90
G05
T1
X5.0768Y-3.787
X5.0768Y-3.963
X5.1145Y-2.994
X5.1947Y-2.9137
X5.2539Y-3.7087
X5.2854Y-3.624
X5.3496Y-4.6488
X5.3602Y-3.0098
X5.409Y-4.3469
X5.4374Y-4.3185
X5.4401Y-4.3768
X5.4685Y-4.3484
X5.4764Y-4.7756
X5.4843Y-2.9232
X5.6417Y-3.4409
X5.6728Y-3.7047
X5.6728Y-3.7432
X5.6732Y-3.4409
X5.7047Y-3.4409
X5.7047Y-3.5866
X5.7047Y-3.6181
X5.7047Y-3.6496
X5.7569Y-3.8553
X5.7702Y-3.7117
X5.7702Y-3.7747
X5.8071Y-3.2539
X5.8243Y-3.8289
X5.9429Y-4.061
X5.9503Y-3.5001
X5.9508Y-3.2874
X5.9701Y-3.9327
X5.9803Y-4.3996
X6.0118Y-4.1969
X6.0118Y-4.2402
X6.0118Y-4.2795
X6.0448Y-3.5001
X6.0453Y-3.4035
X6.0453Y-3.4413
X6.063Y-4.1969
X6.063Y-4.2362
X6.063Y-4.2795
X6.0846Y-3.4035
X6.0846Y-3.4413
X6.0955Y-4.0827
X6.0989Y-3.5543
X6.1063Y-4.1969
X6.1063Y-4.2362
X6.1102Y-4.2795
X6.1122Y-2.9409
X6.122Y-3.4035
X6.122Y-3.4413
X6.1398Y-4.0039
X6.1535Y-4.1969
X6.1535Y-4.2362
X6.1535Y-4.2795
X6.1555Y-3.7756
X6.2008Y-3.6172
X6.2008Y-3.6791
X6.2008Y-3.7117
X6.2028Y-3.5857
X6.2539Y-3.5154
X6.3331Y-4.3484
X6.4173Y-4.1427
X6.4173Y-4.2037
X6.4272Y-3.1201
X6.4734Y-2.8839
X6.4803Y-3.3307
X6.4823Y-3.3937
X6.498Y-3.2736
X6.498Y-4.1284
X6.4988Y-4.0689
X6.499Y-3.127
X6.5157Y-3.7146
X6.5205Y-4.2756
X6.5315Y-3.498
X6.5354Y-4.1284
X6.5366Y-4.0689
X6.5453Y-3.5335
X6.5583Y-4.2756
X6.5728Y-4.1284
X6.5728Y-4.218
X6.6457Y-3.185
X6.6457Y-3.2244
X6.6693Y-3.4252
X6.6693Y-3.4606
X6.6756Y-3.0881
X6.6791Y-3.2554
X6.6791Y-3.2992
X6.6791Y-3.3406
X6.6811Y-4.6665
X6.689Y-3.185
X6.6929Y-3.5571
X6.7224Y-3.2559
X6.7224Y-3.2987
X6.7224Y-3.3386
X6.7362Y-3.0881
X6.7657Y-3.2559
X6.7657Y-3.2972
X6.7657Y-3.3386
X6.7972Y-3.0876
X6.7972Y-4.0752
X6.8091Y-3.2146
X6.8445Y-3.5945
X6.8701Y-3.3504
X6.8799Y-3.5236
X6.8878Y-4.1531
X6.9035Y-3.498
X6.9213Y-3.2087
X6.9256Y-4.1531
X6.939Y-3.3854
X6.9409Y-3.6417
X6.9449Y-3.5039
X6.9638Y-3.252
X6.9646Y-3.2913
X6.9882Y-3.3386
X6.9951Y-4.1045
X6.9961Y-4.065
X7.1457Y-3.4252
X7.1457Y-3.4646
X7.2181Y-4.0508
X7.2244Y-3.4252
X7.2244Y-3.4646
X7.2283Y-3.7295
X7.2291Y-3.6909
X7.3492Y-3.4705
X7.3492Y-3.502
X7.3492Y-3.6909
X7.3492Y-3.7224
X7.4343Y-3.2972
X7.5102Y-3.8287
X7.5413Y-4.0496
X7.5413Y-4.1496
X7.5413Y-4.1996
X7.5413Y-4.2496
X7.5693Y-3.3563
T2
X5.0236Y-2.7559
X5.0236Y-4.7244
X5.0513Y-2.6891
X5.0513Y-2.8227
X5.0513Y-4.6576
X5.0513Y-4.7912
X5.1181Y-2.6614
X5.1181Y-2.8504
X5.1181Y-4.6299
X5.1181Y-4.8189
X5.1849Y-2.6891
X5.1849Y-2.8227
X5.1849Y-4.6576
X5.1849Y-4.7912
X5.2126Y-2.7559
X5.2126Y-4.7244
X7.3858Y-2.7559
X7.3858Y-4.7244
X7.4135Y-2.6891
X7.4135Y-2.8227
X7.4135Y-4.6576
X7.4135Y-4.7912
X7.4803Y-2.6614
X7.4803Y-2.8504
X7.4803Y-4.6299
X7.4803Y-4.8189
X7.5471Y-2.6891
X7.5471Y-2.8227
X7.5471Y-4.6576
X7.5471Y-4.7912
X7.5748Y-2.7559
X7.5748Y-4.7244
T4
X5.8583Y-4.7441
X5.937Y-4.7441
X6.1339Y-4.7441
X6.2126Y-4.7441
X7.0295Y-2.6929
X7.1083Y-2.6929
T5
X5.1578Y-3.0843
X5.1602Y-4.3256
X5.1713Y-3.4281
X5.1713Y-3.5281
X5.1713Y-3.6281
X5.1713Y-3.7281
X5.1713Y-3.8281
X5.1713Y-3.9281
X5.2285Y-3.0136
X5.2309Y-4.3963
X5.2992Y-2.9429
X5.3016Y-4.467
X5.3699Y-2.8722
X5.3724Y-4.5377
X5.4406Y-2.8015
X5.4431Y-4.6084
X5.5113Y-2.7308
X5.5138Y-4.6791
X6.1098Y-2.6821
X6.1098Y-2.7821
X6.2098Y-2.6821
X6.2098Y-2.7821
X6.3098Y-2.6821
X6.3098Y-2.7821
X6.4098Y-2.6821
X6.4098Y-2.7821
T6
X6.7677Y-4.628
X6.7677Y-4.8051
X7.0236Y-4.628
X7.0236Y-4.8051
X7.3937Y-2.9606
X7.3937Y-3.2165
X7.5709Y-2.9606
X7.5709Y-3.2165
T7
X5.1181Y-2.7559
X5.1181Y-4.7244
X7.4803Y-2.7559
X7.4803Y-4.7244
T3
G00X7.3502Y-3.4264
M15
G01X7.3935Y-3.4264
M16
G05
G00X7.3502Y-3.7665
M15
G01X7.3935Y-3.7665
M16
G05
G00X7.5207Y-3.4264
M15
G01X7.5522Y-3.4264
M16
G05
G00X7.5207Y-3.7665
M15
G01X7.5522Y-3.7665
M16
G05
M30
