%TF.GenerationSoftware,KiCad,Pcbnew,9.0.7*%
%TF.CreationDate,2026-03-26T11:32:34+01:00*%
%TF.ProjectId,pcb_pcBOT,7063625f-7063-4424-9f54-2e6b69636164,rev?*%
%TF.SameCoordinates,Original*%
%TF.FileFunction,Legend,Bot*%
%TF.FilePolarity,Positive*%
%FSLAX46Y46*%
G04 Gerber Fmt 4.6, Leading zero omitted, Abs format (unit mm)*
G04 Created by KiCad (PCBNEW 9.0.7) date 2026-03-26 11:32:34*
%MOMM*%
%LPD*%
G01*
G04 APERTURE LIST*
%ADD10C,0.150000*%
%ADD11C,0.120000*%
G04 APERTURE END LIST*
D10*
X171769047Y-76204819D02*
X172102380Y-75728628D01*
X172340475Y-76204819D02*
X172340475Y-75204819D01*
X172340475Y-75204819D02*
X171959523Y-75204819D01*
X171959523Y-75204819D02*
X171864285Y-75252438D01*
X171864285Y-75252438D02*
X171816666Y-75300057D01*
X171816666Y-75300057D02*
X171769047Y-75395295D01*
X171769047Y-75395295D02*
X171769047Y-75538152D01*
X171769047Y-75538152D02*
X171816666Y-75633390D01*
X171816666Y-75633390D02*
X171864285Y-75681009D01*
X171864285Y-75681009D02*
X171959523Y-75728628D01*
X171959523Y-75728628D02*
X172340475Y-75728628D01*
X171388094Y-75300057D02*
X171340475Y-75252438D01*
X171340475Y-75252438D02*
X171245237Y-75204819D01*
X171245237Y-75204819D02*
X171007142Y-75204819D01*
X171007142Y-75204819D02*
X170911904Y-75252438D01*
X170911904Y-75252438D02*
X170864285Y-75300057D01*
X170864285Y-75300057D02*
X170816666Y-75395295D01*
X170816666Y-75395295D02*
X170816666Y-75490533D01*
X170816666Y-75490533D02*
X170864285Y-75633390D01*
X170864285Y-75633390D02*
X171435713Y-76204819D01*
X171435713Y-76204819D02*
X170816666Y-76204819D01*
X170197618Y-75204819D02*
X170102380Y-75204819D01*
X170102380Y-75204819D02*
X170007142Y-75252438D01*
X170007142Y-75252438D02*
X169959523Y-75300057D01*
X169959523Y-75300057D02*
X169911904Y-75395295D01*
X169911904Y-75395295D02*
X169864285Y-75585771D01*
X169864285Y-75585771D02*
X169864285Y-75823866D01*
X169864285Y-75823866D02*
X169911904Y-76014342D01*
X169911904Y-76014342D02*
X169959523Y-76109580D01*
X169959523Y-76109580D02*
X170007142Y-76157200D01*
X170007142Y-76157200D02*
X170102380Y-76204819D01*
X170102380Y-76204819D02*
X170197618Y-76204819D01*
X170197618Y-76204819D02*
X170292856Y-76157200D01*
X170292856Y-76157200D02*
X170340475Y-76109580D01*
X170340475Y-76109580D02*
X170388094Y-76014342D01*
X170388094Y-76014342D02*
X170435713Y-75823866D01*
X170435713Y-75823866D02*
X170435713Y-75585771D01*
X170435713Y-75585771D02*
X170388094Y-75395295D01*
X170388094Y-75395295D02*
X170340475Y-75300057D01*
X170340475Y-75300057D02*
X170292856Y-75252438D01*
X170292856Y-75252438D02*
X170197618Y-75204819D01*
X169530951Y-75204819D02*
X168864285Y-75204819D01*
X168864285Y-75204819D02*
X169292856Y-76204819D01*
X173285714Y-101204819D02*
X173285714Y-101919104D01*
X173285714Y-101919104D02*
X173333333Y-102061961D01*
X173333333Y-102061961D02*
X173428571Y-102157200D01*
X173428571Y-102157200D02*
X173571428Y-102204819D01*
X173571428Y-102204819D02*
X173666666Y-102204819D01*
X172809523Y-102204819D02*
X172809523Y-101204819D01*
X172809523Y-101204819D02*
X172428571Y-101204819D01*
X172428571Y-101204819D02*
X172333333Y-101252438D01*
X172333333Y-101252438D02*
X172285714Y-101300057D01*
X172285714Y-101300057D02*
X172238095Y-101395295D01*
X172238095Y-101395295D02*
X172238095Y-101538152D01*
X172238095Y-101538152D02*
X172285714Y-101633390D01*
X172285714Y-101633390D02*
X172333333Y-101681009D01*
X172333333Y-101681009D02*
X172428571Y-101728628D01*
X172428571Y-101728628D02*
X172809523Y-101728628D01*
X171857142Y-101300057D02*
X171809523Y-101252438D01*
X171809523Y-101252438D02*
X171714285Y-101204819D01*
X171714285Y-101204819D02*
X171476190Y-101204819D01*
X171476190Y-101204819D02*
X171380952Y-101252438D01*
X171380952Y-101252438D02*
X171333333Y-101300057D01*
X171333333Y-101300057D02*
X171285714Y-101395295D01*
X171285714Y-101395295D02*
X171285714Y-101490533D01*
X171285714Y-101490533D02*
X171333333Y-101633390D01*
X171333333Y-101633390D02*
X171904761Y-102204819D01*
X171904761Y-102204819D02*
X171285714Y-102204819D01*
X170666666Y-101204819D02*
X170571428Y-101204819D01*
X170571428Y-101204819D02*
X170476190Y-101252438D01*
X170476190Y-101252438D02*
X170428571Y-101300057D01*
X170428571Y-101300057D02*
X170380952Y-101395295D01*
X170380952Y-101395295D02*
X170333333Y-101585771D01*
X170333333Y-101585771D02*
X170333333Y-101823866D01*
X170333333Y-101823866D02*
X170380952Y-102014342D01*
X170380952Y-102014342D02*
X170428571Y-102109580D01*
X170428571Y-102109580D02*
X170476190Y-102157200D01*
X170476190Y-102157200D02*
X170571428Y-102204819D01*
X170571428Y-102204819D02*
X170666666Y-102204819D01*
X170666666Y-102204819D02*
X170761904Y-102157200D01*
X170761904Y-102157200D02*
X170809523Y-102109580D01*
X170809523Y-102109580D02*
X170857142Y-102014342D01*
X170857142Y-102014342D02*
X170904761Y-101823866D01*
X170904761Y-101823866D02*
X170904761Y-101585771D01*
X170904761Y-101585771D02*
X170857142Y-101395295D01*
X170857142Y-101395295D02*
X170809523Y-101300057D01*
X170809523Y-101300057D02*
X170761904Y-101252438D01*
X170761904Y-101252438D02*
X170666666Y-101204819D01*
X169952380Y-101300057D02*
X169904761Y-101252438D01*
X169904761Y-101252438D02*
X169809523Y-101204819D01*
X169809523Y-101204819D02*
X169571428Y-101204819D01*
X169571428Y-101204819D02*
X169476190Y-101252438D01*
X169476190Y-101252438D02*
X169428571Y-101300057D01*
X169428571Y-101300057D02*
X169380952Y-101395295D01*
X169380952Y-101395295D02*
X169380952Y-101490533D01*
X169380952Y-101490533D02*
X169428571Y-101633390D01*
X169428571Y-101633390D02*
X169999999Y-102204819D01*
X169999999Y-102204819D02*
X169380952Y-102204819D01*
X184285714Y-88954819D02*
X184285714Y-89669104D01*
X184285714Y-89669104D02*
X184333333Y-89811961D01*
X184333333Y-89811961D02*
X184428571Y-89907200D01*
X184428571Y-89907200D02*
X184571428Y-89954819D01*
X184571428Y-89954819D02*
X184666666Y-89954819D01*
X183809523Y-89954819D02*
X183809523Y-88954819D01*
X183809523Y-88954819D02*
X183428571Y-88954819D01*
X183428571Y-88954819D02*
X183333333Y-89002438D01*
X183333333Y-89002438D02*
X183285714Y-89050057D01*
X183285714Y-89050057D02*
X183238095Y-89145295D01*
X183238095Y-89145295D02*
X183238095Y-89288152D01*
X183238095Y-89288152D02*
X183285714Y-89383390D01*
X183285714Y-89383390D02*
X183333333Y-89431009D01*
X183333333Y-89431009D02*
X183428571Y-89478628D01*
X183428571Y-89478628D02*
X183809523Y-89478628D01*
X182857142Y-89050057D02*
X182809523Y-89002438D01*
X182809523Y-89002438D02*
X182714285Y-88954819D01*
X182714285Y-88954819D02*
X182476190Y-88954819D01*
X182476190Y-88954819D02*
X182380952Y-89002438D01*
X182380952Y-89002438D02*
X182333333Y-89050057D01*
X182333333Y-89050057D02*
X182285714Y-89145295D01*
X182285714Y-89145295D02*
X182285714Y-89240533D01*
X182285714Y-89240533D02*
X182333333Y-89383390D01*
X182333333Y-89383390D02*
X182904761Y-89954819D01*
X182904761Y-89954819D02*
X182285714Y-89954819D01*
X181666666Y-88954819D02*
X181571428Y-88954819D01*
X181571428Y-88954819D02*
X181476190Y-89002438D01*
X181476190Y-89002438D02*
X181428571Y-89050057D01*
X181428571Y-89050057D02*
X181380952Y-89145295D01*
X181380952Y-89145295D02*
X181333333Y-89335771D01*
X181333333Y-89335771D02*
X181333333Y-89573866D01*
X181333333Y-89573866D02*
X181380952Y-89764342D01*
X181380952Y-89764342D02*
X181428571Y-89859580D01*
X181428571Y-89859580D02*
X181476190Y-89907200D01*
X181476190Y-89907200D02*
X181571428Y-89954819D01*
X181571428Y-89954819D02*
X181666666Y-89954819D01*
X181666666Y-89954819D02*
X181761904Y-89907200D01*
X181761904Y-89907200D02*
X181809523Y-89859580D01*
X181809523Y-89859580D02*
X181857142Y-89764342D01*
X181857142Y-89764342D02*
X181904761Y-89573866D01*
X181904761Y-89573866D02*
X181904761Y-89335771D01*
X181904761Y-89335771D02*
X181857142Y-89145295D01*
X181857142Y-89145295D02*
X181809523Y-89050057D01*
X181809523Y-89050057D02*
X181761904Y-89002438D01*
X181761904Y-89002438D02*
X181666666Y-88954819D01*
X180380952Y-89954819D02*
X180952380Y-89954819D01*
X180666666Y-89954819D02*
X180666666Y-88954819D01*
X180666666Y-88954819D02*
X180761904Y-89097676D01*
X180761904Y-89097676D02*
X180857142Y-89192914D01*
X180857142Y-89192914D02*
X180952380Y-89240533D01*
X165885714Y-80529819D02*
X165885714Y-81244104D01*
X165885714Y-81244104D02*
X165933333Y-81386961D01*
X165933333Y-81386961D02*
X166028571Y-81482200D01*
X166028571Y-81482200D02*
X166171428Y-81529819D01*
X166171428Y-81529819D02*
X166266666Y-81529819D01*
X165409523Y-81529819D02*
X165409523Y-80529819D01*
X165409523Y-80529819D02*
X165028571Y-80529819D01*
X165028571Y-80529819D02*
X164933333Y-80577438D01*
X164933333Y-80577438D02*
X164885714Y-80625057D01*
X164885714Y-80625057D02*
X164838095Y-80720295D01*
X164838095Y-80720295D02*
X164838095Y-80863152D01*
X164838095Y-80863152D02*
X164885714Y-80958390D01*
X164885714Y-80958390D02*
X164933333Y-81006009D01*
X164933333Y-81006009D02*
X165028571Y-81053628D01*
X165028571Y-81053628D02*
X165409523Y-81053628D01*
X164457142Y-80625057D02*
X164409523Y-80577438D01*
X164409523Y-80577438D02*
X164314285Y-80529819D01*
X164314285Y-80529819D02*
X164076190Y-80529819D01*
X164076190Y-80529819D02*
X163980952Y-80577438D01*
X163980952Y-80577438D02*
X163933333Y-80625057D01*
X163933333Y-80625057D02*
X163885714Y-80720295D01*
X163885714Y-80720295D02*
X163885714Y-80815533D01*
X163885714Y-80815533D02*
X163933333Y-80958390D01*
X163933333Y-80958390D02*
X164504761Y-81529819D01*
X164504761Y-81529819D02*
X163885714Y-81529819D01*
X163266666Y-80529819D02*
X163171428Y-80529819D01*
X163171428Y-80529819D02*
X163076190Y-80577438D01*
X163076190Y-80577438D02*
X163028571Y-80625057D01*
X163028571Y-80625057D02*
X162980952Y-80720295D01*
X162980952Y-80720295D02*
X162933333Y-80910771D01*
X162933333Y-80910771D02*
X162933333Y-81148866D01*
X162933333Y-81148866D02*
X162980952Y-81339342D01*
X162980952Y-81339342D02*
X163028571Y-81434580D01*
X163028571Y-81434580D02*
X163076190Y-81482200D01*
X163076190Y-81482200D02*
X163171428Y-81529819D01*
X163171428Y-81529819D02*
X163266666Y-81529819D01*
X163266666Y-81529819D02*
X163361904Y-81482200D01*
X163361904Y-81482200D02*
X163409523Y-81434580D01*
X163409523Y-81434580D02*
X163457142Y-81339342D01*
X163457142Y-81339342D02*
X163504761Y-81148866D01*
X163504761Y-81148866D02*
X163504761Y-80910771D01*
X163504761Y-80910771D02*
X163457142Y-80720295D01*
X163457142Y-80720295D02*
X163409523Y-80625057D01*
X163409523Y-80625057D02*
X163361904Y-80577438D01*
X163361904Y-80577438D02*
X163266666Y-80529819D01*
X162599999Y-80529819D02*
X161980952Y-80529819D01*
X161980952Y-80529819D02*
X162314285Y-80910771D01*
X162314285Y-80910771D02*
X162171428Y-80910771D01*
X162171428Y-80910771D02*
X162076190Y-80958390D01*
X162076190Y-80958390D02*
X162028571Y-81006009D01*
X162028571Y-81006009D02*
X161980952Y-81101247D01*
X161980952Y-81101247D02*
X161980952Y-81339342D01*
X161980952Y-81339342D02*
X162028571Y-81434580D01*
X162028571Y-81434580D02*
X162076190Y-81482200D01*
X162076190Y-81482200D02*
X162171428Y-81529819D01*
X162171428Y-81529819D02*
X162457142Y-81529819D01*
X162457142Y-81529819D02*
X162552380Y-81482200D01*
X162552380Y-81482200D02*
X162599999Y-81434580D01*
D11*
%TO.C,R207*%
X170496359Y-76470000D02*
X170803641Y-76470000D01*
X170496359Y-77230000D02*
X170803641Y-77230000D01*
%TO.C,JP202*%
X169875000Y-98750000D02*
X169875000Y-100750000D01*
X169875000Y-100750000D02*
X172675000Y-100750000D01*
X172675000Y-98750000D02*
X169875000Y-98750000D01*
X172675000Y-100750000D02*
X172675000Y-98750000D01*
%TO.C,JP201*%
X181100000Y-86500000D02*
X181100000Y-88500000D01*
X181100000Y-88500000D02*
X183900000Y-88500000D01*
X183900000Y-86500000D02*
X181100000Y-86500000D01*
X183900000Y-88500000D02*
X183900000Y-86500000D01*
%TO.C,JP203*%
X162700000Y-78175000D02*
X162700000Y-80175000D01*
X162700000Y-80175000D02*
X165500000Y-80175000D01*
X165500000Y-78175000D02*
X162700000Y-78175000D01*
X165500000Y-80175000D02*
X165500000Y-78175000D01*
%TD*%
M02*
