%TF.GenerationSoftware,KiCad,Pcbnew,9.0.7*%
%TF.CreationDate,2026-03-26T11:32:34+01:00*%
%TF.ProjectId,pcb_pcBOT,7063625f-7063-4424-9f54-2e6b69636164,rev?*%
%TF.SameCoordinates,Original*%
%TF.FileFunction,Legend,Top*%
%TF.FilePolarity,Positive*%
%FSLAX46Y46*%
G04 Gerber Fmt 4.6, Leading zero omitted, Abs format (unit mm)*
G04 Created by KiCad (PCBNEW 9.0.7) date 2026-03-26 11:32:34*
%MOMM*%
%LPD*%
G01*
G04 APERTURE LIST*
%ADD10C,0.150000*%
%ADD11C,0.120000*%
G04 APERTURE END LIST*
D10*
X150504819Y-109314285D02*
X151314342Y-109314285D01*
X151314342Y-109314285D02*
X151409580Y-109266666D01*
X151409580Y-109266666D02*
X151457200Y-109219047D01*
X151457200Y-109219047D02*
X151504819Y-109123809D01*
X151504819Y-109123809D02*
X151504819Y-108933333D01*
X151504819Y-108933333D02*
X151457200Y-108838095D01*
X151457200Y-108838095D02*
X151409580Y-108790476D01*
X151409580Y-108790476D02*
X151314342Y-108742857D01*
X151314342Y-108742857D02*
X150504819Y-108742857D01*
X150504819Y-108361904D02*
X150504819Y-107695238D01*
X150504819Y-107695238D02*
X151504819Y-108123809D01*
X150504819Y-107123809D02*
X150504819Y-107028571D01*
X150504819Y-107028571D02*
X150552438Y-106933333D01*
X150552438Y-106933333D02*
X150600057Y-106885714D01*
X150600057Y-106885714D02*
X150695295Y-106838095D01*
X150695295Y-106838095D02*
X150885771Y-106790476D01*
X150885771Y-106790476D02*
X151123866Y-106790476D01*
X151123866Y-106790476D02*
X151314342Y-106838095D01*
X151314342Y-106838095D02*
X151409580Y-106885714D01*
X151409580Y-106885714D02*
X151457200Y-106933333D01*
X151457200Y-106933333D02*
X151504819Y-107028571D01*
X151504819Y-107028571D02*
X151504819Y-107123809D01*
X151504819Y-107123809D02*
X151457200Y-107219047D01*
X151457200Y-107219047D02*
X151409580Y-107266666D01*
X151409580Y-107266666D02*
X151314342Y-107314285D01*
X151314342Y-107314285D02*
X151123866Y-107361904D01*
X151123866Y-107361904D02*
X150885771Y-107361904D01*
X150885771Y-107361904D02*
X150695295Y-107314285D01*
X150695295Y-107314285D02*
X150600057Y-107266666D01*
X150600057Y-107266666D02*
X150552438Y-107219047D01*
X150552438Y-107219047D02*
X150504819Y-107123809D01*
X151504819Y-105838095D02*
X151504819Y-106409523D01*
X151504819Y-106123809D02*
X150504819Y-106123809D01*
X150504819Y-106123809D02*
X150647676Y-106219047D01*
X150647676Y-106219047D02*
X150742914Y-106314285D01*
X150742914Y-106314285D02*
X150790533Y-106409523D01*
X173690819Y-85287285D02*
X174500342Y-85287285D01*
X174500342Y-85287285D02*
X174595580Y-85239666D01*
X174595580Y-85239666D02*
X174643200Y-85192047D01*
X174643200Y-85192047D02*
X174690819Y-85096809D01*
X174690819Y-85096809D02*
X174690819Y-84906333D01*
X174690819Y-84906333D02*
X174643200Y-84811095D01*
X174643200Y-84811095D02*
X174595580Y-84763476D01*
X174595580Y-84763476D02*
X174500342Y-84715857D01*
X174500342Y-84715857D02*
X173690819Y-84715857D01*
X173786057Y-84287285D02*
X173738438Y-84239666D01*
X173738438Y-84239666D02*
X173690819Y-84144428D01*
X173690819Y-84144428D02*
X173690819Y-83906333D01*
X173690819Y-83906333D02*
X173738438Y-83811095D01*
X173738438Y-83811095D02*
X173786057Y-83763476D01*
X173786057Y-83763476D02*
X173881295Y-83715857D01*
X173881295Y-83715857D02*
X173976533Y-83715857D01*
X173976533Y-83715857D02*
X174119390Y-83763476D01*
X174119390Y-83763476D02*
X174690819Y-84334904D01*
X174690819Y-84334904D02*
X174690819Y-83715857D01*
X173690819Y-83096809D02*
X173690819Y-83001571D01*
X173690819Y-83001571D02*
X173738438Y-82906333D01*
X173738438Y-82906333D02*
X173786057Y-82858714D01*
X173786057Y-82858714D02*
X173881295Y-82811095D01*
X173881295Y-82811095D02*
X174071771Y-82763476D01*
X174071771Y-82763476D02*
X174309866Y-82763476D01*
X174309866Y-82763476D02*
X174500342Y-82811095D01*
X174500342Y-82811095D02*
X174595580Y-82858714D01*
X174595580Y-82858714D02*
X174643200Y-82906333D01*
X174643200Y-82906333D02*
X174690819Y-83001571D01*
X174690819Y-83001571D02*
X174690819Y-83096809D01*
X174690819Y-83096809D02*
X174643200Y-83192047D01*
X174643200Y-83192047D02*
X174595580Y-83239666D01*
X174595580Y-83239666D02*
X174500342Y-83287285D01*
X174500342Y-83287285D02*
X174309866Y-83334904D01*
X174309866Y-83334904D02*
X174071771Y-83334904D01*
X174071771Y-83334904D02*
X173881295Y-83287285D01*
X173881295Y-83287285D02*
X173786057Y-83239666D01*
X173786057Y-83239666D02*
X173738438Y-83192047D01*
X173738438Y-83192047D02*
X173690819Y-83096809D01*
X174690819Y-81811095D02*
X174690819Y-82382523D01*
X174690819Y-82096809D02*
X173690819Y-82096809D01*
X173690819Y-82096809D02*
X173833676Y-82192047D01*
X173833676Y-82192047D02*
X173928914Y-82287285D01*
X173928914Y-82287285D02*
X173976533Y-82382523D01*
X160180952Y-86509580D02*
X160133333Y-86557200D01*
X160133333Y-86557200D02*
X159990476Y-86604819D01*
X159990476Y-86604819D02*
X159895238Y-86604819D01*
X159895238Y-86604819D02*
X159752381Y-86557200D01*
X159752381Y-86557200D02*
X159657143Y-86461961D01*
X159657143Y-86461961D02*
X159609524Y-86366723D01*
X159609524Y-86366723D02*
X159561905Y-86176247D01*
X159561905Y-86176247D02*
X159561905Y-86033390D01*
X159561905Y-86033390D02*
X159609524Y-85842914D01*
X159609524Y-85842914D02*
X159657143Y-85747676D01*
X159657143Y-85747676D02*
X159752381Y-85652438D01*
X159752381Y-85652438D02*
X159895238Y-85604819D01*
X159895238Y-85604819D02*
X159990476Y-85604819D01*
X159990476Y-85604819D02*
X160133333Y-85652438D01*
X160133333Y-85652438D02*
X160180952Y-85700057D01*
X160561905Y-85700057D02*
X160609524Y-85652438D01*
X160609524Y-85652438D02*
X160704762Y-85604819D01*
X160704762Y-85604819D02*
X160942857Y-85604819D01*
X160942857Y-85604819D02*
X161038095Y-85652438D01*
X161038095Y-85652438D02*
X161085714Y-85700057D01*
X161085714Y-85700057D02*
X161133333Y-85795295D01*
X161133333Y-85795295D02*
X161133333Y-85890533D01*
X161133333Y-85890533D02*
X161085714Y-86033390D01*
X161085714Y-86033390D02*
X160514286Y-86604819D01*
X160514286Y-86604819D02*
X161133333Y-86604819D01*
X161752381Y-85604819D02*
X161847619Y-85604819D01*
X161847619Y-85604819D02*
X161942857Y-85652438D01*
X161942857Y-85652438D02*
X161990476Y-85700057D01*
X161990476Y-85700057D02*
X162038095Y-85795295D01*
X162038095Y-85795295D02*
X162085714Y-85985771D01*
X162085714Y-85985771D02*
X162085714Y-86223866D01*
X162085714Y-86223866D02*
X162038095Y-86414342D01*
X162038095Y-86414342D02*
X161990476Y-86509580D01*
X161990476Y-86509580D02*
X161942857Y-86557200D01*
X161942857Y-86557200D02*
X161847619Y-86604819D01*
X161847619Y-86604819D02*
X161752381Y-86604819D01*
X161752381Y-86604819D02*
X161657143Y-86557200D01*
X161657143Y-86557200D02*
X161609524Y-86509580D01*
X161609524Y-86509580D02*
X161561905Y-86414342D01*
X161561905Y-86414342D02*
X161514286Y-86223866D01*
X161514286Y-86223866D02*
X161514286Y-85985771D01*
X161514286Y-85985771D02*
X161561905Y-85795295D01*
X161561905Y-85795295D02*
X161609524Y-85700057D01*
X161609524Y-85700057D02*
X161657143Y-85652438D01*
X161657143Y-85652438D02*
X161752381Y-85604819D01*
X162466667Y-85700057D02*
X162514286Y-85652438D01*
X162514286Y-85652438D02*
X162609524Y-85604819D01*
X162609524Y-85604819D02*
X162847619Y-85604819D01*
X162847619Y-85604819D02*
X162942857Y-85652438D01*
X162942857Y-85652438D02*
X162990476Y-85700057D01*
X162990476Y-85700057D02*
X163038095Y-85795295D01*
X163038095Y-85795295D02*
X163038095Y-85890533D01*
X163038095Y-85890533D02*
X162990476Y-86033390D01*
X162990476Y-86033390D02*
X162419048Y-86604819D01*
X162419048Y-86604819D02*
X163038095Y-86604819D01*
X133180319Y-73462891D02*
X132607900Y-73361876D01*
X132776258Y-73866952D02*
X132069151Y-73159845D01*
X132069151Y-73159845D02*
X132338525Y-72890471D01*
X132338525Y-72890471D02*
X132439541Y-72856799D01*
X132439541Y-72856799D02*
X132506884Y-72856799D01*
X132506884Y-72856799D02*
X132607900Y-72890471D01*
X132607900Y-72890471D02*
X132708915Y-72991486D01*
X132708915Y-72991486D02*
X132742587Y-73092502D01*
X132742587Y-73092502D02*
X132742587Y-73159845D01*
X132742587Y-73159845D02*
X132708915Y-73260860D01*
X132708915Y-73260860D02*
X132439541Y-73530234D01*
X133112976Y-72116021D02*
X132776258Y-72452738D01*
X132776258Y-72452738D02*
X133079304Y-72823128D01*
X133079304Y-72823128D02*
X133079304Y-72755784D01*
X133079304Y-72755784D02*
X133112976Y-72654769D01*
X133112976Y-72654769D02*
X133281335Y-72486410D01*
X133281335Y-72486410D02*
X133382350Y-72452738D01*
X133382350Y-72452738D02*
X133449693Y-72452738D01*
X133449693Y-72452738D02*
X133550709Y-72486410D01*
X133550709Y-72486410D02*
X133719067Y-72654769D01*
X133719067Y-72654769D02*
X133752739Y-72755784D01*
X133752739Y-72755784D02*
X133752739Y-72823128D01*
X133752739Y-72823128D02*
X133719067Y-72924143D01*
X133719067Y-72924143D02*
X133550709Y-73092502D01*
X133550709Y-73092502D02*
X133449693Y-73126173D01*
X133449693Y-73126173D02*
X133382350Y-73126173D01*
X133584380Y-71644616D02*
X133651724Y-71577273D01*
X133651724Y-71577273D02*
X133752739Y-71543601D01*
X133752739Y-71543601D02*
X133820083Y-71543601D01*
X133820083Y-71543601D02*
X133921098Y-71577273D01*
X133921098Y-71577273D02*
X134089457Y-71678288D01*
X134089457Y-71678288D02*
X134257815Y-71846647D01*
X134257815Y-71846647D02*
X134358831Y-72015006D01*
X134358831Y-72015006D02*
X134392502Y-72116021D01*
X134392502Y-72116021D02*
X134392502Y-72183364D01*
X134392502Y-72183364D02*
X134358831Y-72284380D01*
X134358831Y-72284380D02*
X134291487Y-72351723D01*
X134291487Y-72351723D02*
X134190472Y-72385395D01*
X134190472Y-72385395D02*
X134123128Y-72385395D01*
X134123128Y-72385395D02*
X134022113Y-72351723D01*
X134022113Y-72351723D02*
X133853754Y-72250708D01*
X133853754Y-72250708D02*
X133685396Y-72082349D01*
X133685396Y-72082349D02*
X133584380Y-71913990D01*
X133584380Y-71913990D02*
X133550709Y-71812975D01*
X133550709Y-71812975D02*
X133550709Y-71745632D01*
X133550709Y-71745632D02*
X133584380Y-71644616D01*
X134156800Y-71206884D02*
X134156800Y-71139540D01*
X134156800Y-71139540D02*
X134190472Y-71038525D01*
X134190472Y-71038525D02*
X134358831Y-70870166D01*
X134358831Y-70870166D02*
X134459846Y-70836494D01*
X134459846Y-70836494D02*
X134527189Y-70836494D01*
X134527189Y-70836494D02*
X134628205Y-70870166D01*
X134628205Y-70870166D02*
X134695548Y-70937510D01*
X134695548Y-70937510D02*
X134762892Y-71072197D01*
X134762892Y-71072197D02*
X134762892Y-71880319D01*
X134762892Y-71880319D02*
X135200624Y-71442586D01*
X145912295Y-123152381D02*
X145112295Y-123152381D01*
X145112295Y-123152381D02*
X145683723Y-122885715D01*
X145683723Y-122885715D02*
X145112295Y-122619048D01*
X145112295Y-122619048D02*
X145912295Y-122619048D01*
X145912295Y-122123810D02*
X145874200Y-122200000D01*
X145874200Y-122200000D02*
X145836104Y-122238095D01*
X145836104Y-122238095D02*
X145759914Y-122276191D01*
X145759914Y-122276191D02*
X145531342Y-122276191D01*
X145531342Y-122276191D02*
X145455152Y-122238095D01*
X145455152Y-122238095D02*
X145417057Y-122200000D01*
X145417057Y-122200000D02*
X145378961Y-122123810D01*
X145378961Y-122123810D02*
X145378961Y-122009524D01*
X145378961Y-122009524D02*
X145417057Y-121933333D01*
X145417057Y-121933333D02*
X145455152Y-121895238D01*
X145455152Y-121895238D02*
X145531342Y-121857143D01*
X145531342Y-121857143D02*
X145759914Y-121857143D01*
X145759914Y-121857143D02*
X145836104Y-121895238D01*
X145836104Y-121895238D02*
X145874200Y-121933333D01*
X145874200Y-121933333D02*
X145912295Y-122009524D01*
X145912295Y-122009524D02*
X145912295Y-122123810D01*
X145378961Y-121628571D02*
X145378961Y-121323809D01*
X145112295Y-121514285D02*
X145798009Y-121514285D01*
X145798009Y-121514285D02*
X145874200Y-121476190D01*
X145874200Y-121476190D02*
X145912295Y-121400000D01*
X145912295Y-121400000D02*
X145912295Y-121323809D01*
X145874200Y-120752380D02*
X145912295Y-120828571D01*
X145912295Y-120828571D02*
X145912295Y-120980952D01*
X145912295Y-120980952D02*
X145874200Y-121057142D01*
X145874200Y-121057142D02*
X145798009Y-121095238D01*
X145798009Y-121095238D02*
X145493247Y-121095238D01*
X145493247Y-121095238D02*
X145417057Y-121057142D01*
X145417057Y-121057142D02*
X145378961Y-120980952D01*
X145378961Y-120980952D02*
X145378961Y-120828571D01*
X145378961Y-120828571D02*
X145417057Y-120752380D01*
X145417057Y-120752380D02*
X145493247Y-120714285D01*
X145493247Y-120714285D02*
X145569438Y-120714285D01*
X145569438Y-120714285D02*
X145645628Y-121095238D01*
X145378961Y-120028571D02*
X145912295Y-120028571D01*
X145378961Y-120371428D02*
X145798009Y-120371428D01*
X145798009Y-120371428D02*
X145874200Y-120333333D01*
X145874200Y-120333333D02*
X145912295Y-120257143D01*
X145912295Y-120257143D02*
X145912295Y-120142857D01*
X145912295Y-120142857D02*
X145874200Y-120066666D01*
X145874200Y-120066666D02*
X145836104Y-120028571D01*
X145912295Y-119647618D02*
X145378961Y-119647618D01*
X145531342Y-119647618D02*
X145455152Y-119609523D01*
X145455152Y-119609523D02*
X145417057Y-119571428D01*
X145417057Y-119571428D02*
X145378961Y-119495237D01*
X145378961Y-119495237D02*
X145378961Y-119419047D01*
X145112295Y-119228571D02*
X145112295Y-118695237D01*
X145112295Y-118695237D02*
X145912295Y-119038095D01*
X145112295Y-118238094D02*
X145112295Y-118161904D01*
X145112295Y-118161904D02*
X145150390Y-118085713D01*
X145150390Y-118085713D02*
X145188485Y-118047618D01*
X145188485Y-118047618D02*
X145264676Y-118009523D01*
X145264676Y-118009523D02*
X145417057Y-117971428D01*
X145417057Y-117971428D02*
X145607533Y-117971428D01*
X145607533Y-117971428D02*
X145759914Y-118009523D01*
X145759914Y-118009523D02*
X145836104Y-118047618D01*
X145836104Y-118047618D02*
X145874200Y-118085713D01*
X145874200Y-118085713D02*
X145912295Y-118161904D01*
X145912295Y-118161904D02*
X145912295Y-118238094D01*
X145912295Y-118238094D02*
X145874200Y-118314285D01*
X145874200Y-118314285D02*
X145836104Y-118352380D01*
X145836104Y-118352380D02*
X145759914Y-118390475D01*
X145759914Y-118390475D02*
X145607533Y-118428571D01*
X145607533Y-118428571D02*
X145417057Y-118428571D01*
X145417057Y-118428571D02*
X145264676Y-118390475D01*
X145264676Y-118390475D02*
X145188485Y-118352380D01*
X145188485Y-118352380D02*
X145150390Y-118314285D01*
X145150390Y-118314285D02*
X145112295Y-118238094D01*
X145912295Y-117209523D02*
X145912295Y-117666666D01*
X145912295Y-117438094D02*
X145112295Y-117438094D01*
X145112295Y-117438094D02*
X145226580Y-117514285D01*
X145226580Y-117514285D02*
X145302771Y-117590475D01*
X145302771Y-117590475D02*
X145340866Y-117666666D01*
X128285714Y-116154819D02*
X128285714Y-115154819D01*
X128285714Y-115631009D02*
X128857142Y-115631009D01*
X128857142Y-116154819D02*
X128857142Y-115154819D01*
X129857142Y-116154819D02*
X129285714Y-116154819D01*
X129571428Y-116154819D02*
X129571428Y-115154819D01*
X129571428Y-115154819D02*
X129476190Y-115297676D01*
X129476190Y-115297676D02*
X129380952Y-115392914D01*
X129380952Y-115392914D02*
X129285714Y-115440533D01*
X130476190Y-115154819D02*
X130571428Y-115154819D01*
X130571428Y-115154819D02*
X130666666Y-115202438D01*
X130666666Y-115202438D02*
X130714285Y-115250057D01*
X130714285Y-115250057D02*
X130761904Y-115345295D01*
X130761904Y-115345295D02*
X130809523Y-115535771D01*
X130809523Y-115535771D02*
X130809523Y-115773866D01*
X130809523Y-115773866D02*
X130761904Y-115964342D01*
X130761904Y-115964342D02*
X130714285Y-116059580D01*
X130714285Y-116059580D02*
X130666666Y-116107200D01*
X130666666Y-116107200D02*
X130571428Y-116154819D01*
X130571428Y-116154819D02*
X130476190Y-116154819D01*
X130476190Y-116154819D02*
X130380952Y-116107200D01*
X130380952Y-116107200D02*
X130333333Y-116059580D01*
X130333333Y-116059580D02*
X130285714Y-115964342D01*
X130285714Y-115964342D02*
X130238095Y-115773866D01*
X130238095Y-115773866D02*
X130238095Y-115535771D01*
X130238095Y-115535771D02*
X130285714Y-115345295D01*
X130285714Y-115345295D02*
X130333333Y-115250057D01*
X130333333Y-115250057D02*
X130380952Y-115202438D01*
X130380952Y-115202438D02*
X130476190Y-115154819D01*
X131666666Y-115488152D02*
X131666666Y-116154819D01*
X131428571Y-115107200D02*
X131190476Y-115821485D01*
X131190476Y-115821485D02*
X131809523Y-115821485D01*
X189130952Y-98954819D02*
X188797619Y-98478628D01*
X188559524Y-98954819D02*
X188559524Y-97954819D01*
X188559524Y-97954819D02*
X188940476Y-97954819D01*
X188940476Y-97954819D02*
X189035714Y-98002438D01*
X189035714Y-98002438D02*
X189083333Y-98050057D01*
X189083333Y-98050057D02*
X189130952Y-98145295D01*
X189130952Y-98145295D02*
X189130952Y-98288152D01*
X189130952Y-98288152D02*
X189083333Y-98383390D01*
X189083333Y-98383390D02*
X189035714Y-98431009D01*
X189035714Y-98431009D02*
X188940476Y-98478628D01*
X188940476Y-98478628D02*
X188559524Y-98478628D01*
X189511905Y-98050057D02*
X189559524Y-98002438D01*
X189559524Y-98002438D02*
X189654762Y-97954819D01*
X189654762Y-97954819D02*
X189892857Y-97954819D01*
X189892857Y-97954819D02*
X189988095Y-98002438D01*
X189988095Y-98002438D02*
X190035714Y-98050057D01*
X190035714Y-98050057D02*
X190083333Y-98145295D01*
X190083333Y-98145295D02*
X190083333Y-98240533D01*
X190083333Y-98240533D02*
X190035714Y-98383390D01*
X190035714Y-98383390D02*
X189464286Y-98954819D01*
X189464286Y-98954819D02*
X190083333Y-98954819D01*
X191035714Y-98954819D02*
X190464286Y-98954819D01*
X190750000Y-98954819D02*
X190750000Y-97954819D01*
X190750000Y-97954819D02*
X190654762Y-98097676D01*
X190654762Y-98097676D02*
X190559524Y-98192914D01*
X190559524Y-98192914D02*
X190464286Y-98240533D01*
X191654762Y-97954819D02*
X191750000Y-97954819D01*
X191750000Y-97954819D02*
X191845238Y-98002438D01*
X191845238Y-98002438D02*
X191892857Y-98050057D01*
X191892857Y-98050057D02*
X191940476Y-98145295D01*
X191940476Y-98145295D02*
X191988095Y-98335771D01*
X191988095Y-98335771D02*
X191988095Y-98573866D01*
X191988095Y-98573866D02*
X191940476Y-98764342D01*
X191940476Y-98764342D02*
X191892857Y-98859580D01*
X191892857Y-98859580D02*
X191845238Y-98907200D01*
X191845238Y-98907200D02*
X191750000Y-98954819D01*
X191750000Y-98954819D02*
X191654762Y-98954819D01*
X191654762Y-98954819D02*
X191559524Y-98907200D01*
X191559524Y-98907200D02*
X191511905Y-98859580D01*
X191511905Y-98859580D02*
X191464286Y-98764342D01*
X191464286Y-98764342D02*
X191416667Y-98573866D01*
X191416667Y-98573866D02*
X191416667Y-98335771D01*
X191416667Y-98335771D02*
X191464286Y-98145295D01*
X191464286Y-98145295D02*
X191511905Y-98050057D01*
X191511905Y-98050057D02*
X191559524Y-98002438D01*
X191559524Y-98002438D02*
X191654762Y-97954819D01*
X160080952Y-85059580D02*
X160033333Y-85107200D01*
X160033333Y-85107200D02*
X159890476Y-85154819D01*
X159890476Y-85154819D02*
X159795238Y-85154819D01*
X159795238Y-85154819D02*
X159652381Y-85107200D01*
X159652381Y-85107200D02*
X159557143Y-85011961D01*
X159557143Y-85011961D02*
X159509524Y-84916723D01*
X159509524Y-84916723D02*
X159461905Y-84726247D01*
X159461905Y-84726247D02*
X159461905Y-84583390D01*
X159461905Y-84583390D02*
X159509524Y-84392914D01*
X159509524Y-84392914D02*
X159557143Y-84297676D01*
X159557143Y-84297676D02*
X159652381Y-84202438D01*
X159652381Y-84202438D02*
X159795238Y-84154819D01*
X159795238Y-84154819D02*
X159890476Y-84154819D01*
X159890476Y-84154819D02*
X160033333Y-84202438D01*
X160033333Y-84202438D02*
X160080952Y-84250057D01*
X160461905Y-84250057D02*
X160509524Y-84202438D01*
X160509524Y-84202438D02*
X160604762Y-84154819D01*
X160604762Y-84154819D02*
X160842857Y-84154819D01*
X160842857Y-84154819D02*
X160938095Y-84202438D01*
X160938095Y-84202438D02*
X160985714Y-84250057D01*
X160985714Y-84250057D02*
X161033333Y-84345295D01*
X161033333Y-84345295D02*
X161033333Y-84440533D01*
X161033333Y-84440533D02*
X160985714Y-84583390D01*
X160985714Y-84583390D02*
X160414286Y-85154819D01*
X160414286Y-85154819D02*
X161033333Y-85154819D01*
X161652381Y-84154819D02*
X161747619Y-84154819D01*
X161747619Y-84154819D02*
X161842857Y-84202438D01*
X161842857Y-84202438D02*
X161890476Y-84250057D01*
X161890476Y-84250057D02*
X161938095Y-84345295D01*
X161938095Y-84345295D02*
X161985714Y-84535771D01*
X161985714Y-84535771D02*
X161985714Y-84773866D01*
X161985714Y-84773866D02*
X161938095Y-84964342D01*
X161938095Y-84964342D02*
X161890476Y-85059580D01*
X161890476Y-85059580D02*
X161842857Y-85107200D01*
X161842857Y-85107200D02*
X161747619Y-85154819D01*
X161747619Y-85154819D02*
X161652381Y-85154819D01*
X161652381Y-85154819D02*
X161557143Y-85107200D01*
X161557143Y-85107200D02*
X161509524Y-85059580D01*
X161509524Y-85059580D02*
X161461905Y-84964342D01*
X161461905Y-84964342D02*
X161414286Y-84773866D01*
X161414286Y-84773866D02*
X161414286Y-84535771D01*
X161414286Y-84535771D02*
X161461905Y-84345295D01*
X161461905Y-84345295D02*
X161509524Y-84250057D01*
X161509524Y-84250057D02*
X161557143Y-84202438D01*
X161557143Y-84202438D02*
X161652381Y-84154819D01*
X162842857Y-84488152D02*
X162842857Y-85154819D01*
X162604762Y-84107200D02*
X162366667Y-84821485D01*
X162366667Y-84821485D02*
X162985714Y-84821485D01*
X128755361Y-107873636D02*
X129260437Y-108378712D01*
X129260437Y-108378712D02*
X129327781Y-108513399D01*
X129327781Y-108513399D02*
X129327781Y-108648086D01*
X129327781Y-108648086D02*
X129260437Y-108782773D01*
X129260437Y-108782773D02*
X129193094Y-108850117D01*
X129428796Y-107200201D02*
X129092079Y-107536918D01*
X129092079Y-107536918D02*
X129395124Y-107907307D01*
X129395124Y-107907307D02*
X129395124Y-107839964D01*
X129395124Y-107839964D02*
X129428796Y-107738949D01*
X129428796Y-107738949D02*
X129597155Y-107570590D01*
X129597155Y-107570590D02*
X129698170Y-107536918D01*
X129698170Y-107536918D02*
X129765514Y-107536918D01*
X129765514Y-107536918D02*
X129866529Y-107570590D01*
X129866529Y-107570590D02*
X130034888Y-107738949D01*
X130034888Y-107738949D02*
X130068559Y-107839964D01*
X130068559Y-107839964D02*
X130068559Y-107907307D01*
X130068559Y-107907307D02*
X130034888Y-108008323D01*
X130034888Y-108008323D02*
X129866529Y-108176681D01*
X129866529Y-108176681D02*
X129765514Y-108210353D01*
X129765514Y-108210353D02*
X129698170Y-108210353D01*
X129900201Y-106728796D02*
X129967544Y-106661453D01*
X129967544Y-106661453D02*
X130068559Y-106627781D01*
X130068559Y-106627781D02*
X130135903Y-106627781D01*
X130135903Y-106627781D02*
X130236918Y-106661453D01*
X130236918Y-106661453D02*
X130405277Y-106762468D01*
X130405277Y-106762468D02*
X130573636Y-106930827D01*
X130573636Y-106930827D02*
X130674651Y-107099185D01*
X130674651Y-107099185D02*
X130708323Y-107200201D01*
X130708323Y-107200201D02*
X130708323Y-107267544D01*
X130708323Y-107267544D02*
X130674651Y-107368559D01*
X130674651Y-107368559D02*
X130607307Y-107435903D01*
X130607307Y-107435903D02*
X130506292Y-107469575D01*
X130506292Y-107469575D02*
X130438949Y-107469575D01*
X130438949Y-107469575D02*
X130337933Y-107435903D01*
X130337933Y-107435903D02*
X130169575Y-107334888D01*
X130169575Y-107334888D02*
X130001216Y-107166529D01*
X130001216Y-107166529D02*
X129900201Y-106998170D01*
X129900201Y-106998170D02*
X129866529Y-106897155D01*
X129866529Y-106897155D02*
X129866529Y-106829811D01*
X129866529Y-106829811D02*
X129900201Y-106728796D01*
X130371605Y-106257391D02*
X130809338Y-105819659D01*
X130809338Y-105819659D02*
X130843010Y-106324735D01*
X130843010Y-106324735D02*
X130944025Y-106223720D01*
X130944025Y-106223720D02*
X131045040Y-106190048D01*
X131045040Y-106190048D02*
X131112384Y-106190048D01*
X131112384Y-106190048D02*
X131213399Y-106223720D01*
X131213399Y-106223720D02*
X131381758Y-106392078D01*
X131381758Y-106392078D02*
X131415430Y-106493094D01*
X131415430Y-106493094D02*
X131415430Y-106560437D01*
X131415430Y-106560437D02*
X131381758Y-106661452D01*
X131381758Y-106661452D02*
X131179727Y-106863483D01*
X131179727Y-106863483D02*
X131078712Y-106897155D01*
X131078712Y-106897155D02*
X131011369Y-106897155D01*
X188314285Y-110409819D02*
X188314285Y-111124104D01*
X188314285Y-111124104D02*
X188266666Y-111266961D01*
X188266666Y-111266961D02*
X188171428Y-111362200D01*
X188171428Y-111362200D02*
X188028571Y-111409819D01*
X188028571Y-111409819D02*
X187933333Y-111409819D01*
X188695238Y-110409819D02*
X189314285Y-110409819D01*
X189314285Y-110409819D02*
X188980952Y-110790771D01*
X188980952Y-110790771D02*
X189123809Y-110790771D01*
X189123809Y-110790771D02*
X189219047Y-110838390D01*
X189219047Y-110838390D02*
X189266666Y-110886009D01*
X189266666Y-110886009D02*
X189314285Y-110981247D01*
X189314285Y-110981247D02*
X189314285Y-111219342D01*
X189314285Y-111219342D02*
X189266666Y-111314580D01*
X189266666Y-111314580D02*
X189219047Y-111362200D01*
X189219047Y-111362200D02*
X189123809Y-111409819D01*
X189123809Y-111409819D02*
X188838095Y-111409819D01*
X188838095Y-111409819D02*
X188742857Y-111362200D01*
X188742857Y-111362200D02*
X188695238Y-111314580D01*
X189933333Y-110409819D02*
X190028571Y-110409819D01*
X190028571Y-110409819D02*
X190123809Y-110457438D01*
X190123809Y-110457438D02*
X190171428Y-110505057D01*
X190171428Y-110505057D02*
X190219047Y-110600295D01*
X190219047Y-110600295D02*
X190266666Y-110790771D01*
X190266666Y-110790771D02*
X190266666Y-111028866D01*
X190266666Y-111028866D02*
X190219047Y-111219342D01*
X190219047Y-111219342D02*
X190171428Y-111314580D01*
X190171428Y-111314580D02*
X190123809Y-111362200D01*
X190123809Y-111362200D02*
X190028571Y-111409819D01*
X190028571Y-111409819D02*
X189933333Y-111409819D01*
X189933333Y-111409819D02*
X189838095Y-111362200D01*
X189838095Y-111362200D02*
X189790476Y-111314580D01*
X189790476Y-111314580D02*
X189742857Y-111219342D01*
X189742857Y-111219342D02*
X189695238Y-111028866D01*
X189695238Y-111028866D02*
X189695238Y-110790771D01*
X189695238Y-110790771D02*
X189742857Y-110600295D01*
X189742857Y-110600295D02*
X189790476Y-110505057D01*
X189790476Y-110505057D02*
X189838095Y-110457438D01*
X189838095Y-110457438D02*
X189933333Y-110409819D01*
X190647619Y-110505057D02*
X190695238Y-110457438D01*
X190695238Y-110457438D02*
X190790476Y-110409819D01*
X190790476Y-110409819D02*
X191028571Y-110409819D01*
X191028571Y-110409819D02*
X191123809Y-110457438D01*
X191123809Y-110457438D02*
X191171428Y-110505057D01*
X191171428Y-110505057D02*
X191219047Y-110600295D01*
X191219047Y-110600295D02*
X191219047Y-110695533D01*
X191219047Y-110695533D02*
X191171428Y-110838390D01*
X191171428Y-110838390D02*
X190600000Y-111409819D01*
X190600000Y-111409819D02*
X191219047Y-111409819D01*
X130064285Y-83759819D02*
X130064285Y-84474104D01*
X130064285Y-84474104D02*
X130016666Y-84616961D01*
X130016666Y-84616961D02*
X129921428Y-84712200D01*
X129921428Y-84712200D02*
X129778571Y-84759819D01*
X129778571Y-84759819D02*
X129683333Y-84759819D01*
X131016666Y-83759819D02*
X130540476Y-83759819D01*
X130540476Y-83759819D02*
X130492857Y-84236009D01*
X130492857Y-84236009D02*
X130540476Y-84188390D01*
X130540476Y-84188390D02*
X130635714Y-84140771D01*
X130635714Y-84140771D02*
X130873809Y-84140771D01*
X130873809Y-84140771D02*
X130969047Y-84188390D01*
X130969047Y-84188390D02*
X131016666Y-84236009D01*
X131016666Y-84236009D02*
X131064285Y-84331247D01*
X131064285Y-84331247D02*
X131064285Y-84569342D01*
X131064285Y-84569342D02*
X131016666Y-84664580D01*
X131016666Y-84664580D02*
X130969047Y-84712200D01*
X130969047Y-84712200D02*
X130873809Y-84759819D01*
X130873809Y-84759819D02*
X130635714Y-84759819D01*
X130635714Y-84759819D02*
X130540476Y-84712200D01*
X130540476Y-84712200D02*
X130492857Y-84664580D01*
X131683333Y-83759819D02*
X131778571Y-83759819D01*
X131778571Y-83759819D02*
X131873809Y-83807438D01*
X131873809Y-83807438D02*
X131921428Y-83855057D01*
X131921428Y-83855057D02*
X131969047Y-83950295D01*
X131969047Y-83950295D02*
X132016666Y-84140771D01*
X132016666Y-84140771D02*
X132016666Y-84378866D01*
X132016666Y-84378866D02*
X131969047Y-84569342D01*
X131969047Y-84569342D02*
X131921428Y-84664580D01*
X131921428Y-84664580D02*
X131873809Y-84712200D01*
X131873809Y-84712200D02*
X131778571Y-84759819D01*
X131778571Y-84759819D02*
X131683333Y-84759819D01*
X131683333Y-84759819D02*
X131588095Y-84712200D01*
X131588095Y-84712200D02*
X131540476Y-84664580D01*
X131540476Y-84664580D02*
X131492857Y-84569342D01*
X131492857Y-84569342D02*
X131445238Y-84378866D01*
X131445238Y-84378866D02*
X131445238Y-84140771D01*
X131445238Y-84140771D02*
X131492857Y-83950295D01*
X131492857Y-83950295D02*
X131540476Y-83855057D01*
X131540476Y-83855057D02*
X131588095Y-83807438D01*
X131588095Y-83807438D02*
X131683333Y-83759819D01*
X132969047Y-84759819D02*
X132397619Y-84759819D01*
X132683333Y-84759819D02*
X132683333Y-83759819D01*
X132683333Y-83759819D02*
X132588095Y-83902676D01*
X132588095Y-83902676D02*
X132492857Y-83997914D01*
X132492857Y-83997914D02*
X132397619Y-84045533D01*
X163830952Y-83459580D02*
X163783333Y-83507200D01*
X163783333Y-83507200D02*
X163640476Y-83554819D01*
X163640476Y-83554819D02*
X163545238Y-83554819D01*
X163545238Y-83554819D02*
X163402381Y-83507200D01*
X163402381Y-83507200D02*
X163307143Y-83411961D01*
X163307143Y-83411961D02*
X163259524Y-83316723D01*
X163259524Y-83316723D02*
X163211905Y-83126247D01*
X163211905Y-83126247D02*
X163211905Y-82983390D01*
X163211905Y-82983390D02*
X163259524Y-82792914D01*
X163259524Y-82792914D02*
X163307143Y-82697676D01*
X163307143Y-82697676D02*
X163402381Y-82602438D01*
X163402381Y-82602438D02*
X163545238Y-82554819D01*
X163545238Y-82554819D02*
X163640476Y-82554819D01*
X163640476Y-82554819D02*
X163783333Y-82602438D01*
X163783333Y-82602438D02*
X163830952Y-82650057D01*
X164211905Y-82650057D02*
X164259524Y-82602438D01*
X164259524Y-82602438D02*
X164354762Y-82554819D01*
X164354762Y-82554819D02*
X164592857Y-82554819D01*
X164592857Y-82554819D02*
X164688095Y-82602438D01*
X164688095Y-82602438D02*
X164735714Y-82650057D01*
X164735714Y-82650057D02*
X164783333Y-82745295D01*
X164783333Y-82745295D02*
X164783333Y-82840533D01*
X164783333Y-82840533D02*
X164735714Y-82983390D01*
X164735714Y-82983390D02*
X164164286Y-83554819D01*
X164164286Y-83554819D02*
X164783333Y-83554819D01*
X165402381Y-82554819D02*
X165497619Y-82554819D01*
X165497619Y-82554819D02*
X165592857Y-82602438D01*
X165592857Y-82602438D02*
X165640476Y-82650057D01*
X165640476Y-82650057D02*
X165688095Y-82745295D01*
X165688095Y-82745295D02*
X165735714Y-82935771D01*
X165735714Y-82935771D02*
X165735714Y-83173866D01*
X165735714Y-83173866D02*
X165688095Y-83364342D01*
X165688095Y-83364342D02*
X165640476Y-83459580D01*
X165640476Y-83459580D02*
X165592857Y-83507200D01*
X165592857Y-83507200D02*
X165497619Y-83554819D01*
X165497619Y-83554819D02*
X165402381Y-83554819D01*
X165402381Y-83554819D02*
X165307143Y-83507200D01*
X165307143Y-83507200D02*
X165259524Y-83459580D01*
X165259524Y-83459580D02*
X165211905Y-83364342D01*
X165211905Y-83364342D02*
X165164286Y-83173866D01*
X165164286Y-83173866D02*
X165164286Y-82935771D01*
X165164286Y-82935771D02*
X165211905Y-82745295D01*
X165211905Y-82745295D02*
X165259524Y-82650057D01*
X165259524Y-82650057D02*
X165307143Y-82602438D01*
X165307143Y-82602438D02*
X165402381Y-82554819D01*
X166069048Y-82554819D02*
X166688095Y-82554819D01*
X166688095Y-82554819D02*
X166354762Y-82935771D01*
X166354762Y-82935771D02*
X166497619Y-82935771D01*
X166497619Y-82935771D02*
X166592857Y-82983390D01*
X166592857Y-82983390D02*
X166640476Y-83031009D01*
X166640476Y-83031009D02*
X166688095Y-83126247D01*
X166688095Y-83126247D02*
X166688095Y-83364342D01*
X166688095Y-83364342D02*
X166640476Y-83459580D01*
X166640476Y-83459580D02*
X166592857Y-83507200D01*
X166592857Y-83507200D02*
X166497619Y-83554819D01*
X166497619Y-83554819D02*
X166211905Y-83554819D01*
X166211905Y-83554819D02*
X166116667Y-83507200D01*
X166116667Y-83507200D02*
X166069048Y-83459580D01*
X175978571Y-100762295D02*
X175978571Y-101409914D01*
X175978571Y-101409914D02*
X176016666Y-101486104D01*
X176016666Y-101486104D02*
X176054761Y-101524200D01*
X176054761Y-101524200D02*
X176130952Y-101562295D01*
X176130952Y-101562295D02*
X176283333Y-101562295D01*
X176283333Y-101562295D02*
X176359523Y-101524200D01*
X176359523Y-101524200D02*
X176397618Y-101486104D01*
X176397618Y-101486104D02*
X176435714Y-101409914D01*
X176435714Y-101409914D02*
X176435714Y-100762295D01*
X177159523Y-100762295D02*
X177007142Y-100762295D01*
X177007142Y-100762295D02*
X176930951Y-100800390D01*
X176930951Y-100800390D02*
X176892856Y-100838485D01*
X176892856Y-100838485D02*
X176816666Y-100952771D01*
X176816666Y-100952771D02*
X176778570Y-101105152D01*
X176778570Y-101105152D02*
X176778570Y-101409914D01*
X176778570Y-101409914D02*
X176816666Y-101486104D01*
X176816666Y-101486104D02*
X176854761Y-101524200D01*
X176854761Y-101524200D02*
X176930951Y-101562295D01*
X176930951Y-101562295D02*
X177083332Y-101562295D01*
X177083332Y-101562295D02*
X177159523Y-101524200D01*
X177159523Y-101524200D02*
X177197618Y-101486104D01*
X177197618Y-101486104D02*
X177235713Y-101409914D01*
X177235713Y-101409914D02*
X177235713Y-101219438D01*
X177235713Y-101219438D02*
X177197618Y-101143247D01*
X177197618Y-101143247D02*
X177159523Y-101105152D01*
X177159523Y-101105152D02*
X177083332Y-101067057D01*
X177083332Y-101067057D02*
X176930951Y-101067057D01*
X176930951Y-101067057D02*
X176854761Y-101105152D01*
X176854761Y-101105152D02*
X176816666Y-101143247D01*
X176816666Y-101143247D02*
X176778570Y-101219438D01*
X177730952Y-100762295D02*
X177807142Y-100762295D01*
X177807142Y-100762295D02*
X177883333Y-100800390D01*
X177883333Y-100800390D02*
X177921428Y-100838485D01*
X177921428Y-100838485D02*
X177959523Y-100914676D01*
X177959523Y-100914676D02*
X177997618Y-101067057D01*
X177997618Y-101067057D02*
X177997618Y-101257533D01*
X177997618Y-101257533D02*
X177959523Y-101409914D01*
X177959523Y-101409914D02*
X177921428Y-101486104D01*
X177921428Y-101486104D02*
X177883333Y-101524200D01*
X177883333Y-101524200D02*
X177807142Y-101562295D01*
X177807142Y-101562295D02*
X177730952Y-101562295D01*
X177730952Y-101562295D02*
X177654761Y-101524200D01*
X177654761Y-101524200D02*
X177616666Y-101486104D01*
X177616666Y-101486104D02*
X177578571Y-101409914D01*
X177578571Y-101409914D02*
X177540475Y-101257533D01*
X177540475Y-101257533D02*
X177540475Y-101067057D01*
X177540475Y-101067057D02*
X177578571Y-100914676D01*
X177578571Y-100914676D02*
X177616666Y-100838485D01*
X177616666Y-100838485D02*
X177654761Y-100800390D01*
X177654761Y-100800390D02*
X177730952Y-100762295D01*
X178759523Y-101562295D02*
X178302380Y-101562295D01*
X178530952Y-101562295D02*
X178530952Y-100762295D01*
X178530952Y-100762295D02*
X178454761Y-100876580D01*
X178454761Y-100876580D02*
X178378571Y-100952771D01*
X178378571Y-100952771D02*
X178302380Y-100990866D01*
X158802380Y-112104819D02*
X158469047Y-111628628D01*
X158230952Y-112104819D02*
X158230952Y-111104819D01*
X158230952Y-111104819D02*
X158611904Y-111104819D01*
X158611904Y-111104819D02*
X158707142Y-111152438D01*
X158707142Y-111152438D02*
X158754761Y-111200057D01*
X158754761Y-111200057D02*
X158802380Y-111295295D01*
X158802380Y-111295295D02*
X158802380Y-111438152D01*
X158802380Y-111438152D02*
X158754761Y-111533390D01*
X158754761Y-111533390D02*
X158707142Y-111581009D01*
X158707142Y-111581009D02*
X158611904Y-111628628D01*
X158611904Y-111628628D02*
X158230952Y-111628628D01*
X159135714Y-111438152D02*
X159373809Y-112104819D01*
X159373809Y-112104819D02*
X159611904Y-111438152D01*
X159992857Y-112104819D02*
X159992857Y-111438152D01*
X159992857Y-111533390D02*
X160040476Y-111485771D01*
X160040476Y-111485771D02*
X160135714Y-111438152D01*
X160135714Y-111438152D02*
X160278571Y-111438152D01*
X160278571Y-111438152D02*
X160373809Y-111485771D01*
X160373809Y-111485771D02*
X160421428Y-111581009D01*
X160421428Y-111581009D02*
X160421428Y-112104819D01*
X160421428Y-111581009D02*
X160469047Y-111485771D01*
X160469047Y-111485771D02*
X160564285Y-111438152D01*
X160564285Y-111438152D02*
X160707142Y-111438152D01*
X160707142Y-111438152D02*
X160802381Y-111485771D01*
X160802381Y-111485771D02*
X160850000Y-111581009D01*
X160850000Y-111581009D02*
X160850000Y-112104819D01*
X161754761Y-112057200D02*
X161659523Y-112104819D01*
X161659523Y-112104819D02*
X161469047Y-112104819D01*
X161469047Y-112104819D02*
X161373809Y-112057200D01*
X161373809Y-112057200D02*
X161326190Y-112009580D01*
X161326190Y-112009580D02*
X161278571Y-111914342D01*
X161278571Y-111914342D02*
X161278571Y-111628628D01*
X161278571Y-111628628D02*
X161326190Y-111533390D01*
X161326190Y-111533390D02*
X161373809Y-111485771D01*
X161373809Y-111485771D02*
X161469047Y-111438152D01*
X161469047Y-111438152D02*
X161659523Y-111438152D01*
X161659523Y-111438152D02*
X161754761Y-111485771D01*
X162611904Y-111438152D02*
X162611904Y-112104819D01*
X162183333Y-111438152D02*
X162183333Y-111961961D01*
X162183333Y-111961961D02*
X162230952Y-112057200D01*
X162230952Y-112057200D02*
X162326190Y-112104819D01*
X162326190Y-112104819D02*
X162469047Y-112104819D01*
X162469047Y-112104819D02*
X162564285Y-112057200D01*
X162564285Y-112057200D02*
X162611904Y-112009580D01*
X162992857Y-111104819D02*
X163659523Y-111104819D01*
X163659523Y-111104819D02*
X163230952Y-112104819D01*
X164230952Y-111104819D02*
X164326190Y-111104819D01*
X164326190Y-111104819D02*
X164421428Y-111152438D01*
X164421428Y-111152438D02*
X164469047Y-111200057D01*
X164469047Y-111200057D02*
X164516666Y-111295295D01*
X164516666Y-111295295D02*
X164564285Y-111485771D01*
X164564285Y-111485771D02*
X164564285Y-111723866D01*
X164564285Y-111723866D02*
X164516666Y-111914342D01*
X164516666Y-111914342D02*
X164469047Y-112009580D01*
X164469047Y-112009580D02*
X164421428Y-112057200D01*
X164421428Y-112057200D02*
X164326190Y-112104819D01*
X164326190Y-112104819D02*
X164230952Y-112104819D01*
X164230952Y-112104819D02*
X164135714Y-112057200D01*
X164135714Y-112057200D02*
X164088095Y-112009580D01*
X164088095Y-112009580D02*
X164040476Y-111914342D01*
X164040476Y-111914342D02*
X163992857Y-111723866D01*
X163992857Y-111723866D02*
X163992857Y-111485771D01*
X163992857Y-111485771D02*
X164040476Y-111295295D01*
X164040476Y-111295295D02*
X164088095Y-111200057D01*
X164088095Y-111200057D02*
X164135714Y-111152438D01*
X164135714Y-111152438D02*
X164230952Y-111104819D01*
X165516666Y-112104819D02*
X164945238Y-112104819D01*
X165230952Y-112104819D02*
X165230952Y-111104819D01*
X165230952Y-111104819D02*
X165135714Y-111247676D01*
X165135714Y-111247676D02*
X165040476Y-111342914D01*
X165040476Y-111342914D02*
X164945238Y-111390533D01*
X185907200Y-79785713D02*
X185954819Y-79642856D01*
X185954819Y-79642856D02*
X185954819Y-79404761D01*
X185954819Y-79404761D02*
X185907200Y-79309523D01*
X185907200Y-79309523D02*
X185859580Y-79261904D01*
X185859580Y-79261904D02*
X185764342Y-79214285D01*
X185764342Y-79214285D02*
X185669104Y-79214285D01*
X185669104Y-79214285D02*
X185573866Y-79261904D01*
X185573866Y-79261904D02*
X185526247Y-79309523D01*
X185526247Y-79309523D02*
X185478628Y-79404761D01*
X185478628Y-79404761D02*
X185431009Y-79595237D01*
X185431009Y-79595237D02*
X185383390Y-79690475D01*
X185383390Y-79690475D02*
X185335771Y-79738094D01*
X185335771Y-79738094D02*
X185240533Y-79785713D01*
X185240533Y-79785713D02*
X185145295Y-79785713D01*
X185145295Y-79785713D02*
X185050057Y-79738094D01*
X185050057Y-79738094D02*
X185002438Y-79690475D01*
X185002438Y-79690475D02*
X184954819Y-79595237D01*
X184954819Y-79595237D02*
X184954819Y-79357142D01*
X184954819Y-79357142D02*
X185002438Y-79214285D01*
X184954819Y-78880951D02*
X185954819Y-78642856D01*
X185954819Y-78642856D02*
X185240533Y-78452380D01*
X185240533Y-78452380D02*
X185954819Y-78261904D01*
X185954819Y-78261904D02*
X184954819Y-78023809D01*
X185050057Y-77690475D02*
X185002438Y-77642856D01*
X185002438Y-77642856D02*
X184954819Y-77547618D01*
X184954819Y-77547618D02*
X184954819Y-77309523D01*
X184954819Y-77309523D02*
X185002438Y-77214285D01*
X185002438Y-77214285D02*
X185050057Y-77166666D01*
X185050057Y-77166666D02*
X185145295Y-77119047D01*
X185145295Y-77119047D02*
X185240533Y-77119047D01*
X185240533Y-77119047D02*
X185383390Y-77166666D01*
X185383390Y-77166666D02*
X185954819Y-77738094D01*
X185954819Y-77738094D02*
X185954819Y-77119047D01*
X184954819Y-76499999D02*
X184954819Y-76404761D01*
X184954819Y-76404761D02*
X185002438Y-76309523D01*
X185002438Y-76309523D02*
X185050057Y-76261904D01*
X185050057Y-76261904D02*
X185145295Y-76214285D01*
X185145295Y-76214285D02*
X185335771Y-76166666D01*
X185335771Y-76166666D02*
X185573866Y-76166666D01*
X185573866Y-76166666D02*
X185764342Y-76214285D01*
X185764342Y-76214285D02*
X185859580Y-76261904D01*
X185859580Y-76261904D02*
X185907200Y-76309523D01*
X185907200Y-76309523D02*
X185954819Y-76404761D01*
X185954819Y-76404761D02*
X185954819Y-76499999D01*
X185954819Y-76499999D02*
X185907200Y-76595237D01*
X185907200Y-76595237D02*
X185859580Y-76642856D01*
X185859580Y-76642856D02*
X185764342Y-76690475D01*
X185764342Y-76690475D02*
X185573866Y-76738094D01*
X185573866Y-76738094D02*
X185335771Y-76738094D01*
X185335771Y-76738094D02*
X185145295Y-76690475D01*
X185145295Y-76690475D02*
X185050057Y-76642856D01*
X185050057Y-76642856D02*
X185002438Y-76595237D01*
X185002438Y-76595237D02*
X184954819Y-76499999D01*
X185954819Y-75214285D02*
X185954819Y-75785713D01*
X185954819Y-75499999D02*
X184954819Y-75499999D01*
X184954819Y-75499999D02*
X185097676Y-75595237D01*
X185097676Y-75595237D02*
X185192914Y-75690475D01*
X185192914Y-75690475D02*
X185240533Y-75785713D01*
X156072819Y-94792285D02*
X156882342Y-94792285D01*
X156882342Y-94792285D02*
X156977580Y-94744666D01*
X156977580Y-94744666D02*
X157025200Y-94697047D01*
X157025200Y-94697047D02*
X157072819Y-94601809D01*
X157072819Y-94601809D02*
X157072819Y-94411333D01*
X157072819Y-94411333D02*
X157025200Y-94316095D01*
X157025200Y-94316095D02*
X156977580Y-94268476D01*
X156977580Y-94268476D02*
X156882342Y-94220857D01*
X156882342Y-94220857D02*
X156072819Y-94220857D01*
X156072819Y-93839904D02*
X156072819Y-93220857D01*
X156072819Y-93220857D02*
X156453771Y-93554190D01*
X156453771Y-93554190D02*
X156453771Y-93411333D01*
X156453771Y-93411333D02*
X156501390Y-93316095D01*
X156501390Y-93316095D02*
X156549009Y-93268476D01*
X156549009Y-93268476D02*
X156644247Y-93220857D01*
X156644247Y-93220857D02*
X156882342Y-93220857D01*
X156882342Y-93220857D02*
X156977580Y-93268476D01*
X156977580Y-93268476D02*
X157025200Y-93316095D01*
X157025200Y-93316095D02*
X157072819Y-93411333D01*
X157072819Y-93411333D02*
X157072819Y-93697047D01*
X157072819Y-93697047D02*
X157025200Y-93792285D01*
X157025200Y-93792285D02*
X156977580Y-93839904D01*
X156072819Y-92601809D02*
X156072819Y-92506571D01*
X156072819Y-92506571D02*
X156120438Y-92411333D01*
X156120438Y-92411333D02*
X156168057Y-92363714D01*
X156168057Y-92363714D02*
X156263295Y-92316095D01*
X156263295Y-92316095D02*
X156453771Y-92268476D01*
X156453771Y-92268476D02*
X156691866Y-92268476D01*
X156691866Y-92268476D02*
X156882342Y-92316095D01*
X156882342Y-92316095D02*
X156977580Y-92363714D01*
X156977580Y-92363714D02*
X157025200Y-92411333D01*
X157025200Y-92411333D02*
X157072819Y-92506571D01*
X157072819Y-92506571D02*
X157072819Y-92601809D01*
X157072819Y-92601809D02*
X157025200Y-92697047D01*
X157025200Y-92697047D02*
X156977580Y-92744666D01*
X156977580Y-92744666D02*
X156882342Y-92792285D01*
X156882342Y-92792285D02*
X156691866Y-92839904D01*
X156691866Y-92839904D02*
X156453771Y-92839904D01*
X156453771Y-92839904D02*
X156263295Y-92792285D01*
X156263295Y-92792285D02*
X156168057Y-92744666D01*
X156168057Y-92744666D02*
X156120438Y-92697047D01*
X156120438Y-92697047D02*
X156072819Y-92601809D01*
X157072819Y-91316095D02*
X157072819Y-91887523D01*
X157072819Y-91601809D02*
X156072819Y-91601809D01*
X156072819Y-91601809D02*
X156215676Y-91697047D01*
X156215676Y-91697047D02*
X156310914Y-91792285D01*
X156310914Y-91792285D02*
X156358533Y-91887523D01*
X187454762Y-85286104D02*
X187416666Y-85324200D01*
X187416666Y-85324200D02*
X187302381Y-85362295D01*
X187302381Y-85362295D02*
X187226190Y-85362295D01*
X187226190Y-85362295D02*
X187111904Y-85324200D01*
X187111904Y-85324200D02*
X187035714Y-85248009D01*
X187035714Y-85248009D02*
X186997619Y-85171819D01*
X186997619Y-85171819D02*
X186959523Y-85019438D01*
X186959523Y-85019438D02*
X186959523Y-84905152D01*
X186959523Y-84905152D02*
X186997619Y-84752771D01*
X186997619Y-84752771D02*
X187035714Y-84676580D01*
X187035714Y-84676580D02*
X187111904Y-84600390D01*
X187111904Y-84600390D02*
X187226190Y-84562295D01*
X187226190Y-84562295D02*
X187302381Y-84562295D01*
X187302381Y-84562295D02*
X187416666Y-84600390D01*
X187416666Y-84600390D02*
X187454762Y-84638485D01*
X187759523Y-84638485D02*
X187797619Y-84600390D01*
X187797619Y-84600390D02*
X187873809Y-84562295D01*
X187873809Y-84562295D02*
X188064285Y-84562295D01*
X188064285Y-84562295D02*
X188140476Y-84600390D01*
X188140476Y-84600390D02*
X188178571Y-84638485D01*
X188178571Y-84638485D02*
X188216666Y-84714676D01*
X188216666Y-84714676D02*
X188216666Y-84790866D01*
X188216666Y-84790866D02*
X188178571Y-84905152D01*
X188178571Y-84905152D02*
X187721428Y-85362295D01*
X187721428Y-85362295D02*
X188216666Y-85362295D01*
X188711905Y-84562295D02*
X188788095Y-84562295D01*
X188788095Y-84562295D02*
X188864286Y-84600390D01*
X188864286Y-84600390D02*
X188902381Y-84638485D01*
X188902381Y-84638485D02*
X188940476Y-84714676D01*
X188940476Y-84714676D02*
X188978571Y-84867057D01*
X188978571Y-84867057D02*
X188978571Y-85057533D01*
X188978571Y-85057533D02*
X188940476Y-85209914D01*
X188940476Y-85209914D02*
X188902381Y-85286104D01*
X188902381Y-85286104D02*
X188864286Y-85324200D01*
X188864286Y-85324200D02*
X188788095Y-85362295D01*
X188788095Y-85362295D02*
X188711905Y-85362295D01*
X188711905Y-85362295D02*
X188635714Y-85324200D01*
X188635714Y-85324200D02*
X188597619Y-85286104D01*
X188597619Y-85286104D02*
X188559524Y-85209914D01*
X188559524Y-85209914D02*
X188521428Y-85057533D01*
X188521428Y-85057533D02*
X188521428Y-84867057D01*
X188521428Y-84867057D02*
X188559524Y-84714676D01*
X188559524Y-84714676D02*
X188597619Y-84638485D01*
X188597619Y-84638485D02*
X188635714Y-84600390D01*
X188635714Y-84600390D02*
X188711905Y-84562295D01*
X189435714Y-84905152D02*
X189359524Y-84867057D01*
X189359524Y-84867057D02*
X189321429Y-84828961D01*
X189321429Y-84828961D02*
X189283333Y-84752771D01*
X189283333Y-84752771D02*
X189283333Y-84714676D01*
X189283333Y-84714676D02*
X189321429Y-84638485D01*
X189321429Y-84638485D02*
X189359524Y-84600390D01*
X189359524Y-84600390D02*
X189435714Y-84562295D01*
X189435714Y-84562295D02*
X189588095Y-84562295D01*
X189588095Y-84562295D02*
X189664286Y-84600390D01*
X189664286Y-84600390D02*
X189702381Y-84638485D01*
X189702381Y-84638485D02*
X189740476Y-84714676D01*
X189740476Y-84714676D02*
X189740476Y-84752771D01*
X189740476Y-84752771D02*
X189702381Y-84828961D01*
X189702381Y-84828961D02*
X189664286Y-84867057D01*
X189664286Y-84867057D02*
X189588095Y-84905152D01*
X189588095Y-84905152D02*
X189435714Y-84905152D01*
X189435714Y-84905152D02*
X189359524Y-84943247D01*
X189359524Y-84943247D02*
X189321429Y-84981342D01*
X189321429Y-84981342D02*
X189283333Y-85057533D01*
X189283333Y-85057533D02*
X189283333Y-85209914D01*
X189283333Y-85209914D02*
X189321429Y-85286104D01*
X189321429Y-85286104D02*
X189359524Y-85324200D01*
X189359524Y-85324200D02*
X189435714Y-85362295D01*
X189435714Y-85362295D02*
X189588095Y-85362295D01*
X189588095Y-85362295D02*
X189664286Y-85324200D01*
X189664286Y-85324200D02*
X189702381Y-85286104D01*
X189702381Y-85286104D02*
X189740476Y-85209914D01*
X189740476Y-85209914D02*
X189740476Y-85057533D01*
X189740476Y-85057533D02*
X189702381Y-84981342D01*
X189702381Y-84981342D02*
X189664286Y-84943247D01*
X189664286Y-84943247D02*
X189588095Y-84905152D01*
X182280952Y-96259580D02*
X182233333Y-96307200D01*
X182233333Y-96307200D02*
X182090476Y-96354819D01*
X182090476Y-96354819D02*
X181995238Y-96354819D01*
X181995238Y-96354819D02*
X181852381Y-96307200D01*
X181852381Y-96307200D02*
X181757143Y-96211961D01*
X181757143Y-96211961D02*
X181709524Y-96116723D01*
X181709524Y-96116723D02*
X181661905Y-95926247D01*
X181661905Y-95926247D02*
X181661905Y-95783390D01*
X181661905Y-95783390D02*
X181709524Y-95592914D01*
X181709524Y-95592914D02*
X181757143Y-95497676D01*
X181757143Y-95497676D02*
X181852381Y-95402438D01*
X181852381Y-95402438D02*
X181995238Y-95354819D01*
X181995238Y-95354819D02*
X182090476Y-95354819D01*
X182090476Y-95354819D02*
X182233333Y-95402438D01*
X182233333Y-95402438D02*
X182280952Y-95450057D01*
X182661905Y-95450057D02*
X182709524Y-95402438D01*
X182709524Y-95402438D02*
X182804762Y-95354819D01*
X182804762Y-95354819D02*
X183042857Y-95354819D01*
X183042857Y-95354819D02*
X183138095Y-95402438D01*
X183138095Y-95402438D02*
X183185714Y-95450057D01*
X183185714Y-95450057D02*
X183233333Y-95545295D01*
X183233333Y-95545295D02*
X183233333Y-95640533D01*
X183233333Y-95640533D02*
X183185714Y-95783390D01*
X183185714Y-95783390D02*
X182614286Y-96354819D01*
X182614286Y-96354819D02*
X183233333Y-96354819D01*
X183852381Y-95354819D02*
X183947619Y-95354819D01*
X183947619Y-95354819D02*
X184042857Y-95402438D01*
X184042857Y-95402438D02*
X184090476Y-95450057D01*
X184090476Y-95450057D02*
X184138095Y-95545295D01*
X184138095Y-95545295D02*
X184185714Y-95735771D01*
X184185714Y-95735771D02*
X184185714Y-95973866D01*
X184185714Y-95973866D02*
X184138095Y-96164342D01*
X184138095Y-96164342D02*
X184090476Y-96259580D01*
X184090476Y-96259580D02*
X184042857Y-96307200D01*
X184042857Y-96307200D02*
X183947619Y-96354819D01*
X183947619Y-96354819D02*
X183852381Y-96354819D01*
X183852381Y-96354819D02*
X183757143Y-96307200D01*
X183757143Y-96307200D02*
X183709524Y-96259580D01*
X183709524Y-96259580D02*
X183661905Y-96164342D01*
X183661905Y-96164342D02*
X183614286Y-95973866D01*
X183614286Y-95973866D02*
X183614286Y-95735771D01*
X183614286Y-95735771D02*
X183661905Y-95545295D01*
X183661905Y-95545295D02*
X183709524Y-95450057D01*
X183709524Y-95450057D02*
X183757143Y-95402438D01*
X183757143Y-95402438D02*
X183852381Y-95354819D01*
X185138095Y-96354819D02*
X184566667Y-96354819D01*
X184852381Y-96354819D02*
X184852381Y-95354819D01*
X184852381Y-95354819D02*
X184757143Y-95497676D01*
X184757143Y-95497676D02*
X184661905Y-95592914D01*
X184661905Y-95592914D02*
X184566667Y-95640533D01*
X173009580Y-76719047D02*
X173057200Y-76766666D01*
X173057200Y-76766666D02*
X173104819Y-76909523D01*
X173104819Y-76909523D02*
X173104819Y-77004761D01*
X173104819Y-77004761D02*
X173057200Y-77147618D01*
X173057200Y-77147618D02*
X172961961Y-77242856D01*
X172961961Y-77242856D02*
X172866723Y-77290475D01*
X172866723Y-77290475D02*
X172676247Y-77338094D01*
X172676247Y-77338094D02*
X172533390Y-77338094D01*
X172533390Y-77338094D02*
X172342914Y-77290475D01*
X172342914Y-77290475D02*
X172247676Y-77242856D01*
X172247676Y-77242856D02*
X172152438Y-77147618D01*
X172152438Y-77147618D02*
X172104819Y-77004761D01*
X172104819Y-77004761D02*
X172104819Y-76909523D01*
X172104819Y-76909523D02*
X172152438Y-76766666D01*
X172152438Y-76766666D02*
X172200057Y-76719047D01*
X172200057Y-76338094D02*
X172152438Y-76290475D01*
X172152438Y-76290475D02*
X172104819Y-76195237D01*
X172104819Y-76195237D02*
X172104819Y-75957142D01*
X172104819Y-75957142D02*
X172152438Y-75861904D01*
X172152438Y-75861904D02*
X172200057Y-75814285D01*
X172200057Y-75814285D02*
X172295295Y-75766666D01*
X172295295Y-75766666D02*
X172390533Y-75766666D01*
X172390533Y-75766666D02*
X172533390Y-75814285D01*
X172533390Y-75814285D02*
X173104819Y-76385713D01*
X173104819Y-76385713D02*
X173104819Y-75766666D01*
X172104819Y-75147618D02*
X172104819Y-75052380D01*
X172104819Y-75052380D02*
X172152438Y-74957142D01*
X172152438Y-74957142D02*
X172200057Y-74909523D01*
X172200057Y-74909523D02*
X172295295Y-74861904D01*
X172295295Y-74861904D02*
X172485771Y-74814285D01*
X172485771Y-74814285D02*
X172723866Y-74814285D01*
X172723866Y-74814285D02*
X172914342Y-74861904D01*
X172914342Y-74861904D02*
X173009580Y-74909523D01*
X173009580Y-74909523D02*
X173057200Y-74957142D01*
X173057200Y-74957142D02*
X173104819Y-75052380D01*
X173104819Y-75052380D02*
X173104819Y-75147618D01*
X173104819Y-75147618D02*
X173057200Y-75242856D01*
X173057200Y-75242856D02*
X173009580Y-75290475D01*
X173009580Y-75290475D02*
X172914342Y-75338094D01*
X172914342Y-75338094D02*
X172723866Y-75385713D01*
X172723866Y-75385713D02*
X172485771Y-75385713D01*
X172485771Y-75385713D02*
X172295295Y-75338094D01*
X172295295Y-75338094D02*
X172200057Y-75290475D01*
X172200057Y-75290475D02*
X172152438Y-75242856D01*
X172152438Y-75242856D02*
X172104819Y-75147618D01*
X172104819Y-73957142D02*
X172104819Y-74147618D01*
X172104819Y-74147618D02*
X172152438Y-74242856D01*
X172152438Y-74242856D02*
X172200057Y-74290475D01*
X172200057Y-74290475D02*
X172342914Y-74385713D01*
X172342914Y-74385713D02*
X172533390Y-74433332D01*
X172533390Y-74433332D02*
X172914342Y-74433332D01*
X172914342Y-74433332D02*
X173009580Y-74385713D01*
X173009580Y-74385713D02*
X173057200Y-74338094D01*
X173057200Y-74338094D02*
X173104819Y-74242856D01*
X173104819Y-74242856D02*
X173104819Y-74052380D01*
X173104819Y-74052380D02*
X173057200Y-73957142D01*
X173057200Y-73957142D02*
X173009580Y-73909523D01*
X173009580Y-73909523D02*
X172914342Y-73861904D01*
X172914342Y-73861904D02*
X172676247Y-73861904D01*
X172676247Y-73861904D02*
X172581009Y-73909523D01*
X172581009Y-73909523D02*
X172533390Y-73957142D01*
X172533390Y-73957142D02*
X172485771Y-74052380D01*
X172485771Y-74052380D02*
X172485771Y-74242856D01*
X172485771Y-74242856D02*
X172533390Y-74338094D01*
X172533390Y-74338094D02*
X172581009Y-74385713D01*
X172581009Y-74385713D02*
X172676247Y-74433332D01*
X178104762Y-82962295D02*
X177838095Y-82581342D01*
X177647619Y-82962295D02*
X177647619Y-82162295D01*
X177647619Y-82162295D02*
X177952381Y-82162295D01*
X177952381Y-82162295D02*
X178028571Y-82200390D01*
X178028571Y-82200390D02*
X178066666Y-82238485D01*
X178066666Y-82238485D02*
X178104762Y-82314676D01*
X178104762Y-82314676D02*
X178104762Y-82428961D01*
X178104762Y-82428961D02*
X178066666Y-82505152D01*
X178066666Y-82505152D02*
X178028571Y-82543247D01*
X178028571Y-82543247D02*
X177952381Y-82581342D01*
X177952381Y-82581342D02*
X177647619Y-82581342D01*
X178409523Y-82238485D02*
X178447619Y-82200390D01*
X178447619Y-82200390D02*
X178523809Y-82162295D01*
X178523809Y-82162295D02*
X178714285Y-82162295D01*
X178714285Y-82162295D02*
X178790476Y-82200390D01*
X178790476Y-82200390D02*
X178828571Y-82238485D01*
X178828571Y-82238485D02*
X178866666Y-82314676D01*
X178866666Y-82314676D02*
X178866666Y-82390866D01*
X178866666Y-82390866D02*
X178828571Y-82505152D01*
X178828571Y-82505152D02*
X178371428Y-82962295D01*
X178371428Y-82962295D02*
X178866666Y-82962295D01*
X179361905Y-82162295D02*
X179438095Y-82162295D01*
X179438095Y-82162295D02*
X179514286Y-82200390D01*
X179514286Y-82200390D02*
X179552381Y-82238485D01*
X179552381Y-82238485D02*
X179590476Y-82314676D01*
X179590476Y-82314676D02*
X179628571Y-82467057D01*
X179628571Y-82467057D02*
X179628571Y-82657533D01*
X179628571Y-82657533D02*
X179590476Y-82809914D01*
X179590476Y-82809914D02*
X179552381Y-82886104D01*
X179552381Y-82886104D02*
X179514286Y-82924200D01*
X179514286Y-82924200D02*
X179438095Y-82962295D01*
X179438095Y-82962295D02*
X179361905Y-82962295D01*
X179361905Y-82962295D02*
X179285714Y-82924200D01*
X179285714Y-82924200D02*
X179247619Y-82886104D01*
X179247619Y-82886104D02*
X179209524Y-82809914D01*
X179209524Y-82809914D02*
X179171428Y-82657533D01*
X179171428Y-82657533D02*
X179171428Y-82467057D01*
X179171428Y-82467057D02*
X179209524Y-82314676D01*
X179209524Y-82314676D02*
X179247619Y-82238485D01*
X179247619Y-82238485D02*
X179285714Y-82200390D01*
X179285714Y-82200390D02*
X179361905Y-82162295D01*
X180085714Y-82505152D02*
X180009524Y-82467057D01*
X180009524Y-82467057D02*
X179971429Y-82428961D01*
X179971429Y-82428961D02*
X179933333Y-82352771D01*
X179933333Y-82352771D02*
X179933333Y-82314676D01*
X179933333Y-82314676D02*
X179971429Y-82238485D01*
X179971429Y-82238485D02*
X180009524Y-82200390D01*
X180009524Y-82200390D02*
X180085714Y-82162295D01*
X180085714Y-82162295D02*
X180238095Y-82162295D01*
X180238095Y-82162295D02*
X180314286Y-82200390D01*
X180314286Y-82200390D02*
X180352381Y-82238485D01*
X180352381Y-82238485D02*
X180390476Y-82314676D01*
X180390476Y-82314676D02*
X180390476Y-82352771D01*
X180390476Y-82352771D02*
X180352381Y-82428961D01*
X180352381Y-82428961D02*
X180314286Y-82467057D01*
X180314286Y-82467057D02*
X180238095Y-82505152D01*
X180238095Y-82505152D02*
X180085714Y-82505152D01*
X180085714Y-82505152D02*
X180009524Y-82543247D01*
X180009524Y-82543247D02*
X179971429Y-82581342D01*
X179971429Y-82581342D02*
X179933333Y-82657533D01*
X179933333Y-82657533D02*
X179933333Y-82809914D01*
X179933333Y-82809914D02*
X179971429Y-82886104D01*
X179971429Y-82886104D02*
X180009524Y-82924200D01*
X180009524Y-82924200D02*
X180085714Y-82962295D01*
X180085714Y-82962295D02*
X180238095Y-82962295D01*
X180238095Y-82962295D02*
X180314286Y-82924200D01*
X180314286Y-82924200D02*
X180352381Y-82886104D01*
X180352381Y-82886104D02*
X180390476Y-82809914D01*
X180390476Y-82809914D02*
X180390476Y-82657533D01*
X180390476Y-82657533D02*
X180352381Y-82581342D01*
X180352381Y-82581342D02*
X180314286Y-82543247D01*
X180314286Y-82543247D02*
X180238095Y-82505152D01*
X141154762Y-95536104D02*
X141116666Y-95574200D01*
X141116666Y-95574200D02*
X141002381Y-95612295D01*
X141002381Y-95612295D02*
X140926190Y-95612295D01*
X140926190Y-95612295D02*
X140811904Y-95574200D01*
X140811904Y-95574200D02*
X140735714Y-95498009D01*
X140735714Y-95498009D02*
X140697619Y-95421819D01*
X140697619Y-95421819D02*
X140659523Y-95269438D01*
X140659523Y-95269438D02*
X140659523Y-95155152D01*
X140659523Y-95155152D02*
X140697619Y-95002771D01*
X140697619Y-95002771D02*
X140735714Y-94926580D01*
X140735714Y-94926580D02*
X140811904Y-94850390D01*
X140811904Y-94850390D02*
X140926190Y-94812295D01*
X140926190Y-94812295D02*
X141002381Y-94812295D01*
X141002381Y-94812295D02*
X141116666Y-94850390D01*
X141116666Y-94850390D02*
X141154762Y-94888485D01*
X141421428Y-94812295D02*
X141916666Y-94812295D01*
X141916666Y-94812295D02*
X141650000Y-95117057D01*
X141650000Y-95117057D02*
X141764285Y-95117057D01*
X141764285Y-95117057D02*
X141840476Y-95155152D01*
X141840476Y-95155152D02*
X141878571Y-95193247D01*
X141878571Y-95193247D02*
X141916666Y-95269438D01*
X141916666Y-95269438D02*
X141916666Y-95459914D01*
X141916666Y-95459914D02*
X141878571Y-95536104D01*
X141878571Y-95536104D02*
X141840476Y-95574200D01*
X141840476Y-95574200D02*
X141764285Y-95612295D01*
X141764285Y-95612295D02*
X141535714Y-95612295D01*
X141535714Y-95612295D02*
X141459523Y-95574200D01*
X141459523Y-95574200D02*
X141421428Y-95536104D01*
X142411905Y-94812295D02*
X142488095Y-94812295D01*
X142488095Y-94812295D02*
X142564286Y-94850390D01*
X142564286Y-94850390D02*
X142602381Y-94888485D01*
X142602381Y-94888485D02*
X142640476Y-94964676D01*
X142640476Y-94964676D02*
X142678571Y-95117057D01*
X142678571Y-95117057D02*
X142678571Y-95307533D01*
X142678571Y-95307533D02*
X142640476Y-95459914D01*
X142640476Y-95459914D02*
X142602381Y-95536104D01*
X142602381Y-95536104D02*
X142564286Y-95574200D01*
X142564286Y-95574200D02*
X142488095Y-95612295D01*
X142488095Y-95612295D02*
X142411905Y-95612295D01*
X142411905Y-95612295D02*
X142335714Y-95574200D01*
X142335714Y-95574200D02*
X142297619Y-95536104D01*
X142297619Y-95536104D02*
X142259524Y-95459914D01*
X142259524Y-95459914D02*
X142221428Y-95307533D01*
X142221428Y-95307533D02*
X142221428Y-95117057D01*
X142221428Y-95117057D02*
X142259524Y-94964676D01*
X142259524Y-94964676D02*
X142297619Y-94888485D01*
X142297619Y-94888485D02*
X142335714Y-94850390D01*
X142335714Y-94850390D02*
X142411905Y-94812295D01*
X143402381Y-94812295D02*
X143021429Y-94812295D01*
X143021429Y-94812295D02*
X142983333Y-95193247D01*
X142983333Y-95193247D02*
X143021429Y-95155152D01*
X143021429Y-95155152D02*
X143097619Y-95117057D01*
X143097619Y-95117057D02*
X143288095Y-95117057D01*
X143288095Y-95117057D02*
X143364286Y-95155152D01*
X143364286Y-95155152D02*
X143402381Y-95193247D01*
X143402381Y-95193247D02*
X143440476Y-95269438D01*
X143440476Y-95269438D02*
X143440476Y-95459914D01*
X143440476Y-95459914D02*
X143402381Y-95536104D01*
X143402381Y-95536104D02*
X143364286Y-95574200D01*
X143364286Y-95574200D02*
X143288095Y-95612295D01*
X143288095Y-95612295D02*
X143097619Y-95612295D01*
X143097619Y-95612295D02*
X143021429Y-95574200D01*
X143021429Y-95574200D02*
X142983333Y-95536104D01*
X177862295Y-87395237D02*
X177481342Y-87661904D01*
X177862295Y-87852380D02*
X177062295Y-87852380D01*
X177062295Y-87852380D02*
X177062295Y-87547618D01*
X177062295Y-87547618D02*
X177100390Y-87471428D01*
X177100390Y-87471428D02*
X177138485Y-87433333D01*
X177138485Y-87433333D02*
X177214676Y-87395237D01*
X177214676Y-87395237D02*
X177328961Y-87395237D01*
X177328961Y-87395237D02*
X177405152Y-87433333D01*
X177405152Y-87433333D02*
X177443247Y-87471428D01*
X177443247Y-87471428D02*
X177481342Y-87547618D01*
X177481342Y-87547618D02*
X177481342Y-87852380D01*
X177062295Y-87128571D02*
X177062295Y-86633333D01*
X177062295Y-86633333D02*
X177367057Y-86899999D01*
X177367057Y-86899999D02*
X177367057Y-86785714D01*
X177367057Y-86785714D02*
X177405152Y-86709523D01*
X177405152Y-86709523D02*
X177443247Y-86671428D01*
X177443247Y-86671428D02*
X177519438Y-86633333D01*
X177519438Y-86633333D02*
X177709914Y-86633333D01*
X177709914Y-86633333D02*
X177786104Y-86671428D01*
X177786104Y-86671428D02*
X177824200Y-86709523D01*
X177824200Y-86709523D02*
X177862295Y-86785714D01*
X177862295Y-86785714D02*
X177862295Y-87014285D01*
X177862295Y-87014285D02*
X177824200Y-87090476D01*
X177824200Y-87090476D02*
X177786104Y-87128571D01*
X177062295Y-86138094D02*
X177062295Y-86061904D01*
X177062295Y-86061904D02*
X177100390Y-85985713D01*
X177100390Y-85985713D02*
X177138485Y-85947618D01*
X177138485Y-85947618D02*
X177214676Y-85909523D01*
X177214676Y-85909523D02*
X177367057Y-85871428D01*
X177367057Y-85871428D02*
X177557533Y-85871428D01*
X177557533Y-85871428D02*
X177709914Y-85909523D01*
X177709914Y-85909523D02*
X177786104Y-85947618D01*
X177786104Y-85947618D02*
X177824200Y-85985713D01*
X177824200Y-85985713D02*
X177862295Y-86061904D01*
X177862295Y-86061904D02*
X177862295Y-86138094D01*
X177862295Y-86138094D02*
X177824200Y-86214285D01*
X177824200Y-86214285D02*
X177786104Y-86252380D01*
X177786104Y-86252380D02*
X177709914Y-86290475D01*
X177709914Y-86290475D02*
X177557533Y-86328571D01*
X177557533Y-86328571D02*
X177367057Y-86328571D01*
X177367057Y-86328571D02*
X177214676Y-86290475D01*
X177214676Y-86290475D02*
X177138485Y-86252380D01*
X177138485Y-86252380D02*
X177100390Y-86214285D01*
X177100390Y-86214285D02*
X177062295Y-86138094D01*
X177062295Y-85147618D02*
X177062295Y-85528570D01*
X177062295Y-85528570D02*
X177443247Y-85566666D01*
X177443247Y-85566666D02*
X177405152Y-85528570D01*
X177405152Y-85528570D02*
X177367057Y-85452380D01*
X177367057Y-85452380D02*
X177367057Y-85261904D01*
X177367057Y-85261904D02*
X177405152Y-85185713D01*
X177405152Y-85185713D02*
X177443247Y-85147618D01*
X177443247Y-85147618D02*
X177519438Y-85109523D01*
X177519438Y-85109523D02*
X177709914Y-85109523D01*
X177709914Y-85109523D02*
X177786104Y-85147618D01*
X177786104Y-85147618D02*
X177824200Y-85185713D01*
X177824200Y-85185713D02*
X177862295Y-85261904D01*
X177862295Y-85261904D02*
X177862295Y-85452380D01*
X177862295Y-85452380D02*
X177824200Y-85528570D01*
X177824200Y-85528570D02*
X177786104Y-85566666D01*
X175112295Y-97252380D02*
X174312295Y-97252380D01*
X174312295Y-97252380D02*
X174312295Y-97061904D01*
X174312295Y-97061904D02*
X174350390Y-96947618D01*
X174350390Y-96947618D02*
X174426580Y-96871428D01*
X174426580Y-96871428D02*
X174502771Y-96833333D01*
X174502771Y-96833333D02*
X174655152Y-96795237D01*
X174655152Y-96795237D02*
X174769438Y-96795237D01*
X174769438Y-96795237D02*
X174921819Y-96833333D01*
X174921819Y-96833333D02*
X174998009Y-96871428D01*
X174998009Y-96871428D02*
X175074200Y-96947618D01*
X175074200Y-96947618D02*
X175112295Y-97061904D01*
X175112295Y-97061904D02*
X175112295Y-97252380D01*
X174388485Y-96490476D02*
X174350390Y-96452380D01*
X174350390Y-96452380D02*
X174312295Y-96376190D01*
X174312295Y-96376190D02*
X174312295Y-96185714D01*
X174312295Y-96185714D02*
X174350390Y-96109523D01*
X174350390Y-96109523D02*
X174388485Y-96071428D01*
X174388485Y-96071428D02*
X174464676Y-96033333D01*
X174464676Y-96033333D02*
X174540866Y-96033333D01*
X174540866Y-96033333D02*
X174655152Y-96071428D01*
X174655152Y-96071428D02*
X175112295Y-96528571D01*
X175112295Y-96528571D02*
X175112295Y-96033333D01*
X174312295Y-95538094D02*
X174312295Y-95461904D01*
X174312295Y-95461904D02*
X174350390Y-95385713D01*
X174350390Y-95385713D02*
X174388485Y-95347618D01*
X174388485Y-95347618D02*
X174464676Y-95309523D01*
X174464676Y-95309523D02*
X174617057Y-95271428D01*
X174617057Y-95271428D02*
X174807533Y-95271428D01*
X174807533Y-95271428D02*
X174959914Y-95309523D01*
X174959914Y-95309523D02*
X175036104Y-95347618D01*
X175036104Y-95347618D02*
X175074200Y-95385713D01*
X175074200Y-95385713D02*
X175112295Y-95461904D01*
X175112295Y-95461904D02*
X175112295Y-95538094D01*
X175112295Y-95538094D02*
X175074200Y-95614285D01*
X175074200Y-95614285D02*
X175036104Y-95652380D01*
X175036104Y-95652380D02*
X174959914Y-95690475D01*
X174959914Y-95690475D02*
X174807533Y-95728571D01*
X174807533Y-95728571D02*
X174617057Y-95728571D01*
X174617057Y-95728571D02*
X174464676Y-95690475D01*
X174464676Y-95690475D02*
X174388485Y-95652380D01*
X174388485Y-95652380D02*
X174350390Y-95614285D01*
X174350390Y-95614285D02*
X174312295Y-95538094D01*
X175112295Y-94509523D02*
X175112295Y-94966666D01*
X175112295Y-94738094D02*
X174312295Y-94738094D01*
X174312295Y-94738094D02*
X174426580Y-94814285D01*
X174426580Y-94814285D02*
X174502771Y-94890475D01*
X174502771Y-94890475D02*
X174540866Y-94966666D01*
X165104762Y-110036104D02*
X165066666Y-110074200D01*
X165066666Y-110074200D02*
X164952381Y-110112295D01*
X164952381Y-110112295D02*
X164876190Y-110112295D01*
X164876190Y-110112295D02*
X164761904Y-110074200D01*
X164761904Y-110074200D02*
X164685714Y-109998009D01*
X164685714Y-109998009D02*
X164647619Y-109921819D01*
X164647619Y-109921819D02*
X164609523Y-109769438D01*
X164609523Y-109769438D02*
X164609523Y-109655152D01*
X164609523Y-109655152D02*
X164647619Y-109502771D01*
X164647619Y-109502771D02*
X164685714Y-109426580D01*
X164685714Y-109426580D02*
X164761904Y-109350390D01*
X164761904Y-109350390D02*
X164876190Y-109312295D01*
X164876190Y-109312295D02*
X164952381Y-109312295D01*
X164952381Y-109312295D02*
X165066666Y-109350390D01*
X165066666Y-109350390D02*
X165104762Y-109388485D01*
X165371428Y-109312295D02*
X165866666Y-109312295D01*
X165866666Y-109312295D02*
X165600000Y-109617057D01*
X165600000Y-109617057D02*
X165714285Y-109617057D01*
X165714285Y-109617057D02*
X165790476Y-109655152D01*
X165790476Y-109655152D02*
X165828571Y-109693247D01*
X165828571Y-109693247D02*
X165866666Y-109769438D01*
X165866666Y-109769438D02*
X165866666Y-109959914D01*
X165866666Y-109959914D02*
X165828571Y-110036104D01*
X165828571Y-110036104D02*
X165790476Y-110074200D01*
X165790476Y-110074200D02*
X165714285Y-110112295D01*
X165714285Y-110112295D02*
X165485714Y-110112295D01*
X165485714Y-110112295D02*
X165409523Y-110074200D01*
X165409523Y-110074200D02*
X165371428Y-110036104D01*
X166361905Y-109312295D02*
X166438095Y-109312295D01*
X166438095Y-109312295D02*
X166514286Y-109350390D01*
X166514286Y-109350390D02*
X166552381Y-109388485D01*
X166552381Y-109388485D02*
X166590476Y-109464676D01*
X166590476Y-109464676D02*
X166628571Y-109617057D01*
X166628571Y-109617057D02*
X166628571Y-109807533D01*
X166628571Y-109807533D02*
X166590476Y-109959914D01*
X166590476Y-109959914D02*
X166552381Y-110036104D01*
X166552381Y-110036104D02*
X166514286Y-110074200D01*
X166514286Y-110074200D02*
X166438095Y-110112295D01*
X166438095Y-110112295D02*
X166361905Y-110112295D01*
X166361905Y-110112295D02*
X166285714Y-110074200D01*
X166285714Y-110074200D02*
X166247619Y-110036104D01*
X166247619Y-110036104D02*
X166209524Y-109959914D01*
X166209524Y-109959914D02*
X166171428Y-109807533D01*
X166171428Y-109807533D02*
X166171428Y-109617057D01*
X166171428Y-109617057D02*
X166209524Y-109464676D01*
X166209524Y-109464676D02*
X166247619Y-109388485D01*
X166247619Y-109388485D02*
X166285714Y-109350390D01*
X166285714Y-109350390D02*
X166361905Y-109312295D01*
X167009524Y-110112295D02*
X167161905Y-110112295D01*
X167161905Y-110112295D02*
X167238095Y-110074200D01*
X167238095Y-110074200D02*
X167276191Y-110036104D01*
X167276191Y-110036104D02*
X167352381Y-109921819D01*
X167352381Y-109921819D02*
X167390476Y-109769438D01*
X167390476Y-109769438D02*
X167390476Y-109464676D01*
X167390476Y-109464676D02*
X167352381Y-109388485D01*
X167352381Y-109388485D02*
X167314286Y-109350390D01*
X167314286Y-109350390D02*
X167238095Y-109312295D01*
X167238095Y-109312295D02*
X167085714Y-109312295D01*
X167085714Y-109312295D02*
X167009524Y-109350390D01*
X167009524Y-109350390D02*
X166971429Y-109388485D01*
X166971429Y-109388485D02*
X166933333Y-109464676D01*
X166933333Y-109464676D02*
X166933333Y-109655152D01*
X166933333Y-109655152D02*
X166971429Y-109731342D01*
X166971429Y-109731342D02*
X167009524Y-109769438D01*
X167009524Y-109769438D02*
X167085714Y-109807533D01*
X167085714Y-109807533D02*
X167238095Y-109807533D01*
X167238095Y-109807533D02*
X167314286Y-109769438D01*
X167314286Y-109769438D02*
X167352381Y-109731342D01*
X167352381Y-109731342D02*
X167390476Y-109655152D01*
X155359580Y-85169047D02*
X155407200Y-85216666D01*
X155407200Y-85216666D02*
X155454819Y-85359523D01*
X155454819Y-85359523D02*
X155454819Y-85454761D01*
X155454819Y-85454761D02*
X155407200Y-85597618D01*
X155407200Y-85597618D02*
X155311961Y-85692856D01*
X155311961Y-85692856D02*
X155216723Y-85740475D01*
X155216723Y-85740475D02*
X155026247Y-85788094D01*
X155026247Y-85788094D02*
X154883390Y-85788094D01*
X154883390Y-85788094D02*
X154692914Y-85740475D01*
X154692914Y-85740475D02*
X154597676Y-85692856D01*
X154597676Y-85692856D02*
X154502438Y-85597618D01*
X154502438Y-85597618D02*
X154454819Y-85454761D01*
X154454819Y-85454761D02*
X154454819Y-85359523D01*
X154454819Y-85359523D02*
X154502438Y-85216666D01*
X154502438Y-85216666D02*
X154550057Y-85169047D01*
X154454819Y-84835713D02*
X154454819Y-84216666D01*
X154454819Y-84216666D02*
X154835771Y-84549999D01*
X154835771Y-84549999D02*
X154835771Y-84407142D01*
X154835771Y-84407142D02*
X154883390Y-84311904D01*
X154883390Y-84311904D02*
X154931009Y-84264285D01*
X154931009Y-84264285D02*
X155026247Y-84216666D01*
X155026247Y-84216666D02*
X155264342Y-84216666D01*
X155264342Y-84216666D02*
X155359580Y-84264285D01*
X155359580Y-84264285D02*
X155407200Y-84311904D01*
X155407200Y-84311904D02*
X155454819Y-84407142D01*
X155454819Y-84407142D02*
X155454819Y-84692856D01*
X155454819Y-84692856D02*
X155407200Y-84788094D01*
X155407200Y-84788094D02*
X155359580Y-84835713D01*
X154454819Y-83597618D02*
X154454819Y-83502380D01*
X154454819Y-83502380D02*
X154502438Y-83407142D01*
X154502438Y-83407142D02*
X154550057Y-83359523D01*
X154550057Y-83359523D02*
X154645295Y-83311904D01*
X154645295Y-83311904D02*
X154835771Y-83264285D01*
X154835771Y-83264285D02*
X155073866Y-83264285D01*
X155073866Y-83264285D02*
X155264342Y-83311904D01*
X155264342Y-83311904D02*
X155359580Y-83359523D01*
X155359580Y-83359523D02*
X155407200Y-83407142D01*
X155407200Y-83407142D02*
X155454819Y-83502380D01*
X155454819Y-83502380D02*
X155454819Y-83597618D01*
X155454819Y-83597618D02*
X155407200Y-83692856D01*
X155407200Y-83692856D02*
X155359580Y-83740475D01*
X155359580Y-83740475D02*
X155264342Y-83788094D01*
X155264342Y-83788094D02*
X155073866Y-83835713D01*
X155073866Y-83835713D02*
X154835771Y-83835713D01*
X154835771Y-83835713D02*
X154645295Y-83788094D01*
X154645295Y-83788094D02*
X154550057Y-83740475D01*
X154550057Y-83740475D02*
X154502438Y-83692856D01*
X154502438Y-83692856D02*
X154454819Y-83597618D01*
X154550057Y-82883332D02*
X154502438Y-82835713D01*
X154502438Y-82835713D02*
X154454819Y-82740475D01*
X154454819Y-82740475D02*
X154454819Y-82502380D01*
X154454819Y-82502380D02*
X154502438Y-82407142D01*
X154502438Y-82407142D02*
X154550057Y-82359523D01*
X154550057Y-82359523D02*
X154645295Y-82311904D01*
X154645295Y-82311904D02*
X154740533Y-82311904D01*
X154740533Y-82311904D02*
X154883390Y-82359523D01*
X154883390Y-82359523D02*
X155454819Y-82930951D01*
X155454819Y-82930951D02*
X155454819Y-82311904D01*
X154754762Y-99436104D02*
X154716666Y-99474200D01*
X154716666Y-99474200D02*
X154602381Y-99512295D01*
X154602381Y-99512295D02*
X154526190Y-99512295D01*
X154526190Y-99512295D02*
X154411904Y-99474200D01*
X154411904Y-99474200D02*
X154335714Y-99398009D01*
X154335714Y-99398009D02*
X154297619Y-99321819D01*
X154297619Y-99321819D02*
X154259523Y-99169438D01*
X154259523Y-99169438D02*
X154259523Y-99055152D01*
X154259523Y-99055152D02*
X154297619Y-98902771D01*
X154297619Y-98902771D02*
X154335714Y-98826580D01*
X154335714Y-98826580D02*
X154411904Y-98750390D01*
X154411904Y-98750390D02*
X154526190Y-98712295D01*
X154526190Y-98712295D02*
X154602381Y-98712295D01*
X154602381Y-98712295D02*
X154716666Y-98750390D01*
X154716666Y-98750390D02*
X154754762Y-98788485D01*
X155021428Y-98712295D02*
X155554762Y-98712295D01*
X155554762Y-98712295D02*
X155211904Y-99512295D01*
X156011905Y-98712295D02*
X156088095Y-98712295D01*
X156088095Y-98712295D02*
X156164286Y-98750390D01*
X156164286Y-98750390D02*
X156202381Y-98788485D01*
X156202381Y-98788485D02*
X156240476Y-98864676D01*
X156240476Y-98864676D02*
X156278571Y-99017057D01*
X156278571Y-99017057D02*
X156278571Y-99207533D01*
X156278571Y-99207533D02*
X156240476Y-99359914D01*
X156240476Y-99359914D02*
X156202381Y-99436104D01*
X156202381Y-99436104D02*
X156164286Y-99474200D01*
X156164286Y-99474200D02*
X156088095Y-99512295D01*
X156088095Y-99512295D02*
X156011905Y-99512295D01*
X156011905Y-99512295D02*
X155935714Y-99474200D01*
X155935714Y-99474200D02*
X155897619Y-99436104D01*
X155897619Y-99436104D02*
X155859524Y-99359914D01*
X155859524Y-99359914D02*
X155821428Y-99207533D01*
X155821428Y-99207533D02*
X155821428Y-99017057D01*
X155821428Y-99017057D02*
X155859524Y-98864676D01*
X155859524Y-98864676D02*
X155897619Y-98788485D01*
X155897619Y-98788485D02*
X155935714Y-98750390D01*
X155935714Y-98750390D02*
X156011905Y-98712295D01*
X157040476Y-99512295D02*
X156583333Y-99512295D01*
X156811905Y-99512295D02*
X156811905Y-98712295D01*
X156811905Y-98712295D02*
X156735714Y-98826580D01*
X156735714Y-98826580D02*
X156659524Y-98902771D01*
X156659524Y-98902771D02*
X156583333Y-98940866D01*
X141423203Y-66108521D02*
X140918127Y-66613597D01*
X140918127Y-66613597D02*
X140783440Y-66680941D01*
X140783440Y-66680941D02*
X140648753Y-66680941D01*
X140648753Y-66680941D02*
X140514066Y-66613597D01*
X140514066Y-66613597D02*
X140446722Y-66546254D01*
X142096638Y-66781956D02*
X141759921Y-66445239D01*
X141759921Y-66445239D02*
X141389532Y-66748284D01*
X141389532Y-66748284D02*
X141456875Y-66748284D01*
X141456875Y-66748284D02*
X141557890Y-66781956D01*
X141557890Y-66781956D02*
X141726249Y-66950315D01*
X141726249Y-66950315D02*
X141759921Y-67051330D01*
X141759921Y-67051330D02*
X141759921Y-67118674D01*
X141759921Y-67118674D02*
X141726249Y-67219689D01*
X141726249Y-67219689D02*
X141557890Y-67388048D01*
X141557890Y-67388048D02*
X141456875Y-67421719D01*
X141456875Y-67421719D02*
X141389532Y-67421719D01*
X141389532Y-67421719D02*
X141288516Y-67388048D01*
X141288516Y-67388048D02*
X141120158Y-67219689D01*
X141120158Y-67219689D02*
X141086486Y-67118674D01*
X141086486Y-67118674D02*
X141086486Y-67051330D01*
X142568043Y-67253361D02*
X142635386Y-67320704D01*
X142635386Y-67320704D02*
X142669058Y-67421719D01*
X142669058Y-67421719D02*
X142669058Y-67489063D01*
X142669058Y-67489063D02*
X142635386Y-67590078D01*
X142635386Y-67590078D02*
X142534371Y-67758437D01*
X142534371Y-67758437D02*
X142366012Y-67926796D01*
X142366012Y-67926796D02*
X142197654Y-68027811D01*
X142197654Y-68027811D02*
X142096638Y-68061483D01*
X142096638Y-68061483D02*
X142029295Y-68061483D01*
X142029295Y-68061483D02*
X141928280Y-68027811D01*
X141928280Y-68027811D02*
X141860936Y-67960467D01*
X141860936Y-67960467D02*
X141827264Y-67859452D01*
X141827264Y-67859452D02*
X141827264Y-67792109D01*
X141827264Y-67792109D02*
X141860936Y-67691093D01*
X141860936Y-67691093D02*
X141961951Y-67522735D01*
X141961951Y-67522735D02*
X142130310Y-67354376D01*
X142130310Y-67354376D02*
X142298669Y-67253361D01*
X142298669Y-67253361D02*
X142399684Y-67219689D01*
X142399684Y-67219689D02*
X142467028Y-67219689D01*
X142467028Y-67219689D02*
X142568043Y-67253361D01*
X143005776Y-67825780D02*
X143073119Y-67825780D01*
X143073119Y-67825780D02*
X143174135Y-67859452D01*
X143174135Y-67859452D02*
X143342493Y-68027811D01*
X143342493Y-68027811D02*
X143376165Y-68128826D01*
X143376165Y-68128826D02*
X143376165Y-68196170D01*
X143376165Y-68196170D02*
X143342493Y-68297185D01*
X143342493Y-68297185D02*
X143275150Y-68364529D01*
X143275150Y-68364529D02*
X143140463Y-68431872D01*
X143140463Y-68431872D02*
X142332341Y-68431872D01*
X142332341Y-68431872D02*
X142770074Y-68869605D01*
X133310714Y-67879819D02*
X133310714Y-66879819D01*
X133310714Y-67356009D02*
X133882142Y-67356009D01*
X133882142Y-67879819D02*
X133882142Y-66879819D01*
X134882142Y-67879819D02*
X134310714Y-67879819D01*
X134596428Y-67879819D02*
X134596428Y-66879819D01*
X134596428Y-66879819D02*
X134501190Y-67022676D01*
X134501190Y-67022676D02*
X134405952Y-67117914D01*
X134405952Y-67117914D02*
X134310714Y-67165533D01*
X135501190Y-66879819D02*
X135596428Y-66879819D01*
X135596428Y-66879819D02*
X135691666Y-66927438D01*
X135691666Y-66927438D02*
X135739285Y-66975057D01*
X135739285Y-66975057D02*
X135786904Y-67070295D01*
X135786904Y-67070295D02*
X135834523Y-67260771D01*
X135834523Y-67260771D02*
X135834523Y-67498866D01*
X135834523Y-67498866D02*
X135786904Y-67689342D01*
X135786904Y-67689342D02*
X135739285Y-67784580D01*
X135739285Y-67784580D02*
X135691666Y-67832200D01*
X135691666Y-67832200D02*
X135596428Y-67879819D01*
X135596428Y-67879819D02*
X135501190Y-67879819D01*
X135501190Y-67879819D02*
X135405952Y-67832200D01*
X135405952Y-67832200D02*
X135358333Y-67784580D01*
X135358333Y-67784580D02*
X135310714Y-67689342D01*
X135310714Y-67689342D02*
X135263095Y-67498866D01*
X135263095Y-67498866D02*
X135263095Y-67260771D01*
X135263095Y-67260771D02*
X135310714Y-67070295D01*
X135310714Y-67070295D02*
X135358333Y-66975057D01*
X135358333Y-66975057D02*
X135405952Y-66927438D01*
X135405952Y-66927438D02*
X135501190Y-66879819D01*
X136786904Y-67879819D02*
X136215476Y-67879819D01*
X136501190Y-67879819D02*
X136501190Y-66879819D01*
X136501190Y-66879819D02*
X136405952Y-67022676D01*
X136405952Y-67022676D02*
X136310714Y-67117914D01*
X136310714Y-67117914D02*
X136215476Y-67165533D01*
X139880319Y-112062891D02*
X139307900Y-111961876D01*
X139476258Y-112466952D02*
X138769151Y-111759845D01*
X138769151Y-111759845D02*
X139038525Y-111490471D01*
X139038525Y-111490471D02*
X139139541Y-111456799D01*
X139139541Y-111456799D02*
X139206884Y-111456799D01*
X139206884Y-111456799D02*
X139307900Y-111490471D01*
X139307900Y-111490471D02*
X139408915Y-111591486D01*
X139408915Y-111591486D02*
X139442587Y-111692502D01*
X139442587Y-111692502D02*
X139442587Y-111759845D01*
X139442587Y-111759845D02*
X139408915Y-111860860D01*
X139408915Y-111860860D02*
X139139541Y-112130234D01*
X139408915Y-111120082D02*
X139846648Y-110682349D01*
X139846648Y-110682349D02*
X139880319Y-111187425D01*
X139880319Y-111187425D02*
X139981335Y-111086410D01*
X139981335Y-111086410D02*
X140082350Y-111052738D01*
X140082350Y-111052738D02*
X140149693Y-111052738D01*
X140149693Y-111052738D02*
X140250709Y-111086410D01*
X140250709Y-111086410D02*
X140419067Y-111254769D01*
X140419067Y-111254769D02*
X140452739Y-111355784D01*
X140452739Y-111355784D02*
X140452739Y-111423128D01*
X140452739Y-111423128D02*
X140419067Y-111524143D01*
X140419067Y-111524143D02*
X140217037Y-111726173D01*
X140217037Y-111726173D02*
X140116022Y-111759845D01*
X140116022Y-111759845D02*
X140048678Y-111759845D01*
X140284380Y-110244616D02*
X140351724Y-110177273D01*
X140351724Y-110177273D02*
X140452739Y-110143601D01*
X140452739Y-110143601D02*
X140520083Y-110143601D01*
X140520083Y-110143601D02*
X140621098Y-110177273D01*
X140621098Y-110177273D02*
X140789457Y-110278288D01*
X140789457Y-110278288D02*
X140957815Y-110446647D01*
X140957815Y-110446647D02*
X141058831Y-110615006D01*
X141058831Y-110615006D02*
X141092502Y-110716021D01*
X141092502Y-110716021D02*
X141092502Y-110783364D01*
X141092502Y-110783364D02*
X141058831Y-110884380D01*
X141058831Y-110884380D02*
X140991487Y-110951723D01*
X140991487Y-110951723D02*
X140890472Y-110985395D01*
X140890472Y-110985395D02*
X140823128Y-110985395D01*
X140823128Y-110985395D02*
X140722113Y-110951723D01*
X140722113Y-110951723D02*
X140553754Y-110850708D01*
X140553754Y-110850708D02*
X140385396Y-110682349D01*
X140385396Y-110682349D02*
X140284380Y-110513990D01*
X140284380Y-110513990D02*
X140250709Y-110412975D01*
X140250709Y-110412975D02*
X140250709Y-110345632D01*
X140250709Y-110345632D02*
X140284380Y-110244616D01*
X140755785Y-109773212D02*
X141193518Y-109335479D01*
X141193518Y-109335479D02*
X141227189Y-109840555D01*
X141227189Y-109840555D02*
X141328205Y-109739540D01*
X141328205Y-109739540D02*
X141429220Y-109705868D01*
X141429220Y-109705868D02*
X141496563Y-109705868D01*
X141496563Y-109705868D02*
X141597579Y-109739540D01*
X141597579Y-109739540D02*
X141765937Y-109907899D01*
X141765937Y-109907899D02*
X141799609Y-110008914D01*
X141799609Y-110008914D02*
X141799609Y-110076258D01*
X141799609Y-110076258D02*
X141765937Y-110177273D01*
X141765937Y-110177273D02*
X141563907Y-110379303D01*
X141563907Y-110379303D02*
X141462892Y-110412975D01*
X141462892Y-110412975D02*
X141395548Y-110412975D01*
X158104762Y-88362295D02*
X157838095Y-87981342D01*
X157647619Y-88362295D02*
X157647619Y-87562295D01*
X157647619Y-87562295D02*
X157952381Y-87562295D01*
X157952381Y-87562295D02*
X158028571Y-87600390D01*
X158028571Y-87600390D02*
X158066666Y-87638485D01*
X158066666Y-87638485D02*
X158104762Y-87714676D01*
X158104762Y-87714676D02*
X158104762Y-87828961D01*
X158104762Y-87828961D02*
X158066666Y-87905152D01*
X158066666Y-87905152D02*
X158028571Y-87943247D01*
X158028571Y-87943247D02*
X157952381Y-87981342D01*
X157952381Y-87981342D02*
X157647619Y-87981342D01*
X158371428Y-87562295D02*
X158866666Y-87562295D01*
X158866666Y-87562295D02*
X158600000Y-87867057D01*
X158600000Y-87867057D02*
X158714285Y-87867057D01*
X158714285Y-87867057D02*
X158790476Y-87905152D01*
X158790476Y-87905152D02*
X158828571Y-87943247D01*
X158828571Y-87943247D02*
X158866666Y-88019438D01*
X158866666Y-88019438D02*
X158866666Y-88209914D01*
X158866666Y-88209914D02*
X158828571Y-88286104D01*
X158828571Y-88286104D02*
X158790476Y-88324200D01*
X158790476Y-88324200D02*
X158714285Y-88362295D01*
X158714285Y-88362295D02*
X158485714Y-88362295D01*
X158485714Y-88362295D02*
X158409523Y-88324200D01*
X158409523Y-88324200D02*
X158371428Y-88286104D01*
X159361905Y-87562295D02*
X159438095Y-87562295D01*
X159438095Y-87562295D02*
X159514286Y-87600390D01*
X159514286Y-87600390D02*
X159552381Y-87638485D01*
X159552381Y-87638485D02*
X159590476Y-87714676D01*
X159590476Y-87714676D02*
X159628571Y-87867057D01*
X159628571Y-87867057D02*
X159628571Y-88057533D01*
X159628571Y-88057533D02*
X159590476Y-88209914D01*
X159590476Y-88209914D02*
X159552381Y-88286104D01*
X159552381Y-88286104D02*
X159514286Y-88324200D01*
X159514286Y-88324200D02*
X159438095Y-88362295D01*
X159438095Y-88362295D02*
X159361905Y-88362295D01*
X159361905Y-88362295D02*
X159285714Y-88324200D01*
X159285714Y-88324200D02*
X159247619Y-88286104D01*
X159247619Y-88286104D02*
X159209524Y-88209914D01*
X159209524Y-88209914D02*
X159171428Y-88057533D01*
X159171428Y-88057533D02*
X159171428Y-87867057D01*
X159171428Y-87867057D02*
X159209524Y-87714676D01*
X159209524Y-87714676D02*
X159247619Y-87638485D01*
X159247619Y-87638485D02*
X159285714Y-87600390D01*
X159285714Y-87600390D02*
X159361905Y-87562295D01*
X159933333Y-87638485D02*
X159971429Y-87600390D01*
X159971429Y-87600390D02*
X160047619Y-87562295D01*
X160047619Y-87562295D02*
X160238095Y-87562295D01*
X160238095Y-87562295D02*
X160314286Y-87600390D01*
X160314286Y-87600390D02*
X160352381Y-87638485D01*
X160352381Y-87638485D02*
X160390476Y-87714676D01*
X160390476Y-87714676D02*
X160390476Y-87790866D01*
X160390476Y-87790866D02*
X160352381Y-87905152D01*
X160352381Y-87905152D02*
X159895238Y-88362295D01*
X159895238Y-88362295D02*
X160390476Y-88362295D01*
X188285714Y-116304819D02*
X188285714Y-115304819D01*
X188285714Y-115781009D02*
X188857142Y-115781009D01*
X188857142Y-116304819D02*
X188857142Y-115304819D01*
X189857142Y-116304819D02*
X189285714Y-116304819D01*
X189571428Y-116304819D02*
X189571428Y-115304819D01*
X189571428Y-115304819D02*
X189476190Y-115447676D01*
X189476190Y-115447676D02*
X189380952Y-115542914D01*
X189380952Y-115542914D02*
X189285714Y-115590533D01*
X190476190Y-115304819D02*
X190571428Y-115304819D01*
X190571428Y-115304819D02*
X190666666Y-115352438D01*
X190666666Y-115352438D02*
X190714285Y-115400057D01*
X190714285Y-115400057D02*
X190761904Y-115495295D01*
X190761904Y-115495295D02*
X190809523Y-115685771D01*
X190809523Y-115685771D02*
X190809523Y-115923866D01*
X190809523Y-115923866D02*
X190761904Y-116114342D01*
X190761904Y-116114342D02*
X190714285Y-116209580D01*
X190714285Y-116209580D02*
X190666666Y-116257200D01*
X190666666Y-116257200D02*
X190571428Y-116304819D01*
X190571428Y-116304819D02*
X190476190Y-116304819D01*
X190476190Y-116304819D02*
X190380952Y-116257200D01*
X190380952Y-116257200D02*
X190333333Y-116209580D01*
X190333333Y-116209580D02*
X190285714Y-116114342D01*
X190285714Y-116114342D02*
X190238095Y-115923866D01*
X190238095Y-115923866D02*
X190238095Y-115685771D01*
X190238095Y-115685771D02*
X190285714Y-115495295D01*
X190285714Y-115495295D02*
X190333333Y-115400057D01*
X190333333Y-115400057D02*
X190380952Y-115352438D01*
X190380952Y-115352438D02*
X190476190Y-115304819D01*
X191142857Y-115304819D02*
X191761904Y-115304819D01*
X191761904Y-115304819D02*
X191428571Y-115685771D01*
X191428571Y-115685771D02*
X191571428Y-115685771D01*
X191571428Y-115685771D02*
X191666666Y-115733390D01*
X191666666Y-115733390D02*
X191714285Y-115781009D01*
X191714285Y-115781009D02*
X191761904Y-115876247D01*
X191761904Y-115876247D02*
X191761904Y-116114342D01*
X191761904Y-116114342D02*
X191714285Y-116209580D01*
X191714285Y-116209580D02*
X191666666Y-116257200D01*
X191666666Y-116257200D02*
X191571428Y-116304819D01*
X191571428Y-116304819D02*
X191285714Y-116304819D01*
X191285714Y-116304819D02*
X191190476Y-116257200D01*
X191190476Y-116257200D02*
X191142857Y-116209580D01*
X162530952Y-75059580D02*
X162483333Y-75107200D01*
X162483333Y-75107200D02*
X162340476Y-75154819D01*
X162340476Y-75154819D02*
X162245238Y-75154819D01*
X162245238Y-75154819D02*
X162102381Y-75107200D01*
X162102381Y-75107200D02*
X162007143Y-75011961D01*
X162007143Y-75011961D02*
X161959524Y-74916723D01*
X161959524Y-74916723D02*
X161911905Y-74726247D01*
X161911905Y-74726247D02*
X161911905Y-74583390D01*
X161911905Y-74583390D02*
X161959524Y-74392914D01*
X161959524Y-74392914D02*
X162007143Y-74297676D01*
X162007143Y-74297676D02*
X162102381Y-74202438D01*
X162102381Y-74202438D02*
X162245238Y-74154819D01*
X162245238Y-74154819D02*
X162340476Y-74154819D01*
X162340476Y-74154819D02*
X162483333Y-74202438D01*
X162483333Y-74202438D02*
X162530952Y-74250057D01*
X163102381Y-74583390D02*
X163007143Y-74535771D01*
X163007143Y-74535771D02*
X162959524Y-74488152D01*
X162959524Y-74488152D02*
X162911905Y-74392914D01*
X162911905Y-74392914D02*
X162911905Y-74345295D01*
X162911905Y-74345295D02*
X162959524Y-74250057D01*
X162959524Y-74250057D02*
X163007143Y-74202438D01*
X163007143Y-74202438D02*
X163102381Y-74154819D01*
X163102381Y-74154819D02*
X163292857Y-74154819D01*
X163292857Y-74154819D02*
X163388095Y-74202438D01*
X163388095Y-74202438D02*
X163435714Y-74250057D01*
X163435714Y-74250057D02*
X163483333Y-74345295D01*
X163483333Y-74345295D02*
X163483333Y-74392914D01*
X163483333Y-74392914D02*
X163435714Y-74488152D01*
X163435714Y-74488152D02*
X163388095Y-74535771D01*
X163388095Y-74535771D02*
X163292857Y-74583390D01*
X163292857Y-74583390D02*
X163102381Y-74583390D01*
X163102381Y-74583390D02*
X163007143Y-74631009D01*
X163007143Y-74631009D02*
X162959524Y-74678628D01*
X162959524Y-74678628D02*
X162911905Y-74773866D01*
X162911905Y-74773866D02*
X162911905Y-74964342D01*
X162911905Y-74964342D02*
X162959524Y-75059580D01*
X162959524Y-75059580D02*
X163007143Y-75107200D01*
X163007143Y-75107200D02*
X163102381Y-75154819D01*
X163102381Y-75154819D02*
X163292857Y-75154819D01*
X163292857Y-75154819D02*
X163388095Y-75107200D01*
X163388095Y-75107200D02*
X163435714Y-75059580D01*
X163435714Y-75059580D02*
X163483333Y-74964342D01*
X163483333Y-74964342D02*
X163483333Y-74773866D01*
X163483333Y-74773866D02*
X163435714Y-74678628D01*
X163435714Y-74678628D02*
X163388095Y-74631009D01*
X163388095Y-74631009D02*
X163292857Y-74583390D01*
X164102381Y-74154819D02*
X164197619Y-74154819D01*
X164197619Y-74154819D02*
X164292857Y-74202438D01*
X164292857Y-74202438D02*
X164340476Y-74250057D01*
X164340476Y-74250057D02*
X164388095Y-74345295D01*
X164388095Y-74345295D02*
X164435714Y-74535771D01*
X164435714Y-74535771D02*
X164435714Y-74773866D01*
X164435714Y-74773866D02*
X164388095Y-74964342D01*
X164388095Y-74964342D02*
X164340476Y-75059580D01*
X164340476Y-75059580D02*
X164292857Y-75107200D01*
X164292857Y-75107200D02*
X164197619Y-75154819D01*
X164197619Y-75154819D02*
X164102381Y-75154819D01*
X164102381Y-75154819D02*
X164007143Y-75107200D01*
X164007143Y-75107200D02*
X163959524Y-75059580D01*
X163959524Y-75059580D02*
X163911905Y-74964342D01*
X163911905Y-74964342D02*
X163864286Y-74773866D01*
X163864286Y-74773866D02*
X163864286Y-74535771D01*
X163864286Y-74535771D02*
X163911905Y-74345295D01*
X163911905Y-74345295D02*
X163959524Y-74250057D01*
X163959524Y-74250057D02*
X164007143Y-74202438D01*
X164007143Y-74202438D02*
X164102381Y-74154819D01*
X165388095Y-75154819D02*
X164816667Y-75154819D01*
X165102381Y-75154819D02*
X165102381Y-74154819D01*
X165102381Y-74154819D02*
X165007143Y-74297676D01*
X165007143Y-74297676D02*
X164911905Y-74392914D01*
X164911905Y-74392914D02*
X164816667Y-74440533D01*
X184610714Y-67329819D02*
X184610714Y-66329819D01*
X184610714Y-66806009D02*
X185182142Y-66806009D01*
X185182142Y-67329819D02*
X185182142Y-66329819D01*
X186182142Y-67329819D02*
X185610714Y-67329819D01*
X185896428Y-67329819D02*
X185896428Y-66329819D01*
X185896428Y-66329819D02*
X185801190Y-66472676D01*
X185801190Y-66472676D02*
X185705952Y-66567914D01*
X185705952Y-66567914D02*
X185610714Y-66615533D01*
X186801190Y-66329819D02*
X186896428Y-66329819D01*
X186896428Y-66329819D02*
X186991666Y-66377438D01*
X186991666Y-66377438D02*
X187039285Y-66425057D01*
X187039285Y-66425057D02*
X187086904Y-66520295D01*
X187086904Y-66520295D02*
X187134523Y-66710771D01*
X187134523Y-66710771D02*
X187134523Y-66948866D01*
X187134523Y-66948866D02*
X187086904Y-67139342D01*
X187086904Y-67139342D02*
X187039285Y-67234580D01*
X187039285Y-67234580D02*
X186991666Y-67282200D01*
X186991666Y-67282200D02*
X186896428Y-67329819D01*
X186896428Y-67329819D02*
X186801190Y-67329819D01*
X186801190Y-67329819D02*
X186705952Y-67282200D01*
X186705952Y-67282200D02*
X186658333Y-67234580D01*
X186658333Y-67234580D02*
X186610714Y-67139342D01*
X186610714Y-67139342D02*
X186563095Y-66948866D01*
X186563095Y-66948866D02*
X186563095Y-66710771D01*
X186563095Y-66710771D02*
X186610714Y-66520295D01*
X186610714Y-66520295D02*
X186658333Y-66425057D01*
X186658333Y-66425057D02*
X186705952Y-66377438D01*
X186705952Y-66377438D02*
X186801190Y-66329819D01*
X187515476Y-66425057D02*
X187563095Y-66377438D01*
X187563095Y-66377438D02*
X187658333Y-66329819D01*
X187658333Y-66329819D02*
X187896428Y-66329819D01*
X187896428Y-66329819D02*
X187991666Y-66377438D01*
X187991666Y-66377438D02*
X188039285Y-66425057D01*
X188039285Y-66425057D02*
X188086904Y-66520295D01*
X188086904Y-66520295D02*
X188086904Y-66615533D01*
X188086904Y-66615533D02*
X188039285Y-66758390D01*
X188039285Y-66758390D02*
X187467857Y-67329819D01*
X187467857Y-67329819D02*
X188086904Y-67329819D01*
X136810789Y-121623152D02*
X136891601Y-121165216D01*
X136487540Y-121299903D02*
X137053226Y-120734218D01*
X137053226Y-120734218D02*
X137268725Y-120949717D01*
X137268725Y-120949717D02*
X137295662Y-121030529D01*
X137295662Y-121030529D02*
X137295662Y-121084404D01*
X137295662Y-121084404D02*
X137268725Y-121165216D01*
X137268725Y-121165216D02*
X137187913Y-121246028D01*
X137187913Y-121246028D02*
X137107101Y-121272966D01*
X137107101Y-121272966D02*
X137053226Y-121272966D01*
X137053226Y-121272966D02*
X136972414Y-121246028D01*
X136972414Y-121246028D02*
X136756914Y-121030529D01*
X137888285Y-121569277D02*
X137618911Y-121299903D01*
X137618911Y-121299903D02*
X137322600Y-121542340D01*
X137322600Y-121542340D02*
X137376475Y-121542340D01*
X137376475Y-121542340D02*
X137457287Y-121569277D01*
X137457287Y-121569277D02*
X137591974Y-121703964D01*
X137591974Y-121703964D02*
X137618911Y-121784776D01*
X137618911Y-121784776D02*
X137618911Y-121838651D01*
X137618911Y-121838651D02*
X137591974Y-121919464D01*
X137591974Y-121919464D02*
X137457287Y-122054151D01*
X137457287Y-122054151D02*
X137376475Y-122081088D01*
X137376475Y-122081088D02*
X137322600Y-122081088D01*
X137322600Y-122081088D02*
X137241788Y-122054151D01*
X137241788Y-122054151D02*
X137107101Y-121919464D01*
X137107101Y-121919464D02*
X137080163Y-121838651D01*
X137080163Y-121838651D02*
X137080163Y-121784776D01*
X138265409Y-121946401D02*
X138319284Y-122000276D01*
X138319284Y-122000276D02*
X138346221Y-122081088D01*
X138346221Y-122081088D02*
X138346221Y-122134963D01*
X138346221Y-122134963D02*
X138319284Y-122215775D01*
X138319284Y-122215775D02*
X138238472Y-122350462D01*
X138238472Y-122350462D02*
X138103785Y-122485149D01*
X138103785Y-122485149D02*
X137969098Y-122565961D01*
X137969098Y-122565961D02*
X137888285Y-122592899D01*
X137888285Y-122592899D02*
X137834411Y-122592899D01*
X137834411Y-122592899D02*
X137753598Y-122565961D01*
X137753598Y-122565961D02*
X137699724Y-122512087D01*
X137699724Y-122512087D02*
X137672786Y-122431274D01*
X137672786Y-122431274D02*
X137672786Y-122377399D01*
X137672786Y-122377399D02*
X137699724Y-122296587D01*
X137699724Y-122296587D02*
X137780536Y-122161900D01*
X137780536Y-122161900D02*
X137915223Y-122027213D01*
X137915223Y-122027213D02*
X138049910Y-121946401D01*
X138049910Y-121946401D02*
X138130722Y-121919464D01*
X138130722Y-121919464D02*
X138184597Y-121919464D01*
X138184597Y-121919464D02*
X138265409Y-121946401D01*
X138965782Y-122646774D02*
X138696408Y-122377400D01*
X138696408Y-122377400D02*
X138400096Y-122619836D01*
X138400096Y-122619836D02*
X138453971Y-122619836D01*
X138453971Y-122619836D02*
X138534783Y-122646774D01*
X138534783Y-122646774D02*
X138669470Y-122781461D01*
X138669470Y-122781461D02*
X138696408Y-122862273D01*
X138696408Y-122862273D02*
X138696408Y-122916148D01*
X138696408Y-122916148D02*
X138669470Y-122996960D01*
X138669470Y-122996960D02*
X138534783Y-123131647D01*
X138534783Y-123131647D02*
X138453971Y-123158584D01*
X138453971Y-123158584D02*
X138400096Y-123158584D01*
X138400096Y-123158584D02*
X138319284Y-123131647D01*
X138319284Y-123131647D02*
X138184597Y-122996960D01*
X138184597Y-122996960D02*
X138157660Y-122916148D01*
X138157660Y-122916148D02*
X138157660Y-122862273D01*
X173139285Y-67879819D02*
X173139285Y-68594104D01*
X173139285Y-68594104D02*
X173091666Y-68736961D01*
X173091666Y-68736961D02*
X172996428Y-68832200D01*
X172996428Y-68832200D02*
X172853571Y-68879819D01*
X172853571Y-68879819D02*
X172758333Y-68879819D01*
X173567857Y-67975057D02*
X173615476Y-67927438D01*
X173615476Y-67927438D02*
X173710714Y-67879819D01*
X173710714Y-67879819D02*
X173948809Y-67879819D01*
X173948809Y-67879819D02*
X174044047Y-67927438D01*
X174044047Y-67927438D02*
X174091666Y-67975057D01*
X174091666Y-67975057D02*
X174139285Y-68070295D01*
X174139285Y-68070295D02*
X174139285Y-68165533D01*
X174139285Y-68165533D02*
X174091666Y-68308390D01*
X174091666Y-68308390D02*
X173520238Y-68879819D01*
X173520238Y-68879819D02*
X174139285Y-68879819D01*
X174758333Y-67879819D02*
X174853571Y-67879819D01*
X174853571Y-67879819D02*
X174948809Y-67927438D01*
X174948809Y-67927438D02*
X174996428Y-67975057D01*
X174996428Y-67975057D02*
X175044047Y-68070295D01*
X175044047Y-68070295D02*
X175091666Y-68260771D01*
X175091666Y-68260771D02*
X175091666Y-68498866D01*
X175091666Y-68498866D02*
X175044047Y-68689342D01*
X175044047Y-68689342D02*
X174996428Y-68784580D01*
X174996428Y-68784580D02*
X174948809Y-68832200D01*
X174948809Y-68832200D02*
X174853571Y-68879819D01*
X174853571Y-68879819D02*
X174758333Y-68879819D01*
X174758333Y-68879819D02*
X174663095Y-68832200D01*
X174663095Y-68832200D02*
X174615476Y-68784580D01*
X174615476Y-68784580D02*
X174567857Y-68689342D01*
X174567857Y-68689342D02*
X174520238Y-68498866D01*
X174520238Y-68498866D02*
X174520238Y-68260771D01*
X174520238Y-68260771D02*
X174567857Y-68070295D01*
X174567857Y-68070295D02*
X174615476Y-67975057D01*
X174615476Y-67975057D02*
X174663095Y-67927438D01*
X174663095Y-67927438D02*
X174758333Y-67879819D01*
X176044047Y-68879819D02*
X175472619Y-68879819D01*
X175758333Y-68879819D02*
X175758333Y-67879819D01*
X175758333Y-67879819D02*
X175663095Y-68022676D01*
X175663095Y-68022676D02*
X175567857Y-68117914D01*
X175567857Y-68117914D02*
X175472619Y-68165533D01*
X164644819Y-70680714D02*
X165359104Y-70680714D01*
X165359104Y-70680714D02*
X165501961Y-70728333D01*
X165501961Y-70728333D02*
X165597200Y-70823571D01*
X165597200Y-70823571D02*
X165644819Y-70966428D01*
X165644819Y-70966428D02*
X165644819Y-71061666D01*
X165073390Y-70061666D02*
X165025771Y-70156904D01*
X165025771Y-70156904D02*
X164978152Y-70204523D01*
X164978152Y-70204523D02*
X164882914Y-70252142D01*
X164882914Y-70252142D02*
X164835295Y-70252142D01*
X164835295Y-70252142D02*
X164740057Y-70204523D01*
X164740057Y-70204523D02*
X164692438Y-70156904D01*
X164692438Y-70156904D02*
X164644819Y-70061666D01*
X164644819Y-70061666D02*
X164644819Y-69871190D01*
X164644819Y-69871190D02*
X164692438Y-69775952D01*
X164692438Y-69775952D02*
X164740057Y-69728333D01*
X164740057Y-69728333D02*
X164835295Y-69680714D01*
X164835295Y-69680714D02*
X164882914Y-69680714D01*
X164882914Y-69680714D02*
X164978152Y-69728333D01*
X164978152Y-69728333D02*
X165025771Y-69775952D01*
X165025771Y-69775952D02*
X165073390Y-69871190D01*
X165073390Y-69871190D02*
X165073390Y-70061666D01*
X165073390Y-70061666D02*
X165121009Y-70156904D01*
X165121009Y-70156904D02*
X165168628Y-70204523D01*
X165168628Y-70204523D02*
X165263866Y-70252142D01*
X165263866Y-70252142D02*
X165454342Y-70252142D01*
X165454342Y-70252142D02*
X165549580Y-70204523D01*
X165549580Y-70204523D02*
X165597200Y-70156904D01*
X165597200Y-70156904D02*
X165644819Y-70061666D01*
X165644819Y-70061666D02*
X165644819Y-69871190D01*
X165644819Y-69871190D02*
X165597200Y-69775952D01*
X165597200Y-69775952D02*
X165549580Y-69728333D01*
X165549580Y-69728333D02*
X165454342Y-69680714D01*
X165454342Y-69680714D02*
X165263866Y-69680714D01*
X165263866Y-69680714D02*
X165168628Y-69728333D01*
X165168628Y-69728333D02*
X165121009Y-69775952D01*
X165121009Y-69775952D02*
X165073390Y-69871190D01*
X164644819Y-69061666D02*
X164644819Y-68966428D01*
X164644819Y-68966428D02*
X164692438Y-68871190D01*
X164692438Y-68871190D02*
X164740057Y-68823571D01*
X164740057Y-68823571D02*
X164835295Y-68775952D01*
X164835295Y-68775952D02*
X165025771Y-68728333D01*
X165025771Y-68728333D02*
X165263866Y-68728333D01*
X165263866Y-68728333D02*
X165454342Y-68775952D01*
X165454342Y-68775952D02*
X165549580Y-68823571D01*
X165549580Y-68823571D02*
X165597200Y-68871190D01*
X165597200Y-68871190D02*
X165644819Y-68966428D01*
X165644819Y-68966428D02*
X165644819Y-69061666D01*
X165644819Y-69061666D02*
X165597200Y-69156904D01*
X165597200Y-69156904D02*
X165549580Y-69204523D01*
X165549580Y-69204523D02*
X165454342Y-69252142D01*
X165454342Y-69252142D02*
X165263866Y-69299761D01*
X165263866Y-69299761D02*
X165025771Y-69299761D01*
X165025771Y-69299761D02*
X164835295Y-69252142D01*
X164835295Y-69252142D02*
X164740057Y-69204523D01*
X164740057Y-69204523D02*
X164692438Y-69156904D01*
X164692438Y-69156904D02*
X164644819Y-69061666D01*
X164740057Y-68347380D02*
X164692438Y-68299761D01*
X164692438Y-68299761D02*
X164644819Y-68204523D01*
X164644819Y-68204523D02*
X164644819Y-67966428D01*
X164644819Y-67966428D02*
X164692438Y-67871190D01*
X164692438Y-67871190D02*
X164740057Y-67823571D01*
X164740057Y-67823571D02*
X164835295Y-67775952D01*
X164835295Y-67775952D02*
X164930533Y-67775952D01*
X164930533Y-67775952D02*
X165073390Y-67823571D01*
X165073390Y-67823571D02*
X165644819Y-68394999D01*
X165644819Y-68394999D02*
X165644819Y-67775952D01*
X144330952Y-99809819D02*
X143854762Y-99809819D01*
X143854762Y-99809819D02*
X143854762Y-98809819D01*
X144569048Y-98809819D02*
X145188095Y-98809819D01*
X145188095Y-98809819D02*
X144854762Y-99190771D01*
X144854762Y-99190771D02*
X144997619Y-99190771D01*
X144997619Y-99190771D02*
X145092857Y-99238390D01*
X145092857Y-99238390D02*
X145140476Y-99286009D01*
X145140476Y-99286009D02*
X145188095Y-99381247D01*
X145188095Y-99381247D02*
X145188095Y-99619342D01*
X145188095Y-99619342D02*
X145140476Y-99714580D01*
X145140476Y-99714580D02*
X145092857Y-99762200D01*
X145092857Y-99762200D02*
X144997619Y-99809819D01*
X144997619Y-99809819D02*
X144711905Y-99809819D01*
X144711905Y-99809819D02*
X144616667Y-99762200D01*
X144616667Y-99762200D02*
X144569048Y-99714580D01*
X145807143Y-98809819D02*
X145902381Y-98809819D01*
X145902381Y-98809819D02*
X145997619Y-98857438D01*
X145997619Y-98857438D02*
X146045238Y-98905057D01*
X146045238Y-98905057D02*
X146092857Y-99000295D01*
X146092857Y-99000295D02*
X146140476Y-99190771D01*
X146140476Y-99190771D02*
X146140476Y-99428866D01*
X146140476Y-99428866D02*
X146092857Y-99619342D01*
X146092857Y-99619342D02*
X146045238Y-99714580D01*
X146045238Y-99714580D02*
X145997619Y-99762200D01*
X145997619Y-99762200D02*
X145902381Y-99809819D01*
X145902381Y-99809819D02*
X145807143Y-99809819D01*
X145807143Y-99809819D02*
X145711905Y-99762200D01*
X145711905Y-99762200D02*
X145664286Y-99714580D01*
X145664286Y-99714580D02*
X145616667Y-99619342D01*
X145616667Y-99619342D02*
X145569048Y-99428866D01*
X145569048Y-99428866D02*
X145569048Y-99190771D01*
X145569048Y-99190771D02*
X145616667Y-99000295D01*
X145616667Y-99000295D02*
X145664286Y-98905057D01*
X145664286Y-98905057D02*
X145711905Y-98857438D01*
X145711905Y-98857438D02*
X145807143Y-98809819D01*
X147092857Y-99809819D02*
X146521429Y-99809819D01*
X146807143Y-99809819D02*
X146807143Y-98809819D01*
X146807143Y-98809819D02*
X146711905Y-98952676D01*
X146711905Y-98952676D02*
X146616667Y-99047914D01*
X146616667Y-99047914D02*
X146521429Y-99095533D01*
X164430952Y-102549580D02*
X164383333Y-102597200D01*
X164383333Y-102597200D02*
X164240476Y-102644819D01*
X164240476Y-102644819D02*
X164145238Y-102644819D01*
X164145238Y-102644819D02*
X164002381Y-102597200D01*
X164002381Y-102597200D02*
X163907143Y-102501961D01*
X163907143Y-102501961D02*
X163859524Y-102406723D01*
X163859524Y-102406723D02*
X163811905Y-102216247D01*
X163811905Y-102216247D02*
X163811905Y-102073390D01*
X163811905Y-102073390D02*
X163859524Y-101882914D01*
X163859524Y-101882914D02*
X163907143Y-101787676D01*
X163907143Y-101787676D02*
X164002381Y-101692438D01*
X164002381Y-101692438D02*
X164145238Y-101644819D01*
X164145238Y-101644819D02*
X164240476Y-101644819D01*
X164240476Y-101644819D02*
X164383333Y-101692438D01*
X164383333Y-101692438D02*
X164430952Y-101740057D01*
X164764286Y-101644819D02*
X165383333Y-101644819D01*
X165383333Y-101644819D02*
X165050000Y-102025771D01*
X165050000Y-102025771D02*
X165192857Y-102025771D01*
X165192857Y-102025771D02*
X165288095Y-102073390D01*
X165288095Y-102073390D02*
X165335714Y-102121009D01*
X165335714Y-102121009D02*
X165383333Y-102216247D01*
X165383333Y-102216247D02*
X165383333Y-102454342D01*
X165383333Y-102454342D02*
X165335714Y-102549580D01*
X165335714Y-102549580D02*
X165288095Y-102597200D01*
X165288095Y-102597200D02*
X165192857Y-102644819D01*
X165192857Y-102644819D02*
X164907143Y-102644819D01*
X164907143Y-102644819D02*
X164811905Y-102597200D01*
X164811905Y-102597200D02*
X164764286Y-102549580D01*
X166002381Y-101644819D02*
X166097619Y-101644819D01*
X166097619Y-101644819D02*
X166192857Y-101692438D01*
X166192857Y-101692438D02*
X166240476Y-101740057D01*
X166240476Y-101740057D02*
X166288095Y-101835295D01*
X166288095Y-101835295D02*
X166335714Y-102025771D01*
X166335714Y-102025771D02*
X166335714Y-102263866D01*
X166335714Y-102263866D02*
X166288095Y-102454342D01*
X166288095Y-102454342D02*
X166240476Y-102549580D01*
X166240476Y-102549580D02*
X166192857Y-102597200D01*
X166192857Y-102597200D02*
X166097619Y-102644819D01*
X166097619Y-102644819D02*
X166002381Y-102644819D01*
X166002381Y-102644819D02*
X165907143Y-102597200D01*
X165907143Y-102597200D02*
X165859524Y-102549580D01*
X165859524Y-102549580D02*
X165811905Y-102454342D01*
X165811905Y-102454342D02*
X165764286Y-102263866D01*
X165764286Y-102263866D02*
X165764286Y-102025771D01*
X165764286Y-102025771D02*
X165811905Y-101835295D01*
X165811905Y-101835295D02*
X165859524Y-101740057D01*
X165859524Y-101740057D02*
X165907143Y-101692438D01*
X165907143Y-101692438D02*
X166002381Y-101644819D01*
X166669048Y-101644819D02*
X167335714Y-101644819D01*
X167335714Y-101644819D02*
X166907143Y-102644819D01*
X134110789Y-118973152D02*
X134191601Y-118515216D01*
X133787540Y-118649903D02*
X134353226Y-118084218D01*
X134353226Y-118084218D02*
X134568725Y-118299717D01*
X134568725Y-118299717D02*
X134595662Y-118380529D01*
X134595662Y-118380529D02*
X134595662Y-118434404D01*
X134595662Y-118434404D02*
X134568725Y-118515216D01*
X134568725Y-118515216D02*
X134487913Y-118596028D01*
X134487913Y-118596028D02*
X134407101Y-118622966D01*
X134407101Y-118622966D02*
X134353226Y-118622966D01*
X134353226Y-118622966D02*
X134272414Y-118596028D01*
X134272414Y-118596028D02*
X134056914Y-118380529D01*
X135188285Y-118919277D02*
X134918911Y-118649903D01*
X134918911Y-118649903D02*
X134622600Y-118892340D01*
X134622600Y-118892340D02*
X134676475Y-118892340D01*
X134676475Y-118892340D02*
X134757287Y-118919277D01*
X134757287Y-118919277D02*
X134891974Y-119053964D01*
X134891974Y-119053964D02*
X134918911Y-119134776D01*
X134918911Y-119134776D02*
X134918911Y-119188651D01*
X134918911Y-119188651D02*
X134891974Y-119269464D01*
X134891974Y-119269464D02*
X134757287Y-119404151D01*
X134757287Y-119404151D02*
X134676475Y-119431088D01*
X134676475Y-119431088D02*
X134622600Y-119431088D01*
X134622600Y-119431088D02*
X134541788Y-119404151D01*
X134541788Y-119404151D02*
X134407101Y-119269464D01*
X134407101Y-119269464D02*
X134380163Y-119188651D01*
X134380163Y-119188651D02*
X134380163Y-119134776D01*
X135565409Y-119296401D02*
X135619284Y-119350276D01*
X135619284Y-119350276D02*
X135646221Y-119431088D01*
X135646221Y-119431088D02*
X135646221Y-119484963D01*
X135646221Y-119484963D02*
X135619284Y-119565775D01*
X135619284Y-119565775D02*
X135538472Y-119700462D01*
X135538472Y-119700462D02*
X135403785Y-119835149D01*
X135403785Y-119835149D02*
X135269098Y-119915961D01*
X135269098Y-119915961D02*
X135188285Y-119942899D01*
X135188285Y-119942899D02*
X135134411Y-119942899D01*
X135134411Y-119942899D02*
X135053598Y-119915961D01*
X135053598Y-119915961D02*
X134999724Y-119862087D01*
X134999724Y-119862087D02*
X134972786Y-119781274D01*
X134972786Y-119781274D02*
X134972786Y-119727399D01*
X134972786Y-119727399D02*
X134999724Y-119646587D01*
X134999724Y-119646587D02*
X135080536Y-119511900D01*
X135080536Y-119511900D02*
X135215223Y-119377213D01*
X135215223Y-119377213D02*
X135349910Y-119296401D01*
X135349910Y-119296401D02*
X135430722Y-119269464D01*
X135430722Y-119269464D02*
X135484597Y-119269464D01*
X135484597Y-119269464D02*
X135565409Y-119296401D01*
X135942533Y-119673525D02*
X136292719Y-120023711D01*
X136292719Y-120023711D02*
X135888658Y-120050648D01*
X135888658Y-120050648D02*
X135969470Y-120131461D01*
X135969470Y-120131461D02*
X135996408Y-120212273D01*
X135996408Y-120212273D02*
X135996408Y-120266148D01*
X135996408Y-120266148D02*
X135969470Y-120346960D01*
X135969470Y-120346960D02*
X135834783Y-120481647D01*
X135834783Y-120481647D02*
X135753971Y-120508584D01*
X135753971Y-120508584D02*
X135700096Y-120508584D01*
X135700096Y-120508584D02*
X135619284Y-120481647D01*
X135619284Y-120481647D02*
X135457660Y-120320022D01*
X135457660Y-120320022D02*
X135430722Y-120239210D01*
X135430722Y-120239210D02*
X135430722Y-120185335D01*
X191104762Y-84612295D02*
X190838095Y-84231342D01*
X190647619Y-84612295D02*
X190647619Y-83812295D01*
X190647619Y-83812295D02*
X190952381Y-83812295D01*
X190952381Y-83812295D02*
X191028571Y-83850390D01*
X191028571Y-83850390D02*
X191066666Y-83888485D01*
X191066666Y-83888485D02*
X191104762Y-83964676D01*
X191104762Y-83964676D02*
X191104762Y-84078961D01*
X191104762Y-84078961D02*
X191066666Y-84155152D01*
X191066666Y-84155152D02*
X191028571Y-84193247D01*
X191028571Y-84193247D02*
X190952381Y-84231342D01*
X190952381Y-84231342D02*
X190647619Y-84231342D01*
X191409523Y-83888485D02*
X191447619Y-83850390D01*
X191447619Y-83850390D02*
X191523809Y-83812295D01*
X191523809Y-83812295D02*
X191714285Y-83812295D01*
X191714285Y-83812295D02*
X191790476Y-83850390D01*
X191790476Y-83850390D02*
X191828571Y-83888485D01*
X191828571Y-83888485D02*
X191866666Y-83964676D01*
X191866666Y-83964676D02*
X191866666Y-84040866D01*
X191866666Y-84040866D02*
X191828571Y-84155152D01*
X191828571Y-84155152D02*
X191371428Y-84612295D01*
X191371428Y-84612295D02*
X191866666Y-84612295D01*
X192361905Y-83812295D02*
X192438095Y-83812295D01*
X192438095Y-83812295D02*
X192514286Y-83850390D01*
X192514286Y-83850390D02*
X192552381Y-83888485D01*
X192552381Y-83888485D02*
X192590476Y-83964676D01*
X192590476Y-83964676D02*
X192628571Y-84117057D01*
X192628571Y-84117057D02*
X192628571Y-84307533D01*
X192628571Y-84307533D02*
X192590476Y-84459914D01*
X192590476Y-84459914D02*
X192552381Y-84536104D01*
X192552381Y-84536104D02*
X192514286Y-84574200D01*
X192514286Y-84574200D02*
X192438095Y-84612295D01*
X192438095Y-84612295D02*
X192361905Y-84612295D01*
X192361905Y-84612295D02*
X192285714Y-84574200D01*
X192285714Y-84574200D02*
X192247619Y-84536104D01*
X192247619Y-84536104D02*
X192209524Y-84459914D01*
X192209524Y-84459914D02*
X192171428Y-84307533D01*
X192171428Y-84307533D02*
X192171428Y-84117057D01*
X192171428Y-84117057D02*
X192209524Y-83964676D01*
X192209524Y-83964676D02*
X192247619Y-83888485D01*
X192247619Y-83888485D02*
X192285714Y-83850390D01*
X192285714Y-83850390D02*
X192361905Y-83812295D01*
X193009524Y-84612295D02*
X193161905Y-84612295D01*
X193161905Y-84612295D02*
X193238095Y-84574200D01*
X193238095Y-84574200D02*
X193276191Y-84536104D01*
X193276191Y-84536104D02*
X193352381Y-84421819D01*
X193352381Y-84421819D02*
X193390476Y-84269438D01*
X193390476Y-84269438D02*
X193390476Y-83964676D01*
X193390476Y-83964676D02*
X193352381Y-83888485D01*
X193352381Y-83888485D02*
X193314286Y-83850390D01*
X193314286Y-83850390D02*
X193238095Y-83812295D01*
X193238095Y-83812295D02*
X193085714Y-83812295D01*
X193085714Y-83812295D02*
X193009524Y-83850390D01*
X193009524Y-83850390D02*
X192971429Y-83888485D01*
X192971429Y-83888485D02*
X192933333Y-83964676D01*
X192933333Y-83964676D02*
X192933333Y-84155152D01*
X192933333Y-84155152D02*
X192971429Y-84231342D01*
X192971429Y-84231342D02*
X193009524Y-84269438D01*
X193009524Y-84269438D02*
X193085714Y-84307533D01*
X193085714Y-84307533D02*
X193238095Y-84307533D01*
X193238095Y-84307533D02*
X193314286Y-84269438D01*
X193314286Y-84269438D02*
X193352381Y-84231342D01*
X193352381Y-84231342D02*
X193390476Y-84155152D01*
X175112295Y-93495237D02*
X174731342Y-93761904D01*
X175112295Y-93952380D02*
X174312295Y-93952380D01*
X174312295Y-93952380D02*
X174312295Y-93647618D01*
X174312295Y-93647618D02*
X174350390Y-93571428D01*
X174350390Y-93571428D02*
X174388485Y-93533333D01*
X174388485Y-93533333D02*
X174464676Y-93495237D01*
X174464676Y-93495237D02*
X174578961Y-93495237D01*
X174578961Y-93495237D02*
X174655152Y-93533333D01*
X174655152Y-93533333D02*
X174693247Y-93571428D01*
X174693247Y-93571428D02*
X174731342Y-93647618D01*
X174731342Y-93647618D02*
X174731342Y-93952380D01*
X174388485Y-93190476D02*
X174350390Y-93152380D01*
X174350390Y-93152380D02*
X174312295Y-93076190D01*
X174312295Y-93076190D02*
X174312295Y-92885714D01*
X174312295Y-92885714D02*
X174350390Y-92809523D01*
X174350390Y-92809523D02*
X174388485Y-92771428D01*
X174388485Y-92771428D02*
X174464676Y-92733333D01*
X174464676Y-92733333D02*
X174540866Y-92733333D01*
X174540866Y-92733333D02*
X174655152Y-92771428D01*
X174655152Y-92771428D02*
X175112295Y-93228571D01*
X175112295Y-93228571D02*
X175112295Y-92733333D01*
X174312295Y-92238094D02*
X174312295Y-92161904D01*
X174312295Y-92161904D02*
X174350390Y-92085713D01*
X174350390Y-92085713D02*
X174388485Y-92047618D01*
X174388485Y-92047618D02*
X174464676Y-92009523D01*
X174464676Y-92009523D02*
X174617057Y-91971428D01*
X174617057Y-91971428D02*
X174807533Y-91971428D01*
X174807533Y-91971428D02*
X174959914Y-92009523D01*
X174959914Y-92009523D02*
X175036104Y-92047618D01*
X175036104Y-92047618D02*
X175074200Y-92085713D01*
X175074200Y-92085713D02*
X175112295Y-92161904D01*
X175112295Y-92161904D02*
X175112295Y-92238094D01*
X175112295Y-92238094D02*
X175074200Y-92314285D01*
X175074200Y-92314285D02*
X175036104Y-92352380D01*
X175036104Y-92352380D02*
X174959914Y-92390475D01*
X174959914Y-92390475D02*
X174807533Y-92428571D01*
X174807533Y-92428571D02*
X174617057Y-92428571D01*
X174617057Y-92428571D02*
X174464676Y-92390475D01*
X174464676Y-92390475D02*
X174388485Y-92352380D01*
X174388485Y-92352380D02*
X174350390Y-92314285D01*
X174350390Y-92314285D02*
X174312295Y-92238094D01*
X174388485Y-91666666D02*
X174350390Y-91628570D01*
X174350390Y-91628570D02*
X174312295Y-91552380D01*
X174312295Y-91552380D02*
X174312295Y-91361904D01*
X174312295Y-91361904D02*
X174350390Y-91285713D01*
X174350390Y-91285713D02*
X174388485Y-91247618D01*
X174388485Y-91247618D02*
X174464676Y-91209523D01*
X174464676Y-91209523D02*
X174540866Y-91209523D01*
X174540866Y-91209523D02*
X174655152Y-91247618D01*
X174655152Y-91247618D02*
X175112295Y-91704761D01*
X175112295Y-91704761D02*
X175112295Y-91209523D01*
X161512295Y-123102381D02*
X160712295Y-123102381D01*
X160712295Y-123102381D02*
X161283723Y-122835715D01*
X161283723Y-122835715D02*
X160712295Y-122569048D01*
X160712295Y-122569048D02*
X161512295Y-122569048D01*
X161512295Y-122073810D02*
X161474200Y-122150000D01*
X161474200Y-122150000D02*
X161436104Y-122188095D01*
X161436104Y-122188095D02*
X161359914Y-122226191D01*
X161359914Y-122226191D02*
X161131342Y-122226191D01*
X161131342Y-122226191D02*
X161055152Y-122188095D01*
X161055152Y-122188095D02*
X161017057Y-122150000D01*
X161017057Y-122150000D02*
X160978961Y-122073810D01*
X160978961Y-122073810D02*
X160978961Y-121959524D01*
X160978961Y-121959524D02*
X161017057Y-121883333D01*
X161017057Y-121883333D02*
X161055152Y-121845238D01*
X161055152Y-121845238D02*
X161131342Y-121807143D01*
X161131342Y-121807143D02*
X161359914Y-121807143D01*
X161359914Y-121807143D02*
X161436104Y-121845238D01*
X161436104Y-121845238D02*
X161474200Y-121883333D01*
X161474200Y-121883333D02*
X161512295Y-121959524D01*
X161512295Y-121959524D02*
X161512295Y-122073810D01*
X160978961Y-121578571D02*
X160978961Y-121273809D01*
X160712295Y-121464285D02*
X161398009Y-121464285D01*
X161398009Y-121464285D02*
X161474200Y-121426190D01*
X161474200Y-121426190D02*
X161512295Y-121350000D01*
X161512295Y-121350000D02*
X161512295Y-121273809D01*
X161474200Y-120702380D02*
X161512295Y-120778571D01*
X161512295Y-120778571D02*
X161512295Y-120930952D01*
X161512295Y-120930952D02*
X161474200Y-121007142D01*
X161474200Y-121007142D02*
X161398009Y-121045238D01*
X161398009Y-121045238D02*
X161093247Y-121045238D01*
X161093247Y-121045238D02*
X161017057Y-121007142D01*
X161017057Y-121007142D02*
X160978961Y-120930952D01*
X160978961Y-120930952D02*
X160978961Y-120778571D01*
X160978961Y-120778571D02*
X161017057Y-120702380D01*
X161017057Y-120702380D02*
X161093247Y-120664285D01*
X161093247Y-120664285D02*
X161169438Y-120664285D01*
X161169438Y-120664285D02*
X161245628Y-121045238D01*
X160978961Y-119978571D02*
X161512295Y-119978571D01*
X160978961Y-120321428D02*
X161398009Y-120321428D01*
X161398009Y-120321428D02*
X161474200Y-120283333D01*
X161474200Y-120283333D02*
X161512295Y-120207143D01*
X161512295Y-120207143D02*
X161512295Y-120092857D01*
X161512295Y-120092857D02*
X161474200Y-120016666D01*
X161474200Y-120016666D02*
X161436104Y-119978571D01*
X161512295Y-119597618D02*
X160978961Y-119597618D01*
X161131342Y-119597618D02*
X161055152Y-119559523D01*
X161055152Y-119559523D02*
X161017057Y-119521428D01*
X161017057Y-119521428D02*
X160978961Y-119445237D01*
X160978961Y-119445237D02*
X160978961Y-119369047D01*
X160712295Y-119178571D02*
X160712295Y-118645237D01*
X160712295Y-118645237D02*
X161512295Y-118988095D01*
X160712295Y-118188094D02*
X160712295Y-118111904D01*
X160712295Y-118111904D02*
X160750390Y-118035713D01*
X160750390Y-118035713D02*
X160788485Y-117997618D01*
X160788485Y-117997618D02*
X160864676Y-117959523D01*
X160864676Y-117959523D02*
X161017057Y-117921428D01*
X161017057Y-117921428D02*
X161207533Y-117921428D01*
X161207533Y-117921428D02*
X161359914Y-117959523D01*
X161359914Y-117959523D02*
X161436104Y-117997618D01*
X161436104Y-117997618D02*
X161474200Y-118035713D01*
X161474200Y-118035713D02*
X161512295Y-118111904D01*
X161512295Y-118111904D02*
X161512295Y-118188094D01*
X161512295Y-118188094D02*
X161474200Y-118264285D01*
X161474200Y-118264285D02*
X161436104Y-118302380D01*
X161436104Y-118302380D02*
X161359914Y-118340475D01*
X161359914Y-118340475D02*
X161207533Y-118378571D01*
X161207533Y-118378571D02*
X161017057Y-118378571D01*
X161017057Y-118378571D02*
X160864676Y-118340475D01*
X160864676Y-118340475D02*
X160788485Y-118302380D01*
X160788485Y-118302380D02*
X160750390Y-118264285D01*
X160750390Y-118264285D02*
X160712295Y-118188094D01*
X160788485Y-117616666D02*
X160750390Y-117578570D01*
X160750390Y-117578570D02*
X160712295Y-117502380D01*
X160712295Y-117502380D02*
X160712295Y-117311904D01*
X160712295Y-117311904D02*
X160750390Y-117235713D01*
X160750390Y-117235713D02*
X160788485Y-117197618D01*
X160788485Y-117197618D02*
X160864676Y-117159523D01*
X160864676Y-117159523D02*
X160940866Y-117159523D01*
X160940866Y-117159523D02*
X161055152Y-117197618D01*
X161055152Y-117197618D02*
X161512295Y-117654761D01*
X161512295Y-117654761D02*
X161512295Y-117159523D01*
X156759580Y-85119047D02*
X156807200Y-85166666D01*
X156807200Y-85166666D02*
X156854819Y-85309523D01*
X156854819Y-85309523D02*
X156854819Y-85404761D01*
X156854819Y-85404761D02*
X156807200Y-85547618D01*
X156807200Y-85547618D02*
X156711961Y-85642856D01*
X156711961Y-85642856D02*
X156616723Y-85690475D01*
X156616723Y-85690475D02*
X156426247Y-85738094D01*
X156426247Y-85738094D02*
X156283390Y-85738094D01*
X156283390Y-85738094D02*
X156092914Y-85690475D01*
X156092914Y-85690475D02*
X155997676Y-85642856D01*
X155997676Y-85642856D02*
X155902438Y-85547618D01*
X155902438Y-85547618D02*
X155854819Y-85404761D01*
X155854819Y-85404761D02*
X155854819Y-85309523D01*
X155854819Y-85309523D02*
X155902438Y-85166666D01*
X155902438Y-85166666D02*
X155950057Y-85119047D01*
X155854819Y-84785713D02*
X155854819Y-84166666D01*
X155854819Y-84166666D02*
X156235771Y-84499999D01*
X156235771Y-84499999D02*
X156235771Y-84357142D01*
X156235771Y-84357142D02*
X156283390Y-84261904D01*
X156283390Y-84261904D02*
X156331009Y-84214285D01*
X156331009Y-84214285D02*
X156426247Y-84166666D01*
X156426247Y-84166666D02*
X156664342Y-84166666D01*
X156664342Y-84166666D02*
X156759580Y-84214285D01*
X156759580Y-84214285D02*
X156807200Y-84261904D01*
X156807200Y-84261904D02*
X156854819Y-84357142D01*
X156854819Y-84357142D02*
X156854819Y-84642856D01*
X156854819Y-84642856D02*
X156807200Y-84738094D01*
X156807200Y-84738094D02*
X156759580Y-84785713D01*
X155854819Y-83547618D02*
X155854819Y-83452380D01*
X155854819Y-83452380D02*
X155902438Y-83357142D01*
X155902438Y-83357142D02*
X155950057Y-83309523D01*
X155950057Y-83309523D02*
X156045295Y-83261904D01*
X156045295Y-83261904D02*
X156235771Y-83214285D01*
X156235771Y-83214285D02*
X156473866Y-83214285D01*
X156473866Y-83214285D02*
X156664342Y-83261904D01*
X156664342Y-83261904D02*
X156759580Y-83309523D01*
X156759580Y-83309523D02*
X156807200Y-83357142D01*
X156807200Y-83357142D02*
X156854819Y-83452380D01*
X156854819Y-83452380D02*
X156854819Y-83547618D01*
X156854819Y-83547618D02*
X156807200Y-83642856D01*
X156807200Y-83642856D02*
X156759580Y-83690475D01*
X156759580Y-83690475D02*
X156664342Y-83738094D01*
X156664342Y-83738094D02*
X156473866Y-83785713D01*
X156473866Y-83785713D02*
X156235771Y-83785713D01*
X156235771Y-83785713D02*
X156045295Y-83738094D01*
X156045295Y-83738094D02*
X155950057Y-83690475D01*
X155950057Y-83690475D02*
X155902438Y-83642856D01*
X155902438Y-83642856D02*
X155854819Y-83547618D01*
X156854819Y-82261904D02*
X156854819Y-82833332D01*
X156854819Y-82547618D02*
X155854819Y-82547618D01*
X155854819Y-82547618D02*
X155997676Y-82642856D01*
X155997676Y-82642856D02*
X156092914Y-82738094D01*
X156092914Y-82738094D02*
X156140533Y-82833332D01*
X169909580Y-76819047D02*
X169957200Y-76866666D01*
X169957200Y-76866666D02*
X170004819Y-77009523D01*
X170004819Y-77009523D02*
X170004819Y-77104761D01*
X170004819Y-77104761D02*
X169957200Y-77247618D01*
X169957200Y-77247618D02*
X169861961Y-77342856D01*
X169861961Y-77342856D02*
X169766723Y-77390475D01*
X169766723Y-77390475D02*
X169576247Y-77438094D01*
X169576247Y-77438094D02*
X169433390Y-77438094D01*
X169433390Y-77438094D02*
X169242914Y-77390475D01*
X169242914Y-77390475D02*
X169147676Y-77342856D01*
X169147676Y-77342856D02*
X169052438Y-77247618D01*
X169052438Y-77247618D02*
X169004819Y-77104761D01*
X169004819Y-77104761D02*
X169004819Y-77009523D01*
X169004819Y-77009523D02*
X169052438Y-76866666D01*
X169052438Y-76866666D02*
X169100057Y-76819047D01*
X169100057Y-76438094D02*
X169052438Y-76390475D01*
X169052438Y-76390475D02*
X169004819Y-76295237D01*
X169004819Y-76295237D02*
X169004819Y-76057142D01*
X169004819Y-76057142D02*
X169052438Y-75961904D01*
X169052438Y-75961904D02*
X169100057Y-75914285D01*
X169100057Y-75914285D02*
X169195295Y-75866666D01*
X169195295Y-75866666D02*
X169290533Y-75866666D01*
X169290533Y-75866666D02*
X169433390Y-75914285D01*
X169433390Y-75914285D02*
X170004819Y-76485713D01*
X170004819Y-76485713D02*
X170004819Y-75866666D01*
X169004819Y-75247618D02*
X169004819Y-75152380D01*
X169004819Y-75152380D02*
X169052438Y-75057142D01*
X169052438Y-75057142D02*
X169100057Y-75009523D01*
X169100057Y-75009523D02*
X169195295Y-74961904D01*
X169195295Y-74961904D02*
X169385771Y-74914285D01*
X169385771Y-74914285D02*
X169623866Y-74914285D01*
X169623866Y-74914285D02*
X169814342Y-74961904D01*
X169814342Y-74961904D02*
X169909580Y-75009523D01*
X169909580Y-75009523D02*
X169957200Y-75057142D01*
X169957200Y-75057142D02*
X170004819Y-75152380D01*
X170004819Y-75152380D02*
X170004819Y-75247618D01*
X170004819Y-75247618D02*
X169957200Y-75342856D01*
X169957200Y-75342856D02*
X169909580Y-75390475D01*
X169909580Y-75390475D02*
X169814342Y-75438094D01*
X169814342Y-75438094D02*
X169623866Y-75485713D01*
X169623866Y-75485713D02*
X169385771Y-75485713D01*
X169385771Y-75485713D02*
X169195295Y-75438094D01*
X169195295Y-75438094D02*
X169100057Y-75390475D01*
X169100057Y-75390475D02*
X169052438Y-75342856D01*
X169052438Y-75342856D02*
X169004819Y-75247618D01*
X169004819Y-74009523D02*
X169004819Y-74485713D01*
X169004819Y-74485713D02*
X169481009Y-74533332D01*
X169481009Y-74533332D02*
X169433390Y-74485713D01*
X169433390Y-74485713D02*
X169385771Y-74390475D01*
X169385771Y-74390475D02*
X169385771Y-74152380D01*
X169385771Y-74152380D02*
X169433390Y-74057142D01*
X169433390Y-74057142D02*
X169481009Y-74009523D01*
X169481009Y-74009523D02*
X169576247Y-73961904D01*
X169576247Y-73961904D02*
X169814342Y-73961904D01*
X169814342Y-73961904D02*
X169909580Y-74009523D01*
X169909580Y-74009523D02*
X169957200Y-74057142D01*
X169957200Y-74057142D02*
X170004819Y-74152380D01*
X170004819Y-74152380D02*
X170004819Y-74390475D01*
X170004819Y-74390475D02*
X169957200Y-74485713D01*
X169957200Y-74485713D02*
X169909580Y-74533332D01*
X179486104Y-104595237D02*
X179524200Y-104633333D01*
X179524200Y-104633333D02*
X179562295Y-104747618D01*
X179562295Y-104747618D02*
X179562295Y-104823809D01*
X179562295Y-104823809D02*
X179524200Y-104938095D01*
X179524200Y-104938095D02*
X179448009Y-105014285D01*
X179448009Y-105014285D02*
X179371819Y-105052380D01*
X179371819Y-105052380D02*
X179219438Y-105090476D01*
X179219438Y-105090476D02*
X179105152Y-105090476D01*
X179105152Y-105090476D02*
X178952771Y-105052380D01*
X178952771Y-105052380D02*
X178876580Y-105014285D01*
X178876580Y-105014285D02*
X178800390Y-104938095D01*
X178800390Y-104938095D02*
X178762295Y-104823809D01*
X178762295Y-104823809D02*
X178762295Y-104747618D01*
X178762295Y-104747618D02*
X178800390Y-104633333D01*
X178800390Y-104633333D02*
X178838485Y-104595237D01*
X178762295Y-103909523D02*
X178762295Y-104061904D01*
X178762295Y-104061904D02*
X178800390Y-104138095D01*
X178800390Y-104138095D02*
X178838485Y-104176190D01*
X178838485Y-104176190D02*
X178952771Y-104252380D01*
X178952771Y-104252380D02*
X179105152Y-104290476D01*
X179105152Y-104290476D02*
X179409914Y-104290476D01*
X179409914Y-104290476D02*
X179486104Y-104252380D01*
X179486104Y-104252380D02*
X179524200Y-104214285D01*
X179524200Y-104214285D02*
X179562295Y-104138095D01*
X179562295Y-104138095D02*
X179562295Y-103985714D01*
X179562295Y-103985714D02*
X179524200Y-103909523D01*
X179524200Y-103909523D02*
X179486104Y-103871428D01*
X179486104Y-103871428D02*
X179409914Y-103833333D01*
X179409914Y-103833333D02*
X179219438Y-103833333D01*
X179219438Y-103833333D02*
X179143247Y-103871428D01*
X179143247Y-103871428D02*
X179105152Y-103909523D01*
X179105152Y-103909523D02*
X179067057Y-103985714D01*
X179067057Y-103985714D02*
X179067057Y-104138095D01*
X179067057Y-104138095D02*
X179105152Y-104214285D01*
X179105152Y-104214285D02*
X179143247Y-104252380D01*
X179143247Y-104252380D02*
X179219438Y-104290476D01*
X178762295Y-103338094D02*
X178762295Y-103261904D01*
X178762295Y-103261904D02*
X178800390Y-103185713D01*
X178800390Y-103185713D02*
X178838485Y-103147618D01*
X178838485Y-103147618D02*
X178914676Y-103109523D01*
X178914676Y-103109523D02*
X179067057Y-103071428D01*
X179067057Y-103071428D02*
X179257533Y-103071428D01*
X179257533Y-103071428D02*
X179409914Y-103109523D01*
X179409914Y-103109523D02*
X179486104Y-103147618D01*
X179486104Y-103147618D02*
X179524200Y-103185713D01*
X179524200Y-103185713D02*
X179562295Y-103261904D01*
X179562295Y-103261904D02*
X179562295Y-103338094D01*
X179562295Y-103338094D02*
X179524200Y-103414285D01*
X179524200Y-103414285D02*
X179486104Y-103452380D01*
X179486104Y-103452380D02*
X179409914Y-103490475D01*
X179409914Y-103490475D02*
X179257533Y-103528571D01*
X179257533Y-103528571D02*
X179067057Y-103528571D01*
X179067057Y-103528571D02*
X178914676Y-103490475D01*
X178914676Y-103490475D02*
X178838485Y-103452380D01*
X178838485Y-103452380D02*
X178800390Y-103414285D01*
X178800390Y-103414285D02*
X178762295Y-103338094D01*
X178838485Y-102766666D02*
X178800390Y-102728570D01*
X178800390Y-102728570D02*
X178762295Y-102652380D01*
X178762295Y-102652380D02*
X178762295Y-102461904D01*
X178762295Y-102461904D02*
X178800390Y-102385713D01*
X178800390Y-102385713D02*
X178838485Y-102347618D01*
X178838485Y-102347618D02*
X178914676Y-102309523D01*
X178914676Y-102309523D02*
X178990866Y-102309523D01*
X178990866Y-102309523D02*
X179105152Y-102347618D01*
X179105152Y-102347618D02*
X179562295Y-102804761D01*
X179562295Y-102804761D02*
X179562295Y-102309523D01*
X151604819Y-82069047D02*
X151128628Y-82402380D01*
X151604819Y-82640475D02*
X150604819Y-82640475D01*
X150604819Y-82640475D02*
X150604819Y-82259523D01*
X150604819Y-82259523D02*
X150652438Y-82164285D01*
X150652438Y-82164285D02*
X150700057Y-82116666D01*
X150700057Y-82116666D02*
X150795295Y-82069047D01*
X150795295Y-82069047D02*
X150938152Y-82069047D01*
X150938152Y-82069047D02*
X151033390Y-82116666D01*
X151033390Y-82116666D02*
X151081009Y-82164285D01*
X151081009Y-82164285D02*
X151128628Y-82259523D01*
X151128628Y-82259523D02*
X151128628Y-82640475D01*
X150604819Y-81735713D02*
X150604819Y-81116666D01*
X150604819Y-81116666D02*
X150985771Y-81449999D01*
X150985771Y-81449999D02*
X150985771Y-81307142D01*
X150985771Y-81307142D02*
X151033390Y-81211904D01*
X151033390Y-81211904D02*
X151081009Y-81164285D01*
X151081009Y-81164285D02*
X151176247Y-81116666D01*
X151176247Y-81116666D02*
X151414342Y-81116666D01*
X151414342Y-81116666D02*
X151509580Y-81164285D01*
X151509580Y-81164285D02*
X151557200Y-81211904D01*
X151557200Y-81211904D02*
X151604819Y-81307142D01*
X151604819Y-81307142D02*
X151604819Y-81592856D01*
X151604819Y-81592856D02*
X151557200Y-81688094D01*
X151557200Y-81688094D02*
X151509580Y-81735713D01*
X150604819Y-80497618D02*
X150604819Y-80402380D01*
X150604819Y-80402380D02*
X150652438Y-80307142D01*
X150652438Y-80307142D02*
X150700057Y-80259523D01*
X150700057Y-80259523D02*
X150795295Y-80211904D01*
X150795295Y-80211904D02*
X150985771Y-80164285D01*
X150985771Y-80164285D02*
X151223866Y-80164285D01*
X151223866Y-80164285D02*
X151414342Y-80211904D01*
X151414342Y-80211904D02*
X151509580Y-80259523D01*
X151509580Y-80259523D02*
X151557200Y-80307142D01*
X151557200Y-80307142D02*
X151604819Y-80402380D01*
X151604819Y-80402380D02*
X151604819Y-80497618D01*
X151604819Y-80497618D02*
X151557200Y-80592856D01*
X151557200Y-80592856D02*
X151509580Y-80640475D01*
X151509580Y-80640475D02*
X151414342Y-80688094D01*
X151414342Y-80688094D02*
X151223866Y-80735713D01*
X151223866Y-80735713D02*
X150985771Y-80735713D01*
X150985771Y-80735713D02*
X150795295Y-80688094D01*
X150795295Y-80688094D02*
X150700057Y-80640475D01*
X150700057Y-80640475D02*
X150652438Y-80592856D01*
X150652438Y-80592856D02*
X150604819Y-80497618D01*
X151604819Y-79211904D02*
X151604819Y-79783332D01*
X151604819Y-79497618D02*
X150604819Y-79497618D01*
X150604819Y-79497618D02*
X150747676Y-79592856D01*
X150747676Y-79592856D02*
X150842914Y-79688094D01*
X150842914Y-79688094D02*
X150890533Y-79783332D01*
X165780952Y-77904819D02*
X165304762Y-77904819D01*
X165304762Y-77904819D02*
X165304762Y-76904819D01*
X166066667Y-77000057D02*
X166114286Y-76952438D01*
X166114286Y-76952438D02*
X166209524Y-76904819D01*
X166209524Y-76904819D02*
X166447619Y-76904819D01*
X166447619Y-76904819D02*
X166542857Y-76952438D01*
X166542857Y-76952438D02*
X166590476Y-77000057D01*
X166590476Y-77000057D02*
X166638095Y-77095295D01*
X166638095Y-77095295D02*
X166638095Y-77190533D01*
X166638095Y-77190533D02*
X166590476Y-77333390D01*
X166590476Y-77333390D02*
X166019048Y-77904819D01*
X166019048Y-77904819D02*
X166638095Y-77904819D01*
X167257143Y-76904819D02*
X167352381Y-76904819D01*
X167352381Y-76904819D02*
X167447619Y-76952438D01*
X167447619Y-76952438D02*
X167495238Y-77000057D01*
X167495238Y-77000057D02*
X167542857Y-77095295D01*
X167542857Y-77095295D02*
X167590476Y-77285771D01*
X167590476Y-77285771D02*
X167590476Y-77523866D01*
X167590476Y-77523866D02*
X167542857Y-77714342D01*
X167542857Y-77714342D02*
X167495238Y-77809580D01*
X167495238Y-77809580D02*
X167447619Y-77857200D01*
X167447619Y-77857200D02*
X167352381Y-77904819D01*
X167352381Y-77904819D02*
X167257143Y-77904819D01*
X167257143Y-77904819D02*
X167161905Y-77857200D01*
X167161905Y-77857200D02*
X167114286Y-77809580D01*
X167114286Y-77809580D02*
X167066667Y-77714342D01*
X167066667Y-77714342D02*
X167019048Y-77523866D01*
X167019048Y-77523866D02*
X167019048Y-77285771D01*
X167019048Y-77285771D02*
X167066667Y-77095295D01*
X167066667Y-77095295D02*
X167114286Y-77000057D01*
X167114286Y-77000057D02*
X167161905Y-76952438D01*
X167161905Y-76952438D02*
X167257143Y-76904819D01*
X168542857Y-77904819D02*
X167971429Y-77904819D01*
X168257143Y-77904819D02*
X168257143Y-76904819D01*
X168257143Y-76904819D02*
X168161905Y-77047676D01*
X168161905Y-77047676D02*
X168066667Y-77142914D01*
X168066667Y-77142914D02*
X167971429Y-77190533D01*
X128204819Y-101919047D02*
X127728628Y-102252380D01*
X128204819Y-102490475D02*
X127204819Y-102490475D01*
X127204819Y-102490475D02*
X127204819Y-102109523D01*
X127204819Y-102109523D02*
X127252438Y-102014285D01*
X127252438Y-102014285D02*
X127300057Y-101966666D01*
X127300057Y-101966666D02*
X127395295Y-101919047D01*
X127395295Y-101919047D02*
X127538152Y-101919047D01*
X127538152Y-101919047D02*
X127633390Y-101966666D01*
X127633390Y-101966666D02*
X127681009Y-102014285D01*
X127681009Y-102014285D02*
X127728628Y-102109523D01*
X127728628Y-102109523D02*
X127728628Y-102490475D01*
X127204819Y-101014285D02*
X127204819Y-101490475D01*
X127204819Y-101490475D02*
X127681009Y-101538094D01*
X127681009Y-101538094D02*
X127633390Y-101490475D01*
X127633390Y-101490475D02*
X127585771Y-101395237D01*
X127585771Y-101395237D02*
X127585771Y-101157142D01*
X127585771Y-101157142D02*
X127633390Y-101061904D01*
X127633390Y-101061904D02*
X127681009Y-101014285D01*
X127681009Y-101014285D02*
X127776247Y-100966666D01*
X127776247Y-100966666D02*
X128014342Y-100966666D01*
X128014342Y-100966666D02*
X128109580Y-101014285D01*
X128109580Y-101014285D02*
X128157200Y-101061904D01*
X128157200Y-101061904D02*
X128204819Y-101157142D01*
X128204819Y-101157142D02*
X128204819Y-101395237D01*
X128204819Y-101395237D02*
X128157200Y-101490475D01*
X128157200Y-101490475D02*
X128109580Y-101538094D01*
X127204819Y-100347618D02*
X127204819Y-100252380D01*
X127204819Y-100252380D02*
X127252438Y-100157142D01*
X127252438Y-100157142D02*
X127300057Y-100109523D01*
X127300057Y-100109523D02*
X127395295Y-100061904D01*
X127395295Y-100061904D02*
X127585771Y-100014285D01*
X127585771Y-100014285D02*
X127823866Y-100014285D01*
X127823866Y-100014285D02*
X128014342Y-100061904D01*
X128014342Y-100061904D02*
X128109580Y-100109523D01*
X128109580Y-100109523D02*
X128157200Y-100157142D01*
X128157200Y-100157142D02*
X128204819Y-100252380D01*
X128204819Y-100252380D02*
X128204819Y-100347618D01*
X128204819Y-100347618D02*
X128157200Y-100442856D01*
X128157200Y-100442856D02*
X128109580Y-100490475D01*
X128109580Y-100490475D02*
X128014342Y-100538094D01*
X128014342Y-100538094D02*
X127823866Y-100585713D01*
X127823866Y-100585713D02*
X127585771Y-100585713D01*
X127585771Y-100585713D02*
X127395295Y-100538094D01*
X127395295Y-100538094D02*
X127300057Y-100490475D01*
X127300057Y-100490475D02*
X127252438Y-100442856D01*
X127252438Y-100442856D02*
X127204819Y-100347618D01*
X128204819Y-99061904D02*
X128204819Y-99633332D01*
X128204819Y-99347618D02*
X127204819Y-99347618D01*
X127204819Y-99347618D02*
X127347676Y-99442856D01*
X127347676Y-99442856D02*
X127442914Y-99538094D01*
X127442914Y-99538094D02*
X127490533Y-99633332D01*
X161859580Y-108690476D02*
X161907200Y-108738095D01*
X161907200Y-108738095D02*
X161954819Y-108880952D01*
X161954819Y-108880952D02*
X161954819Y-108976190D01*
X161954819Y-108976190D02*
X161907200Y-109119047D01*
X161907200Y-109119047D02*
X161811961Y-109214285D01*
X161811961Y-109214285D02*
X161716723Y-109261904D01*
X161716723Y-109261904D02*
X161526247Y-109309523D01*
X161526247Y-109309523D02*
X161383390Y-109309523D01*
X161383390Y-109309523D02*
X161192914Y-109261904D01*
X161192914Y-109261904D02*
X161097676Y-109214285D01*
X161097676Y-109214285D02*
X161002438Y-109119047D01*
X161002438Y-109119047D02*
X160954819Y-108976190D01*
X160954819Y-108976190D02*
X160954819Y-108880952D01*
X160954819Y-108880952D02*
X161002438Y-108738095D01*
X161002438Y-108738095D02*
X161050057Y-108690476D01*
X161954819Y-108261904D02*
X160954819Y-108261904D01*
X161335771Y-108261904D02*
X161288152Y-108166666D01*
X161288152Y-108166666D02*
X161288152Y-107976190D01*
X161288152Y-107976190D02*
X161335771Y-107880952D01*
X161335771Y-107880952D02*
X161383390Y-107833333D01*
X161383390Y-107833333D02*
X161478628Y-107785714D01*
X161478628Y-107785714D02*
X161764342Y-107785714D01*
X161764342Y-107785714D02*
X161859580Y-107833333D01*
X161859580Y-107833333D02*
X161907200Y-107880952D01*
X161907200Y-107880952D02*
X161954819Y-107976190D01*
X161954819Y-107976190D02*
X161954819Y-108166666D01*
X161954819Y-108166666D02*
X161907200Y-108261904D01*
X161288152Y-106928571D02*
X161954819Y-106928571D01*
X161288152Y-107357142D02*
X161811961Y-107357142D01*
X161811961Y-107357142D02*
X161907200Y-107309523D01*
X161907200Y-107309523D02*
X161954819Y-107214285D01*
X161954819Y-107214285D02*
X161954819Y-107071428D01*
X161954819Y-107071428D02*
X161907200Y-106976190D01*
X161907200Y-106976190D02*
X161859580Y-106928571D01*
X161954819Y-106309523D02*
X161907200Y-106404761D01*
X161907200Y-106404761D02*
X161811961Y-106452380D01*
X161811961Y-106452380D02*
X160954819Y-106452380D01*
X161954819Y-105928570D02*
X160954819Y-105928570D01*
X161573866Y-105833332D02*
X161954819Y-105547618D01*
X161288152Y-105547618D02*
X161669104Y-105928570D01*
X160954819Y-105214284D02*
X160954819Y-104547618D01*
X160954819Y-104547618D02*
X161954819Y-104976189D01*
X160954819Y-103976189D02*
X160954819Y-103880951D01*
X160954819Y-103880951D02*
X161002438Y-103785713D01*
X161002438Y-103785713D02*
X161050057Y-103738094D01*
X161050057Y-103738094D02*
X161145295Y-103690475D01*
X161145295Y-103690475D02*
X161335771Y-103642856D01*
X161335771Y-103642856D02*
X161573866Y-103642856D01*
X161573866Y-103642856D02*
X161764342Y-103690475D01*
X161764342Y-103690475D02*
X161859580Y-103738094D01*
X161859580Y-103738094D02*
X161907200Y-103785713D01*
X161907200Y-103785713D02*
X161954819Y-103880951D01*
X161954819Y-103880951D02*
X161954819Y-103976189D01*
X161954819Y-103976189D02*
X161907200Y-104071427D01*
X161907200Y-104071427D02*
X161859580Y-104119046D01*
X161859580Y-104119046D02*
X161764342Y-104166665D01*
X161764342Y-104166665D02*
X161573866Y-104214284D01*
X161573866Y-104214284D02*
X161335771Y-104214284D01*
X161335771Y-104214284D02*
X161145295Y-104166665D01*
X161145295Y-104166665D02*
X161050057Y-104119046D01*
X161050057Y-104119046D02*
X161002438Y-104071427D01*
X161002438Y-104071427D02*
X160954819Y-103976189D01*
X161954819Y-102690475D02*
X161954819Y-103261903D01*
X161954819Y-102976189D02*
X160954819Y-102976189D01*
X160954819Y-102976189D02*
X161097676Y-103071427D01*
X161097676Y-103071427D02*
X161192914Y-103166665D01*
X161192914Y-103166665D02*
X161240533Y-103261903D01*
X128154819Y-97269047D02*
X127678628Y-97602380D01*
X128154819Y-97840475D02*
X127154819Y-97840475D01*
X127154819Y-97840475D02*
X127154819Y-97459523D01*
X127154819Y-97459523D02*
X127202438Y-97364285D01*
X127202438Y-97364285D02*
X127250057Y-97316666D01*
X127250057Y-97316666D02*
X127345295Y-97269047D01*
X127345295Y-97269047D02*
X127488152Y-97269047D01*
X127488152Y-97269047D02*
X127583390Y-97316666D01*
X127583390Y-97316666D02*
X127631009Y-97364285D01*
X127631009Y-97364285D02*
X127678628Y-97459523D01*
X127678628Y-97459523D02*
X127678628Y-97840475D01*
X127154819Y-96364285D02*
X127154819Y-96840475D01*
X127154819Y-96840475D02*
X127631009Y-96888094D01*
X127631009Y-96888094D02*
X127583390Y-96840475D01*
X127583390Y-96840475D02*
X127535771Y-96745237D01*
X127535771Y-96745237D02*
X127535771Y-96507142D01*
X127535771Y-96507142D02*
X127583390Y-96411904D01*
X127583390Y-96411904D02*
X127631009Y-96364285D01*
X127631009Y-96364285D02*
X127726247Y-96316666D01*
X127726247Y-96316666D02*
X127964342Y-96316666D01*
X127964342Y-96316666D02*
X128059580Y-96364285D01*
X128059580Y-96364285D02*
X128107200Y-96411904D01*
X128107200Y-96411904D02*
X128154819Y-96507142D01*
X128154819Y-96507142D02*
X128154819Y-96745237D01*
X128154819Y-96745237D02*
X128107200Y-96840475D01*
X128107200Y-96840475D02*
X128059580Y-96888094D01*
X127154819Y-95697618D02*
X127154819Y-95602380D01*
X127154819Y-95602380D02*
X127202438Y-95507142D01*
X127202438Y-95507142D02*
X127250057Y-95459523D01*
X127250057Y-95459523D02*
X127345295Y-95411904D01*
X127345295Y-95411904D02*
X127535771Y-95364285D01*
X127535771Y-95364285D02*
X127773866Y-95364285D01*
X127773866Y-95364285D02*
X127964342Y-95411904D01*
X127964342Y-95411904D02*
X128059580Y-95459523D01*
X128059580Y-95459523D02*
X128107200Y-95507142D01*
X128107200Y-95507142D02*
X128154819Y-95602380D01*
X128154819Y-95602380D02*
X128154819Y-95697618D01*
X128154819Y-95697618D02*
X128107200Y-95792856D01*
X128107200Y-95792856D02*
X128059580Y-95840475D01*
X128059580Y-95840475D02*
X127964342Y-95888094D01*
X127964342Y-95888094D02*
X127773866Y-95935713D01*
X127773866Y-95935713D02*
X127535771Y-95935713D01*
X127535771Y-95935713D02*
X127345295Y-95888094D01*
X127345295Y-95888094D02*
X127250057Y-95840475D01*
X127250057Y-95840475D02*
X127202438Y-95792856D01*
X127202438Y-95792856D02*
X127154819Y-95697618D01*
X127154819Y-94507142D02*
X127154819Y-94697618D01*
X127154819Y-94697618D02*
X127202438Y-94792856D01*
X127202438Y-94792856D02*
X127250057Y-94840475D01*
X127250057Y-94840475D02*
X127392914Y-94935713D01*
X127392914Y-94935713D02*
X127583390Y-94983332D01*
X127583390Y-94983332D02*
X127964342Y-94983332D01*
X127964342Y-94983332D02*
X128059580Y-94935713D01*
X128059580Y-94935713D02*
X128107200Y-94888094D01*
X128107200Y-94888094D02*
X128154819Y-94792856D01*
X128154819Y-94792856D02*
X128154819Y-94602380D01*
X128154819Y-94602380D02*
X128107200Y-94507142D01*
X128107200Y-94507142D02*
X128059580Y-94459523D01*
X128059580Y-94459523D02*
X127964342Y-94411904D01*
X127964342Y-94411904D02*
X127726247Y-94411904D01*
X127726247Y-94411904D02*
X127631009Y-94459523D01*
X127631009Y-94459523D02*
X127583390Y-94507142D01*
X127583390Y-94507142D02*
X127535771Y-94602380D01*
X127535771Y-94602380D02*
X127535771Y-94792856D01*
X127535771Y-94792856D02*
X127583390Y-94888094D01*
X127583390Y-94888094D02*
X127631009Y-94935713D01*
X127631009Y-94935713D02*
X127726247Y-94983332D01*
X168697619Y-96762295D02*
X168697619Y-95962295D01*
X168697619Y-95962295D02*
X168888095Y-95962295D01*
X168888095Y-95962295D02*
X169002381Y-96000390D01*
X169002381Y-96000390D02*
X169078571Y-96076580D01*
X169078571Y-96076580D02*
X169116666Y-96152771D01*
X169116666Y-96152771D02*
X169154762Y-96305152D01*
X169154762Y-96305152D02*
X169154762Y-96419438D01*
X169154762Y-96419438D02*
X169116666Y-96571819D01*
X169116666Y-96571819D02*
X169078571Y-96648009D01*
X169078571Y-96648009D02*
X169002381Y-96724200D01*
X169002381Y-96724200D02*
X168888095Y-96762295D01*
X168888095Y-96762295D02*
X168697619Y-96762295D01*
X169459523Y-96038485D02*
X169497619Y-96000390D01*
X169497619Y-96000390D02*
X169573809Y-95962295D01*
X169573809Y-95962295D02*
X169764285Y-95962295D01*
X169764285Y-95962295D02*
X169840476Y-96000390D01*
X169840476Y-96000390D02*
X169878571Y-96038485D01*
X169878571Y-96038485D02*
X169916666Y-96114676D01*
X169916666Y-96114676D02*
X169916666Y-96190866D01*
X169916666Y-96190866D02*
X169878571Y-96305152D01*
X169878571Y-96305152D02*
X169421428Y-96762295D01*
X169421428Y-96762295D02*
X169916666Y-96762295D01*
X170411905Y-95962295D02*
X170488095Y-95962295D01*
X170488095Y-95962295D02*
X170564286Y-96000390D01*
X170564286Y-96000390D02*
X170602381Y-96038485D01*
X170602381Y-96038485D02*
X170640476Y-96114676D01*
X170640476Y-96114676D02*
X170678571Y-96267057D01*
X170678571Y-96267057D02*
X170678571Y-96457533D01*
X170678571Y-96457533D02*
X170640476Y-96609914D01*
X170640476Y-96609914D02*
X170602381Y-96686104D01*
X170602381Y-96686104D02*
X170564286Y-96724200D01*
X170564286Y-96724200D02*
X170488095Y-96762295D01*
X170488095Y-96762295D02*
X170411905Y-96762295D01*
X170411905Y-96762295D02*
X170335714Y-96724200D01*
X170335714Y-96724200D02*
X170297619Y-96686104D01*
X170297619Y-96686104D02*
X170259524Y-96609914D01*
X170259524Y-96609914D02*
X170221428Y-96457533D01*
X170221428Y-96457533D02*
X170221428Y-96267057D01*
X170221428Y-96267057D02*
X170259524Y-96114676D01*
X170259524Y-96114676D02*
X170297619Y-96038485D01*
X170297619Y-96038485D02*
X170335714Y-96000390D01*
X170335714Y-96000390D02*
X170411905Y-95962295D01*
X170983333Y-96038485D02*
X171021429Y-96000390D01*
X171021429Y-96000390D02*
X171097619Y-95962295D01*
X171097619Y-95962295D02*
X171288095Y-95962295D01*
X171288095Y-95962295D02*
X171364286Y-96000390D01*
X171364286Y-96000390D02*
X171402381Y-96038485D01*
X171402381Y-96038485D02*
X171440476Y-96114676D01*
X171440476Y-96114676D02*
X171440476Y-96190866D01*
X171440476Y-96190866D02*
X171402381Y-96305152D01*
X171402381Y-96305152D02*
X170945238Y-96762295D01*
X170945238Y-96762295D02*
X171440476Y-96762295D01*
X141104762Y-94386104D02*
X141066666Y-94424200D01*
X141066666Y-94424200D02*
X140952381Y-94462295D01*
X140952381Y-94462295D02*
X140876190Y-94462295D01*
X140876190Y-94462295D02*
X140761904Y-94424200D01*
X140761904Y-94424200D02*
X140685714Y-94348009D01*
X140685714Y-94348009D02*
X140647619Y-94271819D01*
X140647619Y-94271819D02*
X140609523Y-94119438D01*
X140609523Y-94119438D02*
X140609523Y-94005152D01*
X140609523Y-94005152D02*
X140647619Y-93852771D01*
X140647619Y-93852771D02*
X140685714Y-93776580D01*
X140685714Y-93776580D02*
X140761904Y-93700390D01*
X140761904Y-93700390D02*
X140876190Y-93662295D01*
X140876190Y-93662295D02*
X140952381Y-93662295D01*
X140952381Y-93662295D02*
X141066666Y-93700390D01*
X141066666Y-93700390D02*
X141104762Y-93738485D01*
X141371428Y-93662295D02*
X141866666Y-93662295D01*
X141866666Y-93662295D02*
X141600000Y-93967057D01*
X141600000Y-93967057D02*
X141714285Y-93967057D01*
X141714285Y-93967057D02*
X141790476Y-94005152D01*
X141790476Y-94005152D02*
X141828571Y-94043247D01*
X141828571Y-94043247D02*
X141866666Y-94119438D01*
X141866666Y-94119438D02*
X141866666Y-94309914D01*
X141866666Y-94309914D02*
X141828571Y-94386104D01*
X141828571Y-94386104D02*
X141790476Y-94424200D01*
X141790476Y-94424200D02*
X141714285Y-94462295D01*
X141714285Y-94462295D02*
X141485714Y-94462295D01*
X141485714Y-94462295D02*
X141409523Y-94424200D01*
X141409523Y-94424200D02*
X141371428Y-94386104D01*
X142361905Y-93662295D02*
X142438095Y-93662295D01*
X142438095Y-93662295D02*
X142514286Y-93700390D01*
X142514286Y-93700390D02*
X142552381Y-93738485D01*
X142552381Y-93738485D02*
X142590476Y-93814676D01*
X142590476Y-93814676D02*
X142628571Y-93967057D01*
X142628571Y-93967057D02*
X142628571Y-94157533D01*
X142628571Y-94157533D02*
X142590476Y-94309914D01*
X142590476Y-94309914D02*
X142552381Y-94386104D01*
X142552381Y-94386104D02*
X142514286Y-94424200D01*
X142514286Y-94424200D02*
X142438095Y-94462295D01*
X142438095Y-94462295D02*
X142361905Y-94462295D01*
X142361905Y-94462295D02*
X142285714Y-94424200D01*
X142285714Y-94424200D02*
X142247619Y-94386104D01*
X142247619Y-94386104D02*
X142209524Y-94309914D01*
X142209524Y-94309914D02*
X142171428Y-94157533D01*
X142171428Y-94157533D02*
X142171428Y-93967057D01*
X142171428Y-93967057D02*
X142209524Y-93814676D01*
X142209524Y-93814676D02*
X142247619Y-93738485D01*
X142247619Y-93738485D02*
X142285714Y-93700390D01*
X142285714Y-93700390D02*
X142361905Y-93662295D01*
X143314286Y-93662295D02*
X143161905Y-93662295D01*
X143161905Y-93662295D02*
X143085714Y-93700390D01*
X143085714Y-93700390D02*
X143047619Y-93738485D01*
X143047619Y-93738485D02*
X142971429Y-93852771D01*
X142971429Y-93852771D02*
X142933333Y-94005152D01*
X142933333Y-94005152D02*
X142933333Y-94309914D01*
X142933333Y-94309914D02*
X142971429Y-94386104D01*
X142971429Y-94386104D02*
X143009524Y-94424200D01*
X143009524Y-94424200D02*
X143085714Y-94462295D01*
X143085714Y-94462295D02*
X143238095Y-94462295D01*
X143238095Y-94462295D02*
X143314286Y-94424200D01*
X143314286Y-94424200D02*
X143352381Y-94386104D01*
X143352381Y-94386104D02*
X143390476Y-94309914D01*
X143390476Y-94309914D02*
X143390476Y-94119438D01*
X143390476Y-94119438D02*
X143352381Y-94043247D01*
X143352381Y-94043247D02*
X143314286Y-94005152D01*
X143314286Y-94005152D02*
X143238095Y-93967057D01*
X143238095Y-93967057D02*
X143085714Y-93967057D01*
X143085714Y-93967057D02*
X143009524Y-94005152D01*
X143009524Y-94005152D02*
X142971429Y-94043247D01*
X142971429Y-94043247D02*
X142933333Y-94119438D01*
X171112295Y-93495237D02*
X170731342Y-93761904D01*
X171112295Y-93952380D02*
X170312295Y-93952380D01*
X170312295Y-93952380D02*
X170312295Y-93647618D01*
X170312295Y-93647618D02*
X170350390Y-93571428D01*
X170350390Y-93571428D02*
X170388485Y-93533333D01*
X170388485Y-93533333D02*
X170464676Y-93495237D01*
X170464676Y-93495237D02*
X170578961Y-93495237D01*
X170578961Y-93495237D02*
X170655152Y-93533333D01*
X170655152Y-93533333D02*
X170693247Y-93571428D01*
X170693247Y-93571428D02*
X170731342Y-93647618D01*
X170731342Y-93647618D02*
X170731342Y-93952380D01*
X170388485Y-93190476D02*
X170350390Y-93152380D01*
X170350390Y-93152380D02*
X170312295Y-93076190D01*
X170312295Y-93076190D02*
X170312295Y-92885714D01*
X170312295Y-92885714D02*
X170350390Y-92809523D01*
X170350390Y-92809523D02*
X170388485Y-92771428D01*
X170388485Y-92771428D02*
X170464676Y-92733333D01*
X170464676Y-92733333D02*
X170540866Y-92733333D01*
X170540866Y-92733333D02*
X170655152Y-92771428D01*
X170655152Y-92771428D02*
X171112295Y-93228571D01*
X171112295Y-93228571D02*
X171112295Y-92733333D01*
X170312295Y-92238094D02*
X170312295Y-92161904D01*
X170312295Y-92161904D02*
X170350390Y-92085713D01*
X170350390Y-92085713D02*
X170388485Y-92047618D01*
X170388485Y-92047618D02*
X170464676Y-92009523D01*
X170464676Y-92009523D02*
X170617057Y-91971428D01*
X170617057Y-91971428D02*
X170807533Y-91971428D01*
X170807533Y-91971428D02*
X170959914Y-92009523D01*
X170959914Y-92009523D02*
X171036104Y-92047618D01*
X171036104Y-92047618D02*
X171074200Y-92085713D01*
X171074200Y-92085713D02*
X171112295Y-92161904D01*
X171112295Y-92161904D02*
X171112295Y-92238094D01*
X171112295Y-92238094D02*
X171074200Y-92314285D01*
X171074200Y-92314285D02*
X171036104Y-92352380D01*
X171036104Y-92352380D02*
X170959914Y-92390475D01*
X170959914Y-92390475D02*
X170807533Y-92428571D01*
X170807533Y-92428571D02*
X170617057Y-92428571D01*
X170617057Y-92428571D02*
X170464676Y-92390475D01*
X170464676Y-92390475D02*
X170388485Y-92352380D01*
X170388485Y-92352380D02*
X170350390Y-92314285D01*
X170350390Y-92314285D02*
X170312295Y-92238094D01*
X170578961Y-91285713D02*
X171112295Y-91285713D01*
X170274200Y-91476189D02*
X170845628Y-91666666D01*
X170845628Y-91666666D02*
X170845628Y-91171427D01*
X168062295Y-107721428D02*
X168709914Y-107721428D01*
X168709914Y-107721428D02*
X168786104Y-107683333D01*
X168786104Y-107683333D02*
X168824200Y-107645238D01*
X168824200Y-107645238D02*
X168862295Y-107569047D01*
X168862295Y-107569047D02*
X168862295Y-107416666D01*
X168862295Y-107416666D02*
X168824200Y-107340476D01*
X168824200Y-107340476D02*
X168786104Y-107302381D01*
X168786104Y-107302381D02*
X168709914Y-107264285D01*
X168709914Y-107264285D02*
X168062295Y-107264285D01*
X168062295Y-106959524D02*
X168062295Y-106464286D01*
X168062295Y-106464286D02*
X168367057Y-106730952D01*
X168367057Y-106730952D02*
X168367057Y-106616667D01*
X168367057Y-106616667D02*
X168405152Y-106540476D01*
X168405152Y-106540476D02*
X168443247Y-106502381D01*
X168443247Y-106502381D02*
X168519438Y-106464286D01*
X168519438Y-106464286D02*
X168709914Y-106464286D01*
X168709914Y-106464286D02*
X168786104Y-106502381D01*
X168786104Y-106502381D02*
X168824200Y-106540476D01*
X168824200Y-106540476D02*
X168862295Y-106616667D01*
X168862295Y-106616667D02*
X168862295Y-106845238D01*
X168862295Y-106845238D02*
X168824200Y-106921429D01*
X168824200Y-106921429D02*
X168786104Y-106959524D01*
X168062295Y-105969047D02*
X168062295Y-105892857D01*
X168062295Y-105892857D02*
X168100390Y-105816666D01*
X168100390Y-105816666D02*
X168138485Y-105778571D01*
X168138485Y-105778571D02*
X168214676Y-105740476D01*
X168214676Y-105740476D02*
X168367057Y-105702381D01*
X168367057Y-105702381D02*
X168557533Y-105702381D01*
X168557533Y-105702381D02*
X168709914Y-105740476D01*
X168709914Y-105740476D02*
X168786104Y-105778571D01*
X168786104Y-105778571D02*
X168824200Y-105816666D01*
X168824200Y-105816666D02*
X168862295Y-105892857D01*
X168862295Y-105892857D02*
X168862295Y-105969047D01*
X168862295Y-105969047D02*
X168824200Y-106045238D01*
X168824200Y-106045238D02*
X168786104Y-106083333D01*
X168786104Y-106083333D02*
X168709914Y-106121428D01*
X168709914Y-106121428D02*
X168557533Y-106159524D01*
X168557533Y-106159524D02*
X168367057Y-106159524D01*
X168367057Y-106159524D02*
X168214676Y-106121428D01*
X168214676Y-106121428D02*
X168138485Y-106083333D01*
X168138485Y-106083333D02*
X168100390Y-106045238D01*
X168100390Y-106045238D02*
X168062295Y-105969047D01*
X168062295Y-105435714D02*
X168062295Y-104940476D01*
X168062295Y-104940476D02*
X168367057Y-105207142D01*
X168367057Y-105207142D02*
X168367057Y-105092857D01*
X168367057Y-105092857D02*
X168405152Y-105016666D01*
X168405152Y-105016666D02*
X168443247Y-104978571D01*
X168443247Y-104978571D02*
X168519438Y-104940476D01*
X168519438Y-104940476D02*
X168709914Y-104940476D01*
X168709914Y-104940476D02*
X168786104Y-104978571D01*
X168786104Y-104978571D02*
X168824200Y-105016666D01*
X168824200Y-105016666D02*
X168862295Y-105092857D01*
X168862295Y-105092857D02*
X168862295Y-105321428D01*
X168862295Y-105321428D02*
X168824200Y-105397619D01*
X168824200Y-105397619D02*
X168786104Y-105435714D01*
X175504762Y-106986104D02*
X175466666Y-107024200D01*
X175466666Y-107024200D02*
X175352381Y-107062295D01*
X175352381Y-107062295D02*
X175276190Y-107062295D01*
X175276190Y-107062295D02*
X175161904Y-107024200D01*
X175161904Y-107024200D02*
X175085714Y-106948009D01*
X175085714Y-106948009D02*
X175047619Y-106871819D01*
X175047619Y-106871819D02*
X175009523Y-106719438D01*
X175009523Y-106719438D02*
X175009523Y-106605152D01*
X175009523Y-106605152D02*
X175047619Y-106452771D01*
X175047619Y-106452771D02*
X175085714Y-106376580D01*
X175085714Y-106376580D02*
X175161904Y-106300390D01*
X175161904Y-106300390D02*
X175276190Y-106262295D01*
X175276190Y-106262295D02*
X175352381Y-106262295D01*
X175352381Y-106262295D02*
X175466666Y-106300390D01*
X175466666Y-106300390D02*
X175504762Y-106338485D01*
X176190476Y-106262295D02*
X176038095Y-106262295D01*
X176038095Y-106262295D02*
X175961904Y-106300390D01*
X175961904Y-106300390D02*
X175923809Y-106338485D01*
X175923809Y-106338485D02*
X175847619Y-106452771D01*
X175847619Y-106452771D02*
X175809523Y-106605152D01*
X175809523Y-106605152D02*
X175809523Y-106909914D01*
X175809523Y-106909914D02*
X175847619Y-106986104D01*
X175847619Y-106986104D02*
X175885714Y-107024200D01*
X175885714Y-107024200D02*
X175961904Y-107062295D01*
X175961904Y-107062295D02*
X176114285Y-107062295D01*
X176114285Y-107062295D02*
X176190476Y-107024200D01*
X176190476Y-107024200D02*
X176228571Y-106986104D01*
X176228571Y-106986104D02*
X176266666Y-106909914D01*
X176266666Y-106909914D02*
X176266666Y-106719438D01*
X176266666Y-106719438D02*
X176228571Y-106643247D01*
X176228571Y-106643247D02*
X176190476Y-106605152D01*
X176190476Y-106605152D02*
X176114285Y-106567057D01*
X176114285Y-106567057D02*
X175961904Y-106567057D01*
X175961904Y-106567057D02*
X175885714Y-106605152D01*
X175885714Y-106605152D02*
X175847619Y-106643247D01*
X175847619Y-106643247D02*
X175809523Y-106719438D01*
X176761905Y-106262295D02*
X176838095Y-106262295D01*
X176838095Y-106262295D02*
X176914286Y-106300390D01*
X176914286Y-106300390D02*
X176952381Y-106338485D01*
X176952381Y-106338485D02*
X176990476Y-106414676D01*
X176990476Y-106414676D02*
X177028571Y-106567057D01*
X177028571Y-106567057D02*
X177028571Y-106757533D01*
X177028571Y-106757533D02*
X176990476Y-106909914D01*
X176990476Y-106909914D02*
X176952381Y-106986104D01*
X176952381Y-106986104D02*
X176914286Y-107024200D01*
X176914286Y-107024200D02*
X176838095Y-107062295D01*
X176838095Y-107062295D02*
X176761905Y-107062295D01*
X176761905Y-107062295D02*
X176685714Y-107024200D01*
X176685714Y-107024200D02*
X176647619Y-106986104D01*
X176647619Y-106986104D02*
X176609524Y-106909914D01*
X176609524Y-106909914D02*
X176571428Y-106757533D01*
X176571428Y-106757533D02*
X176571428Y-106567057D01*
X176571428Y-106567057D02*
X176609524Y-106414676D01*
X176609524Y-106414676D02*
X176647619Y-106338485D01*
X176647619Y-106338485D02*
X176685714Y-106300390D01*
X176685714Y-106300390D02*
X176761905Y-106262295D01*
X177790476Y-107062295D02*
X177333333Y-107062295D01*
X177561905Y-107062295D02*
X177561905Y-106262295D01*
X177561905Y-106262295D02*
X177485714Y-106376580D01*
X177485714Y-106376580D02*
X177409524Y-106452771D01*
X177409524Y-106452771D02*
X177333333Y-106490866D01*
X172864286Y-115957200D02*
X173007143Y-116004819D01*
X173007143Y-116004819D02*
X173245238Y-116004819D01*
X173245238Y-116004819D02*
X173340476Y-115957200D01*
X173340476Y-115957200D02*
X173388095Y-115909580D01*
X173388095Y-115909580D02*
X173435714Y-115814342D01*
X173435714Y-115814342D02*
X173435714Y-115719104D01*
X173435714Y-115719104D02*
X173388095Y-115623866D01*
X173388095Y-115623866D02*
X173340476Y-115576247D01*
X173340476Y-115576247D02*
X173245238Y-115528628D01*
X173245238Y-115528628D02*
X173054762Y-115481009D01*
X173054762Y-115481009D02*
X172959524Y-115433390D01*
X172959524Y-115433390D02*
X172911905Y-115385771D01*
X172911905Y-115385771D02*
X172864286Y-115290533D01*
X172864286Y-115290533D02*
X172864286Y-115195295D01*
X172864286Y-115195295D02*
X172911905Y-115100057D01*
X172911905Y-115100057D02*
X172959524Y-115052438D01*
X172959524Y-115052438D02*
X173054762Y-115004819D01*
X173054762Y-115004819D02*
X173292857Y-115004819D01*
X173292857Y-115004819D02*
X173435714Y-115052438D01*
X173769048Y-115004819D02*
X174007143Y-116004819D01*
X174007143Y-116004819D02*
X174197619Y-115290533D01*
X174197619Y-115290533D02*
X174388095Y-116004819D01*
X174388095Y-116004819D02*
X174626191Y-115004819D01*
X174911905Y-115004819D02*
X175530952Y-115004819D01*
X175530952Y-115004819D02*
X175197619Y-115385771D01*
X175197619Y-115385771D02*
X175340476Y-115385771D01*
X175340476Y-115385771D02*
X175435714Y-115433390D01*
X175435714Y-115433390D02*
X175483333Y-115481009D01*
X175483333Y-115481009D02*
X175530952Y-115576247D01*
X175530952Y-115576247D02*
X175530952Y-115814342D01*
X175530952Y-115814342D02*
X175483333Y-115909580D01*
X175483333Y-115909580D02*
X175435714Y-115957200D01*
X175435714Y-115957200D02*
X175340476Y-116004819D01*
X175340476Y-116004819D02*
X175054762Y-116004819D01*
X175054762Y-116004819D02*
X174959524Y-115957200D01*
X174959524Y-115957200D02*
X174911905Y-115909580D01*
X176150000Y-115004819D02*
X176245238Y-115004819D01*
X176245238Y-115004819D02*
X176340476Y-115052438D01*
X176340476Y-115052438D02*
X176388095Y-115100057D01*
X176388095Y-115100057D02*
X176435714Y-115195295D01*
X176435714Y-115195295D02*
X176483333Y-115385771D01*
X176483333Y-115385771D02*
X176483333Y-115623866D01*
X176483333Y-115623866D02*
X176435714Y-115814342D01*
X176435714Y-115814342D02*
X176388095Y-115909580D01*
X176388095Y-115909580D02*
X176340476Y-115957200D01*
X176340476Y-115957200D02*
X176245238Y-116004819D01*
X176245238Y-116004819D02*
X176150000Y-116004819D01*
X176150000Y-116004819D02*
X176054762Y-115957200D01*
X176054762Y-115957200D02*
X176007143Y-115909580D01*
X176007143Y-115909580D02*
X175959524Y-115814342D01*
X175959524Y-115814342D02*
X175911905Y-115623866D01*
X175911905Y-115623866D02*
X175911905Y-115385771D01*
X175911905Y-115385771D02*
X175959524Y-115195295D01*
X175959524Y-115195295D02*
X176007143Y-115100057D01*
X176007143Y-115100057D02*
X176054762Y-115052438D01*
X176054762Y-115052438D02*
X176150000Y-115004819D01*
X177435714Y-116004819D02*
X176864286Y-116004819D01*
X177150000Y-116004819D02*
X177150000Y-115004819D01*
X177150000Y-115004819D02*
X177054762Y-115147676D01*
X177054762Y-115147676D02*
X176959524Y-115242914D01*
X176959524Y-115242914D02*
X176864286Y-115290533D01*
X154009580Y-85119047D02*
X154057200Y-85166666D01*
X154057200Y-85166666D02*
X154104819Y-85309523D01*
X154104819Y-85309523D02*
X154104819Y-85404761D01*
X154104819Y-85404761D02*
X154057200Y-85547618D01*
X154057200Y-85547618D02*
X153961961Y-85642856D01*
X153961961Y-85642856D02*
X153866723Y-85690475D01*
X153866723Y-85690475D02*
X153676247Y-85738094D01*
X153676247Y-85738094D02*
X153533390Y-85738094D01*
X153533390Y-85738094D02*
X153342914Y-85690475D01*
X153342914Y-85690475D02*
X153247676Y-85642856D01*
X153247676Y-85642856D02*
X153152438Y-85547618D01*
X153152438Y-85547618D02*
X153104819Y-85404761D01*
X153104819Y-85404761D02*
X153104819Y-85309523D01*
X153104819Y-85309523D02*
X153152438Y-85166666D01*
X153152438Y-85166666D02*
X153200057Y-85119047D01*
X153104819Y-84785713D02*
X153104819Y-84166666D01*
X153104819Y-84166666D02*
X153485771Y-84499999D01*
X153485771Y-84499999D02*
X153485771Y-84357142D01*
X153485771Y-84357142D02*
X153533390Y-84261904D01*
X153533390Y-84261904D02*
X153581009Y-84214285D01*
X153581009Y-84214285D02*
X153676247Y-84166666D01*
X153676247Y-84166666D02*
X153914342Y-84166666D01*
X153914342Y-84166666D02*
X154009580Y-84214285D01*
X154009580Y-84214285D02*
X154057200Y-84261904D01*
X154057200Y-84261904D02*
X154104819Y-84357142D01*
X154104819Y-84357142D02*
X154104819Y-84642856D01*
X154104819Y-84642856D02*
X154057200Y-84738094D01*
X154057200Y-84738094D02*
X154009580Y-84785713D01*
X153104819Y-83547618D02*
X153104819Y-83452380D01*
X153104819Y-83452380D02*
X153152438Y-83357142D01*
X153152438Y-83357142D02*
X153200057Y-83309523D01*
X153200057Y-83309523D02*
X153295295Y-83261904D01*
X153295295Y-83261904D02*
X153485771Y-83214285D01*
X153485771Y-83214285D02*
X153723866Y-83214285D01*
X153723866Y-83214285D02*
X153914342Y-83261904D01*
X153914342Y-83261904D02*
X154009580Y-83309523D01*
X154009580Y-83309523D02*
X154057200Y-83357142D01*
X154057200Y-83357142D02*
X154104819Y-83452380D01*
X154104819Y-83452380D02*
X154104819Y-83547618D01*
X154104819Y-83547618D02*
X154057200Y-83642856D01*
X154057200Y-83642856D02*
X154009580Y-83690475D01*
X154009580Y-83690475D02*
X153914342Y-83738094D01*
X153914342Y-83738094D02*
X153723866Y-83785713D01*
X153723866Y-83785713D02*
X153485771Y-83785713D01*
X153485771Y-83785713D02*
X153295295Y-83738094D01*
X153295295Y-83738094D02*
X153200057Y-83690475D01*
X153200057Y-83690475D02*
X153152438Y-83642856D01*
X153152438Y-83642856D02*
X153104819Y-83547618D01*
X153104819Y-82880951D02*
X153104819Y-82261904D01*
X153104819Y-82261904D02*
X153485771Y-82595237D01*
X153485771Y-82595237D02*
X153485771Y-82452380D01*
X153485771Y-82452380D02*
X153533390Y-82357142D01*
X153533390Y-82357142D02*
X153581009Y-82309523D01*
X153581009Y-82309523D02*
X153676247Y-82261904D01*
X153676247Y-82261904D02*
X153914342Y-82261904D01*
X153914342Y-82261904D02*
X154009580Y-82309523D01*
X154009580Y-82309523D02*
X154057200Y-82357142D01*
X154057200Y-82357142D02*
X154104819Y-82452380D01*
X154104819Y-82452380D02*
X154104819Y-82738094D01*
X154104819Y-82738094D02*
X154057200Y-82833332D01*
X154057200Y-82833332D02*
X154009580Y-82880951D01*
X171154762Y-101912295D02*
X170888095Y-101531342D01*
X170697619Y-101912295D02*
X170697619Y-101112295D01*
X170697619Y-101112295D02*
X171002381Y-101112295D01*
X171002381Y-101112295D02*
X171078571Y-101150390D01*
X171078571Y-101150390D02*
X171116666Y-101188485D01*
X171116666Y-101188485D02*
X171154762Y-101264676D01*
X171154762Y-101264676D02*
X171154762Y-101378961D01*
X171154762Y-101378961D02*
X171116666Y-101455152D01*
X171116666Y-101455152D02*
X171078571Y-101493247D01*
X171078571Y-101493247D02*
X171002381Y-101531342D01*
X171002381Y-101531342D02*
X170697619Y-101531342D01*
X171840476Y-101112295D02*
X171688095Y-101112295D01*
X171688095Y-101112295D02*
X171611904Y-101150390D01*
X171611904Y-101150390D02*
X171573809Y-101188485D01*
X171573809Y-101188485D02*
X171497619Y-101302771D01*
X171497619Y-101302771D02*
X171459523Y-101455152D01*
X171459523Y-101455152D02*
X171459523Y-101759914D01*
X171459523Y-101759914D02*
X171497619Y-101836104D01*
X171497619Y-101836104D02*
X171535714Y-101874200D01*
X171535714Y-101874200D02*
X171611904Y-101912295D01*
X171611904Y-101912295D02*
X171764285Y-101912295D01*
X171764285Y-101912295D02*
X171840476Y-101874200D01*
X171840476Y-101874200D02*
X171878571Y-101836104D01*
X171878571Y-101836104D02*
X171916666Y-101759914D01*
X171916666Y-101759914D02*
X171916666Y-101569438D01*
X171916666Y-101569438D02*
X171878571Y-101493247D01*
X171878571Y-101493247D02*
X171840476Y-101455152D01*
X171840476Y-101455152D02*
X171764285Y-101417057D01*
X171764285Y-101417057D02*
X171611904Y-101417057D01*
X171611904Y-101417057D02*
X171535714Y-101455152D01*
X171535714Y-101455152D02*
X171497619Y-101493247D01*
X171497619Y-101493247D02*
X171459523Y-101569438D01*
X172411905Y-101112295D02*
X172488095Y-101112295D01*
X172488095Y-101112295D02*
X172564286Y-101150390D01*
X172564286Y-101150390D02*
X172602381Y-101188485D01*
X172602381Y-101188485D02*
X172640476Y-101264676D01*
X172640476Y-101264676D02*
X172678571Y-101417057D01*
X172678571Y-101417057D02*
X172678571Y-101607533D01*
X172678571Y-101607533D02*
X172640476Y-101759914D01*
X172640476Y-101759914D02*
X172602381Y-101836104D01*
X172602381Y-101836104D02*
X172564286Y-101874200D01*
X172564286Y-101874200D02*
X172488095Y-101912295D01*
X172488095Y-101912295D02*
X172411905Y-101912295D01*
X172411905Y-101912295D02*
X172335714Y-101874200D01*
X172335714Y-101874200D02*
X172297619Y-101836104D01*
X172297619Y-101836104D02*
X172259524Y-101759914D01*
X172259524Y-101759914D02*
X172221428Y-101607533D01*
X172221428Y-101607533D02*
X172221428Y-101417057D01*
X172221428Y-101417057D02*
X172259524Y-101264676D01*
X172259524Y-101264676D02*
X172297619Y-101188485D01*
X172297619Y-101188485D02*
X172335714Y-101150390D01*
X172335714Y-101150390D02*
X172411905Y-101112295D01*
X173440476Y-101912295D02*
X172983333Y-101912295D01*
X173211905Y-101912295D02*
X173211905Y-101112295D01*
X173211905Y-101112295D02*
X173135714Y-101226580D01*
X173135714Y-101226580D02*
X173059524Y-101302771D01*
X173059524Y-101302771D02*
X172983333Y-101340866D01*
X137080319Y-109512891D02*
X136507900Y-109411876D01*
X136676258Y-109916952D02*
X135969151Y-109209845D01*
X135969151Y-109209845D02*
X136238525Y-108940471D01*
X136238525Y-108940471D02*
X136339541Y-108906799D01*
X136339541Y-108906799D02*
X136406884Y-108906799D01*
X136406884Y-108906799D02*
X136507900Y-108940471D01*
X136507900Y-108940471D02*
X136608915Y-109041486D01*
X136608915Y-109041486D02*
X136642587Y-109142502D01*
X136642587Y-109142502D02*
X136642587Y-109209845D01*
X136642587Y-109209845D02*
X136608915Y-109310860D01*
X136608915Y-109310860D02*
X136339541Y-109580234D01*
X136608915Y-108570082D02*
X137046648Y-108132349D01*
X137046648Y-108132349D02*
X137080319Y-108637425D01*
X137080319Y-108637425D02*
X137181335Y-108536410D01*
X137181335Y-108536410D02*
X137282350Y-108502738D01*
X137282350Y-108502738D02*
X137349693Y-108502738D01*
X137349693Y-108502738D02*
X137450709Y-108536410D01*
X137450709Y-108536410D02*
X137619067Y-108704769D01*
X137619067Y-108704769D02*
X137652739Y-108805784D01*
X137652739Y-108805784D02*
X137652739Y-108873128D01*
X137652739Y-108873128D02*
X137619067Y-108974143D01*
X137619067Y-108974143D02*
X137417037Y-109176173D01*
X137417037Y-109176173D02*
X137316022Y-109209845D01*
X137316022Y-109209845D02*
X137248678Y-109209845D01*
X137484380Y-107694616D02*
X137551724Y-107627273D01*
X137551724Y-107627273D02*
X137652739Y-107593601D01*
X137652739Y-107593601D02*
X137720083Y-107593601D01*
X137720083Y-107593601D02*
X137821098Y-107627273D01*
X137821098Y-107627273D02*
X137989457Y-107728288D01*
X137989457Y-107728288D02*
X138157815Y-107896647D01*
X138157815Y-107896647D02*
X138258831Y-108065006D01*
X138258831Y-108065006D02*
X138292502Y-108166021D01*
X138292502Y-108166021D02*
X138292502Y-108233364D01*
X138292502Y-108233364D02*
X138258831Y-108334380D01*
X138258831Y-108334380D02*
X138191487Y-108401723D01*
X138191487Y-108401723D02*
X138090472Y-108435395D01*
X138090472Y-108435395D02*
X138023128Y-108435395D01*
X138023128Y-108435395D02*
X137922113Y-108401723D01*
X137922113Y-108401723D02*
X137753754Y-108300708D01*
X137753754Y-108300708D02*
X137585396Y-108132349D01*
X137585396Y-108132349D02*
X137484380Y-107963990D01*
X137484380Y-107963990D02*
X137450709Y-107862975D01*
X137450709Y-107862975D02*
X137450709Y-107795632D01*
X137450709Y-107795632D02*
X137484380Y-107694616D01*
X138561876Y-107088525D02*
X139033281Y-107559929D01*
X138124144Y-106987510D02*
X138460861Y-107660945D01*
X138460861Y-107660945D02*
X138898594Y-107223212D01*
X127373152Y-79039210D02*
X126915216Y-78958398D01*
X127049903Y-79362459D02*
X126484218Y-78796773D01*
X126484218Y-78796773D02*
X126699717Y-78581274D01*
X126699717Y-78581274D02*
X126780529Y-78554337D01*
X126780529Y-78554337D02*
X126834404Y-78554337D01*
X126834404Y-78554337D02*
X126915216Y-78581274D01*
X126915216Y-78581274D02*
X126996028Y-78662086D01*
X126996028Y-78662086D02*
X127022966Y-78742898D01*
X127022966Y-78742898D02*
X127022966Y-78796773D01*
X127022966Y-78796773D02*
X126996028Y-78877585D01*
X126996028Y-78877585D02*
X126780529Y-79093085D01*
X127319277Y-77961714D02*
X127049903Y-78231088D01*
X127049903Y-78231088D02*
X127292340Y-78527399D01*
X127292340Y-78527399D02*
X127292340Y-78473524D01*
X127292340Y-78473524D02*
X127319277Y-78392712D01*
X127319277Y-78392712D02*
X127453964Y-78258025D01*
X127453964Y-78258025D02*
X127534776Y-78231088D01*
X127534776Y-78231088D02*
X127588651Y-78231088D01*
X127588651Y-78231088D02*
X127669464Y-78258025D01*
X127669464Y-78258025D02*
X127804151Y-78392712D01*
X127804151Y-78392712D02*
X127831088Y-78473524D01*
X127831088Y-78473524D02*
X127831088Y-78527399D01*
X127831088Y-78527399D02*
X127804151Y-78608211D01*
X127804151Y-78608211D02*
X127669464Y-78742898D01*
X127669464Y-78742898D02*
X127588651Y-78769836D01*
X127588651Y-78769836D02*
X127534776Y-78769836D01*
X127696401Y-77584590D02*
X127750276Y-77530715D01*
X127750276Y-77530715D02*
X127831088Y-77503778D01*
X127831088Y-77503778D02*
X127884963Y-77503778D01*
X127884963Y-77503778D02*
X127965775Y-77530715D01*
X127965775Y-77530715D02*
X128100462Y-77611527D01*
X128100462Y-77611527D02*
X128235149Y-77746214D01*
X128235149Y-77746214D02*
X128315961Y-77880901D01*
X128315961Y-77880901D02*
X128342899Y-77961714D01*
X128342899Y-77961714D02*
X128342899Y-78015588D01*
X128342899Y-78015588D02*
X128315961Y-78096401D01*
X128315961Y-78096401D02*
X128262087Y-78150275D01*
X128262087Y-78150275D02*
X128181274Y-78177213D01*
X128181274Y-78177213D02*
X128127399Y-78177213D01*
X128127399Y-78177213D02*
X128046587Y-78150275D01*
X128046587Y-78150275D02*
X127911900Y-78069463D01*
X127911900Y-78069463D02*
X127777213Y-77934776D01*
X127777213Y-77934776D02*
X127696401Y-77800089D01*
X127696401Y-77800089D02*
X127669464Y-77719277D01*
X127669464Y-77719277D02*
X127669464Y-77665402D01*
X127669464Y-77665402D02*
X127696401Y-77584590D01*
X128558398Y-77099717D02*
X128935522Y-77476840D01*
X128208212Y-77018904D02*
X128477586Y-77557652D01*
X128477586Y-77557652D02*
X128827772Y-77207466D01*
X171509580Y-76719047D02*
X171557200Y-76766666D01*
X171557200Y-76766666D02*
X171604819Y-76909523D01*
X171604819Y-76909523D02*
X171604819Y-77004761D01*
X171604819Y-77004761D02*
X171557200Y-77147618D01*
X171557200Y-77147618D02*
X171461961Y-77242856D01*
X171461961Y-77242856D02*
X171366723Y-77290475D01*
X171366723Y-77290475D02*
X171176247Y-77338094D01*
X171176247Y-77338094D02*
X171033390Y-77338094D01*
X171033390Y-77338094D02*
X170842914Y-77290475D01*
X170842914Y-77290475D02*
X170747676Y-77242856D01*
X170747676Y-77242856D02*
X170652438Y-77147618D01*
X170652438Y-77147618D02*
X170604819Y-77004761D01*
X170604819Y-77004761D02*
X170604819Y-76909523D01*
X170604819Y-76909523D02*
X170652438Y-76766666D01*
X170652438Y-76766666D02*
X170700057Y-76719047D01*
X170700057Y-76338094D02*
X170652438Y-76290475D01*
X170652438Y-76290475D02*
X170604819Y-76195237D01*
X170604819Y-76195237D02*
X170604819Y-75957142D01*
X170604819Y-75957142D02*
X170652438Y-75861904D01*
X170652438Y-75861904D02*
X170700057Y-75814285D01*
X170700057Y-75814285D02*
X170795295Y-75766666D01*
X170795295Y-75766666D02*
X170890533Y-75766666D01*
X170890533Y-75766666D02*
X171033390Y-75814285D01*
X171033390Y-75814285D02*
X171604819Y-76385713D01*
X171604819Y-76385713D02*
X171604819Y-75766666D01*
X170604819Y-75147618D02*
X170604819Y-75052380D01*
X170604819Y-75052380D02*
X170652438Y-74957142D01*
X170652438Y-74957142D02*
X170700057Y-74909523D01*
X170700057Y-74909523D02*
X170795295Y-74861904D01*
X170795295Y-74861904D02*
X170985771Y-74814285D01*
X170985771Y-74814285D02*
X171223866Y-74814285D01*
X171223866Y-74814285D02*
X171414342Y-74861904D01*
X171414342Y-74861904D02*
X171509580Y-74909523D01*
X171509580Y-74909523D02*
X171557200Y-74957142D01*
X171557200Y-74957142D02*
X171604819Y-75052380D01*
X171604819Y-75052380D02*
X171604819Y-75147618D01*
X171604819Y-75147618D02*
X171557200Y-75242856D01*
X171557200Y-75242856D02*
X171509580Y-75290475D01*
X171509580Y-75290475D02*
X171414342Y-75338094D01*
X171414342Y-75338094D02*
X171223866Y-75385713D01*
X171223866Y-75385713D02*
X170985771Y-75385713D01*
X170985771Y-75385713D02*
X170795295Y-75338094D01*
X170795295Y-75338094D02*
X170700057Y-75290475D01*
X170700057Y-75290475D02*
X170652438Y-75242856D01*
X170652438Y-75242856D02*
X170604819Y-75147618D01*
X170604819Y-74480951D02*
X170604819Y-73814285D01*
X170604819Y-73814285D02*
X171604819Y-74242856D01*
X167380952Y-120159580D02*
X167333333Y-120207200D01*
X167333333Y-120207200D02*
X167190476Y-120254819D01*
X167190476Y-120254819D02*
X167095238Y-120254819D01*
X167095238Y-120254819D02*
X166952381Y-120207200D01*
X166952381Y-120207200D02*
X166857143Y-120111961D01*
X166857143Y-120111961D02*
X166809524Y-120016723D01*
X166809524Y-120016723D02*
X166761905Y-119826247D01*
X166761905Y-119826247D02*
X166761905Y-119683390D01*
X166761905Y-119683390D02*
X166809524Y-119492914D01*
X166809524Y-119492914D02*
X166857143Y-119397676D01*
X166857143Y-119397676D02*
X166952381Y-119302438D01*
X166952381Y-119302438D02*
X167095238Y-119254819D01*
X167095238Y-119254819D02*
X167190476Y-119254819D01*
X167190476Y-119254819D02*
X167333333Y-119302438D01*
X167333333Y-119302438D02*
X167380952Y-119350057D01*
X167714286Y-119254819D02*
X168333333Y-119254819D01*
X168333333Y-119254819D02*
X168000000Y-119635771D01*
X168000000Y-119635771D02*
X168142857Y-119635771D01*
X168142857Y-119635771D02*
X168238095Y-119683390D01*
X168238095Y-119683390D02*
X168285714Y-119731009D01*
X168285714Y-119731009D02*
X168333333Y-119826247D01*
X168333333Y-119826247D02*
X168333333Y-120064342D01*
X168333333Y-120064342D02*
X168285714Y-120159580D01*
X168285714Y-120159580D02*
X168238095Y-120207200D01*
X168238095Y-120207200D02*
X168142857Y-120254819D01*
X168142857Y-120254819D02*
X167857143Y-120254819D01*
X167857143Y-120254819D02*
X167761905Y-120207200D01*
X167761905Y-120207200D02*
X167714286Y-120159580D01*
X168952381Y-119254819D02*
X169047619Y-119254819D01*
X169047619Y-119254819D02*
X169142857Y-119302438D01*
X169142857Y-119302438D02*
X169190476Y-119350057D01*
X169190476Y-119350057D02*
X169238095Y-119445295D01*
X169238095Y-119445295D02*
X169285714Y-119635771D01*
X169285714Y-119635771D02*
X169285714Y-119873866D01*
X169285714Y-119873866D02*
X169238095Y-120064342D01*
X169238095Y-120064342D02*
X169190476Y-120159580D01*
X169190476Y-120159580D02*
X169142857Y-120207200D01*
X169142857Y-120207200D02*
X169047619Y-120254819D01*
X169047619Y-120254819D02*
X168952381Y-120254819D01*
X168952381Y-120254819D02*
X168857143Y-120207200D01*
X168857143Y-120207200D02*
X168809524Y-120159580D01*
X168809524Y-120159580D02*
X168761905Y-120064342D01*
X168761905Y-120064342D02*
X168714286Y-119873866D01*
X168714286Y-119873866D02*
X168714286Y-119635771D01*
X168714286Y-119635771D02*
X168761905Y-119445295D01*
X168761905Y-119445295D02*
X168809524Y-119350057D01*
X168809524Y-119350057D02*
X168857143Y-119302438D01*
X168857143Y-119302438D02*
X168952381Y-119254819D01*
X170142857Y-119588152D02*
X170142857Y-120254819D01*
X169904762Y-119207200D02*
X169666667Y-119921485D01*
X169666667Y-119921485D02*
X170285714Y-119921485D01*
X178104762Y-84012295D02*
X177838095Y-83631342D01*
X177647619Y-84012295D02*
X177647619Y-83212295D01*
X177647619Y-83212295D02*
X177952381Y-83212295D01*
X177952381Y-83212295D02*
X178028571Y-83250390D01*
X178028571Y-83250390D02*
X178066666Y-83288485D01*
X178066666Y-83288485D02*
X178104762Y-83364676D01*
X178104762Y-83364676D02*
X178104762Y-83478961D01*
X178104762Y-83478961D02*
X178066666Y-83555152D01*
X178066666Y-83555152D02*
X178028571Y-83593247D01*
X178028571Y-83593247D02*
X177952381Y-83631342D01*
X177952381Y-83631342D02*
X177647619Y-83631342D01*
X178409523Y-83288485D02*
X178447619Y-83250390D01*
X178447619Y-83250390D02*
X178523809Y-83212295D01*
X178523809Y-83212295D02*
X178714285Y-83212295D01*
X178714285Y-83212295D02*
X178790476Y-83250390D01*
X178790476Y-83250390D02*
X178828571Y-83288485D01*
X178828571Y-83288485D02*
X178866666Y-83364676D01*
X178866666Y-83364676D02*
X178866666Y-83440866D01*
X178866666Y-83440866D02*
X178828571Y-83555152D01*
X178828571Y-83555152D02*
X178371428Y-84012295D01*
X178371428Y-84012295D02*
X178866666Y-84012295D01*
X179361905Y-83212295D02*
X179438095Y-83212295D01*
X179438095Y-83212295D02*
X179514286Y-83250390D01*
X179514286Y-83250390D02*
X179552381Y-83288485D01*
X179552381Y-83288485D02*
X179590476Y-83364676D01*
X179590476Y-83364676D02*
X179628571Y-83517057D01*
X179628571Y-83517057D02*
X179628571Y-83707533D01*
X179628571Y-83707533D02*
X179590476Y-83859914D01*
X179590476Y-83859914D02*
X179552381Y-83936104D01*
X179552381Y-83936104D02*
X179514286Y-83974200D01*
X179514286Y-83974200D02*
X179438095Y-84012295D01*
X179438095Y-84012295D02*
X179361905Y-84012295D01*
X179361905Y-84012295D02*
X179285714Y-83974200D01*
X179285714Y-83974200D02*
X179247619Y-83936104D01*
X179247619Y-83936104D02*
X179209524Y-83859914D01*
X179209524Y-83859914D02*
X179171428Y-83707533D01*
X179171428Y-83707533D02*
X179171428Y-83517057D01*
X179171428Y-83517057D02*
X179209524Y-83364676D01*
X179209524Y-83364676D02*
X179247619Y-83288485D01*
X179247619Y-83288485D02*
X179285714Y-83250390D01*
X179285714Y-83250390D02*
X179361905Y-83212295D01*
X180314286Y-83212295D02*
X180161905Y-83212295D01*
X180161905Y-83212295D02*
X180085714Y-83250390D01*
X180085714Y-83250390D02*
X180047619Y-83288485D01*
X180047619Y-83288485D02*
X179971429Y-83402771D01*
X179971429Y-83402771D02*
X179933333Y-83555152D01*
X179933333Y-83555152D02*
X179933333Y-83859914D01*
X179933333Y-83859914D02*
X179971429Y-83936104D01*
X179971429Y-83936104D02*
X180009524Y-83974200D01*
X180009524Y-83974200D02*
X180085714Y-84012295D01*
X180085714Y-84012295D02*
X180238095Y-84012295D01*
X180238095Y-84012295D02*
X180314286Y-83974200D01*
X180314286Y-83974200D02*
X180352381Y-83936104D01*
X180352381Y-83936104D02*
X180390476Y-83859914D01*
X180390476Y-83859914D02*
X180390476Y-83669438D01*
X180390476Y-83669438D02*
X180352381Y-83593247D01*
X180352381Y-83593247D02*
X180314286Y-83555152D01*
X180314286Y-83555152D02*
X180238095Y-83517057D01*
X180238095Y-83517057D02*
X180085714Y-83517057D01*
X180085714Y-83517057D02*
X180009524Y-83555152D01*
X180009524Y-83555152D02*
X179971429Y-83593247D01*
X179971429Y-83593247D02*
X179933333Y-83669438D01*
X184004819Y-92685714D02*
X184719104Y-92685714D01*
X184719104Y-92685714D02*
X184861961Y-92733333D01*
X184861961Y-92733333D02*
X184957200Y-92828571D01*
X184957200Y-92828571D02*
X185004819Y-92971428D01*
X185004819Y-92971428D02*
X185004819Y-93066666D01*
X184100057Y-92257142D02*
X184052438Y-92209523D01*
X184052438Y-92209523D02*
X184004819Y-92114285D01*
X184004819Y-92114285D02*
X184004819Y-91876190D01*
X184004819Y-91876190D02*
X184052438Y-91780952D01*
X184052438Y-91780952D02*
X184100057Y-91733333D01*
X184100057Y-91733333D02*
X184195295Y-91685714D01*
X184195295Y-91685714D02*
X184290533Y-91685714D01*
X184290533Y-91685714D02*
X184433390Y-91733333D01*
X184433390Y-91733333D02*
X185004819Y-92304761D01*
X185004819Y-92304761D02*
X185004819Y-91685714D01*
X184004819Y-91066666D02*
X184004819Y-90971428D01*
X184004819Y-90971428D02*
X184052438Y-90876190D01*
X184052438Y-90876190D02*
X184100057Y-90828571D01*
X184100057Y-90828571D02*
X184195295Y-90780952D01*
X184195295Y-90780952D02*
X184385771Y-90733333D01*
X184385771Y-90733333D02*
X184623866Y-90733333D01*
X184623866Y-90733333D02*
X184814342Y-90780952D01*
X184814342Y-90780952D02*
X184909580Y-90828571D01*
X184909580Y-90828571D02*
X184957200Y-90876190D01*
X184957200Y-90876190D02*
X185004819Y-90971428D01*
X185004819Y-90971428D02*
X185004819Y-91066666D01*
X185004819Y-91066666D02*
X184957200Y-91161904D01*
X184957200Y-91161904D02*
X184909580Y-91209523D01*
X184909580Y-91209523D02*
X184814342Y-91257142D01*
X184814342Y-91257142D02*
X184623866Y-91304761D01*
X184623866Y-91304761D02*
X184385771Y-91304761D01*
X184385771Y-91304761D02*
X184195295Y-91257142D01*
X184195295Y-91257142D02*
X184100057Y-91209523D01*
X184100057Y-91209523D02*
X184052438Y-91161904D01*
X184052438Y-91161904D02*
X184004819Y-91066666D01*
X184100057Y-90352380D02*
X184052438Y-90304761D01*
X184052438Y-90304761D02*
X184004819Y-90209523D01*
X184004819Y-90209523D02*
X184004819Y-89971428D01*
X184004819Y-89971428D02*
X184052438Y-89876190D01*
X184052438Y-89876190D02*
X184100057Y-89828571D01*
X184100057Y-89828571D02*
X184195295Y-89780952D01*
X184195295Y-89780952D02*
X184290533Y-89780952D01*
X184290533Y-89780952D02*
X184433390Y-89828571D01*
X184433390Y-89828571D02*
X185004819Y-90399999D01*
X185004819Y-90399999D02*
X185004819Y-89780952D01*
D11*
%TO.C,U701*%
X151765000Y-105640000D02*
X151765000Y-105290000D01*
X151765000Y-109910000D02*
X151765000Y-109560000D01*
X157235000Y-105290000D02*
X157235000Y-105640000D01*
X157235000Y-109560000D02*
X157235000Y-109910000D01*
X152460000Y-111840000D02*
X151980000Y-111840000D01*
X152220000Y-111510000D01*
X152460000Y-111840000D01*
G36*
X152460000Y-111840000D02*
G01*
X151980000Y-111840000D01*
X152220000Y-111510000D01*
X152460000Y-111840000D01*
G37*
%TO.C,U201*%
X169740000Y-86757500D02*
X169260000Y-86757500D01*
X169500000Y-86427500D01*
X169740000Y-86757500D01*
G36*
X169740000Y-86757500D02*
G01*
X169260000Y-86757500D01*
X169500000Y-86427500D01*
X169740000Y-86757500D01*
G37*
X172860000Y-85897500D02*
X172385000Y-85897500D01*
X172860000Y-85422500D02*
X172860000Y-85897500D01*
X172860000Y-81677500D02*
X172860000Y-82152500D01*
X172385000Y-81677500D02*
X172860000Y-81677500D01*
X169115000Y-85897500D02*
X168640000Y-85897500D01*
X168640000Y-85897500D02*
X168640000Y-85422500D01*
X168640000Y-82152500D02*
X168640000Y-81677500D01*
X168640000Y-81677500D02*
X169115000Y-81677500D01*
%TO.C,C202*%
X165565580Y-85690000D02*
X165284420Y-85690000D01*
X165565580Y-86710000D02*
X165284420Y-86710000D01*
%TO.C,R502*%
X131425889Y-73990710D02*
X131208608Y-74207991D01*
X131963290Y-74528111D02*
X131746009Y-74745392D01*
%TO.C,Moteur701*%
X146740000Y-119700000D02*
X147350000Y-119700000D01*
X146740000Y-121000000D02*
X147350000Y-121000000D01*
X147350000Y-118200000D02*
X147350000Y-121700000D01*
X147350000Y-121700000D02*
X149300000Y-121700000D01*
X149300000Y-121700000D02*
X149300000Y-122310000D01*
X149700000Y-118700000D02*
X149700000Y-118200000D01*
X149800000Y-118200000D02*
X149800000Y-118700000D01*
X149900000Y-118200000D02*
X149900000Y-118700000D01*
X149900000Y-118700000D02*
X149700000Y-118700000D01*
X150300000Y-121700000D02*
X152250000Y-121700000D01*
X150300000Y-122310000D02*
X150300000Y-121700000D01*
X151100000Y-122310000D02*
X151100000Y-122510000D01*
X151100000Y-122410000D02*
X151400000Y-122410000D01*
X151100000Y-122510000D02*
X151400000Y-122510000D01*
X151400000Y-122510000D02*
X151400000Y-122310000D01*
X151910000Y-122610000D02*
X153160000Y-122610000D01*
X152250000Y-118200000D02*
X147350000Y-118200000D01*
X152250000Y-121700000D02*
X152250000Y-118200000D01*
X152860000Y-119700000D02*
X152250000Y-119700000D01*
X152860000Y-121000000D02*
X152250000Y-121000000D01*
X153160000Y-122610000D02*
X153160000Y-121360000D01*
X152860000Y-122310000D02*
X146740000Y-122310000D01*
X146740000Y-117590000D01*
X152860000Y-117590000D01*
X152860000Y-122310000D01*
%TO.C,R210*%
X190096359Y-97630000D02*
X190403641Y-97630000D01*
X190096359Y-96870000D02*
X190403641Y-96870000D01*
%TO.C,C204*%
X165234420Y-84090000D02*
X165515580Y-84090000D01*
X165234420Y-85110000D02*
X165515580Y-85110000D01*
%TO.C,J503*%
X130129292Y-108929292D02*
X131069744Y-107988840D01*
X131027318Y-111708222D02*
X132908222Y-109827318D01*
X131027318Y-111708222D02*
X140050000Y-120730904D01*
X131069744Y-107988840D02*
X132010196Y-108929292D01*
X132908222Y-109827318D02*
X141930904Y-118850000D01*
X140050000Y-120730904D02*
X141930904Y-118850000D01*
%TO.C,J302*%
X187785000Y-100910000D02*
X187785000Y-100845000D01*
X187785000Y-109955000D02*
X187785000Y-109890000D01*
X191415000Y-100845000D02*
X187785000Y-100845000D01*
X191415000Y-100910000D02*
X191415000Y-100845000D01*
X191415000Y-109955000D02*
X187785000Y-109955000D01*
X191415000Y-109955000D02*
X191415000Y-109890000D01*
X192690000Y-109890000D02*
X191415000Y-109890000D01*
%TO.C,J501*%
X130020000Y-88345000D02*
X130020000Y-101105000D01*
X130020000Y-88345000D02*
X132680000Y-88345000D01*
X130020000Y-101105000D02*
X132680000Y-101105000D01*
X131350000Y-85745000D02*
X132680000Y-85745000D01*
X132680000Y-85745000D02*
X132680000Y-87075000D01*
X132680000Y-88345000D02*
X132680000Y-101105000D01*
%TO.C,C203*%
X167040000Y-82942164D02*
X167040000Y-83157836D01*
X167760000Y-82942164D02*
X167760000Y-83157836D01*
%TO.C,U601*%
X173840000Y-102142298D02*
X174515000Y-102142298D01*
X173840000Y-102317298D02*
X173840000Y-102142298D01*
X173840000Y-104862298D02*
X173840000Y-104687298D01*
X174515000Y-104862298D02*
X173840000Y-104862298D01*
X176385000Y-102142298D02*
X177060000Y-102142298D01*
X177060000Y-102142298D02*
X177060000Y-102317298D01*
X177060000Y-104687298D02*
X177060000Y-104862298D01*
X177060000Y-104862298D02*
X176385000Y-104862298D01*
X173710000Y-102752298D02*
X173380000Y-102992298D01*
X173380000Y-102512298D01*
X173710000Y-102752298D01*
G36*
X173710000Y-102752298D02*
G01*
X173380000Y-102992298D01*
X173380000Y-102512298D01*
X173710000Y-102752298D01*
G37*
%TO.C,Rvmcu701*%
X160503641Y-110070000D02*
X160196359Y-110070000D01*
X160503641Y-110830000D02*
X160196359Y-110830000D01*
%TO.C,SW201*%
X186800000Y-76200000D02*
X186800000Y-80700000D01*
X189300000Y-81950000D02*
X190800000Y-81950000D01*
X190800000Y-74950000D02*
X189300000Y-74950000D01*
X193300000Y-80700000D02*
X193300000Y-76200000D01*
%TO.C,U301*%
X147128000Y-89468000D02*
X147428000Y-89468000D01*
X147128000Y-89768000D02*
X147128000Y-89468000D01*
X147128000Y-96688000D02*
X147128000Y-96388000D01*
X147428000Y-96688000D02*
X147128000Y-96688000D01*
X154048000Y-89468000D02*
X154348000Y-89468000D01*
X154348000Y-89468000D02*
X154348000Y-89768000D01*
X154348000Y-96388000D02*
X154348000Y-96688000D01*
X154348000Y-96688000D02*
X154048000Y-96688000D01*
X154528000Y-89168000D02*
X154058000Y-88828000D01*
X154528000Y-88488000D01*
X154528000Y-89168000D01*
G36*
X154528000Y-89168000D02*
G01*
X154058000Y-88828000D01*
X154528000Y-88488000D01*
X154528000Y-89168000D01*
G37*
%TO.C,C208*%
X188242164Y-83390000D02*
X188457836Y-83390000D01*
X188242164Y-84110000D02*
X188457836Y-84110000D01*
%TO.C,C201*%
X183240000Y-94142164D02*
X183240000Y-94357836D01*
X183960000Y-94142164D02*
X183960000Y-94357836D01*
%TO.C,C206*%
X172140000Y-79340580D02*
X172140000Y-79059420D01*
X173160000Y-79340580D02*
X173160000Y-79059420D01*
%TO.C,R208*%
X176216359Y-82220000D02*
X176523641Y-82220000D01*
X176216359Y-82980000D02*
X176523641Y-82980000D01*
%TO.C,C305*%
X144677836Y-94716750D02*
X144462164Y-94716750D01*
X144677836Y-95436750D02*
X144462164Y-95436750D01*
%TO.C,R305*%
X175870000Y-86346359D02*
X175870000Y-86653641D01*
X176630000Y-86346359D02*
X176630000Y-86653641D01*
%TO.C,D201*%
X173140000Y-96742164D02*
X173140000Y-96957836D01*
X173860000Y-96742164D02*
X173860000Y-96957836D01*
%TO.C,C309*%
X166207836Y-108960000D02*
X165992164Y-108960000D01*
X166207836Y-108240000D02*
X165992164Y-108240000D01*
%TO.C,C302*%
X154190000Y-87037836D02*
X154190000Y-86822164D01*
X154910000Y-87037836D02*
X154910000Y-86822164D01*
%TO.C,C701*%
X155090000Y-101742164D02*
X155090000Y-101957836D01*
X155810000Y-101742164D02*
X155810000Y-101957836D01*
%TO.C,J502*%
X129126994Y-78342102D02*
X131007898Y-80223006D01*
X138149676Y-69319420D02*
X129126994Y-78342102D01*
X138149676Y-69319420D02*
X140030580Y-71200324D01*
X140030580Y-71200324D02*
X131007898Y-80223006D01*
X140928606Y-68421394D02*
X141869058Y-69361846D01*
X141869058Y-69361846D02*
X140928606Y-70302298D01*
%TO.C,R303*%
X138379316Y-110433283D02*
X138162035Y-110650564D01*
X138916717Y-110970684D02*
X138699436Y-111187965D01*
%TO.C,R302*%
X158470000Y-89953641D02*
X158470000Y-89646359D01*
X159230000Y-89953641D02*
X159230000Y-89646359D01*
%TO.C,C801*%
X163509420Y-72740000D02*
X163790580Y-72740000D01*
X163509420Y-73760000D02*
X163790580Y-73760000D01*
%TO.C,R505*%
X138579316Y-121316717D02*
X138362035Y-121099436D01*
X139116717Y-120779316D02*
X138899436Y-120562035D01*
%TO.C,J201*%
X176190000Y-66290000D02*
X176190000Y-67540000D01*
X176490000Y-67900000D02*
X177100000Y-67900000D01*
X176490000Y-69200000D02*
X177100000Y-69200000D01*
X177100000Y-67200000D02*
X177100000Y-70700000D01*
X177100000Y-70700000D02*
X182000000Y-70700000D01*
X177440000Y-66290000D02*
X176190000Y-66290000D01*
X177950000Y-66390000D02*
X177950000Y-66590000D01*
X178250000Y-66390000D02*
X177950000Y-66390000D01*
X178250000Y-66490000D02*
X177950000Y-66490000D01*
X178250000Y-66590000D02*
X178250000Y-66390000D01*
X179050000Y-66590000D02*
X179050000Y-67200000D01*
X179050000Y-67200000D02*
X177100000Y-67200000D01*
X179450000Y-70200000D02*
X179650000Y-70200000D01*
X179450000Y-70700000D02*
X179450000Y-70200000D01*
X179550000Y-70700000D02*
X179550000Y-70200000D01*
X179650000Y-70200000D02*
X179650000Y-70700000D01*
X180050000Y-67200000D02*
X180050000Y-66590000D01*
X182000000Y-67200000D02*
X180050000Y-67200000D01*
X182000000Y-70700000D02*
X182000000Y-67200000D01*
X182610000Y-67900000D02*
X182000000Y-67900000D01*
X182610000Y-69200000D02*
X182000000Y-69200000D01*
X176490000Y-66590000D02*
X182610000Y-66590000D01*
X182610000Y-71310000D01*
X176490000Y-71310000D01*
X176490000Y-66590000D01*
%TO.C,J802*%
X153810000Y-66745000D02*
X153810000Y-72045000D01*
X161540000Y-66745000D02*
X153810000Y-66745000D01*
X161540000Y-66745000D02*
X161540000Y-69395000D01*
X161540000Y-69395000D02*
X164190000Y-69395000D01*
X162810000Y-66745000D02*
X164190000Y-66745000D01*
X164190000Y-66745000D02*
X164190000Y-68125000D01*
X164190000Y-69395000D02*
X164190000Y-72045000D01*
X164190000Y-72045000D02*
X153810000Y-72045000D01*
%TO.C,L301*%
X145590580Y-97415000D02*
X145309420Y-97415000D01*
X145590580Y-98435000D02*
X145309420Y-98435000D01*
%TO.C,C307*%
X165442164Y-103710000D02*
X165657836Y-103710000D01*
X165442164Y-102990000D02*
X165657836Y-102990000D01*
%TO.C,R503*%
X135862035Y-118599436D02*
X136079316Y-118816717D01*
X136399436Y-118062035D02*
X136616717Y-118279316D01*
%TO.C,R209*%
X191596359Y-85630000D02*
X191903641Y-85630000D01*
X191596359Y-84870000D02*
X191903641Y-84870000D01*
%TO.C,R202*%
X173120000Y-95023641D02*
X173120000Y-94716359D01*
X173880000Y-95023641D02*
X173880000Y-94716359D01*
%TO.C,Moteur702*%
X153740000Y-119700000D02*
X154350000Y-119700000D01*
X153740000Y-121000000D02*
X154350000Y-121000000D01*
X154350000Y-118200000D02*
X154350000Y-121700000D01*
X154350000Y-121700000D02*
X156300000Y-121700000D01*
X156300000Y-121700000D02*
X156300000Y-122310000D01*
X156700000Y-118700000D02*
X156700000Y-118200000D01*
X156800000Y-118200000D02*
X156800000Y-118700000D01*
X156900000Y-118200000D02*
X156900000Y-118700000D01*
X156900000Y-118700000D02*
X156700000Y-118700000D01*
X157300000Y-121700000D02*
X159250000Y-121700000D01*
X157300000Y-122310000D02*
X157300000Y-121700000D01*
X158100000Y-122310000D02*
X158100000Y-122510000D01*
X158100000Y-122410000D02*
X158400000Y-122410000D01*
X158100000Y-122510000D02*
X158400000Y-122510000D01*
X158400000Y-122510000D02*
X158400000Y-122310000D01*
X158910000Y-122610000D02*
X160160000Y-122610000D01*
X159250000Y-118200000D02*
X154350000Y-118200000D01*
X159250000Y-121700000D02*
X159250000Y-118200000D01*
X159860000Y-119700000D02*
X159250000Y-119700000D01*
X159860000Y-121000000D02*
X159250000Y-121000000D01*
X160160000Y-122610000D02*
X160160000Y-121360000D01*
X159860000Y-122310000D02*
X153740000Y-122310000D01*
X153740000Y-117590000D01*
X159860000Y-117590000D01*
X159860000Y-122310000D01*
%TO.C,C301*%
X155140000Y-87037836D02*
X155140000Y-86822164D01*
X155860000Y-87037836D02*
X155860000Y-86822164D01*
%TO.C,C205*%
X169050000Y-79353080D02*
X169050000Y-79071920D01*
X170070000Y-79353080D02*
X170070000Y-79071920D01*
%TO.C,C602*%
X177340000Y-103857836D02*
X177340000Y-103642164D01*
X178060000Y-103857836D02*
X178060000Y-103642164D01*
%TO.C,R301*%
X150770000Y-83696359D02*
X150770000Y-84003641D01*
X151530000Y-83696359D02*
X151530000Y-84003641D01*
%TO.C,L201*%
X165990000Y-80411252D02*
X165990000Y-79888748D01*
X168210000Y-80411252D02*
X168210000Y-79888748D01*
%TO.C,R-IPROPI_A701*%
X151839940Y-100627341D02*
X151622659Y-100410060D01*
X152377341Y-100089940D02*
X152160060Y-99872659D01*
%TO.C,R501*%
X128570000Y-100303641D02*
X128570000Y-99996359D01*
X129330000Y-100303641D02*
X129330000Y-99996359D01*
%TO.C,Cbulk701*%
X162490000Y-105859420D02*
X162490000Y-106140580D01*
X163510000Y-105859420D02*
X163510000Y-106140580D01*
%TO.C,R506*%
X128570000Y-96546359D02*
X128570000Y-96853641D01*
X129330000Y-96546359D02*
X129330000Y-96853641D01*
%TO.C,D202*%
X171690000Y-96742164D02*
X171690000Y-96957836D01*
X172410000Y-96742164D02*
X172410000Y-96957836D01*
%TO.C,C306*%
X144677836Y-93740000D02*
X144462164Y-93740000D01*
X144677836Y-94460000D02*
X144462164Y-94460000D01*
%TO.C,R204*%
X171670000Y-95103641D02*
X171670000Y-94796359D01*
X172430000Y-95103641D02*
X172430000Y-94796359D01*
%TO.C,U303*%
X164440000Y-106910000D02*
X164440000Y-105090000D01*
X164490000Y-106910000D02*
X164440000Y-106910000D01*
X166390000Y-106910000D02*
X165610000Y-106910000D01*
X167560000Y-106910000D02*
X167510000Y-106910000D01*
X164440000Y-105090000D02*
X164490000Y-105090000D01*
X167510000Y-105090000D02*
X167560000Y-105090000D01*
X167560000Y-105090000D02*
X167560000Y-106910000D01*
X167840000Y-104790000D02*
X167510000Y-104550000D01*
X167840000Y-104310000D01*
X167840000Y-104790000D01*
G36*
X167840000Y-104790000D02*
G01*
X167510000Y-104550000D01*
X167840000Y-104310000D01*
X167840000Y-104790000D01*
G37*
%TO.C,C601*%
X175322164Y-105130000D02*
X175537836Y-105130000D01*
X175322164Y-105850000D02*
X175537836Y-105850000D01*
%TO.C,SW301*%
X171650000Y-119050000D02*
X171650000Y-120550000D01*
X172900000Y-123050000D02*
X177400000Y-123050000D01*
X177400000Y-116550000D02*
X172900000Y-116550000D01*
X178650000Y-120550000D02*
X178650000Y-119050000D01*
%TO.C,C303*%
X153190000Y-87037836D02*
X153190000Y-86822164D01*
X153910000Y-87037836D02*
X153910000Y-86822164D01*
%TO.C,R601*%
X172270000Y-103153641D02*
X172270000Y-102846359D01*
X173030000Y-103153641D02*
X173030000Y-102846359D01*
%TO.C,R304*%
X137589940Y-109672659D02*
X137372659Y-109889940D01*
X138127341Y-110210060D02*
X137910060Y-110427341D01*
%TO.C,R504*%
X129386513Y-76030086D02*
X129169232Y-76247367D01*
X129923914Y-76567487D02*
X129706633Y-76784768D01*
%TO.C,C207*%
X170590000Y-79353080D02*
X170590000Y-79071920D01*
X171610000Y-79353080D02*
X171610000Y-79071920D01*
%TO.C,C304*%
X169340000Y-117942164D02*
X169340000Y-118157836D01*
X170060000Y-117942164D02*
X170060000Y-118157836D01*
%TO.C,R206*%
X176543641Y-83220000D02*
X176236359Y-83220000D01*
X176543641Y-83980000D02*
X176236359Y-83980000D01*
%TO.C,J202*%
X190250000Y-86680000D02*
X188550000Y-86680000D01*
X190250000Y-96020000D02*
X188550000Y-96020000D01*
%TO.C,R-B701*%
X156270000Y-102003641D02*
X156270000Y-101696359D01*
X157030000Y-102003641D02*
X157030000Y-101696359D01*
%TD*%
M02*
