%TF.GenerationSoftware,KiCad,Pcbnew,9.0.7*%
%TF.CreationDate,2026-03-26T11:32:34+01:00*%
%TF.ProjectId,pcb_pcBOT,7063625f-7063-4424-9f54-2e6b69636164,rev?*%
%TF.SameCoordinates,Original*%
%TF.FileFunction,Copper,L3,Inr*%
%TF.FilePolarity,Positive*%
%FSLAX46Y46*%
G04 Gerber Fmt 4.6, Leading zero omitted, Abs format (unit mm)*
G04 Created by KiCad (PCBNEW 9.0.7) date 2026-03-26 11:32:34*
%MOMM*%
%LPD*%
G01*
G04 APERTURE LIST*
G04 Aperture macros list*
%AMRoundRect*
0 Rectangle with rounded corners*
0 $1 Rounding radius*
0 $2 $3 $4 $5 $6 $7 $8 $9 X,Y pos of 4 corners*
0 Add a 4 corners polygon primitive as box body*
4,1,4,$2,$3,$4,$5,$6,$7,$8,$9,$2,$3,0*
0 Add four circle primitives for the rounded corners*
1,1,$1+$1,$2,$3*
1,1,$1+$1,$4,$5*
1,1,$1+$1,$6,$7*
1,1,$1+$1,$8,$9*
0 Add four rect primitives between the rounded corners*
20,1,$1+$1,$2,$3,$4,$5,0*
20,1,$1+$1,$4,$5,$6,$7,0*
20,1,$1+$1,$6,$7,$8,$9,0*
20,1,$1+$1,$8,$9,$2,$3,0*%
%AMRotRect*
0 Rectangle, with rotation*
0 The origin of the aperture is its center*
0 $1 length*
0 $2 width*
0 $3 Rotation angle, in degrees counterclockwise*
0 Add horizontal line*
21,1,$1,$2,0,0,$3*%
G04 Aperture macros list end*
%TA.AperFunction,ComponentPad*%
%ADD10RoundRect,0.250000X0.350000X0.625000X-0.350000X0.625000X-0.350000X-0.625000X0.350000X-0.625000X0*%
%TD*%
%TA.AperFunction,ComponentPad*%
%ADD11O,1.200000X1.750000*%
%TD*%
%TA.AperFunction,ComponentPad*%
%ADD12C,0.800000*%
%TD*%
%TA.AperFunction,ComponentPad*%
%ADD13C,6.400000*%
%TD*%
%TA.AperFunction,ComponentPad*%
%ADD14RotRect,1.700000X1.700000X45.000000*%
%TD*%
%TA.AperFunction,ComponentPad*%
%ADD15C,1.700000*%
%TD*%
%TA.AperFunction,ComponentPad*%
%ADD16R,1.700000X1.700000*%
%TD*%
%TA.AperFunction,ComponentPad*%
%ADD17C,2.000000*%
%TD*%
%TA.AperFunction,ComponentPad*%
%ADD18RotRect,1.700000X1.700000X315.000000*%
%TD*%
%TA.AperFunction,ComponentPad*%
%ADD19RoundRect,0.250000X-0.350000X-0.625000X0.350000X-0.625000X0.350000X0.625000X-0.350000X0.625000X0*%
%TD*%
%TA.AperFunction,HeatsinkPad*%
%ADD20O,2.100000X1.000000*%
%TD*%
%TA.AperFunction,HeatsinkPad*%
%ADD21O,1.800000X1.000000*%
%TD*%
%TA.AperFunction,ViaPad*%
%ADD22C,0.450000*%
%TD*%
%TA.AperFunction,Conductor*%
%ADD23C,0.300000*%
%TD*%
G04 APERTURE END LIST*
D10*
%TO.N,Net-(Moteur701-Pin_1)*%
%TO.C,Moteur701*%
X150800000Y-120500000D03*
D11*
%TO.N,Net-(Moteur701-Pin_2)*%
X148800000Y-120500000D03*
%TD*%
D12*
%TO.N,GND*%
%TO.C,H104*%
X127600000Y-120000000D03*
X128302944Y-118302944D03*
X128302944Y-121697056D03*
X130000000Y-117600000D03*
D13*
X130000000Y-120000000D03*
D12*
X130000000Y-122400000D03*
X131697056Y-118302944D03*
X131697056Y-121697056D03*
X132400000Y-120000000D03*
%TD*%
D14*
%TO.N,VDD*%
%TO.C,J503*%
X131069744Y-109869744D03*
D15*
%TO.N,GND*%
X132865795Y-111665795D03*
%TO.N,/I2C_BUS.I2C_SCL*%
X134661846Y-113461846D03*
%TO.N,/I2C_BUS.I2C_SDA*%
X136457898Y-115257898D03*
%TO.N,/capteur tof/TOF_INT3*%
X138253949Y-117053949D03*
%TO.N,/capteur tof/XSHUT3*%
X140050000Y-118850000D03*
%TD*%
D16*
%TO.N,VDD*%
%TO.C,J501*%
X131350000Y-87075000D03*
D15*
%TO.N,GND*%
X131350000Y-89615000D03*
%TO.N,/I2C_BUS.I2C_SCL*%
X131350000Y-92155000D03*
%TO.N,/I2C_BUS.I2C_SDA*%
X131350000Y-94695000D03*
%TO.N,/capteur tof/TOF_INT1*%
X131350000Y-97235000D03*
%TO.N,/capteur tof/XSHUT1*%
X131350000Y-99775000D03*
%TD*%
D17*
%TO.N,/bms/~{QON}*%
%TO.C,SW201*%
X187800000Y-81700000D03*
X187800000Y-75200000D03*
%TO.N,GND*%
X192300000Y-81700000D03*
X192300000Y-75200000D03*
%TD*%
D18*
%TO.N,VDD*%
%TO.C,J502*%
X139988154Y-69361846D03*
D15*
%TO.N,GND*%
X138192103Y-71157897D03*
%TO.N,/I2C_BUS.I2C_SCL*%
X136396052Y-72953948D03*
%TO.N,/I2C_BUS.I2C_SDA*%
X134600000Y-74750000D03*
%TO.N,/capteur tof/TOF_INT2*%
X132803949Y-76546051D03*
%TO.N,/capteur tof/XSHUT2*%
X131007898Y-78342102D03*
%TD*%
D12*
%TO.N,GND*%
%TO.C,H101*%
X127600000Y-70000000D03*
X128302944Y-68302944D03*
X128302944Y-71697056D03*
X130000000Y-67600000D03*
D13*
X130000000Y-70000000D03*
D12*
X130000000Y-72400000D03*
X131697056Y-68302944D03*
X131697056Y-71697056D03*
X132400000Y-70000000D03*
%TD*%
%TO.N,GND*%
%TO.C,H103*%
X187600000Y-120000000D03*
X188302944Y-118302944D03*
X188302944Y-121697056D03*
X190000000Y-117600000D03*
D13*
X190000000Y-120000000D03*
D12*
X190000000Y-122400000D03*
X191697056Y-118302944D03*
X191697056Y-121697056D03*
X192400000Y-120000000D03*
%TD*%
%TO.N,GND*%
%TO.C,H102*%
X187600000Y-70000000D03*
X188302944Y-68302944D03*
X188302944Y-71697056D03*
X190000000Y-67600000D03*
D13*
X190000000Y-70000000D03*
D12*
X190000000Y-72400000D03*
X191697056Y-68302944D03*
X191697056Y-71697056D03*
X192400000Y-70000000D03*
%TD*%
D19*
%TO.N,/bms/BAT*%
%TO.C,J201*%
X178550000Y-68400000D03*
D11*
%TO.N,GND*%
X180550000Y-68400000D03*
%TD*%
D16*
%TO.N,GND*%
%TO.C,J802*%
X162810000Y-68125000D03*
D15*
%TO.N,Net-(J802-Pin_2)*%
X162810000Y-70665000D03*
%TO.N,/nrf24l01/CE_NRF*%
X160270000Y-68125000D03*
%TO.N,/nrf24l01/CSN_NRF*%
X160270000Y-70665000D03*
%TO.N,/SPI_BUS.SCK_NRF*%
X157730000Y-68125000D03*
%TO.N,/SPI_BUS.MOSI_NRF*%
X157730000Y-70665000D03*
%TO.N,/SPI_BUS.MISO_NRF*%
X155190000Y-68125000D03*
%TO.N,/nrf24l01/IRQ_NRF*%
X155190000Y-70665000D03*
%TD*%
D10*
%TO.N,Net-(Moteur702-Pin_1)*%
%TO.C,Moteur702*%
X157800000Y-120500000D03*
D11*
%TO.N,Net-(Moteur702-Pin_2)*%
X155800000Y-120500000D03*
%TD*%
D17*
%TO.N,/stm32/NRST*%
%TO.C,SW301*%
X171900000Y-117550000D03*
X178400000Y-117550000D03*
%TO.N,GND*%
X171900000Y-122050000D03*
X178400000Y-122050000D03*
%TD*%
D20*
%TO.N,GND*%
%TO.C,J202*%
X187245000Y-95670000D03*
D21*
X191425000Y-95670000D03*
D20*
X187245000Y-87030000D03*
D21*
X191425000Y-87030000D03*
%TD*%
D22*
%TO.N,GND*%
X168800000Y-81900000D03*
X168800000Y-80900000D03*
X169900000Y-80900000D03*
X172950000Y-81650000D03*
X172650000Y-103510000D03*
%TO.N,+5V*%
X154825000Y-103700000D03*
%TO.N,GND*%
X156300000Y-106600000D03*
X155100000Y-106600000D03*
X154000000Y-106600000D03*
X154000000Y-107600000D03*
X155100000Y-107600000D03*
X156300000Y-107600000D03*
X156300000Y-108700000D03*
X155200000Y-108700000D03*
X154000000Y-108700000D03*
X152700000Y-108700000D03*
X152700000Y-107700000D03*
X152700000Y-106600000D03*
X171850000Y-84800000D03*
X170750000Y-84800000D03*
X169650000Y-84850000D03*
X169650000Y-83800000D03*
X170750000Y-83787500D03*
X171850000Y-83750000D03*
X171850000Y-82700000D03*
X170750000Y-82700000D03*
X169650000Y-82687500D03*
%TO.N,/stm32/NRST*%
X151138000Y-88903000D03*
%TO.N,VDD*%
X138110624Y-109689376D03*
X138900000Y-110450000D03*
X151900000Y-111750000D03*
%TO.N,/bms/SYS*%
X165075000Y-79425000D03*
%TO.N,Net-(JP202-B)*%
X170000000Y-90100000D03*
%TO.N,+5V*%
X163250000Y-79250000D03*
%TO.N,VDD*%
X176250000Y-85990000D03*
%TO.N,/I2C_BUS.I2C_SDA*%
X174750000Y-89500000D03*
%TO.N,/I2C_BUS.I2C_SCL*%
X175250000Y-88750000D03*
%TO.N,/I2C_BUS.I2C_SDA*%
X166250000Y-89750000D03*
%TO.N,/bms/INT_BMS*%
X176300000Y-89000000D03*
%TO.N,/bms/VBUS_BQ25*%
X181500000Y-87000000D03*
X181500000Y-88000000D03*
%TO.N,VBUS*%
X183500000Y-88000000D03*
X183500000Y-87000000D03*
X183620000Y-93750000D03*
X186670000Y-93750000D03*
X186670000Y-88950000D03*
%TO.N,GND*%
X192260000Y-85250000D03*
X190760000Y-97250000D03*
X146563000Y-95878000D03*
X146563000Y-94278000D03*
X166000000Y-104862500D03*
X154550000Y-86450000D03*
X156650000Y-101340000D03*
X165620000Y-108600000D03*
X164600000Y-84600000D03*
X169560000Y-78437500D03*
X144090000Y-95076750D03*
X172650000Y-78425000D03*
X188830000Y-83750000D03*
X155500000Y-101400000D03*
X191550000Y-102860000D03*
X163000000Y-106775000D03*
X191550000Y-105400000D03*
X166030000Y-103350000D03*
X151639376Y-99889376D03*
X155500000Y-86450000D03*
X169700000Y-118530000D03*
X144090000Y-94100000D03*
X171100000Y-78437500D03*
X175910000Y-105490000D03*
X176880000Y-82600000D03*
X186670000Y-88150000D03*
X191550000Y-106670000D03*
X154913000Y-90278000D03*
X158850000Y-89290000D03*
X186670000Y-94550000D03*
X164650000Y-86200000D03*
X183600000Y-94730000D03*
X177700000Y-103250000D03*
X153550000Y-86450000D03*
X176900000Y-83600000D03*
%TO.N,/bms/REGN*%
X165050000Y-83150000D03*
%TO.N,VDD*%
X154550000Y-87410000D03*
X128950000Y-100660000D03*
X151150000Y-83500000D03*
X146225000Y-97925000D03*
X155500000Y-87410000D03*
X166580000Y-108600000D03*
X160860000Y-110450000D03*
X166950000Y-107137500D03*
X153538000Y-88903000D03*
X129907197Y-76046803D03*
X147938000Y-97253000D03*
X164425000Y-73250000D03*
X128950000Y-96190000D03*
X131946573Y-74007427D03*
X135878752Y-118078752D03*
X191550000Y-107940000D03*
X177676702Y-104253298D03*
X174950000Y-105490000D03*
X139100000Y-121300000D03*
X153550000Y-87410000D03*
%TO.N,/stm32/NRST*%
X183300000Y-102850000D03*
%TO.N,+5V*%
X165050000Y-104862500D03*
X155390000Y-102390000D03*
X165070000Y-103350000D03*
X163000000Y-105225000D03*
X166950000Y-104862500D03*
%TO.N,/I2C_BUS.I2C_SCL*%
X134100000Y-92250000D03*
X137389376Y-110410624D03*
X157550000Y-91078000D03*
X165465380Y-88365380D03*
X139550000Y-74250000D03*
%TO.N,/I2C_BUS.I2C_SDA*%
X138178752Y-111171248D03*
X136150000Y-76450000D03*
X157500000Y-91878000D03*
X133450000Y-94200000D03*
%TO.N,/capteur tof/XSHUT3*%
X150250000Y-103150000D03*
X156033058Y-95933058D03*
%TO.N,/SPI_BUS.SCK_NRF*%
X144900000Y-87400000D03*
X144900000Y-91100000D03*
%TO.N,/SPI_BUS.MISO_NRF*%
X144900000Y-91900000D03*
X144099997Y-87400000D03*
%TO.N,/SPI_BUS.MOSI_NRF*%
X144900000Y-92700000D03*
X143299994Y-87400000D03*
%TO.N,/bms/VBUS_BQ25*%
X169400000Y-87000000D03*
X169400000Y-87900000D03*
%TO.N,/bms/TS*%
X175800000Y-81500000D03*
%TO.N,/bms/INT_BMS*%
X176300000Y-92500000D03*
%TO.N,/bms/OTG_HOST*%
X157500000Y-94278000D03*
X174500000Y-85100000D03*
%TO.N,/bms/~{CE}_HOST*%
X157500000Y-93450000D03*
X178950000Y-84800000D03*
%TD*%
D23*
%TO.N,/bms/~{QON}*%
X187800000Y-81700000D02*
X187800000Y-75200000D01*
%TD*%
%TA.AperFunction,Conductor*%
%TO.N,/bms/VBUS_BQ25*%
G36*
X182228326Y-86521674D02*
G01*
X182250000Y-86574000D01*
X182250000Y-88176000D01*
X182228326Y-88228326D01*
X182176000Y-88250000D01*
X169074000Y-88250000D01*
X169021674Y-88228326D01*
X169000000Y-88176000D01*
X169000000Y-86574000D01*
X169021674Y-86521674D01*
X169074000Y-86500000D01*
X182176000Y-86500000D01*
X182228326Y-86521674D01*
G37*
%TD.AperFunction*%
%TD*%
%TA.AperFunction,Conductor*%
%TO.N,VBUS*%
G36*
X186978326Y-86021674D02*
G01*
X187000000Y-86074000D01*
X187000000Y-86305500D01*
X186978326Y-86357826D01*
X186926000Y-86379500D01*
X186630931Y-86379500D01*
X186599726Y-86385707D01*
X186505260Y-86404497D01*
X186505257Y-86404498D01*
X186386876Y-86453533D01*
X186280331Y-86524723D01*
X186280330Y-86524725D01*
X186189725Y-86615330D01*
X186189723Y-86615331D01*
X186118533Y-86721876D01*
X186069498Y-86840257D01*
X186069497Y-86840260D01*
X186044500Y-86965932D01*
X186044500Y-87094067D01*
X186069497Y-87219739D01*
X186069498Y-87219742D01*
X186069499Y-87219744D01*
X186118535Y-87338127D01*
X186189724Y-87444669D01*
X186280331Y-87535276D01*
X186386873Y-87606465D01*
X186386878Y-87606467D01*
X186386877Y-87606467D01*
X186412151Y-87616935D01*
X186436633Y-87627076D01*
X186476682Y-87667124D01*
X186476682Y-87723761D01*
X186445316Y-87759528D01*
X186393391Y-87789507D01*
X186309508Y-87873390D01*
X186250201Y-87976112D01*
X186250199Y-87976117D01*
X186219500Y-88090688D01*
X186219500Y-88209311D01*
X186250199Y-88323882D01*
X186250201Y-88323887D01*
X186309508Y-88426609D01*
X186309509Y-88426610D01*
X186309511Y-88426613D01*
X186393387Y-88510489D01*
X186393389Y-88510490D01*
X186393390Y-88510491D01*
X186496112Y-88569798D01*
X186496114Y-88569799D01*
X186496115Y-88569799D01*
X186496117Y-88569800D01*
X186553402Y-88585149D01*
X186610688Y-88600499D01*
X186610689Y-88600500D01*
X186610691Y-88600500D01*
X186729311Y-88600500D01*
X186729311Y-88600499D01*
X186843886Y-88569799D01*
X186889000Y-88543751D01*
X186945152Y-88536359D01*
X186990086Y-88570837D01*
X187000000Y-88607838D01*
X187000000Y-93926000D01*
X186978326Y-93978326D01*
X186926000Y-94000000D01*
X181074000Y-94000000D01*
X181021674Y-93978326D01*
X181000000Y-93926000D01*
X181000000Y-88479500D01*
X181021674Y-88427174D01*
X181074000Y-88405500D01*
X181281519Y-88405500D01*
X181318518Y-88415413D01*
X181326114Y-88419799D01*
X181326116Y-88419799D01*
X181326117Y-88419800D01*
X181383402Y-88435149D01*
X181440688Y-88450499D01*
X181440689Y-88450500D01*
X181440691Y-88450500D01*
X181559311Y-88450500D01*
X181559311Y-88450499D01*
X181673886Y-88419799D01*
X181681481Y-88415413D01*
X181718481Y-88405500D01*
X182175998Y-88405500D01*
X182176000Y-88405500D01*
X182235507Y-88393663D01*
X182287833Y-88371989D01*
X182322989Y-88351692D01*
X182371989Y-88287833D01*
X182371991Y-88287827D01*
X182372471Y-88286998D01*
X182372857Y-88286701D01*
X182374942Y-88283985D01*
X182375669Y-88284543D01*
X182417405Y-88252521D01*
X182436556Y-88250000D01*
X183000000Y-88250000D01*
X183000000Y-86074000D01*
X183021674Y-86021674D01*
X183074000Y-86000000D01*
X186926000Y-86000000D01*
X186978326Y-86021674D01*
G37*
%TD.AperFunction*%
%TD*%
%TA.AperFunction,Conductor*%
%TO.N,VDD*%
G36*
X193642539Y-66320185D02*
G01*
X193688294Y-66372989D01*
X193699500Y-66424500D01*
X193699500Y-74839411D01*
X193679815Y-74906450D01*
X193627011Y-74952205D01*
X193557853Y-74962149D01*
X193494297Y-74933124D01*
X193457569Y-74877730D01*
X193412545Y-74739163D01*
X193326759Y-74570800D01*
X193215690Y-74417927D01*
X193082073Y-74284310D01*
X192929199Y-74173240D01*
X192760836Y-74087454D01*
X192581118Y-74029059D01*
X192394486Y-73999500D01*
X192394481Y-73999500D01*
X192205519Y-73999500D01*
X192205514Y-73999500D01*
X192018881Y-74029059D01*
X191839163Y-74087454D01*
X191670800Y-74173240D01*
X191583579Y-74236610D01*
X191517927Y-74284310D01*
X191517925Y-74284312D01*
X191517924Y-74284312D01*
X191384312Y-74417924D01*
X191384312Y-74417925D01*
X191384310Y-74417927D01*
X191379981Y-74423886D01*
X191273240Y-74570800D01*
X191187454Y-74739163D01*
X191129059Y-74918881D01*
X191099500Y-75105513D01*
X191099500Y-75294486D01*
X191129059Y-75481118D01*
X191187454Y-75660836D01*
X191258617Y-75800500D01*
X191273240Y-75829199D01*
X191384310Y-75982073D01*
X191517927Y-76115690D01*
X191670801Y-76226760D01*
X191696062Y-76239631D01*
X191839163Y-76312545D01*
X191839165Y-76312545D01*
X191839168Y-76312547D01*
X191935497Y-76343846D01*
X192018881Y-76370940D01*
X192205514Y-76400500D01*
X192205519Y-76400500D01*
X192394486Y-76400500D01*
X192581118Y-76370940D01*
X192614815Y-76359991D01*
X192760832Y-76312547D01*
X192929199Y-76226760D01*
X193082073Y-76115690D01*
X193215690Y-75982073D01*
X193326760Y-75829199D01*
X193412547Y-75660832D01*
X193457569Y-75522268D01*
X193497007Y-75464594D01*
X193561366Y-75437396D01*
X193630212Y-75449311D01*
X193681688Y-75496555D01*
X193699500Y-75560588D01*
X193699500Y-81339411D01*
X193679815Y-81406450D01*
X193627011Y-81452205D01*
X193557853Y-81462149D01*
X193494297Y-81433124D01*
X193457569Y-81377730D01*
X193428905Y-81289513D01*
X193412547Y-81239168D01*
X193412545Y-81239165D01*
X193412545Y-81239163D01*
X193331550Y-81080202D01*
X193326760Y-81070801D01*
X193215690Y-80917927D01*
X193082073Y-80784310D01*
X192929199Y-80673240D01*
X192760836Y-80587454D01*
X192581118Y-80529059D01*
X192394486Y-80499500D01*
X192394481Y-80499500D01*
X192205519Y-80499500D01*
X192205514Y-80499500D01*
X192018881Y-80529059D01*
X191839163Y-80587454D01*
X191670800Y-80673240D01*
X191583579Y-80736610D01*
X191517927Y-80784310D01*
X191517925Y-80784312D01*
X191517924Y-80784312D01*
X191384312Y-80917924D01*
X191384312Y-80917925D01*
X191384310Y-80917927D01*
X191354246Y-80959306D01*
X191273240Y-81070800D01*
X191187454Y-81239163D01*
X191129059Y-81418881D01*
X191099500Y-81605513D01*
X191099500Y-81794486D01*
X191129059Y-81981118D01*
X191187454Y-82160836D01*
X191248274Y-82280201D01*
X191273240Y-82329199D01*
X191384310Y-82482073D01*
X191517927Y-82615690D01*
X191670801Y-82726760D01*
X191734682Y-82759309D01*
X191839163Y-82812545D01*
X191839165Y-82812545D01*
X191839168Y-82812547D01*
X191908191Y-82834974D01*
X192018881Y-82870940D01*
X192205514Y-82900500D01*
X192205519Y-82900500D01*
X192394486Y-82900500D01*
X192581118Y-82870940D01*
X192610522Y-82861386D01*
X192760832Y-82812547D01*
X192929199Y-82726760D01*
X193082073Y-82615690D01*
X193215690Y-82482073D01*
X193326760Y-82329199D01*
X193412547Y-82160832D01*
X193457569Y-82022268D01*
X193497007Y-81964594D01*
X193561366Y-81937396D01*
X193630212Y-81949311D01*
X193681688Y-81996555D01*
X193699500Y-82060588D01*
X193699500Y-123575500D01*
X193679815Y-123642539D01*
X193627011Y-123688294D01*
X193575500Y-123699500D01*
X126424500Y-123699500D01*
X126357461Y-123679815D01*
X126311706Y-123627011D01*
X126300500Y-123575500D01*
X126300500Y-119832947D01*
X126599500Y-119832947D01*
X126599500Y-120167052D01*
X126632247Y-120499548D01*
X126632250Y-120499565D01*
X126697425Y-120827230D01*
X126697428Y-120827241D01*
X126794418Y-121146977D01*
X126922278Y-121455656D01*
X126922280Y-121455661D01*
X127079769Y-121750303D01*
X127079780Y-121750321D01*
X127265393Y-122028109D01*
X127265403Y-122028123D01*
X127477361Y-122286395D01*
X127713604Y-122522638D01*
X127713609Y-122522642D01*
X127713610Y-122522643D01*
X127971882Y-122734601D01*
X128249685Y-122920224D01*
X128249694Y-122920229D01*
X128249696Y-122920230D01*
X128544338Y-123077719D01*
X128544340Y-123077719D01*
X128544346Y-123077723D01*
X128853024Y-123205582D01*
X129172749Y-123302569D01*
X129172755Y-123302570D01*
X129172758Y-123302571D01*
X129172769Y-123302574D01*
X129378243Y-123343444D01*
X129500441Y-123367751D01*
X129832944Y-123400500D01*
X129832947Y-123400500D01*
X130167053Y-123400500D01*
X130167056Y-123400500D01*
X130499559Y-123367751D01*
X130661757Y-123335487D01*
X130827230Y-123302574D01*
X130827241Y-123302571D01*
X130827241Y-123302570D01*
X130827251Y-123302569D01*
X131146976Y-123205582D01*
X131455654Y-123077723D01*
X131750315Y-122920224D01*
X132028118Y-122734601D01*
X132286390Y-122522643D01*
X132522643Y-122286390D01*
X132734601Y-122028118D01*
X132783114Y-121955513D01*
X170699500Y-121955513D01*
X170699500Y-122144486D01*
X170729059Y-122331118D01*
X170787454Y-122510836D01*
X170873240Y-122679199D01*
X170984310Y-122832073D01*
X171117927Y-122965690D01*
X171270801Y-123076760D01*
X171350347Y-123117290D01*
X171439163Y-123162545D01*
X171439165Y-123162545D01*
X171439168Y-123162547D01*
X171535497Y-123193846D01*
X171618881Y-123220940D01*
X171805514Y-123250500D01*
X171805519Y-123250500D01*
X171994486Y-123250500D01*
X172181118Y-123220940D01*
X172360832Y-123162547D01*
X172529199Y-123076760D01*
X172682073Y-122965690D01*
X172815690Y-122832073D01*
X172926760Y-122679199D01*
X173012547Y-122510832D01*
X173070940Y-122331118D01*
X173100500Y-122144486D01*
X173100500Y-121955513D01*
X177199500Y-121955513D01*
X177199500Y-122144486D01*
X177229059Y-122331118D01*
X177287454Y-122510836D01*
X177373240Y-122679199D01*
X177484310Y-122832073D01*
X177617927Y-122965690D01*
X177770801Y-123076760D01*
X177850347Y-123117290D01*
X177939163Y-123162545D01*
X177939165Y-123162545D01*
X177939168Y-123162547D01*
X178035497Y-123193846D01*
X178118881Y-123220940D01*
X178305514Y-123250500D01*
X178305519Y-123250500D01*
X178494486Y-123250500D01*
X178681118Y-123220940D01*
X178860832Y-123162547D01*
X179029199Y-123076760D01*
X179182073Y-122965690D01*
X179315690Y-122832073D01*
X179426760Y-122679199D01*
X179512547Y-122510832D01*
X179570940Y-122331118D01*
X179600500Y-122144486D01*
X179600500Y-121955513D01*
X179570940Y-121768881D01*
X179512545Y-121589163D01*
X179426759Y-121420800D01*
X179409312Y-121396786D01*
X179315690Y-121267927D01*
X179182073Y-121134310D01*
X179029199Y-121023240D01*
X179000264Y-121008497D01*
X178860836Y-120937454D01*
X178681118Y-120879059D01*
X178494486Y-120849500D01*
X178494481Y-120849500D01*
X178305519Y-120849500D01*
X178305514Y-120849500D01*
X178118881Y-120879059D01*
X177939163Y-120937454D01*
X177770800Y-121023240D01*
X177683579Y-121086610D01*
X177617927Y-121134310D01*
X177617925Y-121134312D01*
X177617924Y-121134312D01*
X177484312Y-121267924D01*
X177484312Y-121267925D01*
X177484310Y-121267927D01*
X177471696Y-121285289D01*
X177373240Y-121420800D01*
X177287454Y-121589163D01*
X177229059Y-121768881D01*
X177199500Y-121955513D01*
X173100500Y-121955513D01*
X173070940Y-121768881D01*
X173012545Y-121589163D01*
X172926759Y-121420800D01*
X172909312Y-121396786D01*
X172815690Y-121267927D01*
X172682073Y-121134310D01*
X172529199Y-121023240D01*
X172500264Y-121008497D01*
X172360836Y-120937454D01*
X172181118Y-120879059D01*
X171994486Y-120849500D01*
X171994481Y-120849500D01*
X171805519Y-120849500D01*
X171805514Y-120849500D01*
X171618881Y-120879059D01*
X171439163Y-120937454D01*
X171270800Y-121023240D01*
X171183579Y-121086610D01*
X171117927Y-121134310D01*
X171117925Y-121134312D01*
X171117924Y-121134312D01*
X170984312Y-121267924D01*
X170984312Y-121267925D01*
X170984310Y-121267927D01*
X170971696Y-121285289D01*
X170873240Y-121420800D01*
X170787454Y-121589163D01*
X170729059Y-121768881D01*
X170699500Y-121955513D01*
X132783114Y-121955513D01*
X132920224Y-121750315D01*
X133077723Y-121455654D01*
X133205582Y-121146976D01*
X133302569Y-120827251D01*
X133302571Y-120827241D01*
X133302574Y-120827230D01*
X133335487Y-120661757D01*
X133367751Y-120499559D01*
X133400500Y-120167056D01*
X133400500Y-120146153D01*
X147999500Y-120146153D01*
X147999500Y-120853846D01*
X148030261Y-121008489D01*
X148030264Y-121008501D01*
X148090602Y-121154172D01*
X148090609Y-121154185D01*
X148178210Y-121285288D01*
X148178213Y-121285292D01*
X148289707Y-121396786D01*
X148289711Y-121396789D01*
X148420814Y-121484390D01*
X148420827Y-121484397D01*
X148525596Y-121527793D01*
X148566503Y-121544737D01*
X148706810Y-121572646D01*
X148721153Y-121575499D01*
X148721156Y-121575500D01*
X148721158Y-121575500D01*
X148878844Y-121575500D01*
X148878845Y-121575499D01*
X149033497Y-121544737D01*
X149179179Y-121484394D01*
X149310289Y-121396789D01*
X149421789Y-121285289D01*
X149509394Y-121154179D01*
X149569737Y-121008497D01*
X149600500Y-120853842D01*
X149600500Y-120146158D01*
X149600500Y-120146155D01*
X149600499Y-120146153D01*
X149569738Y-119991510D01*
X149569737Y-119991503D01*
X149532043Y-119900500D01*
X149517474Y-119865327D01*
X149517458Y-119865289D01*
X149515321Y-119860130D01*
X149509394Y-119845821D01*
X149509391Y-119845816D01*
X149509390Y-119845814D01*
X149492629Y-119820730D01*
X149999500Y-119820730D01*
X149999500Y-121179269D01*
X150002353Y-121209699D01*
X150002353Y-121209701D01*
X150047206Y-121337880D01*
X150047207Y-121337882D01*
X150127850Y-121447150D01*
X150237118Y-121527793D01*
X150279845Y-121542744D01*
X150365299Y-121572646D01*
X150395730Y-121575500D01*
X150395734Y-121575500D01*
X151204270Y-121575500D01*
X151234699Y-121572646D01*
X151234701Y-121572646D01*
X151298790Y-121550219D01*
X151362882Y-121527793D01*
X151472150Y-121447150D01*
X151552793Y-121337882D01*
X151577272Y-121267924D01*
X151597646Y-121209701D01*
X151597646Y-121209699D01*
X151600500Y-121179269D01*
X151600500Y-120146153D01*
X154999500Y-120146153D01*
X154999500Y-120853846D01*
X155030261Y-121008489D01*
X155030264Y-121008501D01*
X155090602Y-121154172D01*
X155090609Y-121154185D01*
X155178210Y-121285288D01*
X155178213Y-121285292D01*
X155289707Y-121396786D01*
X155289711Y-121396789D01*
X155420814Y-121484390D01*
X155420827Y-121484397D01*
X155525596Y-121527793D01*
X155566503Y-121544737D01*
X155706810Y-121572646D01*
X155721153Y-121575499D01*
X155721156Y-121575500D01*
X155721158Y-121575500D01*
X155878844Y-121575500D01*
X155878845Y-121575499D01*
X156033497Y-121544737D01*
X156179179Y-121484394D01*
X156310289Y-121396789D01*
X156421789Y-121285289D01*
X156509394Y-121154179D01*
X156569737Y-121008497D01*
X156600500Y-120853842D01*
X156600500Y-120146158D01*
X156600500Y-120146155D01*
X156600499Y-120146153D01*
X156569738Y-119991510D01*
X156569737Y-119991503D01*
X156532043Y-119900500D01*
X156517474Y-119865327D01*
X156517458Y-119865289D01*
X156515321Y-119860130D01*
X156509394Y-119845821D01*
X156509391Y-119845816D01*
X156509390Y-119845814D01*
X156492629Y-119820730D01*
X156999500Y-119820730D01*
X156999500Y-121179269D01*
X157002353Y-121209699D01*
X157002353Y-121209701D01*
X157047206Y-121337880D01*
X157047207Y-121337882D01*
X157127850Y-121447150D01*
X157237118Y-121527793D01*
X157279845Y-121542744D01*
X157365299Y-121572646D01*
X157395730Y-121575500D01*
X157395734Y-121575500D01*
X158204270Y-121575500D01*
X158234699Y-121572646D01*
X158234701Y-121572646D01*
X158298790Y-121550219D01*
X158362882Y-121527793D01*
X158472150Y-121447150D01*
X158552793Y-121337882D01*
X158577272Y-121267924D01*
X158597646Y-121209701D01*
X158597646Y-121209699D01*
X158600500Y-121179269D01*
X158600500Y-119832947D01*
X186599500Y-119832947D01*
X186599500Y-120167052D01*
X186632247Y-120499548D01*
X186632250Y-120499565D01*
X186697425Y-120827230D01*
X186697428Y-120827241D01*
X186794418Y-121146977D01*
X186922278Y-121455656D01*
X186922280Y-121455661D01*
X187079769Y-121750303D01*
X187079780Y-121750321D01*
X187265393Y-122028109D01*
X187265403Y-122028123D01*
X187477361Y-122286395D01*
X187713604Y-122522638D01*
X187713609Y-122522642D01*
X187713610Y-122522643D01*
X187971882Y-122734601D01*
X188249685Y-122920224D01*
X188249694Y-122920229D01*
X188249696Y-122920230D01*
X188544338Y-123077719D01*
X188544340Y-123077719D01*
X188544346Y-123077723D01*
X188853024Y-123205582D01*
X189172749Y-123302569D01*
X189172755Y-123302570D01*
X189172758Y-123302571D01*
X189172769Y-123302574D01*
X189378243Y-123343444D01*
X189500441Y-123367751D01*
X189832944Y-123400500D01*
X189832947Y-123400500D01*
X190167053Y-123400500D01*
X190167056Y-123400500D01*
X190499559Y-123367751D01*
X190661757Y-123335487D01*
X190827230Y-123302574D01*
X190827241Y-123302571D01*
X190827241Y-123302570D01*
X190827251Y-123302569D01*
X191146976Y-123205582D01*
X191455654Y-123077723D01*
X191750315Y-122920224D01*
X192028118Y-122734601D01*
X192286390Y-122522643D01*
X192522643Y-122286390D01*
X192734601Y-122028118D01*
X192920224Y-121750315D01*
X193077723Y-121455654D01*
X193205582Y-121146976D01*
X193302569Y-120827251D01*
X193302571Y-120827241D01*
X193302574Y-120827230D01*
X193335487Y-120661757D01*
X193367751Y-120499559D01*
X193400500Y-120167056D01*
X193400500Y-119832944D01*
X193367751Y-119500441D01*
X193337348Y-119347596D01*
X193302574Y-119172769D01*
X193302571Y-119172758D01*
X193302570Y-119172755D01*
X193302569Y-119172749D01*
X193205582Y-118853024D01*
X193077723Y-118544346D01*
X193077317Y-118543587D01*
X192920230Y-118249696D01*
X192920229Y-118249694D01*
X192920224Y-118249685D01*
X192734601Y-117971882D01*
X192522643Y-117713610D01*
X192522642Y-117713609D01*
X192522638Y-117713604D01*
X192286395Y-117477361D01*
X192028123Y-117265403D01*
X192028122Y-117265402D01*
X192028118Y-117265399D01*
X191750315Y-117079776D01*
X191750310Y-117079773D01*
X191750303Y-117079769D01*
X191455661Y-116922280D01*
X191455656Y-116922278D01*
X191452090Y-116920801D01*
X191365247Y-116884829D01*
X191146977Y-116794418D01*
X190827241Y-116697428D01*
X190827230Y-116697425D01*
X190499565Y-116632250D01*
X190499548Y-116632247D01*
X190248108Y-116607483D01*
X190167056Y-116599500D01*
X189832944Y-116599500D01*
X189757982Y-116606883D01*
X189500451Y-116632247D01*
X189500434Y-116632250D01*
X189172769Y-116697425D01*
X189172758Y-116697428D01*
X188853022Y-116794418D01*
X188544343Y-116922278D01*
X188544338Y-116922280D01*
X188249696Y-117079769D01*
X188249678Y-117079780D01*
X187971890Y-117265393D01*
X187971876Y-117265403D01*
X187713604Y-117477361D01*
X187477361Y-117713604D01*
X187265403Y-117971876D01*
X187265393Y-117971890D01*
X187079780Y-118249678D01*
X187079769Y-118249696D01*
X186922280Y-118544338D01*
X186922278Y-118544343D01*
X186794418Y-118853022D01*
X186697428Y-119172758D01*
X186697425Y-119172769D01*
X186632250Y-119500434D01*
X186632247Y-119500451D01*
X186599500Y-119832947D01*
X158600500Y-119832947D01*
X158600500Y-119820730D01*
X158597646Y-119790300D01*
X158597646Y-119790298D01*
X158554143Y-119665977D01*
X158552793Y-119662118D01*
X158472150Y-119552850D01*
X158362882Y-119472207D01*
X158362880Y-119472206D01*
X158234700Y-119427353D01*
X158204270Y-119424500D01*
X158204266Y-119424500D01*
X157395734Y-119424500D01*
X157395730Y-119424500D01*
X157365300Y-119427353D01*
X157365298Y-119427353D01*
X157237119Y-119472206D01*
X157237117Y-119472207D01*
X157127850Y-119552850D01*
X157047207Y-119662117D01*
X157047206Y-119662119D01*
X157002353Y-119790298D01*
X157002353Y-119790300D01*
X156999500Y-119820730D01*
X156492629Y-119820730D01*
X156421789Y-119714711D01*
X156421786Y-119714707D01*
X156310292Y-119603213D01*
X156310288Y-119603210D01*
X156179185Y-119515609D01*
X156179172Y-119515602D01*
X156033501Y-119455264D01*
X156033489Y-119455261D01*
X155878845Y-119424500D01*
X155878842Y-119424500D01*
X155721158Y-119424500D01*
X155721155Y-119424500D01*
X155566510Y-119455261D01*
X155566498Y-119455264D01*
X155420827Y-119515602D01*
X155420814Y-119515609D01*
X155289711Y-119603210D01*
X155289707Y-119603213D01*
X155178213Y-119714707D01*
X155178210Y-119714711D01*
X155090609Y-119845814D01*
X155090602Y-119845827D01*
X155030264Y-119991498D01*
X155030261Y-119991510D01*
X154999500Y-120146153D01*
X151600500Y-120146153D01*
X151600500Y-119820730D01*
X151597646Y-119790300D01*
X151597646Y-119790298D01*
X151554143Y-119665977D01*
X151552793Y-119662118D01*
X151472150Y-119552850D01*
X151362882Y-119472207D01*
X151362880Y-119472206D01*
X151234700Y-119427353D01*
X151204270Y-119424500D01*
X151204266Y-119424500D01*
X150395734Y-119424500D01*
X150395730Y-119424500D01*
X150365300Y-119427353D01*
X150365298Y-119427353D01*
X150237119Y-119472206D01*
X150237117Y-119472207D01*
X150127850Y-119552850D01*
X150047207Y-119662117D01*
X150047206Y-119662119D01*
X150002353Y-119790298D01*
X150002353Y-119790300D01*
X149999500Y-119820730D01*
X149492629Y-119820730D01*
X149421789Y-119714711D01*
X149421786Y-119714707D01*
X149310292Y-119603213D01*
X149310288Y-119603210D01*
X149179185Y-119515609D01*
X149179172Y-119515602D01*
X149033501Y-119455264D01*
X149033489Y-119455261D01*
X148878845Y-119424500D01*
X148878842Y-119424500D01*
X148721158Y-119424500D01*
X148721155Y-119424500D01*
X148566510Y-119455261D01*
X148566498Y-119455264D01*
X148420827Y-119515602D01*
X148420814Y-119515609D01*
X148289711Y-119603210D01*
X148289707Y-119603213D01*
X148178213Y-119714707D01*
X148178210Y-119714711D01*
X148090609Y-119845814D01*
X148090602Y-119845827D01*
X148030264Y-119991498D01*
X148030261Y-119991510D01*
X147999500Y-120146153D01*
X133400500Y-120146153D01*
X133400500Y-119832944D01*
X133367751Y-119500441D01*
X133337348Y-119347596D01*
X133302574Y-119172769D01*
X133302571Y-119172758D01*
X133302570Y-119172755D01*
X133302569Y-119172749D01*
X133205582Y-118853024D01*
X133161471Y-118746530D01*
X138999500Y-118746530D01*
X138999500Y-118953469D01*
X139039868Y-119156412D01*
X139039870Y-119156420D01*
X139119058Y-119347596D01*
X139234024Y-119519657D01*
X139380342Y-119665975D01*
X139380345Y-119665977D01*
X139552402Y-119780941D01*
X139743580Y-119860130D01*
X139946530Y-119900499D01*
X139946534Y-119900500D01*
X139946535Y-119900500D01*
X140153466Y-119900500D01*
X140153467Y-119900499D01*
X140356420Y-119860130D01*
X140547598Y-119780941D01*
X140719655Y-119665977D01*
X140865977Y-119519655D01*
X140980941Y-119347598D01*
X141060130Y-119156420D01*
X141100500Y-118953465D01*
X141100500Y-118746535D01*
X141060130Y-118543580D01*
X141029938Y-118470691D01*
X169249500Y-118470691D01*
X169249500Y-118589309D01*
X169280201Y-118703886D01*
X169339511Y-118806613D01*
X169423387Y-118890489D01*
X169526114Y-118949799D01*
X169640691Y-118980500D01*
X169640694Y-118980500D01*
X169759306Y-118980500D01*
X169759309Y-118980500D01*
X169873886Y-118949799D01*
X169976613Y-118890489D01*
X170060489Y-118806613D01*
X170119799Y-118703886D01*
X170150500Y-118589309D01*
X170150500Y-118470691D01*
X170119799Y-118356114D01*
X170060489Y-118253387D01*
X169976613Y-118169511D01*
X169873886Y-118110201D01*
X169759309Y-118079500D01*
X169640691Y-118079500D01*
X169526114Y-118110201D01*
X169526112Y-118110201D01*
X169526112Y-118110202D01*
X169423387Y-118169511D01*
X169423384Y-118169513D01*
X169339513Y-118253384D01*
X169339511Y-118253387D01*
X169282344Y-118352403D01*
X169280201Y-118356114D01*
X169249500Y-118470691D01*
X141029938Y-118470691D01*
X140982478Y-118356112D01*
X140980942Y-118352403D01*
X140865975Y-118180342D01*
X140719657Y-118034024D01*
X140626645Y-117971876D01*
X140547598Y-117919059D01*
X140356420Y-117839870D01*
X140356412Y-117839868D01*
X140153469Y-117799500D01*
X140153465Y-117799500D01*
X139946535Y-117799500D01*
X139946530Y-117799500D01*
X139743587Y-117839868D01*
X139743579Y-117839870D01*
X139552403Y-117919058D01*
X139380342Y-118034024D01*
X139234024Y-118180342D01*
X139119058Y-118352403D01*
X139039870Y-118543579D01*
X139039868Y-118543587D01*
X138999500Y-118746530D01*
X133161471Y-118746530D01*
X133077723Y-118544346D01*
X133077317Y-118543587D01*
X132920230Y-118249696D01*
X132920229Y-118249694D01*
X132920224Y-118249685D01*
X132734601Y-117971882D01*
X132522643Y-117713610D01*
X132522642Y-117713609D01*
X132522638Y-117713604D01*
X132286395Y-117477361D01*
X132028123Y-117265403D01*
X132028122Y-117265402D01*
X132028118Y-117265399D01*
X131750315Y-117079776D01*
X131750310Y-117079773D01*
X131750303Y-117079769D01*
X131701624Y-117053750D01*
X131508418Y-116950479D01*
X137203449Y-116950479D01*
X137203449Y-117157418D01*
X137243817Y-117360361D01*
X137243819Y-117360369D01*
X137323007Y-117551545D01*
X137437973Y-117723606D01*
X137584291Y-117869924D01*
X137584294Y-117869926D01*
X137756351Y-117984890D01*
X137947529Y-118064079D01*
X138150479Y-118104448D01*
X138150483Y-118104449D01*
X138150484Y-118104449D01*
X138357415Y-118104449D01*
X138357416Y-118104448D01*
X138560369Y-118064079D01*
X138751547Y-117984890D01*
X138923604Y-117869926D01*
X139069926Y-117723604D01*
X139184890Y-117551547D01*
X139224669Y-117455513D01*
X170699500Y-117455513D01*
X170699500Y-117644486D01*
X170729059Y-117831118D01*
X170787454Y-118010836D01*
X170838084Y-118110202D01*
X170873240Y-118179199D01*
X170984310Y-118332073D01*
X171117927Y-118465690D01*
X171270801Y-118576760D01*
X171350347Y-118617290D01*
X171439163Y-118662545D01*
X171439165Y-118662545D01*
X171439168Y-118662547D01*
X171535497Y-118693846D01*
X171618881Y-118720940D01*
X171805514Y-118750500D01*
X171805519Y-118750500D01*
X171994486Y-118750500D01*
X172181118Y-118720940D01*
X172233604Y-118703886D01*
X172360832Y-118662547D01*
X172529199Y-118576760D01*
X172682073Y-118465690D01*
X172815690Y-118332073D01*
X172926760Y-118179199D01*
X173012547Y-118010832D01*
X173070940Y-117831118D01*
X173087968Y-117723606D01*
X173100500Y-117644486D01*
X173100500Y-117455513D01*
X177199500Y-117455513D01*
X177199500Y-117644486D01*
X177229059Y-117831118D01*
X177287454Y-118010836D01*
X177338084Y-118110202D01*
X177373240Y-118179199D01*
X177484310Y-118332073D01*
X177617927Y-118465690D01*
X177770801Y-118576760D01*
X177850347Y-118617290D01*
X177939163Y-118662545D01*
X177939165Y-118662545D01*
X177939168Y-118662547D01*
X178035497Y-118693846D01*
X178118881Y-118720940D01*
X178305514Y-118750500D01*
X178305519Y-118750500D01*
X178494486Y-118750500D01*
X178681118Y-118720940D01*
X178733604Y-118703886D01*
X178860832Y-118662547D01*
X179029199Y-118576760D01*
X179182073Y-118465690D01*
X179315690Y-118332073D01*
X179426760Y-118179199D01*
X179512547Y-118010832D01*
X179570940Y-117831118D01*
X179587968Y-117723606D01*
X179600500Y-117644486D01*
X179600500Y-117455513D01*
X179570940Y-117268881D01*
X179512545Y-117089163D01*
X179441884Y-116950484D01*
X179426760Y-116920801D01*
X179315690Y-116767927D01*
X179182073Y-116634310D01*
X179029199Y-116523240D01*
X178860836Y-116437454D01*
X178681118Y-116379059D01*
X178494486Y-116349500D01*
X178494481Y-116349500D01*
X178305519Y-116349500D01*
X178305514Y-116349500D01*
X178118881Y-116379059D01*
X177939163Y-116437454D01*
X177770800Y-116523240D01*
X177725226Y-116556352D01*
X177617927Y-116634310D01*
X177617925Y-116634312D01*
X177617924Y-116634312D01*
X177484312Y-116767924D01*
X177484312Y-116767925D01*
X177484310Y-116767927D01*
X177465063Y-116794418D01*
X177373240Y-116920800D01*
X177287454Y-117089163D01*
X177229059Y-117268881D01*
X177199500Y-117455513D01*
X173100500Y-117455513D01*
X173070940Y-117268881D01*
X173012545Y-117089163D01*
X172941884Y-116950484D01*
X172926760Y-116920801D01*
X172815690Y-116767927D01*
X172682073Y-116634310D01*
X172529199Y-116523240D01*
X172360836Y-116437454D01*
X172181118Y-116379059D01*
X171994486Y-116349500D01*
X171994481Y-116349500D01*
X171805519Y-116349500D01*
X171805514Y-116349500D01*
X171618881Y-116379059D01*
X171439163Y-116437454D01*
X171270800Y-116523240D01*
X171225226Y-116556352D01*
X171117927Y-116634310D01*
X171117925Y-116634312D01*
X171117924Y-116634312D01*
X170984312Y-116767924D01*
X170984312Y-116767925D01*
X170984310Y-116767927D01*
X170965063Y-116794418D01*
X170873240Y-116920800D01*
X170787454Y-117089163D01*
X170729059Y-117268881D01*
X170699500Y-117455513D01*
X139224669Y-117455513D01*
X139264079Y-117360369D01*
X139304449Y-117157414D01*
X139304449Y-116950484D01*
X139264079Y-116747529D01*
X139184890Y-116556351D01*
X139069926Y-116384294D01*
X139069924Y-116384291D01*
X138923606Y-116237973D01*
X138837575Y-116180490D01*
X138751547Y-116123008D01*
X138560369Y-116043819D01*
X138560361Y-116043817D01*
X138357418Y-116003449D01*
X138357414Y-116003449D01*
X138150484Y-116003449D01*
X138150479Y-116003449D01*
X137947536Y-116043817D01*
X137947528Y-116043819D01*
X137756352Y-116123007D01*
X137584291Y-116237973D01*
X137437973Y-116384291D01*
X137323007Y-116556352D01*
X137243819Y-116747528D01*
X137243817Y-116747536D01*
X137203449Y-116950479D01*
X131508418Y-116950479D01*
X131455661Y-116922280D01*
X131455656Y-116922278D01*
X131452090Y-116920801D01*
X131365247Y-116884829D01*
X131146977Y-116794418D01*
X130827241Y-116697428D01*
X130827230Y-116697425D01*
X130499565Y-116632250D01*
X130499548Y-116632247D01*
X130248108Y-116607483D01*
X130167056Y-116599500D01*
X129832944Y-116599500D01*
X129757982Y-116606883D01*
X129500451Y-116632247D01*
X129500434Y-116632250D01*
X129172769Y-116697425D01*
X129172758Y-116697428D01*
X128853022Y-116794418D01*
X128544343Y-116922278D01*
X128544338Y-116922280D01*
X128249696Y-117079769D01*
X128249678Y-117079780D01*
X127971890Y-117265393D01*
X127971876Y-117265403D01*
X127713604Y-117477361D01*
X127477361Y-117713604D01*
X127265403Y-117971876D01*
X127265393Y-117971890D01*
X127079780Y-118249678D01*
X127079769Y-118249696D01*
X126922280Y-118544338D01*
X126922278Y-118544343D01*
X126794418Y-118853022D01*
X126697428Y-119172758D01*
X126697425Y-119172769D01*
X126632250Y-119500434D01*
X126632247Y-119500451D01*
X126599500Y-119832947D01*
X126300500Y-119832947D01*
X126300500Y-115154428D01*
X135407398Y-115154428D01*
X135407398Y-115361367D01*
X135447766Y-115564310D01*
X135447768Y-115564318D01*
X135526956Y-115755494D01*
X135641922Y-115927555D01*
X135788240Y-116073873D01*
X135788243Y-116073875D01*
X135960300Y-116188839D01*
X136151478Y-116268028D01*
X136354428Y-116308397D01*
X136354432Y-116308398D01*
X136354433Y-116308398D01*
X136561364Y-116308398D01*
X136561365Y-116308397D01*
X136764318Y-116268028D01*
X136955496Y-116188839D01*
X137127553Y-116073875D01*
X137273875Y-115927553D01*
X137388839Y-115755496D01*
X137468028Y-115564318D01*
X137508398Y-115361363D01*
X137508398Y-115154433D01*
X137468028Y-114951478D01*
X137388839Y-114760300D01*
X137273875Y-114588243D01*
X137273873Y-114588240D01*
X137127555Y-114441922D01*
X137041524Y-114384439D01*
X136955496Y-114326957D01*
X136764318Y-114247768D01*
X136764310Y-114247766D01*
X136561367Y-114207398D01*
X136561363Y-114207398D01*
X136354433Y-114207398D01*
X136354428Y-114207398D01*
X136151485Y-114247766D01*
X136151477Y-114247768D01*
X135960301Y-114326956D01*
X135788240Y-114441922D01*
X135641922Y-114588240D01*
X135526956Y-114760301D01*
X135447768Y-114951477D01*
X135447766Y-114951485D01*
X135407398Y-115154428D01*
X126300500Y-115154428D01*
X126300500Y-113358376D01*
X133611346Y-113358376D01*
X133611346Y-113565315D01*
X133651714Y-113768258D01*
X133651716Y-113768266D01*
X133730904Y-113959442D01*
X133845870Y-114131503D01*
X133992188Y-114277821D01*
X133992191Y-114277823D01*
X134164248Y-114392787D01*
X134355426Y-114471976D01*
X134558376Y-114512345D01*
X134558380Y-114512346D01*
X134558381Y-114512346D01*
X134765312Y-114512346D01*
X134765313Y-114512345D01*
X134968266Y-114471976D01*
X135159444Y-114392787D01*
X135331501Y-114277823D01*
X135477823Y-114131501D01*
X135592787Y-113959444D01*
X135671976Y-113768266D01*
X135712346Y-113565311D01*
X135712346Y-113358381D01*
X135671976Y-113155426D01*
X135592787Y-112964248D01*
X135477823Y-112792191D01*
X135477821Y-112792188D01*
X135331503Y-112645870D01*
X135245472Y-112588387D01*
X135159444Y-112530905D01*
X134968266Y-112451716D01*
X134968258Y-112451714D01*
X134765315Y-112411346D01*
X134765311Y-112411346D01*
X134558381Y-112411346D01*
X134558376Y-112411346D01*
X134355433Y-112451714D01*
X134355425Y-112451716D01*
X134164249Y-112530904D01*
X133992188Y-112645870D01*
X133845870Y-112792188D01*
X133730904Y-112964249D01*
X133651716Y-113155425D01*
X133651714Y-113155433D01*
X133611346Y-113358376D01*
X126300500Y-113358376D01*
X126300500Y-111562325D01*
X131815295Y-111562325D01*
X131815295Y-111769264D01*
X131855663Y-111972207D01*
X131855665Y-111972215D01*
X131934853Y-112163391D01*
X132049819Y-112335452D01*
X132196137Y-112481770D01*
X132196140Y-112481772D01*
X132368197Y-112596736D01*
X132559375Y-112675925D01*
X132762325Y-112716294D01*
X132762329Y-112716295D01*
X132762330Y-112716295D01*
X132969261Y-112716295D01*
X132969262Y-112716294D01*
X133172215Y-112675925D01*
X133363393Y-112596736D01*
X133535450Y-112481772D01*
X133681772Y-112335450D01*
X133796736Y-112163393D01*
X133875925Y-111972215D01*
X133916295Y-111769260D01*
X133916295Y-111562330D01*
X133875925Y-111359375D01*
X133796736Y-111168197D01*
X133681772Y-110996140D01*
X133681770Y-110996137D01*
X133535452Y-110849819D01*
X133417654Y-110771110D01*
X133363393Y-110734854D01*
X133329338Y-110720748D01*
X133172215Y-110655665D01*
X133172207Y-110655663D01*
X132969264Y-110615295D01*
X132969260Y-110615295D01*
X132762330Y-110615295D01*
X132762325Y-110615295D01*
X132559382Y-110655663D01*
X132559374Y-110655665D01*
X132368198Y-110734853D01*
X132196137Y-110849819D01*
X132049819Y-110996137D01*
X131934853Y-111168198D01*
X131855665Y-111359374D01*
X131855663Y-111359382D01*
X131815295Y-111562325D01*
X126300500Y-111562325D01*
X126300500Y-109813663D01*
X129567662Y-109813663D01*
X129567662Y-109925823D01*
X129608179Y-110030409D01*
X129623854Y-110050200D01*
X129623858Y-110050204D01*
X130150505Y-110576850D01*
X130626073Y-110101282D01*
X130669645Y-110176751D01*
X130762737Y-110269843D01*
X130838204Y-110313414D01*
X130362637Y-110788981D01*
X130362637Y-110788982D01*
X130889280Y-111315625D01*
X130889291Y-111315635D01*
X130909080Y-111331310D01*
X131013663Y-111371826D01*
X131125824Y-111371826D01*
X131230409Y-111331308D01*
X131250200Y-111315633D01*
X131250204Y-111315629D01*
X131776850Y-110788982D01*
X131776850Y-110788981D01*
X131301282Y-110313414D01*
X131376751Y-110269843D01*
X131469843Y-110176751D01*
X131513414Y-110101282D01*
X131988981Y-110576850D01*
X131988982Y-110576850D01*
X132214518Y-110351315D01*
X136938876Y-110351315D01*
X136938876Y-110469933D01*
X136969577Y-110584510D01*
X137028887Y-110687237D01*
X137112763Y-110771113D01*
X137215490Y-110830423D01*
X137330067Y-110861124D01*
X137330070Y-110861124D01*
X137448682Y-110861124D01*
X137448685Y-110861124D01*
X137563262Y-110830423D01*
X137600596Y-110808867D01*
X137668495Y-110792394D01*
X137734522Y-110815245D01*
X137777714Y-110870165D01*
X137784357Y-110939719D01*
X137769985Y-110978253D01*
X137758954Y-110997359D01*
X137758954Y-110997360D01*
X137758953Y-110997362D01*
X137728252Y-111111939D01*
X137728252Y-111230557D01*
X137758953Y-111345134D01*
X137818263Y-111447861D01*
X137902139Y-111531737D01*
X138004866Y-111591047D01*
X138119443Y-111621748D01*
X138119446Y-111621748D01*
X138238058Y-111621748D01*
X138238061Y-111621748D01*
X138352638Y-111591047D01*
X138455365Y-111531737D01*
X138539241Y-111447861D01*
X138598551Y-111345134D01*
X138629252Y-111230557D01*
X138629252Y-111111939D01*
X138598551Y-110997362D01*
X138539241Y-110894635D01*
X138455365Y-110810759D01*
X138352638Y-110751449D01*
X138238061Y-110720748D01*
X138119443Y-110720748D01*
X138004866Y-110751449D01*
X138004865Y-110751449D01*
X138004863Y-110751450D01*
X137967529Y-110773005D01*
X137899629Y-110789477D01*
X137833602Y-110766624D01*
X137790412Y-110711702D01*
X137783771Y-110642149D01*
X137798143Y-110603616D01*
X137809175Y-110584510D01*
X137839876Y-110469933D01*
X137839876Y-110351315D01*
X137809175Y-110236738D01*
X137749865Y-110134011D01*
X137665989Y-110050135D01*
X137563262Y-109990825D01*
X137448685Y-109960124D01*
X137330067Y-109960124D01*
X137215490Y-109990825D01*
X137215488Y-109990825D01*
X137215488Y-109990826D01*
X137112763Y-110050135D01*
X137112760Y-110050137D01*
X137028889Y-110134008D01*
X137028887Y-110134011D01*
X136969577Y-110236738D01*
X136938876Y-110351315D01*
X132214518Y-110351315D01*
X132310326Y-110255507D01*
X132515625Y-110050207D01*
X132515635Y-110050196D01*
X132531310Y-110030407D01*
X132571826Y-109925824D01*
X132571826Y-109813664D01*
X132531308Y-109709078D01*
X132515633Y-109689287D01*
X132515629Y-109689283D01*
X131988982Y-109162637D01*
X131988981Y-109162637D01*
X131513414Y-109638204D01*
X131469843Y-109562737D01*
X131376751Y-109469645D01*
X131301282Y-109426073D01*
X131776850Y-108950505D01*
X131250207Y-108423862D01*
X131250196Y-108423852D01*
X131230407Y-108408177D01*
X131125825Y-108367662D01*
X131013664Y-108367662D01*
X130909078Y-108408179D01*
X130889287Y-108423854D01*
X130889283Y-108423858D01*
X130362637Y-108950505D01*
X130838205Y-109426073D01*
X130762737Y-109469645D01*
X130669645Y-109562737D01*
X130626073Y-109638205D01*
X130150505Y-109162637D01*
X130150504Y-109162637D01*
X129623860Y-109689281D01*
X129608177Y-109709080D01*
X129567662Y-109813663D01*
X126300500Y-109813663D01*
X126300500Y-106540691D01*
X152249500Y-106540691D01*
X152249500Y-106659309D01*
X152280201Y-106773886D01*
X152339511Y-106876613D01*
X152423387Y-106960489D01*
X152526114Y-107019799D01*
X152565027Y-107030225D01*
X152624686Y-107066590D01*
X152655215Y-107129437D01*
X152646920Y-107198813D01*
X152602435Y-107252691D01*
X152565028Y-107269773D01*
X152526114Y-107280201D01*
X152526112Y-107280201D01*
X152526112Y-107280202D01*
X152423387Y-107339511D01*
X152423384Y-107339513D01*
X152339513Y-107423384D01*
X152339511Y-107423387D01*
X152280201Y-107526114D01*
X152249500Y-107640691D01*
X152249500Y-107759309D01*
X152280201Y-107873886D01*
X152339511Y-107976613D01*
X152423387Y-108060489D01*
X152479027Y-108092613D01*
X152527242Y-108143181D01*
X152540464Y-108211788D01*
X152514496Y-108276653D01*
X152479027Y-108307387D01*
X152423387Y-108339511D01*
X152423384Y-108339513D01*
X152339513Y-108423384D01*
X152339511Y-108423387D01*
X152280201Y-108526114D01*
X152249500Y-108640691D01*
X152249500Y-108759309D01*
X152280201Y-108873886D01*
X152339511Y-108976613D01*
X152423387Y-109060489D01*
X152526114Y-109119799D01*
X152640691Y-109150500D01*
X152640694Y-109150500D01*
X152759306Y-109150500D01*
X152759309Y-109150500D01*
X152873886Y-109119799D01*
X152976613Y-109060489D01*
X153060489Y-108976613D01*
X153119799Y-108873886D01*
X153150500Y-108759309D01*
X153150500Y-108640691D01*
X153119799Y-108526114D01*
X153060489Y-108423387D01*
X152976613Y-108339511D01*
X152920972Y-108307386D01*
X152872757Y-108256820D01*
X152859535Y-108188213D01*
X152885503Y-108123348D01*
X152920973Y-108092613D01*
X152976613Y-108060489D01*
X153060489Y-107976613D01*
X153119799Y-107873886D01*
X153150500Y-107759309D01*
X153150500Y-107640691D01*
X153119799Y-107526114D01*
X153060489Y-107423387D01*
X152976613Y-107339511D01*
X152925249Y-107309856D01*
X152873887Y-107280201D01*
X152860343Y-107276572D01*
X152834972Y-107269774D01*
X152775313Y-107233410D01*
X152744784Y-107170563D01*
X152753079Y-107101188D01*
X152797564Y-107047310D01*
X152834971Y-107030226D01*
X152873886Y-107019799D01*
X152976613Y-106960489D01*
X153060489Y-106876613D01*
X153119799Y-106773886D01*
X153150500Y-106659309D01*
X153150500Y-106540691D01*
X153549500Y-106540691D01*
X153549500Y-106659309D01*
X153580201Y-106773886D01*
X153639511Y-106876613D01*
X153723387Y-106960489D01*
X153779027Y-106992613D01*
X153827242Y-107043181D01*
X153840464Y-107111788D01*
X153814496Y-107176653D01*
X153779027Y-107207387D01*
X153723387Y-107239511D01*
X153723384Y-107239513D01*
X153639513Y-107323384D01*
X153639511Y-107323387D01*
X153580201Y-107426114D01*
X153549500Y-107540691D01*
X153549500Y-107659309D01*
X153580201Y-107773886D01*
X153639511Y-107876613D01*
X153723387Y-107960489D01*
X153826114Y-108019799D01*
X153865027Y-108030225D01*
X153924686Y-108066590D01*
X153955215Y-108129437D01*
X153946920Y-108198813D01*
X153902435Y-108252691D01*
X153865028Y-108269773D01*
X153826114Y-108280201D01*
X153826112Y-108280201D01*
X153826112Y-108280202D01*
X153723387Y-108339511D01*
X153723384Y-108339513D01*
X153639513Y-108423384D01*
X153639511Y-108423387D01*
X153580201Y-108526114D01*
X153549500Y-108640691D01*
X153549500Y-108759309D01*
X153580201Y-108873886D01*
X153639511Y-108976613D01*
X153723387Y-109060489D01*
X153826114Y-109119799D01*
X153940691Y-109150500D01*
X153940694Y-109150500D01*
X154059306Y-109150500D01*
X154059309Y-109150500D01*
X154173886Y-109119799D01*
X154276613Y-109060489D01*
X154360489Y-108976613D01*
X154419799Y-108873886D01*
X154450500Y-108759309D01*
X154450500Y-108640691D01*
X154419799Y-108526114D01*
X154360489Y-108423387D01*
X154276613Y-108339511D01*
X154220973Y-108307387D01*
X154173887Y-108280201D01*
X154160343Y-108276572D01*
X154134972Y-108269774D01*
X154075313Y-108233410D01*
X154044784Y-108170563D01*
X154053079Y-108101188D01*
X154097564Y-108047310D01*
X154134971Y-108030226D01*
X154173886Y-108019799D01*
X154276613Y-107960489D01*
X154360489Y-107876613D01*
X154419799Y-107773886D01*
X154430225Y-107734972D01*
X154466590Y-107675313D01*
X154529437Y-107644784D01*
X154598812Y-107653079D01*
X154652690Y-107697564D01*
X154669773Y-107734971D01*
X154676294Y-107759306D01*
X154680201Y-107773887D01*
X154709856Y-107825249D01*
X154739511Y-107876613D01*
X154823387Y-107960489D01*
X154912348Y-108011851D01*
X154926110Y-108019797D01*
X154926114Y-108019799D01*
X155015721Y-108043809D01*
X155075380Y-108080173D01*
X155105909Y-108143020D01*
X155097614Y-108212395D01*
X155053129Y-108266273D01*
X155031080Y-108278144D01*
X155026114Y-108280200D01*
X154923387Y-108339511D01*
X154923384Y-108339513D01*
X154839513Y-108423384D01*
X154839511Y-108423387D01*
X154780201Y-108526114D01*
X154749500Y-108640691D01*
X154749500Y-108759309D01*
X154780201Y-108873886D01*
X154839511Y-108976613D01*
X154923387Y-109060489D01*
X155026114Y-109119799D01*
X155140691Y-109150500D01*
X155140694Y-109150500D01*
X155259306Y-109150500D01*
X155259309Y-109150500D01*
X155373886Y-109119799D01*
X155476613Y-109060489D01*
X155560489Y-108976613D01*
X155619799Y-108873886D01*
X155630225Y-108834972D01*
X155666590Y-108775313D01*
X155729437Y-108744784D01*
X155798812Y-108753079D01*
X155852690Y-108797564D01*
X155869773Y-108834971D01*
X155876572Y-108860343D01*
X155880201Y-108873887D01*
X155909856Y-108925249D01*
X155939511Y-108976613D01*
X156023387Y-109060489D01*
X156126114Y-109119799D01*
X156240691Y-109150500D01*
X156240694Y-109150500D01*
X156359306Y-109150500D01*
X156359309Y-109150500D01*
X156473886Y-109119799D01*
X156576613Y-109060489D01*
X156660489Y-108976613D01*
X156719799Y-108873886D01*
X156750500Y-108759309D01*
X156750500Y-108640691D01*
X156723705Y-108540691D01*
X165169500Y-108540691D01*
X165169500Y-108659309D01*
X165200201Y-108773886D01*
X165259511Y-108876613D01*
X165343387Y-108960489D01*
X165446114Y-109019799D01*
X165560691Y-109050500D01*
X165560694Y-109050500D01*
X165679306Y-109050500D01*
X165679309Y-109050500D01*
X165793886Y-109019799D01*
X165896613Y-108960489D01*
X165980489Y-108876613D01*
X166039799Y-108773886D01*
X166070500Y-108659309D01*
X166070500Y-108540691D01*
X166039799Y-108426114D01*
X165980489Y-108323387D01*
X165896613Y-108239511D01*
X165793886Y-108180201D01*
X165679309Y-108149500D01*
X165560691Y-108149500D01*
X165446114Y-108180201D01*
X165446112Y-108180201D01*
X165446112Y-108180202D01*
X165343387Y-108239511D01*
X165343384Y-108239513D01*
X165259513Y-108323384D01*
X165259511Y-108323387D01*
X165201504Y-108423858D01*
X165200201Y-108426114D01*
X165169500Y-108540691D01*
X156723705Y-108540691D01*
X156719799Y-108526114D01*
X156660489Y-108423387D01*
X156576613Y-108339511D01*
X156520973Y-108307387D01*
X156473887Y-108280201D01*
X156460343Y-108276572D01*
X156434972Y-108269774D01*
X156375313Y-108233410D01*
X156344784Y-108170563D01*
X156353079Y-108101188D01*
X156397564Y-108047310D01*
X156434971Y-108030226D01*
X156473886Y-108019799D01*
X156576613Y-107960489D01*
X156660489Y-107876613D01*
X156719799Y-107773886D01*
X156750500Y-107659309D01*
X156750500Y-107540691D01*
X156719799Y-107426114D01*
X156660489Y-107323387D01*
X156576613Y-107239511D01*
X156520972Y-107207386D01*
X156472757Y-107156820D01*
X156459535Y-107088213D01*
X156485503Y-107023348D01*
X156520973Y-106992613D01*
X156576613Y-106960489D01*
X156660489Y-106876613D01*
X156719799Y-106773886D01*
X156735392Y-106715691D01*
X162549500Y-106715691D01*
X162549500Y-106834309D01*
X162580201Y-106948886D01*
X162639511Y-107051613D01*
X162723387Y-107135489D01*
X162826114Y-107194799D01*
X162940691Y-107225500D01*
X162940694Y-107225500D01*
X163059306Y-107225500D01*
X163059309Y-107225500D01*
X163173886Y-107194799D01*
X163276613Y-107135489D01*
X163360489Y-107051613D01*
X163419799Y-106948886D01*
X163450500Y-106834309D01*
X163450500Y-106715691D01*
X163428787Y-106634657D01*
X163428787Y-106634655D01*
X163422365Y-106610691D01*
X191099500Y-106610691D01*
X191099500Y-106729309D01*
X191130201Y-106843886D01*
X191189511Y-106946613D01*
X191273387Y-107030489D01*
X191376114Y-107089799D01*
X191490691Y-107120500D01*
X191490694Y-107120500D01*
X191609306Y-107120500D01*
X191609309Y-107120500D01*
X191723886Y-107089799D01*
X191826613Y-107030489D01*
X191910489Y-106946613D01*
X191969799Y-106843886D01*
X192000500Y-106729309D01*
X192000500Y-106610691D01*
X191969799Y-106496114D01*
X191910489Y-106393387D01*
X191826613Y-106309511D01*
X191723886Y-106250201D01*
X191609309Y-106219500D01*
X191490691Y-106219500D01*
X191376114Y-106250201D01*
X191376112Y-106250201D01*
X191376112Y-106250202D01*
X191273387Y-106309511D01*
X191273384Y-106309513D01*
X191189513Y-106393384D01*
X191189511Y-106393387D01*
X191130201Y-106496114D01*
X191099500Y-106610691D01*
X163422365Y-106610691D01*
X163419799Y-106601115D01*
X163419799Y-106601114D01*
X163393299Y-106555215D01*
X163360489Y-106498387D01*
X163276613Y-106414511D01*
X163173886Y-106355201D01*
X163059309Y-106324500D01*
X162940691Y-106324500D01*
X162826114Y-106355201D01*
X162826112Y-106355201D01*
X162826112Y-106355202D01*
X162723387Y-106414511D01*
X162723384Y-106414513D01*
X162639513Y-106498384D01*
X162639511Y-106498387D01*
X162615087Y-106540691D01*
X162580201Y-106601114D01*
X162549500Y-106715691D01*
X156735392Y-106715691D01*
X156750500Y-106659309D01*
X156750500Y-106540691D01*
X156719799Y-106426114D01*
X156660489Y-106323387D01*
X156608388Y-106271286D01*
X156574903Y-106209963D01*
X156579887Y-106140271D01*
X156621759Y-106084338D01*
X156687223Y-106059921D01*
X156696005Y-106059606D01*
X172126087Y-106055532D01*
X172169744Y-106050829D01*
X172221222Y-106039623D01*
X172231373Y-106037142D01*
X172312085Y-105994132D01*
X172364889Y-105948377D01*
X172382843Y-105930786D01*
X172427490Y-105850969D01*
X172447175Y-105783930D01*
X172455500Y-105726032D01*
X172455500Y-105430691D01*
X175459500Y-105430691D01*
X175459500Y-105549309D01*
X175490201Y-105663886D01*
X175549511Y-105766613D01*
X175633387Y-105850489D01*
X175736114Y-105909799D01*
X175850691Y-105940500D01*
X175850694Y-105940500D01*
X175969306Y-105940500D01*
X175969309Y-105940500D01*
X176083886Y-105909799D01*
X176186613Y-105850489D01*
X176270489Y-105766613D01*
X176329799Y-105663886D01*
X176360500Y-105549309D01*
X176360500Y-105430691D01*
X176336384Y-105340691D01*
X191099500Y-105340691D01*
X191099500Y-105459309D01*
X191130201Y-105573886D01*
X191189511Y-105676613D01*
X191273387Y-105760489D01*
X191376114Y-105819799D01*
X191490691Y-105850500D01*
X191490694Y-105850500D01*
X191609306Y-105850500D01*
X191609309Y-105850500D01*
X191723886Y-105819799D01*
X191826613Y-105760489D01*
X191910489Y-105676613D01*
X191969799Y-105573886D01*
X192000500Y-105459309D01*
X192000500Y-105340691D01*
X191969799Y-105226114D01*
X191910489Y-105123387D01*
X191826613Y-105039511D01*
X191723886Y-104980201D01*
X191609309Y-104949500D01*
X191490691Y-104949500D01*
X191376114Y-104980201D01*
X191376112Y-104980201D01*
X191376112Y-104980202D01*
X191273387Y-105039511D01*
X191273384Y-105039513D01*
X191189513Y-105123384D01*
X191189511Y-105123387D01*
X191130201Y-105226114D01*
X191099500Y-105340691D01*
X176336384Y-105340691D01*
X176329799Y-105316114D01*
X176270489Y-105213387D01*
X176186613Y-105129511D01*
X176083886Y-105070201D01*
X175969309Y-105039500D01*
X175850691Y-105039500D01*
X175736114Y-105070201D01*
X175736112Y-105070201D01*
X175736112Y-105070202D01*
X175633387Y-105129511D01*
X175633384Y-105129513D01*
X175549513Y-105213384D01*
X175549511Y-105213387D01*
X175490201Y-105316114D01*
X175459500Y-105430691D01*
X172455500Y-105430691D01*
X172455500Y-104084096D01*
X172475185Y-104017057D01*
X172527989Y-103971302D01*
X172582564Y-103963128D01*
X172582564Y-103960500D01*
X172709306Y-103960500D01*
X172709309Y-103960500D01*
X172823886Y-103929799D01*
X172926613Y-103870489D01*
X173010489Y-103786613D01*
X173069799Y-103683886D01*
X173100500Y-103569309D01*
X173100500Y-103450691D01*
X173069799Y-103336114D01*
X173010489Y-103233387D01*
X172967793Y-103190691D01*
X177249500Y-103190691D01*
X177249500Y-103309309D01*
X177280201Y-103423886D01*
X177339511Y-103526613D01*
X177423387Y-103610489D01*
X177526114Y-103669799D01*
X177640691Y-103700500D01*
X177640694Y-103700500D01*
X177759306Y-103700500D01*
X177759309Y-103700500D01*
X177873886Y-103669799D01*
X177976613Y-103610489D01*
X178060489Y-103526613D01*
X178119799Y-103423886D01*
X178150500Y-103309309D01*
X178150500Y-103190691D01*
X178119799Y-103076114D01*
X178060489Y-102973387D01*
X177976613Y-102889511D01*
X177873886Y-102830201D01*
X177759309Y-102799500D01*
X177640691Y-102799500D01*
X177526114Y-102830201D01*
X177526112Y-102830201D01*
X177526112Y-102830202D01*
X177423387Y-102889511D01*
X177423384Y-102889513D01*
X177339513Y-102973384D01*
X177339511Y-102973387D01*
X177304582Y-103033886D01*
X177280201Y-103076114D01*
X177249500Y-103190691D01*
X172967793Y-103190691D01*
X172926613Y-103149511D01*
X172823886Y-103090201D01*
X172709309Y-103059500D01*
X172590691Y-103059500D01*
X172582564Y-103059500D01*
X172582564Y-103056798D01*
X172526636Y-103048070D01*
X172474386Y-103001683D01*
X172455500Y-102935903D01*
X172455500Y-102790691D01*
X182849500Y-102790691D01*
X182849500Y-102909309D01*
X182880201Y-103023886D01*
X182939511Y-103126613D01*
X183023387Y-103210489D01*
X183126114Y-103269799D01*
X183240691Y-103300500D01*
X183240694Y-103300500D01*
X183359306Y-103300500D01*
X183359309Y-103300500D01*
X183473886Y-103269799D01*
X183576613Y-103210489D01*
X183660489Y-103126613D01*
X183719799Y-103023886D01*
X183750500Y-102909309D01*
X183750500Y-102800691D01*
X191099500Y-102800691D01*
X191099500Y-102919309D01*
X191130201Y-103033886D01*
X191189511Y-103136613D01*
X191273387Y-103220489D01*
X191376114Y-103279799D01*
X191490691Y-103310500D01*
X191490694Y-103310500D01*
X191609306Y-103310500D01*
X191609309Y-103310500D01*
X191723886Y-103279799D01*
X191826613Y-103220489D01*
X191910489Y-103136613D01*
X191969799Y-103033886D01*
X192000500Y-102919309D01*
X192000500Y-102800691D01*
X191969799Y-102686114D01*
X191910489Y-102583387D01*
X191826613Y-102499511D01*
X191723886Y-102440201D01*
X191609309Y-102409500D01*
X191490691Y-102409500D01*
X191376114Y-102440201D01*
X191376112Y-102440201D01*
X191376112Y-102440202D01*
X191273387Y-102499511D01*
X191273384Y-102499513D01*
X191189513Y-102583384D01*
X191189511Y-102583387D01*
X191135975Y-102676114D01*
X191130201Y-102686114D01*
X191099500Y-102800691D01*
X183750500Y-102800691D01*
X183750500Y-102790691D01*
X183719799Y-102676114D01*
X183660489Y-102573387D01*
X183576613Y-102489511D01*
X183473886Y-102430201D01*
X183359309Y-102399500D01*
X183240691Y-102399500D01*
X183126114Y-102430201D01*
X183126112Y-102430201D01*
X183126112Y-102430202D01*
X183023387Y-102489511D01*
X183023384Y-102489513D01*
X182939513Y-102573384D01*
X182939511Y-102573387D01*
X182880201Y-102676114D01*
X182849500Y-102790691D01*
X172455500Y-102790691D01*
X172455500Y-97190691D01*
X190309500Y-97190691D01*
X190309500Y-97309309D01*
X190340201Y-97423886D01*
X190399511Y-97526613D01*
X190483387Y-97610489D01*
X190586114Y-97669799D01*
X190700691Y-97700500D01*
X190700694Y-97700500D01*
X190819306Y-97700500D01*
X190819309Y-97700500D01*
X190933886Y-97669799D01*
X191036613Y-97610489D01*
X191120489Y-97526613D01*
X191179799Y-97423886D01*
X191210500Y-97309309D01*
X191210500Y-97190691D01*
X191179799Y-97076114D01*
X191120489Y-96973387D01*
X191036613Y-96889511D01*
X190933886Y-96830201D01*
X190819309Y-96799500D01*
X190700691Y-96799500D01*
X190586114Y-96830201D01*
X190586112Y-96830201D01*
X190586112Y-96830202D01*
X190483387Y-96889511D01*
X190483384Y-96889513D01*
X190399513Y-96973384D01*
X190399511Y-96973387D01*
X190340201Y-97076114D01*
X190309500Y-97190691D01*
X172455500Y-97190691D01*
X172455500Y-92440691D01*
X175849500Y-92440691D01*
X175849500Y-92559309D01*
X175880201Y-92673886D01*
X175939511Y-92776613D01*
X176023387Y-92860489D01*
X176126114Y-92919799D01*
X176240691Y-92950500D01*
X176240694Y-92950500D01*
X176359306Y-92950500D01*
X176359309Y-92950500D01*
X176473886Y-92919799D01*
X176576613Y-92860489D01*
X176660489Y-92776613D01*
X176719799Y-92673886D01*
X176750500Y-92559309D01*
X176750500Y-92440691D01*
X176719799Y-92326114D01*
X176660489Y-92223387D01*
X176576613Y-92139511D01*
X176473886Y-92080201D01*
X176359309Y-92049500D01*
X176240691Y-92049500D01*
X176126114Y-92080201D01*
X176126112Y-92080201D01*
X176126112Y-92080202D01*
X176023387Y-92139511D01*
X176023384Y-92139513D01*
X175939513Y-92223384D01*
X175939511Y-92223387D01*
X175919259Y-92258465D01*
X175880201Y-92326114D01*
X175849500Y-92440691D01*
X172455500Y-92440691D01*
X172455500Y-90974036D01*
X172455499Y-90974027D01*
X172450798Y-90930329D01*
X172450797Y-90930324D01*
X172439576Y-90878779D01*
X172437079Y-90868571D01*
X172394046Y-90787871D01*
X172348276Y-90735081D01*
X172341824Y-90728500D01*
X172330680Y-90717132D01*
X172250852Y-90672510D01*
X172250848Y-90672509D01*
X172226949Y-90665499D01*
X172183806Y-90652844D01*
X172125905Y-90644536D01*
X172125904Y-90644536D01*
X172123429Y-90644536D01*
X170391452Y-90645048D01*
X170324406Y-90625383D01*
X170278636Y-90572593D01*
X170268672Y-90503437D01*
X170297678Y-90439873D01*
X170303707Y-90433394D01*
X170360489Y-90376613D01*
X170419799Y-90273886D01*
X170450500Y-90159309D01*
X170450500Y-90040691D01*
X170419799Y-89926114D01*
X170360489Y-89823387D01*
X170276613Y-89739511D01*
X170173886Y-89680201D01*
X170059309Y-89649500D01*
X169940691Y-89649500D01*
X169826114Y-89680201D01*
X169826112Y-89680201D01*
X169826112Y-89680202D01*
X169723387Y-89739511D01*
X169723384Y-89739513D01*
X169639513Y-89823384D01*
X169639511Y-89823387D01*
X169618091Y-89860488D01*
X169580201Y-89926114D01*
X169549500Y-90040691D01*
X169549500Y-90159309D01*
X169580201Y-90273886D01*
X169639511Y-90376613D01*
X169639513Y-90376615D01*
X169696496Y-90433598D01*
X169729981Y-90494921D01*
X169724997Y-90564613D01*
X169683125Y-90620546D01*
X169617661Y-90644963D01*
X169608852Y-90645279D01*
X164329537Y-90646838D01*
X164262491Y-90627173D01*
X164216721Y-90574383D01*
X164205500Y-90522838D01*
X164205500Y-89690691D01*
X165799500Y-89690691D01*
X165799500Y-89809309D01*
X165830201Y-89923886D01*
X165889511Y-90026613D01*
X165973387Y-90110489D01*
X166076114Y-90169799D01*
X166190691Y-90200500D01*
X166190694Y-90200500D01*
X166309306Y-90200500D01*
X166309309Y-90200500D01*
X166423886Y-90169799D01*
X166526613Y-90110489D01*
X166610489Y-90026613D01*
X166669799Y-89923886D01*
X166700500Y-89809309D01*
X166700500Y-89690691D01*
X166669799Y-89576114D01*
X166610489Y-89473387D01*
X166526613Y-89389511D01*
X166423886Y-89330201D01*
X166309309Y-89299500D01*
X166190691Y-89299500D01*
X166076114Y-89330201D01*
X166076112Y-89330201D01*
X166076112Y-89330202D01*
X165973387Y-89389511D01*
X165973384Y-89389513D01*
X165889513Y-89473384D01*
X165889511Y-89473387D01*
X165830201Y-89576114D01*
X165799500Y-89690691D01*
X164205500Y-89690691D01*
X164205500Y-88306071D01*
X165014880Y-88306071D01*
X165014880Y-88424689D01*
X165045581Y-88539266D01*
X165104891Y-88641993D01*
X165188767Y-88725869D01*
X165291494Y-88785179D01*
X165406071Y-88815880D01*
X165406074Y-88815880D01*
X165524686Y-88815880D01*
X165524689Y-88815880D01*
X165639266Y-88785179D01*
X165741993Y-88725869D01*
X165825869Y-88641993D01*
X165885179Y-88539266D01*
X165915880Y-88424689D01*
X165915880Y-88306071D01*
X165885179Y-88191494D01*
X165876235Y-88176002D01*
X168794499Y-88176002D01*
X168810141Y-88254635D01*
X168810143Y-88254641D01*
X168831818Y-88306969D01*
X168831819Y-88306970D01*
X168868446Y-88365262D01*
X168943028Y-88418180D01*
X168943030Y-88418181D01*
X168943033Y-88418183D01*
X168995359Y-88439857D01*
X168995363Y-88439857D01*
X168995364Y-88439858D01*
X169073997Y-88455500D01*
X169074000Y-88455500D01*
X174700920Y-88455500D01*
X174767959Y-88475185D01*
X174813714Y-88527989D01*
X174823658Y-88597147D01*
X174820697Y-88611579D01*
X174799500Y-88690691D01*
X174799500Y-88809309D01*
X174804003Y-88826114D01*
X174822034Y-88893407D01*
X174820371Y-88963257D01*
X174781208Y-89021119D01*
X174716980Y-89048623D01*
X174702259Y-89049500D01*
X174690691Y-89049500D01*
X174576114Y-89080201D01*
X174576112Y-89080201D01*
X174576112Y-89080202D01*
X174473387Y-89139511D01*
X174473384Y-89139513D01*
X174389513Y-89223384D01*
X174389511Y-89223387D01*
X174358780Y-89276615D01*
X174330201Y-89326114D01*
X174299500Y-89440691D01*
X174299500Y-89559309D01*
X174330201Y-89673886D01*
X174389511Y-89776613D01*
X174473387Y-89860489D01*
X174576114Y-89919799D01*
X174690691Y-89950500D01*
X174690694Y-89950500D01*
X174809306Y-89950500D01*
X174809309Y-89950500D01*
X174923886Y-89919799D01*
X175026613Y-89860489D01*
X175110489Y-89776613D01*
X175169799Y-89673886D01*
X175200500Y-89559309D01*
X175200500Y-89440691D01*
X175177966Y-89356593D01*
X175179629Y-89286743D01*
X175218792Y-89228881D01*
X175283020Y-89201377D01*
X175297741Y-89200500D01*
X175309306Y-89200500D01*
X175309309Y-89200500D01*
X175423886Y-89169799D01*
X175526613Y-89110489D01*
X175610489Y-89026613D01*
X175618967Y-89011927D01*
X175669530Y-88963713D01*
X175738137Y-88950488D01*
X175803003Y-88976454D01*
X175843533Y-89033367D01*
X175849292Y-89057731D01*
X175849499Y-89059303D01*
X175849500Y-89059306D01*
X175849500Y-89059309D01*
X175880201Y-89173886D01*
X175939511Y-89276613D01*
X176023387Y-89360489D01*
X176126114Y-89419799D01*
X176240691Y-89450500D01*
X176240694Y-89450500D01*
X176359306Y-89450500D01*
X176359309Y-89450500D01*
X176473886Y-89419799D01*
X176576613Y-89360489D01*
X176660489Y-89276613D01*
X176719799Y-89173886D01*
X176750500Y-89059309D01*
X176750500Y-88940691D01*
X176719799Y-88826114D01*
X176660489Y-88723387D01*
X176604283Y-88667181D01*
X176570798Y-88605858D01*
X176575782Y-88536166D01*
X176617654Y-88480233D01*
X176683118Y-88455816D01*
X176691964Y-88455500D01*
X180670500Y-88455500D01*
X180737539Y-88475185D01*
X180783294Y-88527989D01*
X180794500Y-88579500D01*
X180794500Y-93926000D01*
X180794500Y-93926002D01*
X180794499Y-93926002D01*
X180810141Y-94004635D01*
X180810143Y-94004641D01*
X180831817Y-94056967D01*
X180832186Y-94057555D01*
X180868446Y-94115262D01*
X180943028Y-94168180D01*
X180943030Y-94168181D01*
X180943033Y-94168183D01*
X180995359Y-94189857D01*
X180995363Y-94189857D01*
X180995364Y-94189858D01*
X181073997Y-94205500D01*
X181074000Y-94205500D01*
X183188036Y-94205500D01*
X183255075Y-94225185D01*
X183300830Y-94277989D01*
X183310774Y-94347147D01*
X183281749Y-94410703D01*
X183275717Y-94417181D01*
X183239513Y-94453384D01*
X183239511Y-94453387D01*
X183181068Y-94554613D01*
X183180201Y-94556114D01*
X183149500Y-94670691D01*
X183149500Y-94789309D01*
X183180201Y-94903886D01*
X183239511Y-95006613D01*
X183323387Y-95090489D01*
X183426114Y-95149799D01*
X183540691Y-95180500D01*
X183540694Y-95180500D01*
X183659306Y-95180500D01*
X183659309Y-95180500D01*
X183773886Y-95149799D01*
X183876613Y-95090489D01*
X183960489Y-95006613D01*
X184019799Y-94903886D01*
X184050500Y-94789309D01*
X184050500Y-94670691D01*
X184019799Y-94556114D01*
X183960489Y-94453387D01*
X183924283Y-94417181D01*
X183890798Y-94355858D01*
X183895782Y-94286166D01*
X183937654Y-94230233D01*
X184003118Y-94205816D01*
X184011964Y-94205500D01*
X186135293Y-94205500D01*
X186202332Y-94225185D01*
X186248087Y-94277989D01*
X186258031Y-94347147D01*
X186252242Y-94368247D01*
X186252305Y-94368264D01*
X186250202Y-94376112D01*
X186250201Y-94376114D01*
X186219500Y-94490691D01*
X186219500Y-94609309D01*
X186250201Y-94723886D01*
X186309511Y-94826613D01*
X186309513Y-94826615D01*
X186357617Y-94874719D01*
X186391102Y-94936042D01*
X186386118Y-95005734D01*
X186344246Y-95061667D01*
X186338827Y-95065502D01*
X186248458Y-95125885D01*
X186248454Y-95125888D01*
X186150888Y-95223454D01*
X186150885Y-95223458D01*
X186074228Y-95338182D01*
X186074221Y-95338195D01*
X186021421Y-95465667D01*
X186021418Y-95465677D01*
X185994500Y-95601004D01*
X185994500Y-95601007D01*
X185994500Y-95738993D01*
X185994500Y-95738995D01*
X185994499Y-95738995D01*
X186021418Y-95874322D01*
X186021421Y-95874332D01*
X186074221Y-96001804D01*
X186074228Y-96001817D01*
X186150885Y-96116541D01*
X186150888Y-96116545D01*
X186248454Y-96214111D01*
X186248458Y-96214114D01*
X186363182Y-96290771D01*
X186363195Y-96290778D01*
X186490667Y-96343578D01*
X186490672Y-96343580D01*
X186490676Y-96343580D01*
X186490677Y-96343581D01*
X186626004Y-96370500D01*
X186626007Y-96370500D01*
X187863995Y-96370500D01*
X187955041Y-96352389D01*
X187999328Y-96343580D01*
X188126811Y-96290775D01*
X188241542Y-96214114D01*
X188339114Y-96116542D01*
X188415775Y-96001811D01*
X188468580Y-95874328D01*
X188495500Y-95738995D01*
X190324499Y-95738995D01*
X190351418Y-95874322D01*
X190351421Y-95874332D01*
X190404221Y-96001804D01*
X190404228Y-96001817D01*
X190480885Y-96116541D01*
X190480888Y-96116545D01*
X190578454Y-96214111D01*
X190578458Y-96214114D01*
X190693182Y-96290771D01*
X190693195Y-96290778D01*
X190820667Y-96343578D01*
X190820672Y-96343580D01*
X190820676Y-96343580D01*
X190820677Y-96343581D01*
X190956004Y-96370500D01*
X190956007Y-96370500D01*
X191893995Y-96370500D01*
X191985041Y-96352389D01*
X192029328Y-96343580D01*
X192156811Y-96290775D01*
X192271542Y-96214114D01*
X192369114Y-96116542D01*
X192445775Y-96001811D01*
X192498580Y-95874328D01*
X192525500Y-95738993D01*
X192525500Y-95601007D01*
X192525500Y-95601004D01*
X192498581Y-95465677D01*
X192498580Y-95465676D01*
X192498580Y-95465672D01*
X192495486Y-95458202D01*
X192445778Y-95338195D01*
X192445771Y-95338182D01*
X192369114Y-95223458D01*
X192369111Y-95223454D01*
X192271545Y-95125888D01*
X192271541Y-95125885D01*
X192156817Y-95049228D01*
X192156804Y-95049221D01*
X192029332Y-94996421D01*
X192029322Y-94996418D01*
X191893995Y-94969500D01*
X191893993Y-94969500D01*
X190956007Y-94969500D01*
X190956005Y-94969500D01*
X190820677Y-94996418D01*
X190820667Y-94996421D01*
X190693195Y-95049221D01*
X190693182Y-95049228D01*
X190578458Y-95125885D01*
X190578454Y-95125888D01*
X190480888Y-95223454D01*
X190480885Y-95223458D01*
X190404228Y-95338182D01*
X190404221Y-95338195D01*
X190351421Y-95465667D01*
X190351418Y-95465677D01*
X190324500Y-95601004D01*
X190324500Y-95601007D01*
X190324500Y-95738993D01*
X190324500Y-95738995D01*
X190324499Y-95738995D01*
X188495500Y-95738995D01*
X188495500Y-95738993D01*
X188495500Y-95601007D01*
X188495500Y-95601004D01*
X188468581Y-95465677D01*
X188468580Y-95465676D01*
X188468580Y-95465672D01*
X188465486Y-95458202D01*
X188415778Y-95338195D01*
X188415771Y-95338182D01*
X188339114Y-95223458D01*
X188339111Y-95223454D01*
X188241545Y-95125888D01*
X188241541Y-95125885D01*
X188126817Y-95049228D01*
X188126808Y-95049223D01*
X188052154Y-95018301D01*
X187997751Y-94974460D01*
X187975686Y-94908166D01*
X187992965Y-94840467D01*
X188036794Y-94798553D01*
X188036221Y-94797696D01*
X188041101Y-94794435D01*
X188041161Y-94794378D01*
X188041282Y-94794312D01*
X188041286Y-94794311D01*
X188143733Y-94725858D01*
X188230858Y-94638733D01*
X188299311Y-94536286D01*
X188346463Y-94422452D01*
X188370500Y-94301606D01*
X188370500Y-94178394D01*
X188346463Y-94057548D01*
X188299311Y-93943714D01*
X188299310Y-93943713D01*
X188299307Y-93943707D01*
X188230858Y-93841267D01*
X188230855Y-93841263D01*
X188143736Y-93754144D01*
X188143732Y-93754141D01*
X188041292Y-93685692D01*
X188041283Y-93685687D01*
X187927454Y-93638538D01*
X187927455Y-93638538D01*
X187927452Y-93638537D01*
X187927448Y-93638536D01*
X187927444Y-93638535D01*
X187806610Y-93614500D01*
X187806606Y-93614500D01*
X187683394Y-93614500D01*
X187683389Y-93614500D01*
X187562555Y-93638535D01*
X187562545Y-93638538D01*
X187448716Y-93685687D01*
X187448707Y-93685692D01*
X187398391Y-93719313D01*
X187331713Y-93740191D01*
X187264333Y-93721706D01*
X187217643Y-93669727D01*
X187205500Y-93616211D01*
X187205500Y-89083788D01*
X187225185Y-89016749D01*
X187277989Y-88970994D01*
X187347147Y-88961050D01*
X187398392Y-88980687D01*
X187448705Y-89014306D01*
X187448713Y-89014310D01*
X187448714Y-89014311D01*
X187562548Y-89061463D01*
X187674787Y-89083788D01*
X187683389Y-89085499D01*
X187683393Y-89085500D01*
X187683394Y-89085500D01*
X187806607Y-89085500D01*
X187806608Y-89085499D01*
X187927452Y-89061463D01*
X188041286Y-89014311D01*
X188143733Y-88945858D01*
X188230858Y-88858733D01*
X188299311Y-88756286D01*
X188346463Y-88642452D01*
X188370500Y-88521606D01*
X188370500Y-88398394D01*
X188346463Y-88277548D01*
X188308020Y-88184739D01*
X188299312Y-88163716D01*
X188299307Y-88163707D01*
X188230858Y-88061267D01*
X188230855Y-88061263D01*
X188143736Y-87974144D01*
X188143732Y-87974141D01*
X188041282Y-87905685D01*
X188041146Y-87905613D01*
X188041088Y-87905556D01*
X188036221Y-87902304D01*
X188036837Y-87901380D01*
X187991305Y-87856647D01*
X187975849Y-87788508D01*
X187999686Y-87722830D01*
X188052153Y-87681699D01*
X188126811Y-87650775D01*
X188241542Y-87574114D01*
X188339114Y-87476542D01*
X188415775Y-87361811D01*
X188468580Y-87234328D01*
X188490648Y-87123387D01*
X188495500Y-87098995D01*
X190324499Y-87098995D01*
X190351418Y-87234322D01*
X190351421Y-87234332D01*
X190404221Y-87361804D01*
X190404228Y-87361817D01*
X190480885Y-87476541D01*
X190480888Y-87476545D01*
X190578454Y-87574111D01*
X190578458Y-87574114D01*
X190693182Y-87650771D01*
X190693195Y-87650778D01*
X190803048Y-87696280D01*
X190820672Y-87703580D01*
X190820676Y-87703580D01*
X190820677Y-87703581D01*
X190956004Y-87730500D01*
X190956007Y-87730500D01*
X191893995Y-87730500D01*
X191985041Y-87712389D01*
X192029328Y-87703580D01*
X192156811Y-87650775D01*
X192271542Y-87574114D01*
X192369114Y-87476542D01*
X192445775Y-87361811D01*
X192498580Y-87234328D01*
X192520648Y-87123387D01*
X192525500Y-87098995D01*
X192525500Y-86961004D01*
X192498581Y-86825677D01*
X192498580Y-86825676D01*
X192498580Y-86825672D01*
X192474689Y-86767993D01*
X192445778Y-86698195D01*
X192445771Y-86698182D01*
X192369114Y-86583458D01*
X192369111Y-86583454D01*
X192271545Y-86485888D01*
X192271541Y-86485885D01*
X192156817Y-86409228D01*
X192156804Y-86409221D01*
X192029332Y-86356421D01*
X192029322Y-86356418D01*
X191893995Y-86329500D01*
X191893993Y-86329500D01*
X190956007Y-86329500D01*
X190956005Y-86329500D01*
X190820677Y-86356418D01*
X190820667Y-86356421D01*
X190693195Y-86409221D01*
X190693182Y-86409228D01*
X190578458Y-86485885D01*
X190578454Y-86485888D01*
X190480888Y-86583454D01*
X190480885Y-86583458D01*
X190404228Y-86698182D01*
X190404221Y-86698195D01*
X190351421Y-86825667D01*
X190351418Y-86825677D01*
X190324500Y-86961004D01*
X190324500Y-86961007D01*
X190324500Y-87098993D01*
X190324500Y-87098995D01*
X190324499Y-87098995D01*
X188495500Y-87098995D01*
X188495500Y-86961004D01*
X188468581Y-86825677D01*
X188468580Y-86825676D01*
X188468580Y-86825672D01*
X188444689Y-86767993D01*
X188415778Y-86698195D01*
X188415771Y-86698182D01*
X188339114Y-86583458D01*
X188339111Y-86583454D01*
X188241545Y-86485888D01*
X188241541Y-86485885D01*
X188126817Y-86409228D01*
X188126804Y-86409221D01*
X187999332Y-86356421D01*
X187999322Y-86356418D01*
X187863995Y-86329500D01*
X187863993Y-86329500D01*
X187329500Y-86329500D01*
X187262461Y-86309815D01*
X187216706Y-86257011D01*
X187205500Y-86205500D01*
X187205500Y-86073997D01*
X187189858Y-85995364D01*
X187189857Y-85995363D01*
X187189857Y-85995359D01*
X187168183Y-85943033D01*
X187131555Y-85884739D01*
X187131553Y-85884738D01*
X187131553Y-85884737D01*
X187056971Y-85831819D01*
X187056969Y-85831818D01*
X187034893Y-85822674D01*
X187004641Y-85810143D01*
X187004635Y-85810141D01*
X186926002Y-85794500D01*
X186926000Y-85794500D01*
X183074000Y-85794500D01*
X183073998Y-85794500D01*
X182995364Y-85810141D01*
X182995358Y-85810143D01*
X182943030Y-85831818D01*
X182943029Y-85831819D01*
X182884737Y-85868446D01*
X182831819Y-85943028D01*
X182831818Y-85943030D01*
X182810143Y-85995358D01*
X182810141Y-85995364D01*
X182794500Y-86073997D01*
X182794500Y-87920500D01*
X182791949Y-87929185D01*
X182793238Y-87938147D01*
X182782259Y-87962187D01*
X182774815Y-87987539D01*
X182767974Y-87993466D01*
X182764213Y-88001703D01*
X182741978Y-88015992D01*
X182722011Y-88033294D01*
X182711496Y-88035581D01*
X182705435Y-88039477D01*
X182670500Y-88044500D01*
X182579500Y-88044500D01*
X182512461Y-88024815D01*
X182466706Y-87972011D01*
X182455500Y-87920500D01*
X182455500Y-86573997D01*
X182439858Y-86495364D01*
X182439857Y-86495363D01*
X182439857Y-86495359D01*
X182418183Y-86443033D01*
X182381555Y-86384739D01*
X182381553Y-86384738D01*
X182381553Y-86384737D01*
X182306971Y-86331819D01*
X182306969Y-86331818D01*
X182254641Y-86310143D01*
X182254635Y-86310141D01*
X182176002Y-86294500D01*
X182176000Y-86294500D01*
X169074000Y-86294500D01*
X169073998Y-86294500D01*
X168995364Y-86310141D01*
X168995358Y-86310143D01*
X168943030Y-86331818D01*
X168943029Y-86331819D01*
X168884737Y-86368446D01*
X168831819Y-86443028D01*
X168831818Y-86443030D01*
X168810143Y-86495358D01*
X168810141Y-86495364D01*
X168794500Y-86573997D01*
X168794500Y-86574000D01*
X168794500Y-88176000D01*
X168794500Y-88176002D01*
X168794499Y-88176002D01*
X165876235Y-88176002D01*
X165825869Y-88088767D01*
X165741993Y-88004891D01*
X165639266Y-87945581D01*
X165524689Y-87914880D01*
X165406071Y-87914880D01*
X165291494Y-87945581D01*
X165291492Y-87945581D01*
X165291492Y-87945582D01*
X165188767Y-88004891D01*
X165188764Y-88004893D01*
X165104893Y-88088764D01*
X165104891Y-88088767D01*
X165054072Y-88176788D01*
X165045581Y-88191494D01*
X165014880Y-88306071D01*
X164205500Y-88306071D01*
X164205500Y-86678333D01*
X164225185Y-86611294D01*
X164277989Y-86565539D01*
X164347147Y-86555595D01*
X164391500Y-86570946D01*
X164396789Y-86574000D01*
X164476108Y-86619796D01*
X164476109Y-86619797D01*
X164476111Y-86619797D01*
X164476114Y-86619799D01*
X164590691Y-86650500D01*
X164590694Y-86650500D01*
X164709306Y-86650500D01*
X164709309Y-86650500D01*
X164823886Y-86619799D01*
X164926613Y-86560489D01*
X165010489Y-86476613D01*
X165069799Y-86373886D01*
X165100500Y-86259309D01*
X165100500Y-86140691D01*
X165069799Y-86026114D01*
X165010489Y-85923387D01*
X164926613Y-85839511D01*
X164823886Y-85780201D01*
X164709309Y-85749500D01*
X164590691Y-85749500D01*
X164476114Y-85780201D01*
X164402550Y-85822674D01*
X164391501Y-85829053D01*
X164323601Y-85845526D01*
X164257574Y-85822674D01*
X164214383Y-85767753D01*
X164205500Y-85721666D01*
X164205500Y-85107201D01*
X164225185Y-85040162D01*
X164277989Y-84994407D01*
X164347147Y-84984463D01*
X164391499Y-84999814D01*
X164426114Y-85019799D01*
X164540691Y-85050500D01*
X164540694Y-85050500D01*
X164659306Y-85050500D01*
X164659309Y-85050500D01*
X164773886Y-85019799D01*
X164876613Y-84960489D01*
X164960489Y-84876613D01*
X165019799Y-84773886D01*
X165050500Y-84659309D01*
X165050500Y-84540691D01*
X165019799Y-84426114D01*
X164960489Y-84323387D01*
X164876613Y-84239511D01*
X164773886Y-84180201D01*
X164659309Y-84149500D01*
X164540691Y-84149500D01*
X164464935Y-84169799D01*
X164426110Y-84180202D01*
X164391500Y-84200185D01*
X164323600Y-84216658D01*
X164257573Y-84193806D01*
X164214383Y-84138885D01*
X164205500Y-84092798D01*
X164205500Y-83090691D01*
X164599500Y-83090691D01*
X164599500Y-83209309D01*
X164630201Y-83323886D01*
X164689511Y-83426613D01*
X164773387Y-83510489D01*
X164876114Y-83569799D01*
X164990691Y-83600500D01*
X164990694Y-83600500D01*
X165109306Y-83600500D01*
X165109309Y-83600500D01*
X165223886Y-83569799D01*
X165326613Y-83510489D01*
X165410489Y-83426613D01*
X165469799Y-83323886D01*
X165500500Y-83209309D01*
X165500500Y-83090691D01*
X165469799Y-82976114D01*
X165410489Y-82873387D01*
X165326613Y-82789511D01*
X165223886Y-82730201D01*
X165109309Y-82699500D01*
X164990691Y-82699500D01*
X164876114Y-82730201D01*
X164876112Y-82730201D01*
X164876112Y-82730202D01*
X164773387Y-82789511D01*
X164773384Y-82789513D01*
X164689513Y-82873384D01*
X164689511Y-82873387D01*
X164639222Y-82960490D01*
X164630201Y-82976114D01*
X164599500Y-83090691D01*
X164205500Y-83090691D01*
X164205500Y-82628191D01*
X169199500Y-82628191D01*
X169199500Y-82746809D01*
X169230201Y-82861386D01*
X169289511Y-82964113D01*
X169373387Y-83047989D01*
X169476114Y-83107299D01*
X169538352Y-83123975D01*
X169598011Y-83160340D01*
X169628540Y-83223187D01*
X169620245Y-83292563D01*
X169575760Y-83346441D01*
X169538353Y-83363523D01*
X169476114Y-83380201D01*
X169476112Y-83380201D01*
X169476112Y-83380202D01*
X169373387Y-83439511D01*
X169373384Y-83439513D01*
X169289513Y-83523384D01*
X169289511Y-83523387D01*
X169230201Y-83626114D01*
X169199500Y-83740691D01*
X169199500Y-83859309D01*
X169230201Y-83973886D01*
X169289511Y-84076613D01*
X169373387Y-84160489D01*
X169397440Y-84174376D01*
X169472327Y-84217614D01*
X169520542Y-84268181D01*
X169533764Y-84336788D01*
X169507796Y-84401653D01*
X169472327Y-84432386D01*
X169373393Y-84489507D01*
X169373384Y-84489513D01*
X169289513Y-84573384D01*
X169289511Y-84573387D01*
X169230201Y-84676114D01*
X169199500Y-84790691D01*
X169199500Y-84909309D01*
X169230201Y-85023886D01*
X169289511Y-85126613D01*
X169373387Y-85210489D01*
X169476114Y-85269799D01*
X169590691Y-85300500D01*
X169590694Y-85300500D01*
X169709306Y-85300500D01*
X169709309Y-85300500D01*
X169823886Y-85269799D01*
X169926613Y-85210489D01*
X170010489Y-85126613D01*
X170069799Y-85023886D01*
X170086924Y-84959972D01*
X170123287Y-84900314D01*
X170186134Y-84869784D01*
X170255509Y-84878078D01*
X170309388Y-84922563D01*
X170326472Y-84959970D01*
X170326610Y-84960486D01*
X170330201Y-84973886D01*
X170389511Y-85076613D01*
X170473387Y-85160489D01*
X170576114Y-85219799D01*
X170690691Y-85250500D01*
X170690694Y-85250500D01*
X170809306Y-85250500D01*
X170809309Y-85250500D01*
X170923886Y-85219799D01*
X171026613Y-85160489D01*
X171110489Y-85076613D01*
X171169799Y-84973886D01*
X171180225Y-84934972D01*
X171216590Y-84875313D01*
X171279437Y-84844784D01*
X171348812Y-84853079D01*
X171402690Y-84897564D01*
X171419773Y-84934971D01*
X171426472Y-84959970D01*
X171430201Y-84973887D01*
X171442049Y-84994407D01*
X171489511Y-85076613D01*
X171573387Y-85160489D01*
X171676114Y-85219799D01*
X171790691Y-85250500D01*
X171790694Y-85250500D01*
X171909306Y-85250500D01*
X171909309Y-85250500D01*
X172023886Y-85219799D01*
X172126613Y-85160489D01*
X172210489Y-85076613D01*
X172231229Y-85040691D01*
X174049500Y-85040691D01*
X174049500Y-85159309D01*
X174080201Y-85273886D01*
X174139511Y-85376613D01*
X174223387Y-85460489D01*
X174326114Y-85519799D01*
X174440691Y-85550500D01*
X174440694Y-85550500D01*
X174559306Y-85550500D01*
X174559309Y-85550500D01*
X174673886Y-85519799D01*
X174776613Y-85460489D01*
X174860489Y-85376613D01*
X174919799Y-85273886D01*
X174950500Y-85159309D01*
X174950500Y-85040691D01*
X174919799Y-84926114D01*
X174860489Y-84823387D01*
X174777793Y-84740691D01*
X178499500Y-84740691D01*
X178499500Y-84859309D01*
X178530201Y-84973886D01*
X178589511Y-85076613D01*
X178673387Y-85160489D01*
X178776114Y-85219799D01*
X178890691Y-85250500D01*
X178890694Y-85250500D01*
X179009306Y-85250500D01*
X179009309Y-85250500D01*
X179123886Y-85219799D01*
X179174302Y-85190691D01*
X191809500Y-85190691D01*
X191809500Y-85309309D01*
X191840201Y-85423886D01*
X191899511Y-85526613D01*
X191983387Y-85610489D01*
X192086114Y-85669799D01*
X192200691Y-85700500D01*
X192200694Y-85700500D01*
X192319306Y-85700500D01*
X192319309Y-85700500D01*
X192433886Y-85669799D01*
X192536613Y-85610489D01*
X192620489Y-85526613D01*
X192679799Y-85423886D01*
X192710500Y-85309309D01*
X192710500Y-85190691D01*
X192679799Y-85076114D01*
X192620489Y-84973387D01*
X192536613Y-84889511D01*
X192433886Y-84830201D01*
X192319309Y-84799500D01*
X192200691Y-84799500D01*
X192086114Y-84830201D01*
X192086112Y-84830201D01*
X192086112Y-84830202D01*
X191983387Y-84889511D01*
X191983384Y-84889513D01*
X191899513Y-84973384D01*
X191899511Y-84973387D01*
X191860652Y-85040693D01*
X191840201Y-85076114D01*
X191809500Y-85190691D01*
X179174302Y-85190691D01*
X179226613Y-85160489D01*
X179310489Y-85076613D01*
X179369799Y-84973886D01*
X179400500Y-84859309D01*
X179400500Y-84740691D01*
X179369799Y-84626114D01*
X179310489Y-84523387D01*
X179226613Y-84439511D01*
X179123886Y-84380201D01*
X179009309Y-84349500D01*
X178890691Y-84349500D01*
X178776114Y-84380201D01*
X178776112Y-84380201D01*
X178776112Y-84380202D01*
X178673387Y-84439511D01*
X178673384Y-84439513D01*
X178589513Y-84523384D01*
X178589511Y-84523387D01*
X178530201Y-84626114D01*
X178499500Y-84740691D01*
X174777793Y-84740691D01*
X174776613Y-84739511D01*
X174673886Y-84680201D01*
X174559309Y-84649500D01*
X174440691Y-84649500D01*
X174326114Y-84680201D01*
X174326112Y-84680201D01*
X174326112Y-84680202D01*
X174223387Y-84739511D01*
X174223384Y-84739513D01*
X174139513Y-84823384D01*
X174139511Y-84823387D01*
X174108780Y-84876615D01*
X174080201Y-84926114D01*
X174049500Y-85040691D01*
X172231229Y-85040691D01*
X172257951Y-84994407D01*
X172269795Y-84973894D01*
X172269797Y-84973890D01*
X172269798Y-84973887D01*
X172269799Y-84973886D01*
X172300500Y-84859309D01*
X172300500Y-84740691D01*
X172269799Y-84626114D01*
X172210489Y-84523387D01*
X172126613Y-84439511D01*
X172027671Y-84382386D01*
X171979457Y-84331819D01*
X171966235Y-84263212D01*
X171992203Y-84198348D01*
X172027672Y-84167613D01*
X172040011Y-84160489D01*
X172126613Y-84110489D01*
X172210489Y-84026613D01*
X172269799Y-83923886D01*
X172300500Y-83809309D01*
X172300500Y-83690691D01*
X172269799Y-83576114D01*
X172210489Y-83473387D01*
X172126613Y-83389511D01*
X172027671Y-83332386D01*
X171979457Y-83281819D01*
X171966235Y-83213212D01*
X171992203Y-83148348D01*
X172027672Y-83117613D01*
X172045536Y-83107299D01*
X172126613Y-83060489D01*
X172210489Y-82976613D01*
X172269799Y-82873886D01*
X172300500Y-82759309D01*
X172300500Y-82640691D01*
X172273705Y-82540691D01*
X176429500Y-82540691D01*
X176429500Y-82659309D01*
X176460201Y-82773886D01*
X176519511Y-82876613D01*
X176603387Y-82960489D01*
X176669026Y-82998386D01*
X176717242Y-83048953D01*
X176730464Y-83117560D01*
X176704496Y-83182425D01*
X176669028Y-83213159D01*
X176623390Y-83239509D01*
X176623384Y-83239513D01*
X176539513Y-83323384D01*
X176539511Y-83323387D01*
X176506709Y-83380202D01*
X176480201Y-83426114D01*
X176449500Y-83540691D01*
X176449500Y-83659309D01*
X176480201Y-83773886D01*
X176539511Y-83876613D01*
X176623387Y-83960489D01*
X176726114Y-84019799D01*
X176840691Y-84050500D01*
X176840694Y-84050500D01*
X176959306Y-84050500D01*
X176959309Y-84050500D01*
X177073886Y-84019799D01*
X177176613Y-83960489D01*
X177260489Y-83876613D01*
X177319799Y-83773886D01*
X177342091Y-83690691D01*
X188379500Y-83690691D01*
X188379500Y-83809309D01*
X188410201Y-83923886D01*
X188469511Y-84026613D01*
X188553387Y-84110489D01*
X188656114Y-84169799D01*
X188770691Y-84200500D01*
X188770694Y-84200500D01*
X188889306Y-84200500D01*
X188889309Y-84200500D01*
X189003886Y-84169799D01*
X189106613Y-84110489D01*
X189190489Y-84026613D01*
X189249799Y-83923886D01*
X189280500Y-83809309D01*
X189280500Y-83690691D01*
X189249799Y-83576114D01*
X189190489Y-83473387D01*
X189106613Y-83389511D01*
X189003886Y-83330201D01*
X188889309Y-83299500D01*
X188770691Y-83299500D01*
X188656114Y-83330201D01*
X188656112Y-83330201D01*
X188656112Y-83330202D01*
X188553387Y-83389511D01*
X188553384Y-83389513D01*
X188469513Y-83473384D01*
X188469511Y-83473387D01*
X188430652Y-83540693D01*
X188410201Y-83576114D01*
X188379500Y-83690691D01*
X177342091Y-83690691D01*
X177350500Y-83659309D01*
X177350500Y-83540691D01*
X177319799Y-83426114D01*
X177260489Y-83323387D01*
X177176613Y-83239511D01*
X177110971Y-83201612D01*
X177062757Y-83151045D01*
X177049535Y-83082438D01*
X177075503Y-83017574D01*
X177110971Y-82986840D01*
X177156613Y-82960489D01*
X177240489Y-82876613D01*
X177299799Y-82773886D01*
X177330500Y-82659309D01*
X177330500Y-82540691D01*
X177299799Y-82426114D01*
X177240489Y-82323387D01*
X177156613Y-82239511D01*
X177053886Y-82180201D01*
X176939309Y-82149500D01*
X176820691Y-82149500D01*
X176706114Y-82180201D01*
X176706112Y-82180201D01*
X176706112Y-82180202D01*
X176603387Y-82239511D01*
X176603384Y-82239513D01*
X176519513Y-82323384D01*
X176519511Y-82323387D01*
X176460201Y-82426114D01*
X176429500Y-82540691D01*
X172273705Y-82540691D01*
X172269799Y-82526114D01*
X172210489Y-82423387D01*
X172126613Y-82339511D01*
X172023886Y-82280201D01*
X171909309Y-82249500D01*
X171790691Y-82249500D01*
X171676114Y-82280201D01*
X171676112Y-82280201D01*
X171676112Y-82280202D01*
X171573387Y-82339511D01*
X171573384Y-82339513D01*
X171489513Y-82423384D01*
X171489511Y-82423387D01*
X171437419Y-82513613D01*
X171430201Y-82526114D01*
X171419774Y-82565027D01*
X171383410Y-82624686D01*
X171320563Y-82655215D01*
X171251187Y-82646920D01*
X171197309Y-82602435D01*
X171180226Y-82565028D01*
X171169799Y-82526114D01*
X171110489Y-82423387D01*
X171026613Y-82339511D01*
X170923886Y-82280201D01*
X170809309Y-82249500D01*
X170690691Y-82249500D01*
X170576114Y-82280201D01*
X170576112Y-82280201D01*
X170576112Y-82280202D01*
X170473387Y-82339511D01*
X170473384Y-82339513D01*
X170389513Y-82423384D01*
X170389511Y-82423387D01*
X170330200Y-82526114D01*
X170321448Y-82558778D01*
X170285082Y-82618438D01*
X170222235Y-82648966D01*
X170152859Y-82640669D01*
X170098982Y-82596183D01*
X170081900Y-82558777D01*
X170069799Y-82513614D01*
X170010489Y-82410887D01*
X169926613Y-82327011D01*
X169823886Y-82267701D01*
X169709309Y-82237000D01*
X169590691Y-82237000D01*
X169476114Y-82267701D01*
X169476112Y-82267701D01*
X169476112Y-82267702D01*
X169373387Y-82327011D01*
X169373384Y-82327013D01*
X169289513Y-82410884D01*
X169289511Y-82410887D01*
X169230201Y-82513614D01*
X169199500Y-82628191D01*
X164205500Y-82628191D01*
X164205500Y-80840691D01*
X168349500Y-80840691D01*
X168349500Y-80959309D01*
X168380201Y-81073886D01*
X168439511Y-81176613D01*
X168523387Y-81260489D01*
X168573654Y-81289511D01*
X168579027Y-81292613D01*
X168627242Y-81343181D01*
X168640464Y-81411788D01*
X168614496Y-81476653D01*
X168579027Y-81507387D01*
X168523387Y-81539511D01*
X168523384Y-81539513D01*
X168439513Y-81623384D01*
X168439511Y-81623387D01*
X168410355Y-81673887D01*
X168380201Y-81726114D01*
X168349500Y-81840691D01*
X168349500Y-81959309D01*
X168380201Y-82073886D01*
X168439511Y-82176613D01*
X168523387Y-82260489D01*
X168626114Y-82319799D01*
X168740691Y-82350500D01*
X168740694Y-82350500D01*
X168859306Y-82350500D01*
X168859309Y-82350500D01*
X168973886Y-82319799D01*
X169076613Y-82260489D01*
X169160489Y-82176613D01*
X169219799Y-82073886D01*
X169250500Y-81959309D01*
X169250500Y-81840691D01*
X169219799Y-81726114D01*
X169172715Y-81644562D01*
X169160493Y-81623393D01*
X169160490Y-81623390D01*
X169160489Y-81623387D01*
X169127793Y-81590691D01*
X172499500Y-81590691D01*
X172499500Y-81709309D01*
X172530201Y-81823886D01*
X172589511Y-81926613D01*
X172673387Y-82010489D01*
X172776114Y-82069799D01*
X172890691Y-82100500D01*
X172890694Y-82100500D01*
X173009306Y-82100500D01*
X173009309Y-82100500D01*
X173123886Y-82069799D01*
X173226613Y-82010489D01*
X173310489Y-81926613D01*
X173369799Y-81823886D01*
X173400500Y-81709309D01*
X173400500Y-81590691D01*
X173369799Y-81476114D01*
X173349347Y-81440691D01*
X175349500Y-81440691D01*
X175349500Y-81559309D01*
X175380201Y-81673886D01*
X175439511Y-81776613D01*
X175523387Y-81860489D01*
X175626114Y-81919799D01*
X175740691Y-81950500D01*
X175740694Y-81950500D01*
X175859306Y-81950500D01*
X175859309Y-81950500D01*
X175973886Y-81919799D01*
X176076613Y-81860489D01*
X176160489Y-81776613D01*
X176219799Y-81673886D01*
X176250500Y-81559309D01*
X176250500Y-81440691D01*
X176219799Y-81326114D01*
X176160489Y-81223387D01*
X176076613Y-81139511D01*
X175973886Y-81080201D01*
X175859309Y-81049500D01*
X175740691Y-81049500D01*
X175626114Y-81080201D01*
X175626112Y-81080201D01*
X175626112Y-81080202D01*
X175523387Y-81139511D01*
X175523384Y-81139513D01*
X175439513Y-81223384D01*
X175439511Y-81223387D01*
X175418091Y-81260488D01*
X175380201Y-81326114D01*
X175349500Y-81440691D01*
X173349347Y-81440691D01*
X173310489Y-81373387D01*
X173226613Y-81289511D01*
X173123886Y-81230201D01*
X173009309Y-81199500D01*
X172890691Y-81199500D01*
X172776114Y-81230201D01*
X172776112Y-81230201D01*
X172776112Y-81230202D01*
X172673387Y-81289511D01*
X172673384Y-81289513D01*
X172589513Y-81373384D01*
X172589511Y-81373387D01*
X172550652Y-81440693D01*
X172530201Y-81476114D01*
X172499500Y-81590691D01*
X169127793Y-81590691D01*
X169076613Y-81539511D01*
X169020972Y-81507386D01*
X168972757Y-81456820D01*
X168959535Y-81388213D01*
X168985503Y-81323348D01*
X169020973Y-81292613D01*
X169026346Y-81289511D01*
X169076613Y-81260489D01*
X169160489Y-81176613D01*
X169219799Y-81073886D01*
X169230225Y-81034972D01*
X169266590Y-80975313D01*
X169329437Y-80944784D01*
X169398812Y-80953079D01*
X169452690Y-80997564D01*
X169469773Y-81034971D01*
X169473667Y-81049500D01*
X169480201Y-81073887D01*
X169509856Y-81125249D01*
X169539511Y-81176613D01*
X169623387Y-81260489D01*
X169726114Y-81319799D01*
X169840691Y-81350500D01*
X169840694Y-81350500D01*
X169959306Y-81350500D01*
X169959309Y-81350500D01*
X170073886Y-81319799D01*
X170176613Y-81260489D01*
X170260489Y-81176613D01*
X170319799Y-81073886D01*
X170350500Y-80959309D01*
X170350500Y-80840691D01*
X170319799Y-80726114D01*
X170260489Y-80623387D01*
X170176613Y-80539511D01*
X170073886Y-80480201D01*
X169959309Y-80449500D01*
X169840691Y-80449500D01*
X169726114Y-80480201D01*
X169726112Y-80480201D01*
X169726112Y-80480202D01*
X169623387Y-80539511D01*
X169623384Y-80539513D01*
X169539513Y-80623384D01*
X169539511Y-80623387D01*
X169480201Y-80726114D01*
X169469774Y-80765027D01*
X169433410Y-80824686D01*
X169370563Y-80855215D01*
X169301187Y-80846920D01*
X169247309Y-80802435D01*
X169230226Y-80765028D01*
X169219799Y-80726114D01*
X169160489Y-80623387D01*
X169076613Y-80539511D01*
X168973886Y-80480201D01*
X168859309Y-80449500D01*
X168740691Y-80449500D01*
X168626114Y-80480201D01*
X168626112Y-80480201D01*
X168626112Y-80480202D01*
X168523387Y-80539511D01*
X168523384Y-80539513D01*
X168439513Y-80623384D01*
X168439511Y-80623387D01*
X168380201Y-80726114D01*
X168349500Y-80840691D01*
X164205500Y-80840691D01*
X164205500Y-79365691D01*
X164624500Y-79365691D01*
X164624500Y-79484309D01*
X164655201Y-79598886D01*
X164714511Y-79701613D01*
X164798387Y-79785489D01*
X164901114Y-79844799D01*
X165015691Y-79875500D01*
X165015694Y-79875500D01*
X165134306Y-79875500D01*
X165134309Y-79875500D01*
X165248886Y-79844799D01*
X165351613Y-79785489D01*
X165435489Y-79701613D01*
X165494799Y-79598886D01*
X165525500Y-79484309D01*
X165525500Y-79365691D01*
X165494799Y-79251114D01*
X165435489Y-79148387D01*
X165351613Y-79064511D01*
X165248886Y-79005201D01*
X165134309Y-78974500D01*
X165015691Y-78974500D01*
X164901114Y-79005201D01*
X164901112Y-79005201D01*
X164901112Y-79005202D01*
X164798387Y-79064511D01*
X164798384Y-79064513D01*
X164714513Y-79148384D01*
X164714511Y-79148387D01*
X164655201Y-79251114D01*
X164624500Y-79365691D01*
X164205500Y-79365691D01*
X164205500Y-78378191D01*
X169109500Y-78378191D01*
X169109500Y-78496809D01*
X169140201Y-78611386D01*
X169199511Y-78714113D01*
X169283387Y-78797989D01*
X169386114Y-78857299D01*
X169500691Y-78888000D01*
X169500694Y-78888000D01*
X169619306Y-78888000D01*
X169619309Y-78888000D01*
X169733886Y-78857299D01*
X169836613Y-78797989D01*
X169920489Y-78714113D01*
X169979799Y-78611386D01*
X170010500Y-78496809D01*
X170010500Y-78378191D01*
X170649500Y-78378191D01*
X170649500Y-78496809D01*
X170680201Y-78611386D01*
X170739511Y-78714113D01*
X170823387Y-78797989D01*
X170926114Y-78857299D01*
X171040691Y-78888000D01*
X171040694Y-78888000D01*
X171159306Y-78888000D01*
X171159309Y-78888000D01*
X171273886Y-78857299D01*
X171376613Y-78797989D01*
X171460489Y-78714113D01*
X171519799Y-78611386D01*
X171550500Y-78496809D01*
X171550500Y-78378191D01*
X171547151Y-78365691D01*
X172199500Y-78365691D01*
X172199500Y-78484309D01*
X172230201Y-78598886D01*
X172289511Y-78701613D01*
X172373387Y-78785489D01*
X172476114Y-78844799D01*
X172590691Y-78875500D01*
X172590694Y-78875500D01*
X172709306Y-78875500D01*
X172709309Y-78875500D01*
X172823886Y-78844799D01*
X172926613Y-78785489D01*
X173010489Y-78701613D01*
X173069799Y-78598886D01*
X173100500Y-78484309D01*
X173100500Y-78365691D01*
X173069799Y-78251114D01*
X173010489Y-78148387D01*
X172926613Y-78064511D01*
X172823886Y-78005201D01*
X172709309Y-77974500D01*
X172590691Y-77974500D01*
X172476114Y-78005201D01*
X172476112Y-78005201D01*
X172476112Y-78005202D01*
X172373387Y-78064511D01*
X172373384Y-78064513D01*
X172289513Y-78148384D01*
X172289511Y-78148387D01*
X172237408Y-78238632D01*
X172230201Y-78251114D01*
X172199500Y-78365691D01*
X171547151Y-78365691D01*
X171519799Y-78263614D01*
X171460489Y-78160887D01*
X171376613Y-78077011D01*
X171273886Y-78017701D01*
X171159309Y-77987000D01*
X171040691Y-77987000D01*
X170926114Y-78017701D01*
X170926112Y-78017701D01*
X170926112Y-78017702D01*
X170823387Y-78077011D01*
X170823384Y-78077013D01*
X170739513Y-78160884D01*
X170739511Y-78160887D01*
X170694622Y-78238637D01*
X170680201Y-78263614D01*
X170649500Y-78378191D01*
X170010500Y-78378191D01*
X169979799Y-78263614D01*
X169920489Y-78160887D01*
X169836613Y-78077011D01*
X169733886Y-78017701D01*
X169619309Y-77987000D01*
X169500691Y-77987000D01*
X169386114Y-78017701D01*
X169386112Y-78017701D01*
X169386112Y-78017702D01*
X169283387Y-78077011D01*
X169283384Y-78077013D01*
X169199513Y-78160884D01*
X169199511Y-78160887D01*
X169154622Y-78238637D01*
X169140201Y-78263614D01*
X169109500Y-78378191D01*
X164205500Y-78378191D01*
X164205500Y-78124008D01*
X164205499Y-78123992D01*
X164205424Y-78123296D01*
X164200803Y-78080316D01*
X164191095Y-78035689D01*
X164189602Y-78028825D01*
X164189348Y-78027789D01*
X164187110Y-78018627D01*
X164144100Y-77937915D01*
X164098345Y-77885111D01*
X164098339Y-77885104D01*
X164080757Y-77867160D01*
X164080756Y-77867159D01*
X164080754Y-77867157D01*
X164080752Y-77867156D01*
X164080750Y-77867154D01*
X164000940Y-77822511D01*
X164000935Y-77822509D01*
X163933903Y-77802826D01*
X163933899Y-77802825D01*
X163933898Y-77802825D01*
X163876000Y-77794500D01*
X159123741Y-77794500D01*
X159123733Y-77794500D01*
X159080275Y-77799149D01*
X159028967Y-77810254D01*
X159019020Y-77812670D01*
X159019017Y-77812671D01*
X158938219Y-77855507D01*
X158885317Y-77901153D01*
X158867326Y-77918709D01*
X158856530Y-77937916D01*
X158822510Y-77998437D01*
X158802686Y-78065433D01*
X158794242Y-78123296D01*
X158794241Y-78123305D01*
X158771967Y-88749628D01*
X158752142Y-88816626D01*
X158699242Y-88862270D01*
X158680068Y-88869141D01*
X158676115Y-88870200D01*
X158676114Y-88870200D01*
X158573387Y-88929511D01*
X158573384Y-88929513D01*
X158489513Y-89013384D01*
X158489511Y-89013387D01*
X158433449Y-89110489D01*
X158430201Y-89116114D01*
X158399500Y-89230691D01*
X158399500Y-89349309D01*
X158430201Y-89463886D01*
X158489511Y-89566613D01*
X158573387Y-89650489D01*
X158676114Y-89709799D01*
X158677794Y-89710249D01*
X158679052Y-89711016D01*
X158683618Y-89712907D01*
X158683323Y-89713619D01*
X158737455Y-89746613D01*
X158767985Y-89809460D01*
X158769701Y-89830283D01*
X158766019Y-91587681D01*
X158745189Y-101525631D01*
X158725364Y-101592629D01*
X158672464Y-101638273D01*
X158621189Y-101649371D01*
X157195096Y-101649371D01*
X157128057Y-101629686D01*
X157082302Y-101576882D01*
X157072358Y-101507724D01*
X157075321Y-101493278D01*
X157084423Y-101459307D01*
X157100500Y-101399309D01*
X157100500Y-101280691D01*
X157069799Y-101166114D01*
X157010489Y-101063387D01*
X156926613Y-100979511D01*
X156823886Y-100920201D01*
X156709309Y-100889500D01*
X156590691Y-100889500D01*
X156476114Y-100920201D01*
X156476112Y-100920201D01*
X156476112Y-100920202D01*
X156373387Y-100979511D01*
X156373384Y-100979513D01*
X156289513Y-101063384D01*
X156289511Y-101063387D01*
X156230201Y-101166114D01*
X156199500Y-101280691D01*
X156199500Y-101280693D01*
X156199500Y-101399308D01*
X156224679Y-101493278D01*
X156223016Y-101563128D01*
X156183853Y-101620990D01*
X156119625Y-101648494D01*
X156104904Y-101649371D01*
X156061173Y-101649371D01*
X155994134Y-101629686D01*
X155948379Y-101576882D01*
X155938435Y-101507724D01*
X155941398Y-101493278D01*
X155941546Y-101492722D01*
X155950500Y-101459309D01*
X155950500Y-101340691D01*
X155919799Y-101226114D01*
X155860489Y-101123387D01*
X155776613Y-101039511D01*
X155673886Y-100980201D01*
X155559309Y-100949500D01*
X155440691Y-100949500D01*
X155326114Y-100980201D01*
X155326112Y-100980201D01*
X155326112Y-100980202D01*
X155223387Y-101039511D01*
X155223384Y-101039513D01*
X155139513Y-101123384D01*
X155139511Y-101123387D01*
X155080201Y-101226114D01*
X155049500Y-101340691D01*
X155049500Y-101340693D01*
X155049500Y-101459308D01*
X155058602Y-101493278D01*
X155056939Y-101563128D01*
X155017776Y-101620990D01*
X154953547Y-101648494D01*
X154938827Y-101649371D01*
X153923992Y-101649371D01*
X153880313Y-101654068D01*
X153828825Y-101665268D01*
X153818627Y-101667761D01*
X153818624Y-101667762D01*
X153737916Y-101710770D01*
X153737913Y-101710772D01*
X153685104Y-101756531D01*
X153667160Y-101774113D01*
X153667154Y-101774120D01*
X153622511Y-101853930D01*
X153622509Y-101853935D01*
X153602826Y-101920967D01*
X153602825Y-101920972D01*
X153602825Y-101920973D01*
X153594500Y-101978871D01*
X153594500Y-103317747D01*
X153594500Y-104830247D01*
X153594500Y-105730838D01*
X153599202Y-105774546D01*
X153609052Y-105819799D01*
X153610426Y-105826108D01*
X153612915Y-105836289D01*
X153652111Y-105909799D01*
X153655948Y-105916994D01*
X153701717Y-105969786D01*
X153719314Y-105987736D01*
X153752437Y-106006252D01*
X153801348Y-106056146D01*
X153815521Y-106124563D01*
X153790455Y-106189781D01*
X153753934Y-106221873D01*
X153723393Y-106239506D01*
X153723384Y-106239513D01*
X153639513Y-106323384D01*
X153639511Y-106323387D01*
X153580201Y-106426114D01*
X153549500Y-106540691D01*
X153150500Y-106540691D01*
X153119799Y-106426114D01*
X153060489Y-106323387D01*
X152976613Y-106239511D01*
X152873886Y-106180201D01*
X152759309Y-106149500D01*
X152640691Y-106149500D01*
X152526114Y-106180201D01*
X152526112Y-106180201D01*
X152526112Y-106180202D01*
X152423387Y-106239511D01*
X152423384Y-106239513D01*
X152339513Y-106323384D01*
X152339511Y-106323387D01*
X152280201Y-106426114D01*
X152249500Y-106540691D01*
X126300500Y-106540691D01*
X126300500Y-103090691D01*
X149799500Y-103090691D01*
X149799500Y-103209309D01*
X149830201Y-103323886D01*
X149889511Y-103426613D01*
X149973387Y-103510489D01*
X150076114Y-103569799D01*
X150190691Y-103600500D01*
X150190694Y-103600500D01*
X150309306Y-103600500D01*
X150309309Y-103600500D01*
X150423886Y-103569799D01*
X150526613Y-103510489D01*
X150610489Y-103426613D01*
X150669799Y-103323886D01*
X150700500Y-103209309D01*
X150700500Y-103090691D01*
X150669799Y-102976114D01*
X150610489Y-102873387D01*
X150526613Y-102789511D01*
X150423886Y-102730201D01*
X150309309Y-102699500D01*
X150190691Y-102699500D01*
X150076114Y-102730201D01*
X150076112Y-102730201D01*
X150076112Y-102730202D01*
X149973387Y-102789511D01*
X149973384Y-102789513D01*
X149889513Y-102873384D01*
X149889511Y-102873387D01*
X149830201Y-102976114D01*
X149799500Y-103090691D01*
X126300500Y-103090691D01*
X126300500Y-99671530D01*
X130299500Y-99671530D01*
X130299500Y-99878469D01*
X130339868Y-100081412D01*
X130339870Y-100081420D01*
X130409642Y-100249865D01*
X130419059Y-100272598D01*
X130443499Y-100309175D01*
X130534024Y-100444657D01*
X130680342Y-100590975D01*
X130680345Y-100590977D01*
X130852402Y-100705941D01*
X131043580Y-100785130D01*
X131246530Y-100825499D01*
X131246534Y-100825500D01*
X131246535Y-100825500D01*
X131453466Y-100825500D01*
X131453467Y-100825499D01*
X131656420Y-100785130D01*
X131847598Y-100705941D01*
X132019655Y-100590977D01*
X132165977Y-100444655D01*
X132280941Y-100272598D01*
X132360130Y-100081420D01*
X132400500Y-99878465D01*
X132400500Y-99830067D01*
X151188876Y-99830067D01*
X151188876Y-99948685D01*
X151219577Y-100063262D01*
X151278887Y-100165989D01*
X151362763Y-100249865D01*
X151465490Y-100309175D01*
X151580067Y-100339876D01*
X151580070Y-100339876D01*
X151698682Y-100339876D01*
X151698685Y-100339876D01*
X151813262Y-100309175D01*
X151915989Y-100249865D01*
X151999865Y-100165989D01*
X152059175Y-100063262D01*
X152089876Y-99948685D01*
X152089876Y-99830067D01*
X152059175Y-99715490D01*
X151999865Y-99612763D01*
X151915989Y-99528887D01*
X151813262Y-99469577D01*
X151698685Y-99438876D01*
X151580067Y-99438876D01*
X151465490Y-99469577D01*
X151465488Y-99469577D01*
X151465488Y-99469578D01*
X151362763Y-99528887D01*
X151362760Y-99528889D01*
X151278889Y-99612760D01*
X151278887Y-99612763D01*
X151244958Y-99671530D01*
X151219577Y-99715490D01*
X151188876Y-99830067D01*
X132400500Y-99830067D01*
X132400500Y-99671535D01*
X132360130Y-99468580D01*
X132280941Y-99277402D01*
X132165977Y-99105345D01*
X132165975Y-99105342D01*
X132019657Y-98959024D01*
X131933626Y-98901541D01*
X131847598Y-98844059D01*
X131656420Y-98764870D01*
X131656412Y-98764868D01*
X131453469Y-98724500D01*
X131453465Y-98724500D01*
X131246535Y-98724500D01*
X131246530Y-98724500D01*
X131043587Y-98764868D01*
X131043579Y-98764870D01*
X130852403Y-98844058D01*
X130680342Y-98959024D01*
X130534024Y-99105342D01*
X130419058Y-99277403D01*
X130339870Y-99468579D01*
X130339868Y-99468587D01*
X130299500Y-99671530D01*
X126300500Y-99671530D01*
X126300500Y-97131530D01*
X130299500Y-97131530D01*
X130299500Y-97338469D01*
X130339868Y-97541412D01*
X130339870Y-97541420D01*
X130419058Y-97732596D01*
X130534024Y-97904657D01*
X130680342Y-98050975D01*
X130680345Y-98050977D01*
X130852402Y-98165941D01*
X131043580Y-98245130D01*
X131246530Y-98285499D01*
X131246534Y-98285500D01*
X131246535Y-98285500D01*
X131453466Y-98285500D01*
X131453467Y-98285499D01*
X131656420Y-98245130D01*
X131847598Y-98165941D01*
X132019655Y-98050977D01*
X132165977Y-97904655D01*
X132280941Y-97732598D01*
X132360130Y-97541420D01*
X132400500Y-97338465D01*
X132400500Y-97131535D01*
X132360130Y-96928580D01*
X132280941Y-96737402D01*
X132165977Y-96565345D01*
X132165975Y-96565342D01*
X132019657Y-96419024D01*
X131884177Y-96328500D01*
X131847598Y-96304059D01*
X131832480Y-96297797D01*
X131656420Y-96224870D01*
X131656412Y-96224868D01*
X131453469Y-96184500D01*
X131453465Y-96184500D01*
X131246535Y-96184500D01*
X131246530Y-96184500D01*
X131043587Y-96224868D01*
X131043579Y-96224870D01*
X130852403Y-96304058D01*
X130680342Y-96419024D01*
X130534024Y-96565342D01*
X130419058Y-96737403D01*
X130339870Y-96928579D01*
X130339868Y-96928587D01*
X130299500Y-97131530D01*
X126300500Y-97131530D01*
X126300500Y-95818691D01*
X146112500Y-95818691D01*
X146112500Y-95937309D01*
X146143201Y-96051886D01*
X146202511Y-96154613D01*
X146286387Y-96238489D01*
X146389114Y-96297799D01*
X146503691Y-96328500D01*
X146503694Y-96328500D01*
X146622306Y-96328500D01*
X146622309Y-96328500D01*
X146736886Y-96297799D01*
X146839613Y-96238489D01*
X146923489Y-96154613D01*
X146982799Y-96051886D01*
X147013500Y-95937309D01*
X147013500Y-95873749D01*
X155582558Y-95873749D01*
X155582558Y-95992367D01*
X155613259Y-96106944D01*
X155672569Y-96209671D01*
X155756445Y-96293547D01*
X155859172Y-96352857D01*
X155973749Y-96383558D01*
X155973752Y-96383558D01*
X156092364Y-96383558D01*
X156092367Y-96383558D01*
X156206944Y-96352857D01*
X156309671Y-96293547D01*
X156393547Y-96209671D01*
X156452857Y-96106944D01*
X156483558Y-95992367D01*
X156483558Y-95873749D01*
X156452857Y-95759172D01*
X156393547Y-95656445D01*
X156309671Y-95572569D01*
X156206944Y-95513259D01*
X156092367Y-95482558D01*
X155973749Y-95482558D01*
X155859172Y-95513259D01*
X155859170Y-95513259D01*
X155859170Y-95513260D01*
X155756445Y-95572569D01*
X155756442Y-95572571D01*
X155672571Y-95656442D01*
X155672569Y-95656445D01*
X155621153Y-95745500D01*
X155613259Y-95759172D01*
X155582558Y-95873749D01*
X147013500Y-95873749D01*
X147013500Y-95818691D01*
X146982799Y-95704114D01*
X146923489Y-95601387D01*
X146839613Y-95517511D01*
X146736886Y-95458201D01*
X146622309Y-95427500D01*
X146503691Y-95427500D01*
X146389114Y-95458201D01*
X146389112Y-95458201D01*
X146389112Y-95458202D01*
X146286387Y-95517511D01*
X146286384Y-95517513D01*
X146202513Y-95601384D01*
X146202511Y-95601387D01*
X146143201Y-95704114D01*
X146112500Y-95818691D01*
X126300500Y-95818691D01*
X126300500Y-94591530D01*
X130299500Y-94591530D01*
X130299500Y-94798469D01*
X130339868Y-95001412D01*
X130339870Y-95001420D01*
X130376762Y-95090486D01*
X130419059Y-95192598D01*
X130457839Y-95250637D01*
X130534024Y-95364657D01*
X130680342Y-95510975D01*
X130680345Y-95510977D01*
X130852402Y-95625941D01*
X131043580Y-95705130D01*
X131213822Y-95738993D01*
X131246530Y-95745499D01*
X131246534Y-95745500D01*
X131246535Y-95745500D01*
X131453466Y-95745500D01*
X131453467Y-95745499D01*
X131656420Y-95705130D01*
X131847598Y-95625941D01*
X132019655Y-95510977D01*
X132165977Y-95364655D01*
X132280941Y-95192598D01*
X132360130Y-95001420D01*
X132400500Y-94798465D01*
X132400500Y-94591535D01*
X132360130Y-94388580D01*
X132280941Y-94197402D01*
X132243048Y-94140691D01*
X132999500Y-94140691D01*
X132999500Y-94259309D01*
X133030201Y-94373886D01*
X133089511Y-94476613D01*
X133173387Y-94560489D01*
X133276114Y-94619799D01*
X133390691Y-94650500D01*
X133390694Y-94650500D01*
X133509306Y-94650500D01*
X133509309Y-94650500D01*
X133623886Y-94619799D01*
X133726613Y-94560489D01*
X133810489Y-94476613D01*
X133869799Y-94373886D01*
X133900500Y-94259309D01*
X133900500Y-94140691D01*
X133873705Y-94040691D01*
X143639500Y-94040691D01*
X143639500Y-94159309D01*
X143670201Y-94273886D01*
X143729511Y-94376613D01*
X143813387Y-94460489D01*
X143813390Y-94460490D01*
X143813393Y-94460493D01*
X143848892Y-94480989D01*
X143897107Y-94531556D01*
X143910329Y-94600164D01*
X143884361Y-94665028D01*
X143848892Y-94695761D01*
X143813393Y-94716256D01*
X143813384Y-94716263D01*
X143729513Y-94800134D01*
X143729511Y-94800137D01*
X143714226Y-94826612D01*
X143670201Y-94902864D01*
X143639500Y-95017441D01*
X143639500Y-95136059D01*
X143670201Y-95250636D01*
X143729511Y-95353363D01*
X143813387Y-95437239D01*
X143916114Y-95496549D01*
X144030691Y-95527250D01*
X144030694Y-95527250D01*
X144149306Y-95527250D01*
X144149309Y-95527250D01*
X144263886Y-95496549D01*
X144366613Y-95437239D01*
X144450489Y-95353363D01*
X144509799Y-95250636D01*
X144540500Y-95136059D01*
X144540500Y-95017441D01*
X144509799Y-94902864D01*
X144450489Y-94800137D01*
X144366613Y-94716261D01*
X144331107Y-94695761D01*
X144282892Y-94645195D01*
X144269670Y-94576588D01*
X144295638Y-94511723D01*
X144331108Y-94480988D01*
X144338682Y-94476615D01*
X144366613Y-94460489D01*
X144450489Y-94376613D01*
X144509799Y-94273886D01*
X144524589Y-94218691D01*
X146112500Y-94218691D01*
X146112500Y-94337309D01*
X146143201Y-94451886D01*
X146202511Y-94554613D01*
X146286387Y-94638489D01*
X146389114Y-94697799D01*
X146503691Y-94728500D01*
X146503694Y-94728500D01*
X146622306Y-94728500D01*
X146622309Y-94728500D01*
X146736886Y-94697799D01*
X146839613Y-94638489D01*
X146923489Y-94554613D01*
X146982799Y-94451886D01*
X147013500Y-94337309D01*
X147013500Y-94218691D01*
X146982799Y-94104114D01*
X146923489Y-94001387D01*
X146839613Y-93917511D01*
X146736886Y-93858201D01*
X146622309Y-93827500D01*
X146503691Y-93827500D01*
X146389114Y-93858201D01*
X146389112Y-93858201D01*
X146389112Y-93858202D01*
X146286387Y-93917511D01*
X146286384Y-93917513D01*
X146202513Y-94001384D01*
X146202511Y-94001387D01*
X146170422Y-94056967D01*
X146143201Y-94104114D01*
X146112500Y-94218691D01*
X144524589Y-94218691D01*
X144540500Y-94159309D01*
X144540500Y-94040691D01*
X144509799Y-93926114D01*
X144450489Y-93823387D01*
X144366613Y-93739511D01*
X144263886Y-93680201D01*
X144149309Y-93649500D01*
X144030691Y-93649500D01*
X143916114Y-93680201D01*
X143916112Y-93680201D01*
X143916112Y-93680202D01*
X143813387Y-93739511D01*
X143813384Y-93739513D01*
X143729513Y-93823384D01*
X143729511Y-93823387D01*
X143670201Y-93926114D01*
X143639500Y-94040691D01*
X133873705Y-94040691D01*
X133869799Y-94026114D01*
X133810489Y-93923387D01*
X133726613Y-93839511D01*
X133623886Y-93780201D01*
X133509309Y-93749500D01*
X133390691Y-93749500D01*
X133276114Y-93780201D01*
X133276112Y-93780201D01*
X133276112Y-93780202D01*
X133173387Y-93839511D01*
X133173384Y-93839513D01*
X133089513Y-93923384D01*
X133089511Y-93923387D01*
X133042599Y-94004641D01*
X133030201Y-94026114D01*
X132999500Y-94140691D01*
X132243048Y-94140691D01*
X132165977Y-94025345D01*
X132165975Y-94025342D01*
X132019657Y-93879024D01*
X131871756Y-93780201D01*
X131847598Y-93764059D01*
X131823661Y-93754144D01*
X131656420Y-93684870D01*
X131656412Y-93684868D01*
X131453469Y-93644500D01*
X131453465Y-93644500D01*
X131246535Y-93644500D01*
X131246530Y-93644500D01*
X131043587Y-93684868D01*
X131043579Y-93684870D01*
X130852403Y-93764058D01*
X130680342Y-93879024D01*
X130534024Y-94025342D01*
X130419058Y-94197403D01*
X130339870Y-94388579D01*
X130339868Y-94388587D01*
X130299500Y-94591530D01*
X126300500Y-94591530D01*
X126300500Y-93390691D01*
X157049500Y-93390691D01*
X157049500Y-93509309D01*
X157080201Y-93623886D01*
X157139511Y-93726613D01*
X157139513Y-93726615D01*
X157189217Y-93776319D01*
X157222702Y-93837642D01*
X157217718Y-93907334D01*
X157189217Y-93951681D01*
X157139513Y-94001384D01*
X157139511Y-94001387D01*
X157107422Y-94056967D01*
X157080201Y-94104114D01*
X157049500Y-94218691D01*
X157049500Y-94337309D01*
X157080201Y-94451886D01*
X157139511Y-94554613D01*
X157223387Y-94638489D01*
X157326114Y-94697799D01*
X157440691Y-94728500D01*
X157440694Y-94728500D01*
X157559306Y-94728500D01*
X157559309Y-94728500D01*
X157673886Y-94697799D01*
X157776613Y-94638489D01*
X157860489Y-94554613D01*
X157919799Y-94451886D01*
X157950500Y-94337309D01*
X157950500Y-94218691D01*
X157919799Y-94104114D01*
X157860489Y-94001387D01*
X157810783Y-93951681D01*
X157777298Y-93890358D01*
X157782282Y-93820666D01*
X157810783Y-93776319D01*
X157832961Y-93754141D01*
X157860489Y-93726613D01*
X157919799Y-93623886D01*
X157950500Y-93509309D01*
X157950500Y-93390691D01*
X157919799Y-93276114D01*
X157860489Y-93173387D01*
X157776613Y-93089511D01*
X157673886Y-93030201D01*
X157559309Y-92999500D01*
X157440691Y-92999500D01*
X157326114Y-93030201D01*
X157326112Y-93030201D01*
X157326112Y-93030202D01*
X157223387Y-93089511D01*
X157223384Y-93089513D01*
X157139513Y-93173384D01*
X157139511Y-93173387D01*
X157080201Y-93276114D01*
X157049500Y-93390691D01*
X126300500Y-93390691D01*
X126300500Y-92051530D01*
X130299500Y-92051530D01*
X130299500Y-92258469D01*
X130339868Y-92461412D01*
X130339870Y-92461420D01*
X130401615Y-92610486D01*
X130419059Y-92652598D01*
X130433283Y-92673886D01*
X130534024Y-92824657D01*
X130680342Y-92970975D01*
X130680345Y-92970977D01*
X130852402Y-93085941D01*
X131043580Y-93165130D01*
X131246530Y-93205499D01*
X131246534Y-93205500D01*
X131246535Y-93205500D01*
X131453466Y-93205500D01*
X131453467Y-93205499D01*
X131656420Y-93165130D01*
X131847598Y-93085941D01*
X132019655Y-92970977D01*
X132165977Y-92824655D01*
X132280941Y-92652598D01*
X132360130Y-92461420D01*
X132400500Y-92258465D01*
X132400500Y-92190691D01*
X133649500Y-92190691D01*
X133649500Y-92309309D01*
X133680201Y-92423886D01*
X133739511Y-92526613D01*
X133823387Y-92610489D01*
X133926114Y-92669799D01*
X134040691Y-92700500D01*
X134040694Y-92700500D01*
X134159306Y-92700500D01*
X134159309Y-92700500D01*
X134273886Y-92669799D01*
X134376613Y-92610489D01*
X134460489Y-92526613D01*
X134519799Y-92423886D01*
X134550500Y-92309309D01*
X134550500Y-92190691D01*
X134519799Y-92076114D01*
X134460489Y-91973387D01*
X134376613Y-91889511D01*
X134273886Y-91830201D01*
X134159309Y-91799500D01*
X134040691Y-91799500D01*
X133926114Y-91830201D01*
X133926112Y-91830201D01*
X133926112Y-91830202D01*
X133823387Y-91889511D01*
X133823384Y-91889513D01*
X133739513Y-91973384D01*
X133739511Y-91973387D01*
X133694189Y-92051887D01*
X133680201Y-92076114D01*
X133649500Y-92190691D01*
X132400500Y-92190691D01*
X132400500Y-92051535D01*
X132360130Y-91848580D01*
X132280941Y-91657402D01*
X132165977Y-91485345D01*
X132165975Y-91485342D01*
X132019657Y-91339024D01*
X131847596Y-91224057D01*
X131661864Y-91147125D01*
X131656420Y-91144870D01*
X131656416Y-91144869D01*
X131656412Y-91144868D01*
X131453469Y-91104500D01*
X131453465Y-91104500D01*
X131246535Y-91104500D01*
X131246530Y-91104500D01*
X131043587Y-91144868D01*
X131043579Y-91144870D01*
X130852403Y-91224058D01*
X130680342Y-91339024D01*
X130534024Y-91485342D01*
X130419058Y-91657403D01*
X130339870Y-91848579D01*
X130339868Y-91848587D01*
X130299500Y-92051530D01*
X126300500Y-92051530D01*
X126300500Y-91040691D01*
X144449500Y-91040691D01*
X144449500Y-91159309D01*
X144480201Y-91273886D01*
X144539511Y-91376613D01*
X144539513Y-91376615D01*
X144575217Y-91412319D01*
X144608702Y-91473642D01*
X144603718Y-91543334D01*
X144575217Y-91587681D01*
X144539513Y-91623384D01*
X144539511Y-91623387D01*
X144480201Y-91726114D01*
X144449500Y-91840691D01*
X144449500Y-91959309D01*
X144480201Y-92073886D01*
X144539511Y-92176613D01*
X144539513Y-92176615D01*
X144575217Y-92212319D01*
X144608702Y-92273642D01*
X144603718Y-92343334D01*
X144575217Y-92387681D01*
X144539513Y-92423384D01*
X144539511Y-92423387D01*
X144480201Y-92526114D01*
X144449500Y-92640691D01*
X144449500Y-92759309D01*
X144480201Y-92873886D01*
X144539511Y-92976613D01*
X144623387Y-93060489D01*
X144726114Y-93119799D01*
X144840691Y-93150500D01*
X144840694Y-93150500D01*
X144959306Y-93150500D01*
X144959309Y-93150500D01*
X145073886Y-93119799D01*
X145176613Y-93060489D01*
X145260489Y-92976613D01*
X145319799Y-92873886D01*
X145350500Y-92759309D01*
X145350500Y-92640691D01*
X145319799Y-92526114D01*
X145260489Y-92423387D01*
X145224783Y-92387681D01*
X145191298Y-92326358D01*
X145196282Y-92256666D01*
X145224783Y-92212319D01*
X145260489Y-92176613D01*
X145319799Y-92073886D01*
X145350500Y-91959309D01*
X145350500Y-91840691D01*
X145344605Y-91818691D01*
X157049500Y-91818691D01*
X157049500Y-91937309D01*
X157080201Y-92051886D01*
X157139511Y-92154613D01*
X157223387Y-92238489D01*
X157326114Y-92297799D01*
X157440691Y-92328500D01*
X157440694Y-92328500D01*
X157559306Y-92328500D01*
X157559309Y-92328500D01*
X157673886Y-92297799D01*
X157776613Y-92238489D01*
X157860489Y-92154613D01*
X157919799Y-92051886D01*
X157950500Y-91937309D01*
X157950500Y-91818691D01*
X157919799Y-91704114D01*
X157860489Y-91601387D01*
X157849780Y-91590678D01*
X157816297Y-91529353D01*
X157821284Y-91459662D01*
X157849779Y-91415322D01*
X157910489Y-91354613D01*
X157969799Y-91251886D01*
X158000500Y-91137309D01*
X158000500Y-91018691D01*
X157969799Y-90904114D01*
X157910489Y-90801387D01*
X157826613Y-90717511D01*
X157723886Y-90658201D01*
X157609309Y-90627500D01*
X157490691Y-90627500D01*
X157376114Y-90658201D01*
X157376112Y-90658201D01*
X157376112Y-90658202D01*
X157273387Y-90717511D01*
X157273384Y-90717513D01*
X157189513Y-90801384D01*
X157189511Y-90801387D01*
X157130201Y-90904114D01*
X157099500Y-91018691D01*
X157099500Y-91137309D01*
X157130201Y-91251886D01*
X157189511Y-91354613D01*
X157189513Y-91354615D01*
X157200217Y-91365319D01*
X157233702Y-91426642D01*
X157228718Y-91496334D01*
X157200217Y-91540681D01*
X157139513Y-91601384D01*
X157139512Y-91601386D01*
X157139511Y-91601387D01*
X157080201Y-91704114D01*
X157049500Y-91818691D01*
X145344605Y-91818691D01*
X145319799Y-91726114D01*
X145260489Y-91623387D01*
X145224783Y-91587681D01*
X145191298Y-91526358D01*
X145196282Y-91456666D01*
X145224783Y-91412319D01*
X145260489Y-91376613D01*
X145319799Y-91273886D01*
X145350500Y-91159309D01*
X145350500Y-91040691D01*
X145319799Y-90926114D01*
X145260489Y-90823387D01*
X145176613Y-90739511D01*
X145073886Y-90680201D01*
X144959309Y-90649500D01*
X144840691Y-90649500D01*
X144726114Y-90680201D01*
X144726112Y-90680201D01*
X144726112Y-90680202D01*
X144623387Y-90739511D01*
X144623384Y-90739513D01*
X144539513Y-90823384D01*
X144539511Y-90823387D01*
X144480201Y-90926114D01*
X144449500Y-91040691D01*
X126300500Y-91040691D01*
X126300500Y-89511530D01*
X130299500Y-89511530D01*
X130299500Y-89718469D01*
X130339868Y-89921412D01*
X130339870Y-89921420D01*
X130419058Y-90112596D01*
X130534024Y-90284657D01*
X130680342Y-90430975D01*
X130680345Y-90430977D01*
X130852402Y-90545941D01*
X131043580Y-90625130D01*
X131246530Y-90665499D01*
X131246534Y-90665500D01*
X131246535Y-90665500D01*
X131453466Y-90665500D01*
X131453467Y-90665499D01*
X131656420Y-90625130D01*
X131847598Y-90545941D01*
X132019655Y-90430977D01*
X132165977Y-90284655D01*
X132210052Y-90218691D01*
X154462500Y-90218691D01*
X154462500Y-90337309D01*
X154493201Y-90451886D01*
X154552511Y-90554613D01*
X154636387Y-90638489D01*
X154739114Y-90697799D01*
X154853691Y-90728500D01*
X154853694Y-90728500D01*
X154972306Y-90728500D01*
X154972309Y-90728500D01*
X155086886Y-90697799D01*
X155189613Y-90638489D01*
X155273489Y-90554613D01*
X155332799Y-90451886D01*
X155363500Y-90337309D01*
X155363500Y-90218691D01*
X155332799Y-90104114D01*
X155273489Y-90001387D01*
X155189613Y-89917511D01*
X155086886Y-89858201D01*
X154972309Y-89827500D01*
X154853691Y-89827500D01*
X154739114Y-89858201D01*
X154739112Y-89858201D01*
X154739112Y-89858202D01*
X154636387Y-89917511D01*
X154636384Y-89917513D01*
X154552513Y-90001384D01*
X154552511Y-90001387D01*
X154493201Y-90104114D01*
X154462500Y-90218691D01*
X132210052Y-90218691D01*
X132280941Y-90112598D01*
X132360130Y-89921420D01*
X132400500Y-89718465D01*
X132400500Y-89511535D01*
X132360130Y-89308580D01*
X132280941Y-89117402D01*
X132165977Y-88945345D01*
X132165975Y-88945342D01*
X132064324Y-88843691D01*
X150687500Y-88843691D01*
X150687500Y-88962309D01*
X150718201Y-89076886D01*
X150777511Y-89179613D01*
X150861387Y-89263489D01*
X150964114Y-89322799D01*
X151078691Y-89353500D01*
X151078694Y-89353500D01*
X151197306Y-89353500D01*
X151197309Y-89353500D01*
X151311886Y-89322799D01*
X151414613Y-89263489D01*
X151498489Y-89179613D01*
X151557799Y-89076886D01*
X151588500Y-88962309D01*
X151588500Y-88843691D01*
X151557799Y-88729114D01*
X151498489Y-88626387D01*
X151414613Y-88542511D01*
X151311886Y-88483201D01*
X151197309Y-88452500D01*
X151078691Y-88452500D01*
X150964114Y-88483201D01*
X150964112Y-88483201D01*
X150964112Y-88483202D01*
X150861387Y-88542511D01*
X150861384Y-88542513D01*
X150777513Y-88626384D01*
X150777511Y-88626387D01*
X150720075Y-88725869D01*
X150718201Y-88729114D01*
X150687500Y-88843691D01*
X132064324Y-88843691D01*
X132019657Y-88799024D01*
X131915025Y-88729112D01*
X131847598Y-88684059D01*
X131747150Y-88642452D01*
X131656420Y-88604870D01*
X131656412Y-88604868D01*
X131453469Y-88564500D01*
X131453465Y-88564500D01*
X131246535Y-88564500D01*
X131246530Y-88564500D01*
X131043587Y-88604868D01*
X131043579Y-88604870D01*
X130852403Y-88684058D01*
X130680342Y-88799024D01*
X130534024Y-88945342D01*
X130419058Y-89117403D01*
X130339870Y-89308579D01*
X130339868Y-89308587D01*
X130299500Y-89511530D01*
X126300500Y-89511530D01*
X126300500Y-86180205D01*
X130200000Y-86180205D01*
X130200000Y-86925000D01*
X130872555Y-86925000D01*
X130850000Y-87009174D01*
X130850000Y-87140826D01*
X130872555Y-87225000D01*
X130200001Y-87225000D01*
X130200001Y-87969785D01*
X130200002Y-87969808D01*
X130202908Y-87994869D01*
X130202909Y-87994873D01*
X130248211Y-88097474D01*
X130248214Y-88097479D01*
X130327520Y-88176785D01*
X130327525Y-88176788D01*
X130430123Y-88222089D01*
X130455206Y-88224999D01*
X131199999Y-88224999D01*
X131200000Y-88224998D01*
X131200000Y-87552445D01*
X131284174Y-87575000D01*
X131415826Y-87575000D01*
X131500000Y-87552445D01*
X131500000Y-88224999D01*
X132244786Y-88224999D01*
X132244808Y-88224997D01*
X132269869Y-88222091D01*
X132269873Y-88222090D01*
X132372474Y-88176788D01*
X132372479Y-88176785D01*
X132451785Y-88097479D01*
X132451788Y-88097474D01*
X132497089Y-87994877D01*
X132497089Y-87994875D01*
X132499999Y-87969794D01*
X132500000Y-87969791D01*
X132500000Y-87340691D01*
X142849494Y-87340691D01*
X142849494Y-87459309D01*
X142880195Y-87573886D01*
X142939505Y-87676613D01*
X143023381Y-87760489D01*
X143126108Y-87819799D01*
X143240685Y-87850500D01*
X143240688Y-87850500D01*
X143359300Y-87850500D01*
X143359303Y-87850500D01*
X143473880Y-87819799D01*
X143576607Y-87760489D01*
X143612315Y-87724780D01*
X143673635Y-87691296D01*
X143743327Y-87696280D01*
X143787676Y-87724781D01*
X143823384Y-87760489D01*
X143926111Y-87819799D01*
X144040688Y-87850500D01*
X144040691Y-87850500D01*
X144159303Y-87850500D01*
X144159306Y-87850500D01*
X144273883Y-87819799D01*
X144376610Y-87760489D01*
X144412318Y-87724780D01*
X144473638Y-87691296D01*
X144543330Y-87696280D01*
X144587679Y-87724781D01*
X144623387Y-87760489D01*
X144726114Y-87819799D01*
X144840691Y-87850500D01*
X144840694Y-87850500D01*
X144959306Y-87850500D01*
X144959309Y-87850500D01*
X145073886Y-87819799D01*
X145176613Y-87760489D01*
X145260489Y-87676613D01*
X145319799Y-87573886D01*
X145350500Y-87459309D01*
X145350500Y-87340691D01*
X145319799Y-87226114D01*
X145260489Y-87123387D01*
X145176613Y-87039511D01*
X145073886Y-86980201D01*
X144959309Y-86949500D01*
X144840691Y-86949500D01*
X144726114Y-86980201D01*
X144726112Y-86980201D01*
X144726112Y-86980202D01*
X144623387Y-87039511D01*
X144623383Y-87039514D01*
X144587678Y-87075219D01*
X144526355Y-87108704D01*
X144456663Y-87103718D01*
X144412317Y-87075218D01*
X144376612Y-87039513D01*
X144376610Y-87039511D01*
X144273883Y-86980201D01*
X144159306Y-86949500D01*
X144040688Y-86949500D01*
X143926111Y-86980201D01*
X143926109Y-86980201D01*
X143926109Y-86980202D01*
X143823384Y-87039511D01*
X143823380Y-87039514D01*
X143787675Y-87075219D01*
X143726352Y-87108704D01*
X143656660Y-87103718D01*
X143612314Y-87075218D01*
X143576609Y-87039513D01*
X143576607Y-87039511D01*
X143473880Y-86980201D01*
X143359303Y-86949500D01*
X143240685Y-86949500D01*
X143126108Y-86980201D01*
X143126106Y-86980201D01*
X143126106Y-86980202D01*
X143023381Y-87039511D01*
X143023378Y-87039513D01*
X142939507Y-87123384D01*
X142939505Y-87123387D01*
X142899993Y-87191824D01*
X142880195Y-87226114D01*
X142849494Y-87340691D01*
X132500000Y-87340691D01*
X132500000Y-87225000D01*
X131827445Y-87225000D01*
X131850000Y-87140826D01*
X131850000Y-87009174D01*
X131827445Y-86925000D01*
X132499999Y-86925000D01*
X132499999Y-86390691D01*
X153099500Y-86390691D01*
X153099500Y-86509309D01*
X153130201Y-86623886D01*
X153189511Y-86726613D01*
X153273387Y-86810489D01*
X153376114Y-86869799D01*
X153490691Y-86900500D01*
X153490694Y-86900500D01*
X153609306Y-86900500D01*
X153609309Y-86900500D01*
X153723886Y-86869799D01*
X153826613Y-86810489D01*
X153910489Y-86726613D01*
X153942613Y-86670972D01*
X153993180Y-86622757D01*
X154061787Y-86609535D01*
X154126652Y-86635503D01*
X154157386Y-86670972D01*
X154189511Y-86726613D01*
X154273387Y-86810489D01*
X154376114Y-86869799D01*
X154490691Y-86900500D01*
X154490694Y-86900500D01*
X154609306Y-86900500D01*
X154609309Y-86900500D01*
X154723886Y-86869799D01*
X154826613Y-86810489D01*
X154910489Y-86726613D01*
X154917613Y-86714274D01*
X154968180Y-86666058D01*
X155036787Y-86652836D01*
X155101652Y-86678804D01*
X155132387Y-86714274D01*
X155139508Y-86726609D01*
X155139510Y-86726611D01*
X155139511Y-86726613D01*
X155223387Y-86810489D01*
X155326114Y-86869799D01*
X155440691Y-86900500D01*
X155440694Y-86900500D01*
X155559306Y-86900500D01*
X155559309Y-86900500D01*
X155673886Y-86869799D01*
X155776613Y-86810489D01*
X155860489Y-86726613D01*
X155919799Y-86623886D01*
X155950500Y-86509309D01*
X155950500Y-86390691D01*
X155919799Y-86276114D01*
X155860489Y-86173387D01*
X155776613Y-86089511D01*
X155673886Y-86030201D01*
X155559309Y-85999500D01*
X155440691Y-85999500D01*
X155326114Y-86030201D01*
X155326112Y-86030201D01*
X155326112Y-86030202D01*
X155223387Y-86089511D01*
X155223384Y-86089513D01*
X155139513Y-86173384D01*
X155139511Y-86173387D01*
X155132386Y-86185728D01*
X155081817Y-86233942D01*
X155013210Y-86247163D01*
X154948346Y-86221194D01*
X154917614Y-86185728D01*
X154910489Y-86173387D01*
X154826613Y-86089511D01*
X154723886Y-86030201D01*
X154609309Y-85999500D01*
X154490691Y-85999500D01*
X154376114Y-86030201D01*
X154376112Y-86030201D01*
X154376112Y-86030202D01*
X154273387Y-86089511D01*
X154273384Y-86089513D01*
X154189513Y-86173384D01*
X154189511Y-86173387D01*
X154157387Y-86229027D01*
X154106819Y-86277242D01*
X154038212Y-86290464D01*
X153973347Y-86264496D01*
X153942613Y-86229027D01*
X153910489Y-86173387D01*
X153826613Y-86089511D01*
X153723886Y-86030201D01*
X153609309Y-85999500D01*
X153490691Y-85999500D01*
X153376114Y-86030201D01*
X153376112Y-86030201D01*
X153376112Y-86030202D01*
X153273387Y-86089511D01*
X153273384Y-86089513D01*
X153189513Y-86173384D01*
X153189511Y-86173387D01*
X153130201Y-86276114D01*
X153099500Y-86390691D01*
X132499999Y-86390691D01*
X132499999Y-86180214D01*
X132499997Y-86180191D01*
X132497091Y-86155130D01*
X132497090Y-86155126D01*
X132451788Y-86052525D01*
X132451785Y-86052520D01*
X132372479Y-85973214D01*
X132372474Y-85973211D01*
X132269876Y-85927910D01*
X132244794Y-85925000D01*
X131500000Y-85925000D01*
X131500000Y-86597554D01*
X131415826Y-86575000D01*
X131284174Y-86575000D01*
X131200000Y-86597554D01*
X131200000Y-85925000D01*
X130455214Y-85925000D01*
X130455191Y-85925002D01*
X130430130Y-85927908D01*
X130430126Y-85927909D01*
X130327525Y-85973211D01*
X130327520Y-85973214D01*
X130248214Y-86052520D01*
X130248211Y-86052525D01*
X130202910Y-86155122D01*
X130202910Y-86155124D01*
X130200000Y-86180205D01*
X126300500Y-86180205D01*
X126300500Y-78238632D01*
X129957398Y-78238632D01*
X129957398Y-78445571D01*
X129997766Y-78648514D01*
X129997768Y-78648522D01*
X130076956Y-78839698D01*
X130191922Y-79011759D01*
X130338240Y-79158077D01*
X130338243Y-79158079D01*
X130510300Y-79273043D01*
X130701478Y-79352232D01*
X130904428Y-79392601D01*
X130904432Y-79392602D01*
X130904433Y-79392602D01*
X131111364Y-79392602D01*
X131111365Y-79392601D01*
X131314318Y-79352232D01*
X131505496Y-79273043D01*
X131677553Y-79158079D01*
X131823875Y-79011757D01*
X131938839Y-78839700D01*
X132018028Y-78648522D01*
X132058398Y-78445567D01*
X132058398Y-78238637D01*
X132018028Y-78035682D01*
X131938839Y-77844504D01*
X131823875Y-77672447D01*
X131823873Y-77672444D01*
X131677555Y-77526126D01*
X131591524Y-77468643D01*
X131505496Y-77411161D01*
X131314318Y-77331972D01*
X131314310Y-77331970D01*
X131111367Y-77291602D01*
X131111363Y-77291602D01*
X130904433Y-77291602D01*
X130904428Y-77291602D01*
X130701485Y-77331970D01*
X130701477Y-77331972D01*
X130510301Y-77411160D01*
X130338240Y-77526126D01*
X130191922Y-77672444D01*
X130076956Y-77844505D01*
X129997768Y-78035681D01*
X129997766Y-78035689D01*
X129957398Y-78238632D01*
X126300500Y-78238632D01*
X126300500Y-76442581D01*
X131753449Y-76442581D01*
X131753449Y-76649520D01*
X131793817Y-76852463D01*
X131793819Y-76852471D01*
X131873007Y-77043647D01*
X131987973Y-77215708D01*
X132134291Y-77362026D01*
X132134294Y-77362028D01*
X132306351Y-77476992D01*
X132497529Y-77556181D01*
X132700479Y-77596550D01*
X132700483Y-77596551D01*
X132700484Y-77596551D01*
X132907415Y-77596551D01*
X132907416Y-77596550D01*
X133110369Y-77556181D01*
X133301547Y-77476992D01*
X133473604Y-77362028D01*
X133619926Y-77215706D01*
X133734890Y-77043649D01*
X133814079Y-76852471D01*
X133854449Y-76649516D01*
X133854449Y-76442586D01*
X133844127Y-76390691D01*
X135699500Y-76390691D01*
X135699500Y-76509309D01*
X135730201Y-76623886D01*
X135789511Y-76726613D01*
X135873387Y-76810489D01*
X135976114Y-76869799D01*
X136090691Y-76900500D01*
X136090694Y-76900500D01*
X136209306Y-76900500D01*
X136209309Y-76900500D01*
X136323886Y-76869799D01*
X136426613Y-76810489D01*
X136510489Y-76726613D01*
X136569799Y-76623886D01*
X136600500Y-76509309D01*
X136600500Y-76390691D01*
X136569799Y-76276114D01*
X136510489Y-76173387D01*
X136426613Y-76089511D01*
X136323886Y-76030201D01*
X136209309Y-75999500D01*
X136090691Y-75999500D01*
X135976114Y-76030201D01*
X135976112Y-76030201D01*
X135976112Y-76030202D01*
X135873387Y-76089511D01*
X135873384Y-76089513D01*
X135789513Y-76173384D01*
X135789511Y-76173387D01*
X135730201Y-76276114D01*
X135699500Y-76390691D01*
X133844127Y-76390691D01*
X133814079Y-76239631D01*
X133734890Y-76048453D01*
X133619926Y-75876396D01*
X133619924Y-75876393D01*
X133473606Y-75730075D01*
X133369975Y-75660832D01*
X133301547Y-75615110D01*
X133110369Y-75535921D01*
X133110361Y-75535919D01*
X132907418Y-75495551D01*
X132907414Y-75495551D01*
X132700484Y-75495551D01*
X132700479Y-75495551D01*
X132497536Y-75535919D01*
X132497528Y-75535921D01*
X132306352Y-75615109D01*
X132134291Y-75730075D01*
X131987973Y-75876393D01*
X131873007Y-76048454D01*
X131793819Y-76239630D01*
X131793817Y-76239638D01*
X131753449Y-76442581D01*
X126300500Y-76442581D01*
X126300500Y-74646530D01*
X133549500Y-74646530D01*
X133549500Y-74853469D01*
X133589868Y-75056412D01*
X133589870Y-75056420D01*
X133669058Y-75247596D01*
X133784024Y-75419657D01*
X133930342Y-75565975D01*
X133930345Y-75565977D01*
X134102402Y-75680941D01*
X134293580Y-75760130D01*
X134496530Y-75800499D01*
X134496534Y-75800500D01*
X134496535Y-75800500D01*
X134703466Y-75800500D01*
X134703467Y-75800499D01*
X134906420Y-75760130D01*
X135097598Y-75680941D01*
X135269655Y-75565977D01*
X135415977Y-75419655D01*
X135530941Y-75247598D01*
X135589795Y-75105513D01*
X186599500Y-75105513D01*
X186599500Y-75294486D01*
X186629059Y-75481118D01*
X186687454Y-75660836D01*
X186758617Y-75800500D01*
X186773240Y-75829199D01*
X186884310Y-75982073D01*
X187017927Y-76115690D01*
X187170801Y-76226760D01*
X187196076Y-76239638D01*
X187339169Y-76312548D01*
X187356465Y-76318167D01*
X187363815Y-76320555D01*
X187421491Y-76359991D01*
X187448691Y-76424348D01*
X187449500Y-76438487D01*
X187449500Y-80461512D01*
X187429815Y-80528551D01*
X187377011Y-80574306D01*
X187363822Y-80579442D01*
X187339164Y-80587454D01*
X187170800Y-80673240D01*
X187083579Y-80736610D01*
X187017927Y-80784310D01*
X187017925Y-80784312D01*
X187017924Y-80784312D01*
X186884312Y-80917924D01*
X186884312Y-80917925D01*
X186884310Y-80917927D01*
X186854246Y-80959306D01*
X186773240Y-81070800D01*
X186687454Y-81239163D01*
X186629059Y-81418881D01*
X186599500Y-81605513D01*
X186599500Y-81794486D01*
X186629059Y-81981118D01*
X186687454Y-82160836D01*
X186748274Y-82280201D01*
X186773240Y-82329199D01*
X186884310Y-82482073D01*
X187017927Y-82615690D01*
X187170801Y-82726760D01*
X187234682Y-82759309D01*
X187339163Y-82812545D01*
X187339165Y-82812545D01*
X187339168Y-82812547D01*
X187408191Y-82834974D01*
X187518881Y-82870940D01*
X187705514Y-82900500D01*
X187705519Y-82900500D01*
X187894486Y-82900500D01*
X188081118Y-82870940D01*
X188110522Y-82861386D01*
X188260832Y-82812547D01*
X188429199Y-82726760D01*
X188582073Y-82615690D01*
X188715690Y-82482073D01*
X188826760Y-82329199D01*
X188912547Y-82160832D01*
X188970940Y-81981118D01*
X188977865Y-81937396D01*
X189000500Y-81794486D01*
X189000500Y-81605513D01*
X188970940Y-81418881D01*
X188928905Y-81289513D01*
X188912547Y-81239168D01*
X188912545Y-81239165D01*
X188912545Y-81239163D01*
X188831550Y-81080202D01*
X188826760Y-81070801D01*
X188715690Y-80917927D01*
X188582073Y-80784310D01*
X188429199Y-80673240D01*
X188331351Y-80623384D01*
X188260835Y-80587454D01*
X188236178Y-80579442D01*
X188178504Y-80540002D01*
X188151308Y-80475643D01*
X188150500Y-80461512D01*
X188150500Y-76438487D01*
X188170185Y-76371448D01*
X188222989Y-76325693D01*
X188236180Y-76320556D01*
X188247282Y-76316949D01*
X188260830Y-76312548D01*
X188260836Y-76312545D01*
X188429199Y-76226760D01*
X188582073Y-76115690D01*
X188715690Y-75982073D01*
X188826760Y-75829199D01*
X188912547Y-75660832D01*
X188970940Y-75481118D01*
X188977865Y-75437396D01*
X189000500Y-75294486D01*
X189000500Y-75105513D01*
X188970940Y-74918881D01*
X188912545Y-74739163D01*
X188826759Y-74570800D01*
X188715690Y-74417927D01*
X188582073Y-74284310D01*
X188429199Y-74173240D01*
X188260836Y-74087454D01*
X188081118Y-74029059D01*
X187894486Y-73999500D01*
X187894481Y-73999500D01*
X187705519Y-73999500D01*
X187705514Y-73999500D01*
X187518881Y-74029059D01*
X187339163Y-74087454D01*
X187170800Y-74173240D01*
X187083579Y-74236610D01*
X187017927Y-74284310D01*
X187017925Y-74284312D01*
X187017924Y-74284312D01*
X186884312Y-74417924D01*
X186884312Y-74417925D01*
X186884310Y-74417927D01*
X186879981Y-74423886D01*
X186773240Y-74570800D01*
X186687454Y-74739163D01*
X186629059Y-74918881D01*
X186599500Y-75105513D01*
X135589795Y-75105513D01*
X135610130Y-75056420D01*
X135650500Y-74853465D01*
X135650500Y-74646535D01*
X135610130Y-74443580D01*
X135530941Y-74252402D01*
X135489707Y-74190691D01*
X139099500Y-74190691D01*
X139099500Y-74309309D01*
X139130201Y-74423886D01*
X139189511Y-74526613D01*
X139273387Y-74610489D01*
X139376114Y-74669799D01*
X139490691Y-74700500D01*
X139490694Y-74700500D01*
X139609306Y-74700500D01*
X139609309Y-74700500D01*
X139723886Y-74669799D01*
X139826613Y-74610489D01*
X139910489Y-74526613D01*
X139969799Y-74423886D01*
X140000500Y-74309309D01*
X140000500Y-74190691D01*
X139969799Y-74076114D01*
X139910489Y-73973387D01*
X139826613Y-73889511D01*
X139723886Y-73830201D01*
X139609309Y-73799500D01*
X139490691Y-73799500D01*
X139376114Y-73830201D01*
X139376112Y-73830201D01*
X139376112Y-73830202D01*
X139273387Y-73889511D01*
X139273384Y-73889513D01*
X139189513Y-73973384D01*
X139189511Y-73973387D01*
X139174435Y-73999500D01*
X139130201Y-74076114D01*
X139099500Y-74190691D01*
X135489707Y-74190691D01*
X135415977Y-74080345D01*
X135415975Y-74080342D01*
X135269657Y-73934024D01*
X135183626Y-73876541D01*
X135097598Y-73819059D01*
X134906420Y-73739870D01*
X134906412Y-73739868D01*
X134703469Y-73699500D01*
X134703465Y-73699500D01*
X134496535Y-73699500D01*
X134496530Y-73699500D01*
X134293587Y-73739868D01*
X134293579Y-73739870D01*
X134102403Y-73819058D01*
X133930342Y-73934024D01*
X133784024Y-74080342D01*
X133669058Y-74252403D01*
X133589870Y-74443579D01*
X133589868Y-74443587D01*
X133549500Y-74646530D01*
X126300500Y-74646530D01*
X126300500Y-69832944D01*
X126599500Y-69832944D01*
X126599500Y-70167056D01*
X126605400Y-70226955D01*
X126632247Y-70499548D01*
X126632250Y-70499565D01*
X126697425Y-70827230D01*
X126697428Y-70827241D01*
X126794418Y-71146977D01*
X126922278Y-71455656D01*
X126922280Y-71455661D01*
X127079769Y-71750303D01*
X127079780Y-71750321D01*
X127265393Y-72028109D01*
X127265403Y-72028123D01*
X127477361Y-72286395D01*
X127713604Y-72522638D01*
X127713609Y-72522642D01*
X127713610Y-72522643D01*
X127971882Y-72734601D01*
X128249685Y-72920224D01*
X128249694Y-72920229D01*
X128249696Y-72920230D01*
X128544338Y-73077719D01*
X128544340Y-73077719D01*
X128544346Y-73077723D01*
X128853024Y-73205582D01*
X129172749Y-73302569D01*
X129172755Y-73302570D01*
X129172758Y-73302571D01*
X129172769Y-73302574D01*
X129378243Y-73343444D01*
X129500441Y-73367751D01*
X129832944Y-73400500D01*
X129832947Y-73400500D01*
X130167053Y-73400500D01*
X130167056Y-73400500D01*
X130499559Y-73367751D01*
X130661757Y-73335487D01*
X130827230Y-73302574D01*
X130827241Y-73302571D01*
X130827241Y-73302570D01*
X130827251Y-73302569D01*
X131146976Y-73205582D01*
X131455654Y-73077723D01*
X131750315Y-72920224D01*
X131854697Y-72850478D01*
X135345552Y-72850478D01*
X135345552Y-73057417D01*
X135385920Y-73260360D01*
X135385922Y-73260368D01*
X135465110Y-73451544D01*
X135580076Y-73623605D01*
X135726394Y-73769923D01*
X135726397Y-73769925D01*
X135898454Y-73884889D01*
X136089632Y-73964078D01*
X136267712Y-73999500D01*
X136292582Y-74004447D01*
X136292586Y-74004448D01*
X136292587Y-74004448D01*
X136499518Y-74004448D01*
X136499519Y-74004447D01*
X136702472Y-73964078D01*
X136893650Y-73884889D01*
X137065707Y-73769925D01*
X137212029Y-73623603D01*
X137326993Y-73451546D01*
X137406182Y-73260368D01*
X137446552Y-73057413D01*
X137446552Y-72850483D01*
X137406182Y-72647528D01*
X137326993Y-72456350D01*
X137212029Y-72284293D01*
X137212027Y-72284290D01*
X137065709Y-72137972D01*
X136979678Y-72080489D01*
X136893650Y-72023007D01*
X136702472Y-71943818D01*
X136702464Y-71943816D01*
X136499521Y-71903448D01*
X136499517Y-71903448D01*
X136292587Y-71903448D01*
X136292582Y-71903448D01*
X136089639Y-71943816D01*
X136089631Y-71943818D01*
X135898455Y-72023006D01*
X135726394Y-72137972D01*
X135580076Y-72284290D01*
X135465110Y-72456351D01*
X135385922Y-72647527D01*
X135385920Y-72647535D01*
X135345552Y-72850478D01*
X131854697Y-72850478D01*
X132028118Y-72734601D01*
X132286390Y-72522643D01*
X132522643Y-72286390D01*
X132734601Y-72028118D01*
X132920224Y-71750315D01*
X133077723Y-71455654D01*
X133205582Y-71146976D01*
X133233656Y-71054427D01*
X137141603Y-71054427D01*
X137141603Y-71261366D01*
X137180250Y-71455656D01*
X137181973Y-71464317D01*
X137261162Y-71655495D01*
X137301255Y-71715499D01*
X137376127Y-71827554D01*
X137522445Y-71973872D01*
X137522448Y-71973874D01*
X137694505Y-72088838D01*
X137885683Y-72168027D01*
X138088633Y-72208396D01*
X138088637Y-72208397D01*
X138088638Y-72208397D01*
X138295569Y-72208397D01*
X138295570Y-72208396D01*
X138498523Y-72168027D01*
X138689701Y-72088838D01*
X138861758Y-71973874D01*
X139008080Y-71827552D01*
X139123044Y-71655495D01*
X139202233Y-71464317D01*
X139242603Y-71261362D01*
X139242603Y-71054432D01*
X139202233Y-70851477D01*
X139123044Y-70660299D01*
X139008080Y-70488242D01*
X139008078Y-70488239D01*
X138861760Y-70341921D01*
X138848146Y-70332825D01*
X138848144Y-70332822D01*
X138689702Y-70226956D01*
X138498523Y-70147767D01*
X138498515Y-70147765D01*
X138295572Y-70107397D01*
X138295568Y-70107397D01*
X138088638Y-70107397D01*
X138088633Y-70107397D01*
X137885690Y-70147765D01*
X137885682Y-70147767D01*
X137694506Y-70226955D01*
X137522445Y-70341921D01*
X137376127Y-70488239D01*
X137261161Y-70660300D01*
X137181973Y-70851476D01*
X137181971Y-70851484D01*
X137141603Y-71054427D01*
X133233656Y-71054427D01*
X133302569Y-70827251D01*
X133302571Y-70827241D01*
X133302574Y-70827230D01*
X133355424Y-70561530D01*
X133367751Y-70499559D01*
X133400500Y-70167056D01*
X133400500Y-69832944D01*
X133367751Y-69500441D01*
X133351338Y-69417925D01*
X133331555Y-69318467D01*
X133329028Y-69305765D01*
X138486072Y-69305765D01*
X138486072Y-69417925D01*
X138526589Y-69522511D01*
X138542264Y-69542302D01*
X138542268Y-69542306D01*
X139068915Y-70068952D01*
X139544483Y-69593384D01*
X139588055Y-69668853D01*
X139681147Y-69761945D01*
X139756615Y-69805516D01*
X139281047Y-70281084D01*
X139807690Y-70807727D01*
X139807701Y-70807737D01*
X139827490Y-70823412D01*
X139932073Y-70863928D01*
X140044234Y-70863928D01*
X140148819Y-70823410D01*
X140168610Y-70807735D01*
X140414815Y-70561530D01*
X154139500Y-70561530D01*
X154139500Y-70768469D01*
X154179868Y-70971412D01*
X154179870Y-70971420D01*
X154259058Y-71162596D01*
X154374024Y-71334657D01*
X154520342Y-71480975D01*
X154520345Y-71480977D01*
X154692402Y-71595941D01*
X154883580Y-71675130D01*
X155086530Y-71715499D01*
X155086534Y-71715500D01*
X155086535Y-71715500D01*
X155293466Y-71715500D01*
X155293467Y-71715499D01*
X155496420Y-71675130D01*
X155687598Y-71595941D01*
X155859655Y-71480977D01*
X156005977Y-71334655D01*
X156120941Y-71162598D01*
X156200130Y-70971420D01*
X156240500Y-70768465D01*
X156240500Y-70561535D01*
X156240499Y-70561530D01*
X156679500Y-70561530D01*
X156679500Y-70768469D01*
X156719868Y-70971412D01*
X156719870Y-70971420D01*
X156799058Y-71162596D01*
X156914024Y-71334657D01*
X157060342Y-71480975D01*
X157060345Y-71480977D01*
X157232402Y-71595941D01*
X157423580Y-71675130D01*
X157626530Y-71715499D01*
X157626534Y-71715500D01*
X157626535Y-71715500D01*
X157833466Y-71715500D01*
X157833467Y-71715499D01*
X158036420Y-71675130D01*
X158227598Y-71595941D01*
X158399655Y-71480977D01*
X158545977Y-71334655D01*
X158660941Y-71162598D01*
X158740130Y-70971420D01*
X158780500Y-70768465D01*
X158780500Y-70561535D01*
X158780499Y-70561530D01*
X159219500Y-70561530D01*
X159219500Y-70768469D01*
X159259868Y-70971412D01*
X159259870Y-70971420D01*
X159339058Y-71162596D01*
X159454024Y-71334657D01*
X159600342Y-71480975D01*
X159600345Y-71480977D01*
X159772402Y-71595941D01*
X159963580Y-71675130D01*
X160166530Y-71715499D01*
X160166534Y-71715500D01*
X160166535Y-71715500D01*
X160373466Y-71715500D01*
X160373467Y-71715499D01*
X160576420Y-71675130D01*
X160767598Y-71595941D01*
X160939655Y-71480977D01*
X161085977Y-71334655D01*
X161200941Y-71162598D01*
X161280130Y-70971420D01*
X161320500Y-70768465D01*
X161320500Y-70561535D01*
X161320499Y-70561530D01*
X161759500Y-70561530D01*
X161759500Y-70768469D01*
X161799868Y-70971412D01*
X161799870Y-70971420D01*
X161879058Y-71162596D01*
X161994024Y-71334657D01*
X162140342Y-71480975D01*
X162140345Y-71480977D01*
X162312402Y-71595941D01*
X162503580Y-71675130D01*
X162706530Y-71715499D01*
X162706534Y-71715500D01*
X162706535Y-71715500D01*
X162913466Y-71715500D01*
X162913467Y-71715499D01*
X163116420Y-71675130D01*
X163307598Y-71595941D01*
X163479655Y-71480977D01*
X163625977Y-71334655D01*
X163740941Y-71162598D01*
X163820130Y-70971420D01*
X163860500Y-70768465D01*
X163860500Y-70561535D01*
X163820130Y-70358580D01*
X163740941Y-70167402D01*
X163625977Y-69995345D01*
X163625975Y-69995342D01*
X163479657Y-69849024D01*
X163455591Y-69832944D01*
X186599500Y-69832944D01*
X186599500Y-70167056D01*
X186605400Y-70226955D01*
X186632247Y-70499548D01*
X186632250Y-70499565D01*
X186697425Y-70827230D01*
X186697428Y-70827241D01*
X186794418Y-71146977D01*
X186922278Y-71455656D01*
X186922280Y-71455661D01*
X187079769Y-71750303D01*
X187079780Y-71750321D01*
X187265393Y-72028109D01*
X187265403Y-72028123D01*
X187477361Y-72286395D01*
X187713604Y-72522638D01*
X187713609Y-72522642D01*
X187713610Y-72522643D01*
X187971882Y-72734601D01*
X188249685Y-72920224D01*
X188249694Y-72920229D01*
X188249696Y-72920230D01*
X188544338Y-73077719D01*
X188544340Y-73077719D01*
X188544346Y-73077723D01*
X188853024Y-73205582D01*
X189172749Y-73302569D01*
X189172755Y-73302570D01*
X189172758Y-73302571D01*
X189172769Y-73302574D01*
X189378243Y-73343444D01*
X189500441Y-73367751D01*
X189832944Y-73400500D01*
X189832947Y-73400500D01*
X190167053Y-73400500D01*
X190167056Y-73400500D01*
X190499559Y-73367751D01*
X190661757Y-73335487D01*
X190827230Y-73302574D01*
X190827241Y-73302571D01*
X190827241Y-73302570D01*
X190827251Y-73302569D01*
X191146976Y-73205582D01*
X191455654Y-73077723D01*
X191750315Y-72920224D01*
X192028118Y-72734601D01*
X192286390Y-72522643D01*
X192522643Y-72286390D01*
X192734601Y-72028118D01*
X192920224Y-71750315D01*
X193077723Y-71455654D01*
X193205582Y-71146976D01*
X193302569Y-70827251D01*
X193302571Y-70827241D01*
X193302574Y-70827230D01*
X193355424Y-70561530D01*
X193367751Y-70499559D01*
X193400500Y-70167056D01*
X193400500Y-69832944D01*
X193367751Y-69500441D01*
X193327242Y-69296789D01*
X193302574Y-69172769D01*
X193302571Y-69172758D01*
X193302570Y-69172755D01*
X193302569Y-69172749D01*
X193205582Y-68853024D01*
X193077723Y-68544346D01*
X192920224Y-68249685D01*
X192734601Y-67971882D01*
X192522643Y-67713610D01*
X192522642Y-67713609D01*
X192522638Y-67713604D01*
X192286395Y-67477361D01*
X192028123Y-67265403D01*
X192028122Y-67265402D01*
X192028118Y-67265399D01*
X191750315Y-67079776D01*
X191750310Y-67079773D01*
X191750303Y-67079769D01*
X191455661Y-66922280D01*
X191455656Y-66922278D01*
X191146977Y-66794418D01*
X190827241Y-66697428D01*
X190827230Y-66697425D01*
X190499565Y-66632250D01*
X190499548Y-66632247D01*
X190248108Y-66607483D01*
X190167056Y-66599500D01*
X189832944Y-66599500D01*
X189757982Y-66606883D01*
X189500451Y-66632247D01*
X189500434Y-66632250D01*
X189172769Y-66697425D01*
X189172758Y-66697428D01*
X188853022Y-66794418D01*
X188544343Y-66922278D01*
X188544338Y-66922280D01*
X188249696Y-67079769D01*
X188249678Y-67079780D01*
X187971890Y-67265393D01*
X187971876Y-67265403D01*
X187713604Y-67477361D01*
X187477361Y-67713604D01*
X187265403Y-67971876D01*
X187265393Y-67971890D01*
X187079780Y-68249678D01*
X187079769Y-68249696D01*
X186922280Y-68544338D01*
X186922278Y-68544343D01*
X186794418Y-68853022D01*
X186697428Y-69172758D01*
X186697425Y-69172769D01*
X186632250Y-69500434D01*
X186632247Y-69500451D01*
X186609239Y-69734059D01*
X186599500Y-69832944D01*
X163455591Y-69832944D01*
X163393626Y-69791541D01*
X163307598Y-69734059D01*
X163116420Y-69654870D01*
X163116412Y-69654868D01*
X162913469Y-69614500D01*
X162913465Y-69614500D01*
X162706535Y-69614500D01*
X162706530Y-69614500D01*
X162503587Y-69654868D01*
X162503579Y-69654870D01*
X162312403Y-69734058D01*
X162140342Y-69849024D01*
X161994024Y-69995342D01*
X161879058Y-70167403D01*
X161799870Y-70358579D01*
X161799868Y-70358587D01*
X161759500Y-70561530D01*
X161320499Y-70561530D01*
X161280130Y-70358580D01*
X161200941Y-70167402D01*
X161085977Y-69995345D01*
X161085975Y-69995342D01*
X160939657Y-69849024D01*
X160853626Y-69791541D01*
X160767598Y-69734059D01*
X160576420Y-69654870D01*
X160576412Y-69654868D01*
X160373469Y-69614500D01*
X160373465Y-69614500D01*
X160166535Y-69614500D01*
X160166530Y-69614500D01*
X159963587Y-69654868D01*
X159963579Y-69654870D01*
X159772403Y-69734058D01*
X159600342Y-69849024D01*
X159454024Y-69995342D01*
X159339058Y-70167403D01*
X159259870Y-70358579D01*
X159259868Y-70358587D01*
X159219500Y-70561530D01*
X158780499Y-70561530D01*
X158740130Y-70358580D01*
X158660941Y-70167402D01*
X158545977Y-69995345D01*
X158545975Y-69995342D01*
X158399657Y-69849024D01*
X158313626Y-69791541D01*
X158227598Y-69734059D01*
X158036420Y-69654870D01*
X158036412Y-69654868D01*
X157833469Y-69614500D01*
X157833465Y-69614500D01*
X157626535Y-69614500D01*
X157626530Y-69614500D01*
X157423587Y-69654868D01*
X157423579Y-69654870D01*
X157232403Y-69734058D01*
X157060342Y-69849024D01*
X156914024Y-69995342D01*
X156799058Y-70167403D01*
X156719870Y-70358579D01*
X156719868Y-70358587D01*
X156679500Y-70561530D01*
X156240499Y-70561530D01*
X156200130Y-70358580D01*
X156120941Y-70167402D01*
X156005977Y-69995345D01*
X156005975Y-69995342D01*
X155859657Y-69849024D01*
X155773626Y-69791541D01*
X155687598Y-69734059D01*
X155496420Y-69654870D01*
X155496412Y-69654868D01*
X155293469Y-69614500D01*
X155293465Y-69614500D01*
X155086535Y-69614500D01*
X155086530Y-69614500D01*
X154883587Y-69654868D01*
X154883579Y-69654870D01*
X154692403Y-69734058D01*
X154520342Y-69849024D01*
X154374024Y-69995342D01*
X154259058Y-70167403D01*
X154179870Y-70358579D01*
X154179868Y-70358587D01*
X154139500Y-70561530D01*
X140414815Y-70561530D01*
X140508583Y-70467762D01*
X140695260Y-70281084D01*
X140695260Y-70281083D01*
X140219692Y-69805516D01*
X140295161Y-69761945D01*
X140388253Y-69668853D01*
X140431824Y-69593384D01*
X140907391Y-70068952D01*
X140907392Y-70068952D01*
X141434035Y-69542309D01*
X141434045Y-69542298D01*
X141449720Y-69522509D01*
X141490236Y-69417926D01*
X141490236Y-69305766D01*
X141449718Y-69201180D01*
X141434043Y-69181389D01*
X141434039Y-69181385D01*
X140907392Y-68654739D01*
X140907391Y-68654739D01*
X140431824Y-69130306D01*
X140388253Y-69054839D01*
X140295161Y-68961747D01*
X140219692Y-68918175D01*
X140695260Y-68442607D01*
X140274183Y-68021530D01*
X154139500Y-68021530D01*
X154139500Y-68228469D01*
X154179868Y-68431412D01*
X154179870Y-68431420D01*
X154259058Y-68622596D01*
X154374024Y-68794657D01*
X154520342Y-68940975D01*
X154520345Y-68940977D01*
X154692402Y-69055941D01*
X154883580Y-69135130D01*
X155028052Y-69163867D01*
X155086530Y-69175499D01*
X155086534Y-69175500D01*
X155086535Y-69175500D01*
X155293466Y-69175500D01*
X155293467Y-69175499D01*
X155496420Y-69135130D01*
X155687598Y-69055941D01*
X155859655Y-68940977D01*
X156005977Y-68794655D01*
X156120941Y-68622598D01*
X156200130Y-68431420D01*
X156240500Y-68228465D01*
X156240500Y-68021535D01*
X156240499Y-68021530D01*
X156679500Y-68021530D01*
X156679500Y-68228469D01*
X156719868Y-68431412D01*
X156719870Y-68431420D01*
X156799058Y-68622596D01*
X156914024Y-68794657D01*
X157060342Y-68940975D01*
X157060345Y-68940977D01*
X157232402Y-69055941D01*
X157423580Y-69135130D01*
X157568052Y-69163867D01*
X157626530Y-69175499D01*
X157626534Y-69175500D01*
X157626535Y-69175500D01*
X157833466Y-69175500D01*
X157833467Y-69175499D01*
X158036420Y-69135130D01*
X158227598Y-69055941D01*
X158399655Y-68940977D01*
X158545977Y-68794655D01*
X158660941Y-68622598D01*
X158740130Y-68431420D01*
X158780500Y-68228465D01*
X158780500Y-68021535D01*
X158780499Y-68021530D01*
X159219500Y-68021530D01*
X159219500Y-68228469D01*
X159259868Y-68431412D01*
X159259870Y-68431420D01*
X159339058Y-68622596D01*
X159454024Y-68794657D01*
X159600342Y-68940975D01*
X159600345Y-68940977D01*
X159772402Y-69055941D01*
X159963580Y-69135130D01*
X160108052Y-69163867D01*
X160166530Y-69175499D01*
X160166534Y-69175500D01*
X160166535Y-69175500D01*
X160373466Y-69175500D01*
X160373467Y-69175499D01*
X160576420Y-69135130D01*
X160767598Y-69055941D01*
X160939655Y-68940977D01*
X161085977Y-68794655D01*
X161200941Y-68622598D01*
X161280130Y-68431420D01*
X161320500Y-68228465D01*
X161320500Y-68021535D01*
X161280130Y-67818580D01*
X161200941Y-67627402D01*
X161085977Y-67455345D01*
X161085975Y-67455342D01*
X160939657Y-67309024D01*
X160859173Y-67255247D01*
X161759500Y-67255247D01*
X161759500Y-68994752D01*
X161771131Y-69053229D01*
X161771132Y-69053230D01*
X161815447Y-69119552D01*
X161881769Y-69163867D01*
X161881770Y-69163868D01*
X161940247Y-69175499D01*
X161940250Y-69175500D01*
X161940252Y-69175500D01*
X163679750Y-69175500D01*
X163679751Y-69175499D01*
X163694568Y-69172552D01*
X163738229Y-69163868D01*
X163738229Y-69163867D01*
X163738231Y-69163867D01*
X163804552Y-69119552D01*
X163848867Y-69053231D01*
X163848867Y-69053229D01*
X163848868Y-69053229D01*
X163860499Y-68994752D01*
X163860500Y-68994750D01*
X163860500Y-67720730D01*
X177749500Y-67720730D01*
X177749500Y-69079269D01*
X177752353Y-69109699D01*
X177752353Y-69109701D01*
X177797206Y-69237880D01*
X177797207Y-69237882D01*
X177877850Y-69347150D01*
X177987118Y-69427793D01*
X178029845Y-69442744D01*
X178115299Y-69472646D01*
X178145730Y-69475500D01*
X178145734Y-69475500D01*
X178954270Y-69475500D01*
X178984699Y-69472646D01*
X178984701Y-69472646D01*
X179048790Y-69450219D01*
X179112882Y-69427793D01*
X179222150Y-69347150D01*
X179302793Y-69237882D01*
X179338747Y-69135131D01*
X179347646Y-69109701D01*
X179347646Y-69109699D01*
X179350500Y-69079269D01*
X179350500Y-68046153D01*
X179749500Y-68046153D01*
X179749500Y-68753846D01*
X179780261Y-68908489D01*
X179780264Y-68908501D01*
X179840602Y-69054172D01*
X179840609Y-69054185D01*
X179928210Y-69185288D01*
X179928213Y-69185292D01*
X180039707Y-69296786D01*
X180039711Y-69296789D01*
X180170814Y-69384390D01*
X180170827Y-69384397D01*
X180275596Y-69427793D01*
X180316503Y-69444737D01*
X180456810Y-69472646D01*
X180471153Y-69475499D01*
X180471156Y-69475500D01*
X180471158Y-69475500D01*
X180628844Y-69475500D01*
X180628845Y-69475499D01*
X180783497Y-69444737D01*
X180929179Y-69384394D01*
X181060289Y-69296789D01*
X181171789Y-69185289D01*
X181259394Y-69054179D01*
X181259788Y-69053229D01*
X181319735Y-68908501D01*
X181319737Y-68908497D01*
X181350500Y-68753842D01*
X181350500Y-68046158D01*
X181350500Y-68046155D01*
X181350499Y-68046153D01*
X181335724Y-67971876D01*
X181319737Y-67891503D01*
X181319735Y-67891498D01*
X181259397Y-67745827D01*
X181259390Y-67745814D01*
X181171789Y-67614711D01*
X181171786Y-67614707D01*
X181060292Y-67503213D01*
X181060288Y-67503210D01*
X180929185Y-67415609D01*
X180929172Y-67415602D01*
X180783501Y-67355264D01*
X180783489Y-67355261D01*
X180628845Y-67324500D01*
X180628842Y-67324500D01*
X180471158Y-67324500D01*
X180471155Y-67324500D01*
X180316510Y-67355261D01*
X180316498Y-67355264D01*
X180170827Y-67415602D01*
X180170814Y-67415609D01*
X180039711Y-67503210D01*
X180039707Y-67503213D01*
X179928213Y-67614707D01*
X179928210Y-67614711D01*
X179840609Y-67745814D01*
X179840602Y-67745827D01*
X179780264Y-67891498D01*
X179780261Y-67891510D01*
X179749500Y-68046153D01*
X179350500Y-68046153D01*
X179350500Y-67720730D01*
X179347646Y-67690300D01*
X179347646Y-67690298D01*
X179302793Y-67562119D01*
X179302792Y-67562117D01*
X179259319Y-67503213D01*
X179222150Y-67452850D01*
X179112882Y-67372207D01*
X179112880Y-67372206D01*
X178984700Y-67327353D01*
X178954270Y-67324500D01*
X178954266Y-67324500D01*
X178145734Y-67324500D01*
X178145730Y-67324500D01*
X178115300Y-67327353D01*
X178115298Y-67327353D01*
X177987119Y-67372206D01*
X177987117Y-67372207D01*
X177877850Y-67452850D01*
X177797207Y-67562117D01*
X177797206Y-67562119D01*
X177752353Y-67690298D01*
X177752353Y-67690300D01*
X177749500Y-67720730D01*
X163860500Y-67720730D01*
X163860500Y-67255249D01*
X163860499Y-67255247D01*
X163848868Y-67196770D01*
X163848867Y-67196769D01*
X163804552Y-67130447D01*
X163738230Y-67086132D01*
X163738229Y-67086131D01*
X163679752Y-67074500D01*
X163679748Y-67074500D01*
X161940252Y-67074500D01*
X161940247Y-67074500D01*
X161881770Y-67086131D01*
X161881769Y-67086132D01*
X161815447Y-67130447D01*
X161771132Y-67196769D01*
X161771131Y-67196770D01*
X161759500Y-67255247D01*
X160859173Y-67255247D01*
X160771655Y-67196770D01*
X160767598Y-67194059D01*
X160576420Y-67114870D01*
X160576412Y-67114868D01*
X160373469Y-67074500D01*
X160373465Y-67074500D01*
X160166535Y-67074500D01*
X160166530Y-67074500D01*
X159963587Y-67114868D01*
X159963579Y-67114870D01*
X159772403Y-67194058D01*
X159600342Y-67309024D01*
X159454024Y-67455342D01*
X159339058Y-67627403D01*
X159259870Y-67818579D01*
X159259868Y-67818587D01*
X159219500Y-68021530D01*
X158780499Y-68021530D01*
X158740130Y-67818580D01*
X158660941Y-67627402D01*
X158545977Y-67455345D01*
X158545975Y-67455342D01*
X158399657Y-67309024D01*
X158231655Y-67196770D01*
X158227598Y-67194059D01*
X158036420Y-67114870D01*
X158036412Y-67114868D01*
X157833469Y-67074500D01*
X157833465Y-67074500D01*
X157626535Y-67074500D01*
X157626530Y-67074500D01*
X157423587Y-67114868D01*
X157423579Y-67114870D01*
X157232403Y-67194058D01*
X157060342Y-67309024D01*
X156914024Y-67455342D01*
X156799058Y-67627403D01*
X156719870Y-67818579D01*
X156719868Y-67818587D01*
X156679500Y-68021530D01*
X156240499Y-68021530D01*
X156200130Y-67818580D01*
X156120941Y-67627402D01*
X156005977Y-67455345D01*
X156005975Y-67455342D01*
X155859657Y-67309024D01*
X155691655Y-67196770D01*
X155687598Y-67194059D01*
X155496420Y-67114870D01*
X155496412Y-67114868D01*
X155293469Y-67074500D01*
X155293465Y-67074500D01*
X155086535Y-67074500D01*
X155086530Y-67074500D01*
X154883587Y-67114868D01*
X154883579Y-67114870D01*
X154692403Y-67194058D01*
X154520342Y-67309024D01*
X154374024Y-67455342D01*
X154259058Y-67627403D01*
X154179870Y-67818579D01*
X154179868Y-67818587D01*
X154139500Y-68021530D01*
X140274183Y-68021530D01*
X140168617Y-67915964D01*
X140168606Y-67915954D01*
X140148817Y-67900279D01*
X140044235Y-67859764D01*
X139932074Y-67859764D01*
X139827488Y-67900281D01*
X139807697Y-67915956D01*
X139807693Y-67915960D01*
X139281047Y-68442607D01*
X139756615Y-68918175D01*
X139681147Y-68961747D01*
X139588055Y-69054839D01*
X139544483Y-69130307D01*
X139068915Y-68654739D01*
X139068914Y-68654739D01*
X138542270Y-69181383D01*
X138526587Y-69201182D01*
X138486072Y-69305765D01*
X133329028Y-69305765D01*
X133302574Y-69172770D01*
X133302571Y-69172758D01*
X133302570Y-69172755D01*
X133302569Y-69172749D01*
X133205582Y-68853024D01*
X133077723Y-68544346D01*
X132920224Y-68249685D01*
X132734601Y-67971882D01*
X132522643Y-67713610D01*
X132522642Y-67713609D01*
X132522638Y-67713604D01*
X132286395Y-67477361D01*
X132028123Y-67265403D01*
X132028122Y-67265402D01*
X132028118Y-67265399D01*
X131750315Y-67079776D01*
X131750310Y-67079773D01*
X131750303Y-67079769D01*
X131455661Y-66922280D01*
X131455656Y-66922278D01*
X131146977Y-66794418D01*
X130827241Y-66697428D01*
X130827230Y-66697425D01*
X130499565Y-66632250D01*
X130499548Y-66632247D01*
X130248108Y-66607483D01*
X130167056Y-66599500D01*
X129832944Y-66599500D01*
X129757982Y-66606883D01*
X129500451Y-66632247D01*
X129500434Y-66632250D01*
X129172769Y-66697425D01*
X129172758Y-66697428D01*
X128853022Y-66794418D01*
X128544343Y-66922278D01*
X128544338Y-66922280D01*
X128249696Y-67079769D01*
X128249678Y-67079780D01*
X127971890Y-67265393D01*
X127971876Y-67265403D01*
X127713604Y-67477361D01*
X127477361Y-67713604D01*
X127265403Y-67971876D01*
X127265393Y-67971890D01*
X127079780Y-68249678D01*
X127079769Y-68249696D01*
X126922280Y-68544338D01*
X126922278Y-68544343D01*
X126794418Y-68853022D01*
X126697428Y-69172758D01*
X126697425Y-69172769D01*
X126632250Y-69500434D01*
X126632247Y-69500451D01*
X126609239Y-69734059D01*
X126599500Y-69832944D01*
X126300500Y-69832944D01*
X126300500Y-66424500D01*
X126320185Y-66357461D01*
X126372989Y-66311706D01*
X126424500Y-66300500D01*
X193575500Y-66300500D01*
X193642539Y-66320185D01*
G37*
%TD.AperFunction*%
%TD*%
%TA.AperFunction,Conductor*%
%TO.N,+5V*%
G36*
X163943039Y-78019685D02*
G01*
X163988794Y-78072489D01*
X164000000Y-78124000D01*
X164000000Y-90852435D01*
X164000000Y-90852436D01*
X172125965Y-90850036D01*
X172193009Y-90869701D01*
X172238779Y-90922491D01*
X172250000Y-90974036D01*
X172250000Y-103268595D01*
X172233389Y-103330591D01*
X172230201Y-103336114D01*
X172199500Y-103450691D01*
X172199500Y-103569309D01*
X172230201Y-103683886D01*
X172233386Y-103689403D01*
X172250000Y-103751403D01*
X172250000Y-105726032D01*
X172230315Y-105793071D01*
X172177511Y-105838826D01*
X172126033Y-105850032D01*
X153924033Y-105854838D01*
X153856988Y-105835171D01*
X153811219Y-105782379D01*
X153800000Y-105730838D01*
X153800000Y-104803191D01*
X165549500Y-104803191D01*
X165549500Y-104921809D01*
X165580201Y-105036386D01*
X165639511Y-105139113D01*
X165723387Y-105222989D01*
X165826114Y-105282299D01*
X165940691Y-105313000D01*
X165940694Y-105313000D01*
X166059306Y-105313000D01*
X166059309Y-105313000D01*
X166173886Y-105282299D01*
X166276613Y-105222989D01*
X166360489Y-105139113D01*
X166419799Y-105036386D01*
X166450500Y-104921809D01*
X166450500Y-104803191D01*
X166419799Y-104688614D01*
X166360489Y-104585887D01*
X166276613Y-104502011D01*
X166173886Y-104442701D01*
X166059309Y-104412000D01*
X165940691Y-104412000D01*
X165826114Y-104442701D01*
X165826112Y-104442701D01*
X165826112Y-104442702D01*
X165723387Y-104502011D01*
X165723384Y-104502013D01*
X165639513Y-104585884D01*
X165639511Y-104585887D01*
X165580201Y-104688614D01*
X165549500Y-104803191D01*
X153800000Y-104803191D01*
X153800000Y-103290691D01*
X165579500Y-103290691D01*
X165579500Y-103409309D01*
X165610201Y-103523886D01*
X165669511Y-103626613D01*
X165753387Y-103710489D01*
X165856114Y-103769799D01*
X165970691Y-103800500D01*
X165970694Y-103800500D01*
X166089306Y-103800500D01*
X166089309Y-103800500D01*
X166203886Y-103769799D01*
X166306613Y-103710489D01*
X166390489Y-103626613D01*
X166449799Y-103523886D01*
X166480500Y-103409309D01*
X166480500Y-103290691D01*
X166449799Y-103176114D01*
X166390489Y-103073387D01*
X166306613Y-102989511D01*
X166203886Y-102930201D01*
X166089309Y-102899500D01*
X165970691Y-102899500D01*
X165856114Y-102930201D01*
X165856112Y-102930201D01*
X165856112Y-102930202D01*
X165753387Y-102989511D01*
X165753384Y-102989513D01*
X165669513Y-103073384D01*
X165669511Y-103073387D01*
X165610201Y-103176114D01*
X165579500Y-103290691D01*
X153800000Y-103290691D01*
X153800000Y-101978871D01*
X153819685Y-101911832D01*
X153872489Y-101866077D01*
X153924000Y-101854871D01*
X158949999Y-101854871D01*
X158950000Y-101854871D01*
X158975247Y-89809205D01*
X158995071Y-89742214D01*
X159037244Y-89702086D01*
X159126613Y-89650489D01*
X159210489Y-89566613D01*
X159269799Y-89463886D01*
X159300500Y-89349309D01*
X159300500Y-89230691D01*
X159269799Y-89116114D01*
X159210489Y-89013387D01*
X159126613Y-88929511D01*
X159039421Y-88879170D01*
X158991206Y-88828604D01*
X158977422Y-88771527D01*
X158999741Y-78123740D01*
X159019566Y-78056742D01*
X159072466Y-78011098D01*
X159123741Y-78000000D01*
X163876000Y-78000000D01*
X163943039Y-78019685D01*
G37*
%TD.AperFunction*%
%TD*%
M02*
