%TF.GenerationSoftware,KiCad,Pcbnew,9.0.7*%
%TF.CreationDate,2026-03-26T14:30:28+01:00*%
%TF.ProjectId,pcb_pcBOT,7063625f-7063-4424-9f54-2e6b69636164,rev?*%
%TF.SameCoordinates,Original*%
%TF.FileFunction,Copper,L4,Bot*%
%TF.FilePolarity,Positive*%
%FSLAX46Y46*%
G04 Gerber Fmt 4.6, Leading zero omitted, Abs format (unit mm)*
G04 Created by KiCad (PCBNEW 9.0.7) date 2026-03-26 14:30:28*
%MOMM*%
%LPD*%
G01*
G04 APERTURE LIST*
G04 Aperture macros list*
%AMRoundRect*
0 Rectangle with rounded corners*
0 $1 Rounding radius*
0 $2 $3 $4 $5 $6 $7 $8 $9 X,Y pos of 4 corners*
0 Add a 4 corners polygon primitive as box body*
4,1,4,$2,$3,$4,$5,$6,$7,$8,$9,$2,$3,0*
0 Add four circle primitives for the rounded corners*
1,1,$1+$1,$2,$3*
1,1,$1+$1,$4,$5*
1,1,$1+$1,$6,$7*
1,1,$1+$1,$8,$9*
0 Add four rect primitives between the rounded corners*
20,1,$1+$1,$2,$3,$4,$5,0*
20,1,$1+$1,$4,$5,$6,$7,0*
20,1,$1+$1,$6,$7,$8,$9,0*
20,1,$1+$1,$8,$9,$2,$3,0*%
%AMRotRect*
0 Rectangle, with rotation*
0 The origin of the aperture is its center*
0 $1 length*
0 $2 width*
0 $3 Rotation angle, in degrees counterclockwise*
0 Add horizontal line*
21,1,$1,$2,0,0,$3*%
%AMFreePoly0*
4,1,6,1.000000,0.000000,0.500000,-0.750000,-0.500000,-0.750000,-0.500000,0.750000,0.500000,0.750000,1.000000,0.000000,1.000000,0.000000,$1*%
%AMFreePoly1*
4,1,6,0.500000,-0.750000,-0.650000,-0.750000,-0.150000,0.000000,-0.650000,0.750000,0.500000,0.750000,0.500000,-0.750000,0.500000,-0.750000,$1*%
G04 Aperture macros list end*
%TA.AperFunction,ComponentPad*%
%ADD10RoundRect,0.250000X0.350000X0.625000X-0.350000X0.625000X-0.350000X-0.625000X0.350000X-0.625000X0*%
%TD*%
%TA.AperFunction,ComponentPad*%
%ADD11O,1.200000X1.750000*%
%TD*%
%TA.AperFunction,ComponentPad*%
%ADD12C,0.800000*%
%TD*%
%TA.AperFunction,ComponentPad*%
%ADD13C,6.400000*%
%TD*%
%TA.AperFunction,ComponentPad*%
%ADD14RotRect,1.700000X1.700000X45.000000*%
%TD*%
%TA.AperFunction,ComponentPad*%
%ADD15C,1.700000*%
%TD*%
%TA.AperFunction,ComponentPad*%
%ADD16R,1.700000X1.700000*%
%TD*%
%TA.AperFunction,ComponentPad*%
%ADD17C,2.000000*%
%TD*%
%TA.AperFunction,ComponentPad*%
%ADD18RotRect,1.700000X1.700000X315.000000*%
%TD*%
%TA.AperFunction,ComponentPad*%
%ADD19RoundRect,0.250000X-0.350000X-0.625000X0.350000X-0.625000X0.350000X0.625000X-0.350000X0.625000X0*%
%TD*%
%TA.AperFunction,HeatsinkPad*%
%ADD20R,2.700000X2.700000*%
%TD*%
%TA.AperFunction,HeatsinkPad*%
%ADD21R,4.100000X2.500000*%
%TD*%
%TA.AperFunction,HeatsinkPad*%
%ADD22O,2.100000X1.000000*%
%TD*%
%TA.AperFunction,HeatsinkPad*%
%ADD23O,1.800000X1.000000*%
%TD*%
%TA.AperFunction,SMDPad,CuDef*%
%ADD24RoundRect,0.135000X-0.135000X-0.185000X0.135000X-0.185000X0.135000X0.185000X-0.135000X0.185000X0*%
%TD*%
%TA.AperFunction,SMDPad,CuDef*%
%ADD25FreePoly0,180.000000*%
%TD*%
%TA.AperFunction,SMDPad,CuDef*%
%ADD26FreePoly1,180.000000*%
%TD*%
%TA.AperFunction,ViaPad*%
%ADD27C,0.450000*%
%TD*%
%TA.AperFunction,Conductor*%
%ADD28C,0.500000*%
%TD*%
%TA.AperFunction,Conductor*%
%ADD29C,0.300000*%
%TD*%
%TA.AperFunction,Conductor*%
%ADD30C,0.200000*%
%TD*%
G04 APERTURE END LIST*
D10*
%TO.P,Moteur701,1,Pin_1*%
%TO.N,Net-(Moteur701-Pin_1)*%
X150800000Y-120500000D03*
D11*
%TO.P,Moteur701,2,Pin_2*%
%TO.N,Net-(Moteur701-Pin_2)*%
X148800000Y-120500000D03*
%TD*%
D12*
%TO.P,H104,1,1*%
%TO.N,GND*%
X127600000Y-120000000D03*
X128302944Y-118302944D03*
X128302944Y-121697056D03*
X130000000Y-117600000D03*
D13*
X130000000Y-120000000D03*
D12*
X130000000Y-122400000D03*
X131697056Y-118302944D03*
X131697056Y-121697056D03*
X132400000Y-120000000D03*
%TD*%
D14*
%TO.P,J503,1,Pin_1*%
%TO.N,VDD*%
X131069744Y-109869744D03*
D15*
%TO.P,J503,2,Pin_2*%
%TO.N,GND*%
X132865795Y-111665795D03*
%TO.P,J503,3,Pin_3*%
%TO.N,/I2C_BUS.I2C_SCL*%
X134661846Y-113461846D03*
%TO.P,J503,4,Pin_4*%
%TO.N,/I2C_BUS.I2C_SDA*%
X136457898Y-115257898D03*
%TO.P,J503,5,Pin_5*%
%TO.N,/capteur tof/TOF_INT3*%
X138253949Y-117053949D03*
%TO.P,J503,6,Pin_6*%
%TO.N,/capteur tof/XSHUT3*%
X140050000Y-118850000D03*
%TD*%
D16*
%TO.P,J501,1,Pin_1*%
%TO.N,VDD*%
X131350000Y-87075000D03*
D15*
%TO.P,J501,2,Pin_2*%
%TO.N,GND*%
X131350000Y-89615000D03*
%TO.P,J501,3,Pin_3*%
%TO.N,/I2C_BUS.I2C_SCL*%
X131350000Y-92155000D03*
%TO.P,J501,4,Pin_4*%
%TO.N,/I2C_BUS.I2C_SDA*%
X131350000Y-94695000D03*
%TO.P,J501,5,Pin_5*%
%TO.N,/capteur tof/TOF_INT1*%
X131350000Y-97235000D03*
%TO.P,J501,6,Pin_6*%
%TO.N,/capteur tof/XSHUT1*%
X131350000Y-99775000D03*
%TD*%
D17*
%TO.P,SW201,1,1*%
%TO.N,/bms/~{QON}*%
X187800000Y-81700000D03*
X187800000Y-75200000D03*
%TO.P,SW201,2,2*%
%TO.N,GND*%
X192300000Y-81700000D03*
X192300000Y-75200000D03*
%TD*%
D18*
%TO.P,J502,1,Pin_1*%
%TO.N,VDD*%
X139988154Y-69361846D03*
D15*
%TO.P,J502,2,Pin_2*%
%TO.N,GND*%
X138192103Y-71157897D03*
%TO.P,J502,3,Pin_3*%
%TO.N,/I2C_BUS.I2C_SCL*%
X136396052Y-72953948D03*
%TO.P,J502,4,Pin_4*%
%TO.N,/I2C_BUS.I2C_SDA*%
X134600000Y-74750000D03*
%TO.P,J502,5,Pin_5*%
%TO.N,/capteur tof/TOF_INT2*%
X132803949Y-76546051D03*
%TO.P,J502,6,Pin_6*%
%TO.N,/capteur tof/XSHUT2*%
X131007898Y-78342102D03*
%TD*%
D12*
%TO.P,H101,1,1*%
%TO.N,GND*%
X127600000Y-70000000D03*
X128302944Y-68302944D03*
X128302944Y-71697056D03*
X130000000Y-67600000D03*
D13*
X130000000Y-70000000D03*
D12*
X130000000Y-72400000D03*
X131697056Y-68302944D03*
X131697056Y-71697056D03*
X132400000Y-70000000D03*
%TD*%
%TO.P,H103,1,1*%
%TO.N,GND*%
X187600000Y-120000000D03*
X188302944Y-118302944D03*
X188302944Y-121697056D03*
X190000000Y-117600000D03*
D13*
X190000000Y-120000000D03*
D12*
X190000000Y-122400000D03*
X191697056Y-118302944D03*
X191697056Y-121697056D03*
X192400000Y-120000000D03*
%TD*%
%TO.P,H102,1,1*%
%TO.N,GND*%
X187600000Y-70000000D03*
X188302944Y-68302944D03*
X188302944Y-71697056D03*
X190000000Y-67600000D03*
D13*
X190000000Y-70000000D03*
D12*
X190000000Y-72400000D03*
X191697056Y-68302944D03*
X191697056Y-71697056D03*
X192400000Y-70000000D03*
%TD*%
D19*
%TO.P,J201,1,Pin_1*%
%TO.N,/bms/BAT*%
X178550000Y-68400000D03*
D11*
%TO.P,J201,2,Pin_2*%
%TO.N,GND*%
X180550000Y-68400000D03*
%TD*%
D20*
%TO.P,U201,25,PGND*%
%TO.N,GND*%
X170750000Y-83787500D03*
%TD*%
D16*
%TO.P,J802,1,Pin_1*%
%TO.N,GND*%
X162810000Y-68125000D03*
D15*
%TO.P,J802,2,Pin_2*%
%TO.N,Net-(J802-Pin_2)*%
X162810000Y-70665000D03*
%TO.P,J802,3,Pin_3*%
%TO.N,/nrf24l01/CE_NRF*%
X160270000Y-68125000D03*
%TO.P,J802,4,Pin_4*%
%TO.N,/nrf24l01/CSN_NRF*%
X160270000Y-70665000D03*
%TO.P,J802,5,Pin_5*%
%TO.N,/SPI_BUS.SCK_NRF*%
X157730000Y-68125000D03*
%TO.P,J802,6,Pin_6*%
%TO.N,/SPI_BUS.MOSI_NRF*%
X157730000Y-70665000D03*
%TO.P,J802,7,Pin_7*%
%TO.N,/SPI_BUS.MISO_NRF*%
X155190000Y-68125000D03*
%TO.P,J802,8,Pin_8*%
%TO.N,/nrf24l01/IRQ_NRF*%
X155190000Y-70665000D03*
%TD*%
D10*
%TO.P,Moteur702,1,Pin_1*%
%TO.N,Net-(Moteur702-Pin_1)*%
X157800000Y-120500000D03*
D11*
%TO.P,Moteur702,2,Pin_2*%
%TO.N,Net-(Moteur702-Pin_2)*%
X155800000Y-120500000D03*
%TD*%
D21*
%TO.P,U701,17,PPAD*%
%TO.N,GND*%
X154500000Y-107600000D03*
%TD*%
D17*
%TO.P,SW301,1,1*%
%TO.N,/stm32/NRST*%
X171900000Y-117550000D03*
X178400000Y-117550000D03*
%TO.P,SW301,2,2*%
%TO.N,GND*%
X171900000Y-122050000D03*
X178400000Y-122050000D03*
%TD*%
D22*
%TO.P,J202,S1,SHIELD*%
%TO.N,GND*%
X187245000Y-95670000D03*
D23*
X191425000Y-95670000D03*
D22*
X187245000Y-87030000D03*
D23*
X191425000Y-87030000D03*
%TD*%
D24*
%TO.P,R207,1*%
%TO.N,/bms/REGN*%
X170140000Y-76850000D03*
%TO.P,R207,2*%
%TO.N,/bms/TS*%
X171160000Y-76850000D03*
%TD*%
D25*
%TO.P,JP202,1,A*%
%TO.N,VBUS*%
X172000000Y-99750000D03*
D26*
%TO.P,JP202,2,B*%
%TO.N,Net-(JP202-B)*%
X170550000Y-99750000D03*
%TD*%
D25*
%TO.P,JP201,1,A*%
%TO.N,VBUS*%
X183225000Y-87500000D03*
D26*
%TO.P,JP201,2,B*%
%TO.N,/bms/VBUS_BQ25*%
X181775000Y-87500000D03*
%TD*%
D25*
%TO.P,JP203,1,A*%
%TO.N,/bms/SYS*%
X164825000Y-79175000D03*
D26*
%TO.P,JP203,2,B*%
%TO.N,+5V*%
X163375000Y-79175000D03*
%TD*%
D27*
%TO.N,GND*%
X151639376Y-99889376D03*
X173850000Y-91300000D03*
X165500000Y-94350000D03*
X155250000Y-74700000D03*
X147500000Y-82650000D03*
%TO.N,VBUS*%
X183500000Y-88000000D03*
X186670000Y-93750000D03*
X183620000Y-93750000D03*
X186670000Y-88950000D03*
X183500000Y-87000000D03*
%TO.N,GND*%
X146563000Y-95878000D03*
X146563000Y-94278000D03*
X152700000Y-106600000D03*
X166000000Y-104862500D03*
X154550000Y-86450000D03*
X169900000Y-80900000D03*
X172950000Y-81650000D03*
X168800000Y-80900000D03*
X170750000Y-84800000D03*
X165620000Y-108600000D03*
X171850000Y-83750000D03*
X164600000Y-84600000D03*
X169560000Y-78437500D03*
X155100000Y-106600000D03*
X155100000Y-107600000D03*
X169650000Y-82687500D03*
X144090000Y-95076750D03*
X155950000Y-101700000D03*
X172650000Y-78425000D03*
X188830000Y-83750000D03*
X154000000Y-108700000D03*
X190760000Y-97250000D03*
X155200000Y-108700000D03*
X156300000Y-106600000D03*
X192260000Y-85250000D03*
X191550000Y-102860000D03*
X163000000Y-106775000D03*
X191550000Y-105400000D03*
X166030000Y-103350000D03*
X155500000Y-86450000D03*
X169700000Y-118530000D03*
X170750000Y-83787500D03*
X144090000Y-94100000D03*
X170750000Y-82700000D03*
X156300000Y-108700000D03*
X169650000Y-84850000D03*
X171100000Y-78437500D03*
X175910000Y-105490000D03*
X171850000Y-82700000D03*
X176880000Y-82600000D03*
X186670000Y-88150000D03*
X191550000Y-106670000D03*
X154913000Y-90278000D03*
X152700000Y-108700000D03*
X154000000Y-106600000D03*
X158850000Y-89290000D03*
X186670000Y-94550000D03*
X172650000Y-103510000D03*
X156300000Y-107600000D03*
X168800000Y-81900000D03*
X164650000Y-86200000D03*
X171850000Y-84800000D03*
X152700000Y-107700000D03*
X183600000Y-94730000D03*
X177700000Y-103250000D03*
X153550000Y-86450000D03*
X169650000Y-83800000D03*
X176900000Y-83600000D03*
X154000000Y-107600000D03*
%TO.N,/bms/REGN*%
X165050000Y-83150000D03*
%TO.N,/bms/SYS*%
X165075000Y-79425000D03*
%TO.N,VDD*%
X154550000Y-87410000D03*
X151900000Y-111750000D03*
X128950000Y-100660000D03*
X151150000Y-83500000D03*
X138110624Y-109689376D03*
X176250000Y-85990000D03*
X155500000Y-87410000D03*
X138900000Y-110450000D03*
X166580000Y-108600000D03*
X160860000Y-110450000D03*
X166950000Y-107137500D03*
X153538000Y-88903000D03*
X129907197Y-76046803D03*
X164425000Y-73250000D03*
X128950000Y-96190000D03*
X131946573Y-74007427D03*
X135878752Y-118078752D03*
X191550000Y-107940000D03*
X177676702Y-104253298D03*
X174950000Y-105490000D03*
X139100000Y-121300000D03*
X153550000Y-87410000D03*
%TO.N,/stm32/NRST*%
X151138000Y-88903000D03*
X183341000Y-102891000D03*
%TO.N,+5V*%
X165050000Y-104862500D03*
X154825000Y-103700000D03*
X165070000Y-103350000D03*
X163000000Y-105225000D03*
X163250000Y-79250000D03*
X166950000Y-104862500D03*
%TO.N,/I2C_BUS.I2C_SCL*%
X134250000Y-92050000D03*
X175350000Y-88850000D03*
X137389376Y-110410624D03*
X157550000Y-91078000D03*
X165900000Y-88850000D03*
X139300000Y-74250000D03*
%TO.N,/I2C_BUS.I2C_SDA*%
X138178752Y-111171248D03*
X136150000Y-76450000D03*
X157500000Y-91878000D03*
X174750000Y-89500000D03*
X133450000Y-94200000D03*
X166250000Y-89750000D03*
%TO.N,/capteur tof/XSHUT3*%
X150950000Y-103150000D03*
X156350000Y-95900000D03*
%TO.N,/SPI_BUS.SCK_NRF*%
X144900000Y-87400000D03*
X144900000Y-91100000D03*
%TO.N,/SPI_BUS.MISO_NRF*%
X144900000Y-91900000D03*
X144099997Y-87400000D03*
%TO.N,/SPI_BUS.MOSI_NRF*%
X144900000Y-92700000D03*
X143299994Y-87400000D03*
%TO.N,/bms/VBUS_BQ25*%
X181500000Y-88000000D03*
X169400000Y-87000000D03*
X169400000Y-87900000D03*
X181500000Y-87000000D03*
%TO.N,Net-(JP202-B)*%
X170000000Y-90350000D03*
%TO.N,/bms/TS*%
X175800000Y-81500000D03*
%TO.N,/bms/INT_BMS*%
X176400000Y-89000000D03*
X176300000Y-92500000D03*
%TO.N,/bms/OTG_HOST*%
X157500000Y-94278000D03*
X174500000Y-85100000D03*
%TO.N,/bms/~{CE}_HOST*%
X157500000Y-93450000D03*
X177500000Y-84800000D03*
%TO.N,VDD*%
X146225000Y-97925000D03*
X147938000Y-97253000D03*
%TD*%
D28*
%TO.N,VBUS*%
X173300000Y-99750000D02*
X172000000Y-99750000D01*
D29*
%TO.N,/bms/~{CE}_HOST*%
X177500000Y-83849943D02*
X177500000Y-84800000D01*
X177501000Y-83848943D02*
X177500000Y-83849943D01*
X177501000Y-83801000D02*
X177501000Y-83848943D01*
X177500000Y-83800000D02*
X177501000Y-83801000D01*
X177500000Y-80750000D02*
X177500000Y-83800000D01*
X172150000Y-75400000D02*
X177500000Y-80750000D01*
X163600000Y-75400000D02*
X172150000Y-75400000D01*
X161750000Y-90958521D02*
X161750000Y-77250000D01*
X160321000Y-92379000D02*
X160329521Y-92379000D01*
X160329521Y-92379000D02*
X161750000Y-90958521D01*
X161750000Y-77250000D02*
X163600000Y-75400000D01*
X159250000Y-93450000D02*
X160321000Y-92379000D01*
X157500000Y-93450000D02*
X159250000Y-93450000D01*
D28*
%TO.N,VBUS*%
X183150000Y-93750000D02*
X177150000Y-99750000D01*
X177150000Y-99750000D02*
X173300000Y-99750000D01*
X183620000Y-93750000D02*
X183150000Y-93750000D01*
%TO.N,/bms/REGN*%
X165050000Y-81670001D02*
X165050000Y-83150000D01*
X170140000Y-76850000D02*
X169870001Y-76850000D01*
X169870001Y-76850000D02*
X165050000Y-81670001D01*
D29*
%TO.N,/stm32/NRST*%
X169100000Y-114750000D02*
X153300000Y-114750000D01*
X171900000Y-117550000D02*
X169100000Y-114750000D01*
X153300000Y-114750000D02*
X148200000Y-109650000D01*
X151138000Y-97812000D02*
X151138000Y-88903000D01*
X148200000Y-100750000D02*
X151138000Y-97812000D01*
D28*
X183341000Y-102891000D02*
X183341000Y-112609000D01*
X183341000Y-112609000D02*
X178400000Y-117550000D01*
D29*
X148200000Y-109650000D02*
X148200000Y-100750000D01*
%TO.N,/I2C_BUS.I2C_SCL*%
X134250000Y-92050000D02*
X134250000Y-108830760D01*
X135829864Y-110410624D02*
X137389376Y-110410624D01*
X134250000Y-79300000D02*
X134250000Y-92050000D01*
X175350000Y-88850000D02*
X165900000Y-88850000D01*
X145200000Y-74250000D02*
X157550000Y-86600000D01*
X139300000Y-74250000D02*
X145200000Y-74250000D01*
X157550000Y-86600000D02*
X157550000Y-91078000D01*
X139300000Y-74250000D02*
X134250000Y-79300000D01*
X134250000Y-108830760D02*
X135829864Y-110410624D01*
%TO.N,/I2C_BUS.I2C_SDA*%
X166250000Y-89750000D02*
X166663673Y-89336327D01*
X133450000Y-108950000D02*
X135671248Y-111171248D01*
X133450000Y-94200000D02*
X133450000Y-108950000D01*
X145469654Y-73599000D02*
X139001000Y-73599000D01*
X133450000Y-94200000D02*
X133450000Y-79150000D01*
X174586327Y-89336327D02*
X174750000Y-89500000D01*
X135671248Y-111171248D02*
X138178752Y-111171248D01*
X160400000Y-88529346D02*
X145469654Y-73599000D01*
X133450000Y-79150000D02*
X136150000Y-76450000D01*
X166663673Y-89336327D02*
X174586327Y-89336327D01*
X159422000Y-91878000D02*
X160400000Y-90900000D01*
X160400000Y-90900000D02*
X160400000Y-88529346D01*
X139001000Y-73599000D02*
X136150000Y-76450000D01*
X157500000Y-91878000D02*
X159422000Y-91878000D01*
%TO.N,/capteur tof/XSHUT3*%
X156350000Y-95900000D02*
X156350000Y-97750000D01*
X156350000Y-97750000D02*
X150950000Y-103150000D01*
%TO.N,/SPI_BUS.SCK_NRF*%
X144900000Y-91100000D02*
X144900000Y-87400000D01*
%TO.N,/SPI_BUS.MISO_NRF*%
X144900000Y-91900000D02*
X144779346Y-91900000D01*
X144099997Y-91220651D02*
X144099997Y-87400000D01*
X144779346Y-91900000D02*
X144099997Y-91220651D01*
%TO.N,/SPI_BUS.MOSI_NRF*%
X144900000Y-92700000D02*
X144779346Y-92700000D01*
X144779346Y-92700000D02*
X143299994Y-91220648D01*
X143299994Y-91220648D02*
X143299994Y-87400000D01*
D30*
%TO.N,Net-(JP202-B)*%
X170000000Y-90350000D02*
X170000000Y-93400000D01*
X170000000Y-93400000D02*
X170550000Y-93950000D01*
X170550000Y-93950000D02*
X170550000Y-99750000D01*
D28*
%TO.N,/bms/TS*%
X171160000Y-76850000D02*
X172137075Y-76850000D01*
X175800000Y-80512925D02*
X175800000Y-81500000D01*
X172137075Y-76850000D02*
X175800000Y-80512925D01*
D29*
%TO.N,/bms/INT_BMS*%
X176400000Y-89000000D02*
X176400000Y-89100000D01*
X176450000Y-92350000D02*
X176300000Y-92500000D01*
X176400000Y-89100000D02*
X176450000Y-89150000D01*
X176450000Y-89150000D02*
X176450000Y-92350000D01*
%TO.N,/bms/OTG_HOST*%
X164814380Y-88095726D02*
X167412106Y-85498000D01*
X174102000Y-85498000D02*
X174500000Y-85100000D01*
X157528000Y-94250000D02*
X163200000Y-94250000D01*
X163200000Y-94250000D02*
X164814380Y-92635620D01*
X164814380Y-92635620D02*
X164814380Y-88095726D01*
X167412106Y-85498000D02*
X174102000Y-85498000D01*
X157500000Y-94278000D02*
X157528000Y-94250000D01*
%TD*%
%TA.AperFunction,Conductor*%
%TO.N,GND*%
G36*
X158105703Y-86731177D02*
G01*
X158112181Y-86737209D01*
X160013181Y-88638209D01*
X160046666Y-88699532D01*
X160049500Y-88725890D01*
X160049500Y-90703456D01*
X160029815Y-90770495D01*
X160013181Y-90791137D01*
X159313137Y-91491181D01*
X159251814Y-91524666D01*
X159225456Y-91527500D01*
X158025447Y-91527500D01*
X157958408Y-91507815D01*
X157912653Y-91455011D01*
X157902709Y-91385853D01*
X157918060Y-91341499D01*
X157919490Y-91339023D01*
X157969799Y-91251886D01*
X158000500Y-91137309D01*
X158000500Y-91018691D01*
X157969799Y-90904114D01*
X157938358Y-90849657D01*
X157917113Y-90812859D01*
X157900500Y-90750859D01*
X157900500Y-86824890D01*
X157920185Y-86757851D01*
X157972989Y-86712096D01*
X158042147Y-86702152D01*
X158105703Y-86731177D01*
G37*
%TD.AperFunction*%
%TA.AperFunction,Conductor*%
G36*
X193642539Y-66320185D02*
G01*
X193688294Y-66372989D01*
X193699500Y-66424500D01*
X193699500Y-74566679D01*
X193679815Y-74633718D01*
X193627011Y-74679473D01*
X193557853Y-74689417D01*
X193494297Y-74660392D01*
X193465015Y-74622974D01*
X193411859Y-74518650D01*
X193319963Y-74392167D01*
X193319963Y-74392166D01*
X192780273Y-74931857D01*
X192740110Y-74862292D01*
X192637708Y-74759890D01*
X192568141Y-74719726D01*
X193107832Y-74180035D01*
X193107831Y-74180033D01*
X192981359Y-74088147D01*
X192981350Y-74088141D01*
X192799031Y-73995244D01*
X192604417Y-73932009D01*
X192402317Y-73900000D01*
X192197683Y-73900000D01*
X191995582Y-73932009D01*
X191800968Y-73995244D01*
X191618647Y-74088142D01*
X191492167Y-74180034D01*
X191492167Y-74180035D01*
X192031858Y-74719726D01*
X191962292Y-74759890D01*
X191859890Y-74862292D01*
X191819726Y-74931858D01*
X191280035Y-74392167D01*
X191280034Y-74392167D01*
X191188142Y-74518647D01*
X191095244Y-74700968D01*
X191032009Y-74895582D01*
X191000000Y-75097682D01*
X191000000Y-75302317D01*
X191032009Y-75504417D01*
X191095244Y-75699031D01*
X191188141Y-75881350D01*
X191188147Y-75881359D01*
X191280033Y-76007831D01*
X191280035Y-76007832D01*
X191819726Y-75468141D01*
X191859890Y-75537708D01*
X191962292Y-75640110D01*
X192031857Y-75680273D01*
X191492166Y-76219963D01*
X191618650Y-76311859D01*
X191800968Y-76404755D01*
X191995582Y-76467990D01*
X192197683Y-76500000D01*
X192402317Y-76500000D01*
X192604417Y-76467990D01*
X192799031Y-76404755D01*
X192981349Y-76311859D01*
X193107831Y-76219963D01*
X193107832Y-76219963D01*
X192568141Y-75680273D01*
X192637708Y-75640110D01*
X192740110Y-75537708D01*
X192780273Y-75468141D01*
X193319963Y-76007832D01*
X193319963Y-76007831D01*
X193411861Y-75881347D01*
X193465015Y-75777026D01*
X193512989Y-75726229D01*
X193580810Y-75709434D01*
X193646945Y-75731971D01*
X193690397Y-75786686D01*
X193699500Y-75833320D01*
X193699500Y-81066679D01*
X193679815Y-81133718D01*
X193627011Y-81179473D01*
X193557853Y-81189417D01*
X193494297Y-81160392D01*
X193465015Y-81122974D01*
X193411859Y-81018650D01*
X193319963Y-80892167D01*
X193319963Y-80892166D01*
X192780273Y-81431857D01*
X192740110Y-81362292D01*
X192637708Y-81259890D01*
X192568141Y-81219726D01*
X193107832Y-80680035D01*
X193107831Y-80680033D01*
X192981359Y-80588147D01*
X192981350Y-80588141D01*
X192799031Y-80495244D01*
X192604417Y-80432009D01*
X192402317Y-80400000D01*
X192197683Y-80400000D01*
X191995582Y-80432009D01*
X191800968Y-80495244D01*
X191618647Y-80588142D01*
X191492167Y-80680034D01*
X191492167Y-80680035D01*
X192031858Y-81219726D01*
X191962292Y-81259890D01*
X191859890Y-81362292D01*
X191819726Y-81431858D01*
X191280035Y-80892167D01*
X191280034Y-80892167D01*
X191188142Y-81018647D01*
X191095244Y-81200968D01*
X191032009Y-81395582D01*
X191000000Y-81597682D01*
X191000000Y-81802317D01*
X191032009Y-82004417D01*
X191095244Y-82199031D01*
X191188141Y-82381350D01*
X191188147Y-82381359D01*
X191280033Y-82507831D01*
X191280035Y-82507832D01*
X191819726Y-81968141D01*
X191859890Y-82037708D01*
X191962292Y-82140110D01*
X192031857Y-82180273D01*
X191492166Y-82719963D01*
X191618650Y-82811859D01*
X191800968Y-82904755D01*
X191995582Y-82967990D01*
X192197683Y-83000000D01*
X192402317Y-83000000D01*
X192604417Y-82967990D01*
X192799031Y-82904755D01*
X192981349Y-82811859D01*
X193107831Y-82719963D01*
X193107832Y-82719963D01*
X192568141Y-82180273D01*
X192637708Y-82140110D01*
X192740110Y-82037708D01*
X192780273Y-81968141D01*
X193319963Y-82507832D01*
X193319963Y-82507831D01*
X193411861Y-82381347D01*
X193465015Y-82277026D01*
X193512989Y-82226229D01*
X193580810Y-82209434D01*
X193646945Y-82231971D01*
X193690397Y-82286686D01*
X193699500Y-82333320D01*
X193699500Y-123575500D01*
X193679815Y-123642539D01*
X193627011Y-123688294D01*
X193575500Y-123699500D01*
X126424500Y-123699500D01*
X126357461Y-123679815D01*
X126311706Y-123627011D01*
X126300500Y-123575500D01*
X126300500Y-121947682D01*
X170600000Y-121947682D01*
X170600000Y-122152317D01*
X170632009Y-122354417D01*
X170695244Y-122549031D01*
X170788141Y-122731350D01*
X170788147Y-122731359D01*
X170880033Y-122857831D01*
X170880035Y-122857832D01*
X171419726Y-122318141D01*
X171459890Y-122387708D01*
X171562292Y-122490110D01*
X171631857Y-122530273D01*
X171092166Y-123069963D01*
X171218650Y-123161859D01*
X171400968Y-123254755D01*
X171595582Y-123317990D01*
X171797683Y-123350000D01*
X172002317Y-123350000D01*
X172204417Y-123317990D01*
X172399031Y-123254755D01*
X172581349Y-123161859D01*
X172707831Y-123069963D01*
X172707832Y-123069963D01*
X172168141Y-122530273D01*
X172237708Y-122490110D01*
X172340110Y-122387708D01*
X172380273Y-122318142D01*
X172919963Y-122857832D01*
X172919963Y-122857831D01*
X173011859Y-122731349D01*
X173104755Y-122549031D01*
X173167990Y-122354417D01*
X173200000Y-122152317D01*
X173200000Y-121947682D01*
X177100000Y-121947682D01*
X177100000Y-122152317D01*
X177132009Y-122354417D01*
X177195244Y-122549031D01*
X177288141Y-122731350D01*
X177288147Y-122731359D01*
X177380033Y-122857831D01*
X177380035Y-122857832D01*
X177919726Y-122318141D01*
X177959890Y-122387708D01*
X178062292Y-122490110D01*
X178131857Y-122530273D01*
X177592166Y-123069963D01*
X177718650Y-123161859D01*
X177900968Y-123254755D01*
X178095582Y-123317990D01*
X178297683Y-123350000D01*
X178502317Y-123350000D01*
X178704417Y-123317990D01*
X178899031Y-123254755D01*
X179081349Y-123161859D01*
X179207831Y-123069963D01*
X179207832Y-123069963D01*
X178668141Y-122530273D01*
X178737708Y-122490110D01*
X178840110Y-122387708D01*
X178880273Y-122318142D01*
X179419963Y-122857832D01*
X179419963Y-122857831D01*
X179511859Y-122731349D01*
X179604755Y-122549031D01*
X179667990Y-122354417D01*
X179700000Y-122152317D01*
X179700000Y-121947682D01*
X179667990Y-121745582D01*
X179604755Y-121550968D01*
X179511859Y-121368650D01*
X179419963Y-121242167D01*
X179419963Y-121242166D01*
X178880273Y-121781857D01*
X178840110Y-121712292D01*
X178737708Y-121609890D01*
X178668141Y-121569726D01*
X179207832Y-121030035D01*
X179207831Y-121030033D01*
X179081359Y-120938147D01*
X179081350Y-120938141D01*
X178899031Y-120845244D01*
X178704417Y-120782009D01*
X178502317Y-120750000D01*
X178297683Y-120750000D01*
X178095582Y-120782009D01*
X177900968Y-120845244D01*
X177718647Y-120938142D01*
X177592167Y-121030034D01*
X177592167Y-121030035D01*
X178131858Y-121569726D01*
X178062292Y-121609890D01*
X177959890Y-121712292D01*
X177919726Y-121781858D01*
X177380035Y-121242167D01*
X177380034Y-121242167D01*
X177288142Y-121368647D01*
X177195244Y-121550968D01*
X177132009Y-121745582D01*
X177100000Y-121947682D01*
X173200000Y-121947682D01*
X173167990Y-121745582D01*
X173104755Y-121550968D01*
X173011859Y-121368650D01*
X172919963Y-121242167D01*
X172919963Y-121242166D01*
X172380273Y-121781857D01*
X172340110Y-121712292D01*
X172237708Y-121609890D01*
X172168141Y-121569726D01*
X172707832Y-121030035D01*
X172707831Y-121030034D01*
X172581359Y-120938147D01*
X172581350Y-120938141D01*
X172399031Y-120845244D01*
X172204417Y-120782009D01*
X172002317Y-120750000D01*
X171797683Y-120750000D01*
X171595582Y-120782009D01*
X171400968Y-120845244D01*
X171218647Y-120938142D01*
X171092167Y-121030034D01*
X171092167Y-121030035D01*
X171631858Y-121569726D01*
X171562292Y-121609890D01*
X171459890Y-121712292D01*
X171419726Y-121781858D01*
X170880035Y-121242167D01*
X170880034Y-121242167D01*
X170788142Y-121368647D01*
X170695244Y-121550968D01*
X170632009Y-121745582D01*
X170600000Y-121947682D01*
X126300500Y-121947682D01*
X126300500Y-121240691D01*
X138649500Y-121240691D01*
X138649500Y-121359309D01*
X138680201Y-121473886D01*
X138739511Y-121576613D01*
X138823387Y-121660489D01*
X138926114Y-121719799D01*
X139040691Y-121750500D01*
X139040694Y-121750500D01*
X139159306Y-121750500D01*
X139159309Y-121750500D01*
X139273886Y-121719799D01*
X139376613Y-121660489D01*
X139460489Y-121576613D01*
X139519799Y-121473886D01*
X139550500Y-121359309D01*
X139550500Y-121240691D01*
X139519799Y-121126114D01*
X139460489Y-121023387D01*
X139376613Y-120939511D01*
X139273886Y-120880201D01*
X139159309Y-120849500D01*
X139040691Y-120849500D01*
X138926114Y-120880201D01*
X138926112Y-120880201D01*
X138926112Y-120880202D01*
X138823387Y-120939511D01*
X138823384Y-120939513D01*
X138739513Y-121023384D01*
X138739511Y-121023387D01*
X138680201Y-121126114D01*
X138649500Y-121240691D01*
X126300500Y-121240691D01*
X126300500Y-120146153D01*
X147999500Y-120146153D01*
X147999500Y-120853846D01*
X148030261Y-121008489D01*
X148030264Y-121008501D01*
X148090602Y-121154172D01*
X148090609Y-121154185D01*
X148178210Y-121285288D01*
X148178213Y-121285292D01*
X148289707Y-121396786D01*
X148289711Y-121396789D01*
X148420814Y-121484390D01*
X148420827Y-121484397D01*
X148566498Y-121544735D01*
X148566503Y-121544737D01*
X148706810Y-121572646D01*
X148721153Y-121575499D01*
X148721156Y-121575500D01*
X148721158Y-121575500D01*
X148878844Y-121575500D01*
X148878845Y-121575499D01*
X149033497Y-121544737D01*
X149179179Y-121484394D01*
X149310289Y-121396789D01*
X149421789Y-121285289D01*
X149509394Y-121154179D01*
X149569737Y-121008497D01*
X149600500Y-120853842D01*
X149600500Y-120146158D01*
X149600500Y-120146155D01*
X149600499Y-120146153D01*
X149569738Y-119991510D01*
X149569737Y-119991503D01*
X149532043Y-119900500D01*
X149517474Y-119865327D01*
X149517458Y-119865289D01*
X149515321Y-119860130D01*
X149509394Y-119845821D01*
X149509391Y-119845816D01*
X149509390Y-119845814D01*
X149492629Y-119820730D01*
X149999500Y-119820730D01*
X149999500Y-121179269D01*
X150002353Y-121209699D01*
X150002353Y-121209701D01*
X150047206Y-121337880D01*
X150047207Y-121337882D01*
X150127850Y-121447150D01*
X150237118Y-121527793D01*
X150264808Y-121537482D01*
X150365299Y-121572646D01*
X150395730Y-121575500D01*
X150395734Y-121575500D01*
X151204270Y-121575500D01*
X151234699Y-121572646D01*
X151234701Y-121572646D01*
X151298790Y-121550219D01*
X151362882Y-121527793D01*
X151472150Y-121447150D01*
X151552793Y-121337882D01*
X151586285Y-121242167D01*
X151597646Y-121209701D01*
X151597646Y-121209699D01*
X151600500Y-121179269D01*
X151600500Y-120146153D01*
X154999500Y-120146153D01*
X154999500Y-120853846D01*
X155030261Y-121008489D01*
X155030264Y-121008501D01*
X155090602Y-121154172D01*
X155090609Y-121154185D01*
X155178210Y-121285288D01*
X155178213Y-121285292D01*
X155289707Y-121396786D01*
X155289711Y-121396789D01*
X155420814Y-121484390D01*
X155420827Y-121484397D01*
X155566498Y-121544735D01*
X155566503Y-121544737D01*
X155706810Y-121572646D01*
X155721153Y-121575499D01*
X155721156Y-121575500D01*
X155721158Y-121575500D01*
X155878844Y-121575500D01*
X155878845Y-121575499D01*
X156033497Y-121544737D01*
X156179179Y-121484394D01*
X156310289Y-121396789D01*
X156421789Y-121285289D01*
X156509394Y-121154179D01*
X156569737Y-121008497D01*
X156600500Y-120853842D01*
X156600500Y-120146158D01*
X156600500Y-120146155D01*
X156600499Y-120146153D01*
X156569738Y-119991510D01*
X156569737Y-119991503D01*
X156532043Y-119900500D01*
X156517474Y-119865327D01*
X156517458Y-119865289D01*
X156515321Y-119860130D01*
X156509394Y-119845821D01*
X156509391Y-119845816D01*
X156509390Y-119845814D01*
X156492629Y-119820730D01*
X156999500Y-119820730D01*
X156999500Y-121179269D01*
X157002353Y-121209699D01*
X157002353Y-121209701D01*
X157047206Y-121337880D01*
X157047207Y-121337882D01*
X157127850Y-121447150D01*
X157237118Y-121527793D01*
X157264808Y-121537482D01*
X157365299Y-121572646D01*
X157395730Y-121575500D01*
X157395734Y-121575500D01*
X158204270Y-121575500D01*
X158234699Y-121572646D01*
X158234701Y-121572646D01*
X158298790Y-121550219D01*
X158362882Y-121527793D01*
X158472150Y-121447150D01*
X158552793Y-121337882D01*
X158586285Y-121242167D01*
X158597646Y-121209701D01*
X158597646Y-121209699D01*
X158600500Y-121179269D01*
X158600500Y-119820730D01*
X158597646Y-119790300D01*
X158597646Y-119790298D01*
X158554143Y-119665977D01*
X158552793Y-119662118D01*
X158472150Y-119552850D01*
X158362882Y-119472207D01*
X158362880Y-119472206D01*
X158234700Y-119427353D01*
X158204270Y-119424500D01*
X158204266Y-119424500D01*
X157395734Y-119424500D01*
X157395730Y-119424500D01*
X157365300Y-119427353D01*
X157365298Y-119427353D01*
X157237119Y-119472206D01*
X157237117Y-119472207D01*
X157127850Y-119552850D01*
X157047207Y-119662117D01*
X157047206Y-119662119D01*
X157002353Y-119790298D01*
X157002353Y-119790300D01*
X156999500Y-119820730D01*
X156492629Y-119820730D01*
X156421789Y-119714711D01*
X156421786Y-119714707D01*
X156310292Y-119603213D01*
X156310288Y-119603210D01*
X156179185Y-119515609D01*
X156179172Y-119515602D01*
X156033501Y-119455264D01*
X156033489Y-119455261D01*
X155878845Y-119424500D01*
X155878842Y-119424500D01*
X155721158Y-119424500D01*
X155721155Y-119424500D01*
X155566510Y-119455261D01*
X155566498Y-119455264D01*
X155420827Y-119515602D01*
X155420814Y-119515609D01*
X155289711Y-119603210D01*
X155289707Y-119603213D01*
X155178213Y-119714707D01*
X155178210Y-119714711D01*
X155090609Y-119845814D01*
X155090602Y-119845827D01*
X155030264Y-119991498D01*
X155030261Y-119991510D01*
X154999500Y-120146153D01*
X151600500Y-120146153D01*
X151600500Y-119820730D01*
X151597646Y-119790300D01*
X151597646Y-119790298D01*
X151554143Y-119665977D01*
X151552793Y-119662118D01*
X151472150Y-119552850D01*
X151362882Y-119472207D01*
X151362880Y-119472206D01*
X151234700Y-119427353D01*
X151204270Y-119424500D01*
X151204266Y-119424500D01*
X150395734Y-119424500D01*
X150395730Y-119424500D01*
X150365300Y-119427353D01*
X150365298Y-119427353D01*
X150237119Y-119472206D01*
X150237117Y-119472207D01*
X150127850Y-119552850D01*
X150047207Y-119662117D01*
X150047206Y-119662119D01*
X150002353Y-119790298D01*
X150002353Y-119790300D01*
X149999500Y-119820730D01*
X149492629Y-119820730D01*
X149421789Y-119714711D01*
X149421786Y-119714707D01*
X149310292Y-119603213D01*
X149310288Y-119603210D01*
X149179185Y-119515609D01*
X149179172Y-119515602D01*
X149033501Y-119455264D01*
X149033489Y-119455261D01*
X148878845Y-119424500D01*
X148878842Y-119424500D01*
X148721158Y-119424500D01*
X148721155Y-119424500D01*
X148566510Y-119455261D01*
X148566498Y-119455264D01*
X148420827Y-119515602D01*
X148420814Y-119515609D01*
X148289711Y-119603210D01*
X148289707Y-119603213D01*
X148178213Y-119714707D01*
X148178210Y-119714711D01*
X148090609Y-119845814D01*
X148090602Y-119845827D01*
X148030264Y-119991498D01*
X148030261Y-119991510D01*
X147999500Y-120146153D01*
X126300500Y-120146153D01*
X126300500Y-118746530D01*
X138999500Y-118746530D01*
X138999500Y-118953469D01*
X139039868Y-119156412D01*
X139039870Y-119156420D01*
X139119058Y-119347596D01*
X139234024Y-119519657D01*
X139380342Y-119665975D01*
X139380345Y-119665977D01*
X139552402Y-119780941D01*
X139743580Y-119860130D01*
X139946530Y-119900499D01*
X139946534Y-119900500D01*
X139946535Y-119900500D01*
X140153466Y-119900500D01*
X140153467Y-119900499D01*
X140356420Y-119860130D01*
X140547598Y-119780941D01*
X140719655Y-119665977D01*
X140865977Y-119519655D01*
X140980941Y-119347598D01*
X141060130Y-119156420D01*
X141100500Y-118953465D01*
X141100500Y-118746535D01*
X141060130Y-118543580D01*
X140980941Y-118352402D01*
X140865977Y-118180345D01*
X140865975Y-118180342D01*
X140719657Y-118034024D01*
X140633626Y-117976541D01*
X140547598Y-117919059D01*
X140513333Y-117904866D01*
X140356420Y-117839870D01*
X140356412Y-117839868D01*
X140153469Y-117799500D01*
X140153465Y-117799500D01*
X139946535Y-117799500D01*
X139946530Y-117799500D01*
X139743587Y-117839868D01*
X139743579Y-117839870D01*
X139552403Y-117919058D01*
X139380342Y-118034024D01*
X139234024Y-118180342D01*
X139119058Y-118352403D01*
X139039870Y-118543579D01*
X139039868Y-118543587D01*
X138999500Y-118746530D01*
X126300500Y-118746530D01*
X126300500Y-118019443D01*
X135428252Y-118019443D01*
X135428252Y-118138061D01*
X135458953Y-118252638D01*
X135518263Y-118355365D01*
X135602139Y-118439241D01*
X135704866Y-118498551D01*
X135819443Y-118529252D01*
X135819446Y-118529252D01*
X135938058Y-118529252D01*
X135938061Y-118529252D01*
X136052638Y-118498551D01*
X136155365Y-118439241D01*
X136239241Y-118355365D01*
X136298551Y-118252638D01*
X136329252Y-118138061D01*
X136329252Y-118019443D01*
X136298551Y-117904866D01*
X136239241Y-117802139D01*
X136155365Y-117718263D01*
X136052638Y-117658953D01*
X135938061Y-117628252D01*
X135819443Y-117628252D01*
X135704866Y-117658953D01*
X135704864Y-117658953D01*
X135704864Y-117658954D01*
X135602139Y-117718263D01*
X135602136Y-117718265D01*
X135518265Y-117802136D01*
X135518263Y-117802139D01*
X135458953Y-117904866D01*
X135428252Y-118019443D01*
X126300500Y-118019443D01*
X126300500Y-116950479D01*
X137203449Y-116950479D01*
X137203449Y-117157418D01*
X137243817Y-117360361D01*
X137243819Y-117360369D01*
X137323007Y-117551545D01*
X137437973Y-117723606D01*
X137584291Y-117869924D01*
X137584294Y-117869926D01*
X137756351Y-117984890D01*
X137947529Y-118064079D01*
X138150479Y-118104448D01*
X138150483Y-118104449D01*
X138150484Y-118104449D01*
X138357415Y-118104449D01*
X138357416Y-118104448D01*
X138560369Y-118064079D01*
X138751547Y-117984890D01*
X138923604Y-117869926D01*
X139069926Y-117723604D01*
X139184890Y-117551547D01*
X139264079Y-117360369D01*
X139304449Y-117157414D01*
X139304449Y-116950484D01*
X139264079Y-116747529D01*
X139184890Y-116556351D01*
X139069926Y-116384294D01*
X139069924Y-116384291D01*
X138923606Y-116237973D01*
X138837575Y-116180490D01*
X138751547Y-116123008D01*
X138560369Y-116043819D01*
X138560361Y-116043817D01*
X138357418Y-116003449D01*
X138357414Y-116003449D01*
X138150484Y-116003449D01*
X138150479Y-116003449D01*
X137947536Y-116043817D01*
X137947528Y-116043819D01*
X137756352Y-116123007D01*
X137584291Y-116237973D01*
X137437973Y-116384291D01*
X137323007Y-116556352D01*
X137243819Y-116747528D01*
X137243817Y-116747536D01*
X137203449Y-116950479D01*
X126300500Y-116950479D01*
X126300500Y-115154428D01*
X135407398Y-115154428D01*
X135407398Y-115361367D01*
X135447766Y-115564310D01*
X135447768Y-115564318D01*
X135526956Y-115755494D01*
X135641922Y-115927555D01*
X135788240Y-116073873D01*
X135788243Y-116073875D01*
X135960300Y-116188839D01*
X136151478Y-116268028D01*
X136354428Y-116308397D01*
X136354432Y-116308398D01*
X136354433Y-116308398D01*
X136561364Y-116308398D01*
X136561365Y-116308397D01*
X136764318Y-116268028D01*
X136955496Y-116188839D01*
X137127553Y-116073875D01*
X137273875Y-115927553D01*
X137388839Y-115755496D01*
X137468028Y-115564318D01*
X137508398Y-115361363D01*
X137508398Y-115154433D01*
X137468028Y-114951478D01*
X137388839Y-114760300D01*
X137273875Y-114588243D01*
X137273873Y-114588240D01*
X137127555Y-114441922D01*
X137009709Y-114363181D01*
X136955496Y-114326957D01*
X136764318Y-114247768D01*
X136764310Y-114247766D01*
X136561367Y-114207398D01*
X136561363Y-114207398D01*
X136354433Y-114207398D01*
X136354428Y-114207398D01*
X136151485Y-114247766D01*
X136151477Y-114247768D01*
X135960301Y-114326956D01*
X135788240Y-114441922D01*
X135641922Y-114588240D01*
X135526956Y-114760301D01*
X135447768Y-114951477D01*
X135447766Y-114951485D01*
X135407398Y-115154428D01*
X126300500Y-115154428D01*
X126300500Y-113358376D01*
X133611346Y-113358376D01*
X133611346Y-113565315D01*
X133651714Y-113768258D01*
X133651716Y-113768266D01*
X133730904Y-113959442D01*
X133845870Y-114131503D01*
X133992188Y-114277821D01*
X133992191Y-114277823D01*
X134164248Y-114392787D01*
X134355426Y-114471976D01*
X134558376Y-114512345D01*
X134558380Y-114512346D01*
X134558381Y-114512346D01*
X134765312Y-114512346D01*
X134765313Y-114512345D01*
X134968266Y-114471976D01*
X135159444Y-114392787D01*
X135331501Y-114277823D01*
X135477823Y-114131501D01*
X135592787Y-113959444D01*
X135671976Y-113768266D01*
X135712346Y-113565311D01*
X135712346Y-113358381D01*
X135671976Y-113155426D01*
X135592787Y-112964248D01*
X135477823Y-112792191D01*
X135477821Y-112792188D01*
X135331503Y-112645870D01*
X135177502Y-112542971D01*
X135159444Y-112530905D01*
X134968266Y-112451716D01*
X134968258Y-112451714D01*
X134765315Y-112411346D01*
X134765311Y-112411346D01*
X134558381Y-112411346D01*
X134558376Y-112411346D01*
X134355433Y-112451714D01*
X134355425Y-112451716D01*
X134164249Y-112530904D01*
X133992188Y-112645870D01*
X133845870Y-112792188D01*
X133730904Y-112964249D01*
X133651716Y-113155425D01*
X133651714Y-113155433D01*
X133611346Y-113358376D01*
X126300500Y-113358376D01*
X126300500Y-111515795D01*
X131725218Y-111515795D01*
X132388350Y-111515795D01*
X132365795Y-111599969D01*
X132365795Y-111731621D01*
X132388350Y-111815795D01*
X131725218Y-111815795D01*
X131744112Y-111935088D01*
X131800046Y-112107239D01*
X131800047Y-112107242D01*
X131882229Y-112268529D01*
X131988618Y-112414964D01*
X132116625Y-112542971D01*
X132263060Y-112649360D01*
X132424347Y-112731542D01*
X132424350Y-112731543D01*
X132596501Y-112787477D01*
X132715795Y-112806372D01*
X132715795Y-112143240D01*
X132799969Y-112165795D01*
X132931621Y-112165795D01*
X133015795Y-112143240D01*
X133015795Y-112806371D01*
X133135088Y-112787477D01*
X133307239Y-112731543D01*
X133307242Y-112731542D01*
X133468529Y-112649360D01*
X133614964Y-112542971D01*
X133742971Y-112414964D01*
X133849360Y-112268529D01*
X133931542Y-112107242D01*
X133931543Y-112107239D01*
X133987477Y-111935088D01*
X134006372Y-111815795D01*
X133343240Y-111815795D01*
X133365795Y-111731621D01*
X133365795Y-111599969D01*
X133343240Y-111515795D01*
X134006372Y-111515795D01*
X133987477Y-111396501D01*
X133931543Y-111224350D01*
X133931542Y-111224347D01*
X133849360Y-111063060D01*
X133742971Y-110916625D01*
X133614964Y-110788618D01*
X133468529Y-110682229D01*
X133307242Y-110600047D01*
X133307239Y-110600046D01*
X133135089Y-110544112D01*
X133015795Y-110525217D01*
X133015795Y-111188349D01*
X132931621Y-111165795D01*
X132799969Y-111165795D01*
X132715795Y-111188349D01*
X132715795Y-110525217D01*
X132715794Y-110525217D01*
X132596500Y-110544112D01*
X132424350Y-110600046D01*
X132424347Y-110600047D01*
X132263060Y-110682229D01*
X132116625Y-110788618D01*
X131988618Y-110916625D01*
X131882229Y-111063060D01*
X131800047Y-111224347D01*
X131800046Y-111224350D01*
X131744112Y-111396501D01*
X131725218Y-111515795D01*
X126300500Y-111515795D01*
X126300500Y-109869741D01*
X129663235Y-109869741D01*
X129663235Y-109869746D01*
X129678795Y-109947974D01*
X129678795Y-109947975D01*
X129711925Y-109997556D01*
X129711928Y-109997560D01*
X130941927Y-111227559D01*
X130941931Y-111227562D01*
X130941933Y-111227564D01*
X130991513Y-111260692D01*
X131069742Y-111276253D01*
X131069744Y-111276253D01*
X131069746Y-111276253D01*
X131122818Y-111265696D01*
X131147975Y-111260692D01*
X131197555Y-111227564D01*
X132427564Y-109997555D01*
X132460692Y-109947975D01*
X132476253Y-109869744D01*
X132476253Y-109869741D01*
X132460692Y-109791513D01*
X132460692Y-109791512D01*
X132444070Y-109766637D01*
X132427564Y-109741933D01*
X132427562Y-109741931D01*
X132427559Y-109741927D01*
X131197560Y-108511928D01*
X131197556Y-108511925D01*
X131147974Y-108478795D01*
X131069746Y-108463235D01*
X131069742Y-108463235D01*
X130991513Y-108478795D01*
X130991512Y-108478795D01*
X130941931Y-108511925D01*
X130941927Y-108511928D01*
X129711928Y-109741927D01*
X129711925Y-109741931D01*
X129678795Y-109791512D01*
X129678795Y-109791513D01*
X129663235Y-109869741D01*
X126300500Y-109869741D01*
X126300500Y-100600691D01*
X128499500Y-100600691D01*
X128499500Y-100719309D01*
X128530201Y-100833886D01*
X128589511Y-100936613D01*
X128673387Y-101020489D01*
X128776114Y-101079799D01*
X128890691Y-101110500D01*
X128890694Y-101110500D01*
X129009306Y-101110500D01*
X129009309Y-101110500D01*
X129123886Y-101079799D01*
X129226613Y-101020489D01*
X129310489Y-100936613D01*
X129369799Y-100833886D01*
X129400500Y-100719309D01*
X129400500Y-100600691D01*
X129369799Y-100486114D01*
X129310489Y-100383387D01*
X129226613Y-100299511D01*
X129123886Y-100240201D01*
X129009309Y-100209500D01*
X128890691Y-100209500D01*
X128776114Y-100240201D01*
X128776112Y-100240201D01*
X128776112Y-100240202D01*
X128673387Y-100299511D01*
X128673384Y-100299513D01*
X128589513Y-100383384D01*
X128589511Y-100383387D01*
X128554138Y-100444655D01*
X128530201Y-100486114D01*
X128499500Y-100600691D01*
X126300500Y-100600691D01*
X126300500Y-99671530D01*
X130299500Y-99671530D01*
X130299500Y-99878469D01*
X130339868Y-100081412D01*
X130339870Y-100081420D01*
X130419058Y-100272596D01*
X130534024Y-100444657D01*
X130680342Y-100590975D01*
X130680345Y-100590977D01*
X130852402Y-100705941D01*
X131043580Y-100785130D01*
X131246530Y-100825499D01*
X131246534Y-100825500D01*
X131246535Y-100825500D01*
X131453466Y-100825500D01*
X131453467Y-100825499D01*
X131656420Y-100785130D01*
X131847598Y-100705941D01*
X132019655Y-100590977D01*
X132165977Y-100444655D01*
X132280941Y-100272598D01*
X132360130Y-100081420D01*
X132400500Y-99878465D01*
X132400500Y-99671535D01*
X132360130Y-99468580D01*
X132280941Y-99277402D01*
X132165977Y-99105345D01*
X132165975Y-99105342D01*
X132019657Y-98959024D01*
X131878382Y-98864628D01*
X131847598Y-98844059D01*
X131836188Y-98839333D01*
X131656420Y-98764870D01*
X131656412Y-98764868D01*
X131453469Y-98724500D01*
X131453465Y-98724500D01*
X131246535Y-98724500D01*
X131246530Y-98724500D01*
X131043587Y-98764868D01*
X131043579Y-98764870D01*
X130852403Y-98844058D01*
X130680342Y-98959024D01*
X130534024Y-99105342D01*
X130419058Y-99277403D01*
X130339870Y-99468579D01*
X130339868Y-99468587D01*
X130299500Y-99671530D01*
X126300500Y-99671530D01*
X126300500Y-97131530D01*
X130299500Y-97131530D01*
X130299500Y-97338469D01*
X130339868Y-97541412D01*
X130339870Y-97541420D01*
X130398305Y-97682495D01*
X130419059Y-97732598D01*
X130461518Y-97796143D01*
X130534024Y-97904657D01*
X130680342Y-98050975D01*
X130680345Y-98050977D01*
X130852402Y-98165941D01*
X131043580Y-98245130D01*
X131246465Y-98285486D01*
X131246530Y-98285499D01*
X131246534Y-98285500D01*
X131246535Y-98285500D01*
X131453466Y-98285500D01*
X131453467Y-98285499D01*
X131656420Y-98245130D01*
X131847598Y-98165941D01*
X132019655Y-98050977D01*
X132086326Y-97984306D01*
X132165976Y-97904657D01*
X132238481Y-97796144D01*
X132280941Y-97732598D01*
X132360130Y-97541420D01*
X132400500Y-97338465D01*
X132400500Y-97131535D01*
X132360130Y-96928580D01*
X132280941Y-96737402D01*
X132165977Y-96565345D01*
X132165975Y-96565342D01*
X132019657Y-96419024D01*
X131933626Y-96361541D01*
X131847598Y-96304059D01*
X131656420Y-96224870D01*
X131656412Y-96224868D01*
X131453469Y-96184500D01*
X131453465Y-96184500D01*
X131246535Y-96184500D01*
X131246530Y-96184500D01*
X131043587Y-96224868D01*
X131043579Y-96224870D01*
X130852403Y-96304058D01*
X130680342Y-96419024D01*
X130534024Y-96565342D01*
X130419058Y-96737403D01*
X130339870Y-96928579D01*
X130339868Y-96928587D01*
X130299500Y-97131530D01*
X126300500Y-97131530D01*
X126300500Y-96130691D01*
X128499500Y-96130691D01*
X128499500Y-96249309D01*
X128530201Y-96363886D01*
X128589511Y-96466613D01*
X128673387Y-96550489D01*
X128776114Y-96609799D01*
X128890691Y-96640500D01*
X128890694Y-96640500D01*
X129009306Y-96640500D01*
X129009309Y-96640500D01*
X129123886Y-96609799D01*
X129226613Y-96550489D01*
X129310489Y-96466613D01*
X129369799Y-96363886D01*
X129400500Y-96249309D01*
X129400500Y-96130691D01*
X129369799Y-96016114D01*
X129310489Y-95913387D01*
X129226613Y-95829511D01*
X129123886Y-95770201D01*
X129009309Y-95739500D01*
X128890691Y-95739500D01*
X128776114Y-95770201D01*
X128776112Y-95770201D01*
X128776112Y-95770202D01*
X128673387Y-95829511D01*
X128673384Y-95829513D01*
X128589513Y-95913384D01*
X128589511Y-95913387D01*
X128530201Y-96016114D01*
X128499500Y-96130691D01*
X126300500Y-96130691D01*
X126300500Y-94591530D01*
X130299500Y-94591530D01*
X130299500Y-94798469D01*
X130339868Y-95001412D01*
X130339870Y-95001420D01*
X130419058Y-95192596D01*
X130534024Y-95364657D01*
X130680342Y-95510975D01*
X130680345Y-95510977D01*
X130852402Y-95625941D01*
X131043580Y-95705130D01*
X131216371Y-95739500D01*
X131246530Y-95745499D01*
X131246534Y-95745500D01*
X131246535Y-95745500D01*
X131453466Y-95745500D01*
X131453467Y-95745499D01*
X131656420Y-95705130D01*
X131847598Y-95625941D01*
X132019655Y-95510977D01*
X132165977Y-95364655D01*
X132280941Y-95192598D01*
X132360130Y-95001420D01*
X132400500Y-94798465D01*
X132400500Y-94591535D01*
X132360130Y-94388580D01*
X132280941Y-94197402D01*
X132243048Y-94140691D01*
X132999500Y-94140691D01*
X132999500Y-94259309D01*
X133030201Y-94373886D01*
X133082887Y-94465140D01*
X133099500Y-94527140D01*
X133099500Y-108996144D01*
X133114065Y-109050501D01*
X133114065Y-109050502D01*
X133123384Y-109085284D01*
X133123385Y-109085286D01*
X133169527Y-109165208D01*
X133169529Y-109165211D01*
X133169530Y-109165212D01*
X135456036Y-111451718D01*
X135456038Y-111451719D01*
X135456042Y-111451722D01*
X135520154Y-111488737D01*
X135520155Y-111488737D01*
X135535960Y-111497862D01*
X135625104Y-111521748D01*
X137851612Y-111521748D01*
X137913611Y-111538360D01*
X138004866Y-111591047D01*
X138119443Y-111621748D01*
X138119446Y-111621748D01*
X138238058Y-111621748D01*
X138238061Y-111621748D01*
X138352638Y-111591047D01*
X138455365Y-111531737D01*
X138539241Y-111447861D01*
X138598551Y-111345134D01*
X138629252Y-111230557D01*
X138629252Y-111111939D01*
X138607446Y-111030558D01*
X138609109Y-110960714D01*
X138648271Y-110902851D01*
X138712499Y-110875346D01*
X138759308Y-110878693D01*
X138840691Y-110900500D01*
X138840694Y-110900500D01*
X138959306Y-110900500D01*
X138959309Y-110900500D01*
X139073886Y-110869799D01*
X139176613Y-110810489D01*
X139260489Y-110726613D01*
X139319799Y-110623886D01*
X139350500Y-110509309D01*
X139350500Y-110390691D01*
X139319799Y-110276114D01*
X139260489Y-110173387D01*
X139176613Y-110089511D01*
X139073886Y-110030201D01*
X138959309Y-109999500D01*
X138840691Y-109999500D01*
X138726114Y-110030201D01*
X138726113Y-110030201D01*
X138726111Y-110030202D01*
X138688777Y-110051757D01*
X138620877Y-110068229D01*
X138554850Y-110045376D01*
X138511660Y-109990454D01*
X138505019Y-109920901D01*
X138519391Y-109882368D01*
X138530423Y-109863262D01*
X138561124Y-109748685D01*
X138561124Y-109630067D01*
X138530423Y-109515490D01*
X138471113Y-109412763D01*
X138387237Y-109328887D01*
X138284510Y-109269577D01*
X138169933Y-109238876D01*
X138051315Y-109238876D01*
X137936738Y-109269577D01*
X137936736Y-109269577D01*
X137936736Y-109269578D01*
X137834011Y-109328887D01*
X137834008Y-109328889D01*
X137750137Y-109412760D01*
X137750135Y-109412763D01*
X137696987Y-109504818D01*
X137690825Y-109515490D01*
X137660124Y-109630067D01*
X137660124Y-109748685D01*
X137681928Y-109830061D01*
X137680266Y-109899910D01*
X137641104Y-109957773D01*
X137576875Y-109985277D01*
X137530062Y-109981929D01*
X137448685Y-109960124D01*
X137330067Y-109960124D01*
X137215490Y-109990825D01*
X137124235Y-110043511D01*
X137062236Y-110060124D01*
X136026408Y-110060124D01*
X135959369Y-110040439D01*
X135938727Y-110023805D01*
X134636819Y-108721897D01*
X134603334Y-108660574D01*
X134600500Y-108634216D01*
X134600500Y-100703856D01*
X147849500Y-100703856D01*
X147849500Y-109696144D01*
X147863579Y-109748685D01*
X147873386Y-109785287D01*
X147873387Y-109785290D01*
X147919527Y-109865208D01*
X147919529Y-109865211D01*
X147919530Y-109865212D01*
X153084788Y-115030470D01*
X153164712Y-115076614D01*
X153253856Y-115100500D01*
X168903456Y-115100500D01*
X168970495Y-115120185D01*
X168991137Y-115136819D01*
X170776415Y-116922097D01*
X170809900Y-116983420D01*
X170804916Y-117053112D01*
X170799221Y-117066069D01*
X170787455Y-117089162D01*
X170729059Y-117268881D01*
X170699500Y-117455513D01*
X170699500Y-117644486D01*
X170729059Y-117831118D01*
X170787454Y-118010836D01*
X170852279Y-118138061D01*
X170873240Y-118179199D01*
X170984310Y-118332073D01*
X171117927Y-118465690D01*
X171270801Y-118576760D01*
X171350347Y-118617290D01*
X171439163Y-118662545D01*
X171439165Y-118662545D01*
X171439168Y-118662547D01*
X171535497Y-118693846D01*
X171618881Y-118720940D01*
X171805514Y-118750500D01*
X171805519Y-118750500D01*
X171994486Y-118750500D01*
X172181118Y-118720940D01*
X172360832Y-118662547D01*
X172529199Y-118576760D01*
X172682073Y-118465690D01*
X172815690Y-118332073D01*
X172926760Y-118179199D01*
X173012547Y-118010832D01*
X173070940Y-117831118D01*
X173087968Y-117723606D01*
X173100500Y-117644486D01*
X173100500Y-117455513D01*
X177199500Y-117455513D01*
X177199500Y-117644486D01*
X177229059Y-117831118D01*
X177287454Y-118010836D01*
X177352279Y-118138061D01*
X177373240Y-118179199D01*
X177484310Y-118332073D01*
X177617927Y-118465690D01*
X177770801Y-118576760D01*
X177850347Y-118617290D01*
X177939163Y-118662545D01*
X177939165Y-118662545D01*
X177939168Y-118662547D01*
X178035497Y-118693846D01*
X178118881Y-118720940D01*
X178305514Y-118750500D01*
X178305519Y-118750500D01*
X178494486Y-118750500D01*
X178681118Y-118720940D01*
X178860832Y-118662547D01*
X179029199Y-118576760D01*
X179182073Y-118465690D01*
X179315690Y-118332073D01*
X179426760Y-118179199D01*
X179512547Y-118010832D01*
X179570940Y-117831118D01*
X179587968Y-117723606D01*
X179600500Y-117644486D01*
X179600500Y-117455513D01*
X179570940Y-117268881D01*
X179532445Y-117150407D01*
X179530450Y-117080565D01*
X179562695Y-117024407D01*
X181556634Y-115030468D01*
X183701489Y-112885614D01*
X183760799Y-112782887D01*
X183768954Y-112752452D01*
X183791500Y-112668309D01*
X183791500Y-107880691D01*
X191099500Y-107880691D01*
X191099500Y-107999309D01*
X191130201Y-108113886D01*
X191189511Y-108216613D01*
X191273387Y-108300489D01*
X191376114Y-108359799D01*
X191490691Y-108390500D01*
X191490694Y-108390500D01*
X191609306Y-108390500D01*
X191609309Y-108390500D01*
X191723886Y-108359799D01*
X191826613Y-108300489D01*
X191910489Y-108216613D01*
X191969799Y-108113886D01*
X192000500Y-107999309D01*
X192000500Y-107880691D01*
X191969799Y-107766114D01*
X191910489Y-107663387D01*
X191826613Y-107579511D01*
X191723886Y-107520201D01*
X191609309Y-107489500D01*
X191490691Y-107489500D01*
X191376114Y-107520201D01*
X191376112Y-107520201D01*
X191376112Y-107520202D01*
X191273387Y-107579511D01*
X191273384Y-107579513D01*
X191189513Y-107663384D01*
X191189511Y-107663387D01*
X191130201Y-107766114D01*
X191099500Y-107880691D01*
X183791500Y-107880691D01*
X183791500Y-102831691D01*
X183760799Y-102717114D01*
X183701489Y-102614387D01*
X183617613Y-102530511D01*
X183514886Y-102471201D01*
X183400309Y-102440500D01*
X183281691Y-102440500D01*
X183167114Y-102471201D01*
X183167112Y-102471201D01*
X183167112Y-102471202D01*
X183064387Y-102530511D01*
X183064384Y-102530513D01*
X182980513Y-102614384D01*
X182980511Y-102614387D01*
X182931371Y-102699500D01*
X182921201Y-102717114D01*
X182890500Y-102831691D01*
X182890500Y-102831693D01*
X182890500Y-112371034D01*
X182870815Y-112438073D01*
X182854181Y-112458715D01*
X178925591Y-116387304D01*
X178864268Y-116420789D01*
X178799592Y-116417554D01*
X178681120Y-116379060D01*
X178494486Y-116349500D01*
X178494481Y-116349500D01*
X178305519Y-116349500D01*
X178305514Y-116349500D01*
X178118881Y-116379059D01*
X177939163Y-116437454D01*
X177770800Y-116523240D01*
X177725226Y-116556352D01*
X177617927Y-116634310D01*
X177617925Y-116634312D01*
X177617924Y-116634312D01*
X177484312Y-116767924D01*
X177484312Y-116767925D01*
X177484310Y-116767927D01*
X177436610Y-116833579D01*
X177373240Y-116920800D01*
X177287454Y-117089163D01*
X177229059Y-117268881D01*
X177199500Y-117455513D01*
X173100500Y-117455513D01*
X173070940Y-117268881D01*
X173012545Y-117089163D01*
X172967290Y-117000347D01*
X172926760Y-116920801D01*
X172815690Y-116767927D01*
X172682073Y-116634310D01*
X172529199Y-116523240D01*
X172360836Y-116437454D01*
X172181118Y-116379059D01*
X171994486Y-116349500D01*
X171994481Y-116349500D01*
X171805519Y-116349500D01*
X171805514Y-116349500D01*
X171618881Y-116379059D01*
X171439162Y-116437455D01*
X171416069Y-116449221D01*
X171347399Y-116462115D01*
X171282659Y-116435836D01*
X171272097Y-116426415D01*
X169315213Y-114469531D01*
X169315208Y-114469527D01*
X169235290Y-114423387D01*
X169235289Y-114423386D01*
X169235288Y-114423386D01*
X169146144Y-114399500D01*
X169146143Y-114399500D01*
X153496544Y-114399500D01*
X153429505Y-114379815D01*
X153408863Y-114363181D01*
X150736373Y-111690691D01*
X151449500Y-111690691D01*
X151449500Y-111809309D01*
X151480201Y-111923886D01*
X151539511Y-112026613D01*
X151623387Y-112110489D01*
X151726114Y-112169799D01*
X151840691Y-112200500D01*
X151840694Y-112200500D01*
X151959306Y-112200500D01*
X151959309Y-112200500D01*
X152073886Y-112169799D01*
X152176613Y-112110489D01*
X152260489Y-112026613D01*
X152319799Y-111923886D01*
X152350500Y-111809309D01*
X152350500Y-111690691D01*
X152319799Y-111576114D01*
X152260489Y-111473387D01*
X152176613Y-111389511D01*
X152073886Y-111330201D01*
X151959309Y-111299500D01*
X151840691Y-111299500D01*
X151726114Y-111330201D01*
X151726112Y-111330201D01*
X151726112Y-111330202D01*
X151623387Y-111389511D01*
X151623384Y-111389513D01*
X151539513Y-111473384D01*
X151539511Y-111473387D01*
X151511590Y-111521748D01*
X151480201Y-111576114D01*
X151449500Y-111690691D01*
X150736373Y-111690691D01*
X149436373Y-110390691D01*
X160409500Y-110390691D01*
X160409500Y-110509309D01*
X160440201Y-110623886D01*
X160499511Y-110726613D01*
X160583387Y-110810489D01*
X160686114Y-110869799D01*
X160800691Y-110900500D01*
X160800694Y-110900500D01*
X160919306Y-110900500D01*
X160919309Y-110900500D01*
X161033886Y-110869799D01*
X161136613Y-110810489D01*
X161220489Y-110726613D01*
X161279799Y-110623886D01*
X161310500Y-110509309D01*
X161310500Y-110390691D01*
X161279799Y-110276114D01*
X161220489Y-110173387D01*
X161136613Y-110089511D01*
X161033886Y-110030201D01*
X160919309Y-109999500D01*
X160800691Y-109999500D01*
X160686114Y-110030201D01*
X160686112Y-110030201D01*
X160686112Y-110030202D01*
X160583387Y-110089511D01*
X160583384Y-110089513D01*
X160499513Y-110173384D01*
X160499511Y-110173387D01*
X160473482Y-110218471D01*
X160440201Y-110276114D01*
X160409500Y-110390691D01*
X149436373Y-110390691D01*
X148586819Y-109541137D01*
X148553334Y-109479814D01*
X148550500Y-109453456D01*
X148550500Y-108540691D01*
X166129500Y-108540691D01*
X166129500Y-108659309D01*
X166160201Y-108773886D01*
X166219511Y-108876613D01*
X166303387Y-108960489D01*
X166406114Y-109019799D01*
X166520691Y-109050500D01*
X166520694Y-109050500D01*
X166639306Y-109050500D01*
X166639309Y-109050500D01*
X166753886Y-109019799D01*
X166856613Y-108960489D01*
X166940489Y-108876613D01*
X166999799Y-108773886D01*
X167030500Y-108659309D01*
X167030500Y-108540691D01*
X166999799Y-108426114D01*
X166940489Y-108323387D01*
X166856613Y-108239511D01*
X166753886Y-108180201D01*
X166639309Y-108149500D01*
X166520691Y-108149500D01*
X166406114Y-108180201D01*
X166406112Y-108180201D01*
X166406112Y-108180202D01*
X166303387Y-108239511D01*
X166303384Y-108239513D01*
X166219513Y-108323384D01*
X166219511Y-108323387D01*
X166160201Y-108426114D01*
X166129500Y-108540691D01*
X148550500Y-108540691D01*
X148550500Y-107078191D01*
X166499500Y-107078191D01*
X166499500Y-107196809D01*
X166530201Y-107311386D01*
X166589511Y-107414113D01*
X166673387Y-107497989D01*
X166776114Y-107557299D01*
X166890691Y-107588000D01*
X166890694Y-107588000D01*
X167009306Y-107588000D01*
X167009309Y-107588000D01*
X167123886Y-107557299D01*
X167226613Y-107497989D01*
X167310489Y-107414113D01*
X167369799Y-107311386D01*
X167400500Y-107196809D01*
X167400500Y-107078191D01*
X167369799Y-106963614D01*
X167310489Y-106860887D01*
X167226613Y-106777011D01*
X167123886Y-106717701D01*
X167009309Y-106687000D01*
X166890691Y-106687000D01*
X166776114Y-106717701D01*
X166776112Y-106717701D01*
X166776112Y-106717702D01*
X166673387Y-106777011D01*
X166673384Y-106777013D01*
X166589513Y-106860884D01*
X166589511Y-106860887D01*
X166530201Y-106963614D01*
X166499500Y-107078191D01*
X148550500Y-107078191D01*
X148550500Y-105165691D01*
X162549500Y-105165691D01*
X162549500Y-105284309D01*
X162580201Y-105398886D01*
X162639511Y-105501613D01*
X162723387Y-105585489D01*
X162826114Y-105644799D01*
X162940691Y-105675500D01*
X162940694Y-105675500D01*
X163059306Y-105675500D01*
X163059309Y-105675500D01*
X163173886Y-105644799D01*
X163276613Y-105585489D01*
X163360489Y-105501613D01*
X163401436Y-105430691D01*
X174499500Y-105430691D01*
X174499500Y-105549309D01*
X174530201Y-105663886D01*
X174589511Y-105766613D01*
X174673387Y-105850489D01*
X174776114Y-105909799D01*
X174890691Y-105940500D01*
X174890694Y-105940500D01*
X175009306Y-105940500D01*
X175009309Y-105940500D01*
X175123886Y-105909799D01*
X175226613Y-105850489D01*
X175310489Y-105766613D01*
X175369799Y-105663886D01*
X175400500Y-105549309D01*
X175400500Y-105430691D01*
X175369799Y-105316114D01*
X175310489Y-105213387D01*
X175226613Y-105129511D01*
X175123886Y-105070201D01*
X175009309Y-105039500D01*
X174890691Y-105039500D01*
X174776114Y-105070201D01*
X174776112Y-105070201D01*
X174776112Y-105070202D01*
X174673387Y-105129511D01*
X174673384Y-105129513D01*
X174589513Y-105213384D01*
X174589511Y-105213387D01*
X174548566Y-105284306D01*
X174530201Y-105316114D01*
X174499500Y-105430691D01*
X163401436Y-105430691D01*
X163419799Y-105398886D01*
X163450500Y-105284309D01*
X163450500Y-105165691D01*
X163419799Y-105051114D01*
X163360489Y-104948387D01*
X163276613Y-104864511D01*
X163173886Y-104805201D01*
X163166385Y-104803191D01*
X164599500Y-104803191D01*
X164599500Y-104921809D01*
X164630201Y-105036386D01*
X164689511Y-105139113D01*
X164773387Y-105222989D01*
X164876114Y-105282299D01*
X164990691Y-105313000D01*
X164990694Y-105313000D01*
X165109306Y-105313000D01*
X165109309Y-105313000D01*
X165223886Y-105282299D01*
X165326613Y-105222989D01*
X165410489Y-105139113D01*
X165469799Y-105036386D01*
X165500500Y-104921809D01*
X165500500Y-104803191D01*
X166499500Y-104803191D01*
X166499500Y-104921809D01*
X166530201Y-105036386D01*
X166589511Y-105139113D01*
X166673387Y-105222989D01*
X166776114Y-105282299D01*
X166890691Y-105313000D01*
X166890694Y-105313000D01*
X167009306Y-105313000D01*
X167009309Y-105313000D01*
X167123886Y-105282299D01*
X167226613Y-105222989D01*
X167310489Y-105139113D01*
X167369799Y-105036386D01*
X167400500Y-104921809D01*
X167400500Y-104803191D01*
X167369799Y-104688614D01*
X167310489Y-104585887D01*
X167226613Y-104502011D01*
X167123886Y-104442701D01*
X167009309Y-104412000D01*
X166890691Y-104412000D01*
X166776114Y-104442701D01*
X166776112Y-104442701D01*
X166776112Y-104442702D01*
X166673387Y-104502011D01*
X166673384Y-104502013D01*
X166589513Y-104585884D01*
X166589511Y-104585887D01*
X166573405Y-104613784D01*
X166530201Y-104688614D01*
X166499500Y-104803191D01*
X165500500Y-104803191D01*
X165469799Y-104688614D01*
X165410489Y-104585887D01*
X165326613Y-104502011D01*
X165223886Y-104442701D01*
X165109309Y-104412000D01*
X164990691Y-104412000D01*
X164876114Y-104442701D01*
X164876112Y-104442701D01*
X164876112Y-104442702D01*
X164773387Y-104502011D01*
X164773384Y-104502013D01*
X164689513Y-104585884D01*
X164689511Y-104585887D01*
X164673405Y-104613784D01*
X164630201Y-104688614D01*
X164599500Y-104803191D01*
X163166385Y-104803191D01*
X163059309Y-104774500D01*
X162940691Y-104774500D01*
X162826114Y-104805201D01*
X162826112Y-104805201D01*
X162826112Y-104805202D01*
X162723387Y-104864511D01*
X162723384Y-104864513D01*
X162639513Y-104948384D01*
X162639511Y-104948387D01*
X162580201Y-105051114D01*
X162549500Y-105165691D01*
X148550500Y-105165691D01*
X148550500Y-104193989D01*
X177226202Y-104193989D01*
X177226202Y-104312607D01*
X177256903Y-104427184D01*
X177316213Y-104529911D01*
X177400089Y-104613787D01*
X177502816Y-104673097D01*
X177617393Y-104703798D01*
X177617396Y-104703798D01*
X177736008Y-104703798D01*
X177736011Y-104703798D01*
X177850588Y-104673097D01*
X177953315Y-104613787D01*
X178037191Y-104529911D01*
X178096501Y-104427184D01*
X178127202Y-104312607D01*
X178127202Y-104193989D01*
X178096501Y-104079412D01*
X178037191Y-103976685D01*
X177953315Y-103892809D01*
X177850588Y-103833499D01*
X177736011Y-103802798D01*
X177617393Y-103802798D01*
X177502816Y-103833499D01*
X177502814Y-103833499D01*
X177502814Y-103833500D01*
X177400089Y-103892809D01*
X177400086Y-103892811D01*
X177316215Y-103976682D01*
X177316213Y-103976685D01*
X177256903Y-104079412D01*
X177226202Y-104193989D01*
X148550500Y-104193989D01*
X148550500Y-103640691D01*
X154374500Y-103640691D01*
X154374500Y-103759309D01*
X154405201Y-103873886D01*
X154464511Y-103976613D01*
X154548387Y-104060489D01*
X154651114Y-104119799D01*
X154765691Y-104150500D01*
X154765694Y-104150500D01*
X154884306Y-104150500D01*
X154884309Y-104150500D01*
X154998886Y-104119799D01*
X155101613Y-104060489D01*
X155185489Y-103976613D01*
X155244799Y-103873886D01*
X155275500Y-103759309D01*
X155275500Y-103640691D01*
X155244799Y-103526114D01*
X155185489Y-103423387D01*
X155101613Y-103339511D01*
X155017055Y-103290691D01*
X164619500Y-103290691D01*
X164619500Y-103409309D01*
X164650201Y-103523886D01*
X164709511Y-103626613D01*
X164793387Y-103710489D01*
X164896114Y-103769799D01*
X165010691Y-103800500D01*
X165010694Y-103800500D01*
X165129306Y-103800500D01*
X165129309Y-103800500D01*
X165243886Y-103769799D01*
X165346613Y-103710489D01*
X165430489Y-103626613D01*
X165489799Y-103523886D01*
X165520500Y-103409309D01*
X165520500Y-103290691D01*
X165489799Y-103176114D01*
X165430489Y-103073387D01*
X165346613Y-102989511D01*
X165243886Y-102930201D01*
X165129309Y-102899500D01*
X165010691Y-102899500D01*
X164896114Y-102930201D01*
X164896112Y-102930201D01*
X164896112Y-102930202D01*
X164793387Y-102989511D01*
X164793384Y-102989513D01*
X164709513Y-103073384D01*
X164709511Y-103073387D01*
X164650201Y-103176114D01*
X164619500Y-103290691D01*
X155017055Y-103290691D01*
X154998886Y-103280201D01*
X154884309Y-103249500D01*
X154765691Y-103249500D01*
X154651114Y-103280201D01*
X154651112Y-103280201D01*
X154651112Y-103280202D01*
X154548387Y-103339511D01*
X154548384Y-103339513D01*
X154464513Y-103423384D01*
X154464511Y-103423387D01*
X154405201Y-103526114D01*
X154374500Y-103640691D01*
X148550500Y-103640691D01*
X148550500Y-103090691D01*
X150499500Y-103090691D01*
X150499500Y-103209309D01*
X150530201Y-103323886D01*
X150589511Y-103426613D01*
X150673387Y-103510489D01*
X150776114Y-103569799D01*
X150890691Y-103600500D01*
X150890694Y-103600500D01*
X151009306Y-103600500D01*
X151009309Y-103600500D01*
X151123886Y-103569799D01*
X151226613Y-103510489D01*
X151310489Y-103426613D01*
X151369799Y-103323886D01*
X151397072Y-103222100D01*
X151429163Y-103166517D01*
X156630469Y-97965212D01*
X156676614Y-97885288D01*
X156684250Y-97856789D01*
X156700500Y-97796144D01*
X156700500Y-96227140D01*
X156717112Y-96165140D01*
X156769799Y-96073886D01*
X156800500Y-95959309D01*
X156800500Y-95840691D01*
X156769799Y-95726114D01*
X156710489Y-95623387D01*
X156626613Y-95539511D01*
X156523886Y-95480201D01*
X156409309Y-95449500D01*
X156290691Y-95449500D01*
X156176114Y-95480201D01*
X156176112Y-95480201D01*
X156176112Y-95480202D01*
X156073387Y-95539511D01*
X156073384Y-95539513D01*
X155989513Y-95623384D01*
X155989511Y-95623387D01*
X155930201Y-95726114D01*
X155899500Y-95840691D01*
X155899500Y-95959309D01*
X155930201Y-96073886D01*
X155982887Y-96165140D01*
X155999500Y-96227140D01*
X155999500Y-97553456D01*
X155979815Y-97620495D01*
X155963181Y-97641137D01*
X150933482Y-102670835D01*
X150877895Y-102702928D01*
X150776114Y-102730201D01*
X150776112Y-102730201D01*
X150776112Y-102730202D01*
X150673387Y-102789511D01*
X150673384Y-102789513D01*
X150589513Y-102873384D01*
X150589511Y-102873387D01*
X150556709Y-102930202D01*
X150530201Y-102976114D01*
X150499500Y-103090691D01*
X148550500Y-103090691D01*
X148550500Y-100946544D01*
X148570185Y-100879505D01*
X148586819Y-100858863D01*
X149977103Y-99468579D01*
X151418469Y-98027213D01*
X151464614Y-97947288D01*
X151476037Y-97904655D01*
X151488500Y-97858144D01*
X151488500Y-93390691D01*
X157049500Y-93390691D01*
X157049500Y-93509309D01*
X157080201Y-93623886D01*
X157139511Y-93726613D01*
X157139513Y-93726615D01*
X157189217Y-93776319D01*
X157222702Y-93837642D01*
X157217718Y-93907334D01*
X157189217Y-93951681D01*
X157139513Y-94001384D01*
X157139511Y-94001387D01*
X157081661Y-94101586D01*
X157080201Y-94104114D01*
X157049500Y-94218691D01*
X157049500Y-94337309D01*
X157080201Y-94451886D01*
X157139511Y-94554613D01*
X157223387Y-94638489D01*
X157326114Y-94697799D01*
X157440691Y-94728500D01*
X157440694Y-94728500D01*
X157559306Y-94728500D01*
X157559309Y-94728500D01*
X157673886Y-94697799D01*
X157776613Y-94638489D01*
X157778283Y-94636819D01*
X157780035Y-94635861D01*
X157783059Y-94633542D01*
X157783420Y-94634013D01*
X157839606Y-94603334D01*
X157865964Y-94600500D01*
X163246142Y-94600500D01*
X163246144Y-94600500D01*
X163335288Y-94576614D01*
X163366714Y-94558470D01*
X163415212Y-94530470D01*
X165094850Y-92850832D01*
X165140994Y-92770908D01*
X165152089Y-92729499D01*
X165164880Y-92681764D01*
X165164880Y-88790691D01*
X165449500Y-88790691D01*
X165449500Y-88909309D01*
X165480201Y-89023886D01*
X165539511Y-89126613D01*
X165623387Y-89210489D01*
X165712348Y-89261851D01*
X165726110Y-89269797D01*
X165726114Y-89269799D01*
X165813322Y-89293166D01*
X165872981Y-89329530D01*
X165903510Y-89392377D01*
X165895215Y-89461752D01*
X165888615Y-89474938D01*
X165830201Y-89576114D01*
X165799500Y-89690691D01*
X165799500Y-89809309D01*
X165830201Y-89923886D01*
X165889511Y-90026613D01*
X165973387Y-90110489D01*
X166076114Y-90169799D01*
X166190691Y-90200500D01*
X166190694Y-90200500D01*
X166309306Y-90200500D01*
X166309309Y-90200500D01*
X166423886Y-90169799D01*
X166526613Y-90110489D01*
X166610489Y-90026613D01*
X166669799Y-89923886D01*
X166697072Y-89822100D01*
X166705087Y-89808218D01*
X166708013Y-89794770D01*
X166729162Y-89766519D01*
X166772537Y-89723145D01*
X166833860Y-89689660D01*
X166860217Y-89686827D01*
X169792526Y-89686827D01*
X169859565Y-89706512D01*
X169905320Y-89759316D01*
X169915264Y-89828474D01*
X169886239Y-89892030D01*
X169833210Y-89926109D01*
X169833618Y-89927093D01*
X169828165Y-89929351D01*
X169827461Y-89929804D01*
X169826255Y-89930142D01*
X169826114Y-89930200D01*
X169723387Y-89989511D01*
X169723384Y-89989513D01*
X169639513Y-90073384D01*
X169639511Y-90073387D01*
X169615486Y-90115000D01*
X169580201Y-90176114D01*
X169549500Y-90290691D01*
X169549500Y-90409309D01*
X169580201Y-90523886D01*
X169639511Y-90626613D01*
X169639513Y-90626615D01*
X169663181Y-90650283D01*
X169696666Y-90711606D01*
X169699500Y-90737964D01*
X169699500Y-93439562D01*
X169708563Y-93473384D01*
X169719979Y-93515990D01*
X169719980Y-93515991D01*
X169754692Y-93576114D01*
X169754693Y-93576116D01*
X169759537Y-93584507D01*
X169759541Y-93584512D01*
X170213181Y-94038152D01*
X170246666Y-94099475D01*
X170249500Y-94125833D01*
X170249500Y-98670500D01*
X170229815Y-98737539D01*
X170177011Y-98783294D01*
X170125500Y-98794500D01*
X170049995Y-98794500D01*
X170004271Y-98799651D01*
X169921873Y-98839333D01*
X169864851Y-98910836D01*
X169844500Y-98999995D01*
X169844500Y-100500004D01*
X169849651Y-100545728D01*
X169889333Y-100628126D01*
X169889334Y-100628127D01*
X169960837Y-100685149D01*
X170027428Y-100700348D01*
X170049995Y-100705499D01*
X170050000Y-100705500D01*
X171199996Y-100705500D01*
X171200000Y-100705500D01*
X171273085Y-100692065D01*
X171278025Y-100688771D01*
X171344722Y-100667962D01*
X171400612Y-100680225D01*
X171410835Y-100685148D01*
X171410836Y-100685148D01*
X171410837Y-100685149D01*
X171477428Y-100700348D01*
X171499995Y-100705499D01*
X171500000Y-100705500D01*
X172500003Y-100705500D01*
X172500003Y-100705499D01*
X172545728Y-100700348D01*
X172628127Y-100660666D01*
X172685149Y-100589163D01*
X172705500Y-100500000D01*
X172705500Y-100324500D01*
X172725185Y-100257461D01*
X172777989Y-100211706D01*
X172829500Y-100200500D01*
X177209308Y-100200500D01*
X177209309Y-100200500D01*
X177299673Y-100176286D01*
X177323887Y-100169799D01*
X177426614Y-100110489D01*
X182017104Y-95519999D01*
X185909163Y-95519999D01*
X185909164Y-95520000D01*
X186435192Y-95520000D01*
X186415444Y-95554204D01*
X186395000Y-95630504D01*
X186395000Y-95709496D01*
X186415444Y-95785796D01*
X186435192Y-95820000D01*
X185909163Y-95820000D01*
X185925741Y-95903343D01*
X185925744Y-95903353D01*
X185986047Y-96048939D01*
X185986052Y-96048948D01*
X186073598Y-96179969D01*
X186073601Y-96179973D01*
X186185026Y-96291398D01*
X186185030Y-96291401D01*
X186316051Y-96378947D01*
X186316060Y-96378952D01*
X186461648Y-96439256D01*
X186461656Y-96439258D01*
X186616202Y-96469999D01*
X186616206Y-96470000D01*
X187095000Y-96470000D01*
X187095000Y-95970000D01*
X187395000Y-95970000D01*
X187395000Y-96470000D01*
X187873794Y-96470000D01*
X187873797Y-96469999D01*
X188028343Y-96439258D01*
X188028351Y-96439256D01*
X188173939Y-96378952D01*
X188173948Y-96378947D01*
X188304969Y-96291401D01*
X188304973Y-96291398D01*
X188416398Y-96179973D01*
X188416401Y-96179969D01*
X188503947Y-96048948D01*
X188503952Y-96048939D01*
X188564255Y-95903353D01*
X188564258Y-95903343D01*
X188580836Y-95820000D01*
X188054808Y-95820000D01*
X188074556Y-95785796D01*
X188095000Y-95709496D01*
X188095000Y-95630504D01*
X188074556Y-95554204D01*
X188054808Y-95520000D01*
X188580836Y-95520000D01*
X188580836Y-95519999D01*
X190239163Y-95519999D01*
X190239164Y-95520000D01*
X190765192Y-95520000D01*
X190745444Y-95554204D01*
X190725000Y-95630504D01*
X190725000Y-95709496D01*
X190745444Y-95785796D01*
X190765192Y-95820000D01*
X190239163Y-95820000D01*
X190255741Y-95903343D01*
X190255744Y-95903353D01*
X190316047Y-96048939D01*
X190316052Y-96048948D01*
X190403598Y-96179969D01*
X190403601Y-96179973D01*
X190515026Y-96291398D01*
X190515030Y-96291401D01*
X190646051Y-96378947D01*
X190646060Y-96378952D01*
X190791648Y-96439256D01*
X190791656Y-96439258D01*
X190946202Y-96469999D01*
X190946206Y-96470000D01*
X191275000Y-96470000D01*
X191275000Y-95970000D01*
X191575000Y-95970000D01*
X191575000Y-96470000D01*
X191903794Y-96470000D01*
X191903797Y-96469999D01*
X192058343Y-96439258D01*
X192058351Y-96439256D01*
X192203939Y-96378952D01*
X192203948Y-96378947D01*
X192334969Y-96291401D01*
X192334973Y-96291398D01*
X192446398Y-96179973D01*
X192446401Y-96179969D01*
X192533947Y-96048948D01*
X192533952Y-96048939D01*
X192594255Y-95903353D01*
X192594258Y-95903343D01*
X192610836Y-95820000D01*
X192084808Y-95820000D01*
X192104556Y-95785796D01*
X192125000Y-95709496D01*
X192125000Y-95630504D01*
X192104556Y-95554204D01*
X192084808Y-95520000D01*
X192610836Y-95520000D01*
X192610836Y-95519999D01*
X192594258Y-95436656D01*
X192594255Y-95436646D01*
X192533952Y-95291060D01*
X192533947Y-95291051D01*
X192446401Y-95160030D01*
X192446398Y-95160026D01*
X192334973Y-95048601D01*
X192334969Y-95048598D01*
X192203948Y-94961052D01*
X192203939Y-94961047D01*
X192058351Y-94900743D01*
X192058343Y-94900741D01*
X191903797Y-94870000D01*
X191575000Y-94870000D01*
X191575000Y-95370000D01*
X191275000Y-95370000D01*
X191275000Y-94870000D01*
X190946202Y-94870000D01*
X190791656Y-94900741D01*
X190791648Y-94900743D01*
X190646060Y-94961047D01*
X190646051Y-94961052D01*
X190515030Y-95048598D01*
X190515026Y-95048601D01*
X190403601Y-95160026D01*
X190403598Y-95160030D01*
X190316052Y-95291051D01*
X190316047Y-95291060D01*
X190255744Y-95436646D01*
X190255741Y-95436656D01*
X190239163Y-95519999D01*
X188580836Y-95519999D01*
X188564258Y-95436656D01*
X188564255Y-95436646D01*
X188503952Y-95291060D01*
X188503947Y-95291051D01*
X188416401Y-95160030D01*
X188416398Y-95160026D01*
X188304973Y-95048601D01*
X188304969Y-95048598D01*
X188173948Y-94961052D01*
X188173933Y-94961044D01*
X188152333Y-94952097D01*
X188097930Y-94908255D01*
X188075866Y-94841961D01*
X188093146Y-94774262D01*
X188130897Y-94734434D01*
X188143733Y-94725858D01*
X188230858Y-94638733D01*
X188299311Y-94536286D01*
X188346463Y-94422452D01*
X188370500Y-94301606D01*
X188370500Y-94178394D01*
X188346463Y-94057548D01*
X188299311Y-93943714D01*
X188299310Y-93943713D01*
X188299307Y-93943707D01*
X188230858Y-93841267D01*
X188230855Y-93841263D01*
X188143736Y-93754144D01*
X188143732Y-93754141D01*
X188041292Y-93685692D01*
X188041283Y-93685687D01*
X187927454Y-93638538D01*
X187927455Y-93638538D01*
X187927452Y-93638537D01*
X187927448Y-93638536D01*
X187927444Y-93638535D01*
X187806610Y-93614500D01*
X187806606Y-93614500D01*
X187683394Y-93614500D01*
X187683389Y-93614500D01*
X187562555Y-93638535D01*
X187562545Y-93638538D01*
X187448716Y-93685687D01*
X187448707Y-93685692D01*
X187346267Y-93754141D01*
X187331944Y-93768464D01*
X187270620Y-93801947D01*
X187200928Y-93796961D01*
X187144996Y-93755088D01*
X187121326Y-93696967D01*
X187120500Y-93690693D01*
X187120500Y-93690691D01*
X187089799Y-93576114D01*
X187030489Y-93473387D01*
X186946613Y-93389511D01*
X186843886Y-93330201D01*
X186729309Y-93299500D01*
X186610691Y-93299500D01*
X186496114Y-93330201D01*
X186496112Y-93330201D01*
X186496112Y-93330202D01*
X186393387Y-93389511D01*
X186393384Y-93389513D01*
X186309513Y-93473384D01*
X186309511Y-93473387D01*
X186284915Y-93515989D01*
X186250201Y-93576114D01*
X186219500Y-93690691D01*
X186219500Y-93809309D01*
X186250201Y-93923886D01*
X186309511Y-94026613D01*
X186393387Y-94110489D01*
X186496114Y-94169799D01*
X186610691Y-94200500D01*
X186610694Y-94200500D01*
X186729306Y-94200500D01*
X186729309Y-94200500D01*
X186843886Y-94169799D01*
X186933501Y-94118059D01*
X187001398Y-94101586D01*
X187067426Y-94124437D01*
X187110617Y-94179358D01*
X187119500Y-94225446D01*
X187119500Y-94301610D01*
X187143535Y-94422444D01*
X187143538Y-94422454D01*
X187190687Y-94536283D01*
X187190692Y-94536292D01*
X187259141Y-94638732D01*
X187259144Y-94638736D01*
X187346261Y-94725853D01*
X187349663Y-94728645D01*
X187388999Y-94786390D01*
X187395000Y-94824500D01*
X187395000Y-95370000D01*
X187095000Y-95370000D01*
X187095000Y-94870000D01*
X186616202Y-94870000D01*
X186461656Y-94900741D01*
X186461648Y-94900743D01*
X186316060Y-94961047D01*
X186316051Y-94961052D01*
X186185030Y-95048598D01*
X186185026Y-95048601D01*
X186073601Y-95160026D01*
X186073598Y-95160030D01*
X185986052Y-95291051D01*
X185986047Y-95291060D01*
X185925744Y-95436646D01*
X185925741Y-95436656D01*
X185909163Y-95519999D01*
X182017104Y-95519999D01*
X183300284Y-94236819D01*
X183361607Y-94203334D01*
X183387965Y-94200500D01*
X183679306Y-94200500D01*
X183679309Y-94200500D01*
X183793886Y-94169799D01*
X183896613Y-94110489D01*
X183980489Y-94026613D01*
X184039799Y-93923886D01*
X184070500Y-93809309D01*
X184070500Y-93690691D01*
X184039799Y-93576114D01*
X183980489Y-93473387D01*
X183896613Y-93389511D01*
X183793886Y-93330201D01*
X183679309Y-93299500D01*
X183090691Y-93299500D01*
X182976114Y-93330201D01*
X182976112Y-93330202D01*
X182976110Y-93330202D01*
X182935765Y-93353496D01*
X182873392Y-93389506D01*
X182873384Y-93389512D01*
X176999716Y-99263181D01*
X176938393Y-99296666D01*
X176912035Y-99299500D01*
X172829500Y-99299500D01*
X172762461Y-99279815D01*
X172716706Y-99227011D01*
X172705500Y-99175500D01*
X172705500Y-98999997D01*
X172705499Y-98999995D01*
X172700348Y-98954271D01*
X172660666Y-98871873D01*
X172589163Y-98814851D01*
X172500004Y-98794500D01*
X172500000Y-98794500D01*
X171500000Y-98794500D01*
X171482513Y-98795245D01*
X171482511Y-98795245D01*
X171388932Y-98825179D01*
X171319083Y-98826855D01*
X171297355Y-98818796D01*
X171289162Y-98814850D01*
X171200004Y-98794500D01*
X171200000Y-98794500D01*
X170974500Y-98794500D01*
X170907461Y-98774815D01*
X170861706Y-98722011D01*
X170850500Y-98670500D01*
X170850500Y-93910439D01*
X170847569Y-93899500D01*
X170830021Y-93834011D01*
X170816441Y-93810489D01*
X170790464Y-93765495D01*
X170790458Y-93765487D01*
X170336819Y-93311848D01*
X170303334Y-93250525D01*
X170300500Y-93224167D01*
X170300500Y-90737964D01*
X170320185Y-90670925D01*
X170336819Y-90650283D01*
X170360489Y-90626613D01*
X170419799Y-90523886D01*
X170450500Y-90409309D01*
X170450500Y-90290691D01*
X170419799Y-90176114D01*
X170360489Y-90073387D01*
X170276613Y-89989511D01*
X170209045Y-89950500D01*
X170173885Y-89930200D01*
X170166382Y-89927093D01*
X170167035Y-89925514D01*
X170115721Y-89894238D01*
X170085191Y-89831391D01*
X170093485Y-89762016D01*
X170137970Y-89708137D01*
X170204522Y-89686862D01*
X170207474Y-89686827D01*
X174266082Y-89686827D01*
X174333121Y-89706512D01*
X174373469Y-89748828D01*
X174389506Y-89776606D01*
X174389509Y-89776610D01*
X174389511Y-89776613D01*
X174473387Y-89860489D01*
X174576114Y-89919799D01*
X174690691Y-89950500D01*
X174690694Y-89950500D01*
X174809306Y-89950500D01*
X174809309Y-89950500D01*
X174923886Y-89919799D01*
X175026613Y-89860489D01*
X175110489Y-89776613D01*
X175169799Y-89673886D01*
X175200500Y-89559309D01*
X175200500Y-89440691D01*
X175200500Y-89432564D01*
X175201767Y-89432564D01*
X175211262Y-89371655D01*
X175257640Y-89319397D01*
X175323438Y-89300500D01*
X175409306Y-89300500D01*
X175409309Y-89300500D01*
X175523886Y-89269799D01*
X175626613Y-89210489D01*
X175710489Y-89126613D01*
X175736374Y-89081778D01*
X175786939Y-89033565D01*
X175855546Y-89020341D01*
X175920411Y-89046309D01*
X175960940Y-89103223D01*
X175963530Y-89111672D01*
X175980201Y-89173886D01*
X176039511Y-89276613D01*
X176039513Y-89276615D01*
X176063181Y-89300283D01*
X176096666Y-89361606D01*
X176099500Y-89387964D01*
X176099500Y-92023975D01*
X176079815Y-92091014D01*
X176037503Y-92131360D01*
X176023388Y-92139509D01*
X175939510Y-92223387D01*
X175895278Y-92300000D01*
X175880201Y-92326114D01*
X175849500Y-92440691D01*
X175849500Y-92559309D01*
X175880201Y-92673886D01*
X175939511Y-92776613D01*
X176023387Y-92860489D01*
X176126114Y-92919799D01*
X176240691Y-92950500D01*
X176240694Y-92950500D01*
X176359306Y-92950500D01*
X176359309Y-92950500D01*
X176473886Y-92919799D01*
X176576613Y-92860489D01*
X176660489Y-92776613D01*
X176719799Y-92673886D01*
X176750500Y-92559309D01*
X176750500Y-92559305D01*
X176751561Y-92551249D01*
X176752759Y-92551406D01*
X176758552Y-92519788D01*
X176762102Y-92510421D01*
X176776614Y-92485288D01*
X176787006Y-92446503D01*
X176800500Y-92396144D01*
X176800500Y-89240537D01*
X176817113Y-89178537D01*
X176819799Y-89173886D01*
X176850500Y-89059309D01*
X176850500Y-88940691D01*
X176819799Y-88826114D01*
X176760489Y-88723387D01*
X176676613Y-88639511D01*
X176573886Y-88580201D01*
X176459309Y-88549500D01*
X176340691Y-88549500D01*
X176226114Y-88580201D01*
X176226112Y-88580201D01*
X176226112Y-88580202D01*
X176123387Y-88639511D01*
X176123384Y-88639513D01*
X176039513Y-88723384D01*
X176039509Y-88723390D01*
X176013625Y-88768221D01*
X175963057Y-88816436D01*
X175894450Y-88829657D01*
X175829586Y-88803688D01*
X175789058Y-88746773D01*
X175786471Y-88738338D01*
X175769799Y-88676114D01*
X175710489Y-88573387D01*
X175626613Y-88489511D01*
X175523886Y-88430201D01*
X175409309Y-88399500D01*
X175290691Y-88399500D01*
X175176114Y-88430201D01*
X175176112Y-88430201D01*
X175176112Y-88430202D01*
X175167544Y-88435149D01*
X175084859Y-88482887D01*
X175022860Y-88499500D01*
X169725408Y-88499500D01*
X169658369Y-88479815D01*
X169612614Y-88427011D01*
X169602670Y-88357853D01*
X169631695Y-88294297D01*
X169663408Y-88268113D01*
X169664225Y-88267641D01*
X169676613Y-88260489D01*
X169760489Y-88176613D01*
X169819799Y-88073886D01*
X169850500Y-87959309D01*
X169850500Y-87840691D01*
X169819799Y-87726114D01*
X169760489Y-87623387D01*
X169676613Y-87539511D01*
X169674783Y-87537681D01*
X169641298Y-87476358D01*
X169646282Y-87406666D01*
X169674783Y-87362319D01*
X169707102Y-87330000D01*
X169760489Y-87276613D01*
X169819799Y-87173886D01*
X169850500Y-87059309D01*
X169850500Y-86940691D01*
X181049500Y-86940691D01*
X181049500Y-86947321D01*
X181049500Y-87059308D01*
X181065275Y-87118181D01*
X181069500Y-87150274D01*
X181069500Y-87849724D01*
X181065275Y-87881816D01*
X181049500Y-87940689D01*
X181049500Y-88059308D01*
X181065275Y-88118181D01*
X181069500Y-88150274D01*
X181069500Y-88250004D01*
X181074651Y-88295728D01*
X181114333Y-88378126D01*
X181114334Y-88378127D01*
X181185837Y-88435149D01*
X181252428Y-88450348D01*
X181274995Y-88455499D01*
X181275000Y-88455500D01*
X182424996Y-88455500D01*
X182425000Y-88455500D01*
X182498085Y-88442065D01*
X182503025Y-88438771D01*
X182569722Y-88417962D01*
X182625612Y-88430225D01*
X182635835Y-88435148D01*
X182635836Y-88435148D01*
X182635837Y-88435149D01*
X182702428Y-88450348D01*
X182724995Y-88455499D01*
X182725000Y-88455500D01*
X183725003Y-88455500D01*
X183725003Y-88455499D01*
X183770728Y-88450348D01*
X183853127Y-88410666D01*
X183910149Y-88339163D01*
X183930500Y-88250000D01*
X183930500Y-88150274D01*
X183934725Y-88118181D01*
X183935881Y-88113867D01*
X183950500Y-88059309D01*
X183950500Y-87940691D01*
X183941121Y-87905689D01*
X183934725Y-87881816D01*
X183930500Y-87849724D01*
X183930500Y-87150274D01*
X183933025Y-87131094D01*
X183932728Y-87129023D01*
X183934322Y-87121247D01*
X183934728Y-87118171D01*
X183935694Y-87114567D01*
X183940104Y-87098104D01*
X183950500Y-87059309D01*
X183950500Y-86940691D01*
X183934725Y-86881817D01*
X183934725Y-86881816D01*
X183934486Y-86879999D01*
X185909163Y-86879999D01*
X185909164Y-86880000D01*
X186435192Y-86880000D01*
X186415444Y-86914204D01*
X186395000Y-86990504D01*
X186395000Y-87069496D01*
X186415444Y-87145796D01*
X186435192Y-87180000D01*
X185909163Y-87180000D01*
X185925741Y-87263343D01*
X185925744Y-87263353D01*
X185986047Y-87408939D01*
X185986052Y-87408948D01*
X186073598Y-87539969D01*
X186073601Y-87539973D01*
X186185026Y-87651398D01*
X186185030Y-87651401D01*
X186316051Y-87738947D01*
X186316060Y-87738952D01*
X186461648Y-87799256D01*
X186461656Y-87799258D01*
X186616202Y-87829999D01*
X186616206Y-87830000D01*
X187095000Y-87830000D01*
X187095000Y-87330000D01*
X187395000Y-87330000D01*
X187395000Y-87875499D01*
X187375315Y-87942538D01*
X187349670Y-87971348D01*
X187346266Y-87974141D01*
X187259144Y-88061263D01*
X187259141Y-88061267D01*
X187190692Y-88163707D01*
X187190687Y-88163716D01*
X187143538Y-88277545D01*
X187143535Y-88277555D01*
X187119500Y-88398389D01*
X187119500Y-88474553D01*
X187099815Y-88541592D01*
X187047011Y-88587347D01*
X186977853Y-88597291D01*
X186933500Y-88581940D01*
X186843886Y-88530201D01*
X186729309Y-88499500D01*
X186610691Y-88499500D01*
X186496114Y-88530201D01*
X186496112Y-88530201D01*
X186496112Y-88530202D01*
X186393387Y-88589511D01*
X186393384Y-88589513D01*
X186309513Y-88673384D01*
X186309511Y-88673387D01*
X186261651Y-88756283D01*
X186250201Y-88776114D01*
X186219500Y-88890691D01*
X186219500Y-89009309D01*
X186250201Y-89123886D01*
X186309511Y-89226613D01*
X186393387Y-89310489D01*
X186496114Y-89369799D01*
X186610691Y-89400500D01*
X186610694Y-89400500D01*
X186729306Y-89400500D01*
X186729309Y-89400500D01*
X186843886Y-89369799D01*
X186946613Y-89310489D01*
X187030489Y-89226613D01*
X187089799Y-89123886D01*
X187120500Y-89009309D01*
X187120500Y-89009304D01*
X187121326Y-89003034D01*
X187149593Y-88939137D01*
X187207917Y-88900666D01*
X187277782Y-88899835D01*
X187331946Y-88931538D01*
X187346263Y-88945855D01*
X187346267Y-88945858D01*
X187448707Y-89014307D01*
X187448716Y-89014312D01*
X187469739Y-89023020D01*
X187562548Y-89061463D01*
X187664692Y-89081780D01*
X187683389Y-89085499D01*
X187683393Y-89085500D01*
X187683394Y-89085500D01*
X187806607Y-89085500D01*
X187806608Y-89085499D01*
X187927452Y-89061463D01*
X188041286Y-89014311D01*
X188143733Y-88945858D01*
X188230858Y-88858733D01*
X188299311Y-88756286D01*
X188346463Y-88642452D01*
X188370500Y-88521606D01*
X188370500Y-88398394D01*
X188346463Y-88277548D01*
X188299311Y-88163714D01*
X188299310Y-88163713D01*
X188299307Y-88163707D01*
X188230858Y-88061267D01*
X188230855Y-88061263D01*
X188143736Y-87974144D01*
X188130895Y-87965564D01*
X188086091Y-87911951D01*
X188077384Y-87842626D01*
X188107539Y-87779599D01*
X188152336Y-87747900D01*
X188173941Y-87738951D01*
X188173948Y-87738947D01*
X188304969Y-87651401D01*
X188304973Y-87651398D01*
X188416398Y-87539973D01*
X188416401Y-87539969D01*
X188503947Y-87408948D01*
X188503952Y-87408939D01*
X188564255Y-87263353D01*
X188564258Y-87263343D01*
X188580836Y-87180000D01*
X188054808Y-87180000D01*
X188074556Y-87145796D01*
X188095000Y-87069496D01*
X188095000Y-86990504D01*
X188074556Y-86914204D01*
X188054808Y-86880000D01*
X188580836Y-86880000D01*
X188580836Y-86879999D01*
X190239163Y-86879999D01*
X190239164Y-86880000D01*
X190765192Y-86880000D01*
X190745444Y-86914204D01*
X190725000Y-86990504D01*
X190725000Y-87069496D01*
X190745444Y-87145796D01*
X190765192Y-87180000D01*
X190239163Y-87180000D01*
X190255741Y-87263343D01*
X190255744Y-87263353D01*
X190316047Y-87408939D01*
X190316052Y-87408948D01*
X190403598Y-87539969D01*
X190403601Y-87539973D01*
X190515026Y-87651398D01*
X190515030Y-87651401D01*
X190646051Y-87738947D01*
X190646060Y-87738952D01*
X190791648Y-87799256D01*
X190791656Y-87799258D01*
X190946202Y-87829999D01*
X190946206Y-87830000D01*
X191275000Y-87830000D01*
X191275000Y-87330000D01*
X191575000Y-87330000D01*
X191575000Y-87830000D01*
X191903794Y-87830000D01*
X191903797Y-87829999D01*
X192058343Y-87799258D01*
X192058351Y-87799256D01*
X192203939Y-87738952D01*
X192203948Y-87738947D01*
X192334969Y-87651401D01*
X192334973Y-87651398D01*
X192446398Y-87539973D01*
X192446401Y-87539969D01*
X192533947Y-87408948D01*
X192533952Y-87408939D01*
X192594255Y-87263353D01*
X192594258Y-87263343D01*
X192610836Y-87180000D01*
X192084808Y-87180000D01*
X192104556Y-87145796D01*
X192125000Y-87069496D01*
X192125000Y-86990504D01*
X192104556Y-86914204D01*
X192084808Y-86880000D01*
X192610836Y-86880000D01*
X192610836Y-86879999D01*
X192594258Y-86796656D01*
X192594255Y-86796646D01*
X192533952Y-86651060D01*
X192533947Y-86651051D01*
X192446401Y-86520030D01*
X192446398Y-86520026D01*
X192334973Y-86408601D01*
X192334969Y-86408598D01*
X192203948Y-86321052D01*
X192203939Y-86321047D01*
X192058351Y-86260743D01*
X192058343Y-86260741D01*
X191903797Y-86230000D01*
X191575000Y-86230000D01*
X191575000Y-86730000D01*
X191275000Y-86730000D01*
X191275000Y-86230000D01*
X190946202Y-86230000D01*
X190791656Y-86260741D01*
X190791648Y-86260743D01*
X190646060Y-86321047D01*
X190646051Y-86321052D01*
X190515030Y-86408598D01*
X190515026Y-86408601D01*
X190403601Y-86520026D01*
X190403598Y-86520030D01*
X190316052Y-86651051D01*
X190316047Y-86651060D01*
X190255744Y-86796646D01*
X190255741Y-86796656D01*
X190239163Y-86879999D01*
X188580836Y-86879999D01*
X188564258Y-86796656D01*
X188564255Y-86796646D01*
X188503952Y-86651060D01*
X188503947Y-86651051D01*
X188416401Y-86520030D01*
X188416398Y-86520026D01*
X188304973Y-86408601D01*
X188304969Y-86408598D01*
X188173948Y-86321052D01*
X188173939Y-86321047D01*
X188028351Y-86260743D01*
X188028343Y-86260741D01*
X187873797Y-86230000D01*
X187395000Y-86230000D01*
X187395000Y-86730000D01*
X187095000Y-86730000D01*
X187095000Y-86230000D01*
X186616202Y-86230000D01*
X186461656Y-86260741D01*
X186461648Y-86260743D01*
X186316060Y-86321047D01*
X186316051Y-86321052D01*
X186185030Y-86408598D01*
X186185026Y-86408601D01*
X186073601Y-86520026D01*
X186073598Y-86520030D01*
X185986052Y-86651051D01*
X185986047Y-86651060D01*
X185925744Y-86796646D01*
X185925741Y-86796656D01*
X185909163Y-86879999D01*
X183934486Y-86879999D01*
X183930500Y-86849724D01*
X183930500Y-86749997D01*
X183930499Y-86749995D01*
X183928246Y-86730000D01*
X183925348Y-86704272D01*
X183924327Y-86702152D01*
X183885666Y-86621873D01*
X183814163Y-86564851D01*
X183725004Y-86544500D01*
X183725000Y-86544500D01*
X182725000Y-86544500D01*
X182707513Y-86545245D01*
X182707511Y-86545245D01*
X182613932Y-86575179D01*
X182544083Y-86576855D01*
X182522355Y-86568796D01*
X182514162Y-86564850D01*
X182425004Y-86544500D01*
X182425000Y-86544500D01*
X181275000Y-86544500D01*
X181274995Y-86544500D01*
X181229271Y-86549651D01*
X181146873Y-86589333D01*
X181089851Y-86660836D01*
X181069500Y-86749995D01*
X181069500Y-86849724D01*
X181066969Y-86868948D01*
X181066037Y-86878825D01*
X181065673Y-86880331D01*
X181049500Y-86940691D01*
X169850500Y-86940691D01*
X169819799Y-86826114D01*
X169760489Y-86723387D01*
X169676613Y-86639511D01*
X169573886Y-86580201D01*
X169459309Y-86549500D01*
X169340691Y-86549500D01*
X169226114Y-86580201D01*
X169226112Y-86580201D01*
X169226112Y-86580202D01*
X169123387Y-86639511D01*
X169123384Y-86639513D01*
X169039513Y-86723384D01*
X169039511Y-86723387D01*
X168997215Y-86796646D01*
X168980201Y-86826114D01*
X168949500Y-86940691D01*
X168949500Y-87059309D01*
X168980201Y-87173886D01*
X169039511Y-87276613D01*
X169039513Y-87276615D01*
X169125217Y-87362319D01*
X169158702Y-87423642D01*
X169153718Y-87493334D01*
X169125217Y-87537681D01*
X169039513Y-87623384D01*
X169039511Y-87623387D01*
X168980201Y-87726114D01*
X168949500Y-87840691D01*
X168949500Y-87959309D01*
X168980201Y-88073886D01*
X169039511Y-88176613D01*
X169123387Y-88260489D01*
X169123388Y-88260490D01*
X169123390Y-88260491D01*
X169136592Y-88268113D01*
X169184808Y-88318680D01*
X169198030Y-88387288D01*
X169172062Y-88452152D01*
X169115148Y-88492680D01*
X169074592Y-88499500D01*
X166227140Y-88499500D01*
X166165140Y-88482887D01*
X166073886Y-88430201D01*
X165959309Y-88399500D01*
X165840691Y-88399500D01*
X165726114Y-88430201D01*
X165726112Y-88430201D01*
X165726112Y-88430202D01*
X165623387Y-88489511D01*
X165623384Y-88489513D01*
X165539513Y-88573384D01*
X165539511Y-88573387D01*
X165499641Y-88642444D01*
X165480201Y-88676114D01*
X165449500Y-88790691D01*
X165164880Y-88790691D01*
X165164880Y-88292269D01*
X165184565Y-88225230D01*
X165201199Y-88204588D01*
X167475096Y-85930691D01*
X175799500Y-85930691D01*
X175799500Y-86049309D01*
X175830201Y-86163886D01*
X175889511Y-86266613D01*
X175973387Y-86350489D01*
X176076114Y-86409799D01*
X176190691Y-86440500D01*
X176190694Y-86440500D01*
X176309306Y-86440500D01*
X176309309Y-86440500D01*
X176423886Y-86409799D01*
X176526613Y-86350489D01*
X176610489Y-86266613D01*
X176669799Y-86163886D01*
X176700500Y-86049309D01*
X176700500Y-85930691D01*
X176669799Y-85816114D01*
X176610489Y-85713387D01*
X176526613Y-85629511D01*
X176423886Y-85570201D01*
X176309309Y-85539500D01*
X176190691Y-85539500D01*
X176076114Y-85570201D01*
X176076112Y-85570201D01*
X176076112Y-85570202D01*
X175973387Y-85629511D01*
X175973384Y-85629513D01*
X175889513Y-85713384D01*
X175889511Y-85713387D01*
X175830743Y-85815176D01*
X175830201Y-85816114D01*
X175799500Y-85930691D01*
X167475096Y-85930691D01*
X167520968Y-85884819D01*
X167582291Y-85851334D01*
X167608649Y-85848500D01*
X174148142Y-85848500D01*
X174148144Y-85848500D01*
X174237288Y-85824614D01*
X174252010Y-85816114D01*
X174317212Y-85778470D01*
X174516519Y-85579162D01*
X174572100Y-85547072D01*
X174673886Y-85519799D01*
X174776613Y-85460489D01*
X174860489Y-85376613D01*
X174919799Y-85273886D01*
X174950500Y-85159309D01*
X174950500Y-85040691D01*
X174919799Y-84926114D01*
X174860489Y-84823387D01*
X174776613Y-84739511D01*
X174673886Y-84680201D01*
X174559309Y-84649500D01*
X174440691Y-84649500D01*
X174326114Y-84680201D01*
X174326112Y-84680201D01*
X174326112Y-84680202D01*
X174223387Y-84739511D01*
X174223384Y-84739513D01*
X174139513Y-84823384D01*
X174139511Y-84823387D01*
X174080201Y-84926114D01*
X174052929Y-85027895D01*
X174044911Y-85041782D01*
X174041987Y-85055226D01*
X174020837Y-85083481D01*
X173993136Y-85111181D01*
X173931816Y-85144666D01*
X173905456Y-85147500D01*
X167365962Y-85147500D01*
X167276818Y-85171386D01*
X167276817Y-85171386D01*
X167276815Y-85171387D01*
X167276812Y-85171388D01*
X167196900Y-85217526D01*
X167196891Y-85217533D01*
X164533911Y-87880512D01*
X164533910Y-87880514D01*
X164499169Y-87940689D01*
X164499168Y-87940690D01*
X164499166Y-87940693D01*
X164487766Y-87960436D01*
X164463880Y-88049582D01*
X164463880Y-92439076D01*
X164444195Y-92506115D01*
X164427561Y-92526757D01*
X163091137Y-93863181D01*
X163029814Y-93896666D01*
X163003456Y-93899500D01*
X159595544Y-93899500D01*
X159528505Y-93879815D01*
X159482750Y-93827011D01*
X159472806Y-93757853D01*
X159501831Y-93694297D01*
X159507863Y-93687819D01*
X159756122Y-93439560D01*
X160513030Y-92682650D01*
X160538708Y-92662947D01*
X160544733Y-92659470D01*
X162030470Y-91173733D01*
X162076614Y-91093809D01*
X162090847Y-91040691D01*
X162100500Y-91004665D01*
X162100500Y-78424995D01*
X162669500Y-78424995D01*
X162669500Y-79925004D01*
X162674651Y-79970728D01*
X162714333Y-80053126D01*
X162714334Y-80053127D01*
X162785837Y-80110149D01*
X162852428Y-80125348D01*
X162874995Y-80130499D01*
X162875000Y-80130500D01*
X164024996Y-80130500D01*
X164025000Y-80130500D01*
X164098085Y-80117065D01*
X164103025Y-80113771D01*
X164169722Y-80092962D01*
X164225612Y-80105225D01*
X164235835Y-80110148D01*
X164235836Y-80110148D01*
X164235837Y-80110149D01*
X164302428Y-80125348D01*
X164324995Y-80130499D01*
X164325000Y-80130500D01*
X165325003Y-80130500D01*
X165325003Y-80130499D01*
X165370728Y-80125348D01*
X165453127Y-80085666D01*
X165510149Y-80014163D01*
X165530500Y-79925000D01*
X165530500Y-78425000D01*
X165525348Y-78379272D01*
X165504430Y-78335837D01*
X165485666Y-78296873D01*
X165414163Y-78239851D01*
X165325004Y-78219500D01*
X165325000Y-78219500D01*
X164325000Y-78219500D01*
X164307513Y-78220245D01*
X164307511Y-78220245D01*
X164213932Y-78250179D01*
X164144083Y-78251855D01*
X164122355Y-78243796D01*
X164114162Y-78239850D01*
X164025004Y-78219500D01*
X164025000Y-78219500D01*
X162875000Y-78219500D01*
X162874995Y-78219500D01*
X162829271Y-78224651D01*
X162746873Y-78264333D01*
X162689851Y-78335836D01*
X162669500Y-78424995D01*
X162100500Y-78424995D01*
X162100500Y-77446544D01*
X162120185Y-77379505D01*
X162136819Y-77358863D01*
X163708863Y-75786819D01*
X163770186Y-75753334D01*
X163796544Y-75750500D01*
X171953456Y-75750500D01*
X172020495Y-75770185D01*
X172041137Y-75786819D01*
X172528803Y-76274485D01*
X172535727Y-76287166D01*
X172546498Y-76296805D01*
X172552139Y-76317221D01*
X172562288Y-76335808D01*
X172561257Y-76350222D01*
X172565106Y-76364152D01*
X172558814Y-76384374D01*
X172557304Y-76405500D01*
X172548643Y-76417068D01*
X172544351Y-76430867D01*
X172528123Y-76444479D01*
X172515432Y-76461433D01*
X172501893Y-76466482D01*
X172490821Y-76475771D01*
X172469809Y-76478449D01*
X172449968Y-76485850D01*
X172434560Y-76482942D01*
X172421512Y-76484606D01*
X172396719Y-76475802D01*
X172387811Y-76474121D01*
X172383371Y-76472006D01*
X172310962Y-76430201D01*
X172286748Y-76423713D01*
X172196384Y-76399500D01*
X172196383Y-76399500D01*
X171546984Y-76399500D01*
X171494579Y-76387882D01*
X171458247Y-76370940D01*
X171383173Y-76335932D01*
X171383171Y-76335931D01*
X171383172Y-76335931D01*
X171334317Y-76329500D01*
X171334316Y-76329500D01*
X170985684Y-76329500D01*
X170985683Y-76329500D01*
X170936828Y-76335931D01*
X170829595Y-76385935D01*
X170738264Y-76477267D01*
X170735440Y-76474443D01*
X170696958Y-76505183D01*
X170627458Y-76512352D01*
X170565114Y-76480808D01*
X170561901Y-76477101D01*
X170561736Y-76477267D01*
X170470404Y-76385935D01*
X170438247Y-76370940D01*
X170363173Y-76335932D01*
X170363171Y-76335931D01*
X170363172Y-76335931D01*
X170314317Y-76329500D01*
X170314316Y-76329500D01*
X169965684Y-76329500D01*
X169965683Y-76329500D01*
X169916828Y-76335931D01*
X169809595Y-76385934D01*
X169800711Y-76392156D01*
X169799425Y-76390320D01*
X169791019Y-76399568D01*
X169758575Y-76413463D01*
X169720330Y-76423712D01*
X169720329Y-76423712D01*
X169696116Y-76430200D01*
X169696107Y-76430204D01*
X169593393Y-76489505D01*
X169593385Y-76489511D01*
X164689513Y-81393384D01*
X164689509Y-81393390D01*
X164630201Y-81496113D01*
X164630201Y-81496114D01*
X164630201Y-81496115D01*
X164599500Y-81610692D01*
X164599500Y-83209309D01*
X164630201Y-83323886D01*
X164689511Y-83426613D01*
X164773387Y-83510489D01*
X164876114Y-83569799D01*
X164990691Y-83600500D01*
X164990694Y-83600500D01*
X165109306Y-83600500D01*
X165109309Y-83600500D01*
X165223886Y-83569799D01*
X165326613Y-83510489D01*
X165410489Y-83426613D01*
X165469799Y-83323886D01*
X165500500Y-83209309D01*
X165500500Y-81907966D01*
X165520185Y-81840927D01*
X165536819Y-81820285D01*
X169950286Y-77406819D01*
X170011609Y-77373334D01*
X170037967Y-77370500D01*
X170314317Y-77370500D01*
X170330601Y-77368356D01*
X170363173Y-77364068D01*
X170470404Y-77314065D01*
X170554065Y-77230404D01*
X170554065Y-77230403D01*
X170561736Y-77222733D01*
X170564564Y-77225561D01*
X170602977Y-77194843D01*
X170672474Y-77187635D01*
X170734835Y-77219143D01*
X170738093Y-77222903D01*
X170738264Y-77222733D01*
X170745935Y-77230404D01*
X170829596Y-77314065D01*
X170936827Y-77364068D01*
X170985683Y-77370500D01*
X170985684Y-77370500D01*
X171334317Y-77370500D01*
X171350601Y-77368356D01*
X171383173Y-77364068D01*
X171490404Y-77314065D01*
X171490404Y-77314064D01*
X171494579Y-77312118D01*
X171546984Y-77300500D01*
X171899110Y-77300500D01*
X171966149Y-77320185D01*
X171986791Y-77336819D01*
X175313181Y-80663209D01*
X175346666Y-80724532D01*
X175349500Y-80750890D01*
X175349500Y-81559309D01*
X175380201Y-81673886D01*
X175439511Y-81776613D01*
X175523387Y-81860489D01*
X175626114Y-81919799D01*
X175740691Y-81950500D01*
X175740694Y-81950500D01*
X175859306Y-81950500D01*
X175859309Y-81950500D01*
X175973886Y-81919799D01*
X176076613Y-81860489D01*
X176160489Y-81776613D01*
X176219799Y-81673886D01*
X176250500Y-81559309D01*
X176250500Y-80453616D01*
X176219799Y-80339039D01*
X176219799Y-80339038D01*
X176180444Y-80270874D01*
X176163972Y-80202977D01*
X176186824Y-80136950D01*
X176241745Y-80093759D01*
X176311298Y-80087117D01*
X176373401Y-80119132D01*
X176375513Y-80121195D01*
X177113181Y-80858863D01*
X177146666Y-80920186D01*
X177149500Y-80946544D01*
X177149500Y-84472859D01*
X177132887Y-84534859D01*
X177080202Y-84626110D01*
X177080201Y-84626114D01*
X177049500Y-84740691D01*
X177049500Y-84859309D01*
X177080201Y-84973886D01*
X177139511Y-85076613D01*
X177223387Y-85160489D01*
X177326114Y-85219799D01*
X177440691Y-85250500D01*
X177440694Y-85250500D01*
X177559306Y-85250500D01*
X177559309Y-85250500D01*
X177673886Y-85219799D01*
X177776613Y-85160489D01*
X177860489Y-85076613D01*
X177919799Y-84973886D01*
X177950500Y-84859309D01*
X177950500Y-84740691D01*
X177919799Y-84626114D01*
X177919797Y-84626110D01*
X177867113Y-84534859D01*
X177850500Y-84472859D01*
X177850500Y-83898819D01*
X177851500Y-83895087D01*
X177851500Y-83754856D01*
X177850500Y-83751123D01*
X177850500Y-81605513D01*
X186599500Y-81605513D01*
X186599500Y-81794486D01*
X186629059Y-81981118D01*
X186687454Y-82160836D01*
X186773240Y-82329199D01*
X186884310Y-82482073D01*
X187017927Y-82615690D01*
X187170801Y-82726760D01*
X187250347Y-82767290D01*
X187339163Y-82812545D01*
X187339165Y-82812545D01*
X187339168Y-82812547D01*
X187435497Y-82843846D01*
X187518881Y-82870940D01*
X187705514Y-82900500D01*
X187705519Y-82900500D01*
X187894486Y-82900500D01*
X188081118Y-82870940D01*
X188260832Y-82812547D01*
X188429199Y-82726760D01*
X188582073Y-82615690D01*
X188715690Y-82482073D01*
X188826760Y-82329199D01*
X188912547Y-82160832D01*
X188970940Y-81981118D01*
X188993144Y-81840927D01*
X189000500Y-81794486D01*
X189000500Y-81605514D01*
X189000499Y-81605512D01*
X188970940Y-81418881D01*
X188912545Y-81239163D01*
X188826759Y-81070800D01*
X188823765Y-81066679D01*
X188715690Y-80917927D01*
X188582073Y-80784310D01*
X188429199Y-80673240D01*
X188409512Y-80663209D01*
X188260836Y-80587454D01*
X188081118Y-80529059D01*
X187894486Y-80499500D01*
X187894481Y-80499500D01*
X187705519Y-80499500D01*
X187705514Y-80499500D01*
X187518881Y-80529059D01*
X187339163Y-80587454D01*
X187170800Y-80673240D01*
X187128659Y-80703858D01*
X187017927Y-80784310D01*
X187017925Y-80784312D01*
X187017924Y-80784312D01*
X186884312Y-80917924D01*
X186884312Y-80917925D01*
X186884310Y-80917927D01*
X186836610Y-80983579D01*
X186773240Y-81070800D01*
X186687454Y-81239163D01*
X186629059Y-81418881D01*
X186599500Y-81605513D01*
X177850500Y-81605513D01*
X177850500Y-80703856D01*
X177826614Y-80614712D01*
X177811276Y-80588147D01*
X177802089Y-80572234D01*
X177802089Y-80572233D01*
X177780472Y-80534791D01*
X177780468Y-80534786D01*
X172365213Y-75119531D01*
X172365208Y-75119527D01*
X172340935Y-75105513D01*
X186599500Y-75105513D01*
X186599500Y-75294486D01*
X186629059Y-75481118D01*
X186687454Y-75660836D01*
X186758617Y-75800500D01*
X186773240Y-75829199D01*
X186884310Y-75982073D01*
X187017927Y-76115690D01*
X187170801Y-76226760D01*
X187196062Y-76239631D01*
X187339163Y-76312545D01*
X187339165Y-76312545D01*
X187339168Y-76312547D01*
X187391344Y-76329500D01*
X187518881Y-76370940D01*
X187705514Y-76400500D01*
X187705519Y-76400500D01*
X187894486Y-76400500D01*
X188081118Y-76370940D01*
X188102009Y-76364152D01*
X188260832Y-76312547D01*
X188429199Y-76226760D01*
X188582073Y-76115690D01*
X188715690Y-75982073D01*
X188826760Y-75829199D01*
X188912547Y-75660832D01*
X188970940Y-75481118D01*
X189000500Y-75294486D01*
X189000500Y-75105514D01*
X189000499Y-75105512D01*
X188970940Y-74918881D01*
X188912545Y-74739163D01*
X188846982Y-74610489D01*
X188826760Y-74570801D01*
X188715690Y-74417927D01*
X188582073Y-74284310D01*
X188429199Y-74173240D01*
X188260836Y-74087454D01*
X188081118Y-74029059D01*
X187894486Y-73999500D01*
X187894481Y-73999500D01*
X187705519Y-73999500D01*
X187705514Y-73999500D01*
X187518881Y-74029059D01*
X187339163Y-74087454D01*
X187170800Y-74173240D01*
X187083579Y-74236610D01*
X187017927Y-74284310D01*
X187017925Y-74284312D01*
X187017924Y-74284312D01*
X186884312Y-74417924D01*
X186884312Y-74417925D01*
X186884310Y-74417927D01*
X186877554Y-74427226D01*
X186773240Y-74570800D01*
X186687454Y-74739163D01*
X186629059Y-74918881D01*
X186599500Y-75105513D01*
X172340935Y-75105513D01*
X172285290Y-75073387D01*
X172285289Y-75073386D01*
X172285288Y-75073386D01*
X172196144Y-75049500D01*
X163553856Y-75049500D01*
X163464712Y-75073386D01*
X163464709Y-75073387D01*
X163384791Y-75119527D01*
X163384786Y-75119531D01*
X161469531Y-77034786D01*
X161469525Y-77034794D01*
X161446709Y-77074314D01*
X161446709Y-77074316D01*
X161423386Y-77114710D01*
X161399500Y-77203856D01*
X161399500Y-90761976D01*
X161379815Y-90829015D01*
X161363181Y-90849657D01*
X160137490Y-92075347D01*
X160111817Y-92095049D01*
X160105784Y-92098532D01*
X159141137Y-93063181D01*
X159079814Y-93096666D01*
X159053456Y-93099500D01*
X157827140Y-93099500D01*
X157765140Y-93082887D01*
X157673886Y-93030201D01*
X157559309Y-92999500D01*
X157440691Y-92999500D01*
X157326114Y-93030201D01*
X157326112Y-93030201D01*
X157326112Y-93030202D01*
X157223387Y-93089511D01*
X157223384Y-93089513D01*
X157139513Y-93173384D01*
X157139511Y-93173387D01*
X157080201Y-93276114D01*
X157049500Y-93390691D01*
X151488500Y-93390691D01*
X151488500Y-89230140D01*
X151505112Y-89168140D01*
X151557799Y-89076886D01*
X151588500Y-88962309D01*
X151588500Y-88843691D01*
X153087500Y-88843691D01*
X153087500Y-88962309D01*
X153118201Y-89076886D01*
X153177511Y-89179613D01*
X153261387Y-89263489D01*
X153364114Y-89322799D01*
X153478691Y-89353500D01*
X153478694Y-89353500D01*
X153597306Y-89353500D01*
X153597309Y-89353500D01*
X153711886Y-89322799D01*
X153814613Y-89263489D01*
X153898489Y-89179613D01*
X153957799Y-89076886D01*
X153988500Y-88962309D01*
X153988500Y-88843691D01*
X153957799Y-88729114D01*
X153898489Y-88626387D01*
X153814613Y-88542511D01*
X153711886Y-88483201D01*
X153597309Y-88452500D01*
X153478691Y-88452500D01*
X153364114Y-88483201D01*
X153364112Y-88483201D01*
X153364112Y-88483202D01*
X153261387Y-88542511D01*
X153261384Y-88542513D01*
X153177513Y-88626384D01*
X153177511Y-88626387D01*
X153121508Y-88723387D01*
X153118201Y-88729114D01*
X153087500Y-88843691D01*
X151588500Y-88843691D01*
X151557799Y-88729114D01*
X151498489Y-88626387D01*
X151414613Y-88542511D01*
X151311886Y-88483201D01*
X151197309Y-88452500D01*
X151078691Y-88452500D01*
X150964114Y-88483201D01*
X150964112Y-88483201D01*
X150964112Y-88483202D01*
X150861387Y-88542511D01*
X150861384Y-88542513D01*
X150777513Y-88626384D01*
X150777511Y-88626387D01*
X150721508Y-88723387D01*
X150718201Y-88729114D01*
X150687500Y-88843691D01*
X150687500Y-88962309D01*
X150718201Y-89076886D01*
X150770887Y-89168140D01*
X150787500Y-89230140D01*
X150787500Y-97615456D01*
X150767815Y-97682495D01*
X150751181Y-97703137D01*
X147919531Y-100534786D01*
X147919525Y-100534794D01*
X147888439Y-100588637D01*
X147888437Y-100588642D01*
X147881481Y-100600691D01*
X147873386Y-100614712D01*
X147849500Y-100703856D01*
X134600500Y-100703856D01*
X134600500Y-97865691D01*
X145774500Y-97865691D01*
X145774500Y-97984309D01*
X145805201Y-98098886D01*
X145864511Y-98201613D01*
X145948387Y-98285489D01*
X146051114Y-98344799D01*
X146165691Y-98375500D01*
X146165694Y-98375500D01*
X146284306Y-98375500D01*
X146284309Y-98375500D01*
X146398886Y-98344799D01*
X146501613Y-98285489D01*
X146585489Y-98201613D01*
X146644799Y-98098886D01*
X146675500Y-97984309D01*
X146675500Y-97865691D01*
X146644799Y-97751114D01*
X146585489Y-97648387D01*
X146501613Y-97564511D01*
X146398886Y-97505201D01*
X146284309Y-97474500D01*
X146165691Y-97474500D01*
X146051114Y-97505201D01*
X146051112Y-97505201D01*
X146051112Y-97505202D01*
X145948387Y-97564511D01*
X145948384Y-97564513D01*
X145864513Y-97648384D01*
X145864511Y-97648387D01*
X145805201Y-97751114D01*
X145774500Y-97865691D01*
X134600500Y-97865691D01*
X134600500Y-97193691D01*
X147487500Y-97193691D01*
X147487500Y-97312309D01*
X147518201Y-97426886D01*
X147577511Y-97529613D01*
X147661387Y-97613489D01*
X147764114Y-97672799D01*
X147878691Y-97703500D01*
X147878694Y-97703500D01*
X147997306Y-97703500D01*
X147997309Y-97703500D01*
X148111886Y-97672799D01*
X148214613Y-97613489D01*
X148298489Y-97529613D01*
X148357799Y-97426886D01*
X148388500Y-97312309D01*
X148388500Y-97193691D01*
X148357799Y-97079114D01*
X148298489Y-96976387D01*
X148214613Y-96892511D01*
X148111886Y-96833201D01*
X147997309Y-96802500D01*
X147878691Y-96802500D01*
X147764114Y-96833201D01*
X147764112Y-96833201D01*
X147764112Y-96833202D01*
X147661387Y-96892511D01*
X147661384Y-96892513D01*
X147577513Y-96976384D01*
X147577511Y-96976387D01*
X147518201Y-97079114D01*
X147487500Y-97193691D01*
X134600500Y-97193691D01*
X134600500Y-92377140D01*
X134617112Y-92315140D01*
X134669799Y-92223886D01*
X134700500Y-92109309D01*
X134700500Y-91990691D01*
X134669799Y-91876114D01*
X134669797Y-91876110D01*
X134617113Y-91784859D01*
X134600500Y-91722859D01*
X134600500Y-87340691D01*
X142849494Y-87340691D01*
X142849494Y-87459309D01*
X142880195Y-87573886D01*
X142932881Y-87665140D01*
X142949494Y-87727140D01*
X142949494Y-91266793D01*
X142972992Y-91354491D01*
X142973379Y-91355935D01*
X143019521Y-91435856D01*
X143019525Y-91435861D01*
X144499598Y-92915934D01*
X144519303Y-92941613D01*
X144539511Y-92976613D01*
X144623387Y-93060489D01*
X144726114Y-93119799D01*
X144840691Y-93150500D01*
X144840694Y-93150500D01*
X144959306Y-93150500D01*
X144959309Y-93150500D01*
X145073886Y-93119799D01*
X145176613Y-93060489D01*
X145260489Y-92976613D01*
X145319799Y-92873886D01*
X145350500Y-92759309D01*
X145350500Y-92640691D01*
X145319799Y-92526114D01*
X145260489Y-92423387D01*
X145224783Y-92387681D01*
X145191298Y-92326358D01*
X145196282Y-92256666D01*
X145224783Y-92212319D01*
X145232490Y-92204612D01*
X145260489Y-92176613D01*
X145319799Y-92073886D01*
X145350500Y-91959309D01*
X145350500Y-91840691D01*
X145319799Y-91726114D01*
X145260489Y-91623387D01*
X145224783Y-91587681D01*
X145191298Y-91526358D01*
X145196282Y-91456666D01*
X145224783Y-91412319D01*
X145260489Y-91376613D01*
X145319799Y-91273886D01*
X145350500Y-91159309D01*
X145350500Y-91040691D01*
X145319799Y-90926114D01*
X145319797Y-90926110D01*
X145267113Y-90834859D01*
X145250500Y-90772859D01*
X145250500Y-87727140D01*
X145267112Y-87665140D01*
X145319799Y-87573886D01*
X145350500Y-87459309D01*
X145350500Y-87350691D01*
X153099500Y-87350691D01*
X153099500Y-87469309D01*
X153130201Y-87583886D01*
X153189511Y-87686613D01*
X153273387Y-87770489D01*
X153376114Y-87829799D01*
X153490691Y-87860500D01*
X153490694Y-87860500D01*
X153609306Y-87860500D01*
X153609309Y-87860500D01*
X153723886Y-87829799D01*
X153826613Y-87770489D01*
X153910489Y-87686613D01*
X153942613Y-87630972D01*
X153993180Y-87582757D01*
X154061787Y-87569535D01*
X154126652Y-87595503D01*
X154157386Y-87630972D01*
X154189511Y-87686613D01*
X154273387Y-87770489D01*
X154376114Y-87829799D01*
X154490691Y-87860500D01*
X154490694Y-87860500D01*
X154609306Y-87860500D01*
X154609309Y-87860500D01*
X154723886Y-87829799D01*
X154826613Y-87770489D01*
X154910489Y-87686613D01*
X154917613Y-87674274D01*
X154968180Y-87626058D01*
X155036787Y-87612836D01*
X155101652Y-87638804D01*
X155132387Y-87674274D01*
X155139508Y-87686609D01*
X155139510Y-87686611D01*
X155139511Y-87686613D01*
X155223387Y-87770489D01*
X155326114Y-87829799D01*
X155440691Y-87860500D01*
X155440694Y-87860500D01*
X155559306Y-87860500D01*
X155559309Y-87860500D01*
X155673886Y-87829799D01*
X155776613Y-87770489D01*
X155860489Y-87686613D01*
X155919799Y-87583886D01*
X155950500Y-87469309D01*
X155950500Y-87350691D01*
X155919799Y-87236114D01*
X155860489Y-87133387D01*
X155776613Y-87049511D01*
X155673886Y-86990201D01*
X155559309Y-86959500D01*
X155440691Y-86959500D01*
X155326114Y-86990201D01*
X155326112Y-86990201D01*
X155326112Y-86990202D01*
X155223387Y-87049511D01*
X155223384Y-87049513D01*
X155139513Y-87133384D01*
X155139511Y-87133387D01*
X155132386Y-87145728D01*
X155081817Y-87193942D01*
X155013210Y-87207163D01*
X154948346Y-87181194D01*
X154917614Y-87145728D01*
X154910813Y-87133949D01*
X154910489Y-87133387D01*
X154826613Y-87049511D01*
X154723886Y-86990201D01*
X154609309Y-86959500D01*
X154490691Y-86959500D01*
X154376114Y-86990201D01*
X154376112Y-86990201D01*
X154376112Y-86990202D01*
X154273387Y-87049511D01*
X154273384Y-87049513D01*
X154189513Y-87133384D01*
X154189511Y-87133387D01*
X154157387Y-87189027D01*
X154106819Y-87237242D01*
X154038212Y-87250464D01*
X153973347Y-87224496D01*
X153942613Y-87189027D01*
X153910489Y-87133387D01*
X153826613Y-87049511D01*
X153723886Y-86990201D01*
X153609309Y-86959500D01*
X153490691Y-86959500D01*
X153376114Y-86990201D01*
X153376112Y-86990201D01*
X153376112Y-86990202D01*
X153273387Y-87049511D01*
X153273384Y-87049513D01*
X153189513Y-87133384D01*
X153189511Y-87133387D01*
X153135975Y-87226114D01*
X153130201Y-87236114D01*
X153099500Y-87350691D01*
X145350500Y-87350691D01*
X145350500Y-87340691D01*
X145319799Y-87226114D01*
X145260489Y-87123387D01*
X145176613Y-87039511D01*
X145073886Y-86980201D01*
X144959309Y-86949500D01*
X144840691Y-86949500D01*
X144726114Y-86980201D01*
X144726112Y-86980201D01*
X144726112Y-86980202D01*
X144623387Y-87039511D01*
X144623383Y-87039514D01*
X144587678Y-87075219D01*
X144526355Y-87108704D01*
X144456663Y-87103718D01*
X144412317Y-87075218D01*
X144376612Y-87039513D01*
X144376610Y-87039511D01*
X144273883Y-86980201D01*
X144159306Y-86949500D01*
X144040688Y-86949500D01*
X143926111Y-86980201D01*
X143926109Y-86980201D01*
X143926109Y-86980202D01*
X143823384Y-87039511D01*
X143823380Y-87039514D01*
X143787675Y-87075219D01*
X143726352Y-87108704D01*
X143656660Y-87103718D01*
X143612314Y-87075218D01*
X143576609Y-87039513D01*
X143576607Y-87039511D01*
X143473880Y-86980201D01*
X143359303Y-86949500D01*
X143240685Y-86949500D01*
X143126108Y-86980201D01*
X143126106Y-86980201D01*
X143126106Y-86980202D01*
X143023381Y-87039511D01*
X143023378Y-87039513D01*
X142939507Y-87123384D01*
X142939505Y-87123387D01*
X142899993Y-87191824D01*
X142880195Y-87226114D01*
X142849494Y-87340691D01*
X134600500Y-87340691D01*
X134600500Y-83440691D01*
X150699500Y-83440691D01*
X150699500Y-83559309D01*
X150730201Y-83673886D01*
X150789511Y-83776613D01*
X150873387Y-83860489D01*
X150976114Y-83919799D01*
X151090691Y-83950500D01*
X151090694Y-83950500D01*
X151209306Y-83950500D01*
X151209309Y-83950500D01*
X151323886Y-83919799D01*
X151426613Y-83860489D01*
X151510489Y-83776613D01*
X151569799Y-83673886D01*
X151600500Y-83559309D01*
X151600500Y-83440691D01*
X151569799Y-83326114D01*
X151510489Y-83223387D01*
X151426613Y-83139511D01*
X151323886Y-83080201D01*
X151209309Y-83049500D01*
X151090691Y-83049500D01*
X150976114Y-83080201D01*
X150976112Y-83080201D01*
X150976112Y-83080202D01*
X150873387Y-83139511D01*
X150873384Y-83139513D01*
X150789513Y-83223384D01*
X150789511Y-83223387D01*
X150730201Y-83326114D01*
X150699500Y-83440691D01*
X134600500Y-83440691D01*
X134600500Y-79496544D01*
X134620185Y-79429505D01*
X134636819Y-79408863D01*
X136971368Y-77074314D01*
X139316520Y-74729161D01*
X139323448Y-74724532D01*
X139326392Y-74720293D01*
X139340582Y-74713083D01*
X139356746Y-74702284D01*
X139364247Y-74699176D01*
X139473886Y-74669799D01*
X139572177Y-74613050D01*
X139579688Y-74609939D01*
X139600105Y-74607743D01*
X139627140Y-74600500D01*
X145003456Y-74600500D01*
X145070495Y-74620185D01*
X145091137Y-74636819D01*
X157163181Y-86708863D01*
X157196666Y-86770186D01*
X157199500Y-86796544D01*
X157199500Y-90750859D01*
X157182887Y-90812859D01*
X157130202Y-90904110D01*
X157130201Y-90904114D01*
X157099500Y-91018691D01*
X157099500Y-91137309D01*
X157130201Y-91251886D01*
X157189511Y-91354613D01*
X157189513Y-91354615D01*
X157200217Y-91365319D01*
X157233702Y-91426642D01*
X157228718Y-91496334D01*
X157200217Y-91540681D01*
X157139513Y-91601384D01*
X157139511Y-91601387D01*
X157080201Y-91704114D01*
X157049500Y-91818691D01*
X157049500Y-91937309D01*
X157080201Y-92051886D01*
X157139511Y-92154613D01*
X157223387Y-92238489D01*
X157326114Y-92297799D01*
X157440691Y-92328500D01*
X157440694Y-92328500D01*
X157559306Y-92328500D01*
X157559309Y-92328500D01*
X157673886Y-92297799D01*
X157765140Y-92245112D01*
X157827140Y-92228500D01*
X159468142Y-92228500D01*
X159468144Y-92228500D01*
X159557288Y-92204614D01*
X159637212Y-92158470D01*
X160680470Y-91115212D01*
X160726614Y-91035288D01*
X160734612Y-91005439D01*
X160750500Y-90946144D01*
X160750500Y-88483202D01*
X160726614Y-88394058D01*
X160717416Y-88378127D01*
X160716301Y-88376195D01*
X160716299Y-88376193D01*
X160680470Y-88314134D01*
X145684866Y-73318530D01*
X145684865Y-73318529D01*
X145684862Y-73318527D01*
X145635366Y-73289951D01*
X145635364Y-73289949D01*
X145604948Y-73272389D01*
X145604944Y-73272387D01*
X145604942Y-73272386D01*
X145515798Y-73248500D01*
X138954856Y-73248500D01*
X138865712Y-73272386D01*
X138865709Y-73272387D01*
X138785791Y-73318527D01*
X138785786Y-73318531D01*
X136133482Y-75970835D01*
X136077895Y-76002928D01*
X135976114Y-76030201D01*
X135976112Y-76030201D01*
X135976112Y-76030202D01*
X135873387Y-76089511D01*
X135873384Y-76089513D01*
X135789513Y-76173384D01*
X135789511Y-76173387D01*
X135731142Y-76274485D01*
X135730201Y-76276114D01*
X135702929Y-76377895D01*
X135670835Y-76433482D01*
X133169531Y-78934786D01*
X133169527Y-78934791D01*
X133138383Y-78988736D01*
X133123386Y-79014710D01*
X133123386Y-79014711D01*
X133099500Y-79103856D01*
X133099500Y-93872859D01*
X133082887Y-93934859D01*
X133030202Y-94026110D01*
X133030067Y-94026613D01*
X132999500Y-94140691D01*
X132243048Y-94140691D01*
X132165977Y-94025345D01*
X132165975Y-94025342D01*
X132019657Y-93879024D01*
X131902136Y-93800500D01*
X131847598Y-93764059D01*
X131832615Y-93757853D01*
X131656420Y-93684870D01*
X131656412Y-93684868D01*
X131453469Y-93644500D01*
X131453465Y-93644500D01*
X131246535Y-93644500D01*
X131246530Y-93644500D01*
X131043587Y-93684868D01*
X131043579Y-93684870D01*
X130852403Y-93764058D01*
X130680342Y-93879024D01*
X130534024Y-94025342D01*
X130419058Y-94197403D01*
X130339870Y-94388579D01*
X130339868Y-94388587D01*
X130299500Y-94591530D01*
X126300500Y-94591530D01*
X126300500Y-92051530D01*
X130299500Y-92051530D01*
X130299500Y-92258469D01*
X130339868Y-92461412D01*
X130339870Y-92461420D01*
X130380415Y-92559305D01*
X130419059Y-92652598D01*
X130438547Y-92681764D01*
X130534024Y-92824657D01*
X130680342Y-92970975D01*
X130680345Y-92970977D01*
X130852402Y-93085941D01*
X131043580Y-93165130D01*
X131246530Y-93205499D01*
X131246534Y-93205500D01*
X131246535Y-93205500D01*
X131453466Y-93205500D01*
X131453467Y-93205499D01*
X131656420Y-93165130D01*
X131847598Y-93085941D01*
X132019655Y-92970977D01*
X132165977Y-92824655D01*
X132280941Y-92652598D01*
X132360130Y-92461420D01*
X132400500Y-92258465D01*
X132400500Y-92051535D01*
X132360130Y-91848580D01*
X132280941Y-91657402D01*
X132165977Y-91485345D01*
X132165975Y-91485342D01*
X132019657Y-91339024D01*
X131889244Y-91251886D01*
X131847598Y-91224059D01*
X131726103Y-91173734D01*
X131656420Y-91144870D01*
X131656412Y-91144868D01*
X131453469Y-91104500D01*
X131453465Y-91104500D01*
X131246535Y-91104500D01*
X131246530Y-91104500D01*
X131043587Y-91144868D01*
X131043579Y-91144870D01*
X130852403Y-91224058D01*
X130680342Y-91339024D01*
X130534024Y-91485342D01*
X130419058Y-91657403D01*
X130339870Y-91848579D01*
X130339868Y-91848587D01*
X130299500Y-92051530D01*
X126300500Y-92051530D01*
X126300500Y-89524493D01*
X130200000Y-89524493D01*
X130200000Y-89705506D01*
X130228317Y-89884293D01*
X130284251Y-90056444D01*
X130284252Y-90056447D01*
X130366432Y-90217731D01*
X130437424Y-90315442D01*
X130437425Y-90315443D01*
X130906329Y-89846538D01*
X130949901Y-89922007D01*
X131042993Y-90015099D01*
X131118460Y-90058670D01*
X130649555Y-90527574D01*
X130747268Y-90598567D01*
X130908552Y-90680747D01*
X130908555Y-90680748D01*
X131080706Y-90736682D01*
X131259494Y-90765000D01*
X131440506Y-90765000D01*
X131619293Y-90736682D01*
X131791444Y-90680748D01*
X131791447Y-90680747D01*
X131952730Y-90598568D01*
X132050442Y-90527574D01*
X132050443Y-90527574D01*
X131581539Y-90058670D01*
X131657007Y-90015099D01*
X131750099Y-89922007D01*
X131793670Y-89846538D01*
X132262574Y-90315443D01*
X132262574Y-90315442D01*
X132333568Y-90217730D01*
X132415747Y-90056447D01*
X132415748Y-90056444D01*
X132471682Y-89884293D01*
X132500000Y-89705506D01*
X132500000Y-89524493D01*
X132471682Y-89345706D01*
X132415748Y-89173555D01*
X132415747Y-89173552D01*
X132333567Y-89012268D01*
X132262574Y-88914556D01*
X132262574Y-88914555D01*
X131793670Y-89383460D01*
X131750099Y-89307993D01*
X131657007Y-89214901D01*
X131581539Y-89171329D01*
X132050443Y-88702425D01*
X132050442Y-88702424D01*
X131952731Y-88631432D01*
X131791447Y-88549252D01*
X131791444Y-88549251D01*
X131619293Y-88493317D01*
X131440506Y-88465000D01*
X131259494Y-88465000D01*
X131080706Y-88493317D01*
X130908555Y-88549251D01*
X130908552Y-88549252D01*
X130747265Y-88631434D01*
X130649556Y-88702423D01*
X130649556Y-88702425D01*
X131118461Y-89171329D01*
X131042993Y-89214901D01*
X130949901Y-89307993D01*
X130906329Y-89383460D01*
X130437425Y-88914556D01*
X130437423Y-88914556D01*
X130366434Y-89012265D01*
X130284252Y-89173552D01*
X130284251Y-89173555D01*
X130228317Y-89345706D01*
X130200000Y-89524493D01*
X126300500Y-89524493D01*
X126300500Y-86205247D01*
X130299500Y-86205247D01*
X130299500Y-87944752D01*
X130311131Y-88003229D01*
X130311132Y-88003230D01*
X130355447Y-88069552D01*
X130421769Y-88113867D01*
X130421770Y-88113868D01*
X130480247Y-88125499D01*
X130480250Y-88125500D01*
X130480252Y-88125500D01*
X132219750Y-88125500D01*
X132219751Y-88125499D01*
X132234568Y-88122552D01*
X132278229Y-88113868D01*
X132278229Y-88113867D01*
X132278231Y-88113867D01*
X132344552Y-88069552D01*
X132388867Y-88003231D01*
X132388867Y-88003229D01*
X132388868Y-88003229D01*
X132400499Y-87944752D01*
X132400500Y-87944750D01*
X132400500Y-86205249D01*
X132400499Y-86205247D01*
X132388868Y-86146770D01*
X132388867Y-86146769D01*
X132344552Y-86080447D01*
X132278230Y-86036132D01*
X132278229Y-86036131D01*
X132219752Y-86024500D01*
X132219748Y-86024500D01*
X130480252Y-86024500D01*
X130480247Y-86024500D01*
X130421770Y-86036131D01*
X130421769Y-86036132D01*
X130355447Y-86080447D01*
X130311132Y-86146769D01*
X130311131Y-86146770D01*
X130299500Y-86205247D01*
X126300500Y-86205247D01*
X126300500Y-78238632D01*
X129957398Y-78238632D01*
X129957398Y-78445571D01*
X129997766Y-78648514D01*
X129997768Y-78648522D01*
X130076956Y-78839698D01*
X130191922Y-79011759D01*
X130338240Y-79158077D01*
X130338243Y-79158079D01*
X130510300Y-79273043D01*
X130701478Y-79352232D01*
X130904428Y-79392601D01*
X130904432Y-79392602D01*
X130904433Y-79392602D01*
X131111364Y-79392602D01*
X131111365Y-79392601D01*
X131314318Y-79352232D01*
X131505496Y-79273043D01*
X131677553Y-79158079D01*
X131823875Y-79011757D01*
X131938839Y-78839700D01*
X132018028Y-78648522D01*
X132058398Y-78445567D01*
X132058398Y-78238637D01*
X132018028Y-78035682D01*
X131938839Y-77844504D01*
X131823875Y-77672447D01*
X131823873Y-77672444D01*
X131677555Y-77526126D01*
X131558451Y-77446544D01*
X131505496Y-77411161D01*
X131314318Y-77331972D01*
X131314310Y-77331970D01*
X131111367Y-77291602D01*
X131111363Y-77291602D01*
X130904433Y-77291602D01*
X130904428Y-77291602D01*
X130701485Y-77331970D01*
X130701477Y-77331972D01*
X130510301Y-77411160D01*
X130338240Y-77526126D01*
X130191922Y-77672444D01*
X130076956Y-77844505D01*
X129997768Y-78035681D01*
X129997766Y-78035689D01*
X129957398Y-78238632D01*
X126300500Y-78238632D01*
X126300500Y-75987494D01*
X129456697Y-75987494D01*
X129456697Y-76106112D01*
X129487398Y-76220689D01*
X129546708Y-76323416D01*
X129630584Y-76407292D01*
X129733311Y-76466602D01*
X129847888Y-76497303D01*
X129847891Y-76497303D01*
X129966503Y-76497303D01*
X129966506Y-76497303D01*
X130081083Y-76466602D01*
X130122688Y-76442581D01*
X131753449Y-76442581D01*
X131753449Y-76649520D01*
X131793817Y-76852463D01*
X131793819Y-76852471D01*
X131869337Y-77034788D01*
X131873008Y-77043649D01*
X131926144Y-77123173D01*
X131987973Y-77215708D01*
X132134291Y-77362026D01*
X132134294Y-77362028D01*
X132306351Y-77476992D01*
X132497529Y-77556181D01*
X132700479Y-77596550D01*
X132700483Y-77596551D01*
X132700484Y-77596551D01*
X132907415Y-77596551D01*
X132907416Y-77596550D01*
X133110369Y-77556181D01*
X133301547Y-77476992D01*
X133473604Y-77362028D01*
X133619926Y-77215706D01*
X133734890Y-77043649D01*
X133814079Y-76852471D01*
X133854449Y-76649516D01*
X133854449Y-76442586D01*
X133814079Y-76239631D01*
X133734890Y-76048453D01*
X133619926Y-75876396D01*
X133619924Y-75876393D01*
X133473606Y-75730075D01*
X133319349Y-75627005D01*
X133301547Y-75615110D01*
X133110369Y-75535921D01*
X133110361Y-75535919D01*
X132907418Y-75495551D01*
X132907414Y-75495551D01*
X132700484Y-75495551D01*
X132700479Y-75495551D01*
X132497536Y-75535919D01*
X132497528Y-75535921D01*
X132306352Y-75615109D01*
X132134291Y-75730075D01*
X131987973Y-75876393D01*
X131873007Y-76048454D01*
X131793819Y-76239630D01*
X131793817Y-76239638D01*
X131753449Y-76442581D01*
X130122688Y-76442581D01*
X130183810Y-76407292D01*
X130267686Y-76323416D01*
X130326996Y-76220689D01*
X130357697Y-76106112D01*
X130357697Y-75987494D01*
X130326996Y-75872917D01*
X130267686Y-75770190D01*
X130183810Y-75686314D01*
X130081083Y-75627004D01*
X129966506Y-75596303D01*
X129847888Y-75596303D01*
X129733311Y-75627004D01*
X129733309Y-75627004D01*
X129733309Y-75627005D01*
X129630584Y-75686314D01*
X129630581Y-75686316D01*
X129546710Y-75770187D01*
X129546708Y-75770190D01*
X129510260Y-75833320D01*
X129487398Y-75872917D01*
X129456697Y-75987494D01*
X126300500Y-75987494D01*
X126300500Y-74646530D01*
X133549500Y-74646530D01*
X133549500Y-74853469D01*
X133589868Y-75056412D01*
X133589870Y-75056420D01*
X133669058Y-75247596D01*
X133784024Y-75419657D01*
X133930342Y-75565975D01*
X133930345Y-75565977D01*
X134102402Y-75680941D01*
X134293580Y-75760130D01*
X134427756Y-75786819D01*
X134496530Y-75800499D01*
X134496534Y-75800500D01*
X134496535Y-75800500D01*
X134703466Y-75800500D01*
X134703467Y-75800499D01*
X134906420Y-75760130D01*
X135097598Y-75680941D01*
X135269655Y-75565977D01*
X135415977Y-75419655D01*
X135530941Y-75247598D01*
X135610130Y-75056420D01*
X135650500Y-74853465D01*
X135650500Y-74646535D01*
X135610130Y-74443580D01*
X135530941Y-74252402D01*
X135415977Y-74080345D01*
X135415975Y-74080342D01*
X135269657Y-73934024D01*
X135119269Y-73833539D01*
X135097598Y-73819059D01*
X134906420Y-73739870D01*
X134906412Y-73739868D01*
X134703469Y-73699500D01*
X134703465Y-73699500D01*
X134496535Y-73699500D01*
X134496530Y-73699500D01*
X134293587Y-73739868D01*
X134293579Y-73739870D01*
X134102403Y-73819058D01*
X133930342Y-73934024D01*
X133784024Y-74080342D01*
X133669058Y-74252403D01*
X133589870Y-74443579D01*
X133589868Y-74443587D01*
X133549500Y-74646530D01*
X126300500Y-74646530D01*
X126300500Y-73948118D01*
X131496073Y-73948118D01*
X131496073Y-74066736D01*
X131526774Y-74181313D01*
X131586084Y-74284040D01*
X131669960Y-74367916D01*
X131772687Y-74427226D01*
X131887264Y-74457927D01*
X131887267Y-74457927D01*
X132005879Y-74457927D01*
X132005882Y-74457927D01*
X132120459Y-74427226D01*
X132223186Y-74367916D01*
X132307062Y-74284040D01*
X132366372Y-74181313D01*
X132397073Y-74066736D01*
X132397073Y-73948118D01*
X132366372Y-73833541D01*
X132307062Y-73730814D01*
X132223186Y-73646938D01*
X132120459Y-73587628D01*
X132005882Y-73556927D01*
X131887264Y-73556927D01*
X131772687Y-73587628D01*
X131772685Y-73587628D01*
X131772685Y-73587629D01*
X131669960Y-73646938D01*
X131669957Y-73646940D01*
X131586086Y-73730811D01*
X131586084Y-73730814D01*
X131526774Y-73833541D01*
X131496073Y-73948118D01*
X126300500Y-73948118D01*
X126300500Y-72850478D01*
X135345552Y-72850478D01*
X135345552Y-73057417D01*
X135385920Y-73260360D01*
X135385922Y-73260368D01*
X135465110Y-73451544D01*
X135580076Y-73623605D01*
X135726394Y-73769923D01*
X135726397Y-73769925D01*
X135898454Y-73884889D01*
X136089632Y-73964078D01*
X136267712Y-73999500D01*
X136292582Y-74004447D01*
X136292586Y-74004448D01*
X136292587Y-74004448D01*
X136499518Y-74004448D01*
X136499519Y-74004447D01*
X136702472Y-73964078D01*
X136893650Y-73884889D01*
X137065707Y-73769925D01*
X137212029Y-73623603D01*
X137326993Y-73451546D01*
X137406182Y-73260368D01*
X137420042Y-73190691D01*
X163974500Y-73190691D01*
X163974500Y-73309309D01*
X164005201Y-73423886D01*
X164064511Y-73526613D01*
X164148387Y-73610489D01*
X164251114Y-73669799D01*
X164365691Y-73700500D01*
X164365694Y-73700500D01*
X164484306Y-73700500D01*
X164484309Y-73700500D01*
X164598886Y-73669799D01*
X164701613Y-73610489D01*
X164785489Y-73526613D01*
X164844799Y-73423886D01*
X164875500Y-73309309D01*
X164875500Y-73190691D01*
X164844799Y-73076114D01*
X164785489Y-72973387D01*
X164701613Y-72889511D01*
X164598886Y-72830201D01*
X164484309Y-72799500D01*
X164365691Y-72799500D01*
X164251114Y-72830201D01*
X164251112Y-72830201D01*
X164251112Y-72830202D01*
X164148387Y-72889511D01*
X164148384Y-72889513D01*
X164064513Y-72973384D01*
X164064511Y-72973387D01*
X164015998Y-73057414D01*
X164005201Y-73076114D01*
X163974500Y-73190691D01*
X137420042Y-73190691D01*
X137446552Y-73057413D01*
X137446552Y-72850483D01*
X137406182Y-72647528D01*
X137326993Y-72456350D01*
X137212029Y-72284293D01*
X137212027Y-72284290D01*
X137065709Y-72137972D01*
X136911708Y-72035073D01*
X136893650Y-72023007D01*
X136702472Y-71943818D01*
X136702464Y-71943816D01*
X136499521Y-71903448D01*
X136499517Y-71903448D01*
X136292587Y-71903448D01*
X136292582Y-71903448D01*
X136089639Y-71943816D01*
X136089631Y-71943818D01*
X135898455Y-72023006D01*
X135726394Y-72137972D01*
X135580076Y-72284290D01*
X135465110Y-72456351D01*
X135385922Y-72647527D01*
X135385920Y-72647535D01*
X135345552Y-72850478D01*
X126300500Y-72850478D01*
X126300500Y-71007897D01*
X137051526Y-71007897D01*
X137714658Y-71007897D01*
X137692103Y-71092071D01*
X137692103Y-71223723D01*
X137714658Y-71307897D01*
X137051526Y-71307897D01*
X137070420Y-71427190D01*
X137126354Y-71599341D01*
X137126355Y-71599344D01*
X137208537Y-71760631D01*
X137314926Y-71907066D01*
X137442933Y-72035073D01*
X137589368Y-72141462D01*
X137750655Y-72223644D01*
X137750658Y-72223645D01*
X137922809Y-72279579D01*
X138042103Y-72298474D01*
X138042103Y-71635342D01*
X138126277Y-71657897D01*
X138257929Y-71657897D01*
X138342103Y-71635342D01*
X138342103Y-72298473D01*
X138461396Y-72279579D01*
X138633547Y-72223645D01*
X138633550Y-72223644D01*
X138794837Y-72141462D01*
X138941272Y-72035073D01*
X139069279Y-71907066D01*
X139175668Y-71760631D01*
X139257850Y-71599344D01*
X139257851Y-71599341D01*
X139313785Y-71427190D01*
X139332680Y-71307897D01*
X138669548Y-71307897D01*
X138692103Y-71223723D01*
X138692103Y-71092071D01*
X138669548Y-71007897D01*
X139332680Y-71007897D01*
X139313785Y-70888603D01*
X139257851Y-70716452D01*
X139257850Y-70716449D01*
X139175668Y-70555162D01*
X139069279Y-70408727D01*
X138941272Y-70280720D01*
X138794837Y-70174331D01*
X138633550Y-70092149D01*
X138633547Y-70092148D01*
X138461397Y-70036214D01*
X138342103Y-70017319D01*
X138342103Y-70680451D01*
X138257929Y-70657897D01*
X138126277Y-70657897D01*
X138042103Y-70680451D01*
X138042103Y-70017319D01*
X138042102Y-70017319D01*
X137922808Y-70036214D01*
X137750658Y-70092148D01*
X137750655Y-70092149D01*
X137589368Y-70174331D01*
X137442933Y-70280720D01*
X137314926Y-70408727D01*
X137208537Y-70555162D01*
X137126355Y-70716449D01*
X137126354Y-70716452D01*
X137070420Y-70888603D01*
X137051526Y-71007897D01*
X126300500Y-71007897D01*
X126300500Y-69361843D01*
X138581645Y-69361843D01*
X138581645Y-69361848D01*
X138597205Y-69440076D01*
X138597205Y-69440077D01*
X138630335Y-69489658D01*
X138630338Y-69489662D01*
X139860337Y-70719661D01*
X139860341Y-70719664D01*
X139860343Y-70719666D01*
X139909923Y-70752794D01*
X139988152Y-70768355D01*
X139988154Y-70768355D01*
X139988156Y-70768355D01*
X140041228Y-70757798D01*
X140066385Y-70752794D01*
X140115965Y-70719666D01*
X140177734Y-70657897D01*
X140274102Y-70561530D01*
X154139500Y-70561530D01*
X154139500Y-70768469D01*
X154179868Y-70971412D01*
X154179870Y-70971420D01*
X154259058Y-71162596D01*
X154374024Y-71334657D01*
X154520342Y-71480975D01*
X154520345Y-71480977D01*
X154692402Y-71595941D01*
X154883580Y-71675130D01*
X155086530Y-71715499D01*
X155086534Y-71715500D01*
X155086535Y-71715500D01*
X155293466Y-71715500D01*
X155293467Y-71715499D01*
X155496420Y-71675130D01*
X155687598Y-71595941D01*
X155859655Y-71480977D01*
X156005977Y-71334655D01*
X156120941Y-71162598D01*
X156200130Y-70971420D01*
X156240500Y-70768465D01*
X156240500Y-70561535D01*
X156240499Y-70561530D01*
X156679500Y-70561530D01*
X156679500Y-70768469D01*
X156719868Y-70971412D01*
X156719870Y-70971420D01*
X156799058Y-71162596D01*
X156914024Y-71334657D01*
X157060342Y-71480975D01*
X157060345Y-71480977D01*
X157232402Y-71595941D01*
X157423580Y-71675130D01*
X157626530Y-71715499D01*
X157626534Y-71715500D01*
X157626535Y-71715500D01*
X157833466Y-71715500D01*
X157833467Y-71715499D01*
X158036420Y-71675130D01*
X158227598Y-71595941D01*
X158399655Y-71480977D01*
X158545977Y-71334655D01*
X158660941Y-71162598D01*
X158740130Y-70971420D01*
X158780500Y-70768465D01*
X158780500Y-70561535D01*
X158780499Y-70561530D01*
X159219500Y-70561530D01*
X159219500Y-70768469D01*
X159259868Y-70971412D01*
X159259870Y-70971420D01*
X159339058Y-71162596D01*
X159454024Y-71334657D01*
X159600342Y-71480975D01*
X159600345Y-71480977D01*
X159772402Y-71595941D01*
X159963580Y-71675130D01*
X160166530Y-71715499D01*
X160166534Y-71715500D01*
X160166535Y-71715500D01*
X160373466Y-71715500D01*
X160373467Y-71715499D01*
X160576420Y-71675130D01*
X160767598Y-71595941D01*
X160939655Y-71480977D01*
X161085977Y-71334655D01*
X161200941Y-71162598D01*
X161280130Y-70971420D01*
X161320500Y-70768465D01*
X161320500Y-70561535D01*
X161320499Y-70561530D01*
X161759500Y-70561530D01*
X161759500Y-70768469D01*
X161799868Y-70971412D01*
X161799870Y-70971420D01*
X161879058Y-71162596D01*
X161994024Y-71334657D01*
X162140342Y-71480975D01*
X162140345Y-71480977D01*
X162312402Y-71595941D01*
X162503580Y-71675130D01*
X162706530Y-71715499D01*
X162706534Y-71715500D01*
X162706535Y-71715500D01*
X162913466Y-71715500D01*
X162913467Y-71715499D01*
X163116420Y-71675130D01*
X163307598Y-71595941D01*
X163479655Y-71480977D01*
X163625977Y-71334655D01*
X163740941Y-71162598D01*
X163820130Y-70971420D01*
X163860500Y-70768465D01*
X163860500Y-70561535D01*
X163820130Y-70358580D01*
X163740941Y-70167402D01*
X163625977Y-69995345D01*
X163625975Y-69995342D01*
X163479657Y-69849024D01*
X163393626Y-69791541D01*
X163307598Y-69734059D01*
X163116420Y-69654870D01*
X163116412Y-69654868D01*
X162913469Y-69614500D01*
X162913465Y-69614500D01*
X162706535Y-69614500D01*
X162706530Y-69614500D01*
X162503587Y-69654868D01*
X162503579Y-69654870D01*
X162312403Y-69734058D01*
X162140342Y-69849024D01*
X161994024Y-69995342D01*
X161879058Y-70167403D01*
X161799870Y-70358579D01*
X161799868Y-70358587D01*
X161759500Y-70561530D01*
X161320499Y-70561530D01*
X161280130Y-70358580D01*
X161200941Y-70167402D01*
X161085977Y-69995345D01*
X161085975Y-69995342D01*
X160939657Y-69849024D01*
X160853626Y-69791541D01*
X160767598Y-69734059D01*
X160576420Y-69654870D01*
X160576412Y-69654868D01*
X160373469Y-69614500D01*
X160373465Y-69614500D01*
X160166535Y-69614500D01*
X160166530Y-69614500D01*
X159963587Y-69654868D01*
X159963579Y-69654870D01*
X159772403Y-69734058D01*
X159600342Y-69849024D01*
X159454024Y-69995342D01*
X159339058Y-70167403D01*
X159259870Y-70358579D01*
X159259868Y-70358587D01*
X159219500Y-70561530D01*
X158780499Y-70561530D01*
X158740130Y-70358580D01*
X158660941Y-70167402D01*
X158545977Y-69995345D01*
X158545975Y-69995342D01*
X158399657Y-69849024D01*
X158313626Y-69791541D01*
X158227598Y-69734059D01*
X158036420Y-69654870D01*
X158036412Y-69654868D01*
X157833469Y-69614500D01*
X157833465Y-69614500D01*
X157626535Y-69614500D01*
X157626530Y-69614500D01*
X157423587Y-69654868D01*
X157423579Y-69654870D01*
X157232403Y-69734058D01*
X157060342Y-69849024D01*
X156914024Y-69995342D01*
X156799058Y-70167403D01*
X156719870Y-70358579D01*
X156719868Y-70358587D01*
X156679500Y-70561530D01*
X156240499Y-70561530D01*
X156200130Y-70358580D01*
X156120941Y-70167402D01*
X156005977Y-69995345D01*
X156005975Y-69995342D01*
X155859657Y-69849024D01*
X155773626Y-69791541D01*
X155687598Y-69734059D01*
X155496420Y-69654870D01*
X155496412Y-69654868D01*
X155293469Y-69614500D01*
X155293465Y-69614500D01*
X155086535Y-69614500D01*
X155086530Y-69614500D01*
X154883587Y-69654868D01*
X154883579Y-69654870D01*
X154692403Y-69734058D01*
X154520342Y-69849024D01*
X154374024Y-69995342D01*
X154259058Y-70167403D01*
X154179870Y-70358579D01*
X154179868Y-70358587D01*
X154139500Y-70561530D01*
X140274102Y-70561530D01*
X140367870Y-70467762D01*
X141345969Y-69489662D01*
X141345974Y-69489657D01*
X141379102Y-69440077D01*
X141384289Y-69414000D01*
X141394663Y-69361848D01*
X141394663Y-69361843D01*
X141379102Y-69283615D01*
X141379102Y-69283614D01*
X141348543Y-69237880D01*
X141345974Y-69234035D01*
X141345972Y-69234033D01*
X141345969Y-69234029D01*
X140133470Y-68021530D01*
X154139500Y-68021530D01*
X154139500Y-68228469D01*
X154179868Y-68431412D01*
X154179870Y-68431420D01*
X154245939Y-68590925D01*
X154259059Y-68622598D01*
X154310827Y-68700075D01*
X154374024Y-68794657D01*
X154520342Y-68940975D01*
X154520345Y-68940977D01*
X154692402Y-69055941D01*
X154883580Y-69135130D01*
X155086530Y-69175499D01*
X155086534Y-69175500D01*
X155086535Y-69175500D01*
X155293466Y-69175500D01*
X155293467Y-69175499D01*
X155496420Y-69135130D01*
X155687598Y-69055941D01*
X155859655Y-68940977D01*
X156005977Y-68794655D01*
X156120941Y-68622598D01*
X156200130Y-68431420D01*
X156240500Y-68228465D01*
X156240500Y-68021535D01*
X156240499Y-68021530D01*
X156679500Y-68021530D01*
X156679500Y-68228469D01*
X156719868Y-68431412D01*
X156719870Y-68431420D01*
X156785939Y-68590925D01*
X156799059Y-68622598D01*
X156850827Y-68700075D01*
X156914024Y-68794657D01*
X157060342Y-68940975D01*
X157060345Y-68940977D01*
X157232402Y-69055941D01*
X157423580Y-69135130D01*
X157626530Y-69175499D01*
X157626534Y-69175500D01*
X157626535Y-69175500D01*
X157833466Y-69175500D01*
X157833467Y-69175499D01*
X158036420Y-69135130D01*
X158227598Y-69055941D01*
X158399655Y-68940977D01*
X158545977Y-68794655D01*
X158660941Y-68622598D01*
X158740130Y-68431420D01*
X158780500Y-68228465D01*
X158780500Y-68021535D01*
X158780499Y-68021530D01*
X159219500Y-68021530D01*
X159219500Y-68228469D01*
X159259868Y-68431412D01*
X159259870Y-68431420D01*
X159325939Y-68590925D01*
X159339059Y-68622598D01*
X159390827Y-68700075D01*
X159454024Y-68794657D01*
X159600342Y-68940975D01*
X159600345Y-68940977D01*
X159772402Y-69055941D01*
X159963580Y-69135130D01*
X160166530Y-69175499D01*
X160166534Y-69175500D01*
X160166535Y-69175500D01*
X160373466Y-69175500D01*
X160373467Y-69175499D01*
X160576420Y-69135130D01*
X160767598Y-69055941D01*
X160939655Y-68940977D01*
X161085977Y-68794655D01*
X161200941Y-68622598D01*
X161280130Y-68431420D01*
X161320500Y-68228465D01*
X161320500Y-68021535D01*
X161280130Y-67818580D01*
X161200941Y-67627402D01*
X161085977Y-67455345D01*
X161085975Y-67455342D01*
X160939657Y-67309024D01*
X160853626Y-67251541D01*
X160821694Y-67230205D01*
X161660000Y-67230205D01*
X161660000Y-67975000D01*
X162332555Y-67975000D01*
X162310000Y-68059174D01*
X162310000Y-68190826D01*
X162332555Y-68275000D01*
X161660001Y-68275000D01*
X161660001Y-69019785D01*
X161660002Y-69019808D01*
X161662908Y-69044869D01*
X161662909Y-69044873D01*
X161708211Y-69147474D01*
X161708214Y-69147479D01*
X161787520Y-69226785D01*
X161787525Y-69226788D01*
X161890123Y-69272089D01*
X161915206Y-69274999D01*
X162659999Y-69274999D01*
X162660000Y-69274998D01*
X162660000Y-68602445D01*
X162744174Y-68625000D01*
X162875826Y-68625000D01*
X162960000Y-68602445D01*
X162960000Y-69274999D01*
X163704786Y-69274999D01*
X163704808Y-69274997D01*
X163729869Y-69272091D01*
X163729873Y-69272090D01*
X163832474Y-69226788D01*
X163832479Y-69226785D01*
X163911785Y-69147479D01*
X163911788Y-69147474D01*
X163957089Y-69044877D01*
X163957089Y-69044875D01*
X163959999Y-69019794D01*
X163960000Y-69019791D01*
X163960000Y-68275000D01*
X163287445Y-68275000D01*
X163310000Y-68190826D01*
X163310000Y-68059174D01*
X163287445Y-67975000D01*
X163959999Y-67975000D01*
X163959999Y-67720730D01*
X177749500Y-67720730D01*
X177749500Y-69079269D01*
X177752353Y-69109699D01*
X177752353Y-69109701D01*
X177795860Y-69234033D01*
X177797207Y-69237882D01*
X177877850Y-69347150D01*
X177987118Y-69427793D01*
X178022221Y-69440076D01*
X178115299Y-69472646D01*
X178145730Y-69475500D01*
X178145734Y-69475500D01*
X178954270Y-69475500D01*
X178984699Y-69472646D01*
X178984701Y-69472646D01*
X179048790Y-69450219D01*
X179112882Y-69427793D01*
X179222150Y-69347150D01*
X179302793Y-69237882D01*
X179325219Y-69173790D01*
X179347646Y-69109701D01*
X179347646Y-69109699D01*
X179350500Y-69079269D01*
X179350500Y-68036353D01*
X179650000Y-68036353D01*
X179650000Y-68250000D01*
X180203590Y-68250000D01*
X180200556Y-68255255D01*
X180175000Y-68350630D01*
X180175000Y-68449370D01*
X180200556Y-68544745D01*
X180203590Y-68550000D01*
X179650000Y-68550000D01*
X179650000Y-68763646D01*
X179684584Y-68937512D01*
X179684586Y-68937520D01*
X179752428Y-69101307D01*
X179752433Y-69101316D01*
X179850923Y-69248716D01*
X179850926Y-69248720D01*
X179976279Y-69374073D01*
X179976283Y-69374076D01*
X180123683Y-69472566D01*
X180123692Y-69472571D01*
X180287477Y-69540412D01*
X180287487Y-69540415D01*
X180399999Y-69562795D01*
X180400000Y-69562795D01*
X180400000Y-68746410D01*
X180405255Y-68749444D01*
X180500630Y-68775000D01*
X180599370Y-68775000D01*
X180694745Y-68749444D01*
X180700000Y-68746410D01*
X180700000Y-69562795D01*
X180812512Y-69540415D01*
X180812522Y-69540412D01*
X180976307Y-69472571D01*
X180976316Y-69472566D01*
X181123716Y-69374076D01*
X181123720Y-69374073D01*
X181249073Y-69248720D01*
X181249076Y-69248716D01*
X181347566Y-69101316D01*
X181347571Y-69101307D01*
X181415413Y-68937520D01*
X181415415Y-68937512D01*
X181449999Y-68763646D01*
X181450000Y-68763643D01*
X181450000Y-68550000D01*
X180896410Y-68550000D01*
X180899444Y-68544745D01*
X180925000Y-68449370D01*
X180925000Y-68350630D01*
X180899444Y-68255255D01*
X180896410Y-68250000D01*
X181450000Y-68250000D01*
X181450000Y-68036357D01*
X181449999Y-68036353D01*
X181415415Y-67862487D01*
X181415413Y-67862479D01*
X181347571Y-67698692D01*
X181347566Y-67698683D01*
X181249076Y-67551283D01*
X181249073Y-67551279D01*
X181123720Y-67425926D01*
X181123716Y-67425923D01*
X180976316Y-67327433D01*
X180976307Y-67327428D01*
X180812520Y-67259586D01*
X180812512Y-67259584D01*
X180700000Y-67237203D01*
X180700000Y-68053589D01*
X180694745Y-68050556D01*
X180599370Y-68025000D01*
X180500630Y-68025000D01*
X180405255Y-68050556D01*
X180400000Y-68053589D01*
X180400000Y-67237204D01*
X180399999Y-67237203D01*
X180287487Y-67259584D01*
X180287479Y-67259586D01*
X180123692Y-67327428D01*
X180123683Y-67327433D01*
X179976283Y-67425923D01*
X179976279Y-67425926D01*
X179850926Y-67551279D01*
X179850923Y-67551283D01*
X179752433Y-67698683D01*
X179752428Y-67698692D01*
X179684586Y-67862479D01*
X179684584Y-67862487D01*
X179650000Y-68036353D01*
X179350500Y-68036353D01*
X179350500Y-67720730D01*
X179347646Y-67690300D01*
X179347646Y-67690298D01*
X179302793Y-67562119D01*
X179302792Y-67562117D01*
X179294793Y-67551279D01*
X179222150Y-67452850D01*
X179112882Y-67372207D01*
X179112880Y-67372206D01*
X178984700Y-67327353D01*
X178954270Y-67324500D01*
X178954266Y-67324500D01*
X178145734Y-67324500D01*
X178145730Y-67324500D01*
X178115300Y-67327353D01*
X178115298Y-67327353D01*
X177987119Y-67372206D01*
X177987117Y-67372207D01*
X177877850Y-67452850D01*
X177797207Y-67562117D01*
X177797206Y-67562119D01*
X177752353Y-67690298D01*
X177752353Y-67690300D01*
X177749500Y-67720730D01*
X163959999Y-67720730D01*
X163959999Y-67230214D01*
X163959997Y-67230191D01*
X163957091Y-67205130D01*
X163957090Y-67205126D01*
X163911788Y-67102525D01*
X163911785Y-67102520D01*
X163832479Y-67023214D01*
X163832474Y-67023211D01*
X163729876Y-66977910D01*
X163704794Y-66975000D01*
X162960000Y-66975000D01*
X162960000Y-67647554D01*
X162875826Y-67625000D01*
X162744174Y-67625000D01*
X162660000Y-67647554D01*
X162660000Y-66975000D01*
X161915214Y-66975000D01*
X161915191Y-66975002D01*
X161890130Y-66977908D01*
X161890126Y-66977909D01*
X161787525Y-67023211D01*
X161787520Y-67023214D01*
X161708214Y-67102520D01*
X161708211Y-67102525D01*
X161662910Y-67205122D01*
X161662910Y-67205124D01*
X161660000Y-67230205D01*
X160821694Y-67230205D01*
X160767598Y-67194059D01*
X160576420Y-67114870D01*
X160576412Y-67114868D01*
X160373469Y-67074500D01*
X160373465Y-67074500D01*
X160166535Y-67074500D01*
X160166530Y-67074500D01*
X159963587Y-67114868D01*
X159963579Y-67114870D01*
X159772403Y-67194058D01*
X159600342Y-67309024D01*
X159454024Y-67455342D01*
X159339058Y-67627403D01*
X159259870Y-67818579D01*
X159259868Y-67818587D01*
X159219500Y-68021530D01*
X158780499Y-68021530D01*
X158740130Y-67818580D01*
X158660941Y-67627402D01*
X158545977Y-67455345D01*
X158545975Y-67455342D01*
X158399657Y-67309024D01*
X158313626Y-67251541D01*
X158227598Y-67194059D01*
X158036420Y-67114870D01*
X158036412Y-67114868D01*
X157833469Y-67074500D01*
X157833465Y-67074500D01*
X157626535Y-67074500D01*
X157626530Y-67074500D01*
X157423587Y-67114868D01*
X157423579Y-67114870D01*
X157232403Y-67194058D01*
X157060342Y-67309024D01*
X156914024Y-67455342D01*
X156799058Y-67627403D01*
X156719870Y-67818579D01*
X156719868Y-67818587D01*
X156679500Y-68021530D01*
X156240499Y-68021530D01*
X156200130Y-67818580D01*
X156120941Y-67627402D01*
X156005977Y-67455345D01*
X156005975Y-67455342D01*
X155859657Y-67309024D01*
X155773626Y-67251541D01*
X155687598Y-67194059D01*
X155496420Y-67114870D01*
X155496412Y-67114868D01*
X155293469Y-67074500D01*
X155293465Y-67074500D01*
X155086535Y-67074500D01*
X155086530Y-67074500D01*
X154883587Y-67114868D01*
X154883579Y-67114870D01*
X154692403Y-67194058D01*
X154520342Y-67309024D01*
X154374024Y-67455342D01*
X154259058Y-67627403D01*
X154179870Y-67818579D01*
X154179868Y-67818587D01*
X154139500Y-68021530D01*
X140133470Y-68021530D01*
X140115970Y-68004030D01*
X140115966Y-68004027D01*
X140066384Y-67970897D01*
X139988156Y-67955337D01*
X139988152Y-67955337D01*
X139909923Y-67970897D01*
X139909922Y-67970897D01*
X139860341Y-68004027D01*
X139860337Y-68004030D01*
X138630338Y-69234029D01*
X138630335Y-69234033D01*
X138597205Y-69283614D01*
X138597205Y-69283615D01*
X138581645Y-69361843D01*
X126300500Y-69361843D01*
X126300500Y-66424500D01*
X126320185Y-66357461D01*
X126372989Y-66311706D01*
X126424500Y-66300500D01*
X193575500Y-66300500D01*
X193642539Y-66320185D01*
G37*
%TD.AperFunction*%
%TD*%
M02*
