%TF.GenerationSoftware,KiCad,Pcbnew,9.0.7*%
%TF.CreationDate,2026-03-26T14:30:28+01:00*%
%TF.ProjectId,pcb_pcBOT,7063625f-7063-4424-9f54-2e6b69636164,rev?*%
%TF.SameCoordinates,Original*%
%TF.FileFunction,Copper,L2,Inr*%
%TF.FilePolarity,Positive*%
%FSLAX46Y46*%
G04 Gerber Fmt 4.6, Leading zero omitted, Abs format (unit mm)*
G04 Created by KiCad (PCBNEW 9.0.7) date 2026-03-26 14:30:28*
%MOMM*%
%LPD*%
G01*
G04 APERTURE LIST*
G04 Aperture macros list*
%AMRoundRect*
0 Rectangle with rounded corners*
0 $1 Rounding radius*
0 $2 $3 $4 $5 $6 $7 $8 $9 X,Y pos of 4 corners*
0 Add a 4 corners polygon primitive as box body*
4,1,4,$2,$3,$4,$5,$6,$7,$8,$9,$2,$3,0*
0 Add four circle primitives for the rounded corners*
1,1,$1+$1,$2,$3*
1,1,$1+$1,$4,$5*
1,1,$1+$1,$6,$7*
1,1,$1+$1,$8,$9*
0 Add four rect primitives between the rounded corners*
20,1,$1+$1,$2,$3,$4,$5,0*
20,1,$1+$1,$4,$5,$6,$7,0*
20,1,$1+$1,$6,$7,$8,$9,0*
20,1,$1+$1,$8,$9,$2,$3,0*%
%AMRotRect*
0 Rectangle, with rotation*
0 The origin of the aperture is its center*
0 $1 length*
0 $2 width*
0 $3 Rotation angle, in degrees counterclockwise*
0 Add horizontal line*
21,1,$1,$2,0,0,$3*%
G04 Aperture macros list end*
%TA.AperFunction,ComponentPad*%
%ADD10RoundRect,0.250000X0.350000X0.625000X-0.350000X0.625000X-0.350000X-0.625000X0.350000X-0.625000X0*%
%TD*%
%TA.AperFunction,ComponentPad*%
%ADD11O,1.200000X1.750000*%
%TD*%
%TA.AperFunction,ComponentPad*%
%ADD12C,0.800000*%
%TD*%
%TA.AperFunction,ComponentPad*%
%ADD13C,6.400000*%
%TD*%
%TA.AperFunction,ComponentPad*%
%ADD14RotRect,1.700000X1.700000X45.000000*%
%TD*%
%TA.AperFunction,ComponentPad*%
%ADD15C,1.700000*%
%TD*%
%TA.AperFunction,ComponentPad*%
%ADD16R,1.700000X1.700000*%
%TD*%
%TA.AperFunction,ComponentPad*%
%ADD17C,2.000000*%
%TD*%
%TA.AperFunction,ComponentPad*%
%ADD18RotRect,1.700000X1.700000X315.000000*%
%TD*%
%TA.AperFunction,ComponentPad*%
%ADD19RoundRect,0.250000X-0.350000X-0.625000X0.350000X-0.625000X0.350000X0.625000X-0.350000X0.625000X0*%
%TD*%
%TA.AperFunction,HeatsinkPad*%
%ADD20O,2.100000X1.000000*%
%TD*%
%TA.AperFunction,HeatsinkPad*%
%ADD21O,1.800000X1.000000*%
%TD*%
%TA.AperFunction,ViaPad*%
%ADD22C,0.450000*%
%TD*%
G04 APERTURE END LIST*
D10*
%TO.N,Net-(Moteur701-Pin_1)*%
%TO.C,Moteur701*%
X150800000Y-120500000D03*
D11*
%TO.N,Net-(Moteur701-Pin_2)*%
X148800000Y-120500000D03*
%TD*%
D12*
%TO.N,GND*%
%TO.C,H104*%
X127600000Y-120000000D03*
X128302944Y-118302944D03*
X128302944Y-121697056D03*
X130000000Y-117600000D03*
D13*
X130000000Y-120000000D03*
D12*
X130000000Y-122400000D03*
X131697056Y-118302944D03*
X131697056Y-121697056D03*
X132400000Y-120000000D03*
%TD*%
D14*
%TO.N,VDD*%
%TO.C,J503*%
X131069744Y-109869744D03*
D15*
%TO.N,GND*%
X132865795Y-111665795D03*
%TO.N,/I2C_BUS.I2C_SCL*%
X134661846Y-113461846D03*
%TO.N,/I2C_BUS.I2C_SDA*%
X136457898Y-115257898D03*
%TO.N,/capteur tof/TOF_INT3*%
X138253949Y-117053949D03*
%TO.N,/capteur tof/XSHUT3*%
X140050000Y-118850000D03*
%TD*%
D16*
%TO.N,VDD*%
%TO.C,J501*%
X131350000Y-87075000D03*
D15*
%TO.N,GND*%
X131350000Y-89615000D03*
%TO.N,/I2C_BUS.I2C_SCL*%
X131350000Y-92155000D03*
%TO.N,/I2C_BUS.I2C_SDA*%
X131350000Y-94695000D03*
%TO.N,/capteur tof/TOF_INT1*%
X131350000Y-97235000D03*
%TO.N,/capteur tof/XSHUT1*%
X131350000Y-99775000D03*
%TD*%
D17*
%TO.N,/bms/~{QON}*%
%TO.C,SW201*%
X187800000Y-81700000D03*
X187800000Y-75200000D03*
%TO.N,GND*%
X192300000Y-81700000D03*
X192300000Y-75200000D03*
%TD*%
D18*
%TO.N,VDD*%
%TO.C,J502*%
X139988154Y-69361846D03*
D15*
%TO.N,GND*%
X138192103Y-71157897D03*
%TO.N,/I2C_BUS.I2C_SCL*%
X136396052Y-72953948D03*
%TO.N,/I2C_BUS.I2C_SDA*%
X134600000Y-74750000D03*
%TO.N,/capteur tof/TOF_INT2*%
X132803949Y-76546051D03*
%TO.N,/capteur tof/XSHUT2*%
X131007898Y-78342102D03*
%TD*%
D12*
%TO.N,GND*%
%TO.C,H101*%
X127600000Y-70000000D03*
X128302944Y-68302944D03*
X128302944Y-71697056D03*
X130000000Y-67600000D03*
D13*
X130000000Y-70000000D03*
D12*
X130000000Y-72400000D03*
X131697056Y-68302944D03*
X131697056Y-71697056D03*
X132400000Y-70000000D03*
%TD*%
%TO.N,GND*%
%TO.C,H103*%
X187600000Y-120000000D03*
X188302944Y-118302944D03*
X188302944Y-121697056D03*
X190000000Y-117600000D03*
D13*
X190000000Y-120000000D03*
D12*
X190000000Y-122400000D03*
X191697056Y-118302944D03*
X191697056Y-121697056D03*
X192400000Y-120000000D03*
%TD*%
%TO.N,GND*%
%TO.C,H102*%
X187600000Y-70000000D03*
X188302944Y-68302944D03*
X188302944Y-71697056D03*
X190000000Y-67600000D03*
D13*
X190000000Y-70000000D03*
D12*
X190000000Y-72400000D03*
X191697056Y-68302944D03*
X191697056Y-71697056D03*
X192400000Y-70000000D03*
%TD*%
D19*
%TO.N,/bms/BAT*%
%TO.C,J201*%
X178550000Y-68400000D03*
D11*
%TO.N,GND*%
X180550000Y-68400000D03*
%TD*%
D16*
%TO.N,GND*%
%TO.C,J802*%
X162810000Y-68125000D03*
D15*
%TO.N,Net-(J802-Pin_2)*%
X162810000Y-70665000D03*
%TO.N,/nrf24l01/CE_NRF*%
X160270000Y-68125000D03*
%TO.N,/nrf24l01/CSN_NRF*%
X160270000Y-70665000D03*
%TO.N,/SPI_BUS.SCK_NRF*%
X157730000Y-68125000D03*
%TO.N,/SPI_BUS.MOSI_NRF*%
X157730000Y-70665000D03*
%TO.N,/SPI_BUS.MISO_NRF*%
X155190000Y-68125000D03*
%TO.N,/nrf24l01/IRQ_NRF*%
X155190000Y-70665000D03*
%TD*%
D10*
%TO.N,Net-(Moteur702-Pin_1)*%
%TO.C,Moteur702*%
X157800000Y-120500000D03*
D11*
%TO.N,Net-(Moteur702-Pin_2)*%
X155800000Y-120500000D03*
%TD*%
D17*
%TO.N,/stm32/NRST*%
%TO.C,SW301*%
X171900000Y-117550000D03*
X178400000Y-117550000D03*
%TO.N,GND*%
X171900000Y-122050000D03*
X178400000Y-122050000D03*
%TD*%
D20*
%TO.N,GND*%
%TO.C,J202*%
X187245000Y-95670000D03*
D21*
X191425000Y-95670000D03*
D20*
X187245000Y-87030000D03*
D21*
X191425000Y-87030000D03*
%TD*%
D22*
%TO.N,GND*%
X151639376Y-99889376D03*
X173850000Y-91300000D03*
X165500000Y-94350000D03*
X155250000Y-74700000D03*
X147500000Y-82650000D03*
%TO.N,VBUS*%
X183500000Y-88000000D03*
X186670000Y-93750000D03*
X183620000Y-93750000D03*
X186670000Y-88950000D03*
X183500000Y-87000000D03*
%TO.N,GND*%
X146563000Y-95878000D03*
X146563000Y-94278000D03*
X152700000Y-106600000D03*
X166000000Y-104862500D03*
X154550000Y-86450000D03*
X169900000Y-80900000D03*
X172950000Y-81650000D03*
X168800000Y-80900000D03*
X170750000Y-84800000D03*
X165620000Y-108600000D03*
X171850000Y-83750000D03*
X164600000Y-84600000D03*
X169560000Y-78437500D03*
X155100000Y-106600000D03*
X155100000Y-107600000D03*
X169650000Y-82687500D03*
X144090000Y-95076750D03*
X155950000Y-101700000D03*
X172650000Y-78425000D03*
X188830000Y-83750000D03*
X154000000Y-108700000D03*
X190760000Y-97250000D03*
X155200000Y-108700000D03*
X156300000Y-106600000D03*
X192260000Y-85250000D03*
X191550000Y-102860000D03*
X163000000Y-106775000D03*
X191550000Y-105400000D03*
X166030000Y-103350000D03*
X155500000Y-86450000D03*
X169700000Y-118530000D03*
X170750000Y-83787500D03*
X144090000Y-94100000D03*
X170750000Y-82700000D03*
X156300000Y-108700000D03*
X169650000Y-84850000D03*
X171100000Y-78437500D03*
X175910000Y-105490000D03*
X171850000Y-82700000D03*
X176880000Y-82600000D03*
X186670000Y-88150000D03*
X191550000Y-106670000D03*
X154913000Y-90278000D03*
X152700000Y-108700000D03*
X154000000Y-106600000D03*
X158850000Y-89290000D03*
X186670000Y-94550000D03*
X172650000Y-103510000D03*
X156300000Y-107600000D03*
X168800000Y-81900000D03*
X164650000Y-86200000D03*
X171850000Y-84800000D03*
X152700000Y-107700000D03*
X183600000Y-94730000D03*
X177700000Y-103250000D03*
X153550000Y-86450000D03*
X169650000Y-83800000D03*
X176900000Y-83600000D03*
X154000000Y-107600000D03*
%TO.N,/bms/REGN*%
X165050000Y-83150000D03*
%TO.N,/bms/SYS*%
X165075000Y-79425000D03*
%TO.N,VDD*%
X154550000Y-87410000D03*
X151900000Y-111750000D03*
X128950000Y-100660000D03*
X151150000Y-83500000D03*
X138110624Y-109689376D03*
X176250000Y-85990000D03*
X155500000Y-87410000D03*
X138900000Y-110450000D03*
X166580000Y-108600000D03*
X160860000Y-110450000D03*
X166950000Y-107137500D03*
X153538000Y-88903000D03*
X129907197Y-76046803D03*
X164425000Y-73250000D03*
X128950000Y-96190000D03*
X131946573Y-74007427D03*
X135878752Y-118078752D03*
X191550000Y-107940000D03*
X177676702Y-104253298D03*
X174950000Y-105490000D03*
X139100000Y-121300000D03*
X153550000Y-87410000D03*
%TO.N,/stm32/NRST*%
X151138000Y-88903000D03*
X183341000Y-102891000D03*
%TO.N,+5V*%
X165050000Y-104862500D03*
X154825000Y-103700000D03*
X165070000Y-103350000D03*
X163000000Y-105225000D03*
X163250000Y-79250000D03*
X166950000Y-104862500D03*
%TO.N,/I2C_BUS.I2C_SCL*%
X134250000Y-92050000D03*
X175350000Y-88850000D03*
X137389376Y-110410624D03*
X157550000Y-91078000D03*
X165900000Y-88850000D03*
X139300000Y-74250000D03*
%TO.N,/I2C_BUS.I2C_SDA*%
X138178752Y-111171248D03*
X136150000Y-76450000D03*
X157500000Y-91878000D03*
X174750000Y-89500000D03*
X133450000Y-94200000D03*
X166250000Y-89750000D03*
%TO.N,/capteur tof/XSHUT3*%
X150950000Y-103150000D03*
X156350000Y-95900000D03*
%TO.N,/SPI_BUS.SCK_NRF*%
X144900000Y-87400000D03*
X144900000Y-91100000D03*
%TO.N,/SPI_BUS.MISO_NRF*%
X144900000Y-91900000D03*
X144099997Y-87400000D03*
%TO.N,/SPI_BUS.MOSI_NRF*%
X144900000Y-92700000D03*
X143299994Y-87400000D03*
%TO.N,/bms/VBUS_BQ25*%
X181500000Y-88000000D03*
X169400000Y-87000000D03*
X169400000Y-87900000D03*
X181500000Y-87000000D03*
%TO.N,Net-(JP202-B)*%
X170000000Y-90350000D03*
%TO.N,/bms/TS*%
X175800000Y-81500000D03*
%TO.N,/bms/INT_BMS*%
X176400000Y-89000000D03*
X176300000Y-92500000D03*
%TO.N,/bms/OTG_HOST*%
X157500000Y-94278000D03*
X174500000Y-85100000D03*
%TO.N,/bms/~{CE}_HOST*%
X157500000Y-93450000D03*
X177500000Y-84800000D03*
%TO.N,VDD*%
X146225000Y-97925000D03*
X147938000Y-97253000D03*
%TD*%
%TA.AperFunction,Conductor*%
%TO.N,GND*%
G36*
X193642539Y-66320185D02*
G01*
X193688294Y-66372989D01*
X193699500Y-66424500D01*
X193699500Y-74210668D01*
X193679815Y-74277707D01*
X193627011Y-74323462D01*
X193565772Y-74334286D01*
X193522658Y-74330893D01*
X192823787Y-75029765D01*
X192812518Y-74987708D01*
X192740110Y-74862292D01*
X192637708Y-74759890D01*
X192512292Y-74687482D01*
X192470234Y-74676212D01*
X193169105Y-73977340D01*
X193169104Y-73977338D01*
X193086174Y-73917087D01*
X192875802Y-73809897D01*
X192651247Y-73736934D01*
X192651248Y-73736934D01*
X192418052Y-73700000D01*
X192181948Y-73700000D01*
X191948752Y-73736934D01*
X191724197Y-73809897D01*
X191513830Y-73917084D01*
X191430894Y-73977340D01*
X192129766Y-74676212D01*
X192087708Y-74687482D01*
X191962292Y-74759890D01*
X191859890Y-74862292D01*
X191787482Y-74987708D01*
X191776212Y-75029766D01*
X191077340Y-74330894D01*
X191017084Y-74413830D01*
X190909897Y-74624197D01*
X190836934Y-74848752D01*
X190800000Y-75081947D01*
X190800000Y-75318052D01*
X190836934Y-75551247D01*
X190909897Y-75775802D01*
X191017087Y-75986174D01*
X191077338Y-76069104D01*
X191077340Y-76069105D01*
X191776212Y-75370233D01*
X191787482Y-75412292D01*
X191859890Y-75537708D01*
X191962292Y-75640110D01*
X192087708Y-75712518D01*
X192129765Y-75723787D01*
X191430893Y-76422658D01*
X191513828Y-76482914D01*
X191724197Y-76590102D01*
X191948752Y-76663065D01*
X191948751Y-76663065D01*
X192181948Y-76700000D01*
X192418052Y-76700000D01*
X192651247Y-76663065D01*
X192875802Y-76590102D01*
X193086163Y-76482918D01*
X193086169Y-76482914D01*
X193169104Y-76422658D01*
X193169105Y-76422658D01*
X192470233Y-75723787D01*
X192512292Y-75712518D01*
X192637708Y-75640110D01*
X192740110Y-75537708D01*
X192812518Y-75412292D01*
X192823787Y-75370233D01*
X193522658Y-76069105D01*
X193565771Y-76065712D01*
X193634148Y-76080076D01*
X193683905Y-76129128D01*
X193699500Y-76189330D01*
X193699500Y-80710668D01*
X193679815Y-80777707D01*
X193627011Y-80823462D01*
X193565772Y-80834286D01*
X193522658Y-80830893D01*
X192823787Y-81529765D01*
X192812518Y-81487708D01*
X192740110Y-81362292D01*
X192637708Y-81259890D01*
X192512292Y-81187482D01*
X192470234Y-81176212D01*
X193169105Y-80477340D01*
X193169104Y-80477338D01*
X193086174Y-80417087D01*
X192875802Y-80309897D01*
X192651247Y-80236934D01*
X192651248Y-80236934D01*
X192418052Y-80200000D01*
X192181948Y-80200000D01*
X191948752Y-80236934D01*
X191724197Y-80309897D01*
X191513830Y-80417084D01*
X191430894Y-80477340D01*
X192129766Y-81176212D01*
X192087708Y-81187482D01*
X191962292Y-81259890D01*
X191859890Y-81362292D01*
X191787482Y-81487708D01*
X191776212Y-81529766D01*
X191077340Y-80830894D01*
X191017084Y-80913830D01*
X190909897Y-81124197D01*
X190836934Y-81348752D01*
X190800000Y-81581947D01*
X190800000Y-81818052D01*
X190836934Y-82051247D01*
X190909897Y-82275802D01*
X191017087Y-82486174D01*
X191077338Y-82569104D01*
X191077340Y-82569105D01*
X191776212Y-81870233D01*
X191787482Y-81912292D01*
X191859890Y-82037708D01*
X191962292Y-82140110D01*
X192087708Y-82212518D01*
X192129765Y-82223787D01*
X191430893Y-82922658D01*
X191513828Y-82982914D01*
X191724197Y-83090102D01*
X191948752Y-83163065D01*
X191948751Y-83163065D01*
X192181948Y-83200000D01*
X192418052Y-83200000D01*
X192651247Y-83163065D01*
X192875802Y-83090102D01*
X193086163Y-82982918D01*
X193086169Y-82982914D01*
X193169104Y-82922658D01*
X193169105Y-82922658D01*
X192470233Y-82223787D01*
X192512292Y-82212518D01*
X192637708Y-82140110D01*
X192740110Y-82037708D01*
X192812518Y-81912292D01*
X192823787Y-81870233D01*
X193522658Y-82569105D01*
X193565771Y-82565712D01*
X193634148Y-82580076D01*
X193683905Y-82629128D01*
X193699500Y-82689330D01*
X193699500Y-123575500D01*
X193679815Y-123642539D01*
X193627011Y-123688294D01*
X193575500Y-123699500D01*
X178960366Y-123699500D01*
X178893327Y-123679815D01*
X178847572Y-123627011D01*
X178837628Y-123557853D01*
X178866653Y-123494297D01*
X178922047Y-123457569D01*
X178975804Y-123440101D01*
X179186163Y-123332918D01*
X179186169Y-123332914D01*
X179269104Y-123272658D01*
X179269105Y-123272658D01*
X178570233Y-122573787D01*
X178612292Y-122562518D01*
X178737708Y-122490110D01*
X178840110Y-122387708D01*
X178912518Y-122262292D01*
X178923787Y-122220233D01*
X179622658Y-122919105D01*
X179622658Y-122919104D01*
X179682914Y-122836169D01*
X179682918Y-122836163D01*
X179790102Y-122625802D01*
X179863065Y-122401247D01*
X179900000Y-122168052D01*
X179900000Y-121931947D01*
X179863065Y-121698752D01*
X179790102Y-121474197D01*
X179682914Y-121263828D01*
X179622658Y-121180894D01*
X179622658Y-121180893D01*
X178923787Y-121879765D01*
X178912518Y-121837708D01*
X178840110Y-121712292D01*
X178737708Y-121609890D01*
X178612292Y-121537482D01*
X178570234Y-121526212D01*
X179269105Y-120827340D01*
X179269104Y-120827338D01*
X179186174Y-120767087D01*
X178975802Y-120659897D01*
X178751247Y-120586934D01*
X178751248Y-120586934D01*
X178518052Y-120550000D01*
X178281948Y-120550000D01*
X178048752Y-120586934D01*
X177824197Y-120659897D01*
X177613830Y-120767084D01*
X177530894Y-120827340D01*
X178229766Y-121526212D01*
X178187708Y-121537482D01*
X178062292Y-121609890D01*
X177959890Y-121712292D01*
X177887482Y-121837708D01*
X177876212Y-121879766D01*
X177177340Y-121180894D01*
X177117084Y-121263830D01*
X177009897Y-121474197D01*
X176936934Y-121698752D01*
X176900000Y-121931947D01*
X176900000Y-122168052D01*
X176936934Y-122401247D01*
X177009897Y-122625802D01*
X177117087Y-122836174D01*
X177177338Y-122919104D01*
X177177340Y-122919105D01*
X177876212Y-122220233D01*
X177887482Y-122262292D01*
X177959890Y-122387708D01*
X178062292Y-122490110D01*
X178187708Y-122562518D01*
X178229765Y-122573787D01*
X177530893Y-123272658D01*
X177613828Y-123332914D01*
X177824195Y-123440101D01*
X177877953Y-123457569D01*
X177935628Y-123497007D01*
X177962826Y-123561366D01*
X177950911Y-123630212D01*
X177903667Y-123681688D01*
X177839634Y-123699500D01*
X172460366Y-123699500D01*
X172393327Y-123679815D01*
X172347572Y-123627011D01*
X172337628Y-123557853D01*
X172366653Y-123494297D01*
X172422047Y-123457569D01*
X172475804Y-123440101D01*
X172686163Y-123332918D01*
X172686169Y-123332914D01*
X172769104Y-123272658D01*
X172769105Y-123272658D01*
X172070233Y-122573787D01*
X172112292Y-122562518D01*
X172237708Y-122490110D01*
X172340110Y-122387708D01*
X172412518Y-122262292D01*
X172423787Y-122220233D01*
X173122658Y-122919105D01*
X173122658Y-122919104D01*
X173182914Y-122836169D01*
X173182918Y-122836163D01*
X173290102Y-122625802D01*
X173363065Y-122401247D01*
X173400000Y-122168052D01*
X173400000Y-121931947D01*
X173363065Y-121698752D01*
X173290102Y-121474197D01*
X173182914Y-121263828D01*
X173122658Y-121180894D01*
X173122658Y-121180893D01*
X172423787Y-121879765D01*
X172412518Y-121837708D01*
X172340110Y-121712292D01*
X172237708Y-121609890D01*
X172112292Y-121537482D01*
X172070234Y-121526212D01*
X172769105Y-120827340D01*
X172769104Y-120827339D01*
X172686174Y-120767087D01*
X172475802Y-120659897D01*
X172251247Y-120586934D01*
X172251248Y-120586934D01*
X172018052Y-120550000D01*
X171781948Y-120550000D01*
X171548752Y-120586934D01*
X171324197Y-120659897D01*
X171113830Y-120767084D01*
X171030894Y-120827340D01*
X171729766Y-121526212D01*
X171687708Y-121537482D01*
X171562292Y-121609890D01*
X171459890Y-121712292D01*
X171387482Y-121837708D01*
X171376212Y-121879765D01*
X170677340Y-121180894D01*
X170617084Y-121263830D01*
X170509897Y-121474197D01*
X170436934Y-121698752D01*
X170400000Y-121931947D01*
X170400000Y-122168052D01*
X170436934Y-122401247D01*
X170509897Y-122625802D01*
X170617087Y-122836174D01*
X170677338Y-122919104D01*
X170677340Y-122919105D01*
X171376212Y-122220233D01*
X171387482Y-122262292D01*
X171459890Y-122387708D01*
X171562292Y-122490110D01*
X171687708Y-122562518D01*
X171729765Y-122573787D01*
X171030893Y-123272658D01*
X171113828Y-123332914D01*
X171324195Y-123440101D01*
X171377953Y-123457569D01*
X171435628Y-123497007D01*
X171462826Y-123561366D01*
X171450911Y-123630212D01*
X171403667Y-123681688D01*
X171339634Y-123699500D01*
X126424500Y-123699500D01*
X126357461Y-123679815D01*
X126311706Y-123627011D01*
X126300500Y-123575500D01*
X126300500Y-121240691D01*
X138649500Y-121240691D01*
X138649500Y-121359309D01*
X138680201Y-121473886D01*
X138739511Y-121576613D01*
X138823387Y-121660489D01*
X138926114Y-121719799D01*
X139040691Y-121750500D01*
X139040694Y-121750500D01*
X139159306Y-121750500D01*
X139159309Y-121750500D01*
X139273886Y-121719799D01*
X139376613Y-121660489D01*
X139460489Y-121576613D01*
X139519799Y-121473886D01*
X139550500Y-121359309D01*
X139550500Y-121240691D01*
X139519799Y-121126114D01*
X139460489Y-121023387D01*
X139376613Y-120939511D01*
X139273886Y-120880201D01*
X139159309Y-120849500D01*
X139040691Y-120849500D01*
X138926114Y-120880201D01*
X138926112Y-120880201D01*
X138926112Y-120880202D01*
X138823387Y-120939511D01*
X138823384Y-120939513D01*
X138739513Y-121023384D01*
X138739511Y-121023387D01*
X138680201Y-121126114D01*
X138649500Y-121240691D01*
X126300500Y-121240691D01*
X126300500Y-120146153D01*
X147999500Y-120146153D01*
X147999500Y-120853846D01*
X148030261Y-121008489D01*
X148030264Y-121008501D01*
X148090602Y-121154172D01*
X148090609Y-121154185D01*
X148178210Y-121285288D01*
X148178213Y-121285292D01*
X148289707Y-121396786D01*
X148289711Y-121396789D01*
X148420814Y-121484390D01*
X148420827Y-121484397D01*
X148566498Y-121544735D01*
X148566503Y-121544737D01*
X148706810Y-121572646D01*
X148721153Y-121575499D01*
X148721156Y-121575500D01*
X148721158Y-121575500D01*
X148878844Y-121575500D01*
X148878845Y-121575499D01*
X149033497Y-121544737D01*
X149179179Y-121484394D01*
X149310289Y-121396789D01*
X149421789Y-121285289D01*
X149509394Y-121154179D01*
X149569737Y-121008497D01*
X149600500Y-120853842D01*
X149600500Y-120146158D01*
X149600500Y-120146155D01*
X149600499Y-120146153D01*
X149569738Y-119991510D01*
X149569737Y-119991503D01*
X149532043Y-119900500D01*
X149517474Y-119865327D01*
X149517458Y-119865289D01*
X149515321Y-119860130D01*
X149509394Y-119845821D01*
X149509391Y-119845816D01*
X149509390Y-119845814D01*
X149492629Y-119820730D01*
X149999500Y-119820730D01*
X149999500Y-121179269D01*
X150002353Y-121209699D01*
X150002353Y-121209701D01*
X150047206Y-121337880D01*
X150047207Y-121337882D01*
X150127850Y-121447150D01*
X150237118Y-121527793D01*
X150264808Y-121537482D01*
X150365299Y-121572646D01*
X150395730Y-121575500D01*
X150395734Y-121575500D01*
X151204270Y-121575500D01*
X151234699Y-121572646D01*
X151234701Y-121572646D01*
X151298790Y-121550219D01*
X151362882Y-121527793D01*
X151472150Y-121447150D01*
X151552793Y-121337882D01*
X151586801Y-121240693D01*
X151597646Y-121209701D01*
X151597646Y-121209699D01*
X151600500Y-121179269D01*
X151600500Y-120146153D01*
X154999500Y-120146153D01*
X154999500Y-120853846D01*
X155030261Y-121008489D01*
X155030264Y-121008501D01*
X155090602Y-121154172D01*
X155090609Y-121154185D01*
X155178210Y-121285288D01*
X155178213Y-121285292D01*
X155289707Y-121396786D01*
X155289711Y-121396789D01*
X155420814Y-121484390D01*
X155420827Y-121484397D01*
X155566498Y-121544735D01*
X155566503Y-121544737D01*
X155706810Y-121572646D01*
X155721153Y-121575499D01*
X155721156Y-121575500D01*
X155721158Y-121575500D01*
X155878844Y-121575500D01*
X155878845Y-121575499D01*
X156033497Y-121544737D01*
X156179179Y-121484394D01*
X156310289Y-121396789D01*
X156421789Y-121285289D01*
X156509394Y-121154179D01*
X156569737Y-121008497D01*
X156600500Y-120853842D01*
X156600500Y-120146158D01*
X156600500Y-120146155D01*
X156600499Y-120146153D01*
X156569738Y-119991510D01*
X156569737Y-119991503D01*
X156532043Y-119900500D01*
X156517474Y-119865327D01*
X156517458Y-119865289D01*
X156515321Y-119860130D01*
X156509394Y-119845821D01*
X156509391Y-119845816D01*
X156509390Y-119845814D01*
X156492629Y-119820730D01*
X156999500Y-119820730D01*
X156999500Y-121179269D01*
X157002353Y-121209699D01*
X157002353Y-121209701D01*
X157047206Y-121337880D01*
X157047207Y-121337882D01*
X157127850Y-121447150D01*
X157237118Y-121527793D01*
X157264808Y-121537482D01*
X157365299Y-121572646D01*
X157395730Y-121575500D01*
X157395734Y-121575500D01*
X158204270Y-121575500D01*
X158234699Y-121572646D01*
X158234701Y-121572646D01*
X158298790Y-121550219D01*
X158362882Y-121527793D01*
X158472150Y-121447150D01*
X158552793Y-121337882D01*
X158586801Y-121240693D01*
X158597646Y-121209701D01*
X158597646Y-121209699D01*
X158600500Y-121179269D01*
X158600500Y-119820730D01*
X158597646Y-119790300D01*
X158597646Y-119790298D01*
X158554143Y-119665977D01*
X158552793Y-119662118D01*
X158472150Y-119552850D01*
X158362882Y-119472207D01*
X158362880Y-119472206D01*
X158234700Y-119427353D01*
X158204270Y-119424500D01*
X158204266Y-119424500D01*
X157395734Y-119424500D01*
X157395730Y-119424500D01*
X157365300Y-119427353D01*
X157365298Y-119427353D01*
X157237119Y-119472206D01*
X157237117Y-119472207D01*
X157127850Y-119552850D01*
X157047207Y-119662117D01*
X157047206Y-119662119D01*
X157002353Y-119790298D01*
X157002353Y-119790300D01*
X156999500Y-119820730D01*
X156492629Y-119820730D01*
X156421789Y-119714711D01*
X156421786Y-119714707D01*
X156310292Y-119603213D01*
X156310288Y-119603210D01*
X156179185Y-119515609D01*
X156179172Y-119515602D01*
X156033501Y-119455264D01*
X156033489Y-119455261D01*
X155878845Y-119424500D01*
X155878842Y-119424500D01*
X155721158Y-119424500D01*
X155721155Y-119424500D01*
X155566510Y-119455261D01*
X155566498Y-119455264D01*
X155420827Y-119515602D01*
X155420814Y-119515609D01*
X155289711Y-119603210D01*
X155289707Y-119603213D01*
X155178213Y-119714707D01*
X155178210Y-119714711D01*
X155090609Y-119845814D01*
X155090602Y-119845827D01*
X155030264Y-119991498D01*
X155030261Y-119991510D01*
X154999500Y-120146153D01*
X151600500Y-120146153D01*
X151600500Y-119820730D01*
X151597646Y-119790300D01*
X151597646Y-119790298D01*
X151554143Y-119665977D01*
X151552793Y-119662118D01*
X151472150Y-119552850D01*
X151362882Y-119472207D01*
X151362880Y-119472206D01*
X151234700Y-119427353D01*
X151204270Y-119424500D01*
X151204266Y-119424500D01*
X150395734Y-119424500D01*
X150395730Y-119424500D01*
X150365300Y-119427353D01*
X150365298Y-119427353D01*
X150237119Y-119472206D01*
X150237117Y-119472207D01*
X150127850Y-119552850D01*
X150047207Y-119662117D01*
X150047206Y-119662119D01*
X150002353Y-119790298D01*
X150002353Y-119790300D01*
X149999500Y-119820730D01*
X149492629Y-119820730D01*
X149421789Y-119714711D01*
X149421786Y-119714707D01*
X149310292Y-119603213D01*
X149310288Y-119603210D01*
X149179185Y-119515609D01*
X149179172Y-119515602D01*
X149033501Y-119455264D01*
X149033489Y-119455261D01*
X148878845Y-119424500D01*
X148878842Y-119424500D01*
X148721158Y-119424500D01*
X148721155Y-119424500D01*
X148566510Y-119455261D01*
X148566498Y-119455264D01*
X148420827Y-119515602D01*
X148420814Y-119515609D01*
X148289711Y-119603210D01*
X148289707Y-119603213D01*
X148178213Y-119714707D01*
X148178210Y-119714711D01*
X148090609Y-119845814D01*
X148090602Y-119845827D01*
X148030264Y-119991498D01*
X148030261Y-119991510D01*
X147999500Y-120146153D01*
X126300500Y-120146153D01*
X126300500Y-118746530D01*
X138999500Y-118746530D01*
X138999500Y-118953469D01*
X139039868Y-119156412D01*
X139039870Y-119156420D01*
X139119058Y-119347596D01*
X139234024Y-119519657D01*
X139380342Y-119665975D01*
X139380345Y-119665977D01*
X139552402Y-119780941D01*
X139743580Y-119860130D01*
X139946530Y-119900499D01*
X139946534Y-119900500D01*
X139946535Y-119900500D01*
X140153466Y-119900500D01*
X140153467Y-119900499D01*
X140356420Y-119860130D01*
X140547598Y-119780941D01*
X140719655Y-119665977D01*
X140865977Y-119519655D01*
X140980941Y-119347598D01*
X141060130Y-119156420D01*
X141100500Y-118953465D01*
X141100500Y-118746535D01*
X141060130Y-118543580D01*
X140980941Y-118352402D01*
X140865977Y-118180345D01*
X140865975Y-118180342D01*
X140719657Y-118034024D01*
X140633626Y-117976541D01*
X140547598Y-117919059D01*
X140513333Y-117904866D01*
X140356420Y-117839870D01*
X140356412Y-117839868D01*
X140153469Y-117799500D01*
X140153465Y-117799500D01*
X139946535Y-117799500D01*
X139946530Y-117799500D01*
X139743587Y-117839868D01*
X139743579Y-117839870D01*
X139552403Y-117919058D01*
X139380342Y-118034024D01*
X139234024Y-118180342D01*
X139119058Y-118352403D01*
X139039870Y-118543579D01*
X139039868Y-118543587D01*
X138999500Y-118746530D01*
X126300500Y-118746530D01*
X126300500Y-118019443D01*
X135428252Y-118019443D01*
X135428252Y-118138061D01*
X135458953Y-118252638D01*
X135518263Y-118355365D01*
X135602139Y-118439241D01*
X135704866Y-118498551D01*
X135819443Y-118529252D01*
X135819446Y-118529252D01*
X135938058Y-118529252D01*
X135938061Y-118529252D01*
X136052638Y-118498551D01*
X136155365Y-118439241D01*
X136239241Y-118355365D01*
X136298551Y-118252638D01*
X136329252Y-118138061D01*
X136329252Y-118019443D01*
X136298551Y-117904866D01*
X136239241Y-117802139D01*
X136155365Y-117718263D01*
X136052638Y-117658953D01*
X135938061Y-117628252D01*
X135819443Y-117628252D01*
X135704866Y-117658953D01*
X135704864Y-117658953D01*
X135704864Y-117658954D01*
X135602139Y-117718263D01*
X135602136Y-117718265D01*
X135518265Y-117802136D01*
X135518263Y-117802139D01*
X135458953Y-117904866D01*
X135428252Y-118019443D01*
X126300500Y-118019443D01*
X126300500Y-116950479D01*
X137203449Y-116950479D01*
X137203449Y-117157418D01*
X137243817Y-117360361D01*
X137243819Y-117360369D01*
X137323007Y-117551545D01*
X137437973Y-117723606D01*
X137584291Y-117869924D01*
X137584294Y-117869926D01*
X137756351Y-117984890D01*
X137947529Y-118064079D01*
X138150479Y-118104448D01*
X138150483Y-118104449D01*
X138150484Y-118104449D01*
X138357415Y-118104449D01*
X138357416Y-118104448D01*
X138560369Y-118064079D01*
X138751547Y-117984890D01*
X138923604Y-117869926D01*
X139069926Y-117723604D01*
X139184890Y-117551547D01*
X139224669Y-117455513D01*
X170699500Y-117455513D01*
X170699500Y-117644486D01*
X170729059Y-117831118D01*
X170787454Y-118010836D01*
X170852279Y-118138061D01*
X170873240Y-118179199D01*
X170984310Y-118332073D01*
X171117927Y-118465690D01*
X171270801Y-118576760D01*
X171350347Y-118617290D01*
X171439163Y-118662545D01*
X171439165Y-118662545D01*
X171439168Y-118662547D01*
X171535497Y-118693846D01*
X171618881Y-118720940D01*
X171805514Y-118750500D01*
X171805519Y-118750500D01*
X171994486Y-118750500D01*
X172181118Y-118720940D01*
X172360832Y-118662547D01*
X172529199Y-118576760D01*
X172682073Y-118465690D01*
X172815690Y-118332073D01*
X172926760Y-118179199D01*
X173012547Y-118010832D01*
X173070940Y-117831118D01*
X173087968Y-117723606D01*
X173100500Y-117644486D01*
X173100500Y-117455513D01*
X177199500Y-117455513D01*
X177199500Y-117644486D01*
X177229059Y-117831118D01*
X177287454Y-118010836D01*
X177352279Y-118138061D01*
X177373240Y-118179199D01*
X177484310Y-118332073D01*
X177617927Y-118465690D01*
X177770801Y-118576760D01*
X177850347Y-118617290D01*
X177939163Y-118662545D01*
X177939165Y-118662545D01*
X177939168Y-118662547D01*
X178035497Y-118693846D01*
X178118881Y-118720940D01*
X178305514Y-118750500D01*
X178305519Y-118750500D01*
X178494486Y-118750500D01*
X178681118Y-118720940D01*
X178860832Y-118662547D01*
X179029199Y-118576760D01*
X179182073Y-118465690D01*
X179315690Y-118332073D01*
X179426760Y-118179199D01*
X179512547Y-118010832D01*
X179570940Y-117831118D01*
X179587968Y-117723606D01*
X179600500Y-117644486D01*
X179600500Y-117455513D01*
X179570940Y-117268881D01*
X179512545Y-117089163D01*
X179441884Y-116950484D01*
X179426760Y-116920801D01*
X179315690Y-116767927D01*
X179182073Y-116634310D01*
X179029199Y-116523240D01*
X178860836Y-116437454D01*
X178681118Y-116379059D01*
X178494486Y-116349500D01*
X178494481Y-116349500D01*
X178305519Y-116349500D01*
X178305514Y-116349500D01*
X178118881Y-116379059D01*
X177939163Y-116437454D01*
X177770800Y-116523240D01*
X177725226Y-116556352D01*
X177617927Y-116634310D01*
X177617925Y-116634312D01*
X177617924Y-116634312D01*
X177484312Y-116767924D01*
X177484312Y-116767925D01*
X177484310Y-116767927D01*
X177436610Y-116833579D01*
X177373240Y-116920800D01*
X177287454Y-117089163D01*
X177229059Y-117268881D01*
X177199500Y-117455513D01*
X173100500Y-117455513D01*
X173070940Y-117268881D01*
X173012545Y-117089163D01*
X172941884Y-116950484D01*
X172926760Y-116920801D01*
X172815690Y-116767927D01*
X172682073Y-116634310D01*
X172529199Y-116523240D01*
X172360836Y-116437454D01*
X172181118Y-116379059D01*
X171994486Y-116349500D01*
X171994481Y-116349500D01*
X171805519Y-116349500D01*
X171805514Y-116349500D01*
X171618881Y-116379059D01*
X171439163Y-116437454D01*
X171270800Y-116523240D01*
X171225226Y-116556352D01*
X171117927Y-116634310D01*
X171117925Y-116634312D01*
X171117924Y-116634312D01*
X170984312Y-116767924D01*
X170984312Y-116767925D01*
X170984310Y-116767927D01*
X170936610Y-116833579D01*
X170873240Y-116920800D01*
X170787454Y-117089163D01*
X170729059Y-117268881D01*
X170699500Y-117455513D01*
X139224669Y-117455513D01*
X139264079Y-117360369D01*
X139304449Y-117157414D01*
X139304449Y-116950484D01*
X139264079Y-116747529D01*
X139184890Y-116556351D01*
X139069926Y-116384294D01*
X139069924Y-116384291D01*
X138923606Y-116237973D01*
X138837575Y-116180490D01*
X138751547Y-116123008D01*
X138560369Y-116043819D01*
X138560361Y-116043817D01*
X138357418Y-116003449D01*
X138357414Y-116003449D01*
X138150484Y-116003449D01*
X138150479Y-116003449D01*
X137947536Y-116043817D01*
X137947528Y-116043819D01*
X137756352Y-116123007D01*
X137584291Y-116237973D01*
X137437973Y-116384291D01*
X137323007Y-116556352D01*
X137243819Y-116747528D01*
X137243817Y-116747536D01*
X137203449Y-116950479D01*
X126300500Y-116950479D01*
X126300500Y-115154428D01*
X135407398Y-115154428D01*
X135407398Y-115361367D01*
X135447766Y-115564310D01*
X135447768Y-115564318D01*
X135526956Y-115755494D01*
X135641922Y-115927555D01*
X135788240Y-116073873D01*
X135788243Y-116073875D01*
X135960300Y-116188839D01*
X136151478Y-116268028D01*
X136354428Y-116308397D01*
X136354432Y-116308398D01*
X136354433Y-116308398D01*
X136561364Y-116308398D01*
X136561365Y-116308397D01*
X136764318Y-116268028D01*
X136955496Y-116188839D01*
X137127553Y-116073875D01*
X137273875Y-115927553D01*
X137388839Y-115755496D01*
X137468028Y-115564318D01*
X137508398Y-115361363D01*
X137508398Y-115154433D01*
X137468028Y-114951478D01*
X137388839Y-114760300D01*
X137273875Y-114588243D01*
X137273873Y-114588240D01*
X137127555Y-114441922D01*
X137041524Y-114384439D01*
X136955496Y-114326957D01*
X136764318Y-114247768D01*
X136764310Y-114247766D01*
X136561367Y-114207398D01*
X136561363Y-114207398D01*
X136354433Y-114207398D01*
X136354428Y-114207398D01*
X136151485Y-114247766D01*
X136151477Y-114247768D01*
X135960301Y-114326956D01*
X135788240Y-114441922D01*
X135641922Y-114588240D01*
X135526956Y-114760301D01*
X135447768Y-114951477D01*
X135447766Y-114951485D01*
X135407398Y-115154428D01*
X126300500Y-115154428D01*
X126300500Y-109869741D01*
X129663235Y-109869741D01*
X129663235Y-109869746D01*
X129678795Y-109947974D01*
X129678795Y-109947975D01*
X129711925Y-109997556D01*
X129711928Y-109997560D01*
X130941927Y-111227559D01*
X130941931Y-111227562D01*
X130941933Y-111227564D01*
X130991513Y-111260692D01*
X131069742Y-111276253D01*
X131069744Y-111276253D01*
X131069746Y-111276253D01*
X131122818Y-111265696D01*
X131147975Y-111260692D01*
X131197555Y-111227564D01*
X131412302Y-111012817D01*
X131473625Y-110979332D01*
X131543316Y-110984316D01*
X131599250Y-111026187D01*
X131623667Y-111091652D01*
X131615401Y-111142679D01*
X131616206Y-111142941D01*
X131549037Y-111349665D01*
X131549037Y-111349668D01*
X131538564Y-111415795D01*
X132432783Y-111415795D01*
X132399870Y-111472802D01*
X132365795Y-111599969D01*
X132365795Y-111731621D01*
X132399870Y-111858788D01*
X132432783Y-111915795D01*
X131538564Y-111915795D01*
X131549037Y-111981921D01*
X131549037Y-111981924D01*
X131614699Y-112184012D01*
X131711174Y-112373352D01*
X131836067Y-112545254D01*
X131836071Y-112545259D01*
X131986330Y-112695518D01*
X131986335Y-112695522D01*
X132158237Y-112820415D01*
X132347577Y-112916890D01*
X132549666Y-112982552D01*
X132615795Y-112993026D01*
X132615795Y-112098807D01*
X132672802Y-112131720D01*
X132799969Y-112165795D01*
X132931621Y-112165795D01*
X133058788Y-112131720D01*
X133115795Y-112098807D01*
X133115795Y-112993025D01*
X133181921Y-112982552D01*
X133181924Y-112982552D01*
X133384014Y-112916889D01*
X133549082Y-112832782D01*
X133617751Y-112819885D01*
X133682492Y-112846161D01*
X133722749Y-112903267D01*
X133725742Y-112973072D01*
X133719939Y-112990718D01*
X133651717Y-113155421D01*
X133651714Y-113155433D01*
X133611346Y-113358376D01*
X133611346Y-113565315D01*
X133651714Y-113768258D01*
X133651716Y-113768266D01*
X133730904Y-113959442D01*
X133845870Y-114131503D01*
X133992188Y-114277821D01*
X133992191Y-114277823D01*
X134164248Y-114392787D01*
X134355426Y-114471976D01*
X134558376Y-114512345D01*
X134558380Y-114512346D01*
X134558381Y-114512346D01*
X134765312Y-114512346D01*
X134765313Y-114512345D01*
X134968266Y-114471976D01*
X135159444Y-114392787D01*
X135331501Y-114277823D01*
X135477823Y-114131501D01*
X135592787Y-113959444D01*
X135671976Y-113768266D01*
X135712346Y-113565311D01*
X135712346Y-113358381D01*
X135671976Y-113155426D01*
X135592787Y-112964248D01*
X135477823Y-112792191D01*
X135477821Y-112792188D01*
X135331503Y-112645870D01*
X135180919Y-112545254D01*
X135159444Y-112530905D01*
X134968266Y-112451716D01*
X134968258Y-112451714D01*
X134765315Y-112411346D01*
X134765311Y-112411346D01*
X134558381Y-112411346D01*
X134558376Y-112411346D01*
X134355433Y-112451714D01*
X134355421Y-112451717D01*
X134190718Y-112519939D01*
X134121249Y-112527408D01*
X134058770Y-112496132D01*
X134023118Y-112436043D01*
X134025612Y-112366218D01*
X134032782Y-112349082D01*
X134116889Y-112184014D01*
X134182552Y-111981924D01*
X134182552Y-111981921D01*
X134193026Y-111915795D01*
X133298807Y-111915795D01*
X133331720Y-111858788D01*
X133365795Y-111731621D01*
X133365795Y-111690691D01*
X151449500Y-111690691D01*
X151449500Y-111809309D01*
X151480201Y-111923886D01*
X151539511Y-112026613D01*
X151623387Y-112110489D01*
X151726114Y-112169799D01*
X151840691Y-112200500D01*
X151840694Y-112200500D01*
X151959306Y-112200500D01*
X151959309Y-112200500D01*
X152073886Y-112169799D01*
X152176613Y-112110489D01*
X152260489Y-112026613D01*
X152319799Y-111923886D01*
X152350500Y-111809309D01*
X152350500Y-111690691D01*
X152319799Y-111576114D01*
X152260489Y-111473387D01*
X152176613Y-111389511D01*
X152073886Y-111330201D01*
X151959309Y-111299500D01*
X151840691Y-111299500D01*
X151726114Y-111330201D01*
X151726112Y-111330201D01*
X151726112Y-111330202D01*
X151623387Y-111389511D01*
X151623384Y-111389513D01*
X151539513Y-111473384D01*
X151539511Y-111473387D01*
X151480201Y-111576114D01*
X151449500Y-111690691D01*
X133365795Y-111690691D01*
X133365795Y-111599969D01*
X133331720Y-111472802D01*
X133298807Y-111415795D01*
X134193026Y-111415795D01*
X134182552Y-111349668D01*
X134182552Y-111349665D01*
X134116890Y-111147577D01*
X134020415Y-110958237D01*
X133895522Y-110786335D01*
X133895518Y-110786330D01*
X133745259Y-110636071D01*
X133745254Y-110636067D01*
X133573352Y-110511174D01*
X133460502Y-110453673D01*
X133384009Y-110414698D01*
X133384011Y-110414698D01*
X133188933Y-110351315D01*
X136938876Y-110351315D01*
X136938876Y-110469933D01*
X136969577Y-110584510D01*
X137028887Y-110687237D01*
X137112763Y-110771113D01*
X137215490Y-110830423D01*
X137330067Y-110861124D01*
X137330070Y-110861124D01*
X137448682Y-110861124D01*
X137448685Y-110861124D01*
X137563262Y-110830423D01*
X137600596Y-110808867D01*
X137668495Y-110792394D01*
X137734522Y-110815245D01*
X137777714Y-110870165D01*
X137784357Y-110939719D01*
X137769985Y-110978253D01*
X137758954Y-110997359D01*
X137758953Y-110997361D01*
X137758953Y-110997362D01*
X137728252Y-111111939D01*
X137728252Y-111230557D01*
X137758953Y-111345134D01*
X137818263Y-111447861D01*
X137902139Y-111531737D01*
X138004866Y-111591047D01*
X138119443Y-111621748D01*
X138119446Y-111621748D01*
X138238058Y-111621748D01*
X138238061Y-111621748D01*
X138352638Y-111591047D01*
X138455365Y-111531737D01*
X138539241Y-111447861D01*
X138598551Y-111345134D01*
X138629252Y-111230557D01*
X138629252Y-111111939D01*
X138607446Y-111030558D01*
X138609109Y-110960714D01*
X138648271Y-110902851D01*
X138712499Y-110875346D01*
X138759308Y-110878693D01*
X138840691Y-110900500D01*
X138840694Y-110900500D01*
X138959306Y-110900500D01*
X138959309Y-110900500D01*
X139073886Y-110869799D01*
X139176613Y-110810489D01*
X139260489Y-110726613D01*
X139319799Y-110623886D01*
X139350500Y-110509309D01*
X139350500Y-110390691D01*
X160409500Y-110390691D01*
X160409500Y-110509309D01*
X160440201Y-110623886D01*
X160499511Y-110726613D01*
X160583387Y-110810489D01*
X160686114Y-110869799D01*
X160800691Y-110900500D01*
X160800694Y-110900500D01*
X160919306Y-110900500D01*
X160919309Y-110900500D01*
X161033886Y-110869799D01*
X161136613Y-110810489D01*
X161220489Y-110726613D01*
X161279799Y-110623886D01*
X161310500Y-110509309D01*
X161310500Y-110390691D01*
X161279799Y-110276114D01*
X161220489Y-110173387D01*
X161136613Y-110089511D01*
X161033886Y-110030201D01*
X160919309Y-109999500D01*
X160800691Y-109999500D01*
X160686114Y-110030201D01*
X160686112Y-110030201D01*
X160686112Y-110030202D01*
X160583387Y-110089511D01*
X160583384Y-110089513D01*
X160499513Y-110173384D01*
X160499511Y-110173387D01*
X160473482Y-110218471D01*
X160440201Y-110276114D01*
X160409500Y-110390691D01*
X139350500Y-110390691D01*
X139319799Y-110276114D01*
X139260489Y-110173387D01*
X139176613Y-110089511D01*
X139073886Y-110030201D01*
X138959309Y-109999500D01*
X138840691Y-109999500D01*
X138726114Y-110030201D01*
X138726113Y-110030201D01*
X138726111Y-110030202D01*
X138688777Y-110051757D01*
X138620877Y-110068229D01*
X138554850Y-110045376D01*
X138511660Y-109990454D01*
X138505019Y-109920901D01*
X138519391Y-109882368D01*
X138530423Y-109863262D01*
X138561124Y-109748685D01*
X138561124Y-109630067D01*
X138530423Y-109515490D01*
X138471113Y-109412763D01*
X138387237Y-109328887D01*
X138284510Y-109269577D01*
X138169933Y-109238876D01*
X138051315Y-109238876D01*
X137936738Y-109269577D01*
X137936736Y-109269577D01*
X137936736Y-109269578D01*
X137834011Y-109328887D01*
X137834008Y-109328889D01*
X137750137Y-109412760D01*
X137750135Y-109412763D01*
X137690825Y-109515490D01*
X137660124Y-109630067D01*
X137660124Y-109748685D01*
X137681928Y-109830061D01*
X137680266Y-109899910D01*
X137641104Y-109957773D01*
X137576875Y-109985277D01*
X137530062Y-109981929D01*
X137448685Y-109960124D01*
X137330067Y-109960124D01*
X137215490Y-109990825D01*
X137215488Y-109990825D01*
X137215488Y-109990826D01*
X137112763Y-110050135D01*
X137112760Y-110050137D01*
X137028889Y-110134008D01*
X137028887Y-110134011D01*
X136980124Y-110218471D01*
X136969577Y-110236738D01*
X136938876Y-110351315D01*
X133188933Y-110351315D01*
X133181919Y-110349036D01*
X133115795Y-110338563D01*
X133115795Y-111232783D01*
X133058788Y-111199870D01*
X132931621Y-111165795D01*
X132799969Y-111165795D01*
X132672802Y-111199870D01*
X132615795Y-111232783D01*
X132615795Y-110338563D01*
X132615794Y-110338563D01*
X132549670Y-110349036D01*
X132342940Y-110416206D01*
X132342588Y-110415124D01*
X132278465Y-110422010D01*
X132215990Y-110390727D01*
X132180346Y-110330633D01*
X132182849Y-110260808D01*
X132212817Y-110212302D01*
X132427559Y-109997560D01*
X132427564Y-109997555D01*
X132460692Y-109947975D01*
X132476253Y-109869744D01*
X132476253Y-109869741D01*
X132460692Y-109791513D01*
X132460692Y-109791512D01*
X132444070Y-109766637D01*
X132427564Y-109741933D01*
X132427562Y-109741931D01*
X132427559Y-109741927D01*
X131226323Y-108540691D01*
X166129500Y-108540691D01*
X166129500Y-108659309D01*
X166160201Y-108773886D01*
X166219511Y-108876613D01*
X166303387Y-108960489D01*
X166406114Y-109019799D01*
X166520691Y-109050500D01*
X166520694Y-109050500D01*
X166639306Y-109050500D01*
X166639309Y-109050500D01*
X166753886Y-109019799D01*
X166856613Y-108960489D01*
X166940489Y-108876613D01*
X166999799Y-108773886D01*
X167030500Y-108659309D01*
X167030500Y-108540691D01*
X166999799Y-108426114D01*
X166940489Y-108323387D01*
X166856613Y-108239511D01*
X166753886Y-108180201D01*
X166639309Y-108149500D01*
X166520691Y-108149500D01*
X166406114Y-108180201D01*
X166406112Y-108180201D01*
X166406112Y-108180202D01*
X166303387Y-108239511D01*
X166303384Y-108239513D01*
X166219513Y-108323384D01*
X166219511Y-108323387D01*
X166160201Y-108426114D01*
X166129500Y-108540691D01*
X131226323Y-108540691D01*
X131197560Y-108511928D01*
X131197556Y-108511925D01*
X131147974Y-108478795D01*
X131069746Y-108463235D01*
X131069742Y-108463235D01*
X130991513Y-108478795D01*
X130991512Y-108478795D01*
X130941931Y-108511925D01*
X130941927Y-108511928D01*
X129711928Y-109741927D01*
X129711925Y-109741931D01*
X129678795Y-109791512D01*
X129678795Y-109791513D01*
X129663235Y-109869741D01*
X126300500Y-109869741D01*
X126300500Y-107880691D01*
X191099500Y-107880691D01*
X191099500Y-107999309D01*
X191130201Y-108113886D01*
X191189511Y-108216613D01*
X191273387Y-108300489D01*
X191376114Y-108359799D01*
X191490691Y-108390500D01*
X191490694Y-108390500D01*
X191609306Y-108390500D01*
X191609309Y-108390500D01*
X191723886Y-108359799D01*
X191826613Y-108300489D01*
X191910489Y-108216613D01*
X191969799Y-108113886D01*
X192000500Y-107999309D01*
X192000500Y-107880691D01*
X191969799Y-107766114D01*
X191910489Y-107663387D01*
X191826613Y-107579511D01*
X191723886Y-107520201D01*
X191609309Y-107489500D01*
X191490691Y-107489500D01*
X191376114Y-107520201D01*
X191376112Y-107520201D01*
X191376112Y-107520202D01*
X191273387Y-107579511D01*
X191273384Y-107579513D01*
X191189513Y-107663384D01*
X191189511Y-107663387D01*
X191130201Y-107766114D01*
X191099500Y-107880691D01*
X126300500Y-107880691D01*
X126300500Y-107078191D01*
X166499500Y-107078191D01*
X166499500Y-107196809D01*
X166530201Y-107311386D01*
X166589511Y-107414113D01*
X166673387Y-107497989D01*
X166776114Y-107557299D01*
X166890691Y-107588000D01*
X166890694Y-107588000D01*
X167009306Y-107588000D01*
X167009309Y-107588000D01*
X167123886Y-107557299D01*
X167226613Y-107497989D01*
X167310489Y-107414113D01*
X167369799Y-107311386D01*
X167400500Y-107196809D01*
X167400500Y-107078191D01*
X167369799Y-106963614D01*
X167310489Y-106860887D01*
X167226613Y-106777011D01*
X167123886Y-106717701D01*
X167009309Y-106687000D01*
X166890691Y-106687000D01*
X166776114Y-106717701D01*
X166776112Y-106717701D01*
X166776112Y-106717702D01*
X166673387Y-106777011D01*
X166673384Y-106777013D01*
X166589513Y-106860884D01*
X166589511Y-106860887D01*
X166530201Y-106963614D01*
X166499500Y-107078191D01*
X126300500Y-107078191D01*
X126300500Y-105165691D01*
X162549500Y-105165691D01*
X162549500Y-105284309D01*
X162580201Y-105398886D01*
X162639511Y-105501613D01*
X162723387Y-105585489D01*
X162826114Y-105644799D01*
X162940691Y-105675500D01*
X162940694Y-105675500D01*
X163059306Y-105675500D01*
X163059309Y-105675500D01*
X163173886Y-105644799D01*
X163276613Y-105585489D01*
X163360489Y-105501613D01*
X163401436Y-105430691D01*
X174499500Y-105430691D01*
X174499500Y-105549309D01*
X174530201Y-105663886D01*
X174589511Y-105766613D01*
X174673387Y-105850489D01*
X174776114Y-105909799D01*
X174890691Y-105940500D01*
X174890694Y-105940500D01*
X175009306Y-105940500D01*
X175009309Y-105940500D01*
X175123886Y-105909799D01*
X175226613Y-105850489D01*
X175310489Y-105766613D01*
X175369799Y-105663886D01*
X175400500Y-105549309D01*
X175400500Y-105430691D01*
X175369799Y-105316114D01*
X175310489Y-105213387D01*
X175226613Y-105129511D01*
X175123886Y-105070201D01*
X175009309Y-105039500D01*
X174890691Y-105039500D01*
X174776114Y-105070201D01*
X174776112Y-105070201D01*
X174776112Y-105070202D01*
X174673387Y-105129511D01*
X174673384Y-105129513D01*
X174589513Y-105213384D01*
X174589511Y-105213387D01*
X174548566Y-105284306D01*
X174530201Y-105316114D01*
X174499500Y-105430691D01*
X163401436Y-105430691D01*
X163419799Y-105398886D01*
X163450500Y-105284309D01*
X163450500Y-105165691D01*
X163419799Y-105051114D01*
X163360489Y-104948387D01*
X163276613Y-104864511D01*
X163173886Y-104805201D01*
X163166385Y-104803191D01*
X164599500Y-104803191D01*
X164599500Y-104921809D01*
X164630201Y-105036386D01*
X164689511Y-105139113D01*
X164773387Y-105222989D01*
X164876114Y-105282299D01*
X164990691Y-105313000D01*
X164990694Y-105313000D01*
X165109306Y-105313000D01*
X165109309Y-105313000D01*
X165223886Y-105282299D01*
X165326613Y-105222989D01*
X165410489Y-105139113D01*
X165469799Y-105036386D01*
X165500500Y-104921809D01*
X165500500Y-104803191D01*
X166499500Y-104803191D01*
X166499500Y-104921809D01*
X166530201Y-105036386D01*
X166589511Y-105139113D01*
X166673387Y-105222989D01*
X166776114Y-105282299D01*
X166890691Y-105313000D01*
X166890694Y-105313000D01*
X167009306Y-105313000D01*
X167009309Y-105313000D01*
X167123886Y-105282299D01*
X167226613Y-105222989D01*
X167310489Y-105139113D01*
X167369799Y-105036386D01*
X167400500Y-104921809D01*
X167400500Y-104803191D01*
X167369799Y-104688614D01*
X167310489Y-104585887D01*
X167226613Y-104502011D01*
X167123886Y-104442701D01*
X167009309Y-104412000D01*
X166890691Y-104412000D01*
X166776114Y-104442701D01*
X166776112Y-104442701D01*
X166776112Y-104442702D01*
X166673387Y-104502011D01*
X166673384Y-104502013D01*
X166589513Y-104585884D01*
X166589511Y-104585887D01*
X166573405Y-104613784D01*
X166530201Y-104688614D01*
X166499500Y-104803191D01*
X165500500Y-104803191D01*
X165469799Y-104688614D01*
X165410489Y-104585887D01*
X165326613Y-104502011D01*
X165223886Y-104442701D01*
X165109309Y-104412000D01*
X164990691Y-104412000D01*
X164876114Y-104442701D01*
X164876112Y-104442701D01*
X164876112Y-104442702D01*
X164773387Y-104502011D01*
X164773384Y-104502013D01*
X164689513Y-104585884D01*
X164689511Y-104585887D01*
X164673405Y-104613784D01*
X164630201Y-104688614D01*
X164599500Y-104803191D01*
X163166385Y-104803191D01*
X163059309Y-104774500D01*
X162940691Y-104774500D01*
X162826114Y-104805201D01*
X162826112Y-104805201D01*
X162826112Y-104805202D01*
X162723387Y-104864511D01*
X162723384Y-104864513D01*
X162639513Y-104948384D01*
X162639511Y-104948387D01*
X162580201Y-105051114D01*
X162549500Y-105165691D01*
X126300500Y-105165691D01*
X126300500Y-104193989D01*
X177226202Y-104193989D01*
X177226202Y-104312607D01*
X177256903Y-104427184D01*
X177316213Y-104529911D01*
X177400089Y-104613787D01*
X177502816Y-104673097D01*
X177617393Y-104703798D01*
X177617396Y-104703798D01*
X177736008Y-104703798D01*
X177736011Y-104703798D01*
X177850588Y-104673097D01*
X177953315Y-104613787D01*
X178037191Y-104529911D01*
X178096501Y-104427184D01*
X178127202Y-104312607D01*
X178127202Y-104193989D01*
X178096501Y-104079412D01*
X178037191Y-103976685D01*
X177953315Y-103892809D01*
X177850588Y-103833499D01*
X177736011Y-103802798D01*
X177617393Y-103802798D01*
X177502816Y-103833499D01*
X177502814Y-103833499D01*
X177502814Y-103833500D01*
X177400089Y-103892809D01*
X177400086Y-103892811D01*
X177316215Y-103976682D01*
X177316213Y-103976685D01*
X177256903Y-104079412D01*
X177226202Y-104193989D01*
X126300500Y-104193989D01*
X126300500Y-103640691D01*
X154374500Y-103640691D01*
X154374500Y-103759309D01*
X154405201Y-103873886D01*
X154464511Y-103976613D01*
X154548387Y-104060489D01*
X154651114Y-104119799D01*
X154765691Y-104150500D01*
X154765694Y-104150500D01*
X154884306Y-104150500D01*
X154884309Y-104150500D01*
X154998886Y-104119799D01*
X155101613Y-104060489D01*
X155185489Y-103976613D01*
X155244799Y-103873886D01*
X155275500Y-103759309D01*
X155275500Y-103640691D01*
X155244799Y-103526114D01*
X155185489Y-103423387D01*
X155101613Y-103339511D01*
X155017055Y-103290691D01*
X164619500Y-103290691D01*
X164619500Y-103409309D01*
X164650201Y-103523886D01*
X164709511Y-103626613D01*
X164793387Y-103710489D01*
X164896114Y-103769799D01*
X165010691Y-103800500D01*
X165010694Y-103800500D01*
X165129306Y-103800500D01*
X165129309Y-103800500D01*
X165243886Y-103769799D01*
X165346613Y-103710489D01*
X165430489Y-103626613D01*
X165489799Y-103523886D01*
X165520500Y-103409309D01*
X165520500Y-103290691D01*
X165489799Y-103176114D01*
X165430489Y-103073387D01*
X165346613Y-102989511D01*
X165243886Y-102930201D01*
X165129309Y-102899500D01*
X165010691Y-102899500D01*
X164896114Y-102930201D01*
X164896112Y-102930201D01*
X164896112Y-102930202D01*
X164793387Y-102989511D01*
X164793384Y-102989513D01*
X164709513Y-103073384D01*
X164709511Y-103073387D01*
X164650201Y-103176114D01*
X164619500Y-103290691D01*
X155017055Y-103290691D01*
X154998886Y-103280201D01*
X154884309Y-103249500D01*
X154765691Y-103249500D01*
X154651114Y-103280201D01*
X154651112Y-103280201D01*
X154651112Y-103280202D01*
X154548387Y-103339511D01*
X154548384Y-103339513D01*
X154464513Y-103423384D01*
X154464511Y-103423387D01*
X154405201Y-103526114D01*
X154374500Y-103640691D01*
X126300500Y-103640691D01*
X126300500Y-103090691D01*
X150499500Y-103090691D01*
X150499500Y-103209309D01*
X150530201Y-103323886D01*
X150589511Y-103426613D01*
X150673387Y-103510489D01*
X150776114Y-103569799D01*
X150890691Y-103600500D01*
X150890694Y-103600500D01*
X151009306Y-103600500D01*
X151009309Y-103600500D01*
X151123886Y-103569799D01*
X151226613Y-103510489D01*
X151310489Y-103426613D01*
X151369799Y-103323886D01*
X151400500Y-103209309D01*
X151400500Y-103090691D01*
X151369799Y-102976114D01*
X151310489Y-102873387D01*
X151268793Y-102831691D01*
X182890500Y-102831691D01*
X182890500Y-102950309D01*
X182921201Y-103064886D01*
X182980511Y-103167613D01*
X183064387Y-103251489D01*
X183167114Y-103310799D01*
X183281691Y-103341500D01*
X183281694Y-103341500D01*
X183400306Y-103341500D01*
X183400309Y-103341500D01*
X183514886Y-103310799D01*
X183617613Y-103251489D01*
X183701489Y-103167613D01*
X183760799Y-103064886D01*
X183791500Y-102950309D01*
X183791500Y-102831691D01*
X183760799Y-102717114D01*
X183701489Y-102614387D01*
X183617613Y-102530511D01*
X183514886Y-102471201D01*
X183400309Y-102440500D01*
X183281691Y-102440500D01*
X183167114Y-102471201D01*
X183167112Y-102471201D01*
X183167112Y-102471202D01*
X183064387Y-102530511D01*
X183064384Y-102530513D01*
X182980513Y-102614384D01*
X182980511Y-102614387D01*
X182931371Y-102699500D01*
X182921201Y-102717114D01*
X182890500Y-102831691D01*
X151268793Y-102831691D01*
X151226613Y-102789511D01*
X151123886Y-102730201D01*
X151009309Y-102699500D01*
X150890691Y-102699500D01*
X150776114Y-102730201D01*
X150776112Y-102730201D01*
X150776112Y-102730202D01*
X150673387Y-102789511D01*
X150673384Y-102789513D01*
X150589513Y-102873384D01*
X150589511Y-102873387D01*
X150556709Y-102930202D01*
X150530201Y-102976114D01*
X150499500Y-103090691D01*
X126300500Y-103090691D01*
X126300500Y-100600691D01*
X128499500Y-100600691D01*
X128499500Y-100719309D01*
X128530201Y-100833886D01*
X128589511Y-100936613D01*
X128673387Y-101020489D01*
X128776114Y-101079799D01*
X128890691Y-101110500D01*
X128890694Y-101110500D01*
X129009306Y-101110500D01*
X129009309Y-101110500D01*
X129123886Y-101079799D01*
X129226613Y-101020489D01*
X129310489Y-100936613D01*
X129369799Y-100833886D01*
X129400500Y-100719309D01*
X129400500Y-100600691D01*
X129369799Y-100486114D01*
X129310489Y-100383387D01*
X129226613Y-100299511D01*
X129123886Y-100240201D01*
X129009309Y-100209500D01*
X128890691Y-100209500D01*
X128776114Y-100240201D01*
X128776112Y-100240201D01*
X128776112Y-100240202D01*
X128673387Y-100299511D01*
X128673384Y-100299513D01*
X128589513Y-100383384D01*
X128589511Y-100383387D01*
X128554138Y-100444655D01*
X128530201Y-100486114D01*
X128499500Y-100600691D01*
X126300500Y-100600691D01*
X126300500Y-99671530D01*
X130299500Y-99671530D01*
X130299500Y-99878469D01*
X130339868Y-100081412D01*
X130339870Y-100081420D01*
X130419058Y-100272596D01*
X130534024Y-100444657D01*
X130680342Y-100590975D01*
X130680345Y-100590977D01*
X130852402Y-100705941D01*
X131043580Y-100785130D01*
X131246530Y-100825499D01*
X131246534Y-100825500D01*
X131246535Y-100825500D01*
X131453466Y-100825500D01*
X131453467Y-100825499D01*
X131656420Y-100785130D01*
X131847598Y-100705941D01*
X132019655Y-100590977D01*
X132165977Y-100444655D01*
X132280941Y-100272598D01*
X132360130Y-100081420D01*
X132400500Y-99878465D01*
X132400500Y-99671535D01*
X132360130Y-99468580D01*
X132280941Y-99277402D01*
X132165977Y-99105345D01*
X132165975Y-99105342D01*
X132019657Y-98959024D01*
X131933626Y-98901541D01*
X131847598Y-98844059D01*
X131656420Y-98764870D01*
X131656412Y-98764868D01*
X131453469Y-98724500D01*
X131453465Y-98724500D01*
X131246535Y-98724500D01*
X131246530Y-98724500D01*
X131043587Y-98764868D01*
X131043579Y-98764870D01*
X130852403Y-98844058D01*
X130680342Y-98959024D01*
X130534024Y-99105342D01*
X130419058Y-99277403D01*
X130339870Y-99468579D01*
X130339868Y-99468587D01*
X130299500Y-99671530D01*
X126300500Y-99671530D01*
X126300500Y-97131530D01*
X130299500Y-97131530D01*
X130299500Y-97338469D01*
X130339868Y-97541412D01*
X130339870Y-97541420D01*
X130419058Y-97732596D01*
X130534024Y-97904657D01*
X130680342Y-98050975D01*
X130680345Y-98050977D01*
X130852402Y-98165941D01*
X131043580Y-98245130D01*
X131246465Y-98285486D01*
X131246530Y-98285499D01*
X131246534Y-98285500D01*
X131246535Y-98285500D01*
X131453466Y-98285500D01*
X131453467Y-98285499D01*
X131656420Y-98245130D01*
X131847598Y-98165941D01*
X132019655Y-98050977D01*
X132165977Y-97904655D01*
X132192012Y-97865691D01*
X145774500Y-97865691D01*
X145774500Y-97984309D01*
X145805201Y-98098886D01*
X145864511Y-98201613D01*
X145948387Y-98285489D01*
X146051114Y-98344799D01*
X146165691Y-98375500D01*
X146165694Y-98375500D01*
X146284306Y-98375500D01*
X146284309Y-98375500D01*
X146398886Y-98344799D01*
X146501613Y-98285489D01*
X146585489Y-98201613D01*
X146644799Y-98098886D01*
X146675500Y-97984309D01*
X146675500Y-97865691D01*
X146644799Y-97751114D01*
X146585489Y-97648387D01*
X146501613Y-97564511D01*
X146398886Y-97505201D01*
X146284309Y-97474500D01*
X146165691Y-97474500D01*
X146051114Y-97505201D01*
X146051112Y-97505201D01*
X146051112Y-97505202D01*
X145948387Y-97564511D01*
X145948384Y-97564513D01*
X145864513Y-97648384D01*
X145864511Y-97648387D01*
X145805201Y-97751114D01*
X145774500Y-97865691D01*
X132192012Y-97865691D01*
X132280941Y-97732598D01*
X132360130Y-97541420D01*
X132400500Y-97338465D01*
X132400500Y-97193691D01*
X147487500Y-97193691D01*
X147487500Y-97312309D01*
X147518201Y-97426886D01*
X147577511Y-97529613D01*
X147661387Y-97613489D01*
X147764114Y-97672799D01*
X147878691Y-97703500D01*
X147878694Y-97703500D01*
X147997306Y-97703500D01*
X147997309Y-97703500D01*
X148111886Y-97672799D01*
X148214613Y-97613489D01*
X148298489Y-97529613D01*
X148357799Y-97426886D01*
X148388500Y-97312309D01*
X148388500Y-97193691D01*
X148357799Y-97079114D01*
X148298489Y-96976387D01*
X148214613Y-96892511D01*
X148111886Y-96833201D01*
X147997309Y-96802500D01*
X147878691Y-96802500D01*
X147764114Y-96833201D01*
X147764112Y-96833201D01*
X147764112Y-96833202D01*
X147661387Y-96892511D01*
X147661384Y-96892513D01*
X147577513Y-96976384D01*
X147577511Y-96976387D01*
X147518201Y-97079114D01*
X147487500Y-97193691D01*
X132400500Y-97193691D01*
X132400500Y-97131535D01*
X132360130Y-96928580D01*
X132280941Y-96737402D01*
X132165977Y-96565345D01*
X132165975Y-96565342D01*
X132019657Y-96419024D01*
X131917102Y-96350500D01*
X131847598Y-96304059D01*
X131742411Y-96260489D01*
X131656420Y-96224870D01*
X131656412Y-96224868D01*
X131453469Y-96184500D01*
X131453465Y-96184500D01*
X131246535Y-96184500D01*
X131246530Y-96184500D01*
X131043587Y-96224868D01*
X131043579Y-96224870D01*
X130852403Y-96304058D01*
X130680342Y-96419024D01*
X130534024Y-96565342D01*
X130419058Y-96737403D01*
X130339870Y-96928579D01*
X130339868Y-96928587D01*
X130299500Y-97131530D01*
X126300500Y-97131530D01*
X126300500Y-96130691D01*
X128499500Y-96130691D01*
X128499500Y-96249309D01*
X128530201Y-96363886D01*
X128589511Y-96466613D01*
X128673387Y-96550489D01*
X128776114Y-96609799D01*
X128890691Y-96640500D01*
X128890694Y-96640500D01*
X129009306Y-96640500D01*
X129009309Y-96640500D01*
X129123886Y-96609799D01*
X129226613Y-96550489D01*
X129310489Y-96466613D01*
X129369799Y-96363886D01*
X129400500Y-96249309D01*
X129400500Y-96130691D01*
X129369799Y-96016114D01*
X129310489Y-95913387D01*
X129237793Y-95840691D01*
X155899500Y-95840691D01*
X155899500Y-95959309D01*
X155930201Y-96073886D01*
X155989511Y-96176613D01*
X156073387Y-96260489D01*
X156176114Y-96319799D01*
X156290691Y-96350500D01*
X156290694Y-96350500D01*
X156409306Y-96350500D01*
X156409309Y-96350500D01*
X156523886Y-96319799D01*
X156626613Y-96260489D01*
X156710489Y-96176613D01*
X156769799Y-96073886D01*
X156800500Y-95959309D01*
X156800500Y-95840691D01*
X156769799Y-95726114D01*
X156710489Y-95623387D01*
X156626613Y-95539511D01*
X156523886Y-95480201D01*
X156409309Y-95449500D01*
X156290691Y-95449500D01*
X156176114Y-95480201D01*
X156176112Y-95480201D01*
X156176112Y-95480202D01*
X156073387Y-95539511D01*
X156073384Y-95539513D01*
X155989513Y-95623384D01*
X155989511Y-95623387D01*
X155930201Y-95726114D01*
X155899500Y-95840691D01*
X129237793Y-95840691D01*
X129226613Y-95829511D01*
X129123886Y-95770201D01*
X129009309Y-95739500D01*
X128890691Y-95739500D01*
X128776114Y-95770201D01*
X128776112Y-95770201D01*
X128776112Y-95770202D01*
X128673387Y-95829511D01*
X128673384Y-95829513D01*
X128589513Y-95913384D01*
X128589511Y-95913387D01*
X128530201Y-96016114D01*
X128499500Y-96130691D01*
X126300500Y-96130691D01*
X126300500Y-94591530D01*
X130299500Y-94591530D01*
X130299500Y-94798469D01*
X130339868Y-95001412D01*
X130339870Y-95001420D01*
X130352757Y-95032533D01*
X130419059Y-95192598D01*
X130476541Y-95278626D01*
X130534024Y-95364657D01*
X130680342Y-95510975D01*
X130680345Y-95510977D01*
X130852402Y-95625941D01*
X131043580Y-95705130D01*
X131216371Y-95739500D01*
X131246530Y-95745499D01*
X131246534Y-95745500D01*
X131246535Y-95745500D01*
X131453466Y-95745500D01*
X131453467Y-95745499D01*
X131550936Y-95726112D01*
X131627178Y-95710947D01*
X131639682Y-95708459D01*
X131656420Y-95705130D01*
X131847598Y-95625941D01*
X132019655Y-95510977D01*
X132110632Y-95420000D01*
X185725138Y-95420000D01*
X186528012Y-95420000D01*
X186510795Y-95429940D01*
X186454940Y-95485795D01*
X186415444Y-95554204D01*
X186395000Y-95630504D01*
X186395000Y-95709496D01*
X186415444Y-95785796D01*
X186454940Y-95854205D01*
X186510795Y-95910060D01*
X186528012Y-95920000D01*
X185725138Y-95920000D01*
X185733430Y-95961690D01*
X185733430Y-95961692D01*
X185808807Y-96143671D01*
X185808814Y-96143684D01*
X185918248Y-96307462D01*
X185918251Y-96307466D01*
X186057533Y-96446748D01*
X186057537Y-96446751D01*
X186221315Y-96556185D01*
X186221328Y-96556192D01*
X186403306Y-96631569D01*
X186403318Y-96631572D01*
X186596504Y-96669999D01*
X186596508Y-96670000D01*
X186995000Y-96670000D01*
X186995000Y-95970000D01*
X187495000Y-95970000D01*
X187495000Y-96670000D01*
X187893492Y-96670000D01*
X187893495Y-96669999D01*
X188086681Y-96631572D01*
X188086693Y-96631569D01*
X188268671Y-96556192D01*
X188268684Y-96556185D01*
X188432462Y-96446751D01*
X188432466Y-96446748D01*
X188571748Y-96307466D01*
X188571751Y-96307462D01*
X188681185Y-96143684D01*
X188681192Y-96143671D01*
X188756569Y-95961692D01*
X188756569Y-95961690D01*
X188764862Y-95920000D01*
X187961988Y-95920000D01*
X187979205Y-95910060D01*
X188035060Y-95854205D01*
X188074556Y-95785796D01*
X188095000Y-95709496D01*
X188095000Y-95630504D01*
X188074556Y-95554204D01*
X188035060Y-95485795D01*
X187979205Y-95429940D01*
X187961988Y-95420000D01*
X188764862Y-95420000D01*
X190055138Y-95420000D01*
X190858012Y-95420000D01*
X190840795Y-95429940D01*
X190784940Y-95485795D01*
X190745444Y-95554204D01*
X190725000Y-95630504D01*
X190725000Y-95709496D01*
X190745444Y-95785796D01*
X190784940Y-95854205D01*
X190840795Y-95910060D01*
X190858012Y-95920000D01*
X190055138Y-95920000D01*
X190063430Y-95961690D01*
X190063430Y-95961692D01*
X190138807Y-96143671D01*
X190138814Y-96143684D01*
X190248248Y-96307462D01*
X190248251Y-96307466D01*
X190387533Y-96446748D01*
X190387537Y-96446751D01*
X190551315Y-96556185D01*
X190551328Y-96556192D01*
X190733306Y-96631569D01*
X190733318Y-96631572D01*
X190926504Y-96669999D01*
X190926508Y-96670000D01*
X191175000Y-96670000D01*
X191175000Y-95970000D01*
X191675000Y-95970000D01*
X191675000Y-96670000D01*
X191923492Y-96670000D01*
X191923495Y-96669999D01*
X192116681Y-96631572D01*
X192116693Y-96631569D01*
X192298671Y-96556192D01*
X192298684Y-96556185D01*
X192462462Y-96446751D01*
X192462466Y-96446748D01*
X192601748Y-96307466D01*
X192601751Y-96307462D01*
X192711185Y-96143684D01*
X192711192Y-96143671D01*
X192786569Y-95961692D01*
X192786569Y-95961690D01*
X192794862Y-95920000D01*
X191991988Y-95920000D01*
X192009205Y-95910060D01*
X192065060Y-95854205D01*
X192104556Y-95785796D01*
X192125000Y-95709496D01*
X192125000Y-95630504D01*
X192104556Y-95554204D01*
X192065060Y-95485795D01*
X192009205Y-95429940D01*
X191991988Y-95420000D01*
X192794862Y-95420000D01*
X192786569Y-95378309D01*
X192786569Y-95378307D01*
X192711192Y-95196328D01*
X192711185Y-95196315D01*
X192601751Y-95032537D01*
X192601748Y-95032533D01*
X192462466Y-94893251D01*
X192462462Y-94893248D01*
X192298684Y-94783814D01*
X192298671Y-94783807D01*
X192116693Y-94708430D01*
X192116681Y-94708427D01*
X191923495Y-94670000D01*
X191675000Y-94670000D01*
X191675000Y-95370000D01*
X191175000Y-95370000D01*
X191175000Y-94670000D01*
X190926504Y-94670000D01*
X190733318Y-94708427D01*
X190733306Y-94708430D01*
X190551328Y-94783807D01*
X190551315Y-94783814D01*
X190387537Y-94893248D01*
X190387533Y-94893251D01*
X190248251Y-95032533D01*
X190248248Y-95032537D01*
X190138814Y-95196315D01*
X190138807Y-95196328D01*
X190063430Y-95378307D01*
X190063430Y-95378309D01*
X190055138Y-95420000D01*
X188764862Y-95420000D01*
X188756569Y-95378309D01*
X188756569Y-95378307D01*
X188681192Y-95196328D01*
X188681185Y-95196315D01*
X188571751Y-95032537D01*
X188571748Y-95032533D01*
X188432466Y-94893251D01*
X188432462Y-94893248D01*
X188278616Y-94790451D01*
X188233811Y-94736839D01*
X188225104Y-94667514D01*
X188244403Y-94618460D01*
X188299311Y-94536286D01*
X188346463Y-94422452D01*
X188370500Y-94301606D01*
X188370500Y-94178394D01*
X188346463Y-94057548D01*
X188299311Y-93943714D01*
X188299310Y-93943713D01*
X188299307Y-93943707D01*
X188230858Y-93841267D01*
X188230855Y-93841263D01*
X188143736Y-93754144D01*
X188143732Y-93754141D01*
X188041292Y-93685692D01*
X188041283Y-93685687D01*
X187927454Y-93638538D01*
X187927455Y-93638538D01*
X187927452Y-93638537D01*
X187927448Y-93638536D01*
X187927444Y-93638535D01*
X187806610Y-93614500D01*
X187806606Y-93614500D01*
X187683394Y-93614500D01*
X187683389Y-93614500D01*
X187562555Y-93638535D01*
X187562545Y-93638538D01*
X187448716Y-93685687D01*
X187448707Y-93685692D01*
X187346267Y-93754141D01*
X187331944Y-93768464D01*
X187270620Y-93801947D01*
X187200928Y-93796961D01*
X187144996Y-93755088D01*
X187121326Y-93696967D01*
X187120500Y-93690693D01*
X187120500Y-93690691D01*
X187089799Y-93576114D01*
X187030489Y-93473387D01*
X186946613Y-93389511D01*
X186843886Y-93330201D01*
X186729309Y-93299500D01*
X186610691Y-93299500D01*
X186496114Y-93330201D01*
X186496112Y-93330201D01*
X186496112Y-93330202D01*
X186393387Y-93389511D01*
X186393384Y-93389513D01*
X186309513Y-93473384D01*
X186309511Y-93473387D01*
X186250201Y-93576114D01*
X186219500Y-93690691D01*
X186219500Y-93809309D01*
X186250201Y-93923886D01*
X186309511Y-94026613D01*
X186393387Y-94110489D01*
X186496114Y-94169799D01*
X186610691Y-94200500D01*
X186610694Y-94200500D01*
X186729306Y-94200500D01*
X186729309Y-94200500D01*
X186843886Y-94169799D01*
X186933501Y-94118059D01*
X187001398Y-94101586D01*
X187067426Y-94124437D01*
X187110617Y-94179358D01*
X187119500Y-94225446D01*
X187119500Y-94301610D01*
X187136801Y-94388587D01*
X187143537Y-94422452D01*
X187165972Y-94476615D01*
X187175057Y-94498547D01*
X187182526Y-94568016D01*
X187151251Y-94630496D01*
X187091162Y-94666148D01*
X187060496Y-94670000D01*
X186596504Y-94670000D01*
X186403318Y-94708427D01*
X186403306Y-94708430D01*
X186221328Y-94783807D01*
X186221315Y-94783814D01*
X186057537Y-94893248D01*
X186057533Y-94893251D01*
X185918251Y-95032533D01*
X185918248Y-95032537D01*
X185808814Y-95196315D01*
X185808807Y-95196328D01*
X185733430Y-95378307D01*
X185733430Y-95378309D01*
X185725138Y-95420000D01*
X132110632Y-95420000D01*
X132165977Y-95364655D01*
X132280941Y-95192598D01*
X132360130Y-95001420D01*
X132400500Y-94798465D01*
X132400500Y-94591535D01*
X132360130Y-94388580D01*
X132280941Y-94197402D01*
X132243048Y-94140691D01*
X132999500Y-94140691D01*
X132999500Y-94259309D01*
X133030201Y-94373886D01*
X133089511Y-94476613D01*
X133173387Y-94560489D01*
X133276114Y-94619799D01*
X133390691Y-94650500D01*
X133390694Y-94650500D01*
X133509306Y-94650500D01*
X133509309Y-94650500D01*
X133623886Y-94619799D01*
X133726613Y-94560489D01*
X133810489Y-94476613D01*
X133869799Y-94373886D01*
X133900500Y-94259309D01*
X133900500Y-94140691D01*
X133869799Y-94026114D01*
X133810489Y-93923387D01*
X133726613Y-93839511D01*
X133623886Y-93780201D01*
X133509309Y-93749500D01*
X133390691Y-93749500D01*
X133276114Y-93780201D01*
X133276112Y-93780201D01*
X133276112Y-93780202D01*
X133173387Y-93839511D01*
X133173384Y-93839513D01*
X133089513Y-93923384D01*
X133089511Y-93923387D01*
X133030201Y-94026114D01*
X132999500Y-94140691D01*
X132243048Y-94140691D01*
X132165977Y-94025345D01*
X132165975Y-94025342D01*
X132019657Y-93879024D01*
X131904302Y-93801947D01*
X131847598Y-93764059D01*
X131825940Y-93755088D01*
X131656420Y-93684870D01*
X131656412Y-93684868D01*
X131453469Y-93644500D01*
X131453465Y-93644500D01*
X131246535Y-93644500D01*
X131246530Y-93644500D01*
X131043587Y-93684868D01*
X131043579Y-93684870D01*
X130852403Y-93764058D01*
X130680342Y-93879024D01*
X130534024Y-94025342D01*
X130419058Y-94197403D01*
X130339870Y-94388579D01*
X130339868Y-94388587D01*
X130299500Y-94591530D01*
X126300500Y-94591530D01*
X126300500Y-93390691D01*
X157049500Y-93390691D01*
X157049500Y-93509309D01*
X157080201Y-93623886D01*
X157139511Y-93726613D01*
X157139513Y-93726615D01*
X157189217Y-93776319D01*
X157222702Y-93837642D01*
X157217718Y-93907334D01*
X157189217Y-93951681D01*
X157139513Y-94001384D01*
X157139511Y-94001387D01*
X157081661Y-94101586D01*
X157080201Y-94104114D01*
X157049500Y-94218691D01*
X157049500Y-94337309D01*
X157080201Y-94451886D01*
X157139511Y-94554613D01*
X157223387Y-94638489D01*
X157326114Y-94697799D01*
X157440691Y-94728500D01*
X157440694Y-94728500D01*
X157559306Y-94728500D01*
X157559309Y-94728500D01*
X157673886Y-94697799D01*
X157776613Y-94638489D01*
X157860489Y-94554613D01*
X157919799Y-94451886D01*
X157950500Y-94337309D01*
X157950500Y-94218691D01*
X157919799Y-94104114D01*
X157860489Y-94001387D01*
X157810783Y-93951681D01*
X157777298Y-93890358D01*
X157782282Y-93820666D01*
X157797836Y-93791544D01*
X157803694Y-93783407D01*
X157860489Y-93726613D01*
X157881229Y-93690691D01*
X183169500Y-93690691D01*
X183169500Y-93809309D01*
X183200201Y-93923886D01*
X183259511Y-94026613D01*
X183343387Y-94110489D01*
X183446114Y-94169799D01*
X183560691Y-94200500D01*
X183560694Y-94200500D01*
X183679306Y-94200500D01*
X183679309Y-94200500D01*
X183793886Y-94169799D01*
X183896613Y-94110489D01*
X183980489Y-94026613D01*
X184039799Y-93923886D01*
X184070500Y-93809309D01*
X184070500Y-93690691D01*
X184039799Y-93576114D01*
X183980489Y-93473387D01*
X183896613Y-93389511D01*
X183793886Y-93330201D01*
X183679309Y-93299500D01*
X183560691Y-93299500D01*
X183446114Y-93330201D01*
X183446112Y-93330201D01*
X183446112Y-93330202D01*
X183343387Y-93389511D01*
X183343384Y-93389513D01*
X183259513Y-93473384D01*
X183259511Y-93473387D01*
X183200201Y-93576114D01*
X183169500Y-93690691D01*
X157881229Y-93690691D01*
X157919799Y-93623886D01*
X157950500Y-93509309D01*
X157950500Y-93390691D01*
X157919799Y-93276114D01*
X157860489Y-93173387D01*
X157776613Y-93089511D01*
X157673886Y-93030201D01*
X157559309Y-92999500D01*
X157440691Y-92999500D01*
X157326114Y-93030201D01*
X157326112Y-93030201D01*
X157326112Y-93030202D01*
X157223387Y-93089511D01*
X157223384Y-93089513D01*
X157139513Y-93173384D01*
X157139511Y-93173387D01*
X157080201Y-93276114D01*
X157049500Y-93390691D01*
X126300500Y-93390691D01*
X126300500Y-89508753D01*
X130000000Y-89508753D01*
X130000000Y-89721246D01*
X130033242Y-89931127D01*
X130033242Y-89931130D01*
X130098904Y-90133217D01*
X130195375Y-90322550D01*
X130234728Y-90376716D01*
X130867037Y-89744408D01*
X130884075Y-89807993D01*
X130949901Y-89922007D01*
X131042993Y-90015099D01*
X131157007Y-90080925D01*
X131220590Y-90097962D01*
X130588282Y-90730269D01*
X130588282Y-90730270D01*
X130642449Y-90769624D01*
X130831782Y-90866095D01*
X131007973Y-90923343D01*
X131065648Y-90962780D01*
X131092847Y-91027139D01*
X131080932Y-91095985D01*
X131033688Y-91147461D01*
X131017108Y-91155835D01*
X130852403Y-91224057D01*
X130680342Y-91339024D01*
X130534024Y-91485342D01*
X130419058Y-91657403D01*
X130339870Y-91848579D01*
X130339868Y-91848587D01*
X130299500Y-92051530D01*
X130299500Y-92258469D01*
X130339868Y-92461412D01*
X130339870Y-92461420D01*
X130419058Y-92652596D01*
X130534024Y-92824657D01*
X130680342Y-92970975D01*
X130680345Y-92970977D01*
X130852402Y-93085941D01*
X131043580Y-93165130D01*
X131246530Y-93205499D01*
X131246534Y-93205500D01*
X131246535Y-93205500D01*
X131453466Y-93205500D01*
X131453467Y-93205499D01*
X131656420Y-93165130D01*
X131847598Y-93085941D01*
X132019655Y-92970977D01*
X132165977Y-92824655D01*
X132280941Y-92652598D01*
X132360130Y-92461420D01*
X132400500Y-92258465D01*
X132400500Y-92051535D01*
X132388397Y-91990691D01*
X133799500Y-91990691D01*
X133799500Y-92109309D01*
X133830201Y-92223886D01*
X133889511Y-92326613D01*
X133973387Y-92410489D01*
X134076114Y-92469799D01*
X134190691Y-92500500D01*
X134190694Y-92500500D01*
X134309306Y-92500500D01*
X134309309Y-92500500D01*
X134423886Y-92469799D01*
X134526613Y-92410489D01*
X134610489Y-92326613D01*
X134669799Y-92223886D01*
X134700500Y-92109309D01*
X134700500Y-91990691D01*
X134669799Y-91876114D01*
X134610489Y-91773387D01*
X134526613Y-91689511D01*
X134423886Y-91630201D01*
X134309309Y-91599500D01*
X134190691Y-91599500D01*
X134076114Y-91630201D01*
X134076112Y-91630201D01*
X134076112Y-91630202D01*
X133973387Y-91689511D01*
X133973384Y-91689513D01*
X133889513Y-91773384D01*
X133889511Y-91773387D01*
X133850652Y-91840693D01*
X133830201Y-91876114D01*
X133799500Y-91990691D01*
X132388397Y-91990691D01*
X132360131Y-91848587D01*
X132360130Y-91848580D01*
X132280941Y-91657402D01*
X132165977Y-91485345D01*
X132165975Y-91485342D01*
X132019657Y-91339024D01*
X131889244Y-91251886D01*
X131847598Y-91224059D01*
X131847593Y-91224057D01*
X131785891Y-91198499D01*
X131682890Y-91155834D01*
X131661981Y-91138985D01*
X131638988Y-91125119D01*
X131635190Y-91117395D01*
X131628488Y-91111994D01*
X131620007Y-91086514D01*
X131608160Y-91062418D01*
X131609141Y-91053866D01*
X131606423Y-91045700D01*
X131607701Y-91040691D01*
X144449500Y-91040691D01*
X144449500Y-91159309D01*
X144480201Y-91273886D01*
X144539511Y-91376613D01*
X144539513Y-91376615D01*
X144575217Y-91412319D01*
X144608702Y-91473642D01*
X144603718Y-91543334D01*
X144575217Y-91587681D01*
X144539513Y-91623384D01*
X144539511Y-91623387D01*
X144480201Y-91726114D01*
X144449500Y-91840691D01*
X144449500Y-91959309D01*
X144480201Y-92073886D01*
X144539511Y-92176613D01*
X144539513Y-92176615D01*
X144575217Y-92212319D01*
X144608702Y-92273642D01*
X144603718Y-92343334D01*
X144575217Y-92387681D01*
X144539513Y-92423384D01*
X144539511Y-92423387D01*
X144480201Y-92526114D01*
X144449500Y-92640691D01*
X144449500Y-92759309D01*
X144480201Y-92873886D01*
X144539511Y-92976613D01*
X144623387Y-93060489D01*
X144726114Y-93119799D01*
X144840691Y-93150500D01*
X144840694Y-93150500D01*
X144959306Y-93150500D01*
X144959309Y-93150500D01*
X145073886Y-93119799D01*
X145176613Y-93060489D01*
X145260489Y-92976613D01*
X145319799Y-92873886D01*
X145350500Y-92759309D01*
X145350500Y-92640691D01*
X145319799Y-92526114D01*
X145270480Y-92440691D01*
X175849500Y-92440691D01*
X175849500Y-92559309D01*
X175880201Y-92673886D01*
X175939511Y-92776613D01*
X176023387Y-92860489D01*
X176126114Y-92919799D01*
X176240691Y-92950500D01*
X176240694Y-92950500D01*
X176359306Y-92950500D01*
X176359309Y-92950500D01*
X176473886Y-92919799D01*
X176576613Y-92860489D01*
X176660489Y-92776613D01*
X176719799Y-92673886D01*
X176750500Y-92559309D01*
X176750500Y-92440691D01*
X176719799Y-92326114D01*
X176660489Y-92223387D01*
X176576613Y-92139511D01*
X176473886Y-92080201D01*
X176359309Y-92049500D01*
X176240691Y-92049500D01*
X176126114Y-92080201D01*
X176126112Y-92080201D01*
X176126112Y-92080202D01*
X176023387Y-92139511D01*
X176023384Y-92139513D01*
X175939513Y-92223384D01*
X175939511Y-92223387D01*
X175919259Y-92258465D01*
X175880201Y-92326114D01*
X175849500Y-92440691D01*
X145270480Y-92440691D01*
X145260489Y-92423387D01*
X145224783Y-92387681D01*
X145191298Y-92326358D01*
X145196282Y-92256666D01*
X145224783Y-92212319D01*
X145260489Y-92176613D01*
X145319799Y-92073886D01*
X145350500Y-91959309D01*
X145350500Y-91840691D01*
X145344605Y-91818691D01*
X157049500Y-91818691D01*
X157049500Y-91937309D01*
X157080201Y-92051886D01*
X157139511Y-92154613D01*
X157223387Y-92238489D01*
X157326114Y-92297799D01*
X157440691Y-92328500D01*
X157440694Y-92328500D01*
X157559307Y-92328500D01*
X157559309Y-92328500D01*
X157673886Y-92297799D01*
X157776613Y-92238489D01*
X157860489Y-92154613D01*
X157919799Y-92051886D01*
X157950500Y-91937309D01*
X157950500Y-91818691D01*
X157919799Y-91704114D01*
X157860489Y-91601387D01*
X157849780Y-91590678D01*
X157816297Y-91529353D01*
X157821284Y-91459662D01*
X157849779Y-91415322D01*
X157910489Y-91354613D01*
X157969799Y-91251886D01*
X158000500Y-91137309D01*
X158000500Y-91018691D01*
X157969799Y-90904114D01*
X157910489Y-90801387D01*
X157826613Y-90717511D01*
X157723886Y-90658201D01*
X157609309Y-90627500D01*
X157490691Y-90627500D01*
X157376114Y-90658201D01*
X157376112Y-90658201D01*
X157376112Y-90658202D01*
X157273387Y-90717511D01*
X157273384Y-90717513D01*
X157189513Y-90801384D01*
X157189511Y-90801387D01*
X157130201Y-90904114D01*
X157099500Y-91018691D01*
X157099500Y-91137309D01*
X157130201Y-91251886D01*
X157189511Y-91354613D01*
X157189513Y-91354615D01*
X157200217Y-91365319D01*
X157233702Y-91426642D01*
X157228718Y-91496334D01*
X157200217Y-91540681D01*
X157139513Y-91601384D01*
X157139511Y-91601387D01*
X157122875Y-91630202D01*
X157080201Y-91704114D01*
X157049500Y-91818691D01*
X145344605Y-91818691D01*
X145319799Y-91726114D01*
X145260489Y-91623387D01*
X145224783Y-91587681D01*
X145191298Y-91526358D01*
X145196282Y-91456666D01*
X145224783Y-91412319D01*
X145260489Y-91376613D01*
X145319799Y-91273886D01*
X145350500Y-91159309D01*
X145350500Y-91040691D01*
X145319799Y-90926114D01*
X145260489Y-90823387D01*
X145176613Y-90739511D01*
X145073886Y-90680201D01*
X144959309Y-90649500D01*
X144840691Y-90649500D01*
X144726114Y-90680201D01*
X144726112Y-90680201D01*
X144726112Y-90680202D01*
X144623387Y-90739511D01*
X144623384Y-90739513D01*
X144539513Y-90823384D01*
X144539511Y-90823387D01*
X144486830Y-90914633D01*
X144480201Y-90926114D01*
X144449500Y-91040691D01*
X131607701Y-91040691D01*
X131613063Y-91019680D01*
X131616125Y-90993004D01*
X131621573Y-90986340D01*
X131623702Y-90978001D01*
X131643354Y-90959703D01*
X131660353Y-90938915D01*
X131671646Y-90933362D01*
X131674839Y-90930390D01*
X131692026Y-90923343D01*
X131718833Y-90914633D01*
X131868217Y-90866095D01*
X132057554Y-90769622D01*
X132111716Y-90730270D01*
X132111717Y-90730270D01*
X131479408Y-90097962D01*
X131542993Y-90080925D01*
X131657007Y-90015099D01*
X131750099Y-89922007D01*
X131815925Y-89807993D01*
X131832962Y-89744408D01*
X132465270Y-90376717D01*
X132465270Y-90376716D01*
X132504622Y-90322554D01*
X132520857Y-90290691D01*
X169549500Y-90290691D01*
X169549500Y-90409309D01*
X169580201Y-90523886D01*
X169639511Y-90626613D01*
X169723387Y-90710489D01*
X169826114Y-90769799D01*
X169940691Y-90800500D01*
X169940694Y-90800500D01*
X170059306Y-90800500D01*
X170059309Y-90800500D01*
X170173886Y-90769799D01*
X170276613Y-90710489D01*
X170360489Y-90626613D01*
X170419799Y-90523886D01*
X170450500Y-90409309D01*
X170450500Y-90290691D01*
X170419799Y-90176114D01*
X170360489Y-90073387D01*
X170276613Y-89989511D01*
X170173886Y-89930201D01*
X170059309Y-89899500D01*
X169940691Y-89899500D01*
X169826114Y-89930201D01*
X169826112Y-89930201D01*
X169826112Y-89930202D01*
X169723387Y-89989511D01*
X169723384Y-89989513D01*
X169639513Y-90073384D01*
X169639511Y-90073387D01*
X169615486Y-90115000D01*
X169580201Y-90176114D01*
X169549500Y-90290691D01*
X132520857Y-90290691D01*
X132601095Y-90133217D01*
X132666757Y-89931130D01*
X132666757Y-89931127D01*
X132700000Y-89721246D01*
X132700000Y-89508753D01*
X132666757Y-89298872D01*
X132666757Y-89298869D01*
X132601095Y-89096782D01*
X132504623Y-88907447D01*
X132504619Y-88907441D01*
X132465271Y-88853282D01*
X132465269Y-88853282D01*
X131832962Y-89485590D01*
X131815925Y-89422007D01*
X131750099Y-89307993D01*
X131657007Y-89214901D01*
X131542993Y-89149075D01*
X131479409Y-89132037D01*
X131767754Y-88843691D01*
X150687500Y-88843691D01*
X150687500Y-88962309D01*
X150718201Y-89076886D01*
X150777511Y-89179613D01*
X150861387Y-89263489D01*
X150964114Y-89322799D01*
X151078691Y-89353500D01*
X151078694Y-89353500D01*
X151197306Y-89353500D01*
X151197309Y-89353500D01*
X151311886Y-89322799D01*
X151414613Y-89263489D01*
X151498489Y-89179613D01*
X151557799Y-89076886D01*
X151588500Y-88962309D01*
X151588500Y-88843691D01*
X153087500Y-88843691D01*
X153087500Y-88962309D01*
X153118201Y-89076886D01*
X153177511Y-89179613D01*
X153261387Y-89263489D01*
X153364114Y-89322799D01*
X153478691Y-89353500D01*
X153478694Y-89353500D01*
X153597306Y-89353500D01*
X153597309Y-89353500D01*
X153711886Y-89322799D01*
X153814613Y-89263489D01*
X153898489Y-89179613D01*
X153957799Y-89076886D01*
X153988500Y-88962309D01*
X153988500Y-88843691D01*
X153974299Y-88790691D01*
X165449500Y-88790691D01*
X165449500Y-88909309D01*
X165480201Y-89023886D01*
X165539511Y-89126613D01*
X165623387Y-89210489D01*
X165711646Y-89261446D01*
X165726110Y-89269797D01*
X165726114Y-89269799D01*
X165813322Y-89293166D01*
X165872981Y-89329530D01*
X165903510Y-89392377D01*
X165895215Y-89461752D01*
X165888615Y-89474938D01*
X165830201Y-89576114D01*
X165799500Y-89690691D01*
X165799500Y-89809309D01*
X165830201Y-89923886D01*
X165889511Y-90026613D01*
X165973387Y-90110489D01*
X166076114Y-90169799D01*
X166190691Y-90200500D01*
X166190694Y-90200500D01*
X166309306Y-90200500D01*
X166309309Y-90200500D01*
X166423886Y-90169799D01*
X166526613Y-90110489D01*
X166610489Y-90026613D01*
X166669799Y-89923886D01*
X166700500Y-89809309D01*
X166700500Y-89690691D01*
X166669799Y-89576114D01*
X166622715Y-89494562D01*
X166610493Y-89473393D01*
X166610490Y-89473390D01*
X166610489Y-89473387D01*
X166577793Y-89440691D01*
X174299500Y-89440691D01*
X174299500Y-89559309D01*
X174330201Y-89673886D01*
X174389511Y-89776613D01*
X174473387Y-89860489D01*
X174576114Y-89919799D01*
X174690691Y-89950500D01*
X174690694Y-89950500D01*
X174809306Y-89950500D01*
X174809309Y-89950500D01*
X174923886Y-89919799D01*
X175026613Y-89860489D01*
X175110489Y-89776613D01*
X175169799Y-89673886D01*
X175200500Y-89559309D01*
X175200500Y-89440691D01*
X175200500Y-89432564D01*
X175201767Y-89432564D01*
X175211262Y-89371655D01*
X175257640Y-89319397D01*
X175323438Y-89300500D01*
X175409306Y-89300500D01*
X175409309Y-89300500D01*
X175523886Y-89269799D01*
X175626613Y-89210489D01*
X175710489Y-89126613D01*
X175736374Y-89081778D01*
X175786939Y-89033565D01*
X175855546Y-89020341D01*
X175920411Y-89046309D01*
X175960940Y-89103223D01*
X175963530Y-89111672D01*
X175980201Y-89173886D01*
X176039511Y-89276613D01*
X176123387Y-89360489D01*
X176226114Y-89419799D01*
X176340691Y-89450500D01*
X176340694Y-89450500D01*
X176459306Y-89450500D01*
X176459309Y-89450500D01*
X176573886Y-89419799D01*
X176676613Y-89360489D01*
X176760489Y-89276613D01*
X176819799Y-89173886D01*
X176850500Y-89059309D01*
X176850500Y-88940691D01*
X176819799Y-88826114D01*
X176760489Y-88723387D01*
X176676613Y-88639511D01*
X176573886Y-88580201D01*
X176459309Y-88549500D01*
X176340691Y-88549500D01*
X176226114Y-88580201D01*
X176226112Y-88580201D01*
X176226112Y-88580202D01*
X176123387Y-88639511D01*
X176123384Y-88639513D01*
X176039513Y-88723384D01*
X176039509Y-88723390D01*
X176013625Y-88768221D01*
X175963057Y-88816436D01*
X175894450Y-88829657D01*
X175829586Y-88803688D01*
X175789058Y-88746773D01*
X175786471Y-88738338D01*
X175769799Y-88676114D01*
X175710489Y-88573387D01*
X175626613Y-88489511D01*
X175523886Y-88430201D01*
X175409309Y-88399500D01*
X175290691Y-88399500D01*
X175176114Y-88430201D01*
X175176112Y-88430201D01*
X175176112Y-88430202D01*
X175073387Y-88489511D01*
X175073384Y-88489513D01*
X174989513Y-88573384D01*
X174989511Y-88573387D01*
X174949641Y-88642444D01*
X174930201Y-88676114D01*
X174899500Y-88790691D01*
X174899500Y-88790693D01*
X174899500Y-88917436D01*
X174898233Y-88917436D01*
X174888738Y-88978345D01*
X174842360Y-89030603D01*
X174776562Y-89049500D01*
X174690691Y-89049500D01*
X174576114Y-89080201D01*
X174576112Y-89080201D01*
X174576112Y-89080202D01*
X174473387Y-89139511D01*
X174473384Y-89139513D01*
X174389513Y-89223384D01*
X174389511Y-89223387D01*
X174358780Y-89276615D01*
X174330201Y-89326114D01*
X174299500Y-89440691D01*
X166577793Y-89440691D01*
X166526613Y-89389511D01*
X166423886Y-89330201D01*
X166336676Y-89306833D01*
X166277018Y-89270469D01*
X166246489Y-89207622D01*
X166254784Y-89138246D01*
X166261377Y-89125074D01*
X166319799Y-89023886D01*
X166350500Y-88909309D01*
X166350500Y-88790691D01*
X166319799Y-88676114D01*
X166260489Y-88573387D01*
X166176613Y-88489511D01*
X166073886Y-88430201D01*
X165959309Y-88399500D01*
X165840691Y-88399500D01*
X165726114Y-88430201D01*
X165726112Y-88430201D01*
X165726112Y-88430202D01*
X165623387Y-88489511D01*
X165623384Y-88489513D01*
X165539513Y-88573384D01*
X165539511Y-88573387D01*
X165499641Y-88642444D01*
X165480201Y-88676114D01*
X165449500Y-88790691D01*
X153974299Y-88790691D01*
X153957799Y-88729114D01*
X153898489Y-88626387D01*
X153814613Y-88542511D01*
X153711886Y-88483201D01*
X153597309Y-88452500D01*
X153478691Y-88452500D01*
X153364114Y-88483201D01*
X153364112Y-88483201D01*
X153364112Y-88483202D01*
X153261387Y-88542511D01*
X153261384Y-88542513D01*
X153177513Y-88626384D01*
X153177511Y-88626387D01*
X153121508Y-88723387D01*
X153118201Y-88729114D01*
X153087500Y-88843691D01*
X151588500Y-88843691D01*
X151557799Y-88729114D01*
X151498489Y-88626387D01*
X151414613Y-88542511D01*
X151311886Y-88483201D01*
X151197309Y-88452500D01*
X151078691Y-88452500D01*
X150964114Y-88483201D01*
X150964112Y-88483201D01*
X150964112Y-88483202D01*
X150861387Y-88542511D01*
X150861384Y-88542513D01*
X150777513Y-88626384D01*
X150777511Y-88626387D01*
X150721508Y-88723387D01*
X150718201Y-88729114D01*
X150687500Y-88843691D01*
X131767754Y-88843691D01*
X132111716Y-88499728D01*
X132057550Y-88460375D01*
X131863879Y-88361694D01*
X131864396Y-88360678D01*
X131814192Y-88320221D01*
X131792127Y-88253927D01*
X131809406Y-88186228D01*
X131860542Y-88138617D01*
X131916048Y-88125500D01*
X132219750Y-88125500D01*
X132219751Y-88125499D01*
X132234568Y-88122552D01*
X132278229Y-88113868D01*
X132278229Y-88113867D01*
X132278231Y-88113867D01*
X132344552Y-88069552D01*
X132388867Y-88003231D01*
X132388867Y-88003229D01*
X132388868Y-88003229D01*
X132400499Y-87944752D01*
X132400500Y-87944750D01*
X132400500Y-87340691D01*
X142849494Y-87340691D01*
X142849494Y-87459309D01*
X142880195Y-87573886D01*
X142939505Y-87676613D01*
X143023381Y-87760489D01*
X143126108Y-87819799D01*
X143240685Y-87850500D01*
X143240688Y-87850500D01*
X143359300Y-87850500D01*
X143359303Y-87850500D01*
X143473880Y-87819799D01*
X143576607Y-87760489D01*
X143612315Y-87724780D01*
X143673635Y-87691296D01*
X143743327Y-87696280D01*
X143787676Y-87724781D01*
X143823384Y-87760489D01*
X143926111Y-87819799D01*
X144040688Y-87850500D01*
X144040691Y-87850500D01*
X144159303Y-87850500D01*
X144159306Y-87850500D01*
X144273883Y-87819799D01*
X144376610Y-87760489D01*
X144412318Y-87724780D01*
X144473638Y-87691296D01*
X144543330Y-87696280D01*
X144587679Y-87724781D01*
X144623387Y-87760489D01*
X144726114Y-87819799D01*
X144840691Y-87850500D01*
X144840694Y-87850500D01*
X144959306Y-87850500D01*
X144959309Y-87850500D01*
X145073886Y-87819799D01*
X145176613Y-87760489D01*
X145260489Y-87676613D01*
X145319799Y-87573886D01*
X145350500Y-87459309D01*
X145350500Y-87350691D01*
X153099500Y-87350691D01*
X153099500Y-87469309D01*
X153130201Y-87583886D01*
X153189511Y-87686613D01*
X153273387Y-87770489D01*
X153376114Y-87829799D01*
X153490691Y-87860500D01*
X153490694Y-87860500D01*
X153609306Y-87860500D01*
X153609309Y-87860500D01*
X153723886Y-87829799D01*
X153826613Y-87770489D01*
X153910489Y-87686613D01*
X153942613Y-87630972D01*
X153993180Y-87582757D01*
X154061787Y-87569535D01*
X154126652Y-87595503D01*
X154157386Y-87630972D01*
X154189511Y-87686613D01*
X154273387Y-87770489D01*
X154376114Y-87829799D01*
X154490691Y-87860500D01*
X154490694Y-87860500D01*
X154609306Y-87860500D01*
X154609309Y-87860500D01*
X154723886Y-87829799D01*
X154826613Y-87770489D01*
X154910489Y-87686613D01*
X154917613Y-87674274D01*
X154968180Y-87626058D01*
X155036787Y-87612836D01*
X155101652Y-87638804D01*
X155132387Y-87674274D01*
X155139508Y-87686609D01*
X155139510Y-87686611D01*
X155139511Y-87686613D01*
X155223387Y-87770489D01*
X155326114Y-87829799D01*
X155440691Y-87860500D01*
X155440694Y-87860500D01*
X155559306Y-87860500D01*
X155559309Y-87860500D01*
X155673886Y-87829799D01*
X155776613Y-87770489D01*
X155860489Y-87686613D01*
X155919799Y-87583886D01*
X155950500Y-87469309D01*
X155950500Y-87350691D01*
X155919799Y-87236114D01*
X155860489Y-87133387D01*
X155776613Y-87049511D01*
X155673886Y-86990201D01*
X155559309Y-86959500D01*
X155440691Y-86959500D01*
X155326114Y-86990201D01*
X155326112Y-86990201D01*
X155326112Y-86990202D01*
X155223387Y-87049511D01*
X155223384Y-87049513D01*
X155139513Y-87133384D01*
X155139511Y-87133387D01*
X155132386Y-87145728D01*
X155081817Y-87193942D01*
X155013210Y-87207163D01*
X154948346Y-87181194D01*
X154917614Y-87145728D01*
X154910489Y-87133387D01*
X154826613Y-87049511D01*
X154723886Y-86990201D01*
X154609309Y-86959500D01*
X154490691Y-86959500D01*
X154376114Y-86990201D01*
X154376112Y-86990201D01*
X154376112Y-86990202D01*
X154273387Y-87049511D01*
X154273384Y-87049513D01*
X154189513Y-87133384D01*
X154189511Y-87133387D01*
X154157387Y-87189027D01*
X154106819Y-87237242D01*
X154038212Y-87250464D01*
X153973347Y-87224496D01*
X153942613Y-87189027D01*
X153940095Y-87184666D01*
X153910489Y-87133387D01*
X153826613Y-87049511D01*
X153723886Y-86990201D01*
X153609309Y-86959500D01*
X153490691Y-86959500D01*
X153376114Y-86990201D01*
X153376112Y-86990201D01*
X153376112Y-86990202D01*
X153273387Y-87049511D01*
X153273384Y-87049513D01*
X153189513Y-87133384D01*
X153189511Y-87133387D01*
X153135975Y-87226114D01*
X153130201Y-87236114D01*
X153099500Y-87350691D01*
X145350500Y-87350691D01*
X145350500Y-87340691D01*
X145319799Y-87226114D01*
X145260489Y-87123387D01*
X145176613Y-87039511D01*
X145073886Y-86980201D01*
X144959309Y-86949500D01*
X144840691Y-86949500D01*
X144726114Y-86980201D01*
X144726112Y-86980201D01*
X144726112Y-86980202D01*
X144623387Y-87039511D01*
X144623383Y-87039514D01*
X144587678Y-87075219D01*
X144526355Y-87108704D01*
X144456663Y-87103718D01*
X144412317Y-87075218D01*
X144376612Y-87039513D01*
X144376610Y-87039511D01*
X144273883Y-86980201D01*
X144159306Y-86949500D01*
X144040688Y-86949500D01*
X143926111Y-86980201D01*
X143926109Y-86980201D01*
X143926109Y-86980202D01*
X143823384Y-87039511D01*
X143823380Y-87039514D01*
X143787675Y-87075219D01*
X143726352Y-87108704D01*
X143656660Y-87103718D01*
X143612314Y-87075218D01*
X143576609Y-87039513D01*
X143576607Y-87039511D01*
X143473880Y-86980201D01*
X143359303Y-86949500D01*
X143240685Y-86949500D01*
X143126108Y-86980201D01*
X143126106Y-86980201D01*
X143126106Y-86980202D01*
X143023381Y-87039511D01*
X143023378Y-87039513D01*
X142939507Y-87123384D01*
X142939505Y-87123387D01*
X142899993Y-87191824D01*
X142880195Y-87226114D01*
X142849494Y-87340691D01*
X132400500Y-87340691D01*
X132400500Y-86940691D01*
X168949500Y-86940691D01*
X168949500Y-87059309D01*
X168980201Y-87173886D01*
X169039511Y-87276613D01*
X169039513Y-87276615D01*
X169125217Y-87362319D01*
X169158702Y-87423642D01*
X169153718Y-87493334D01*
X169125217Y-87537681D01*
X169039513Y-87623384D01*
X169039511Y-87623387D01*
X168980971Y-87724781D01*
X168980201Y-87726114D01*
X168949500Y-87840691D01*
X168949500Y-87959309D01*
X168980201Y-88073886D01*
X169039511Y-88176613D01*
X169123387Y-88260489D01*
X169226114Y-88319799D01*
X169340691Y-88350500D01*
X169340694Y-88350500D01*
X169459306Y-88350500D01*
X169459309Y-88350500D01*
X169573886Y-88319799D01*
X169676613Y-88260489D01*
X169760489Y-88176613D01*
X169819799Y-88073886D01*
X169850500Y-87959309D01*
X169850500Y-87840691D01*
X169819799Y-87726114D01*
X169760489Y-87623387D01*
X169676613Y-87539511D01*
X169674783Y-87537681D01*
X169641298Y-87476358D01*
X169646282Y-87406666D01*
X169674783Y-87362319D01*
X169715412Y-87321690D01*
X169760489Y-87276613D01*
X169819799Y-87173886D01*
X169850500Y-87059309D01*
X169850500Y-86940691D01*
X181049500Y-86940691D01*
X181049500Y-87059309D01*
X181080201Y-87173886D01*
X181139511Y-87276613D01*
X181223387Y-87360489D01*
X181279027Y-87392613D01*
X181327242Y-87443181D01*
X181340464Y-87511788D01*
X181314496Y-87576653D01*
X181279027Y-87607387D01*
X181223387Y-87639511D01*
X181223384Y-87639513D01*
X181139513Y-87723384D01*
X181139511Y-87723387D01*
X181091379Y-87806754D01*
X181080201Y-87826114D01*
X181049500Y-87940691D01*
X181049500Y-88059309D01*
X181080201Y-88173886D01*
X181139511Y-88276613D01*
X181223387Y-88360489D01*
X181326114Y-88419799D01*
X181440691Y-88450500D01*
X181440694Y-88450500D01*
X181559306Y-88450500D01*
X181559309Y-88450500D01*
X181673886Y-88419799D01*
X181776613Y-88360489D01*
X181860489Y-88276613D01*
X181919799Y-88173886D01*
X181950500Y-88059309D01*
X181950500Y-87940691D01*
X181919799Y-87826114D01*
X181860489Y-87723387D01*
X181776613Y-87639511D01*
X181720972Y-87607386D01*
X181672757Y-87556820D01*
X181659535Y-87488213D01*
X181685503Y-87423348D01*
X181720973Y-87392613D01*
X181776613Y-87360489D01*
X181860489Y-87276613D01*
X181919799Y-87173886D01*
X181950500Y-87059309D01*
X181950500Y-86940691D01*
X183049500Y-86940691D01*
X183049500Y-87059309D01*
X183080201Y-87173886D01*
X183139511Y-87276613D01*
X183223387Y-87360489D01*
X183279027Y-87392613D01*
X183327242Y-87443181D01*
X183340464Y-87511788D01*
X183314496Y-87576653D01*
X183279027Y-87607387D01*
X183223387Y-87639511D01*
X183223384Y-87639513D01*
X183139513Y-87723384D01*
X183139511Y-87723387D01*
X183091379Y-87806754D01*
X183080201Y-87826114D01*
X183049500Y-87940691D01*
X183049500Y-88059309D01*
X183080201Y-88173886D01*
X183139511Y-88276613D01*
X183223387Y-88360489D01*
X183326114Y-88419799D01*
X183440691Y-88450500D01*
X183440694Y-88450500D01*
X183559306Y-88450500D01*
X183559309Y-88450500D01*
X183673886Y-88419799D01*
X183776613Y-88360489D01*
X183860489Y-88276613D01*
X183919799Y-88173886D01*
X183950500Y-88059309D01*
X183950500Y-87940691D01*
X183919799Y-87826114D01*
X183860489Y-87723387D01*
X183776613Y-87639511D01*
X183720972Y-87607386D01*
X183672757Y-87556820D01*
X183659535Y-87488213D01*
X183685503Y-87423348D01*
X183720973Y-87392613D01*
X183776613Y-87360489D01*
X183860489Y-87276613D01*
X183919799Y-87173886D01*
X183950500Y-87059309D01*
X183950500Y-86940691D01*
X183919799Y-86826114D01*
X183893175Y-86780000D01*
X185725138Y-86780000D01*
X186528012Y-86780000D01*
X186510795Y-86789940D01*
X186454940Y-86845795D01*
X186415444Y-86914204D01*
X186395000Y-86990504D01*
X186395000Y-87069496D01*
X186415444Y-87145796D01*
X186454940Y-87214205D01*
X186510795Y-87270060D01*
X186528012Y-87280000D01*
X185725138Y-87280000D01*
X185733430Y-87321690D01*
X185733430Y-87321692D01*
X185808807Y-87503671D01*
X185808814Y-87503684D01*
X185918248Y-87667462D01*
X185918251Y-87667466D01*
X186057533Y-87806748D01*
X186057537Y-87806751D01*
X186221315Y-87916185D01*
X186221328Y-87916192D01*
X186403306Y-87991569D01*
X186403318Y-87991572D01*
X186596504Y-88029999D01*
X186596508Y-88030000D01*
X187060496Y-88030000D01*
X187127535Y-88049685D01*
X187173290Y-88102489D01*
X187183234Y-88171647D01*
X187175057Y-88201453D01*
X187143538Y-88277545D01*
X187143535Y-88277555D01*
X187119500Y-88398389D01*
X187119500Y-88474553D01*
X187099815Y-88541592D01*
X187047011Y-88587347D01*
X186977853Y-88597291D01*
X186933500Y-88581940D01*
X186843886Y-88530201D01*
X186729309Y-88499500D01*
X186610691Y-88499500D01*
X186496114Y-88530201D01*
X186496112Y-88530201D01*
X186496112Y-88530202D01*
X186393387Y-88589511D01*
X186393384Y-88589513D01*
X186309513Y-88673384D01*
X186309511Y-88673387D01*
X186261651Y-88756283D01*
X186250201Y-88776114D01*
X186219500Y-88890691D01*
X186219500Y-89009309D01*
X186250201Y-89123886D01*
X186309511Y-89226613D01*
X186393387Y-89310489D01*
X186496114Y-89369799D01*
X186610691Y-89400500D01*
X186610694Y-89400500D01*
X186729306Y-89400500D01*
X186729309Y-89400500D01*
X186843886Y-89369799D01*
X186946613Y-89310489D01*
X187030489Y-89226613D01*
X187089799Y-89123886D01*
X187120500Y-89009309D01*
X187120500Y-89009304D01*
X187121326Y-89003034D01*
X187149593Y-88939137D01*
X187207917Y-88900666D01*
X187277782Y-88899835D01*
X187331946Y-88931538D01*
X187346263Y-88945855D01*
X187346267Y-88945858D01*
X187448707Y-89014307D01*
X187448716Y-89014312D01*
X187469739Y-89023020D01*
X187562548Y-89061463D01*
X187664692Y-89081780D01*
X187683389Y-89085499D01*
X187683393Y-89085500D01*
X187683394Y-89085500D01*
X187806607Y-89085500D01*
X187806608Y-89085499D01*
X187927452Y-89061463D01*
X188041286Y-89014311D01*
X188143733Y-88945858D01*
X188230858Y-88858733D01*
X188299311Y-88756286D01*
X188346463Y-88642452D01*
X188370500Y-88521606D01*
X188370500Y-88398394D01*
X188346463Y-88277548D01*
X188303525Y-88173887D01*
X188299312Y-88163716D01*
X188299307Y-88163707D01*
X188244405Y-88081541D01*
X188223527Y-88014864D01*
X188242011Y-87947484D01*
X188278617Y-87909548D01*
X188432458Y-87806754D01*
X188432466Y-87806748D01*
X188571748Y-87667466D01*
X188571751Y-87667462D01*
X188681185Y-87503684D01*
X188681192Y-87503671D01*
X188756569Y-87321692D01*
X188756569Y-87321690D01*
X188764862Y-87280000D01*
X187961988Y-87280000D01*
X187979205Y-87270060D01*
X188035060Y-87214205D01*
X188074556Y-87145796D01*
X188095000Y-87069496D01*
X188095000Y-86990504D01*
X188074556Y-86914204D01*
X188035060Y-86845795D01*
X187979205Y-86789940D01*
X187961988Y-86780000D01*
X188764862Y-86780000D01*
X190055138Y-86780000D01*
X190858012Y-86780000D01*
X190840795Y-86789940D01*
X190784940Y-86845795D01*
X190745444Y-86914204D01*
X190725000Y-86990504D01*
X190725000Y-87069496D01*
X190745444Y-87145796D01*
X190784940Y-87214205D01*
X190840795Y-87270060D01*
X190858012Y-87280000D01*
X190055138Y-87280000D01*
X190063430Y-87321690D01*
X190063430Y-87321692D01*
X190138807Y-87503671D01*
X190138814Y-87503684D01*
X190248248Y-87667462D01*
X190248251Y-87667466D01*
X190387533Y-87806748D01*
X190387537Y-87806751D01*
X190551315Y-87916185D01*
X190551328Y-87916192D01*
X190733306Y-87991569D01*
X190733318Y-87991572D01*
X190926504Y-88029999D01*
X190926508Y-88030000D01*
X191175000Y-88030000D01*
X191175000Y-87330000D01*
X191675000Y-87330000D01*
X191675000Y-88030000D01*
X191923492Y-88030000D01*
X191923495Y-88029999D01*
X192116681Y-87991572D01*
X192116693Y-87991569D01*
X192298671Y-87916192D01*
X192298684Y-87916185D01*
X192462462Y-87806751D01*
X192462466Y-87806748D01*
X192601748Y-87667466D01*
X192601751Y-87667462D01*
X192711185Y-87503684D01*
X192711192Y-87503671D01*
X192786569Y-87321692D01*
X192786569Y-87321690D01*
X192794862Y-87280000D01*
X191991988Y-87280000D01*
X192009205Y-87270060D01*
X192065060Y-87214205D01*
X192104556Y-87145796D01*
X192125000Y-87069496D01*
X192125000Y-86990504D01*
X192104556Y-86914204D01*
X192065060Y-86845795D01*
X192009205Y-86789940D01*
X191991988Y-86780000D01*
X192794862Y-86780000D01*
X192786569Y-86738309D01*
X192786569Y-86738307D01*
X192711192Y-86556328D01*
X192711185Y-86556315D01*
X192601751Y-86392537D01*
X192601748Y-86392533D01*
X192462466Y-86253251D01*
X192462462Y-86253248D01*
X192298684Y-86143814D01*
X192298671Y-86143807D01*
X192116693Y-86068430D01*
X192116681Y-86068427D01*
X191923495Y-86030000D01*
X191675000Y-86030000D01*
X191675000Y-86730000D01*
X191175000Y-86730000D01*
X191175000Y-86030000D01*
X190926504Y-86030000D01*
X190733318Y-86068427D01*
X190733306Y-86068430D01*
X190551328Y-86143807D01*
X190551315Y-86143814D01*
X190387537Y-86253248D01*
X190387533Y-86253251D01*
X190248251Y-86392533D01*
X190248248Y-86392537D01*
X190138814Y-86556315D01*
X190138807Y-86556328D01*
X190063430Y-86738307D01*
X190063430Y-86738309D01*
X190055138Y-86780000D01*
X188764862Y-86780000D01*
X188756569Y-86738309D01*
X188756569Y-86738307D01*
X188681192Y-86556328D01*
X188681185Y-86556315D01*
X188571751Y-86392537D01*
X188571748Y-86392533D01*
X188432466Y-86253251D01*
X188432462Y-86253248D01*
X188268684Y-86143814D01*
X188268671Y-86143807D01*
X188086693Y-86068430D01*
X188086681Y-86068427D01*
X187893495Y-86030000D01*
X187495000Y-86030000D01*
X187495000Y-86730000D01*
X186995000Y-86730000D01*
X186995000Y-86030000D01*
X186596504Y-86030000D01*
X186403318Y-86068427D01*
X186403306Y-86068430D01*
X186221328Y-86143807D01*
X186221315Y-86143814D01*
X186057537Y-86253248D01*
X186057533Y-86253251D01*
X185918251Y-86392533D01*
X185918248Y-86392537D01*
X185808814Y-86556315D01*
X185808807Y-86556328D01*
X185733430Y-86738307D01*
X185733430Y-86738309D01*
X185725138Y-86780000D01*
X183893175Y-86780000D01*
X183860489Y-86723387D01*
X183776613Y-86639511D01*
X183673886Y-86580201D01*
X183559309Y-86549500D01*
X183440691Y-86549500D01*
X183326114Y-86580201D01*
X183326112Y-86580201D01*
X183326112Y-86580202D01*
X183223387Y-86639511D01*
X183223384Y-86639513D01*
X183139513Y-86723384D01*
X183139511Y-86723387D01*
X183080201Y-86826114D01*
X183049500Y-86940691D01*
X181950500Y-86940691D01*
X181919799Y-86826114D01*
X181860489Y-86723387D01*
X181776613Y-86639511D01*
X181673886Y-86580201D01*
X181559309Y-86549500D01*
X181440691Y-86549500D01*
X181326114Y-86580201D01*
X181326112Y-86580201D01*
X181326112Y-86580202D01*
X181223387Y-86639511D01*
X181223384Y-86639513D01*
X181139513Y-86723384D01*
X181139511Y-86723387D01*
X181080201Y-86826114D01*
X181049500Y-86940691D01*
X169850500Y-86940691D01*
X169819799Y-86826114D01*
X169760489Y-86723387D01*
X169676613Y-86639511D01*
X169573886Y-86580201D01*
X169459309Y-86549500D01*
X169340691Y-86549500D01*
X169226114Y-86580201D01*
X169226112Y-86580201D01*
X169226112Y-86580202D01*
X169123387Y-86639511D01*
X169123384Y-86639513D01*
X169039513Y-86723384D01*
X169039511Y-86723387D01*
X168980201Y-86826114D01*
X168949500Y-86940691D01*
X132400500Y-86940691D01*
X132400500Y-86205249D01*
X132400499Y-86205247D01*
X132388868Y-86146770D01*
X132388867Y-86146769D01*
X132344552Y-86080447D01*
X132278232Y-86036133D01*
X132278226Y-86036131D01*
X132219752Y-86024500D01*
X132219748Y-86024500D01*
X130480252Y-86024500D01*
X130480247Y-86024500D01*
X130421770Y-86036131D01*
X130421769Y-86036132D01*
X130355447Y-86080447D01*
X130311132Y-86146769D01*
X130311131Y-86146770D01*
X130299500Y-86205247D01*
X130299500Y-87944752D01*
X130311131Y-88003229D01*
X130311132Y-88003230D01*
X130355447Y-88069552D01*
X130421769Y-88113867D01*
X130421770Y-88113868D01*
X130480247Y-88125499D01*
X130480250Y-88125500D01*
X130783952Y-88125500D01*
X130850991Y-88145185D01*
X130896746Y-88197989D01*
X130906690Y-88267147D01*
X130877665Y-88330703D01*
X130835735Y-88360938D01*
X130836121Y-88361694D01*
X130642439Y-88460380D01*
X130588282Y-88499727D01*
X130588282Y-88499728D01*
X131220591Y-89132037D01*
X131157007Y-89149075D01*
X131042993Y-89214901D01*
X130949901Y-89307993D01*
X130884075Y-89422007D01*
X130867037Y-89485591D01*
X130234728Y-88853282D01*
X130234727Y-88853282D01*
X130195380Y-88907439D01*
X130098904Y-89096782D01*
X130033242Y-89298869D01*
X130033242Y-89298872D01*
X130000000Y-89508753D01*
X126300500Y-89508753D01*
X126300500Y-85930691D01*
X175799500Y-85930691D01*
X175799500Y-86049309D01*
X175830201Y-86163886D01*
X175889511Y-86266613D01*
X175973387Y-86350489D01*
X176076114Y-86409799D01*
X176190691Y-86440500D01*
X176190694Y-86440500D01*
X176309306Y-86440500D01*
X176309309Y-86440500D01*
X176423886Y-86409799D01*
X176526613Y-86350489D01*
X176610489Y-86266613D01*
X176669799Y-86163886D01*
X176700500Y-86049309D01*
X176700500Y-85930691D01*
X176669799Y-85816114D01*
X176610489Y-85713387D01*
X176526613Y-85629511D01*
X176423886Y-85570201D01*
X176309309Y-85539500D01*
X176190691Y-85539500D01*
X176076114Y-85570201D01*
X176076112Y-85570201D01*
X176076112Y-85570202D01*
X175973387Y-85629511D01*
X175973384Y-85629513D01*
X175889513Y-85713384D01*
X175889511Y-85713387D01*
X175830201Y-85816114D01*
X175799500Y-85930691D01*
X126300500Y-85930691D01*
X126300500Y-85040691D01*
X174049500Y-85040691D01*
X174049500Y-85159309D01*
X174080201Y-85273886D01*
X174139511Y-85376613D01*
X174223387Y-85460489D01*
X174326114Y-85519799D01*
X174440691Y-85550500D01*
X174440694Y-85550500D01*
X174559306Y-85550500D01*
X174559309Y-85550500D01*
X174673886Y-85519799D01*
X174776613Y-85460489D01*
X174860489Y-85376613D01*
X174919799Y-85273886D01*
X174950500Y-85159309D01*
X174950500Y-85040691D01*
X174919799Y-84926114D01*
X174860489Y-84823387D01*
X174777793Y-84740691D01*
X177049500Y-84740691D01*
X177049500Y-84859309D01*
X177080201Y-84973886D01*
X177139511Y-85076613D01*
X177223387Y-85160489D01*
X177326114Y-85219799D01*
X177440691Y-85250500D01*
X177440694Y-85250500D01*
X177559306Y-85250500D01*
X177559309Y-85250500D01*
X177673886Y-85219799D01*
X177776613Y-85160489D01*
X177860489Y-85076613D01*
X177919799Y-84973886D01*
X177950500Y-84859309D01*
X177950500Y-84740691D01*
X177919799Y-84626114D01*
X177860489Y-84523387D01*
X177776613Y-84439511D01*
X177673886Y-84380201D01*
X177559309Y-84349500D01*
X177440691Y-84349500D01*
X177326114Y-84380201D01*
X177326112Y-84380201D01*
X177326112Y-84380202D01*
X177223387Y-84439511D01*
X177223384Y-84439513D01*
X177139513Y-84523384D01*
X177139511Y-84523387D01*
X177080201Y-84626114D01*
X177049500Y-84740691D01*
X174777793Y-84740691D01*
X174776613Y-84739511D01*
X174673886Y-84680201D01*
X174559309Y-84649500D01*
X174440691Y-84649500D01*
X174326114Y-84680201D01*
X174326112Y-84680201D01*
X174326112Y-84680202D01*
X174223387Y-84739511D01*
X174223384Y-84739513D01*
X174139513Y-84823384D01*
X174139511Y-84823387D01*
X174080201Y-84926114D01*
X174049500Y-85040691D01*
X126300500Y-85040691D01*
X126300500Y-83440691D01*
X150699500Y-83440691D01*
X150699500Y-83559309D01*
X150730201Y-83673886D01*
X150789511Y-83776613D01*
X150873387Y-83860489D01*
X150976114Y-83919799D01*
X151090691Y-83950500D01*
X151090694Y-83950500D01*
X151209306Y-83950500D01*
X151209309Y-83950500D01*
X151323886Y-83919799D01*
X151426613Y-83860489D01*
X151510489Y-83776613D01*
X151569799Y-83673886D01*
X151600500Y-83559309D01*
X151600500Y-83440691D01*
X151569799Y-83326114D01*
X151510489Y-83223387D01*
X151426613Y-83139511D01*
X151342055Y-83090691D01*
X164599500Y-83090691D01*
X164599500Y-83209309D01*
X164630201Y-83323886D01*
X164689511Y-83426613D01*
X164773387Y-83510489D01*
X164876114Y-83569799D01*
X164990691Y-83600500D01*
X164990694Y-83600500D01*
X165109306Y-83600500D01*
X165109309Y-83600500D01*
X165223886Y-83569799D01*
X165326613Y-83510489D01*
X165410489Y-83426613D01*
X165469799Y-83323886D01*
X165500500Y-83209309D01*
X165500500Y-83090691D01*
X165469799Y-82976114D01*
X165410489Y-82873387D01*
X165326613Y-82789511D01*
X165223886Y-82730201D01*
X165109309Y-82699500D01*
X164990691Y-82699500D01*
X164876114Y-82730201D01*
X164876112Y-82730201D01*
X164876112Y-82730202D01*
X164773387Y-82789511D01*
X164773384Y-82789513D01*
X164689513Y-82873384D01*
X164689511Y-82873387D01*
X164630201Y-82976114D01*
X164599500Y-83090691D01*
X151342055Y-83090691D01*
X151323886Y-83080201D01*
X151209309Y-83049500D01*
X151090691Y-83049500D01*
X150976114Y-83080201D01*
X150976112Y-83080201D01*
X150976112Y-83080202D01*
X150873387Y-83139511D01*
X150873384Y-83139513D01*
X150789513Y-83223384D01*
X150789511Y-83223387D01*
X150730201Y-83326114D01*
X150699500Y-83440691D01*
X126300500Y-83440691D01*
X126300500Y-81440691D01*
X175349500Y-81440691D01*
X175349500Y-81559309D01*
X175380201Y-81673886D01*
X175439511Y-81776613D01*
X175523387Y-81860489D01*
X175626114Y-81919799D01*
X175740691Y-81950500D01*
X175740694Y-81950500D01*
X175859306Y-81950500D01*
X175859309Y-81950500D01*
X175973886Y-81919799D01*
X176076613Y-81860489D01*
X176160489Y-81776613D01*
X176219799Y-81673886D01*
X176238120Y-81605513D01*
X186599500Y-81605513D01*
X186599500Y-81794486D01*
X186629059Y-81981118D01*
X186687454Y-82160836D01*
X186713788Y-82212518D01*
X186773240Y-82329199D01*
X186884310Y-82482073D01*
X187017927Y-82615690D01*
X187170801Y-82726760D01*
X187245683Y-82764914D01*
X187339163Y-82812545D01*
X187339165Y-82812545D01*
X187339168Y-82812547D01*
X187435497Y-82843846D01*
X187518881Y-82870940D01*
X187705514Y-82900500D01*
X187705519Y-82900500D01*
X187894486Y-82900500D01*
X188081118Y-82870940D01*
X188260832Y-82812547D01*
X188429199Y-82726760D01*
X188582073Y-82615690D01*
X188715690Y-82482073D01*
X188826760Y-82329199D01*
X188912547Y-82160832D01*
X188970940Y-81981118D01*
X188996767Y-81818052D01*
X189000500Y-81794486D01*
X189000500Y-81605514D01*
X188999068Y-81596474D01*
X188999068Y-81596473D01*
X188970940Y-81418881D01*
X188912545Y-81239163D01*
X188861769Y-81139511D01*
X188826760Y-81070801D01*
X188715690Y-80917927D01*
X188582073Y-80784310D01*
X188429199Y-80673240D01*
X188339079Y-80627321D01*
X188260836Y-80587454D01*
X188081118Y-80529059D01*
X187894486Y-80499500D01*
X187894481Y-80499500D01*
X187705519Y-80499500D01*
X187705514Y-80499500D01*
X187518881Y-80529059D01*
X187339163Y-80587454D01*
X187170800Y-80673240D01*
X187119286Y-80710668D01*
X187017927Y-80784310D01*
X187017925Y-80784312D01*
X187017924Y-80784312D01*
X186884312Y-80917924D01*
X186884312Y-80917925D01*
X186884310Y-80917927D01*
X186836610Y-80983579D01*
X186773240Y-81070800D01*
X186687454Y-81239163D01*
X186629059Y-81418881D01*
X186599500Y-81605513D01*
X176238120Y-81605513D01*
X176250500Y-81559309D01*
X176250500Y-81440691D01*
X176219799Y-81326114D01*
X176160489Y-81223387D01*
X176076613Y-81139511D01*
X175973886Y-81080201D01*
X175859309Y-81049500D01*
X175740691Y-81049500D01*
X175626114Y-81080201D01*
X175626112Y-81080201D01*
X175626112Y-81080202D01*
X175523387Y-81139511D01*
X175523384Y-81139513D01*
X175439513Y-81223384D01*
X175439511Y-81223387D01*
X175380201Y-81326114D01*
X175349500Y-81440691D01*
X126300500Y-81440691D01*
X126300500Y-78238632D01*
X129957398Y-78238632D01*
X129957398Y-78445571D01*
X129997766Y-78648514D01*
X129997768Y-78648522D01*
X130060305Y-78799500D01*
X130076957Y-78839700D01*
X130110241Y-78889513D01*
X130191922Y-79011759D01*
X130338240Y-79158077D01*
X130338243Y-79158079D01*
X130510300Y-79273043D01*
X130701478Y-79352232D01*
X130904428Y-79392601D01*
X130904432Y-79392602D01*
X130904433Y-79392602D01*
X131111364Y-79392602D01*
X131111365Y-79392601D01*
X131314318Y-79352232D01*
X131505496Y-79273043D01*
X131628745Y-79190691D01*
X162799500Y-79190691D01*
X162799500Y-79309309D01*
X162830201Y-79423886D01*
X162889511Y-79526613D01*
X162973387Y-79610489D01*
X163076114Y-79669799D01*
X163190691Y-79700500D01*
X163190694Y-79700500D01*
X163309306Y-79700500D01*
X163309309Y-79700500D01*
X163423886Y-79669799D01*
X163526613Y-79610489D01*
X163610489Y-79526613D01*
X163669799Y-79423886D01*
X163685392Y-79365691D01*
X164624500Y-79365691D01*
X164624500Y-79484309D01*
X164655201Y-79598886D01*
X164714511Y-79701613D01*
X164798387Y-79785489D01*
X164901114Y-79844799D01*
X165015691Y-79875500D01*
X165015694Y-79875500D01*
X165134306Y-79875500D01*
X165134309Y-79875500D01*
X165248886Y-79844799D01*
X165351613Y-79785489D01*
X165435489Y-79701613D01*
X165494799Y-79598886D01*
X165525500Y-79484309D01*
X165525500Y-79365691D01*
X165494799Y-79251114D01*
X165435489Y-79148387D01*
X165351613Y-79064511D01*
X165248886Y-79005201D01*
X165134309Y-78974500D01*
X165015691Y-78974500D01*
X164901114Y-79005201D01*
X164901112Y-79005201D01*
X164901112Y-79005202D01*
X164798387Y-79064511D01*
X164798384Y-79064513D01*
X164714513Y-79148384D01*
X164714511Y-79148387D01*
X164690087Y-79190691D01*
X164655201Y-79251114D01*
X164624500Y-79365691D01*
X163685392Y-79365691D01*
X163700500Y-79309309D01*
X163700500Y-79190691D01*
X163669799Y-79076114D01*
X163610489Y-78973387D01*
X163526613Y-78889511D01*
X163423886Y-78830201D01*
X163309309Y-78799500D01*
X163190691Y-78799500D01*
X163076114Y-78830201D01*
X163076112Y-78830201D01*
X163076112Y-78830202D01*
X162973387Y-78889511D01*
X162973384Y-78889513D01*
X162889513Y-78973384D01*
X162889511Y-78973387D01*
X162830201Y-79076114D01*
X162799500Y-79190691D01*
X131628745Y-79190691D01*
X131677553Y-79158079D01*
X131687248Y-79148384D01*
X131740750Y-79094883D01*
X131823872Y-79011760D01*
X131823873Y-79011759D01*
X131823875Y-79011757D01*
X131938839Y-78839700D01*
X132018028Y-78648522D01*
X132058398Y-78445567D01*
X132058398Y-78238637D01*
X132018028Y-78035682D01*
X131938839Y-77844504D01*
X131823875Y-77672447D01*
X131823873Y-77672444D01*
X131677555Y-77526126D01*
X131591524Y-77468643D01*
X131505496Y-77411161D01*
X131314318Y-77331972D01*
X131314310Y-77331970D01*
X131111367Y-77291602D01*
X131111363Y-77291602D01*
X130904433Y-77291602D01*
X130904428Y-77291602D01*
X130701485Y-77331970D01*
X130701477Y-77331972D01*
X130510301Y-77411160D01*
X130338240Y-77526126D01*
X130191922Y-77672444D01*
X130076956Y-77844505D01*
X129997768Y-78035681D01*
X129997766Y-78035689D01*
X129957398Y-78238632D01*
X126300500Y-78238632D01*
X126300500Y-75987494D01*
X129456697Y-75987494D01*
X129456697Y-76106112D01*
X129487398Y-76220689D01*
X129546708Y-76323416D01*
X129630584Y-76407292D01*
X129733311Y-76466602D01*
X129847888Y-76497303D01*
X129847891Y-76497303D01*
X129966503Y-76497303D01*
X129966506Y-76497303D01*
X130081083Y-76466602D01*
X130122688Y-76442581D01*
X131753449Y-76442581D01*
X131753449Y-76649520D01*
X131793817Y-76852463D01*
X131793819Y-76852471D01*
X131873007Y-77043647D01*
X131987973Y-77215708D01*
X132134291Y-77362026D01*
X132134294Y-77362028D01*
X132306351Y-77476992D01*
X132497529Y-77556181D01*
X132700479Y-77596550D01*
X132700483Y-77596551D01*
X132700484Y-77596551D01*
X132907415Y-77596551D01*
X132907416Y-77596550D01*
X133110369Y-77556181D01*
X133301547Y-77476992D01*
X133473604Y-77362028D01*
X133619926Y-77215706D01*
X133734890Y-77043649D01*
X133814079Y-76852471D01*
X133854449Y-76649516D01*
X133854449Y-76442586D01*
X133844127Y-76390691D01*
X135699500Y-76390691D01*
X135699500Y-76509309D01*
X135730201Y-76623886D01*
X135789511Y-76726613D01*
X135873387Y-76810489D01*
X135976114Y-76869799D01*
X136090691Y-76900500D01*
X136090694Y-76900500D01*
X136209306Y-76900500D01*
X136209309Y-76900500D01*
X136323886Y-76869799D01*
X136426613Y-76810489D01*
X136510489Y-76726613D01*
X136569799Y-76623886D01*
X136600500Y-76509309D01*
X136600500Y-76390691D01*
X136569799Y-76276114D01*
X136510489Y-76173387D01*
X136426613Y-76089511D01*
X136323886Y-76030201D01*
X136209309Y-75999500D01*
X136090691Y-75999500D01*
X135976114Y-76030201D01*
X135976112Y-76030201D01*
X135976112Y-76030202D01*
X135873387Y-76089511D01*
X135873384Y-76089513D01*
X135789513Y-76173384D01*
X135789511Y-76173387D01*
X135730201Y-76276114D01*
X135699500Y-76390691D01*
X133844127Y-76390691D01*
X133814079Y-76239631D01*
X133734890Y-76048453D01*
X133619926Y-75876396D01*
X133619924Y-75876393D01*
X133473606Y-75730075D01*
X133319349Y-75627005D01*
X133301547Y-75615110D01*
X133110369Y-75535921D01*
X133110361Y-75535919D01*
X132907418Y-75495551D01*
X132907414Y-75495551D01*
X132700484Y-75495551D01*
X132700479Y-75495551D01*
X132497536Y-75535919D01*
X132497528Y-75535921D01*
X132306352Y-75615109D01*
X132134291Y-75730075D01*
X131987973Y-75876393D01*
X131873007Y-76048454D01*
X131793819Y-76239630D01*
X131793817Y-76239638D01*
X131753449Y-76442581D01*
X130122688Y-76442581D01*
X130183810Y-76407292D01*
X130267686Y-76323416D01*
X130326996Y-76220689D01*
X130357697Y-76106112D01*
X130357697Y-75987494D01*
X130326996Y-75872917D01*
X130267686Y-75770190D01*
X130183810Y-75686314D01*
X130081083Y-75627004D01*
X129966506Y-75596303D01*
X129847888Y-75596303D01*
X129733311Y-75627004D01*
X129733309Y-75627004D01*
X129733309Y-75627005D01*
X129630584Y-75686314D01*
X129630581Y-75686316D01*
X129546710Y-75770187D01*
X129546708Y-75770190D01*
X129487398Y-75872917D01*
X129456697Y-75987494D01*
X126300500Y-75987494D01*
X126300500Y-74646530D01*
X133549500Y-74646530D01*
X133549500Y-74853469D01*
X133589868Y-75056412D01*
X133589870Y-75056420D01*
X133669058Y-75247596D01*
X133784024Y-75419657D01*
X133930342Y-75565975D01*
X133930345Y-75565977D01*
X134102402Y-75680941D01*
X134293580Y-75760130D01*
X134496530Y-75800499D01*
X134496534Y-75800500D01*
X134496535Y-75800500D01*
X134703466Y-75800500D01*
X134703467Y-75800499D01*
X134906420Y-75760130D01*
X135097598Y-75680941D01*
X135269655Y-75565977D01*
X135415977Y-75419655D01*
X135530941Y-75247598D01*
X135589795Y-75105513D01*
X186599500Y-75105513D01*
X186599500Y-75294486D01*
X186629059Y-75481118D01*
X186687454Y-75660836D01*
X186758617Y-75800500D01*
X186773240Y-75829199D01*
X186884310Y-75982073D01*
X187017927Y-76115690D01*
X187170801Y-76226760D01*
X187196062Y-76239631D01*
X187339163Y-76312545D01*
X187339165Y-76312545D01*
X187339168Y-76312547D01*
X187435497Y-76343846D01*
X187518881Y-76370940D01*
X187705514Y-76400500D01*
X187705519Y-76400500D01*
X187894486Y-76400500D01*
X188081118Y-76370940D01*
X188149217Y-76348813D01*
X188260832Y-76312547D01*
X188429199Y-76226760D01*
X188582073Y-76115690D01*
X188715690Y-75982073D01*
X188826760Y-75829199D01*
X188912547Y-75660832D01*
X188970940Y-75481118D01*
X189000500Y-75294486D01*
X189000500Y-75105514D01*
X188999068Y-75096474D01*
X188999068Y-75096473D01*
X188970940Y-74918881D01*
X188912545Y-74739163D01*
X188865346Y-74646530D01*
X188826760Y-74570801D01*
X188715690Y-74417927D01*
X188582073Y-74284310D01*
X188429199Y-74173240D01*
X188339079Y-74127321D01*
X188260836Y-74087454D01*
X188081118Y-74029059D01*
X187894486Y-73999500D01*
X187894481Y-73999500D01*
X187705519Y-73999500D01*
X187705514Y-73999500D01*
X187518881Y-74029059D01*
X187339163Y-74087454D01*
X187170800Y-74173240D01*
X187119286Y-74210668D01*
X187017927Y-74284310D01*
X187017925Y-74284312D01*
X187017924Y-74284312D01*
X186884312Y-74417924D01*
X186884312Y-74417925D01*
X186884310Y-74417927D01*
X186877554Y-74427226D01*
X186773240Y-74570800D01*
X186687454Y-74739163D01*
X186629059Y-74918881D01*
X186599500Y-75105513D01*
X135589795Y-75105513D01*
X135610130Y-75056420D01*
X135650500Y-74853465D01*
X135650500Y-74646535D01*
X135610130Y-74443580D01*
X135530941Y-74252402D01*
X135489707Y-74190691D01*
X138849500Y-74190691D01*
X138849500Y-74309309D01*
X138880201Y-74423886D01*
X138939511Y-74526613D01*
X139023387Y-74610489D01*
X139126114Y-74669799D01*
X139240691Y-74700500D01*
X139240694Y-74700500D01*
X139359306Y-74700500D01*
X139359309Y-74700500D01*
X139473886Y-74669799D01*
X139576613Y-74610489D01*
X139660489Y-74526613D01*
X139719799Y-74423886D01*
X139750500Y-74309309D01*
X139750500Y-74190691D01*
X139719799Y-74076114D01*
X139660489Y-73973387D01*
X139576613Y-73889511D01*
X139473886Y-73830201D01*
X139359309Y-73799500D01*
X139240691Y-73799500D01*
X139126114Y-73830201D01*
X139126112Y-73830201D01*
X139126112Y-73830202D01*
X139023387Y-73889511D01*
X139023384Y-73889513D01*
X138939513Y-73973384D01*
X138939511Y-73973387D01*
X138924435Y-73999500D01*
X138880201Y-74076114D01*
X138849500Y-74190691D01*
X135489707Y-74190691D01*
X135415977Y-74080345D01*
X135415975Y-74080342D01*
X135269657Y-73934024D01*
X135119269Y-73833539D01*
X135097598Y-73819059D01*
X134906420Y-73739870D01*
X134906412Y-73739868D01*
X134703469Y-73699500D01*
X134703465Y-73699500D01*
X134496535Y-73699500D01*
X134496530Y-73699500D01*
X134293587Y-73739868D01*
X134293579Y-73739870D01*
X134102403Y-73819058D01*
X133930342Y-73934024D01*
X133784024Y-74080342D01*
X133669058Y-74252403D01*
X133589870Y-74443579D01*
X133589868Y-74443587D01*
X133549500Y-74646530D01*
X126300500Y-74646530D01*
X126300500Y-73948118D01*
X131496073Y-73948118D01*
X131496073Y-74066736D01*
X131526774Y-74181313D01*
X131586084Y-74284040D01*
X131669960Y-74367916D01*
X131772687Y-74427226D01*
X131887264Y-74457927D01*
X131887267Y-74457927D01*
X132005879Y-74457927D01*
X132005882Y-74457927D01*
X132120459Y-74427226D01*
X132223186Y-74367916D01*
X132307062Y-74284040D01*
X132366372Y-74181313D01*
X132397073Y-74066736D01*
X132397073Y-73948118D01*
X132366372Y-73833541D01*
X132307062Y-73730814D01*
X132223186Y-73646938D01*
X132120459Y-73587628D01*
X132005882Y-73556927D01*
X131887264Y-73556927D01*
X131772687Y-73587628D01*
X131772685Y-73587628D01*
X131772685Y-73587629D01*
X131669960Y-73646938D01*
X131669957Y-73646940D01*
X131586086Y-73730811D01*
X131586084Y-73730814D01*
X131526774Y-73833541D01*
X131496073Y-73948118D01*
X126300500Y-73948118D01*
X126300500Y-72850478D01*
X135345552Y-72850478D01*
X135345552Y-73057417D01*
X135385920Y-73260360D01*
X135385922Y-73260368D01*
X135465110Y-73451544D01*
X135580076Y-73623605D01*
X135726394Y-73769923D01*
X135726397Y-73769925D01*
X135898454Y-73884889D01*
X136089632Y-73964078D01*
X136267712Y-73999500D01*
X136292582Y-74004447D01*
X136292586Y-74004448D01*
X136292587Y-74004448D01*
X136499518Y-74004448D01*
X136499519Y-74004447D01*
X136702472Y-73964078D01*
X136893650Y-73884889D01*
X137065707Y-73769925D01*
X137212029Y-73623603D01*
X137326993Y-73451546D01*
X137406182Y-73260368D01*
X137420042Y-73190691D01*
X163974500Y-73190691D01*
X163974500Y-73309309D01*
X164005201Y-73423886D01*
X164064511Y-73526613D01*
X164148387Y-73610489D01*
X164251114Y-73669799D01*
X164365691Y-73700500D01*
X164365694Y-73700500D01*
X164484306Y-73700500D01*
X164484309Y-73700500D01*
X164598886Y-73669799D01*
X164701613Y-73610489D01*
X164785489Y-73526613D01*
X164844799Y-73423886D01*
X164875500Y-73309309D01*
X164875500Y-73190691D01*
X164844799Y-73076114D01*
X164785489Y-72973387D01*
X164701613Y-72889511D01*
X164598886Y-72830201D01*
X164484309Y-72799500D01*
X164365691Y-72799500D01*
X164251114Y-72830201D01*
X164251112Y-72830201D01*
X164251112Y-72830202D01*
X164148387Y-72889511D01*
X164148384Y-72889513D01*
X164064513Y-72973384D01*
X164064511Y-72973387D01*
X164015998Y-73057414D01*
X164005201Y-73076114D01*
X163974500Y-73190691D01*
X137420042Y-73190691D01*
X137446552Y-73057413D01*
X137446552Y-72850483D01*
X137406182Y-72647528D01*
X137360359Y-72536904D01*
X137337958Y-72482821D01*
X137330489Y-72413351D01*
X137361764Y-72350872D01*
X137421853Y-72315220D01*
X137491678Y-72317714D01*
X137508814Y-72324884D01*
X137673878Y-72408989D01*
X137673882Y-72408991D01*
X137875974Y-72474654D01*
X137942103Y-72485128D01*
X137942103Y-71590909D01*
X137999110Y-71623822D01*
X138126277Y-71657897D01*
X138257929Y-71657897D01*
X138385096Y-71623822D01*
X138442103Y-71590909D01*
X138442103Y-72485127D01*
X138508229Y-72474654D01*
X138508232Y-72474654D01*
X138710320Y-72408992D01*
X138899660Y-72312517D01*
X139071562Y-72187624D01*
X139071567Y-72187620D01*
X139221826Y-72037361D01*
X139221830Y-72037356D01*
X139346723Y-71865454D01*
X139443198Y-71676114D01*
X139508860Y-71474026D01*
X139508860Y-71474023D01*
X139519334Y-71407897D01*
X138625115Y-71407897D01*
X138658028Y-71350890D01*
X138692103Y-71223723D01*
X138692103Y-71092071D01*
X138658028Y-70964904D01*
X138625115Y-70907897D01*
X139519334Y-70907897D01*
X139508860Y-70841770D01*
X139508860Y-70841767D01*
X139441692Y-70635043D01*
X139442779Y-70634689D01*
X139435883Y-70570593D01*
X139467153Y-70508111D01*
X139527239Y-70472454D01*
X139597064Y-70474943D01*
X139645595Y-70504919D01*
X139860337Y-70719661D01*
X139860341Y-70719664D01*
X139860343Y-70719666D01*
X139909923Y-70752794D01*
X139988152Y-70768355D01*
X139988154Y-70768355D01*
X139988156Y-70768355D01*
X140041228Y-70757798D01*
X140066385Y-70752794D01*
X140115965Y-70719666D01*
X140200942Y-70634689D01*
X140274101Y-70561530D01*
X154139500Y-70561530D01*
X154139500Y-70768469D01*
X154179868Y-70971412D01*
X154179870Y-70971420D01*
X154259058Y-71162596D01*
X154374024Y-71334657D01*
X154520342Y-71480975D01*
X154520345Y-71480977D01*
X154692402Y-71595941D01*
X154883580Y-71675130D01*
X155086530Y-71715499D01*
X155086534Y-71715500D01*
X155086535Y-71715500D01*
X155293466Y-71715500D01*
X155293467Y-71715499D01*
X155496420Y-71675130D01*
X155687598Y-71595941D01*
X155859655Y-71480977D01*
X156005977Y-71334655D01*
X156120941Y-71162598D01*
X156200130Y-70971420D01*
X156240500Y-70768465D01*
X156240500Y-70561535D01*
X156240499Y-70561530D01*
X156679500Y-70561530D01*
X156679500Y-70768469D01*
X156719868Y-70971412D01*
X156719870Y-70971420D01*
X156799058Y-71162596D01*
X156914024Y-71334657D01*
X157060342Y-71480975D01*
X157060345Y-71480977D01*
X157232402Y-71595941D01*
X157423580Y-71675130D01*
X157626530Y-71715499D01*
X157626534Y-71715500D01*
X157626535Y-71715500D01*
X157833466Y-71715500D01*
X157833467Y-71715499D01*
X158036420Y-71675130D01*
X158227598Y-71595941D01*
X158399655Y-71480977D01*
X158545977Y-71334655D01*
X158660941Y-71162598D01*
X158740130Y-70971420D01*
X158780500Y-70768465D01*
X158780500Y-70561535D01*
X158780499Y-70561530D01*
X159219500Y-70561530D01*
X159219500Y-70768469D01*
X159259868Y-70971412D01*
X159259870Y-70971420D01*
X159339058Y-71162596D01*
X159454024Y-71334657D01*
X159600342Y-71480975D01*
X159600345Y-71480977D01*
X159772402Y-71595941D01*
X159963580Y-71675130D01*
X160166530Y-71715499D01*
X160166534Y-71715500D01*
X160166535Y-71715500D01*
X160373466Y-71715500D01*
X160373467Y-71715499D01*
X160576420Y-71675130D01*
X160767598Y-71595941D01*
X160939655Y-71480977D01*
X161085977Y-71334655D01*
X161200941Y-71162598D01*
X161280130Y-70971420D01*
X161320500Y-70768465D01*
X161320500Y-70561535D01*
X161280130Y-70358580D01*
X161200941Y-70167402D01*
X161085977Y-69995345D01*
X161085975Y-69995342D01*
X160939657Y-69849024D01*
X160790131Y-69749115D01*
X160767598Y-69734059D01*
X160576420Y-69654870D01*
X160576412Y-69654868D01*
X160373469Y-69614500D01*
X160373465Y-69614500D01*
X160166535Y-69614500D01*
X160166530Y-69614500D01*
X159963587Y-69654868D01*
X159963579Y-69654870D01*
X159772403Y-69734058D01*
X159600342Y-69849024D01*
X159454024Y-69995342D01*
X159339058Y-70167403D01*
X159259870Y-70358579D01*
X159259868Y-70358587D01*
X159219500Y-70561530D01*
X158780499Y-70561530D01*
X158740130Y-70358580D01*
X158660941Y-70167402D01*
X158545977Y-69995345D01*
X158545975Y-69995342D01*
X158399657Y-69849024D01*
X158250131Y-69749115D01*
X158227598Y-69734059D01*
X158036420Y-69654870D01*
X158036412Y-69654868D01*
X157833469Y-69614500D01*
X157833465Y-69614500D01*
X157626535Y-69614500D01*
X157626530Y-69614500D01*
X157423587Y-69654868D01*
X157423579Y-69654870D01*
X157232403Y-69734058D01*
X157060342Y-69849024D01*
X156914024Y-69995342D01*
X156799058Y-70167403D01*
X156719870Y-70358579D01*
X156719868Y-70358587D01*
X156679500Y-70561530D01*
X156240499Y-70561530D01*
X156200130Y-70358580D01*
X156120941Y-70167402D01*
X156005977Y-69995345D01*
X156005975Y-69995342D01*
X155859657Y-69849024D01*
X155710131Y-69749115D01*
X155687598Y-69734059D01*
X155496420Y-69654870D01*
X155496412Y-69654868D01*
X155293469Y-69614500D01*
X155293465Y-69614500D01*
X155086535Y-69614500D01*
X155086530Y-69614500D01*
X154883587Y-69654868D01*
X154883579Y-69654870D01*
X154692403Y-69734058D01*
X154520342Y-69849024D01*
X154374024Y-69995342D01*
X154259058Y-70167403D01*
X154179870Y-70358579D01*
X154179868Y-70358587D01*
X154139500Y-70561530D01*
X140274101Y-70561530D01*
X140367870Y-70467762D01*
X141345969Y-69489662D01*
X141345974Y-69489657D01*
X141379102Y-69440077D01*
X141394663Y-69361846D01*
X141394663Y-69361843D01*
X141379102Y-69283615D01*
X141379102Y-69283614D01*
X141362480Y-69258739D01*
X141345974Y-69234035D01*
X141345972Y-69234033D01*
X141345969Y-69234029D01*
X140133470Y-68021530D01*
X154139500Y-68021530D01*
X154139500Y-68228469D01*
X154179868Y-68431412D01*
X154179870Y-68431420D01*
X154245939Y-68590925D01*
X154259059Y-68622598D01*
X154310827Y-68700075D01*
X154374024Y-68794657D01*
X154520342Y-68940975D01*
X154520345Y-68940977D01*
X154692402Y-69055941D01*
X154883580Y-69135130D01*
X155025146Y-69163289D01*
X155086530Y-69175499D01*
X155086534Y-69175500D01*
X155086535Y-69175500D01*
X155293466Y-69175500D01*
X155293467Y-69175499D01*
X155496420Y-69135130D01*
X155687598Y-69055941D01*
X155859655Y-68940977D01*
X156005977Y-68794655D01*
X156120941Y-68622598D01*
X156200130Y-68431420D01*
X156240500Y-68228465D01*
X156240500Y-68021535D01*
X156240499Y-68021530D01*
X156679500Y-68021530D01*
X156679500Y-68228469D01*
X156719868Y-68431412D01*
X156719870Y-68431420D01*
X156785939Y-68590925D01*
X156799059Y-68622598D01*
X156850827Y-68700075D01*
X156914024Y-68794657D01*
X157060342Y-68940975D01*
X157060345Y-68940977D01*
X157232402Y-69055941D01*
X157423580Y-69135130D01*
X157565146Y-69163289D01*
X157626530Y-69175499D01*
X157626534Y-69175500D01*
X157626535Y-69175500D01*
X157833466Y-69175500D01*
X157833467Y-69175499D01*
X158036420Y-69135130D01*
X158227598Y-69055941D01*
X158399655Y-68940977D01*
X158545977Y-68794655D01*
X158660941Y-68622598D01*
X158740130Y-68431420D01*
X158780500Y-68228465D01*
X158780500Y-68021535D01*
X158780499Y-68021530D01*
X159219500Y-68021530D01*
X159219500Y-68228469D01*
X159259868Y-68431412D01*
X159259870Y-68431420D01*
X159325939Y-68590925D01*
X159339059Y-68622598D01*
X159390827Y-68700075D01*
X159454024Y-68794657D01*
X159600342Y-68940975D01*
X159600345Y-68940977D01*
X159772402Y-69055941D01*
X159963580Y-69135130D01*
X160105146Y-69163289D01*
X160166530Y-69175499D01*
X160166534Y-69175500D01*
X160166535Y-69175500D01*
X160373466Y-69175500D01*
X160373467Y-69175499D01*
X160576420Y-69135130D01*
X160767598Y-69055941D01*
X160939655Y-68940977D01*
X161085977Y-68794655D01*
X161200941Y-68622598D01*
X161221439Y-68573112D01*
X161265279Y-68518708D01*
X161331573Y-68496643D01*
X161399273Y-68513922D01*
X161446884Y-68565059D01*
X161460000Y-68620564D01*
X161460000Y-69022844D01*
X161466401Y-69082372D01*
X161466403Y-69082379D01*
X161516645Y-69217086D01*
X161516649Y-69217093D01*
X161602809Y-69332187D01*
X161602812Y-69332190D01*
X161717906Y-69418350D01*
X161717913Y-69418354D01*
X161852620Y-69468596D01*
X161852627Y-69468598D01*
X161912155Y-69474999D01*
X161912172Y-69475000D01*
X162314435Y-69475000D01*
X162381474Y-69494685D01*
X162427229Y-69547489D01*
X162437173Y-69616647D01*
X162408148Y-69680203D01*
X162361888Y-69713561D01*
X162312403Y-69734058D01*
X162140342Y-69849024D01*
X161994024Y-69995342D01*
X161879058Y-70167403D01*
X161799870Y-70358579D01*
X161799868Y-70358587D01*
X161759500Y-70561530D01*
X161759500Y-70768469D01*
X161799868Y-70971412D01*
X161799870Y-70971420D01*
X161879058Y-71162596D01*
X161994024Y-71334657D01*
X162140342Y-71480975D01*
X162140345Y-71480977D01*
X162312402Y-71595941D01*
X162503580Y-71675130D01*
X162706530Y-71715499D01*
X162706534Y-71715500D01*
X162706535Y-71715500D01*
X162913466Y-71715500D01*
X162913467Y-71715499D01*
X163116420Y-71675130D01*
X163307598Y-71595941D01*
X163479655Y-71480977D01*
X163625977Y-71334655D01*
X163740941Y-71162598D01*
X163820130Y-70971420D01*
X163860500Y-70768465D01*
X163860500Y-70561535D01*
X163820130Y-70358580D01*
X163740941Y-70167402D01*
X163625977Y-69995345D01*
X163625975Y-69995342D01*
X163479657Y-69849024D01*
X163330131Y-69749115D01*
X163307598Y-69734059D01*
X163258112Y-69713561D01*
X163203709Y-69669720D01*
X163181644Y-69603426D01*
X163198923Y-69535726D01*
X163250061Y-69488116D01*
X163305565Y-69475000D01*
X163707828Y-69475000D01*
X163707844Y-69474999D01*
X163767372Y-69468598D01*
X163767379Y-69468596D01*
X163902086Y-69418354D01*
X163902093Y-69418350D01*
X164017187Y-69332190D01*
X164017190Y-69332187D01*
X164103350Y-69217093D01*
X164103354Y-69217086D01*
X164153596Y-69082379D01*
X164153598Y-69082372D01*
X164159999Y-69022844D01*
X164160000Y-69022827D01*
X164160000Y-68375000D01*
X163243012Y-68375000D01*
X163275925Y-68317993D01*
X163310000Y-68190826D01*
X163310000Y-68059174D01*
X163275925Y-67932007D01*
X163243012Y-67875000D01*
X164160000Y-67875000D01*
X164160000Y-67720730D01*
X177749500Y-67720730D01*
X177749500Y-69079269D01*
X177752353Y-69109699D01*
X177752353Y-69109701D01*
X177795860Y-69234033D01*
X177797207Y-69237882D01*
X177877850Y-69347150D01*
X177987118Y-69427793D01*
X178022221Y-69440076D01*
X178115299Y-69472646D01*
X178145730Y-69475500D01*
X178145734Y-69475500D01*
X178954270Y-69475500D01*
X178984699Y-69472646D01*
X178984701Y-69472646D01*
X179048790Y-69450219D01*
X179112882Y-69427793D01*
X179222150Y-69347150D01*
X179302793Y-69237882D01*
X179328895Y-69163285D01*
X179369615Y-69106513D01*
X179434567Y-69080765D01*
X179503129Y-69094221D01*
X179553532Y-69142608D01*
X179556419Y-69147947D01*
X179609194Y-69251521D01*
X179710967Y-69391602D01*
X179833397Y-69514032D01*
X179973475Y-69615804D01*
X180127744Y-69694408D01*
X180292415Y-69747914D01*
X180292414Y-69747914D01*
X180299999Y-69749115D01*
X180300000Y-69749114D01*
X180300000Y-68680330D01*
X180319745Y-68700075D01*
X180405255Y-68749444D01*
X180500630Y-68775000D01*
X180599370Y-68775000D01*
X180694745Y-68749444D01*
X180780255Y-68700075D01*
X180800000Y-68680330D01*
X180800000Y-69749115D01*
X180807584Y-69747914D01*
X180972255Y-69694408D01*
X181126524Y-69615804D01*
X181266602Y-69514032D01*
X181389032Y-69391602D01*
X181490804Y-69251524D01*
X181569408Y-69097257D01*
X181622914Y-68932584D01*
X181650000Y-68761571D01*
X181650000Y-68650000D01*
X180830330Y-68650000D01*
X180850075Y-68630255D01*
X180899444Y-68544745D01*
X180925000Y-68449370D01*
X180925000Y-68350630D01*
X180899444Y-68255255D01*
X180850075Y-68169745D01*
X180830330Y-68150000D01*
X181650000Y-68150000D01*
X181650000Y-68038428D01*
X181622914Y-67867415D01*
X181569408Y-67702742D01*
X181490804Y-67548475D01*
X181389032Y-67408397D01*
X181266602Y-67285967D01*
X181126524Y-67184195D01*
X180972257Y-67105591D01*
X180807589Y-67052087D01*
X180807581Y-67052085D01*
X180800000Y-67050884D01*
X180800000Y-68119670D01*
X180780255Y-68099925D01*
X180694745Y-68050556D01*
X180599370Y-68025000D01*
X180500630Y-68025000D01*
X180405255Y-68050556D01*
X180319745Y-68099925D01*
X180300000Y-68119670D01*
X180300000Y-67050884D01*
X180299999Y-67050884D01*
X180292418Y-67052085D01*
X180292410Y-67052087D01*
X180127742Y-67105591D01*
X179973475Y-67184195D01*
X179833397Y-67285967D01*
X179710967Y-67408397D01*
X179609194Y-67548478D01*
X179556419Y-67652052D01*
X179508444Y-67702848D01*
X179440623Y-67719642D01*
X179374488Y-67697104D01*
X179331038Y-67642388D01*
X179328908Y-67636751D01*
X179302793Y-67562118D01*
X179222150Y-67452850D01*
X179112882Y-67372207D01*
X179112880Y-67372206D01*
X178984700Y-67327353D01*
X178954270Y-67324500D01*
X178954266Y-67324500D01*
X178145734Y-67324500D01*
X178145730Y-67324500D01*
X178115300Y-67327353D01*
X178115298Y-67327353D01*
X177987119Y-67372206D01*
X177987117Y-67372207D01*
X177877850Y-67452850D01*
X177797207Y-67562117D01*
X177797206Y-67562119D01*
X177752353Y-67690298D01*
X177752353Y-67690300D01*
X177749500Y-67720730D01*
X164160000Y-67720730D01*
X164160000Y-67227172D01*
X164159999Y-67227155D01*
X164153598Y-67167627D01*
X164153596Y-67167620D01*
X164103354Y-67032913D01*
X164103350Y-67032906D01*
X164017190Y-66917812D01*
X164017187Y-66917809D01*
X163902093Y-66831649D01*
X163902086Y-66831645D01*
X163767379Y-66781403D01*
X163767372Y-66781401D01*
X163707844Y-66775000D01*
X163060000Y-66775000D01*
X163060000Y-67691988D01*
X163002993Y-67659075D01*
X162875826Y-67625000D01*
X162744174Y-67625000D01*
X162617007Y-67659075D01*
X162560000Y-67691988D01*
X162560000Y-66775000D01*
X161912155Y-66775000D01*
X161852627Y-66781401D01*
X161852620Y-66781403D01*
X161717913Y-66831645D01*
X161717906Y-66831649D01*
X161602812Y-66917809D01*
X161602809Y-66917812D01*
X161516649Y-67032906D01*
X161516645Y-67032913D01*
X161466403Y-67167620D01*
X161466401Y-67167627D01*
X161460000Y-67227155D01*
X161460000Y-67629435D01*
X161440315Y-67696474D01*
X161387511Y-67742229D01*
X161318353Y-67752173D01*
X161254797Y-67723148D01*
X161221439Y-67676888D01*
X161200941Y-67627403D01*
X161200941Y-67627402D01*
X161085977Y-67455345D01*
X161085975Y-67455342D01*
X160939657Y-67309024D01*
X160817130Y-67227155D01*
X160767598Y-67194059D01*
X160743784Y-67184195D01*
X160576420Y-67114870D01*
X160576412Y-67114868D01*
X160373469Y-67074500D01*
X160373465Y-67074500D01*
X160166535Y-67074500D01*
X160166530Y-67074500D01*
X159963587Y-67114868D01*
X159963579Y-67114870D01*
X159772403Y-67194058D01*
X159600342Y-67309024D01*
X159454024Y-67455342D01*
X159339058Y-67627403D01*
X159259870Y-67818579D01*
X159259868Y-67818587D01*
X159219500Y-68021530D01*
X158780499Y-68021530D01*
X158740130Y-67818580D01*
X158660941Y-67627402D01*
X158545977Y-67455345D01*
X158545975Y-67455342D01*
X158399657Y-67309024D01*
X158277130Y-67227155D01*
X158227598Y-67194059D01*
X158203784Y-67184195D01*
X158036420Y-67114870D01*
X158036412Y-67114868D01*
X157833469Y-67074500D01*
X157833465Y-67074500D01*
X157626535Y-67074500D01*
X157626530Y-67074500D01*
X157423587Y-67114868D01*
X157423579Y-67114870D01*
X157232403Y-67194058D01*
X157060342Y-67309024D01*
X156914024Y-67455342D01*
X156799058Y-67627403D01*
X156719870Y-67818579D01*
X156719868Y-67818587D01*
X156679500Y-68021530D01*
X156240499Y-68021530D01*
X156200130Y-67818580D01*
X156120941Y-67627402D01*
X156005977Y-67455345D01*
X156005975Y-67455342D01*
X155859657Y-67309024D01*
X155737130Y-67227155D01*
X155687598Y-67194059D01*
X155663784Y-67184195D01*
X155496420Y-67114870D01*
X155496412Y-67114868D01*
X155293469Y-67074500D01*
X155293465Y-67074500D01*
X155086535Y-67074500D01*
X155086530Y-67074500D01*
X154883587Y-67114868D01*
X154883579Y-67114870D01*
X154692403Y-67194058D01*
X154520342Y-67309024D01*
X154374024Y-67455342D01*
X154259058Y-67627403D01*
X154179870Y-67818579D01*
X154179868Y-67818587D01*
X154139500Y-68021530D01*
X140133470Y-68021530D01*
X140115970Y-68004030D01*
X140115966Y-68004027D01*
X140066384Y-67970897D01*
X139988156Y-67955337D01*
X139988152Y-67955337D01*
X139909923Y-67970897D01*
X139909922Y-67970897D01*
X139860341Y-68004027D01*
X139860337Y-68004030D01*
X138630338Y-69234029D01*
X138630335Y-69234033D01*
X138597205Y-69283614D01*
X138597205Y-69283615D01*
X138581645Y-69361843D01*
X138581645Y-69361848D01*
X138597205Y-69440076D01*
X138597205Y-69440077D01*
X138616263Y-69468598D01*
X138629304Y-69488116D01*
X138630335Y-69489658D01*
X138630338Y-69489662D01*
X138845080Y-69704404D01*
X138878565Y-69765727D01*
X138873581Y-69835419D01*
X138831709Y-69891352D01*
X138766245Y-69915769D01*
X138715219Y-69907501D01*
X138714958Y-69908308D01*
X138508227Y-69841138D01*
X138442103Y-69830665D01*
X138442103Y-70724885D01*
X138385096Y-70691972D01*
X138257929Y-70657897D01*
X138126277Y-70657897D01*
X137999110Y-70691972D01*
X137942103Y-70724885D01*
X137942103Y-69830665D01*
X137942102Y-69830665D01*
X137875978Y-69841138D01*
X137673887Y-69906800D01*
X137484545Y-70003276D01*
X137312643Y-70128169D01*
X137312638Y-70128173D01*
X137162379Y-70278432D01*
X137162375Y-70278437D01*
X137037482Y-70450339D01*
X136941007Y-70639679D01*
X136875345Y-70841767D01*
X136875345Y-70841770D01*
X136864872Y-70907897D01*
X137759091Y-70907897D01*
X137726178Y-70964904D01*
X137692103Y-71092071D01*
X137692103Y-71223723D01*
X137726178Y-71350890D01*
X137759091Y-71407897D01*
X136864872Y-71407897D01*
X136875345Y-71474023D01*
X136875345Y-71474026D01*
X136941007Y-71676114D01*
X137025116Y-71841185D01*
X137038012Y-71909854D01*
X137011736Y-71974594D01*
X136954630Y-72014852D01*
X136884824Y-72017844D01*
X136867179Y-72012041D01*
X136702476Y-71943819D01*
X136702464Y-71943816D01*
X136499521Y-71903448D01*
X136499517Y-71903448D01*
X136292587Y-71903448D01*
X136292582Y-71903448D01*
X136089639Y-71943816D01*
X136089631Y-71943818D01*
X135898455Y-72023006D01*
X135726394Y-72137972D01*
X135580076Y-72284290D01*
X135465110Y-72456351D01*
X135385922Y-72647527D01*
X135385920Y-72647535D01*
X135345552Y-72850478D01*
X126300500Y-72850478D01*
X126300500Y-66424500D01*
X126320185Y-66357461D01*
X126372989Y-66311706D01*
X126424500Y-66300500D01*
X193575500Y-66300500D01*
X193642539Y-66320185D01*
G37*
%TD.AperFunction*%
%TD*%
M02*
